<svg version="1.1" xmlns="http://www.w3.org/2000/svg" xmlns:xlink="http://www.w3.org/1999/xlink" width="964"
    height="704">
    <defs>
        <clipPath id="NMTyRRCIfoCw">
            <path fill="none" stroke="none" d=" M 0 0 L 964 0 L 964 704 L 0 704 L 0 0 Z" />
        </clipPath>
    </defs>
    <g transform="scale(1,1)" clip-path="url(#NMTyRRCIfoCw)">
        <g>
            <rect fill="rgb(255,255,255)" stroke="none" x="0" y="0" width="964" height="704" fill-opacity="1" />
            <path fill="none" stroke="rgb(37,37,37)" paint-order="fill stroke markers" d=" M 482.5 2.5 L 482.5 704.5"
                stroke-opacity="1" stroke-miterlimit="10" />
            <path fill="none" stroke="rgb(37,37,37)" paint-order="fill stroke markers" d=" M 482.5 1.5 L 478.5 5.5"
                stroke-opacity="1" stroke-miterlimit="10" />
            <path fill="none" stroke="rgb(37,37,37)" paint-order="fill stroke markers" d=" M 482.5 1.5 L 486.5 5.5"
                stroke-opacity="1" stroke-miterlimit="10" />
            <path fill="none" stroke="rgb(37,37,37)" paint-order="fill stroke markers" d=" M 0.5 352.5 L 962.5 352.5"
                stroke-opacity="1" stroke-miterlimit="10" />
            <path fill="none" stroke="rgb(37,37,37)" paint-order="fill stroke markers" d=" M 963.5 352.5 L 959.5 348.5"
                stroke-opacity="1" stroke-miterlimit="10" />
            <path fill="none" stroke="rgb(37,37,37)" paint-order="fill stroke markers" d=" M 963.5 352.5 L 959.5 356.5"
                stroke-opacity="1" stroke-miterlimit="10" />
            <path fill="none" stroke="rgb(37,37,37)" paint-order="fill stroke markers" d=" M 0.5 352.5 L 0.5 355.5"
                stroke-opacity="1" stroke-miterlimit="10" /><text fill="rgb(37,37,37)" stroke="none"
                font-family="geogebra-sans-serif, sans-serif" font-size="12px" font-style="normal" font-weight="normal"
                text-decoration="normal" x="155" y="368" text-anchor="start" dominant-baseline="alphabetic"
                fill-opacity="1">–2</text><text fill="none" stroke="rgb(255,255,255)"
                font-family="geogebra-sans-serif, sans-serif" font-size="12px" font-style="normal" font-weight="normal"
                text-decoration="normal" x="155" y="368" text-anchor="start" dominant-baseline="alphabetic"
                stroke-opacity="1" stroke-linejoin="bevel" stroke-miterlimit="10" stroke-width="3">–2</text><text
                fill="rgb(37,37,37)" stroke="none" font-family="geogebra-sans-serif, sans-serif" font-size="12px"
                font-style="normal" font-weight="normal" text-decoration="normal" x="155" y="368" text-anchor="start"
                dominant-baseline="alphabetic" fill-opacity="1">–2</text>
            <path fill="none" stroke="rgb(37,37,37)" paint-order="fill stroke markers" d=" M 160.5 352.5 L 160.5 355.5"
                stroke-opacity="1" stroke-miterlimit="10" /><text fill="rgb(37,37,37)" stroke="none"
                font-family="geogebra-sans-serif, sans-serif" font-size="12px" font-style="normal" font-weight="normal"
                text-decoration="normal" x="316" y="368" text-anchor="start" dominant-baseline="alphabetic"
                fill-opacity="1">–1</text><text fill="none" stroke="rgb(255,255,255)"
                font-family="geogebra-sans-serif, sans-serif" font-size="12px" font-style="normal" font-weight="normal"
                text-decoration="normal" x="316" y="368" text-anchor="start" dominant-baseline="alphabetic"
                stroke-opacity="1" stroke-linejoin="bevel" stroke-miterlimit="10" stroke-width="3">–1</text><text
                fill="rgb(37,37,37)" stroke="none" font-family="geogebra-sans-serif, sans-serif" font-size="12px"
                font-style="normal" font-weight="normal" text-decoration="normal" x="316" y="368" text-anchor="start"
                dominant-baseline="alphabetic" fill-opacity="1">–1</text>
            <path fill="none" stroke="rgb(37,37,37)" paint-order="fill stroke markers" d=" M 321.5 352.5 L 321.5 355.5"
                stroke-opacity="1" stroke-miterlimit="10" /><text fill="rgb(37,37,37)" stroke="none"
                font-family="geogebra-sans-serif, sans-serif" font-size="12px" font-style="normal" font-weight="normal"
                text-decoration="normal" x="640" y="368" text-anchor="start" dominant-baseline="alphabetic"
                fill-opacity="1">1</text><text fill="none" stroke="rgb(255,255,255)"
                font-family="geogebra-sans-serif, sans-serif" font-size="12px" font-style="normal" font-weight="normal"
                text-decoration="normal" x="640" y="368" text-anchor="start" dominant-baseline="alphabetic"
                stroke-opacity="1" stroke-linejoin="bevel" stroke-miterlimit="10" stroke-width="3">1</text><text
                fill="rgb(37,37,37)" stroke="none" font-family="geogebra-sans-serif, sans-serif" font-size="12px"
                font-style="normal" font-weight="normal" text-decoration="normal" x="640" y="368" text-anchor="start"
                dominant-baseline="alphabetic" fill-opacity="1">1</text>
            <path fill="none" stroke="rgb(37,37,37)" paint-order="fill stroke markers" d=" M 642.5 352.5 L 642.5 355.5"
                stroke-opacity="1" stroke-miterlimit="10" /><text fill="rgb(37,37,37)" stroke="none"
                font-family="geogebra-sans-serif, sans-serif" font-size="12px" font-style="normal" font-weight="normal"
                text-decoration="normal" x="801" y="368" text-anchor="start" dominant-baseline="alphabetic"
                fill-opacity="1">2</text><text fill="none" stroke="rgb(255,255,255)"
                font-family="geogebra-sans-serif, sans-serif" font-size="12px" font-style="normal" font-weight="normal"
                text-decoration="normal" x="801" y="368" text-anchor="start" dominant-baseline="alphabetic"
                stroke-opacity="1" stroke-linejoin="bevel" stroke-miterlimit="10" stroke-width="3">2</text><text
                fill="rgb(37,37,37)" stroke="none" font-family="geogebra-sans-serif, sans-serif" font-size="12px"
                font-style="normal" font-weight="normal" text-decoration="normal" x="801" y="368" text-anchor="start"
                dominant-baseline="alphabetic" fill-opacity="1">2</text>
            <path fill="none" stroke="rgb(37,37,37)" paint-order="fill stroke markers" d=" M 803.5 352.5 L 803.5 355.5"
                stroke-opacity="1" stroke-miterlimit="10" />
            <path fill="none" stroke="rgb(37,37,37)" paint-order="fill stroke markers" d=" M 479.5 673.5 L 482.5 673.5"
                stroke-opacity="1" stroke-miterlimit="10" />
            <path fill="none" stroke="rgb(37,37,37)" paint-order="fill stroke markers" d=" M 479.5 512.5 L 482.5 512.5"
                stroke-opacity="1" stroke-miterlimit="10" />
            <path fill="none" stroke="rgb(37,37,37)" paint-order="fill stroke markers" d=" M 479.5 191.5 L 482.5 191.5"
                stroke-opacity="1" stroke-miterlimit="10" />
            <path fill="none" stroke="rgb(37,37,37)" paint-order="fill stroke markers" d=" M 479.5 30.5 L 482.5 30.5"
                stroke-opacity="1" stroke-miterlimit="10" /><text fill="rgb(37,37,37)" stroke="none"
                font-family="geogebra-sans-serif, sans-serif" font-size="12px" font-style="normal" font-weight="normal"
                text-decoration="normal" x="462" y="678" text-anchor="start" dominant-baseline="alphabetic"
                fill-opacity="1">–2</text><text fill="none" stroke="rgb(255,255,255)"
                font-family="geogebra-sans-serif, sans-serif" font-size="12px" font-style="normal" font-weight="normal"
                text-decoration="normal" x="462" y="678" text-anchor="start" dominant-baseline="alphabetic"
                stroke-opacity="1" stroke-linejoin="bevel" stroke-miterlimit="10" stroke-width="3">–2</text><text
                fill="rgb(37,37,37)" stroke="none" font-family="geogebra-sans-serif, sans-serif" font-size="12px"
                font-style="normal" font-weight="normal" text-decoration="normal" x="462" y="678" text-anchor="start"
                dominant-baseline="alphabetic" fill-opacity="1">–2</text><text fill="rgb(37,37,37)" stroke="none"
                font-family="geogebra-sans-serif, sans-serif" font-size="12px" font-style="normal" font-weight="normal"
                text-decoration="normal" x="462" y="517" text-anchor="start" dominant-baseline="alphabetic"
                fill-opacity="1">–1</text><text fill="none" stroke="rgb(255,255,255)"
                font-family="geogebra-sans-serif, sans-serif" font-size="12px" font-style="normal" font-weight="normal"
                text-decoration="normal" x="462" y="517" text-anchor="start" dominant-baseline="alphabetic"
                stroke-opacity="1" stroke-linejoin="bevel" stroke-miterlimit="10" stroke-width="3">–1</text><text
                fill="rgb(37,37,37)" stroke="none" font-family="geogebra-sans-serif, sans-serif" font-size="12px"
                font-style="normal" font-weight="normal" text-decoration="normal" x="462" y="517" text-anchor="start"
                dominant-baseline="alphabetic" fill-opacity="1">–1</text><text fill="rgb(37,37,37)" stroke="none"
                font-family="geogebra-sans-serif, sans-serif" font-size="12px" font-style="normal" font-weight="normal"
                text-decoration="normal" x="468" y="196" text-anchor="start" dominant-baseline="alphabetic"
                fill-opacity="1">1</text><text fill="none" stroke="rgb(255,255,255)"
                font-family="geogebra-sans-serif, sans-serif" font-size="12px" font-style="normal" font-weight="normal"
                text-decoration="normal" x="468" y="196" text-anchor="start" dominant-baseline="alphabetic"
                stroke-opacity="1" stroke-linejoin="bevel" stroke-miterlimit="10" stroke-width="3">1</text><text
                fill="rgb(37,37,37)" stroke="none" font-family="geogebra-sans-serif, sans-serif" font-size="12px"
                font-style="normal" font-weight="normal" text-decoration="normal" x="468" y="196" text-anchor="start"
                dominant-baseline="alphabetic" fill-opacity="1">1</text><text fill="rgb(37,37,37)" stroke="none"
                font-family="geogebra-sans-serif, sans-serif" font-size="12px" font-style="normal" font-weight="normal"
                text-decoration="normal" x="468" y="35" text-anchor="start" dominant-baseline="alphabetic"
                fill-opacity="1">2</text><text fill="none" stroke="rgb(255,255,255)"
                font-family="geogebra-sans-serif, sans-serif" font-size="12px" font-style="normal" font-weight="normal"
                text-decoration="normal" x="468" y="35" text-anchor="start" dominant-baseline="alphabetic"
                stroke-opacity="1" stroke-linejoin="bevel" stroke-miterlimit="10" stroke-width="3">2</text><text
                fill="rgb(37,37,37)" stroke="none" font-family="geogebra-sans-serif, sans-serif" font-size="12px"
                font-style="normal" font-weight="normal" text-decoration="normal" x="468" y="35" text-anchor="start"
                dominant-baseline="alphabetic" fill-opacity="1">2</text><text fill="rgb(37,37,37)" stroke="none"
                font-family="geogebra-sans-serif, sans-serif" font-size="12px" font-style="normal" font-weight="normal"
                text-decoration="normal" x="468" y="368" text-anchor="start" dominant-baseline="alphabetic"
                fill-opacity="1">0</text><text fill="none" stroke="rgb(255,255,255)"
                font-family="geogebra-sans-serif, sans-serif" font-size="12px" font-style="normal" font-weight="normal"
                text-decoration="normal" x="468" y="368" text-anchor="start" dominant-baseline="alphabetic"
                stroke-opacity="1" stroke-linejoin="bevel" stroke-miterlimit="10" stroke-width="3">0</text><text
                fill="rgb(37,37,37)" stroke="none" font-family="geogebra-sans-serif, sans-serif" font-size="12px"
                font-style="normal" font-weight="normal" text-decoration="normal" x="468" y="368" text-anchor="start"
                dominant-baseline="alphabetic" fill-opacity="1">0</text>
            <path fill="none" stroke="rgb(211,47,47)" paint-order="fill stroke markers"
                d=" M 0 511.87213042566805 L 0 511.8819356099009 L 0 511.87213042566805 L 1.0000000000001137 511.86220303350734 L 1.0000000000001137 511.8622030335074 L 2.0000000000001137 511.85215191799875 L 2.0000000000001137 511.8521519179988 L 3.0000000000001137 511.8419755451249 L 3.0000000000001137 511.8419755451249 L 4.000000000000114 511.8316723620476 L 4.000000000000114 511.8316723620477 L 5.000000000000057 511.8212407968822 L 5.000000000000057 511.8212407968822 L 6.000000000000057 511.81067925846884 L 6.000000000000057 511.8106792584689 L 7.000000000000057 511.7999861361418 L 7.000000000000057 511.7999861361418 L 8.000000000000057 511.7891597994951 L 8.000000000000057 511.78915979949517 L 9.000000000000057 511.778198598147 L 9.000000000000057 511.778198598147 L 10.000000000000057 511.76710086149996 L 10.000000000000057 511.7671008615 L 11.000000000000057 511.75586489849957 L 11.000000000000057 511.75586489849957 L 12.000000000000057 511.7444889973896 L 12.000000000000057 511.7444889973897 L 13.000000000000057 511.732971425465 L 13.000000000000057 511.73297142546505 L 14.000000000000057 511.7213104288215 L 14.000000000000057 511.72131042882154 L 15.000000000000057 511.70950423210263 L 15.000000000000057 511.70950423210263 L 16.000000000000057 511.69755103824446 L 16.000000000000057 511.69755103824446 L 17.000000000000057 511.6854490282161 L 17.000000000000057 511.6854490282161 L 18.000000000000057 511.67319636075877 L 18.000000000000057 511.67319636075877 L 19.000000000000057 511.66079117212104 L 19.000000000000057 511.6607911721211 L 20 511.64823157579127 L 20 511.6482315757913 L 21 511.63551566222714 L 21 511.63551566222714 L 22.000000000000114 511.622641498582 L 22.000000000000114 511.6226414985821 L 23.000000000000114 511.6096071284288 L 23.000000000000114 511.6096071284289 L 24.000000000000057 511.59641057147974 L 24.000000000000057 511.5964105714798 L 25.000000000000057 511.58304982330384 L 25.000000000000057 511.5830498233039 L 26.000000000000057 511.56952285504104 L 26.000000000000057 511.5695228550411 L 27.000000000000057 511.555827613113 L 27.000000000000057 511.555827613113 L 28.000000000000057 511.54196201893086 L 28.000000000000057 511.5419620189309 L 29.000000000000057 511.5279239685997 L 29.000000000000057 511.5279239685997 L 30.000000000000057 511.51371133261966 L 30.000000000000057 511.51371133261966 L 31.000000000000057 511.4993219555839 L 31.000000000000057 511.49932195558404 L 32.00000000000006 511.48475365587353 L 32.00000000000006 511.48475365587353 L 33.00000000000006 511.4700042253481 L 33.00000000000006 511.47000422534813 L 34.00000000000006 511.4550714290341 L 34.00000000000006 511.4550714290341 L 35.00000000000006 511.4399530048091 L 35.00000000000006 511.4399530048092 L 36.00000000000006 511.4246466630831 L 36.00000000000006 511.42464666308314 L 37.00000000000006 511.4091500864754 L 37.00000000000006 511.40915008647545 L 38.00000000000006 511.3934609294893 L 38.00000000000006 511.3934609294894 L 39.00000000000006 511.3775768181821 L 39.00000000000006 511.3775768181821 L 40 511.3614953498322 L 40 511.36149534983224 L 41 511.34521409260253 L 41 511.34521409260253 L 42.000000000000114 511.32873058519993 L 42.000000000000114 511.3287305852 L 43.000000000000114 511.3120423365315 L 43.000000000000114 511.31204233653153 L 44.00000000000006 511.2951468253566 L 44.00000000000006 511.29514682535665 L 45.00000000000006 511.2780414999358 L 45.00000000000006 511.27804149993585 L 46.00000000000006 511.26072377767537 L 46.00000000000006 511.2607237776754 L 47.00000000000006 511.24319104476865 L 47.00000000000006 511.24319104476865 L 48.00000000000006 511.22544065583304 L 48.00000000000006 511.22544065583304 L 49.00000000000006 511.2074699335437 L 49.00000000000006 511.20746993354373 L 50.00000000000006 511.1892761682627 L 50.00000000000006 511.1892761682627 L 51.00000000000006 511.170856617665 L 51.00000000000006 511.1708566176651 L 52.00000000000006 511.1522085063599 L 52.00000000000006 511.1522085063599 L 53.00000000000006 511.1333290255086 L 53.00000000000006 511.13332902550866 L 54.00000000000006 511.1142153324382 L 54.00000000000006 511.1142153324383 L 55.00000000000006 511.0948645502514 L 55.00000000000006 511.0948645502514 L 56.00000000000006 511.0752737674312 L 56.00000000000006 511.07527376743127 L 57.00000000000006 511.055440037444 L 57.00000000000006 511.055440037444 L 58.00000000000006 511.03536037833527 L 58.00000000000006 511.0353603783353 L 59.00000000000006 511.01503177232394 L 59.00000000000006 511.01503177232394 L 60 510.9944511653907 L 60 510.9944511653907 L 61 510.9736154668633 L 61 510.9736154668633 L 62 510.9525215489967 L 62 510.95252154899674 L 63.000000000000114 510.9311662465494 L 63.000000000000114 510.9311662465495 L 64.00000000000006 510.9095463563557 L 64.00000000000006 510.9095463563558 L 65.00000000000006 510.8876586368928 L 65.00000000000006 510.88765863689287 L 66.00000000000006 510.86549980784434 L 66.00000000000006 510.8654998078444 L 67.00000000000006 510.8430665496593 L 67.00000000000006 510.8430665496593 L 68.00000000000006 510.82035550310593 L 68.00000000000006 510.82035550310604 L 69.00000000000006 510.79736326882244 L 69.00000000000006 510.79736326882244 L 70.00000000000006 510.7740864068617 L 70.00000000000006 510.7740864068618 L 71.00000000000006 510.7505214362327 L 71.00000000000006 510.75052143623276 L 72.00000000000006 510.72666483443663 L 72.00000000000006 510.72666483443663 L 73.00000000000006 510.7025130369989 L 73.00000000000006 510.7025130369989 L 74.00000000000006 510.678062436996 L 74.00000000000006 510.6780624369961 L 75.00000000000006 510.65330938457885 L 75.00000000000006 510.65330938457885 L 76.00000000000006 510.6282501864897 L 76.00000000000006 510.62825018648977 L 77.00000000000006 510.60288110557633 L 77.00000000000006 510.60288110557633 L 78.00000000000006 510.5771983602998 L 78.00000000000006 510.5771983602998 L 79.00000000000006 510.5511981242389 L 79.00000000000006 510.55119812423897 L 80 510.52487652558904 L 80 510.5248765255891 L 81 510.49822964665606 L 81 510.4982296466561 L 82 510.4712535233463 L 82 510.4712535233464 L 83.00000000000011 510.443944144651 L 83.00000000000011 510.44394414465114 L 84.00000000000006 510.41629745212606 L 84.00000000000006 510.4162974521262 L 85.00000000000006 510.38830933936686 L 85.00000000000006 510.38830933936686 L 86.00000000000006 510.3599756514783 L 86.00000000000006 510.3599756514784 L 87.00000000000006 510.3312921845403 L 87.00000000000006 510.3312921845403 L 88.00000000000006 510.30225468506706 L 88.00000000000006 510.3022546850671 L 89.00000000000006 510.2728588494632 L 89.00000000000006 510.2728588494632 L 90.00000000000006 510.2431003234734 L 90.00000000000006 510.2431003234734 L 91.00000000000006 510.21297470162756 L 91.00000000000006 510.21297470162756 L 92.00000000000006 510.18247752668145 L 92.00000000000006 510.1824775266815 L 93.00000000000006 510.15160428905136 L 93.00000000000006 510.1516042890514 L 94.00000000000006 510.1203504262445 L 94.00000000000006 510.12035042624456 L 95.00000000000006 510.088711322284 L 95.00000000000006 510.0887113222841 L 96.00000000000006 510.05668230712877 L 96.00000000000006 510.0566823071289 L 97.00000000000006 510.0242586560886 L 97.00000000000006 510.0242586560886 L 98.00000000000006 509.99143558923345 L 98.00000000000006 509.99143558923345 L 99 509.95820827079865 L 99 509.9582082707987 L 100 509.9245718085841 L 100 509.9245718085842 L 101 509.8905212533489 L 101 509.89052125334894 L 102 509.8560515982001 L 102 509.8560515982001 L 103 509.8211577779774 L 103 509.8211577779775 L 104.00000000000006 509.7858346686317 L 104.00000000000006 509.78583466863176 L 105.00000000000006 509.75007708659894 L 105.00000000000006 509.750077086599 L 106.00000000000006 509.7138797881688 L 106.00000000000006 509.7138797881688 L 107.00000000000006 509.6772374688479 L 107.00000000000006 509.677237468848 L 108.00000000000006 509.6401447627186 L 108.00000000000006 509.6401447627186 L 109.00000000000006 509.60259624179133 L 109.00000000000006 509.6025962417914 L 110.00000000000006 509.56458641535323 L 110.00000000000006 509.5645864153533 L 111.00000000000006 509.5261097293106 L 111.00000000000006 509.52610972931063 L 112.00000000000006 509.48716056552644 L 112.00000000000006 509.4871605655265 L 113.00000000000006 509.44773324115323 L 113.00000000000006 509.4477332411533 L 114.00000000000006 509.40782200796 L 114.00000000000006 509.40782200796 L 115.00000000000006 509.3674210516546 L 115.00000000000006 509.3674210516547 L 116.00000000000006 509.326524491201 L 116.00000000000006 509.326524491201 L 117.00000000000006 509.2851263781308 L 117.00000000000006 509.2851263781309 L 118.00000000000006 509.2432206958508 L 118.00000000000006 509.2432206958509 L 119 509.2008013589443 L 119 509.2008013589443 L 120 509.157862212468 L 120 509.157862212468 L 121 509.11439703124387 L 121 509.1143970312439 L 122 509.0703995191459 L 122 509.07039951914595 L 123 509.02586330838193 L 123 509.025863308382 L 124.00000000000006 508.9807819587702 L 124.00000000000006 508.9807819587702 L 125.00000000000006 508.9351489570116 L 125.00000000000006 508.9351489570117 L 126.00000000000006 508.8889577159566 L 126.00000000000006 508.8889577159567 L 127.00000000000006 508.84220157386744 L 127.00000000000006 508.84220157386744 L 128.00000000000006 508.79487379367527 L 128.00000000000006 508.7948737936754 L 129.00000000000006 508.74696756223335 L 129.00000000000006 508.7469675622334 L 130.00000000000006 508.69847598956426 L 130.00000000000006 508.69847598956426 L 131.00000000000006 508.6493921081037 L 131.00000000000006 508.6493921081037 L 132.00000000000006 508.59970887193856 L 132.00000000000006 508.59970887193856 L 133.00000000000006 508.5494191560415 L 133.00000000000006 508.5494191560415 L 134.00000000000006 508.49851575549985 L 134.00000000000006 508.49851575549985 L 135.00000000000006 508.44699138474107 L 135.00000000000006 508.44699138474107 L 136.00000000000006 508.39483867675324 L 136.00000000000006 508.3948386767533 L 137.00000000000006 508.34205018230136 L 137.00000000000006 508.3420501823014 L 138.00000000000006 508.28861836913933 L 138.00000000000006 508.2886183691394 L 139 508.2345356212178 L 139 508.23453562121784 L 140 508.179794237888 L 140 508.1797942378881 L 141 508.1243864331013 L 141 508.12438643310134 L 142 508.0683043346048 L 142 508.06830433460493 L 143 508.0115399831336 L 143 508.0115399831337 L 144 507.9540853315983 L 144 507.9540853315983 L 145.00000000000006 507.8959322442696 L 145.00000000000006 507.89593224426966 L 146.00000000000006 507.8370724959594 L 146.00000000000006 507.83707249595943 L 147.00000000000006 507.77749777119743 L 147.00000000000006 507.77749777119743 L 148.00000000000006 507.7171996634056 L 148.00000000000006 507.71719966340567 L 149.00000000000006 507.65616967406874 L 149.00000000000006 507.6561696740688 L 150.00000000000006 507.59439921190153 L 150.00000000000006 507.5943992119016 L 151.00000000000006 507.5318795920135 L 151.00000000000006 507.5318795920135 L 152.00000000000006 507.46860203507015 L 152.00000000000006 507.46860203507015 L 153.00000000000006 507.404557666452 L 153.00000000000006 507.404557666452 L 154.00000000000006 507.3397375154103 L 154.00000000000006 507.3397375154103 L 155.00000000000006 507.27413251422115 L 155.00000000000006 507.27413251422115 L 156.00000000000006 507.2077334973361 L 156.00000000000006 507.20773349733616 L 157.00000000000006 507.1405312005318 L 157.00000000000006 507.1405312005319 L 158.00000000000006 507.07251626005643 L 158.00000000000006 507.07251626005643 L 159 507.00367921177485 L 159 507.00367921177485 L 160 506.9340104903123 L 160 506.93401049031235 L 161.00000000000006 506.86350042819566 L 161.00000000000006 506.8635004281957 L 162.00000000000006 506.79213925499425 L 162.00000000000006 506.79213925499425 L 163.00000000000006 506.7199170964585 L 163.00000000000006 506.7199170964586 L 164.00000000000006 506.646823973659 L 164.00000000000006 506.646823973659 L 165.00000000000006 506.57284980212285 L 165.00000000000006 506.57284980212296 L 166.00000000000006 506.4979843909713 L 166.00000000000006 506.49798439097134 L 167.00000000000006 506.4222174420555 L 167.00000000000006 506.4222174420556 L 168 506.3455385490933 L 168 506.34553854909336 L 169 506.26793719680484 L 169 506.26793719680495 L 170.00000000000006 506.1894027600498 L 170.00000000000006 506.1894027600498 L 171.00000000000006 506.1099245029636 L 171.00000000000006 506.1099245029637 L 172.00000000000006 506.0294915780963 L 172.00000000000006 506.0294915780964 L 173.00000000000006 505.9480930255504 L 173.00000000000006 505.9480930255504 L 174.00000000000006 505.86571777212134 L 174.00000000000006 505.8657177721214 L 175.00000000000006 505.7823546304394 L 175.00000000000006 505.7823546304394 L 176.00000000000006 505.6979922981126 L 176.00000000000006 505.69799229811264 L 177.00000000000006 505.61261935687287 L 177.00000000000006 505.61261935687287 L 178 505.52622427172344 L 178 505.52622427172344 L 179 505.4387953900897 L 179 505.4387953900898 L 180.00000000000006 505.35032094097323 L 180.00000000000006 505.35032094097323 L 181.00000000000006 505.26078903410803 L 181.00000000000006 505.26078903410814 L 182.00000000000006 505.1701876591217 L 182.00000000000006 505.1701876591218 L 183.00000000000006 505.07850468469985 L 183.00000000000006 505.0785046846999 L 184.00000000000006 504.98572785775497 L 184.00000000000006 504.985727857755 L 185.00000000000006 504.8918448026001 L 185.00000000000006 504.89184480260013 L 186.00000000000006 504.7968430201276 L 186.00000000000006 504.79684302012765 L 187.00000000000006 504.700709886993 L 187.00000000000006 504.7007098869931 L 188 504.60343265480503 L 188 504.6034326548051 L 189 504.50499844932176 L 189 504.50499844932176 L 190 504.4053942696529 L 190 504.405394269653 L 191.00000000000006 504.3046069874701 L 191.00000000000006 504.30460698747015 L 192.00000000000006 504.2026233462235 L 192.00000000000006 504.2026233462235 L 193.00000000000006 504.0994299603668 L 193.00000000000006 504.0994299603669 L 194.00000000000006 503.9950133145913 L 194.00000000000006 503.99501331459135 L 195.00000000000006 503.8893597630668 L 195.00000000000006 503.88935976306686 L 196.00000000000006 503.7824555286939 L 196.00000000000006 503.78245552869396 L 197.00000000000006 503.6742867023646 L 197.00000000000006 503.67428670236467 L 198 503.56483924223375 L 198 503.5648392422338 L 199 503.4540989730008 L 199 503.4540989730008 L 200 503.3420515852034 L 200 503.3420515852034 L 201.00000000000006 503.22868263452204 L 201.00000000000006 503.2286826345221 L 202.00000000000006 503.11397754109737 L 202.00000000000006 503.1139775410974 L 203.00000000000006 502.9979215888606 L 203.00000000000006 502.99792158886066 L 204.00000000000006 502.88049992487663 L 204.00000000000006 502.88049992487663 L 205.00000000000006 502.7616975587018 L 205.00000000000006 502.7616975587018 L 206.00000000000006 502.64149936175596 L 206.00000000000006 502.641499361756 L 207.00000000000006 502.51989006670976 L 207.00000000000006 502.51989006670976 L 208 502.39685426688766 L 208 502.39685426688766 L 209 502.2723764156874 L 209 502.2723764156874 L 210 502.14644082601666 L 210 502.1464408260167 L 211.00000000000006 502.01903166974733 L 211.00000000000006 502.0190316697474 L 212.00000000000006 501.89013297718805 L 212.00000000000006 501.8901329771881 L 213.00000000000006 501.7597286365762 L 213.00000000000006 501.75972863657626 L 214.00000000000006 501.62780239358915 L 214.00000000000006 501.62780239358915 L 215.00000000000006 501.4943378508763 L 215.00000000000006 501.4943378508764 L 216.00000000000006 501.35931846761275 L 216.00000000000006 501.35931846761275 L 217.00000000000006 501.22272755907375 L 217.00000000000006 501.22272755907375 L 218 501.0845482962331 L 218 501.08454829623315 L 219 500.9447637053843 L 219 500.9447637053843 L 220 500.80335666778626 L 220 500.80335666778626 L 221.00000000000006 500.66030991933394 L 221.00000000000006 500.660309919334 L 222.00000000000006 500.515606050255 L 222.00000000000006 500.515606050255 L 223.00000000000006 500.36922750483257 L 223.00000000000006 500.3692275048326 L 224.00000000000006 500.22115658115706 L 224.00000000000006 500.22115658115706 L 225.00000000000006 500.07137543090425 L 225.00000000000006 500.07137543090425 L 226.00000000000003 499.9198660591447 L 226.00000000000003 499.91986605914474 L 227.00000000000003 499.766610324182 L 227.00000000000003 499.766610324182 L 228.00000000000003 499.61158993742254 L 228.00000000000003 499.61158993742254 L 229.00000000000003 499.4547864632776 L 229.00000000000003 499.4547864632777 L 230.00000000000003 499.29618131909785 L 230.00000000000003 499.29618131909785 L 231.00000000000003 499.135755775142 L 231.00000000000003 499.135755775142 L 232.00000000000006 498.97349095458026 L 232.00000000000006 498.97349095458026 L 233.00000000000006 498.809367833534 L 233.00000000000006 498.80936783353405 L 234.00000000000003 498.64336724115174 L 234.00000000000003 498.6433672411518 L 235.00000000000003 498.47546985972315 L 235.00000000000003 498.47546985972315 L 236.00000000000003 498.3056562248322 L 236.00000000000003 498.3056562248322 L 237.00000000000003 498.1339067255501 L 237.00000000000003 498.1339067255501 L 238.00000000000003 497.96020160466924 L 238.00000000000003 497.96020160466924 L 239.00000000000003 497.7845209589791 L 239.00000000000003 497.7845209589791 L 240.00000000000003 497.60684473958577 L 240.00000000000003 497.6068447395858 L 241 497.4271527522752 L 241 497.4271527522752 L 242.00000000000006 497.2454246579222 L 242.00000000000006 497.2454246579223 L 243.00000000000006 497.06163997294624 L 243.00000000000006 497.0616399729463 L 244.00000000000003 496.87577806981415 L 244.00000000000003 496.8757780698142 L 245.00000000000003 496.6878181775927 L 245.00000000000003 496.68781817759276 L 246.00000000000003 496.4977393825505 L 246.00000000000003 496.49773938255055 L 247.00000000000003 496.30552062881145 L 247.00000000000003 496.3055206288115 L 248.00000000000003 496.1111407190609 L 248.00000000000003 496.111140719061 L 249.00000000000003 495.9145783153049 L 249.00000000000003 495.9145783153049 L 250.00000000000003 495.7158119396849 L 250.00000000000003 495.71581193968495 L 251 495.5148199753487 L 251 495.5148199753487 L 252.00000000000006 495.3115806673783 L 252.00000000000006 495.3115806673784 L 253.00000000000003 495.1060721237774 L 253.00000000000003 495.1060721237775 L 254.00000000000003 494.8982723165178 L 254.00000000000003 494.89827231651793 L 255.00000000000003 494.6881590826483 L 255.00000000000003 494.6881590826483 L 256 494.4757101254652 L 256 494.4757101254652 L 257 494.26090301574766 L 257 494.26090301574766 L 258 494.0437151930581 L 258 494.0437151930581 L 259 493.8241239671089 L 259 493.82412396710896 L 260 493.60210651919766 L 260 493.6021065191977 L 261 493.37763990371155 L 261 493.3776399037116 L 262.00000000000006 493.1507010497028 L 262.00000000000006 493.1507010497028 L 263 492.92126676253565 L 263 492.92126676253565 L 264 492.6893137256078 L 264 492.6893137256079 L 265 492.4548185021464 L 265 492.45481850214645 L 266 492.21775753707993 L 266 492.21775753708 L 267 491.9781071589888 L 267 491.9781071589888 L 268 491.73584358213435 L 268 491.7358435821344 L 269 491.49094290856937 L 269 491.4909429085694 L 270 491.2433811303297 L 270 491.24338113032974 L 271 490.9931341317099 L 271 490.99313413170995 L 272 490.7401776916241 L 272 490.7401776916241 L 273 490.48448748605244 L 273 490.4844874860525 L 274 490.22603909057614 L 274 490.22603909057614 L 275 489.96480798300104 L 275 489.9648079830011 L 276 489.7007695460728 L 276 489.7007695460729 L 277 489.4338990702831 L 277 489.43389907028313 L 278 489.16417175676986 L 278 489.1641717567699 L 279 488.891562720313 L 279 488.891562720313 L 280 488.61604699242537 L 280 488.61604699242537 L 281 488.3375995245424 L 281 488.33759952454244 L 282 488.0561951913106 L 282 488.0561951913106 L 283 487.77180879397645 L 283 487.77180879397645 L 284 487.4844150638776 L 284 487.48441506387763 L 285 487.193988666037 L 285 487.19398866603706 L 286 486.90050420286195 L 286 486.90050420286195 L 287 486.6039362179489 L 287 486.603936217949 L 288 486.3042591999961 L 288 486.3042591999962 L 289 486.0014475868239 L 289 486.00144758682393 L 290 485.6954757695058 L 290 485.69547576950583 L 291 485.38631809661035 L 291 485.38631809661035 L 292 485.0739488785555 L 292 485.0739488785555 L 293 484.75834239207614 L 293 484.7583423920762 L 294 484.43947288480723 L 294 484.4394728848073 L 295 484.117314579982 L 295 484.117314579982 L 296 483.7918416812477 L 296 483.7918416812478 L 297 483.46302837759964 L 297 483.4630283775997 L 298 483.13084884843386 L 298 483.13084884843386 L 299 482.79527726872044 L 299 482.7952772687205 L 300 482.4562878142982 L 300 482.4562878142982 L 301 482.1138546672911 L 301 482.11385466729115 L 302 481.76795202164794 L 302 481.767952021648 L 303 481.41855408880616 L 303 481.4185540888062 L 304 481.0656351034798 L 304 481.06563510347985 L 305 480.70916932957357 L 305 480.7091693295736 L 306 480.3491310662231 L 306 480.3491310662231 L 307 479.9854946539612 L 307 479.98549465396127 L 308 479.6182344810128 L 308 479.6182344810128 L 309 479.2473249897169 L 309 479.24732498971696 L 310 478.8727406830776 L 310 478.87274068307767 L 311 478.4944561314438 L 311 478.4944561314439 L 312 478.11244597931807 L 312 478.1124459793181 L 313 477.7266849522952 L 313 477.7266849522953 L 314 477.33714786413054 L 314 477.3371478641306 L 315 476.9438096239383 L 315 476.94380962393836 L 316 476.5466452435192 L 316 476.54664524351927 L 317 476.14562984481927 L 317 476.14562984481927 L 318 475.7407386675172 L 318 475.74073866751723 L 319 475.3319470767423 L 319 475.3319470767424 L 320 474.91923057092157 L 320 474.9192305709216 L 321 474.50256478975564 L 321 474.5025647897557 L 322 474.0819255223238 L 322 474.0819255223238 L 323 473.65728871531655 L 323 473.65728871531655 L 324 473.2286304813963 L 324 473.22863048139635 L 325 472.79592710768424 L 325 472.7959271076843 L 326 472.35915506437334 L 326 472.35915506437334 L 327 471.91829101346616 L 327 471.91829101346616 L 328 471.47331181763684 L 328 471.47331181763684 L 329 471.0241945492156 L 329 471.0241945492157 L 330 470.5709164992951 L 330 470.5709164992951 L 331 470.113455186956 L 331 470.11345518695606 L 332 469.6517883686125 L 332 469.65178836861253 L 333 469.1858940474734 L 333 469.1858940474734 L 334 468.7157504831199 L 334 468.7157504831199 L 335 468.24133620119517 L 335 468.24133620119517 L 336 467.76263000320665 L 336 467.7626300032067 L 337 467.27961097643686 L 337 467.2796109764369 L 338 466.79225850396153 L 338 466.79225850396153 L 339 466.3005522747718 L 339 466.3005522747718 L 340 465.80447229399914 L 340 465.8044722939992 L 341 465.3039988932396 L 341 465.3039988932396 L 342 464.7991127409738 L 342 464.79911274097384 L 343 464.2897948530817 L 343 464.28979485308173 L 344 463.7760266034472 L 344 463.77602660344724 L 345 463.2577897346501 L 345 463.25778973465015 L 346 462.73506636874214 L 346 462.7350663687422 L 347 462.20783901810336 L 347 462.2078390181034 L 348 461.67609059637493 L 348 461.676090596375 L 349 461.1398044294651 L 349 461.13980442946513 L 350 460.59896426662357 L 350 460.5989642666236 L 351 460.0535542915811 L 351 460.0535542915812 L 352 459.5035591337489 L 352 459.5035591337489 L 353 458.9489638794741 L 353 458.94896387947415 L 354 458.3897540833467 L 354 458.38975408334676 L 355 457.82591577955304 L 355 457.82591577955304 L 356 457.25743549327007 L 356 457.25743549327007 L 357 456.6843002520973 L 357 456.6843002520973 L 358 456.10649759751885 L 358 456.1064975975189 L 359 455.52401559639213 L 359 455.52401559639213 L 360 454.93684285245604 L 360 454.93684285245604 L 361 454.3449685178542 L 361 454.3449685178543 L 362 453.7483823046668 L 362 453.74838230466685 L 363 453.14707449644436 L 363 453.1470744964444 L 364 452.5410359597389 L 364 452.5410359597389 L 365 451.93025815562436 L 365 451.9302581556244 L 366 451.31473315120104 L 366 451.31473315120104 L 367 450.6944536310766 L 367 450.6944536310766 L 368 450.06941290881775 L 368 450.0694129088178 L 369 449.43960493836437 L 369 449.43960493836437 L 370 448.8050243254004 L 370 448.80502432540044 L 371 448.16566633867353 L 371 448.16566633867353 L 372 447.521526921256 L 372 447.52152692125605 L 373 446.87260270174016 L 373 446.8726027017402 L 374 446.21889100536004 L 374 446.21889100536004 L 375 445.56038986503154 L 375 445.5603898650316 L 376 444.8970980323042 L 376 444.89709803230426 L 377 444.22901498821494 L 377 444.229014988215 L 378 443.55614095403723 L 378 443.5561409540373 L 379 442.8784769019169 L 379 442.87847690191694 L 380 442.19602456538564 L 380 442.19602456538564 L 381 441.5087864497453 L 381 441.50878644974534 L 382 440.816765842313 L 382 440.816765842313 L 383 440.1199668225192 L 383 440.11996682251925 L 384 439.41839427185045 L 384 439.4183942718505 L 385 438.71205388362705 L 385 438.71205388362705 L 386 438.00095217260764 L 386 438.00095217260764 L 387 437.28509648441207 L 387 437.28509648441207 L 388 436.56449500475253 L 388 436.56449500475253 L 389 435.8391567684654 L 389 435.83915676846544 L 390 435.10909166833386 L 390 435.1090916683339 L 391 434.37431046369255 L 391 434.3743104636926 L 392 433.6348247888054 L 392 433.6348247888054 L 393 432.8906471610075 L 393 432.89064716100756 L 394 432.1417909886022 L 394 432.1417909886022 L 395 431.3882705785036 L 395 431.3882705785036 L 396 430.6301011436164 L 396 430.6301011436164 L 397 429.8672988099442 L 397 429.86729880994426 L 398 429.0998806234161 L 398 429.0998806234161 L 399 428.32786455642383 L 399 428.32786455642383 L 400 427.55126951406027 L 400 427.55126951406027 L 401 426.7701153400505 L 401 426.7701153400505 L 402 425.98442282236664 L 402 425.9844228223667 L 403 425.19421369851824 L 403 425.1942136985183 L 404 424.399510660509 L 404 424.399510660509 L 405 423.60033735945217 L 405 423.60033735945217 L 406 422.79671840983616 L 406 422.79671840983616 L 407 421.98867939343154 L 407 421.9886793934316 L 408 421.17624686283295 L 408 421.17624686283295 L 409 420.359448344626 L 409 420.359448344626 L 410 419.5383123421733 L 410 419.53831234217336 L 411 418.7128683380115 L 411 418.7128683380115 L 412 417.8831467958513 L 412 417.8831467958513 L 413 417.0491791621744 L 413 417.0491791621745 L 414 416.21099786742025 L 414 416.21099786742025 L 415 415.3686363267548 L 415 415.3686363267548 L 416 414.5221289404168 L 416 414.5221289404168 L 417 413.6715110936332 L 417 413.6715110936333 L 418 412.8168191561002 L 418 412.8168191561002 L 419 411.9580904810212 L 419 411.9580904810212 L 420 411.09536340369925 L 420 411.09536340369925 L 421 410.22867723967715 L 421 410.2286772396772 L 422 409.35807228242066 L 422 409.35807228242066 L 423 408.48358980054024 L 423 408.48358980054024 L 424 407.60527203454797 L 424 407.60527203454797 L 425 406.7231621931444 L 425 406.7231621931444 L 426 405.83730444903284 L 426 405.8373044490329 L 427 404.9477439342576 L 427 404.9477439342576 L 428 404.0545267350632 L 428 404.05452673506323 L 429 403.1576998862723 L 429 403.1576998862723 L 430 402.25731136518016 L 430 402.25731136518016 L 431 401.35341008496374 L 431 401.35341008496374 L 432 400.4460458876046 L 432 400.4460458876046 L 433 399.53526953632417 L 433 399.53526953632417 L 434 398.62113270753105 L 434 398.62113270753105 L 435 397.7036879822804 L 435 397.7036879822805 L 436 396.78298883724545 L 436 396.78298883724545 L 437 395.85908963520154 L 437 395.85908963520154 L 438 394.9320456150252 L 438 394.9320456150252 L 439 394.0019128812078 L 439 394.0019128812078 L 440 393.06874839288747 L 440 393.06874839288747 L 441 392.1326099524011 L 441 392.1326099524011 L 442 391.1935561933585 L 442 391.1935561933585 L 443 390.25164656824415 L 443 390.25164656824415 L 444 389.30694133554744 L 444 389.30694133554744 L 445 388.3595015464282 L 445 388.3595015464282 L 446 387.4093890309207 L 446 387.4093890309207 L 447 386.4566663836813 L 447 386.4566663836813 L 448 385.5013969492859 L 448 385.5013969492859 L 449 384.5436448070825 L 449 384.5436448070825 L 450 383.58347475560566 L 450 383.58347475560566 L 451 382.6209522965596 L 451 382.6209522965596 L 452 381.656143618377 L 452 381.656143618377 L 453 380.68911557936156 L 453 380.68911557936156 L 454 379.71993569042206 L 454 379.71993569042206 L 455 378.74867209740694 L 455 378.74867209740694 L 456 377.77539356304743 L 456 377.77539356304743 L 457 376.8001694485198 L 457 376.8001694485198 L 458 375.8230696946355 L 458 375.82306969463554 L 459 374.84416480266987 L 459 374.8441648026699 L 460 373.86352581483953 L 460 373.86352581483953 L 461 372.8812242944396 L 461 372.8812242944396 L 462 371.89733230565224 L 462 371.89733230565224 L 463 370.9119223930373 L 463 370.9119223930373 L 464 369.92506756071793 L 464 369.92506756071793 L 465 368.936841251273 L 465 368.936841251273 L 466 367.94731732434883 L 466 367.94731732434883 L 467 366.95657003500327 L 467 366.95657003500327 L 468 365.96467401179535 L 468 365.96467401179535 L 469 364.971704234634 L 469 364.971704234634 L 470 363.9777360123993 L 470 363.9777360123993 L 471 362.98284496035063 L 471 362.98284496035063 L 472 361.98710697733577 L 472 361.98710697733577 L 473 360.990598222815 L 473 360.990598222815 L 474 359.99339509371583 L 474 359.99339509371583 L 475 358.9955742011323 L 475 358.99557420113234 L 476 357.9972123468838 L 476 357.9972123468838 L 477 356.9983864999498 L 477 356.9983864999498 L 478 355.99917377279377 L 478 355.99917377279377 L 479 354.99965139759433 L 479 354.99965139759433 L 480 353.99989670239614 L 480 353.99989670239614 L 481 352.99998708719926 L 481 352.99998708719926 L 482 352 L 482 352 L 483 351.00001291280074 L 483 351.00001291280074 L 484 350.00010329760386 L 484 350.00010329760386 L 485 349.0003486024057 L 485 349.0003486024057 L 486 348.0008262272062 L 486 348.0008262272062 L 487 347.0016135000502 L 487 347.0016135000502 L 488 346.0027876531161 L 488 346.0027876531162 L 489 345.0044257988677 L 489 345.0044257988677 L 490 344.00660490628417 L 490 344.00660490628417 L 491 343.009401777185 L 491 343.009401777185 L 492 342.01289302266423 L 492 342.01289302266423 L 493 341.01715503964937 L 493 341.01715503964937 L 494 340.0222639876007 L 494 340.0222639876007 L 495 339.028295765366 L 495 339.028295765366 L 496 338.03532598820465 L 496 338.03532598820465 L 497 337.04342996499673 L 497 337.04342996499673 L 498 336.05268267565117 L 498 336.05268267565117 L 499 335.063158748727 L 499 335.063158748727 L 500 334.07493243928207 L 500 334.07493243928207 L 501 333.0880776069627 L 501 333.0880776069627 L 502 332.10266769434776 L 502 332.10266769434776 L 503 331.1187757055604 L 503 331.1187757055604 L 504 330.13647418516047 L 504 330.13647418516047 L 505 329.1558351973301 L 505 329.15583519733013 L 506 328.17693030536446 L 506 328.1769303053645 L 507 327.1998305514802 L 507 327.1998305514802 L 508 326.22460643695257 L 508 326.22460643695257 L 509 325.25132790259306 L 509 325.25132790259306 L 510 324.2800643095779 L 510 324.28006430957794 L 511 323.31088442063844 L 511 323.3108844206385 L 512 322.343856381623 L 512 322.343856381623 L 513 321.3790477034404 L 513 321.3790477034404 L 514 320.41652524439434 L 514 320.41652524439434 L 515 319.4563551929175 L 515 319.4563551929175 L 516 318.4986030507141 L 516 318.4986030507141 L 517 317.5433336163187 L 517 317.5433336163187 L 518 316.5906109690793 L 518 316.5906109690793 L 519 315.6404984535718 L 519 315.6404984535718 L 520 314.69305866445256 L 520 314.69305866445256 L 521 313.74835343175585 L 521 313.74835343175585 L 522 312.8064438066415 L 522 312.8064438066415 L 523 311.8673900475989 L 523 311.8673900475989 L 524 310.93125160711253 L 524 310.93125160711253 L 525 309.9980871187922 L 525 309.9980871187922 L 526 309.0679543849748 L 526 309.0679543849748 L 527 308.14091036479846 L 527 308.14091036479846 L 528 307.21701116275455 L 528 307.2170111627546 L 529 306.2963120177195 L 529 306.2963120177196 L 530 305.3788672924689 L 530 305.37886729246895 L 531 304.46473046367583 L 531 304.46473046367583 L 532 303.5539541123954 L 532 303.5539541123954 L 533 302.64658991503626 L 533 302.64658991503626 L 534 301.74268863481984 L 534 301.74268863481984 L 535 300.8423001137277 L 535 300.8423001137277 L 536 299.9454732649368 L 536 299.9454732649368 L 537 299.0522560657424 L 537 299.0522560657424 L 538 298.16269555096716 L 538 298.16269555096716 L 539 297.27683780685555 L 539 297.2768378068556 L 540 296.394727965452 L 540 296.39472796545203 L 541 295.51641019945976 L 541 295.51641019945976 L 542 294.64192771757934 L 542 294.6419277175794 L 543 293.7713227603228 L 543 293.77132276032285 L 544 292.90463659630075 L 544 292.90463659630075 L 545 292.0419095189788 L 545 292.0419095189788 L 546 291.1831808438998 L 546 291.1831808438998 L 547 290.3284889063667 L 547 290.3284889063668 L 548 289.4778710595832 L 548 289.47787105958326 L 549 288.6313636732452 L 549 288.6313636732452 L 550 287.78900213257975 L 550 287.78900213257975 L 551 286.9508208378255 L 551 286.9508208378256 L 552 286.1168532041487 L 552 286.1168532041487 L 553 285.2871316619885 L 553 285.2871316619885 L 554 284.46168765782664 L 554 284.4616876578267 L 555 283.640551655374 L 555 283.640551655374 L 556 282.82375313716705 L 556 282.82375313716705 L 557 282.0113206065684 L 557 282.01132060656846 L 558 281.20328159016384 L 558 281.2032815901639 L 559 280.39966264054783 L 559 280.39966264054783 L 560 279.600489339491 L 560 279.600489339491 L 561 278.8057863014817 L 561 278.80578630148176 L 562 278.0155771776333 L 562 278.01557717763336 L 563 277.2298846599495 L 563 277.22988465994956 L 564 276.44873048593973 L 564 276.4487304859398 L 565 275.67213544357617 L 565 275.67213544357617 L 566 274.9001193765839 L 566 274.9001193765839 L 567 274.13270119005574 L 567 274.1327011900558 L 568 273.3698988563836 L 568 273.3698988563836 L 569 272.6117294214964 L 569 272.6117294214964 L 570 271.8582090113978 L 570 271.8582090113978 L 571 271.10935283899244 L 571 271.10935283899244 L 572 270.3651752111946 L 572 270.3651752111946 L 573 269.6256895363074 L 573 269.62568953630745 L 574 268.8909083316661 L 574 268.89090833166614 L 575 268.16084323153456 L 575 268.1608432315346 L 576 267.43550499524747 L 576 267.43550499524747 L 577 266.71490351558793 L 577 266.71490351558793 L 578 265.9990478273923 L 578 265.99904782739236 L 579 265.28794611637295 L 579 265.28794611637295 L 580 264.5816057281495 L 580 264.58160572814955 L 581 263.88003317748075 L 581 263.8800331774808 L 582 263.183234157687 L 582 263.183234157687 L 583 262.49121355025466 L 583 262.4912135502547 L 584 261.80397543461436 L 584 261.80397543461436 L 585 261.12152309808306 L 585 261.1215230980831 L 586 260.4438590459627 L 586 260.44385904596277 L 587 259.770985011785 L 587 259.77098501178506 L 588 259.10290196769574 L 588 259.1029019676958 L 589 258.4396101349684 L 589 258.43961013496846 L 590 257.78110899463996 L 590 257.78110899464 L 591 257.1273972982598 L 591 257.12739729825984 L 592 256.47847307874395 L 592 256.478473078744 L 593 255.83433366132647 L 593 255.8343336613265 L 594 255.19497567459956 L 594 255.1949756745996 L 595 254.56039506163557 L 595 254.56039506163563 L 596 253.9305870911822 L 596 253.93058709118225 L 597 253.30554636892333 L 597 253.3055463689234 L 598 252.68526684879893 L 598 252.68526684879896 L 599 252.06974184437559 L 599 252.06974184437564 L 600 251.45896404026107 L 600 251.4589640402611 L 601 250.85292550355558 L 601 250.85292550355564 L 602 250.2516176953332 L 602 250.2516176953332 L 603 249.65503148214572 L 603 249.65503148214577 L 604 249.06315714754396 L 604 249.063157147544 L 605 248.47598440360787 L 605 248.4759844036079 L 606 247.89350240248112 L 606 247.89350240248115 L 607 247.31569974790273 L 607 247.31569974790276 L 608 246.74256450672993 L 608 246.74256450672993 L 609 246.17408422044696 L 609 246.174084220447 L 610 245.61024591665324 L 610 245.61024591665327 L 611 245.05103612052588 L 611 245.0510361205259 L 612 244.49644086625108 L 612 244.4964408662511 L 613 243.94644570841882 L 613 243.94644570841888 L 614 243.40103573337637 L 614 243.40103573337643 L 615 242.8601955705349 L 615 242.86019557053493 L 616 242.32390940362507 L 616 242.32390940362507 L 617 241.79216098189661 L 617 241.79216098189664 L 618 241.26493363125783 L 618 241.26493363125786 L 619 240.74221026534988 L 619 240.7422102653499 L 620 240.22397339655276 L 620 240.22397339655282 L 621 239.71020514691827 L 621 239.7102051469183 L 622 239.20088725902616 L 622 239.20088725902622 L 623 238.69600110676038 L 623 238.69600110676043 L 624 238.1955277060008 L 624 238.19552770600083 L 625 237.6994477252282 L 625 237.69944772522825 L 626 237.20774149603844 L 626 237.20774149603847 L 627 236.72038902356306 L 627 236.7203890235631 L 628 236.23736999679332 L 628 236.23736999679335 L 629 235.75866379880483 L 629 235.7586637988049 L 630 235.2842495168801 L 630 235.28424951688012 L 631 234.81410595252657 L 631 234.81410595252657 L 632 234.34821163138753 L 632 234.34821163138756 L 633 233.88654481304394 L 633 233.886544813044 L 634 233.42908350070488 L 634 233.4290835007049 L 635 232.97580545078432 L 635 232.97580545078435 L 636 232.52668818236316 L 636 232.52668818236316 L 637 232.08170898653384 L 637 232.08170898653384 L 638 231.64084493562663 L 638 231.64084493562666 L 639 231.2040728923157 L 639 231.2040728923157 L 640 230.77136951860365 L 640 230.77136951860368 L 641 230.34271128468345 L 641 230.3427112846835 L 642 229.9180744776762 L 642 229.91807447767627 L 643 229.4974352102443 L 643 229.49743521024436 L 644 229.0807694290784 L 644 229.08076942907843 L 645 228.66805292325762 L 645 228.66805292325768 L 646 228.25926133248277 L 646 228.25926133248277 L 647 227.8543701551807 L 647 227.85437015518073 L 648 227.45335475648073 L 648 227.4533547564808 L 649 227.0561903760617 L 649 227.05619037606175 L 650 226.6628521358694 L 650 226.6628521358694 L 651 226.27331504770473 L 651 226.27331504770478 L 652 225.88755402068188 L 652 225.88755402068193 L 653 225.50554386855612 L 653 225.50554386855615 L 654 225.12725931692233 L 654 225.12725931692236 L 655 224.75267501028304 L 655 224.7526750102831 L 656 224.38176551898718 L 656 224.3817655189872 L 657 224.01450534603876 L 657 224.0145053460388 L 658 223.65086893377685 L 658 223.6508689337769 L 659 223.29083067042635 L 659 223.2908306704264 L 660 222.9343648965202 L 660 222.93436489652024 L 661 222.5814459111938 L 661 222.58144591119384 L 662 222.232047978352 L 662 222.23204797835203 L 663 221.88614533270888 L 663 221.8861453327089 L 664 221.54371218570176 L 664 221.54371218570182 L 665 221.20472273127953 L 665 221.20472273127956 L 666 220.86915115156611 L 666 220.86915115156617 L 667 220.5369716224003 L 667 220.53697162240033 L 668 220.20815831875223 L 668 220.20815831875225 L 669 219.88268542001796 L 669 219.88268542001802 L 670 219.56052711519274 L 670 219.56052711519277 L 671 219.24165760792383 L 671 219.24165760792386 L 672 218.9260511214445 L 672 218.92605112144454 L 673 218.61368190338962 L 673 218.61368190338965 L 674 218.3045242304942 L 674 218.30452423049422 L 675 217.99855241317607 L 675 217.99855241317613 L 676 217.69574080000385 L 676 217.69574080000388 L 677 217.39606378205102 L 677 217.39606378205107 L 678 217.09949579713805 L 678 217.09949579713808 L 679 216.806011333963 L 679 216.80601133396303 L 680 216.51558493612237 L 680 216.5155849361224 L 681 216.2281912060235 L 681 216.22819120602355 L 682 215.94380480868938 L 682 215.9438048086894 L 683 215.66240047545756 L 683 215.6624004754576 L 684 215.3839530075746 L 684 215.38395300757463 L 685 215.10843727968697 L 685 215.108437279687 L 686 214.83582824323008 L 686 214.8358282432301 L 687 214.5661009297169 L 687 214.56610092971692 L 688 214.29923045392712 L 688 214.29923045392718 L 689 214.0351920169989 L 689 214.03519201699893 L 690 213.77396090942386 L 690 213.7739609094239 L 691 213.5155125139475 L 691 213.51551251394753 L 692 213.25982230837587 L 692 213.2598223083759 L 693 213.00686586829005 L 693 213.00686586829008 L 694 212.75661886967026 L 694 212.75661886967032 L 695 212.50905709143058 L 695 212.50905709143063 L 696 212.2641564178656 L 696 212.26415641786565 L 697 212.0218928410112 L 697 212.02189284101124 L 698 211.78224246292 L 698 211.78224246292007 L 699 211.54518149785355 L 699 211.54518149785358 L 700 211.3106862743921 L 700 211.31068627439217 L 701 211.07873323746438 L 701 211.0787332374644 L 702 210.84929895029723 L 702 210.84929895029725 L 703 210.6223600962884 L 703 210.62236009628845 L 704 210.3978934808023 L 704 210.39789348080234 L 705 210.17587603289107 L 705 210.1758760328911 L 706 209.95628480694185 L 706 209.95628480694188 L 707 209.73909698425228 L 707 209.73909698425234 L 708 209.5242898745348 L 708 209.52428987453484 L 709 209.31184091735167 L 709 209.3118409173517 L 710 209.1017276834821 L 710 209.10172768348215 L 711 208.89392787622253 L 711 208.8939278762226 L 712 208.68841933262163 L 712 208.6884193326217 L 713 208.48518002465133 L 713 208.48518002465136 L 714 208.28418806031507 L 714 208.28418806031513 L 715 208.0854216846951 L 715 208.08542168469512 L 716 207.88885928093904 L 716 207.88885928093907 L 717 207.69447937118846 L 717 207.6944793711885 L 718 207.50226061744945 L 718 207.50226061744948 L 719 207.31218182240727 L 719 207.3121818224073 L 720 207.1242219301858 L 720 207.12422193018583 L 721 206.9383600270537 L 721 206.93836002705376 L 722 206.75457534207774 L 722 206.75457534207777 L 723 206.57284724772478 L 723 206.57284724772484 L 724 206.3931552604142 L 724 206.39315526041423 L 725 206.21547904102087 L 725 206.2154790410209 L 726 206.03979839533073 L 726 206.03979839533076 L 727 205.86609327444987 L 727 205.8660932744499 L 728 205.69434377516777 L 728 205.6943437751678 L 729 205.52453014027682 L 729 205.52453014027685 L 730 205.3566327588482 L 730 205.35663275884826 L 731 205.19063216646595 L 731 205.190632166466 L 732 205.02650904541971 L 732 205.02650904541977 L 733 204.86424422485803 L 733 204.86424422485806 L 734 204.70381868090212 L 734 204.70381868090215 L 735 204.54521353672234 L 735 204.54521353672237 L 736 204.38841006257744 L 736 204.38841006257746 L 737 204.233389675818 L 737 204.23338967581802 L 738 204.0801339408553 L 738 204.08013394085532 L 739 203.92862456909575 L 739 203.92862456909577 L 740 203.77884341884294 L 740 203.77884341884297 L 741 203.63077249516738 L 741 203.6307724951674 L 742 203.48439394974503 L 742 203.48439394974505 L 743 203.339690080666 L 743 203.33969008066603 L 744 203.1966433322137 L 744 203.19664333221374 L 745 203.0552362946157 L 745 203.05523629461572 L 746 202.9154517037669 L 746 202.91545170376693 L 747 202.77727244092623 L 747 202.77727244092628 L 748 202.64068153238722 L 748 202.64068153238728 L 749 202.50566214912362 L 749 202.50566214912365 L 750 202.37219760641085 L 750 202.37219760641088 L 751 202.24027136342377 L 751 202.2402713634238 L 752 202.1098670228119 L 752 202.10986702281193 L 753 201.98096833025264 L 753 201.98096833025267 L 754 201.8535591739833 L 754 201.85355917398334 L 755 201.7276235843126 L 755 201.72762358431262 L 756 201.60314573311234 L 756 201.60314573311237 L 757 201.4801099332902 L 757 201.48010993329024 L 758 201.35850063824398 L 758 201.35850063824404 L 759 201.23830244129817 L 759 201.2383024412982 L 760 201.11950007512334 L 760 201.11950007512337 L 761 201.00207841113937 L 761 201.0020784111394 L 762 200.88602245890257 L 762 200.8860224589026 L 763 200.77131736547796 L 763 200.77131736547798 L 764 200.65794841479658 L 764 200.6579484147966 L 765 200.54590102699916 L 765 200.5459010269992 L 766 200.43516075776625 L 766 200.43516075776628 L 767 200.32571329763536 L 767 200.3257132976354 L 768 200.21754447130607 L 768 200.2175444713061 L 769 200.11064023693316 L 769 200.1106402369332 L 770 200.00498668540865 L 770 200.0049866854087 L 771 199.9005700396331 L 771 199.90057003963312 L 772 199.79737665377652 L 772 199.79737665377655 L 773 199.69539301252988 L 773 199.6953930125299 L 774 199.594605730347 L 774 199.59460573034707 L 775 199.4950015506782 L 775 199.49500155067824 L 776 199.3965673451949 L 776 199.39656734519494 L 777 199.29929011300695 L 777 199.29929011300698 L 778 199.20315697987235 L 778 199.2031569798724 L 779 199.10815519739984 L 779 199.1081551973999 L 780 199.014272142245 L 780 199.01427214224503 L 781 198.9214953153001 L 781 198.92149531530015 L 782 198.82981234087822 L 782 198.82981234087828 L 783 198.73921096589189 L 783 198.73921096589194 L 784 198.64967905902674 L 784 198.64967905902677 L 785 198.56120460991022 L 785 198.56120460991028 L 786 198.4737757282766 L 786 198.47377572827662 L 787 198.38738064312713 L 787 198.38738064312716 L 788 198.30200770188736 L 788 198.3020077018874 L 789 198.2176453695606 L 789 198.21764536956064 L 790 198.1342822278786 L 790 198.13428222787866 L 791 198.05190697444957 L 791 198.05190697444962 L 792 197.97050842190362 L 792 197.97050842190365 L 793 197.89007549703632 L 793 197.89007549703635 L 794 197.81059723995023 L 794 197.81059723995025 L 795 197.73206280319508 L 795 197.73206280319513 L 796 197.65446145090664 L 796 197.6544614509067 L 797 197.5777825579444 L 797 197.57778255794446 L 798 197.50201560902866 L 798 197.5020156090287 L 799 197.42715019787707 L 799 197.42715019787713 L 800 197.35317602634098 L 800 197.353176026341 L 801 197.2800829035414 L 801 197.28008290354146 L 802 197.20786074500577 L 802 197.2078607450058 L 803 197.13649957180428 L 803 197.13649957180434 L 804 197.06598950968765 L 804 197.06598950968768 L 805 196.9963207882251 L 805 196.99632078822512 L 806 196.92748373994357 L 806 196.9274837399436 L 807 196.85946879946815 L 807 196.85946879946817 L 808 196.79226650266384 L 808 196.79226650266386 L 809 196.72586748577882 L 809 196.72586748577888 L 810 196.66026248458965 L 810 196.6602624845897 L 811 196.595442333548 L 811 196.59544233354802 L 812 196.5313979649298 L 812 196.53139796492982 L 813 196.46812040798645 L 813 196.4681204079865 L 814 196.4056007880984 L 814 196.40560078809844 L 815 196.34383032593124 L 815 196.3438303259313 L 816 196.2828003365943 L 816 196.28280033659436 L 817 196.22250222880257 L 817 196.2225022288026 L 818 196.16292750404057 L 818 196.16292750404062 L 819 196.10406775573034 L 819 196.10406775573037 L 820 196.04591466840168 L 820 196.0459146684017 L 821 195.98846001686633 L 821 195.98846001686636 L 822 195.9316956653951 L 822 195.93169566539513 L 823 195.87561356689866 L 823 195.8756135668987 L 824 195.82020576211195 L 824 195.82020576211198 L 825 195.76546437878216 L 825 195.76546437878218 L 826 195.71138163086064 L 826 195.71138163086067 L 827 195.65794981769858 L 827 195.65794981769864 L 828 195.6051613232467 L 828 195.60516132324673 L 829 195.5530086152589 L 829 195.55300861525893 L 830 195.50148424450015 L 830 195.50148424450018 L 831 195.4505808439585 L 831 195.45058084395853 L 832 195.40029112806138 L 832 195.4002911280614 L 833 195.3506078918963 L 833 195.35060789189632 L 834 195.30152401043568 L 834 195.3015240104357 L 835 195.25303243776662 L 835 195.25303243776665 L 836 195.20512620632465 L 836 195.2051262063247 L 837 195.15779842613253 L 837 195.1577984261326 L 838 195.11104228404332 L 838 195.11104228404335 L 839 195.06485104298832 L 839 195.06485104298838 L 840 195.01921804122975 L 840 195.0192180412298 L 841 194.97413669161804 L 841 194.97413669161807 L 842 194.92960048085405 L 842 194.92960048085408 L 843 194.8856029687561 L 843 194.88560296875613 L 844 194.84213778753198 L 844 194.84213778753204 L 845 194.79919864105565 L 845 194.7991986410557 L 846 194.75677930414912 L 846 194.75677930414915 L 847 194.71487362186912 L 847 194.71487362186915 L 848 194.673475508799 L 848 194.67347550879902 L 849 194.63257894834535 L 849 194.63257894834538 L 850 194.59217799203998 L 850 194.59217799204 L 851 194.5522667588467 L 851 194.55226675884677 L 852 194.5128394344735 L 852 194.51283943447356 L 853 194.47389027068937 L 853 194.47389027068942 L 854 194.4354135846467 L 854 194.43541358464674 L 855 194.39740375820864 L 855 194.39740375820867 L 856 194.35985523728138 L 856 194.35985523728144 L 857 194.32276253115202 L 857 194.32276253115205 L 858 194.2861202118312 L 858 194.28612021183122 L 859 194.249922913401 L 859 194.24992291340106 L 860 194.21416533136824 L 860 194.21416533136826 L 861 194.17884222202252 L 861 194.17884222202255 L 862 194.14394840179983 L 862 194.14394840179986 L 863 194.10947874665106 L 863 194.1094787466511 L 864 194.07542819141582 L 864 194.07542819141585 L 865 194.04179172920132 L 865 194.04179172920135 L 866 194.00856441076652 L 866 194.00856441076658 L 867 193.97574134391138 L 867 193.9757413439114 L 868 193.94331769287115 L 868 193.94331769287118 L 869 193.91128867771593 L 869 193.911288677716 L 870 193.87964957375544 L 870 193.8796495737555 L 871 193.84839571094864 L 871 193.84839571094867 L 872 193.81752247331855 L 872 193.81752247331858 L 873 193.78702529837238 L 873 193.78702529837244 L 874 193.7568996765266 L 874 193.75689967652664 L 875 193.72714115053677 L 875 193.7271411505368 L 876 193.6977453149329 L 876 193.69774531493294 L 877 193.6687078154597 L 877 193.66870781545975 L 878 193.64002434852162 L 878 193.64002434852165 L 879 193.61169066063314 L 879 193.61169066063317 L 880 193.58370254787388 L 880 193.5837025478739 L 880.9999999999999 193.55605585534892 L 880.9999999999999 193.55605585534894 L 882 193.52874647665362 L 882 193.52874647665368 L 883 193.5017703533439 L 883 193.50177035334394 L 884 193.47512347441094 L 884 193.47512347441096 L 885 193.448801875761 L 885 193.44880187576103 L 886 193.42280163970017 L 886 193.4228016397002 L 887 193.39711889442367 L 887 193.3971188944237 L 888 193.37174981351023 L 888 193.3717498135103 L 889 193.34669061542112 L 889 193.34669061542115 L 890 193.32193756300393 L 890 193.32193756300396 L 891 193.29748696300112 L 891 193.29748696300115 L 892 193.2733351655633 L 892 193.27333516556337 L 893 193.24947856376727 L 893 193.2494785637673 L 894 193.22591359313824 L 894 193.22591359313827 L 895 193.20263673117753 L 895 193.20263673117756 L 896 193.179644496894 L 896 193.17964449689404 L 897 193.15693345034072 L 897 193.15693345034074 L 898 193.1345001921556 L 898 193.13450019215563 L 899 193.11234136310713 L 899 193.1123413631072 L 900 193.09045364364422 L 900 193.09045364364428 L 900.9999999999999 193.06883375345052 L 900.9999999999999 193.06883375345055 L 902 193.0474784510033 L 902 193.04747845100331 L 903 193.02638453313665 L 903 193.0263845331367 L 904 193.00554883460927 L 904 193.0055488346093 L 905 192.98496822767606 L 905 192.9849682276761 L 906 192.9646396216647 L 906 192.96463962166473 L 907 192.94455996255599 L 907 192.94455996255604 L 908 192.92472623256873 L 908 192.92472623256876 L 909 192.90513544974866 L 909 192.90513544974868 L 910 192.8857846675617 L 910 192.88578466756172 L 911 192.86667097449134 L 911 192.8666709744914 L 912 192.84779149364007 L 912 192.8477914936401 L 913 192.82914338233493 L 913 192.82914338233496 L 914 192.81072383173725 L 914 192.81072383173728 L 915 192.7925300664563 L 915 192.79253006645632 L 916 192.77455934416693 L 916 192.77455934416696 L 917 192.75680895523135 L 917 192.75680895523138 L 918 192.73927622232458 L 918 192.73927622232463 L 919 192.72195850006415 L 919 192.72195850006418 L 920 192.70485317464332 L 920 192.70485317464335 L 920.9999999999999 192.68795766346847 L 920.9999999999999 192.6879576634685 L 921.9999999999999 192.6712694148 L 921.9999999999999 192.67126941480007 L 923 192.65478590739747 L 923 192.6547859073975 L 924 192.6385046501678 L 924 192.63850465016782 L 925 192.6224231818179 L 925 192.62242318181794 L 926 192.60653907051068 L 926 192.6065390705107 L 927 192.59084991352455 L 927 192.59084991352458 L 928 192.57535333691686 L 928 192.5753533369169 L 929 192.56004699519082 L 929 192.56004699519087 L 930 192.5449285709659 L 930 192.54492857096594 L 931 192.5299957746519 L 931 192.52999577465192 L 932 192.51524634412644 L 932 192.5152463441265 L 933 192.500678044416 L 933 192.50067804441605 L 934 192.48628866738034 L 934 192.48628866738036 L 935 192.4720760314003 L 935 192.47207603140032 L 936 192.45803798106908 L 936 192.45803798106914 L 937 192.44417238688695 L 937 192.44417238688698 L 938 192.43047714495893 L 938 192.43047714495896 L 939 192.4169501766961 L 939 192.41695017669616 L 940 192.4035894285202 L 940 192.40358942852023 L 940.9999999999999 192.39039287157112 L 940.9999999999999 192.39039287157115 L 941.9999999999999 192.37735850141792 L 941.9999999999999 192.37735850141797 L 943 192.36448433777286 L 943 192.3644843377729 L 944 192.3517684242087 L 944 192.35176842420873 L 945 192.33920882787893 L 945 192.33920882787896 L 946 192.3268036392412 L 946 192.32680363924123 L 947 192.31455097178392 L 947 192.31455097178394 L 948 192.30244896175557 L 948 192.3024489617556 L 949 192.2904957678973 L 949 192.29049576789737 L 950 192.27868957117852 L 950 192.27868957117855 L 951 192.26702857453498 L 951 192.267028574535 L 952 192.25551100261035 L 952 192.25551100261038 L 953 192.2441351015004 L 953 192.24413510150046 L 954 192.23289913850002 L 954 192.23289913850004 L 955 192.22180140185299 L 955 192.221801401853 L 956 192.2108402005048 L 956 192.21084020050486 L 957 192.20001386385823 L 957 192.20001386385826 L 958 192.18932074153113 L 958 192.18932074153116 L 959 192.1787592031178 L 959 192.17875920311783 L 959.9999999999999 192.16832763795236 L 959.9999999999999 192.1683276379524 L 960.9999999999999 192.15802445487503 L 960.9999999999999 192.15802445487506 L 961.9999999999999 192.14784808200116 L 961.9999999999999 192.14784808200122 L 962.9999999999999 192.13779696649263 L 962.9999999999999 192.13779696649266 L 964 192.12786957433195 L 964 192.127869574332 L 965 192.1180643900991"
                stroke-opacity="0.8" stroke-linecap="round" stroke-linejoin="round" stroke-miterlimit="10"
                stroke-width="3.5" />
            <path fill="none" stroke="rgb(0,0,0)" paint-order="fill stroke markers"
                d=" M -5 512.6666666666666 L 969 512.6666666666666" stroke-opacity="0.4" stroke-linejoin="round"
                stroke-miterlimit="10" stroke-width="2" stroke-dasharray="6,4" />
            <path fill="none" stroke="rgb(0,0,0)" paint-order="fill stroke markers"
                d=" M -5 191.33333333333334 L 969 191.33333333333334" stroke-opacity="0.4" stroke-linejoin="round"
                stroke-miterlimit="10" stroke-width="2" stroke-dasharray="6,4" />
            <path fill="rgb(97,97,97)" stroke="none" paint-order="stroke fill markers"
                d=" M 487 512.6666666666666 C 487 515.4280904158206 484.76142374915395 517.6666666666666 482 517.6666666666666 C 479.23857625084605 517.6666666666666 477 515.4280904158206 477 512.6666666666666 C 477 509.9052429175127 479.23857625084605 507.66666666666663 482 507.66666666666663 C 484.76142374915395 507.66666666666663 487 509.9052429175127 487 512.6666666666666 Z"
                fill-opacity="1" />
            <path fill="none" stroke="rgb(0,0,0)" paint-order="fill stroke markers"
                d=" M 487 512.6666666666666 C 487 515.4280904158206 484.76142374915395 517.6666666666666 482 517.6666666666666 C 479.23857625084605 517.6666666666666 477 515.4280904158206 477 512.6666666666666 C 477 509.9052429175127 479.23857625084605 507.66666666666663 482 507.66666666666663 C 484.76142374915395 507.66666666666663 487 509.9052429175127 487 512.6666666666666 Z"
                stroke-opacity="1" stroke-linecap="round" stroke-linejoin="round" stroke-miterlimit="10" />
            <path fill="rgb(97,97,97)" stroke="none" paint-order="stroke fill markers"
                d=" M 487 191.33333333333334 C 487 194.09475708248732 484.76142374915395 196.33333333333334 482 196.33333333333334 C 479.23857625084605 196.33333333333334 477 194.09475708248732 477 191.33333333333334 C 477 188.57190958417937 479.23857625084605 186.33333333333334 482 186.33333333333334 C 484.76142374915395 186.33333333333334 487 188.57190958417937 487 191.33333333333334 Z"
                fill-opacity="1" />
            <path fill="none" stroke="rgb(0,0,0)" paint-order="fill stroke markers"
                d=" M 487 191.33333333333334 C 487 194.09475708248732 484.76142374915395 196.33333333333334 482 196.33333333333334 C 479.23857625084605 196.33333333333334 477 194.09475708248732 477 191.33333333333334 C 477 188.57190958417937 479.23857625084605 186.33333333333334 482 186.33333333333334 C 484.76142374915395 186.33333333333334 487 188.57190958417937 487 191.33333333333334 Z"
                stroke-opacity="1" stroke-linecap="round" stroke-linejoin="round" stroke-miterlimit="10" />
            <g transform="scale(25,25)">
                <g transform="translate(19.52,21.351000000000003)">
                    <path fill="rgb(0,0,0)" stroke="none" paint-order="stroke fill markers"
                        d=" M 0.373 -0.378 Q 0.378 -0.41200000000000003 0.404 -0.42 Q 0.40900000000000003 -0.422 0.41500000000000004 -0.422 Q 0.441 -0.422 0.444 -0.395 Q 0.444 -0.389 0.437 -0.361 L 0.401 -0.221 Q 0.386 -0.158 0.379 -0.131 Q 0.366 -0.079 0.366 -0.057 Q 0.366 -0.011 0.396 -0.011 Q 0.434 -0.011 0.46 -0.091 Q 0.465 -0.108 0.47200000000000003 -0.135 Q 0.48 -0.152 0.486 -0.153 Q 0.498 -0.153 0.498 -0.14300000000000002 Q 0.498 -0.128 0.48 -0.073 Q 0.47400000000000003 -0.056 0.468 -0.044 Q 0.44 0.011 0.394 0.011 Q 0.338 0.011 0.313 -0.037 Q 0.306 -0.049 0.303 -0.064 Q 0.24 0.011 0.17300000000000001 0.011 Q 0.098 0.011 0.062 -0.057 Q 0.04 -0.097 0.04 -0.149 Q 0.04 -0.257 0.115 -0.34900000000000003 Q 0.185 -0.433 0.267 -0.441 Q 0.274 -0.442 0.281 -0.442 Q 0.342 -0.442 0.373 -0.378 M 0.308 -0.11900000000000001 L 0.308 -0.11900000000000001 L 0.358 -0.315 Q 0.361 -0.33 0.361 -0.332 Q 0.361 -0.353 0.343 -0.383 Q 0.321 -0.42 0.28200000000000003 -0.42 Q 0.23 -0.42 0.183 -0.352 Q 0.17400000000000002 -0.339 0.166 -0.324 Q 0.137 -0.266 0.117 -0.159 Q 0.111 -0.125 0.111 -0.105 Q 0.111 -0.037 0.149 -0.017 Q 0.16 -0.011 0.17500000000000002 -0.011 Q 0.231 -0.011 0.28800000000000003 -0.082 Q 0.302 -0.098 0.307 -0.115 L 0.307 -0.116 Q 0.308 -0.11800000000000001 0.308 -0.11900000000000001 Z" />
                </g>
            </g>
            <g transform="scale(25,25)">
                <g transform="translate(19.52,7.334)">
                    <path fill="rgb(0,0,0)" stroke="none" paint-order="stroke fill markers"
                        d=" M 0.23900000000000002 -0.683 L 0.165 -0.382 Q 0.223 -0.442 0.28200000000000003 -0.442 Q 0.357 -0.442 0.394 -0.373 Q 0.41500000000000004 -0.333 0.41500000000000004 -0.28200000000000003 Q 0.41500000000000004 -0.176 0.341 -0.084 Q 0.272 0.001 0.189 0.01 Q 0.181 0.011 0.17400000000000002 0.011 Q 0.10200000000000001 0.011 0.067 -0.056 Q 0.047 -0.094 0.047 -0.146 Q 0.047 -0.18 0.063 -0.247 L 0.145 -0.5730000000000001 Q 0.159 -0.632 0.159 -0.635 Q 0.159 -0.646 0.145 -0.649 L 0.145 -0.649 Q 0.133 -0.652 0.109 -0.652 Q 0.08700000000000001 -0.652 0.085 -0.664 Q 0.085 -0.681 0.10400000000000001 -0.684 L 0.226 -0.6940000000000001 Q 0.23900000000000002 -0.6940000000000001 0.23900000000000002 -0.683 M 0.145 -0.305 L 0.123 -0.213 Q 0.107 -0.15 0.107 -0.112 Q 0.107 -0.026000000000000002 0.159 -0.013000000000000001 Q 0.166 -0.011 0.17400000000000002 -0.011 Q 0.227 -0.011 0.273 -0.081 Q 0.28300000000000003 -0.096 0.292 -0.114 Q 0.319 -0.171 0.337 -0.268 Q 0.343 -0.303 0.343 -0.326 Q 0.343 -0.406 0.294 -0.418 L 0.293 -0.419 Q 0.28700000000000003 -0.42 0.28 -0.42 Q 0.22 -0.42 0.16 -0.34 Q 0.152 -0.33 0.145 -0.305 Z" />
                </g>
            </g>
            <g transform="scale(25,25)">
                <g transform="translate(0.6,1.35)">
                    <path fill="rgb(0,0,0)" stroke="none" paint-order="stroke fill markers"
                        d=" M 0.367 -0.4 L 0.367 -0.4 L 0.307 -0.083 Q 0.298 -0.021 0.271 0.059000000000000004 Q 0.261 0.088 0.251 0.108 Q 0.216 0.182 0.164 0.2 Q 0.151 0.20500000000000002 0.138 0.20500000000000002 Q 0.088 0.20500000000000002 0.064 0.171 Q 0.053 0.156 0.053 0.136 Q 0.053 0.096 0.08700000000000001 0.081 Q 0.097 0.076 0.108 0.076 Q 0.137 0.076 0.14400000000000002 0.101 Q 0.145 0.106 0.145 0.111 Q 0.145 0.145 0.115 0.159 Q 0.10400000000000001 0.164 0.09 0.165 Q 0.109 0.183 0.138 0.183 Q 0.182 0.183 0.20700000000000002 0.085 Q 0.212 0.062 0.219 0.025 L 0.225 -0.005 L 0.3 -0.4 L 0.234 -0.4 Q 0.209 -0.4 0.20700000000000002 -0.40800000000000003 L 0.20600000000000002 -0.40800000000000003 L 0.20600000000000002 -0.41200000000000003 Q 0.20600000000000002 -0.429 0.223 -0.431 L 0.223 -0.431 L 0.23600000000000002 -0.431 L 0.305 -0.431 Q 0.329 -0.556 0.338 -0.588 Q 0.368 -0.6880000000000001 0.444 -0.7030000000000001 Q 0.455 -0.705 0.465 -0.705 Q 0.517 -0.705 0.541 -0.671 L 0.541 -0.671 Q 0.552 -0.656 0.552 -0.636 Q 0.552 -0.596 0.518 -0.581 Q 0.508 -0.5760000000000001 0.497 -0.5760000000000001 Q 0.468 -0.5760000000000001 0.461 -0.601 Q 0.46 -0.606 0.46 -0.611 Q 0.46 -0.642 0.488 -0.657 Q 0.499 -0.664 0.514 -0.665 Q 0.495 -0.683 0.465 -0.683 Q 0.434 -0.683 0.418 -0.649 Q 0.41100000000000003 -0.635 0.394 -0.545 L 0.373 -0.431 L 0.456 -0.431 Q 0.481 -0.431 0.483 -0.42 Q 0.483 -0.402 0.467 -0.4 L 0.466 -0.4 L 0.453 -0.4 L 0.367 -0.4 Z" />
                </g>
                <g transform="translate(1.198,1.35)">
                    <path fill="rgb(0,0,0)" stroke="none" paint-order="stroke fill markers"
                        d=" M 0.331 0.24 L 0.331 0.24 Q 0.331 0.25 0.321 0.25 Q 0.309 0.25 0.268 0.209 Q 0.20600000000000002 0.147 0.165 0.062 Q 0.099 -0.074 0.099 -0.25 Q 0.099 -0.419 0.162 -0.555 Q 0.214 -0.666 0.294 -0.733 Q 0.315 -0.75 0.321 -0.75 Q 0.331 -0.75 0.331 -0.74 Q 0.331 -0.735 0.318 -0.723 Q 0.157 -0.559 0.157 -0.25 Q 0.157 0.058 0.314 0.218 Q 0.331 0.23500000000000001 0.331 0.24 Z" />
                </g>
                <g transform="translate(1.587,1.35)">
                    <path fill="rgb(0,0,0)" stroke="none" paint-order="stroke fill markers"
                        d=" M 0.334 -0.302 L 0.3 -0.165 Q 0.28300000000000003 -0.097 0.28300000000000003 -0.077 Q 0.28300000000000003 -0.025 0.32 -0.014 Q 0.328 -0.011 0.338 -0.011 Q 0.388 -0.011 0.429 -0.061 Q 0.456 -0.093 0.47100000000000003 -0.14200000000000002 Q 0.47400000000000003 -0.153 0.484 -0.153 Q 0.496 -0.153 0.496 -0.14300000000000002 Q 0.496 -0.11800000000000001 0.465 -0.07100000000000001 Q 0.41100000000000003 0.011 0.336 0.011 Q 0.268 0.011 0.23700000000000002 -0.046 Q 0.231 -0.055 0.228 -0.065 Q 0.20400000000000001 -0.017 0.162 0.002 Q 0.14300000000000002 0.011 0.123 0.011 Q 0.063 0.011 0.039 -0.024 Q 0.029 -0.037 0.029 -0.055 Q 0.029 -0.092 0.061 -0.107 Q 0.07200000000000001 -0.113 0.084 -0.113 Q 0.114 -0.113 0.12 -0.088 Q 0.121 -0.083 0.121 -0.078 Q 0.121 -0.044 0.08700000000000001 -0.028 Q 0.081 -0.025 0.074 -0.024 Q 0.095 -0.011 0.124 -0.011 Q 0.177 -0.011 0.20800000000000002 -0.082 Q 0.214 -0.097 0.219 -0.115 Q 0.273 -0.319 0.273 -0.353 Q 0.267 -0.41500000000000004 0.219 -0.42 Q 0.167 -0.42 0.124 -0.367 L 0.124 -0.366 Q 0.124 -0.365 0.123 -0.365 Q 0.108 -0.34500000000000003 0.096 -0.319 Q 0.091 -0.307 0.08700000000000001 -0.295 L 0.085 -0.289 Q 0.083 -0.278 0.07200000000000001 -0.278 Q 0.06 -0.278 0.06 -0.28800000000000003 Q 0.06 -0.313 0.092 -0.36 Q 0.146 -0.442 0.221 -0.442 Q 0.298 -0.442 0.329 -0.366 Q 0.361 -0.428 0.41400000000000003 -0.44 Q 0.424 -0.442 0.434 -0.442 Q 0.493 -0.442 0.517 -0.40900000000000003 Q 0.527 -0.395 0.527 -0.376 Q 0.527 -0.335 0.49 -0.321 Q 0.481 -0.318 0.47300000000000003 -0.318 Q 0.442 -0.318 0.436 -0.34500000000000003 Q 0.435 -0.34900000000000003 0.435 -0.353 Q 0.435 -0.383 0.464 -0.4 Q 0.47300000000000003 -0.405 0.483 -0.40700000000000003 Q 0.462 -0.42 0.433 -0.42 Q 0.365 -0.42 0.337 -0.314 Q 0.335 -0.308 0.334 -0.302 Z" />
                </g>
                <g transform="translate(2.159,1.35)">
                    <path fill="rgb(0,0,0)" stroke="none" paint-order="stroke fill markers"
                        d=" M 0.289 -0.25 L 0.289 -0.25 Q 0.289 -0.081 0.226 0.055 Q 0.17400000000000002 0.166 0.094 0.233 Q 0.073 0.25 0.067 0.25 Q 0.057 0.25 0.057 0.24 Q 0.057 0.23500000000000001 0.07 0.223 Q 0.231 0.059000000000000004 0.231 -0.25 Q 0.231 -0.555 0.081 -0.712 L 0.076 -0.717 Q 0.057 -0.735 0.057 -0.74 Q 0.057 -0.75 0.067 -0.75 Q 0.079 -0.75 0.12 -0.709 Q 0.182 -0.647 0.223 -0.562 Q 0.289 -0.426 0.289 -0.25 Z" />
                </g>
                <g transform="translate(2.8257777777777777,1.35)">
                    <path fill="rgb(0,0,0)" stroke="none" paint-order="stroke fill markers"
                        d=" M 0.687 -0.327 L 0.09 -0.327 Q 0.058 -0.327 0.056 -0.34700000000000003 Q 0.056 -0.367 0.089 -0.367 L 0.6880000000000001 -0.367 Q 0.72 -0.367 0.721 -0.34700000000000003 Q 0.721 -0.327 0.687 -0.327 M 0.6880000000000001 -0.133 L 0.089 -0.133 Q 0.057 -0.133 0.056 -0.153 Q 0.056 -0.17300000000000001 0.09 -0.17300000000000001 L 0.687 -0.17300000000000001 Q 0.719 -0.17300000000000001 0.721 -0.153 Q 0.721 -0.133 0.6880000000000001 -0.133 Z" />
                </g>
                <g transform="translate(3.8815555555555554,1.35)">
                    <path fill="rgb(0,0,0)" stroke="none" paint-order="stroke fill markers"
                        d=" M 0.17300000000000001 -0.4 L 0.17300000000000001 -0.4 L 0.17300000000000001 -0.122 Q 0.17300000000000001 -0.022 0.231 -0.015 Q 0.23500000000000001 -0.014 0.24 -0.014 Q 0.28300000000000003 -0.014 0.3 -0.07 Q 0.307 -0.094 0.307 -0.126 L 0.307 -0.181 L 0.332 -0.181 L 0.332 -0.124 Q 0.332 -0.042 0.28600000000000003 -0.006 Q 0.264 0.011 0.233 0.011 Q 0.149 0.011 0.11800000000000001 -0.052000000000000005 Q 0.10400000000000001 -0.082 0.10400000000000001 -0.124 L 0.10400000000000001 -0.4 L 0.019 -0.4 L 0.019 -0.422 Q 0.108 -0.426 0.137 -0.534 Q 0.147 -0.5720000000000001 0.148 -0.615 L 0.17300000000000001 -0.615 L 0.17300000000000001 -0.431 L 0.316 -0.431 L 0.316 -0.4 L 0.17300000000000001 -0.4 Z" />
                </g>
                <g transform="translate(4.270555555555555,1.35)">
                    <path fill="rgb(0,0,0)" stroke="none" paint-order="stroke fill markers"
                        d=" M 0.333 -0.076 Q 0.308 -0.014 0.245 0.005 Q 0.225 0.011 0.202 0.011 Q 0.117 0.011 0.07100000000000001 -0.03 Q 0.042 -0.056 0.042 -0.095 Q 0.042 -0.17200000000000001 0.127 -0.218 Q 0.134 -0.222 0.14200000000000002 -0.225 Q 0.203 -0.254 0.321 -0.261 L 0.326 -0.261 L 0.326 -0.298 Q 0.326 -0.383 0.265 -0.41500000000000004 Q 0.244 -0.426 0.22 -0.426 Q 0.154 -0.426 0.11800000000000001 -0.387 Q 0.115 -0.383 0.112 -0.38 Q 0.159 -0.374 0.163 -0.334 Q 0.163 -0.3 0.132 -0.29 Q 0.125 -0.28800000000000003 0.117 -0.28800000000000003 Q 0.081 -0.28800000000000003 0.073 -0.321 Q 0.07100000000000001 -0.326 0.07100000000000001 -0.335 Q 0.07100000000000001 -0.395 0.134 -0.427 Q 0.17300000000000001 -0.448 0.222 -0.448 Q 0.304 -0.448 0.359 -0.393 Q 0.394 -0.357 0.395 -0.293 L 0.395 -0.292 L 0.395 -0.275 L 0.395 -0.075 Q 0.395 -0.046 0.41300000000000003 -0.032 Q 0.421 -0.025 0.432 -0.025 Q 0.467 -0.025 0.468 -0.089 L 0.468 -0.145 L 0.493 -0.145 L 0.493 -0.089 Q 0.493 -0.016 0.433 0.002 Q 0.421 0.006 0.41100000000000003 0.006 Q 0.362 0.006 0.341 -0.046 Q 0.335 -0.06 0.333 -0.076 M 0.326 -0.24 Q 0.17200000000000001 -0.234 0.13 -0.146 Q 0.11900000000000001 -0.122 0.11900000000000001 -0.096 Q 0.11900000000000001 -0.045 0.165 -0.021 Q 0.185 -0.011 0.209 -0.011 Q 0.261 -0.011 0.296 -0.052000000000000005 Q 0.326 -0.08600000000000001 0.326 -0.14 L 0.326 -0.24 Z" />
                </g>
                <g transform="translate(4.770555555555555,1.35)">
                    <path fill="rgb(0,0,0)" stroke="none" paint-order="stroke fill markers"
                        d=" M 0.11 -0.34400000000000003 Q 0.11 -0.383 0.095 -0.392 Q 0.083 -0.399 0.052000000000000005 -0.4 L 0.032 -0.4 L 0.032 -0.431 L 0.17300000000000001 -0.442 L 0.17300000000000001 -0.337 Q 0.22 -0.442 0.321 -0.442 Q 0.396 -0.442 0.426 -0.405 Q 0.453 -0.374 0.456 -0.32 Q 0.457 -0.301 0.457 -0.252 L 0.457 -0.061 Q 0.458 -0.037 0.486 -0.033 Q 0.498 -0.031 0.535 -0.031 L 0.535 0 Q 0.433 -0.003 0.423 -0.003 Q 0.41500000000000004 -0.003 0.31 0 L 0.31 -0.031 Q 0.369 -0.031 0.379 -0.04 L 0.381 -0.042 Q 0.388 -0.05 0.388 -0.076 L 0.388 -0.309 Q 0.388 -0.40800000000000003 0.331 -0.418 Q 0.323 -0.42 0.314 -0.42 Q 0.253 -0.42 0.212 -0.367 Q 0.179 -0.324 0.179 -0.26 L 0.179 -0.076 Q 0.179 -0.042 0.195 -0.036000000000000004 Q 0.20600000000000002 -0.031 0.257 -0.031 L 0.257 0 Q 0.155 -0.003 0.145 -0.003 Q 0.137 -0.003 0.032 0 L 0.032 -0.031 Q 0.091 -0.031 0.101 -0.04 L 0.10300000000000001 -0.042 Q 0.11 -0.05 0.11 -0.076 L 0.11 -0.34400000000000003 Z" />
                </g>
                <g transform="translate(5.326555555555555,1.35)">
                    <path fill="rgb(0,0,0)" stroke="none" paint-order="stroke fill markers"
                        d=" M 0.457 -0.252 L 0.457 -0.061 Q 0.458 -0.037 0.486 -0.033 Q 0.498 -0.031 0.535 -0.031 L 0.535 0 Q 0.433 -0.003 0.423 -0.003 Q 0.41500000000000004 -0.003 0.31 0 L 0.31 -0.031 Q 0.369 -0.031 0.379 -0.04 L 0.381 -0.042 Q 0.388 -0.05 0.388 -0.076 L 0.388 -0.309 Q 0.388 -0.40800000000000003 0.331 -0.418 Q 0.323 -0.42 0.314 -0.42 Q 0.253 -0.42 0.212 -0.367 Q 0.179 -0.324 0.179 -0.26 L 0.179 -0.076 Q 0.179 -0.042 0.195 -0.036000000000000004 Q 0.20600000000000002 -0.031 0.257 -0.031 L 0.257 0 Q 0.155 -0.003 0.145 -0.003 Q 0.137 -0.003 0.032 0 L 0.032 -0.031 Q 0.091 -0.031 0.101 -0.04 L 0.10300000000000001 -0.042 Q 0.11 -0.05 0.11 -0.076 L 0.11 -0.596 Q 0.11 -0.635 0.096 -0.644 L 0.095 -0.644 Q 0.084 -0.65 0.057 -0.652 L 0.032 -0.652 L 0.032 -0.683 L 0.176 -0.6940000000000001 L 0.176 -0.34600000000000003 L 0.177 -0.34600000000000003 Q 0.20400000000000001 -0.40700000000000003 0.263 -0.431 Q 0.294 -0.441 0.321 -0.442 Q 0.396 -0.442 0.426 -0.405 Q 0.453 -0.374 0.456 -0.32 Q 0.457 -0.301 0.457 -0.252 Z" />
                </g>
                <g transform="translate(5.882555555555555,1.35)">
                    <path fill="rgb(0,0,0)" stroke="none" paint-order="stroke fill markers"
                        d=" M 0.331 0.24 L 0.331 0.24 Q 0.331 0.25 0.321 0.25 Q 0.309 0.25 0.268 0.209 Q 0.20600000000000002 0.147 0.165 0.062 Q 0.099 -0.074 0.099 -0.25 Q 0.099 -0.419 0.162 -0.555 Q 0.214 -0.666 0.294 -0.733 Q 0.315 -0.75 0.321 -0.75 Q 0.331 -0.75 0.331 -0.74 Q 0.331 -0.735 0.318 -0.723 Q 0.157 -0.559 0.157 -0.25 Q 0.157 0.058 0.314 0.218 Q 0.331 0.23500000000000001 0.331 0.24 Z" />
                </g>
                <g transform="translate(6.2715555555555556,1.35)">
                    <path fill="rgb(0,0,0)" stroke="none" paint-order="stroke fill markers"
                        d=" M 0.334 -0.302 L 0.3 -0.165 Q 0.28300000000000003 -0.097 0.28300000000000003 -0.077 Q 0.28300000000000003 -0.025 0.32 -0.014 Q 0.328 -0.011 0.338 -0.011 Q 0.388 -0.011 0.429 -0.061 Q 0.456 -0.093 0.47100000000000003 -0.14200000000000002 Q 0.47400000000000003 -0.153 0.484 -0.153 Q 0.496 -0.153 0.496 -0.14300000000000002 Q 0.496 -0.11800000000000001 0.465 -0.07100000000000001 Q 0.41100000000000003 0.011 0.336 0.011 Q 0.268 0.011 0.23700000000000002 -0.046 Q 0.231 -0.055 0.228 -0.065 Q 0.20400000000000001 -0.017 0.162 0.002 Q 0.14300000000000002 0.011 0.123 0.011 Q 0.063 0.011 0.039 -0.024 Q 0.029 -0.037 0.029 -0.055 Q 0.029 -0.092 0.061 -0.107 Q 0.07200000000000001 -0.113 0.084 -0.113 Q 0.114 -0.113 0.12 -0.088 Q 0.121 -0.083 0.121 -0.078 Q 0.121 -0.044 0.08700000000000001 -0.028 Q 0.081 -0.025 0.074 -0.024 Q 0.095 -0.011 0.124 -0.011 Q 0.177 -0.011 0.20800000000000002 -0.082 Q 0.214 -0.097 0.219 -0.115 Q 0.273 -0.319 0.273 -0.353 Q 0.267 -0.41500000000000004 0.219 -0.42 Q 0.167 -0.42 0.124 -0.367 L 0.124 -0.366 Q 0.124 -0.365 0.123 -0.365 Q 0.108 -0.34500000000000003 0.096 -0.319 Q 0.091 -0.307 0.08700000000000001 -0.295 L 0.085 -0.289 Q 0.083 -0.278 0.07200000000000001 -0.278 Q 0.06 -0.278 0.06 -0.28800000000000003 Q 0.06 -0.313 0.092 -0.36 Q 0.146 -0.442 0.221 -0.442 Q 0.298 -0.442 0.329 -0.366 Q 0.361 -0.428 0.41400000000000003 -0.44 Q 0.424 -0.442 0.434 -0.442 Q 0.493 -0.442 0.517 -0.40900000000000003 Q 0.527 -0.395 0.527 -0.376 Q 0.527 -0.335 0.49 -0.321 Q 0.481 -0.318 0.47300000000000003 -0.318 Q 0.442 -0.318 0.436 -0.34500000000000003 Q 0.435 -0.34900000000000003 0.435 -0.353 Q 0.435 -0.383 0.464 -0.4 Q 0.47300000000000003 -0.405 0.483 -0.40700000000000003 Q 0.462 -0.42 0.433 -0.42 Q 0.365 -0.42 0.337 -0.314 Q 0.335 -0.308 0.334 -0.302 Z" />
                </g>
                <g transform="translate(6.843555555555556,1.35)">
                    <path fill="rgb(0,0,0)" stroke="none" paint-order="stroke fill markers"
                        d=" M 0.289 -0.25 L 0.289 -0.25 Q 0.289 -0.081 0.226 0.055 Q 0.17400000000000002 0.166 0.094 0.233 Q 0.073 0.25 0.067 0.25 Q 0.057 0.25 0.057 0.24 Q 0.057 0.23500000000000001 0.07 0.223 Q 0.231 0.059000000000000004 0.231 -0.25 Q 0.231 -0.555 0.081 -0.712 L 0.076 -0.717 Q 0.057 -0.735 0.057 -0.74 Q 0.057 -0.75 0.067 -0.75 Q 0.079 -0.75 0.12 -0.709 Q 0.182 -0.647 0.223 -0.562 Q 0.289 -0.426 0.289 -0.25 Z" />
                </g>
            </g>
        </g>
    </g>
</svg>