<svg version="1.1" xmlns="http://www.w3.org/2000/svg" xmlns:xlink="http://www.w3.org/1999/xlink" width="964"
    height="704">
    <defs>
        <clipPath id="ZKMQRVuMQiOA">
            <path fill="none" stroke="none" d=" M 0 0 L 964 0 L 964 704 L 0 704 L 0 0 Z" />
        </clipPath>
    </defs>
    <g transform="scale(1,1)" clip-path="url(#ZKMQRVuMQiOA)">
        <g>
            <rect fill="rgb(255,255,255)" stroke="none" x="0" y="0" width="964" height="704" fill-opacity="1" />
            <path fill="none" stroke="rgb(37,37,37)" paint-order="fill stroke markers" d=" M 482.5 2.5 L 482.5 704.5"
                stroke-opacity="1" stroke-miterlimit="10" />
            <path fill="none" stroke="rgb(37,37,37)" paint-order="fill stroke markers" d=" M 482.5 1.5 L 478.5 5.5"
                stroke-opacity="1" stroke-miterlimit="10" />
            <path fill="none" stroke="rgb(37,37,37)" paint-order="fill stroke markers" d=" M 482.5 1.5 L 486.5 5.5"
                stroke-opacity="1" stroke-miterlimit="10" />
            <path fill="none" stroke="rgb(37,37,37)" paint-order="fill stroke markers" d=" M 0.5 33.5 L 962.5 33.5"
                stroke-opacity="1" stroke-miterlimit="10" />
            <path fill="none" stroke="rgb(37,37,37)" paint-order="fill stroke markers" d=" M 963.5 33.5 L 959.5 29.5"
                stroke-opacity="1" stroke-miterlimit="10" />
            <path fill="none" stroke="rgb(37,37,37)" paint-order="fill stroke markers" d=" M 963.5 33.5 L 959.5 37.5"
                stroke-opacity="1" stroke-miterlimit="10" />
            <path fill="none" stroke="rgb(37,37,37)" paint-order="fill stroke markers" d=" M 0.5 33.5 L 0.5 36.5"
                stroke-opacity="1" stroke-miterlimit="10" /><text fill="rgb(37,37,37)" stroke="none"
                font-family="geogebra-sans-serif, sans-serif" font-size="12px" font-style="normal" font-weight="normal"
                text-decoration="normal" x="155" y="49" text-anchor="start" dominant-baseline="alphabetic"
                fill-opacity="1">–2</text><text fill="none" stroke="rgb(255,255,255)"
                font-family="geogebra-sans-serif, sans-serif" font-size="12px" font-style="normal" font-weight="normal"
                text-decoration="normal" x="155" y="49" text-anchor="start" dominant-baseline="alphabetic"
                stroke-opacity="1" stroke-linejoin="bevel" stroke-miterlimit="10" stroke-width="3">–2</text><text
                fill="rgb(37,37,37)" stroke="none" font-family="geogebra-sans-serif, sans-serif" font-size="12px"
                font-style="normal" font-weight="normal" text-decoration="normal" x="155" y="49" text-anchor="start"
                dominant-baseline="alphabetic" fill-opacity="1">–2</text>
            <path fill="none" stroke="rgb(37,37,37)" paint-order="fill stroke markers" d=" M 160.5 33.5 L 160.5 36.5"
                stroke-opacity="1" stroke-miterlimit="10" /><text fill="rgb(37,37,37)" stroke="none"
                font-family="geogebra-sans-serif, sans-serif" font-size="12px" font-style="normal" font-weight="normal"
                text-decoration="normal" x="316" y="49" text-anchor="start" dominant-baseline="alphabetic"
                fill-opacity="1">–1</text><text fill="none" stroke="rgb(255,255,255)"
                font-family="geogebra-sans-serif, sans-serif" font-size="12px" font-style="normal" font-weight="normal"
                text-decoration="normal" x="316" y="49" text-anchor="start" dominant-baseline="alphabetic"
                stroke-opacity="1" stroke-linejoin="bevel" stroke-miterlimit="10" stroke-width="3">–1</text><text
                fill="rgb(37,37,37)" stroke="none" font-family="geogebra-sans-serif, sans-serif" font-size="12px"
                font-style="normal" font-weight="normal" text-decoration="normal" x="316" y="49" text-anchor="start"
                dominant-baseline="alphabetic" fill-opacity="1">–1</text>
            <path fill="none" stroke="rgb(37,37,37)" paint-order="fill stroke markers" d=" M 321.5 33.5 L 321.5 36.5"
                stroke-opacity="1" stroke-miterlimit="10" /><text fill="rgb(37,37,37)" stroke="none"
                font-family="geogebra-sans-serif, sans-serif" font-size="12px" font-style="normal" font-weight="normal"
                text-decoration="normal" x="640" y="49" text-anchor="start" dominant-baseline="alphabetic"
                fill-opacity="1">1</text><text fill="none" stroke="rgb(255,255,255)"
                font-family="geogebra-sans-serif, sans-serif" font-size="12px" font-style="normal" font-weight="normal"
                text-decoration="normal" x="640" y="49" text-anchor="start" dominant-baseline="alphabetic"
                stroke-opacity="1" stroke-linejoin="bevel" stroke-miterlimit="10" stroke-width="3">1</text><text
                fill="rgb(37,37,37)" stroke="none" font-family="geogebra-sans-serif, sans-serif" font-size="12px"
                font-style="normal" font-weight="normal" text-decoration="normal" x="640" y="49" text-anchor="start"
                dominant-baseline="alphabetic" fill-opacity="1">1</text>
            <path fill="none" stroke="rgb(37,37,37)" paint-order="fill stroke markers" d=" M 642.5 33.5 L 642.5 36.5"
                stroke-opacity="1" stroke-miterlimit="10" /><text fill="rgb(37,37,37)" stroke="none"
                font-family="geogebra-sans-serif, sans-serif" font-size="12px" font-style="normal" font-weight="normal"
                text-decoration="normal" x="801" y="49" text-anchor="start" dominant-baseline="alphabetic"
                fill-opacity="1">2</text><text fill="none" stroke="rgb(255,255,255)"
                font-family="geogebra-sans-serif, sans-serif" font-size="12px" font-style="normal" font-weight="normal"
                text-decoration="normal" x="801" y="49" text-anchor="start" dominant-baseline="alphabetic"
                stroke-opacity="1" stroke-linejoin="bevel" stroke-miterlimit="10" stroke-width="3">2</text><text
                fill="rgb(37,37,37)" stroke="none" font-family="geogebra-sans-serif, sans-serif" font-size="12px"
                font-style="normal" font-weight="normal" text-decoration="normal" x="801" y="49" text-anchor="start"
                dominant-baseline="alphabetic" fill-opacity="1">2</text>
            <path fill="none" stroke="rgb(37,37,37)" paint-order="fill stroke markers" d=" M 803.5 33.5 L 803.5 36.5"
                stroke-opacity="1" stroke-miterlimit="10" />
            <path fill="none" stroke="rgb(37,37,37)" paint-order="fill stroke markers" d=" M 479.5 676.5 L 482.5 676.5"
                stroke-opacity="1" stroke-miterlimit="10" />
            <path fill="none" stroke="rgb(37,37,37)" paint-order="fill stroke markers" d=" M 479.5 515.5 L 482.5 515.5"
                stroke-opacity="1" stroke-miterlimit="10" />
            <path fill="none" stroke="rgb(37,37,37)" paint-order="fill stroke markers" d=" M 479.5 354.5 L 482.5 354.5"
                stroke-opacity="1" stroke-miterlimit="10" />
            <path fill="none" stroke="rgb(37,37,37)" paint-order="fill stroke markers" d=" M 479.5 194.5 L 482.5 194.5"
                stroke-opacity="1" stroke-miterlimit="10" /><text fill="rgb(37,37,37)" stroke="none"
                font-family="geogebra-sans-serif, sans-serif" font-size="12px" font-style="normal" font-weight="normal"
                text-decoration="normal" x="462" y="681" text-anchor="start" dominant-baseline="alphabetic"
                fill-opacity="1">–4</text><text fill="none" stroke="rgb(255,255,255)"
                font-family="geogebra-sans-serif, sans-serif" font-size="12px" font-style="normal" font-weight="normal"
                text-decoration="normal" x="462" y="681" text-anchor="start" dominant-baseline="alphabetic"
                stroke-opacity="1" stroke-linejoin="bevel" stroke-miterlimit="10" stroke-width="3">–4</text><text
                fill="rgb(37,37,37)" stroke="none" font-family="geogebra-sans-serif, sans-serif" font-size="12px"
                font-style="normal" font-weight="normal" text-decoration="normal" x="462" y="681" text-anchor="start"
                dominant-baseline="alphabetic" fill-opacity="1">–4</text><text fill="rgb(37,37,37)" stroke="none"
                font-family="geogebra-sans-serif, sans-serif" font-size="12px" font-style="normal" font-weight="normal"
                text-decoration="normal" x="462" y="520" text-anchor="start" dominant-baseline="alphabetic"
                fill-opacity="1">–3</text><text fill="none" stroke="rgb(255,255,255)"
                font-family="geogebra-sans-serif, sans-serif" font-size="12px" font-style="normal" font-weight="normal"
                text-decoration="normal" x="462" y="520" text-anchor="start" dominant-baseline="alphabetic"
                stroke-opacity="1" stroke-linejoin="bevel" stroke-miterlimit="10" stroke-width="3">–3</text><text
                fill="rgb(37,37,37)" stroke="none" font-family="geogebra-sans-serif, sans-serif" font-size="12px"
                font-style="normal" font-weight="normal" text-decoration="normal" x="462" y="520" text-anchor="start"
                dominant-baseline="alphabetic" fill-opacity="1">–3</text><text fill="rgb(37,37,37)" stroke="none"
                font-family="geogebra-sans-serif, sans-serif" font-size="12px" font-style="normal" font-weight="normal"
                text-decoration="normal" x="462" y="359" text-anchor="start" dominant-baseline="alphabetic"
                fill-opacity="1">–2</text><text fill="none" stroke="rgb(255,255,255)"
                font-family="geogebra-sans-serif, sans-serif" font-size="12px" font-style="normal" font-weight="normal"
                text-decoration="normal" x="462" y="359" text-anchor="start" dominant-baseline="alphabetic"
                stroke-opacity="1" stroke-linejoin="bevel" stroke-miterlimit="10" stroke-width="3">–2</text><text
                fill="rgb(37,37,37)" stroke="none" font-family="geogebra-sans-serif, sans-serif" font-size="12px"
                font-style="normal" font-weight="normal" text-decoration="normal" x="462" y="359" text-anchor="start"
                dominant-baseline="alphabetic" fill-opacity="1">–2</text><text fill="rgb(37,37,37)" stroke="none"
                font-family="geogebra-sans-serif, sans-serif" font-size="12px" font-style="normal" font-weight="normal"
                text-decoration="normal" x="462" y="199" text-anchor="start" dominant-baseline="alphabetic"
                fill-opacity="1">–1</text><text fill="none" stroke="rgb(255,255,255)"
                font-family="geogebra-sans-serif, sans-serif" font-size="12px" font-style="normal" font-weight="normal"
                text-decoration="normal" x="462" y="199" text-anchor="start" dominant-baseline="alphabetic"
                stroke-opacity="1" stroke-linejoin="bevel" stroke-miterlimit="10" stroke-width="3">–1</text><text
                fill="rgb(37,37,37)" stroke="none" font-family="geogebra-sans-serif, sans-serif" font-size="12px"
                font-style="normal" font-weight="normal" text-decoration="normal" x="462" y="199" text-anchor="start"
                dominant-baseline="alphabetic" fill-opacity="1">–1</text><text fill="rgb(37,37,37)" stroke="none"
                font-family="geogebra-sans-serif, sans-serif" font-size="12px" font-style="normal" font-weight="normal"
                text-decoration="normal" x="468" y="49" text-anchor="start" dominant-baseline="alphabetic"
                fill-opacity="1">0</text><text fill="none" stroke="rgb(255,255,255)"
                font-family="geogebra-sans-serif, sans-serif" font-size="12px" font-style="normal" font-weight="normal"
                text-decoration="normal" x="468" y="49" text-anchor="start" dominant-baseline="alphabetic"
                stroke-opacity="1" stroke-linejoin="bevel" stroke-miterlimit="10" stroke-width="3">0</text><text
                fill="rgb(37,37,37)" stroke="none" font-family="geogebra-sans-serif, sans-serif" font-size="12px"
                font-style="normal" font-weight="normal" text-decoration="normal" x="468" y="49" text-anchor="start"
                dominant-baseline="alphabetic" fill-opacity="1">0</text>
            <path fill="none" stroke="rgb(46,125,50)" paint-order="fill stroke markers"
                d=" M 0 1640.190476190476 L 0 1646.1967002568665 L 0 1640.1904761904766 L 1.0000000000001137 1634.1967002568656 L 1.0000000000001137 1634.1967002568663 L 2.0000000000001137 1628.2153724560355 L 2.0000000000001137 1628.2153724560362 L 3.0000000000001137 1622.246492787986 L 3.0000000000001137 1622.2464927879867 L 4.000000000000114 1616.2900612527162 L 4.000000000000114 1616.2900612527167 L 5.000000000000057 1610.3460778502265 L 5.000000000000057 1610.3460778502272 L 6.000000000000057 1604.4145425805173 L 6.000000000000057 1604.4145425805177 L 7.000000000000057 1598.4954554435878 L 7.000000000000057 1598.4954554435883 L 8.000000000000057 1592.5888164394382 L 8.000000000000057 1592.588816439439 L 9.000000000000057 1586.6946255680691 L 9.000000000000057 1586.6946255680696 L 10.000000000000057 1580.81288282948 L 10.000000000000057 1580.8128828294805 L 11.000000000000057 1574.9435882236705 L 11.000000000000057 1574.9435882236712 L 12.000000000000057 1569.0867417506417 L 12.000000000000057 1569.0867417506424 L 13.000000000000057 1563.2423434103926 L 13.000000000000057 1563.2423434103932 L 14.000000000000057 1557.410393202924 L 14.000000000000057 1557.4103932029245 L 15.000000000000057 1551.590891128235 L 15.000000000000057 1551.5908911282356 L 16.000000000000057 1545.7838371863263 L 16.000000000000057 1545.783837186327 L 17.000000000000057 1539.989231377198 L 17.000000000000057 1539.9892313771984 L 18.000000000000057 1534.2070737008494 L 18.000000000000057 1534.2070737008498 L 19.000000000000057 1528.437364157281 L 19.000000000000057 1528.4373641572815 L 20 1522.6801027464926 L 20 1522.6801027464933 L 21 1516.9352894684841 L 21 1516.9352894684848 L 22.000000000000114 1511.2029243232557 L 22.000000000000114 1511.2029243232564 L 23.000000000000114 1505.4830073108076 L 23.000000000000114 1505.483007310808 L 24.000000000000057 1499.7755384311395 L 24.000000000000057 1499.7755384311401 L 25.000000000000057 1494.0805176842516 L 25.000000000000057 1494.080517684252 L 26.000000000000057 1488.3979450701438 L 26.000000000000057 1488.3979450701443 L 27.000000000000057 1482.7278205888158 L 27.000000000000057 1482.7278205888165 L 28.000000000000057 1477.0701442402683 L 28.000000000000057 1477.0701442402685 L 29.000000000000057 1471.4249160245006 L 29.000000000000057 1471.4249160245013 L 30.000000000000057 1465.7921359415132 L 30.000000000000057 1465.7921359415136 L 31.000000000000057 1460.1718039913058 L 31.000000000000057 1460.171803991306 L 32.00000000000006 1454.5639201738784 L 32.00000000000006 1454.5639201738788 L 33.00000000000006 1448.9684844892313 L 33.00000000000006 1448.9684844892313 L 34.00000000000006 1443.385496937364 L 34.00000000000006 1443.3854969373642 L 35.00000000000006 1437.8149575182765 L 35.00000000000006 1437.8149575182772 L 36.00000000000006 1432.2568662319698 L 36.00000000000006 1432.25686623197 L 37.00000000000006 1426.7112230784428 L 37.00000000000006 1426.711223078443 L 38.00000000000006 1421.1780280576959 L 38.00000000000006 1421.178028057696 L 39.00000000000006 1415.6572811697292 L 39.00000000000006 1415.6572811697295 L 40 1410.1489824145424 L 40 1410.1489824145426 L 41 1404.6531317921358 L 41 1404.6531317921358 L 42.000000000000114 1399.169729302509 L 42.000000000000114 1399.169729302509 L 43.000000000000114 1393.6987749456625 L 43.000000000000114 1393.6987749456628 L 44.00000000000006 1388.240268721596 L 44.00000000000006 1388.2402687215963 L 45.00000000000006 1382.7942106303099 L 45.00000000000006 1382.7942106303099 L 46.00000000000006 1377.3606006718035 L 46.00000000000006 1377.360600671804 L 47.00000000000006 1371.9394388460776 L 47.00000000000006 1371.9394388460778 L 48.00000000000006 1366.5307251531315 L 48.00000000000006 1366.5307251531317 L 49.00000000000006 1361.1344595929654 L 49.00000000000006 1361.1344595929656 L 50.00000000000006 1355.7506421655796 L 50.00000000000006 1355.7506421655798 L 51.00000000000006 1350.3792728709739 L 51.00000000000006 1350.3792728709743 L 52.00000000000006 1345.0203517091481 L 52.00000000000006 1345.0203517091484 L 53.00000000000006 1339.6738786801025 L 53.00000000000006 1339.6738786801027 L 54.00000000000006 1334.339853783837 L 54.00000000000006 1334.3398537838373 L 55.00000000000006 1329.0182770203514 L 55.00000000000006 1329.018277020352 L 56.00000000000006 1323.7091483896463 L 56.00000000000006 1323.7091483896463 L 57.00000000000006 1318.4124678917208 L 57.00000000000006 1318.412467891721 L 58.00000000000006 1313.1282355265757 L 58.00000000000006 1313.128235526576 L 59.00000000000006 1307.8564512942105 L 59.00000000000006 1307.8564512942107 L 60 1302.5971151946255 L 60 1302.5971151946258 L 61 1297.3502272278204 L 61 1297.3502272278208 L 62 1292.1157873937957 L 62 1292.115787393796 L 63.000000000000114 1286.8937956925504 L 63.000000000000114 1286.8937956925508 L 64.00000000000006 1281.6842521240856 L 64.00000000000006 1281.684252124086 L 65.00000000000006 1276.4871566884012 L 65.00000000000006 1276.4871566884015 L 66.00000000000006 1271.3025093854965 L 66.00000000000006 1271.3025093854967 L 67.00000000000006 1266.1303102153722 L 67.00000000000006 1266.1303102153724 L 68.00000000000006 1260.9705591780278 L 68.00000000000006 1260.970559178028 L 69.00000000000006 1255.8232562734634 L 69.00000000000006 1255.8232562734638 L 70.00000000000006 1250.6884015016792 L 70.00000000000006 1250.6884015016794 L 71.00000000000006 1245.565994862675 L 71.00000000000006 1245.5659948626753 L 72.00000000000006 1240.456036356451 L 72.00000000000006 1240.4560363564515 L 73.00000000000006 1235.358525983007 L 73.00000000000006 1235.3585259830072 L 74.00000000000006 1230.2734637423432 L 74.00000000000006 1230.2734637423434 L 75.00000000000006 1225.2008496344595 L 75.00000000000006 1225.2008496344597 L 76.00000000000006 1220.1406836593555 L 76.00000000000006 1220.140683659356 L 77.00000000000006 1215.092965817032 L 77.00000000000006 1215.0929658170323 L 78.00000000000006 1210.0576961074885 L 78.00000000000006 1210.0576961074887 L 79.00000000000006 1205.034874530725 L 79.00000000000006 1205.0348745307253 L 80 1200.0245010867418 L 80 1200.024501086742 L 81 1195.0265757755383 L 81 1195.0265757755387 L 82 1190.041098597115 L 82 1190.0410985971155 L 83.00000000000011 1185.0680695514716 L 83.00000000000011 1185.0680695514718 L 84.00000000000006 1180.1074886386086 L 84.00000000000006 1180.1074886386089 L 85.00000000000006 1175.1593558585255 L 85.00000000000006 1175.159355858526 L 86.00000000000006 1170.2236712112228 L 86.00000000000006 1170.223671211223 L 87.00000000000006 1165.3004346967 L 87.00000000000006 1165.3004346967002 L 88.00000000000006 1160.3896463149572 L 88.00000000000006 1160.3896463149574 L 89.00000000000006 1155.4913060659946 L 89.00000000000006 1155.4913060659949 L 90.00000000000006 1150.605413949812 L 90.00000000000006 1150.6054139498121 L 91.00000000000006 1145.7319699664097 L 91.00000000000006 1145.73196996641 L 92.00000000000006 1140.8709741157872 L 92.00000000000006 1140.8709741157875 L 93.00000000000006 1136.0224263979449 L 93.00000000000006 1136.022426397945 L 94.00000000000006 1131.1863268128825 L 94.00000000000006 1131.186326812883 L 95.00000000000006 1126.3626753606004 L 95.00000000000006 1126.3626753606006 L 96.00000000000006 1121.5514720410984 L 96.00000000000006 1121.5514720410986 L 97.00000000000006 1116.7527168543763 L 97.00000000000006 1116.7527168543768 L 98.00000000000006 1111.9664098004346 L 98.00000000000006 1111.9664098004348 L 99 1107.1925508792729 L 99 1107.192550879273 L 100 1102.431140090891 L 100 1102.4311400908912 L 101 1097.6821774352893 L 101 1097.6821774352898 L 102 1092.9456629124677 L 102 1092.9456629124682 L 103 1088.2215965224264 L 103 1088.2215965224266 L 104.00000000000006 1083.5099782651646 L 104.00000000000006 1083.5099782651648 L 105.00000000000006 1078.8108081406833 L 105.00000000000006 1078.8108081406835 L 106.00000000000006 1074.124086148982 L 106.00000000000006 1074.1240861489823 L 107.00000000000006 1069.449812290061 L 107.00000000000006 1069.4498122900611 L 108.00000000000006 1064.7879865639197 L 108.00000000000006 1064.7879865639202 L 109.00000000000006 1060.1386089705588 L 109.00000000000006 1060.138608970559 L 110.00000000000006 1055.501679509978 L 110.00000000000006 1055.5016795099782 L 111.00000000000006 1050.8771981821772 L 111.00000000000006 1050.8771981821774 L 112.00000000000006 1046.2651649871564 L 112.00000000000006 1046.2651649871568 L 113.00000000000006 1041.6655799249156 L 113.00000000000006 1041.665579924916 L 114.00000000000006 1037.0784429954551 L 114.00000000000006 1037.0784429954556 L 115.00000000000006 1032.5037541987747 L 115.00000000000006 1032.503754198775 L 116.00000000000006 1027.9415135348743 L 116.00000000000006 1027.9415135348747 L 117.00000000000006 1023.3917210037539 L 117.00000000000006 1023.3917210037542 L 118.00000000000006 1018.8543766054137 L 118.00000000000006 1018.8543766054139 L 119 1014.3294803398536 L 119 1014.329480339854 L 120 1009.8170322070736 L 120 1009.8170322070738 L 121 1005.3170322070736 L 121 1005.3170322070738 L 122 1000.8294803398537 L 122 1000.829480339854 L 123 996.3543766054137 L 123 996.354376605414 L 124.00000000000006 991.8917210037538 L 124.00000000000006 991.891721003754 L 125.00000000000006 987.4415135348742 L 125.00000000000006 987.4415135348744 L 126.00000000000006 983.0037541987745 L 126.00000000000006 983.0037541987748 L 127.00000000000006 978.578442995455 L 127.00000000000006 978.5784429954554 L 128.00000000000006 974.1655799249156 L 128.00000000000006 974.1655799249158 L 129.00000000000006 969.7651649871564 L 129.00000000000006 969.7651649871566 L 130.00000000000006 965.377198182177 L 130.00000000000006 965.3771981821774 L 131.00000000000006 961.0016795099779 L 131.00000000000006 961.0016795099782 L 132.00000000000006 956.6386089705588 L 132.00000000000006 956.6386089705591 L 133.00000000000006 952.2879865639198 L 133.00000000000006 952.2879865639201 L 134.00000000000006 947.9498122900609 L 134.00000000000006 947.9498122900612 L 135.00000000000006 943.6240861489821 L 135.00000000000006 943.6240861489824 L 136.00000000000006 939.3108081406834 L 136.00000000000006 939.3108081406837 L 137.00000000000006 935.0099782651648 L 137.00000000000006 935.009978265165 L 138.00000000000006 930.7215965224261 L 138.00000000000006 930.7215965224264 L 139 926.4456629124677 L 139 926.4456629124679 L 140 922.1821774352892 L 140 922.1821774352895 L 141 917.931140090891 L 141 917.9311400908913 L 142 913.6925508792726 L 142 913.692550879273 L 143 909.4664098004345 L 143 909.4664098004348 L 144 905.2527168543766 L 144 905.2527168543768 L 145.00000000000006 901.0514720410982 L 145.00000000000006 901.0514720410985 L 146.00000000000006 896.8626753606003 L 146.00000000000006 896.8626753606006 L 147.00000000000006 892.6863268128825 L 147.00000000000006 892.6863268128827 L 148.00000000000006 888.5224263979447 L 148.00000000000006 888.5224263979451 L 149.00000000000006 884.370974115787 L 149.00000000000006 884.3709741157872 L 150.00000000000006 880.2319699664095 L 150.00000000000006 880.2319699664097 L 151.00000000000006 876.105413949812 L 151.00000000000006 876.1054139498123 L 152.00000000000006 871.9913060659945 L 152.00000000000006 871.9913060659948 L 153.00000000000006 867.8896463149573 L 153.00000000000006 867.8896463149575 L 154.00000000000006 863.8004346967 L 154.00000000000006 863.8004346967002 L 155.00000000000006 859.7236712112227 L 155.00000000000006 859.7236712112231 L 156.00000000000006 855.6593558585257 L 156.00000000000006 855.659355858526 L 157.00000000000006 851.6074886386087 L 157.00000000000006 851.6074886386091 L 158.00000000000006 847.5680695514718 L 158.00000000000006 847.5680695514721 L 159 843.541098597115 L 159 843.5410985971153 L 160 839.5265757755383 L 160 839.5265757755385 L 161.00000000000006 835.5245010867415 L 161.00000000000006 835.5245010867416 L 162.00000000000006 831.5348745307249 L 162.00000000000006 831.534874530725 L 163.00000000000006 827.5576961074885 L 163.00000000000006 827.5576961074885 L 164.00000000000006 823.592965817032 L 164.00000000000006 823.5929658170322 L 165.00000000000006 819.6406836593557 L 165.00000000000006 819.6406836593558 L 166.00000000000006 815.7008496344594 L 166.00000000000006 815.7008496344597 L 167.00000000000006 811.7734637423433 L 167.00000000000006 811.7734637423433 L 168 807.8585259830072 L 168 807.8585259830073 L 169 803.9560363564511 L 169 803.9560363564512 L 170.00000000000006 800.0659948626751 L 170.00000000000006 800.0659948626753 L 171.00000000000006 796.1884015016793 L 171.00000000000006 796.1884015016793 L 172.00000000000006 792.3232562734636 L 172.00000000000006 792.3232562734636 L 173.00000000000006 788.4705591780278 L 173.00000000000006 788.4705591780281 L 174.00000000000006 784.6303102153722 L 174.00000000000006 784.6303102153723 L 175.00000000000006 780.8025093854967 L 175.00000000000006 780.8025093854969 L 176.00000000000006 776.9871566884012 L 176.00000000000006 776.9871566884016 L 177.00000000000006 773.184252124086 L 177.00000000000006 773.1842521240861 L 178 769.3937956925506 L 178 769.393795692551 L 179 765.6157873937956 L 179 765.6157873937957 L 180.00000000000006 761.8502272278204 L 180.00000000000006 761.8502272278204 L 181.00000000000006 758.0971151946253 L 181.00000000000006 758.0971151946253 L 182.00000000000006 754.3564512942104 L 182.00000000000006 754.3564512942105 L 183.00000000000006 750.6282355265755 L 183.00000000000006 750.6282355265757 L 184.00000000000006 746.9124678917208 L 184.00000000000006 746.9124678917209 L 185.00000000000006 743.2091483896461 L 185.00000000000006 743.2091483896463 L 186.00000000000006 739.5182770203515 L 186.00000000000006 739.5182770203517 L 187.00000000000006 735.8398537838369 L 187.00000000000006 735.8398537838372 L 188 732.1738786801027 L 188 732.1738786801027 L 189 728.5203517091483 L 189 728.5203517091484 L 190 724.8792728709741 L 190 724.8792728709741 L 191.00000000000006 721.2506421655796 L 191.00000000000006 721.2506421655798 L 192.00000000000006 717.6344595929655 L 192.00000000000006 717.6344595929658 L 193.00000000000006 714.0307251531316 L 193.00000000000006 714.0307251531317 L 194.00000000000006 710.4394388460777 L 194.00000000000006 710.4394388460778 L 195.00000000000006 706.8606006718039 L 195.00000000000006 706.8606006718039 L 196.00000000000006 703.2942106303101 L 196.00000000000006 703.2942106303101 L 197.00000000000006 699.7402687215963 L 197.00000000000006 699.7402687215966 L 198 696.1987749456628 L 198 696.198774945663 L 199 692.6697293025093 L 199 692.6697293025094 L 200 689.1531317921358 L 200 689.1531317921359 L 201.00000000000006 685.6489824145424 L 201.00000000000006 685.6489824145425 L 202.00000000000006 682.157281169729 L 202.00000000000006 682.1572811697293 L 203.00000000000006 678.6780280576959 L 203.00000000000006 678.678028057696 L 204.00000000000006 675.2112230784428 L 204.00000000000006 675.2112230784429 L 205.00000000000006 671.7568662319698 L 205.00000000000006 671.75686623197 L 206.00000000000006 668.3149575182769 L 206.00000000000006 668.314957518277 L 207.00000000000006 664.885496937364 L 207.00000000000006 664.8854969373641 L 208 661.4684844892313 L 208 661.4684844892314 L 209 658.0639201738785 L 209 658.0639201738787 L 210 654.671803991306 L 210 654.6718039913061 L 211.00000000000006 651.2921359415133 L 211.00000000000006 651.2921359415134 L 212.00000000000006 647.9249160245009 L 212.00000000000006 647.924916024501 L 213.00000000000006 644.5701442402685 L 213.00000000000006 644.5701442402686 L 214.00000000000006 641.2278205888163 L 214.00000000000006 641.2278205888164 L 215.00000000000006 637.897945070144 L 215.00000000000006 637.8979450701443 L 216.00000000000006 634.580517684252 L 216.00000000000006 634.5805176842521 L 217.00000000000006 631.2755384311399 L 217.00000000000006 631.2755384311401 L 218 627.9830073108079 L 218 627.9830073108081 L 219 624.7029243232562 L 219 624.7029243232563 L 220 621.4352894684844 L 220 621.4352894684845 L 221.00000000000006 618.1801027464926 L 221.00000000000006 618.1801027464927 L 222.00000000000006 614.937364157281 L 222.00000000000006 614.9373641572811 L 223.00000000000006 611.7070737008494 L 223.00000000000006 611.7070737008496 L 224.00000000000006 608.489231377198 L 224.00000000000006 608.4892313771982 L 225.00000000000006 605.2838371863267 L 225.00000000000006 605.2838371863268 L 226.00000000000003 602.0908911282354 L 226.00000000000003 602.0908911282355 L 227.00000000000003 598.9103932029242 L 227.00000000000003 598.9103932029243 L 228.00000000000003 595.742343410393 L 228.00000000000003 595.7423434103932 L 229.00000000000003 592.586741750642 L 229.00000000000003 592.5867417506422 L 230.00000000000003 589.4435882236711 L 230.00000000000003 589.4435882236712 L 231.00000000000003 586.3128828294803 L 231.00000000000003 586.3128828294804 L 232.00000000000006 583.1946255680693 L 232.00000000000006 583.1946255680696 L 233.00000000000006 580.0888164394387 L 233.00000000000006 580.0888164394388 L 234.00000000000003 576.9954554435881 L 234.00000000000003 576.9954554435882 L 235.00000000000003 573.9145425805175 L 235.00000000000003 573.9145425805176 L 236.00000000000003 570.8460778502271 L 236.00000000000003 570.8460778502272 L 237.00000000000003 567.7900612527167 L 237.00000000000003 567.7900612527169 L 238.00000000000003 564.7464927879864 L 238.00000000000003 564.7464927879865 L 239.00000000000003 561.7153724560362 L 239.00000000000003 561.7153724560364 L 240.00000000000003 558.6967002568662 L 240.00000000000003 558.6967002568663 L 241 555.690476190476 L 241 555.6904761904763 L 242.00000000000006 552.696700256866 L 242.00000000000006 552.6967002568662 L 243.00000000000006 549.7153724560361 L 243.00000000000006 549.7153724560363 L 244.00000000000003 546.7464927879864 L 244.00000000000003 546.7464927879865 L 245.00000000000003 543.7900612527167 L 245.00000000000003 543.7900612527168 L 246.00000000000003 540.8460778502272 L 246.00000000000003 540.8460778502273 L 247.00000000000003 537.9145425805176 L 247.00000000000003 537.9145425805177 L 248.00000000000003 534.9954554435882 L 248.00000000000003 534.9954554435883 L 249.00000000000003 532.0888164394387 L 249.00000000000003 532.0888164394388 L 250.00000000000003 529.1946255680695 L 250.00000000000003 529.1946255680696 L 251 526.3128828294803 L 251 526.3128828294805 L 252.00000000000006 523.4435882236711 L 252.00000000000006 523.4435882236712 L 253.00000000000003 520.586741750642 L 253.00000000000003 520.5867417506422 L 254.00000000000003 517.7423434103931 L 254.00000000000003 517.7423434103932 L 255.00000000000003 514.9103932029242 L 255.00000000000003 514.9103932029243 L 256 512.0908911282354 L 256 512.0908911282355 L 257 509.28383718632665 L 257 509.2838371863268 L 258 506.4892313771981 L 258 506.48923137719817 L 259 503.70707370084955 L 259 503.7070737008496 L 260 500.9373641572811 L 260 500.93736415728114 L 261 498.1801027464927 L 261 498.18010274649276 L 262.00000000000006 495.43528946848437 L 262.00000000000006 495.43528946848437 L 263 492.7029243232561 L 263 492.7029243232562 L 264 489.983007310808 L 264 489.9830073108081 L 265 487.27553843114 L 265 487.27553843114003 L 266 484.580517684252 L 266 484.5805176842521 L 267 481.89794507014415 L 267 481.8979450701442 L 268 479.22782058881637 L 268 479.2278205888164 L 269 476.5701442402687 L 269 476.5701442402687 L 270 473.924916024501 L 270 473.9249160245011 L 271 471.29213594151344 L 271 471.2921359415136 L 272 468.671803991306 L 272 468.6718039913061 L 273 466.0639201738785 L 273 466.0639201738786 L 274 463.46848448923123 L 274 463.4684844892313 L 275 460.88549693736405 L 275 460.8854969373641 L 276 458.31495751827686 L 276 458.314957518277 L 277 455.75686623196987 L 277 455.7568662319699 L 278 453.2112230784429 L 278 453.21122307844297 L 279 450.678028057696 L 279 450.6780280576961 L 280 448.15728116972923 L 280 448.1572811697293 L 281 445.6489824145425 L 281 445.6489824145426 L 282 443.15313179213587 L 282 443.153131792136 L 283 440.66972930250927 L 283 440.66972930250927 L 284 438.19877494566276 L 284 438.1987749456629 L 285 435.7402687215964 L 285 435.74026872159646 L 286 433.2942106303101 L 286 433.29421063031015 L 287 430.86060067180387 L 287 430.860600671804 L 288 428.4394388460778 L 288 428.4394388460778 L 289 426.0307251531317 L 289 426.03072515313175 L 290 423.6344595929657 L 290 423.63445959296587 L 291 421.2506421655799 L 291 421.2506421655799 L 292 418.87927287097403 L 292 418.87927287097415 L 293 416.5203517091482 L 293 416.5203517091484 L 294 414.17387868010263 L 294 414.1738786801027 L 295 411.8398537838371 L 295 411.8398537838371 L 296 409.5182770203516 L 296 409.51827702035166 L 297 407.2091483896462 L 297 407.2091483896463 L 298 404.9124678917209 L 298 404.912467891721 L 299 402.6282355265757 L 299 402.6282355265758 L 300 400.35645129421056 L 300 400.3564512942106 L 301 398.09711519462553 L 301 398.0971151946256 L 302 395.8502272278206 L 302 395.8502272278206 L 303 393.6157873937956 L 303 393.6157873937956 L 304 391.3937956925507 L 304 391.39379569255084 L 305 389.1842521240861 L 305 389.1842521240861 L 306 386.98715668840134 L 306 386.9871566884015 L 307 384.8025093854968 L 307 384.80250938549693 L 308 382.6303102153724 L 308 382.6303102153724 L 309 380.470559178028 L 309 380.47055917802805 L 310 378.32325627346364 L 310 378.32325627346376 L 311 376.18840150167944 L 311 376.1884015016795 L 312 374.0659948626753 L 312 374.0659948626754 L 313 371.95603635645125 L 313 371.9560363564513 L 314 369.85852598300715 L 314 369.8585259830073 L 315 367.7734637423433 L 315 367.7734637423434 L 316 365.7008496344595 L 316 365.7008496344596 L 317 363.6406836593558 L 317 363.64068365935583 L 318 361.5929658170321 L 318 361.59296581703217 L 319 359.5576961074886 L 319 359.55769610748865 L 320 357.53487453072506 L 320 357.5348745307252 L 321 355.5245010867417 L 321 355.52450108674174 L 322 353.52657577553833 L 322 353.5265757755384 L 323 351.54109859711514 L 323 351.5410985971152 L 324 349.568069551472 L 324 349.56806955147204 L 325 347.6074886386089 L 325 347.60748863860897 L 326 345.6593558585259 L 326 345.65935585852594 L 327 343.723671211223 L 327 343.723671211223 L 328 341.80043469670017 L 328 341.8004346967002 L 329 339.8896463149574 L 329 339.88964631495753 L 330 337.99130606599476 L 330 337.9913060659949 L 331 336.10541394981226 L 331 336.10541394981226 L 332 334.23196996640974 L 332 334.2319699664098 L 333 332.3709741157873 L 333 332.37097411578736 L 334 330.522426397945 L 334 330.522426397945 L 335 328.6863268128828 L 335 328.6863268128828 L 336 326.86267536060063 L 336 326.86267536060063 L 337 325.0514720410985 L 337 325.0514720410986 L 338 323.25271685437656 L 338 323.25271685437656 L 339 321.4664098004347 L 339 321.4664098004347 L 340 319.6925508792728 L 340 319.69255087927286 L 341 317.93114009089106 L 341 317.9311400908911 L 342 316.18217743528936 L 342 316.1821774352895 L 343 314.4456629124678 L 343 314.44566291246787 L 344 312.72159652242635 L 344 312.72159652242635 L 345 311.00997826516493 L 345 311.00997826516493 L 346 309.3108081406836 L 346 309.31080814068366 L 347 307.6240861489823 L 347 307.6240861489824 L 348 305.9498122900612 L 348 305.94981229006123 L 349 304.28798656392013 L 349 304.2879865639202 L 350 302.6386089705591 L 350 302.6386089705592 L 351 301.0016795099782 L 351 301.00167950997826 L 352 299.3771981821773 L 352 299.37719818217744 L 353 297.76516498715665 L 353 297.76516498715665 L 354 296.16557992491596 L 354 296.165579924916 L 355 294.5784429954554 L 355 294.5784429954554 L 356 293.0037541987749 L 356 293.0037541987749 L 357 291.4415135348745 L 357 291.4415135348745 L 358 289.8917210037541 L 358 289.8917210037542 L 359 288.3543766054139 L 359 288.35437660541396 L 360 286.8294803398538 L 360 286.8294803398538 L 361 285.3170322070737 L 361 285.31703220707374 L 362 283.8170322070736 L 362 283.8170322070737 L 363 282.3294803398537 L 363 282.3294803398538 L 364 280.8543766054139 L 364 280.85437660541396 L 365 279.3917210037542 L 365 279.3917210037542 L 366 277.9415135348745 L 366 277.94151353487456 L 367 276.5037541987749 L 367 276.50375419877497 L 368 275.0784429954554 L 368 275.0784429954554 L 369 273.665579924916 L 369 273.665579924916 L 370 272.2651649871567 L 370 272.2651649871567 L 371 270.8771981821774 L 371 270.87719818217744 L 372 269.50167950997826 L 372 269.50167950997826 L 373 268.1386089705591 L 373 268.1386089705592 L 374 266.7879865639202 L 374 266.7879865639202 L 375 265.44981229006123 L 375 265.44981229006123 L 376 264.12408614898237 L 376 264.1240861489824 L 377 262.81080814068366 L 377 262.81080814068366 L 378 261.50997826516493 L 378 261.509978265165 L 379 260.22159652242635 L 379 260.2215965224264 L 380 258.94566291246787 L 380 258.94566291246787 L 381 257.6821774352895 L 381 257.6821774352895 L 382 256.4311400908911 L 382 256.4311400908911 L 383 255.19255087927283 L 383 255.19255087927283 L 384 253.96640980043466 L 384 253.9664098004347 L 385 252.7527168543766 L 385 252.7527168543766 L 386 251.55147204109855 L 386 251.5514720410986 L 387 250.36267536060063 L 387 250.36267536060066 L 388 249.1863268128828 L 388 249.1863268128828 L 389 248.02242639794503 L 389 248.02242639794505 L 390 246.87097411578736 L 390 246.8709741157874 L 391 245.73196996640976 L 391 245.7319699664098 L 392 244.6054139498123 L 392 244.6054139498123 L 393 243.49130606599482 L 393 243.49130606599485 L 394 242.38964631495747 L 394 242.3896463149575 L 395 241.30043469670022 L 395 241.30043469670022 L 396 240.22367121122304 L 396 240.22367121122304 L 397 239.15935585852597 L 397 239.159355858526 L 398 238.1074886386089 L 398 238.10748863860897 L 399 237.06806955147204 L 399 237.06806955147204 L 400 236.04109859711517 L 400 236.04109859711517 L 401 235.0265757755384 L 401 235.02657577553842 L 402 234.0245010867417 L 402 234.02450108674174 L 403 233.03487453072515 L 403 233.03487453072515 L 404 232.0576961074886 L 404 232.0576961074886 L 405 231.09296581703217 L 405 231.0929658170322 L 406 230.14068365935586 L 406 230.14068365935586 L 407 229.20084963445956 L 407 229.20084963445956 L 408 228.27346374234338 L 408 228.27346374234338 L 409 227.3585259830073 L 409 227.3585259830073 L 410 226.45603635645128 L 410 226.45603635645128 L 411 225.56599486267532 L 411 225.56599486267532 L 412 224.68840150167946 L 412 224.68840150167946 L 413 223.82325627346373 L 413 223.82325627346373 L 414 222.97055917802805 L 414 222.97055917802805 L 415 222.13031021537245 L 415 222.13031021537245 L 416 221.30250938549693 L 416 221.30250938549693 L 417 220.48715668840146 L 417 220.48715668840146 L 418 219.6842521240861 L 418 219.68425212408616 L 419 218.89379569255084 L 419 218.89379569255087 L 420 218.11578739379567 L 420 218.11578739379567 L 421 217.35022722782054 L 421 217.3502272278206 L 422 216.59711519462553 L 422 216.59711519462553 L 423 215.85645129421061 L 423 215.85645129421061 L 424 215.12823552657576 L 424 215.12823552657576 L 425 214.412467891721 L 425 214.412467891721 L 426 213.7091483896463 L 426 213.70914838964632 L 427 213.0182770203517 L 427 213.0182770203517 L 428 212.33985378383716 L 428 212.33985378383716 L 429 211.67387868010275 L 429 211.67387868010275 L 430 211.02035170914837 L 430 211.02035170914837 L 431 210.3792728709741 L 431 210.37927287097412 L 432 209.7506421655799 L 432 209.7506421655799 L 433 209.1344595929658 L 433 209.1344595929658 L 434 208.53072515313178 L 434 208.53072515313178 L 435 207.93943884607782 L 435 207.93943884607782 L 436 207.36060067180398 L 436 207.36060067180398 L 437 206.7942106303102 L 437 206.7942106303102 L 438 206.24026872159652 L 438 206.24026872159652 L 439 205.6987749456629 L 439 205.6987749456629 L 440 205.16972930250938 L 440 205.16972930250938 L 441 204.65313179213592 L 441 204.65313179213592 L 442 204.1489824145426 L 442 204.1489824145426 L 443 203.6572811697293 L 443 203.6572811697293 L 444 203.17802805769608 L 444 203.17802805769608 L 445 202.71122307844297 L 445 202.71122307844297 L 446 202.25686623196992 L 446 202.25686623196992 L 447 201.81495751827703 L 447 201.81495751827703 L 448 201.38549693736414 L 448 201.38549693736414 L 449 200.96848448923137 L 449 200.96848448923137 L 450 200.56392017387867 L 450 200.56392017387867 L 451 200.17180399130604 L 451 200.17180399130604 L 452 199.79213594151352 L 452 199.79213594151352 L 453 199.42491602450107 L 453 199.42491602450107 L 454 199.07014424026872 L 454 199.07014424026872 L 455 198.7278205888164 L 455 198.72782058881643 L 456 198.39794507014423 L 456 198.39794507014423 L 457 198.0805176842521 L 457 198.0805176842521 L 458 197.7755384311401 L 458 197.7755384311401 L 459 197.48300731080812 L 459 197.48300731080812 L 460 197.20292432325627 L 460 197.20292432325627 L 461 196.93528946848448 L 461 196.93528946848448 L 462 196.68010274649276 L 462 196.68010274649276 L 463 196.43736415728114 L 463 196.43736415728114 L 464 196.2070737008496 L 464 196.2070737008496 L 465 195.9892313771982 L 465 195.9892313771982 L 466 195.7838371863268 L 466 195.7838371863268 L 467 195.5908911282355 L 467 195.5908911282355 L 468 195.4103932029243 L 468 195.4103932029243 L 469 195.24234341039318 L 469 195.24234341039318 L 470 195.08674175064215 L 470 195.08674175064215 L 471 194.94358822367118 L 471 194.94358822367118 L 472 194.81288282948032 L 472 194.81288282948032 L 473 194.69462556806954 L 473 194.69462556806954 L 474 194.58881643943883 L 474 194.58881643943883 L 475 194.49545544358818 L 475 194.49545544358818 L 476 194.41454258051766 L 476 194.41454258051766 L 477 194.3460778502272 L 477 194.3460778502272 L 478 194.2900612527168 L 478 194.2900612527168 L 479 194.24649278798657 L 479 194.24649278798657 L 480 194.21537245603633 L 480 194.21537245603633 L 481 194.19670025686622 L 481 194.19670025686622 L 482 194.19047619047618 L 482 194.19670025686622 L 483 194.19047619047618 L 483 194.19670025686622 L 484 194.21537245603633 L 484 194.21537245603633 L 485 194.24649278798657 L 485 194.24649278798657 L 486 194.2900612527168 L 486 194.2900612527168 L 487 194.3460778502272 L 487 194.3460778502272 L 488 194.41454258051766 L 488 194.41454258051766 L 489 194.49545544358818 L 489 194.49545544358818 L 490 194.58881643943883 L 490 194.58881643943883 L 491 194.69462556806954 L 491 194.69462556806954 L 492 194.81288282948032 L 492 194.81288282948032 L 493 194.94358822367118 L 493 194.94358822367118 L 494 195.08674175064215 L 494 195.08674175064215 L 495 195.24234341039318 L 495 195.24234341039318 L 496 195.4103932029243 L 496 195.4103932029243 L 497 195.5908911282355 L 497 195.5908911282355 L 498 195.7838371863268 L 498 195.7838371863268 L 499 195.9892313771982 L 499 195.9892313771982 L 500 196.2070737008496 L 500 196.2070737008496 L 501 196.43736415728114 L 501 196.43736415728114 L 502 196.68010274649276 L 502 196.68010274649276 L 503 196.93528946848448 L 503 196.93528946848448 L 504 197.20292432325627 L 504 197.20292432325627 L 505 197.48300731080812 L 505 197.48300731080812 L 506 197.7755384311401 L 506 197.7755384311401 L 507 198.0805176842521 L 507 198.0805176842521 L 508 198.39794507014423 L 508 198.39794507014423 L 509 198.72782058881643 L 509 198.7278205888164 L 510 199.07014424026872 L 510 199.07014424026872 L 511 199.42491602450107 L 511 199.42491602450107 L 512 199.79213594151352 L 512 199.79213594151352 L 513 200.17180399130604 L 513 200.17180399130604 L 514 200.56392017387867 L 514 200.56392017387867 L 515 200.96848448923137 L 515 200.96848448923137 L 516 201.38549693736414 L 516 201.38549693736414 L 517 201.81495751827703 L 517 201.81495751827703 L 518 202.25686623196992 L 518 202.25686623196992 L 519 202.71122307844297 L 519 202.71122307844297 L 520 203.17802805769608 L 520 203.17802805769608 L 521 203.6572811697293 L 521 203.6572811697293 L 522 204.1489824145426 L 522 204.1489824145426 L 523 204.65313179213592 L 523 204.65313179213592 L 524 205.16972930250938 L 524 205.16972930250938 L 525 205.6987749456629 L 525 205.6987749456629 L 526 206.24026872159652 L 526 206.24026872159652 L 527 206.7942106303102 L 527 206.7942106303102 L 528 207.36060067180398 L 528 207.36060067180398 L 529 207.93943884607782 L 529 207.93943884607782 L 530 208.53072515313178 L 530 208.53072515313178 L 531 209.1344595929658 L 531 209.1344595929658 L 532 209.7506421655799 L 532 209.7506421655799 L 533 210.37927287097412 L 533 210.3792728709741 L 534 211.02035170914837 L 534 211.02035170914837 L 535 211.67387868010275 L 535 211.67387868010275 L 536 212.33985378383716 L 536 212.33985378383716 L 537 213.0182770203517 L 537 213.0182770203517 L 538 213.70914838964632 L 538 213.7091483896463 L 539 214.412467891721 L 539 214.412467891721 L 540 215.12823552657576 L 540 215.12823552657576 L 541 215.85645129421061 L 541 215.85645129421061 L 542 216.59711519462553 L 542 216.59711519462553 L 543 217.3502272278206 L 543 217.35022722782054 L 544 218.11578739379567 L 544 218.11578739379567 L 545 218.89379569255087 L 545 218.89379569255084 L 546 219.68425212408616 L 546 219.6842521240861 L 547 220.48715668840146 L 547 220.48715668840146 L 548 221.30250938549693 L 548 221.30250938549693 L 549 222.13031021537245 L 549 222.13031021537245 L 550 222.97055917802805 L 550 222.97055917802805 L 551 223.82325627346373 L 551 223.82325627346373 L 552 224.68840150167946 L 552 224.68840150167946 L 553 225.56599486267532 L 553 225.56599486267532 L 554 226.45603635645128 L 554 226.45603635645128 L 555 227.3585259830073 L 555 227.3585259830073 L 556 228.27346374234338 L 556 228.27346374234338 L 557 229.20084963445956 L 557 229.20084963445956 L 558 230.14068365935586 L 558 230.14068365935586 L 559 231.0929658170322 L 559 231.09296581703217 L 560 232.0576961074886 L 560 232.0576961074886 L 561 233.03487453072515 L 561 233.03487453072515 L 562 234.02450108674174 L 562 234.0245010867417 L 563 235.02657577553842 L 563 235.0265757755384 L 564 236.04109859711517 L 564 236.04109859711517 L 565 237.06806955147204 L 565 237.06806955147204 L 566 238.10748863860897 L 566 238.1074886386089 L 567 239.159355858526 L 567 239.15935585852597 L 568 240.22367121122304 L 568 240.22367121122304 L 569 241.30043469670022 L 569 241.30043469670022 L 570 242.3896463149575 L 570 242.38964631495747 L 571 243.49130606599485 L 571 243.49130606599482 L 572 244.6054139498123 L 572 244.6054139498123 L 573 245.7319699664098 L 573 245.73196996640976 L 574 246.8709741157874 L 574 246.87097411578736 L 575 248.02242639794505 L 575 248.02242639794503 L 576 249.1863268128828 L 576 249.1863268128828 L 577 250.36267536060066 L 577 250.36267536060063 L 578 251.5514720410986 L 578 251.55147204109855 L 579 252.7527168543766 L 579 252.7527168543766 L 580 253.9664098004347 L 580 253.96640980043466 L 581 255.19255087927283 L 581 255.19255087927283 L 582 256.4311400908911 L 582 256.4311400908911 L 583 257.6821774352895 L 583 257.6821774352895 L 584 258.94566291246787 L 584 258.94566291246787 L 585 260.2215965224264 L 585 260.22159652242635 L 586 261.509978265165 L 586 261.50997826516493 L 587 262.81080814068366 L 587 262.81080814068366 L 588 264.1240861489824 L 588 264.12408614898237 L 589 265.44981229006123 L 589 265.44981229006123 L 590 266.7879865639202 L 590 266.7879865639202 L 591 268.1386089705592 L 591 268.1386089705591 L 592 269.50167950997826 L 592 269.50167950997826 L 593 270.87719818217744 L 593 270.8771981821774 L 594 272.2651649871567 L 594 272.2651649871567 L 595 273.665579924916 L 595 273.665579924916 L 596 275.0784429954554 L 596 275.0784429954554 L 597 276.50375419877497 L 597 276.5037541987749 L 598 277.94151353487456 L 598 277.9415135348745 L 599 279.3917210037542 L 599 279.3917210037542 L 600 280.85437660541396 L 600 280.8543766054139 L 601 282.3294803398538 L 601 282.3294803398537 L 602 283.8170322070737 L 602 283.8170322070736 L 603 285.31703220707374 L 603 285.3170322070737 L 604 286.8294803398538 L 604 286.8294803398538 L 605 288.35437660541396 L 605 288.3543766054139 L 606 289.8917210037542 L 606 289.8917210037541 L 607 291.4415135348745 L 607 291.4415135348745 L 608 293.0037541987749 L 608 293.0037541987749 L 609 294.5784429954554 L 609 294.5784429954554 L 610 296.165579924916 L 610 296.16557992491596 L 611 297.76516498715665 L 611 297.76516498715665 L 612 299.37719818217744 L 612 299.3771981821773 L 613 301.00167950997826 L 613 301.0016795099782 L 614 302.6386089705592 L 614 302.6386089705591 L 615 304.2879865639202 L 615 304.28798656392013 L 616 305.94981229006123 L 616 305.9498122900612 L 617 307.6240861489824 L 617 307.6240861489823 L 618 309.31080814068366 L 618 309.3108081406836 L 619 311.00997826516493 L 619 311.00997826516493 L 620 312.72159652242635 L 620 312.72159652242635 L 621 314.44566291246787 L 621 314.4456629124678 L 622 316.1821774352895 L 622 316.18217743528936 L 623 317.9311400908911 L 623 317.93114009089106 L 624 319.69255087927286 L 624 319.6925508792728 L 625 321.4664098004347 L 625 321.4664098004347 L 626 323.25271685437656 L 626 323.25271685437656 L 627 325.0514720410986 L 627 325.0514720410985 L 628 326.86267536060063 L 628 326.86267536060063 L 629 328.6863268128828 L 629 328.6863268128828 L 630 330.522426397945 L 630 330.522426397945 L 631 332.37097411578736 L 631 332.3709741157873 L 632 334.2319699664098 L 632 334.23196996640974 L 633 336.10541394981226 L 633 336.10541394981226 L 634 337.9913060659949 L 634 337.99130606599476 L 635 339.88964631495753 L 635 339.8896463149574 L 636 341.8004346967002 L 636 341.80043469670017 L 637 343.723671211223 L 637 343.723671211223 L 638 345.65935585852594 L 638 345.6593558585259 L 639 347.60748863860897 L 639 347.6074886386089 L 640 349.56806955147204 L 640 349.568069551472 L 641 351.5410985971152 L 641 351.54109859711514 L 642 353.5265757755384 L 642 353.52657577553833 L 643 355.52450108674174 L 643 355.5245010867417 L 644 357.5348745307252 L 644 357.53487453072506 L 645 359.55769610748865 L 645 359.5576961074886 L 646 361.59296581703217 L 646 361.5929658170321 L 647 363.64068365935583 L 647 363.6406836593558 L 648 365.7008496344596 L 648 365.7008496344595 L 649 367.7734637423434 L 649 367.7734637423433 L 650 369.8585259830073 L 650 369.85852598300715 L 651 371.9560363564513 L 651 371.95603635645125 L 652 374.0659948626754 L 652 374.0659948626753 L 653 376.1884015016795 L 653 376.18840150167944 L 654 378.32325627346376 L 654 378.32325627346364 L 655 380.47055917802805 L 655 380.470559178028 L 656 382.6303102153724 L 656 382.6303102153724 L 657 384.80250938549693 L 657 384.8025093854968 L 658 386.9871566884015 L 658 386.98715668840134 L 659 389.1842521240861 L 659 389.1842521240861 L 660 391.39379569255084 L 660 391.3937956925507 L 661 393.6157873937956 L 661 393.6157873937956 L 662 395.8502272278206 L 662 395.8502272278206 L 663 398.0971151946256 L 663 398.09711519462553 L 664 400.3564512942106 L 664 400.35645129421056 L 665 402.6282355265758 L 665 402.6282355265757 L 666 404.912467891721 L 666 404.9124678917209 L 667 407.2091483896463 L 667 407.2091483896462 L 668 409.51827702035166 L 668 409.5182770203516 L 669 411.8398537838371 L 669 411.8398537838371 L 670 414.1738786801027 L 670 414.17387868010263 L 671 416.5203517091484 L 671 416.5203517091482 L 672 418.87927287097415 L 672 418.87927287097403 L 673 421.2506421655799 L 673 421.2506421655799 L 674 423.63445959296587 L 674 423.6344595929657 L 675 426.03072515313175 L 675 426.0307251531317 L 676 428.4394388460778 L 676 428.4394388460778 L 677 430.860600671804 L 677 430.86060067180387 L 678 433.29421063031015 L 678 433.2942106303101 L 679 435.74026872159646 L 679 435.7402687215964 L 680 438.1987749456629 L 680 438.19877494566276 L 681 440.66972930250927 L 681 440.66972930250927 L 682 443.153131792136 L 682 443.15313179213587 L 683 445.6489824145426 L 683 445.6489824145425 L 684 448.1572811697293 L 684 448.15728116972923 L 685 450.6780280576961 L 685 450.678028057696 L 686 453.21122307844297 L 686 453.2112230784429 L 687 455.7568662319699 L 687 455.75686623196987 L 688 458.314957518277 L 688 458.31495751827686 L 689 460.8854969373641 L 689 460.88549693736405 L 690 463.4684844892313 L 690 463.46848448923123 L 691 466.0639201738786 L 691 466.0639201738785 L 692 468.6718039913061 L 692 468.671803991306 L 693 471.2921359415136 L 693 471.29213594151344 L 694 473.9249160245011 L 694 473.924916024501 L 695 476.5701442402687 L 695 476.5701442402687 L 696 479.2278205888164 L 696 479.22782058881637 L 697 481.8979450701442 L 697 481.89794507014415 L 698 484.5805176842521 L 698 484.580517684252 L 699 487.27553843114003 L 699 487.27553843114 L 700 489.9830073108081 L 700 489.983007310808 L 701 492.7029243232562 L 701 492.7029243232561 L 702 495.43528946848437 L 702 495.43528946848437 L 703 498.18010274649276 L 703 498.1801027464927 L 704 500.93736415728114 L 704 500.9373641572811 L 705 503.7070737008496 L 705 503.70707370084955 L 706 506.48923137719817 L 706 506.4892313771981 L 707 509.2838371863268 L 707 509.28383718632665 L 708 512.0908911282355 L 708 512.0908911282354 L 709 514.9103932029243 L 709 514.9103932029242 L 710 517.7423434103932 L 710 517.7423434103931 L 711 520.5867417506422 L 711 520.586741750642 L 712 523.4435882236712 L 712 523.4435882236711 L 713 526.3128828294805 L 713 526.3128828294803 L 714 529.1946255680696 L 714 529.1946255680695 L 715 532.0888164394388 L 715 532.0888164394387 L 716 534.9954554435883 L 716 534.9954554435882 L 717 537.9145425805177 L 717 537.9145425805176 L 718 540.8460778502273 L 718 540.8460778502272 L 719 543.7900612527168 L 719 543.7900612527167 L 720 546.7464927879865 L 720 546.7464927879864 L 721 549.7153724560363 L 721 549.7153724560361 L 722 552.6967002568662 L 722 552.696700256866 L 723 555.6904761904763 L 723 555.690476190476 L 724 558.6967002568663 L 724 558.6967002568662 L 725 561.7153724560364 L 725 561.7153724560362 L 726 564.7464927879865 L 726 564.7464927879864 L 727 567.7900612527169 L 727 567.7900612527167 L 728 570.8460778502272 L 728 570.8460778502271 L 729 573.9145425805176 L 729 573.9145425805175 L 730 576.9954554435882 L 730 576.9954554435881 L 731 580.0888164394388 L 731 580.0888164394387 L 732 583.1946255680696 L 732 583.1946255680693 L 733 586.3128828294804 L 733 586.3128828294803 L 734 589.4435882236712 L 734 589.4435882236711 L 735 592.5867417506422 L 735 592.586741750642 L 736 595.7423434103932 L 736 595.742343410393 L 737 598.9103932029243 L 737 598.9103932029242 L 738 602.0908911282355 L 738 602.0908911282354 L 739 605.2838371863268 L 739 605.2838371863267 L 740 608.4892313771982 L 740 608.489231377198 L 741 611.7070737008496 L 741 611.7070737008494 L 742 614.9373641572811 L 742 614.937364157281 L 743 618.1801027464927 L 743 618.1801027464926 L 744 621.4352894684845 L 744 621.4352894684844 L 745 624.7029243232563 L 745 624.7029243232562 L 746 627.9830073108081 L 746 627.9830073108079 L 747 631.2755384311401 L 747 631.2755384311399 L 748 634.5805176842521 L 748 634.580517684252 L 749 637.8979450701443 L 749 637.897945070144 L 750 641.2278205888164 L 750 641.2278205888163 L 751 644.5701442402686 L 751 644.5701442402685 L 752 647.924916024501 L 752 647.9249160245009 L 753 651.2921359415134 L 753 651.2921359415133 L 754 654.6718039913061 L 754 654.671803991306 L 755 658.0639201738787 L 755 658.0639201738785 L 756 661.4684844892314 L 756 661.4684844892313 L 757 664.8854969373641 L 757 664.885496937364 L 758 668.314957518277 L 758 668.3149575182769 L 759 671.75686623197 L 759 671.7568662319698 L 760 675.2112230784429 L 760 675.2112230784428 L 761 678.678028057696 L 761 678.6780280576959 L 762 682.1572811697293 L 762 682.157281169729 L 763 685.6489824145425 L 763 685.6489824145424 L 764 689.1531317921359 L 764 689.1531317921358 L 765 692.6697293025094 L 765 692.6697293025093 L 766 696.198774945663 L 766 696.1987749456628 L 767 699.7402687215966 L 767 699.7402687215963 L 768 703.2942106303101 L 768 703.2942106303101 L 769 706.8606006718039 L 769 706.8606006718039 L 770 710.4394388460778 L 770 710.4394388460777 L 771 714.0307251531317 L 771 714.0307251531316 L 772 717.6344595929658 L 772 717.6344595929655 L 773 721.2506421655798 L 773 721.2506421655796 L 774 724.8792728709741 L 774 724.8792728709741 L 775 728.5203517091484 L 775 728.5203517091483 L 776 732.1738786801027 L 776 732.1738786801027 L 777 735.8398537838372 L 777 735.8398537838369 L 778 739.5182770203517 L 778 739.5182770203515 L 779 743.2091483896463 L 779 743.2091483896461 L 780 746.9124678917209 L 780 746.9124678917208 L 781 750.6282355265757 L 781 750.6282355265755 L 782 754.3564512942105 L 782 754.3564512942104 L 783 758.0971151946253 L 783 758.0971151946253 L 784 761.8502272278204 L 784 761.8502272278204 L 785 765.6157873937957 L 785 765.6157873937956 L 786 769.393795692551 L 786 769.3937956925506 L 787 773.1842521240861 L 787 773.184252124086 L 788 776.9871566884016 L 788 776.9871566884012 L 789 780.8025093854969 L 789 780.8025093854967 L 790 784.6303102153723 L 790 784.6303102153722 L 791 788.4705591780281 L 791 788.4705591780278 L 792 792.3232562734636 L 792 792.3232562734636 L 793 796.1884015016793 L 793 796.1884015016793 L 794 800.0659948626753 L 794 800.0659948626751 L 795 803.9560363564512 L 795 803.9560363564511 L 796 807.8585259830073 L 796 807.8585259830072 L 797 811.7734637423433 L 797 811.7734637423433 L 798 815.7008496344597 L 798 815.7008496344594 L 799 819.6406836593558 L 799 819.6406836593557 L 800 823.5929658170322 L 800 823.592965817032 L 801 827.5576961074885 L 801 827.5576961074885 L 802 831.534874530725 L 802 831.5348745307249 L 803 835.5245010867416 L 803 835.5245010867415 L 804 839.5265757755385 L 804 839.5265757755383 L 805 843.5410985971153 L 805 843.541098597115 L 806 847.5680695514721 L 806 847.5680695514718 L 807 851.6074886386091 L 807 851.6074886386087 L 808 855.659355858526 L 808 855.6593558585257 L 809 859.7236712112231 L 809 859.7236712112227 L 810 863.8004346967002 L 810 863.8004346967 L 811 867.8896463149575 L 811 867.8896463149573 L 812 871.9913060659948 L 812 871.9913060659945 L 813 876.1054139498123 L 813 876.105413949812 L 814 880.2319699664097 L 814 880.2319699664095 L 815 884.3709741157872 L 815 884.370974115787 L 816 888.5224263979451 L 816 888.5224263979447 L 817 892.6863268128827 L 817 892.6863268128825 L 818 896.8626753606006 L 818 896.8626753606003 L 819 901.0514720410985 L 819 901.0514720410982 L 820 905.2527168543768 L 820 905.2527168543766 L 821 909.4664098004348 L 821 909.4664098004345 L 822 913.692550879273 L 822 913.6925508792726 L 823 917.9311400908913 L 823 917.931140090891 L 824 922.1821774352895 L 824 922.1821774352892 L 825 926.4456629124679 L 825 926.4456629124677 L 826 930.7215965224264 L 826 930.7215965224261 L 827 935.009978265165 L 827 935.0099782651648 L 828 939.3108081406837 L 828 939.3108081406834 L 829 943.6240861489824 L 829 943.6240861489821 L 830 947.9498122900612 L 830 947.9498122900609 L 831 952.2879865639201 L 831 952.2879865639198 L 832 956.6386089705591 L 832 956.6386089705588 L 833 961.0016795099782 L 833 961.0016795099779 L 834 965.3771981821774 L 834 965.377198182177 L 835 969.7651649871566 L 835 969.7651649871564 L 836 974.1655799249158 L 836 974.1655799249156 L 837 978.5784429954554 L 837 978.578442995455 L 838 983.0037541987748 L 838 983.0037541987745 L 839 987.4415135348744 L 839 987.4415135348742 L 840 991.891721003754 L 840 991.8917210037538 L 841 996.354376605414 L 841 996.3543766054137 L 842 1000.829480339854 L 842 1000.8294803398537 L 843 1005.3170322070738 L 843 1005.3170322070736 L 844 1009.8170322070738 L 844 1009.8170322070736 L 845 1014.329480339854 L 845 1014.3294803398536 L 846 1018.8543766054139 L 846 1018.8543766054137 L 847 1023.3917210037542 L 847 1023.3917210037539 L 848 1027.9415135348747 L 848 1027.9415135348743 L 849 1032.503754198775 L 849 1032.5037541987747 L 850 1037.0784429954556 L 850 1037.0784429954551 L 851 1041.665579924916 L 851 1041.6655799249156 L 852 1046.2651649871568 L 852 1046.2651649871564 L 853 1050.8771981821774 L 853 1050.8771981821772 L 854 1055.5016795099782 L 854 1055.501679509978 L 855 1060.138608970559 L 855 1060.1386089705588 L 856 1064.7879865639202 L 856 1064.7879865639197 L 857 1069.4498122900611 L 857 1069.449812290061 L 858 1074.1240861489823 L 858 1074.124086148982 L 859 1078.8108081406835 L 859 1078.8108081406833 L 860 1083.5099782651648 L 860 1083.5099782651646 L 861 1088.2215965224266 L 861 1088.2215965224264 L 862 1092.9456629124682 L 862 1092.9456629124677 L 863 1097.6821774352898 L 863 1097.6821774352893 L 864 1102.4311400908912 L 864 1102.431140090891 L 865 1107.192550879273 L 865 1107.1925508792729 L 866 1111.9664098004348 L 866 1111.9664098004346 L 867 1116.7527168543768 L 867 1116.7527168543763 L 868 1121.5514720410986 L 868 1121.5514720410984 L 869 1126.3626753606006 L 869 1126.3626753606004 L 870 1131.186326812883 L 870 1131.1863268128825 L 871 1136.022426397945 L 871 1136.0224263979449 L 872 1140.8709741157875 L 872 1140.8709741157872 L 873 1145.73196996641 L 873 1145.7319699664097 L 874 1150.6054139498121 L 874 1150.605413949812 L 875 1155.4913060659949 L 875 1155.4913060659946 L 876 1160.3896463149574 L 876 1160.3896463149572 L 877 1165.3004346967002 L 877 1165.3004346967 L 878 1170.223671211223 L 878 1170.2236712112228 L 879 1175.159355858526 L 879 1175.1593558585255 L 880 1180.1074886386089 L 880 1180.1074886386086 L 880.9999999999999 1185.0680695514718 L 880.9999999999999 1185.0680695514716 L 882 1190.0410985971155 L 882 1190.041098597115 L 883 1195.0265757755387 L 883 1195.0265757755383 L 884 1200.024501086742 L 884 1200.0245010867418 L 885 1205.0348745307253 L 885 1205.034874530725 L 886 1210.0576961074887 L 886 1210.0576961074885 L 887 1215.0929658170323 L 887 1215.092965817032 L 888 1220.140683659356 L 888 1220.1406836593555 L 889 1225.2008496344597 L 889 1225.2008496344595 L 890 1230.2734637423434 L 890 1230.2734637423432 L 891 1235.3585259830072 L 891 1235.358525983007 L 892 1240.4560363564515 L 892 1240.456036356451 L 893 1245.5659948626753 L 893 1245.565994862675 L 894 1250.6884015016794 L 894 1250.6884015016792 L 895 1255.8232562734638 L 895 1255.8232562734634 L 896 1260.970559178028 L 896 1260.9705591780278 L 897 1266.1303102153724 L 897 1266.1303102153722 L 898 1271.3025093854967 L 898 1271.3025093854965 L 899 1276.4871566884015 L 899 1276.4871566884012 L 900 1281.684252124086 L 900 1281.6842521240856 L 900.9999999999999 1286.8937956925508 L 900.9999999999999 1286.8937956925504 L 902 1292.115787393796 L 902 1292.1157873937957 L 903 1297.3502272278208 L 903 1297.3502272278204 L 904 1302.5971151946258 L 904 1302.5971151946255 L 905 1307.8564512942107 L 905 1307.8564512942105 L 906 1313.128235526576 L 906 1313.1282355265757 L 907 1318.412467891721 L 907 1318.4124678917208 L 908 1323.7091483896463 L 908 1323.7091483896463 L 909 1329.018277020352 L 909 1329.0182770203514 L 910 1334.3398537838373 L 910 1334.339853783837 L 911 1339.6738786801027 L 911 1339.6738786801025 L 912 1345.0203517091484 L 912 1345.0203517091481 L 913 1350.3792728709743 L 913 1350.3792728709739 L 914 1355.7506421655798 L 914 1355.7506421655796 L 915 1361.1344595929656 L 915 1361.1344595929654 L 916 1366.5307251531317 L 916 1366.5307251531315 L 917 1371.9394388460778 L 917 1371.9394388460776 L 918 1377.360600671804 L 918 1377.3606006718035 L 919 1382.7942106303099 L 919 1382.7942106303099 L 920 1388.2402687215963 L 920 1388.240268721596 L 920.9999999999999 1393.6987749456628 L 920.9999999999999 1393.6987749456625 L 921.9999999999999 1399.169729302509 L 921.9999999999999 1399.169729302509 L 923 1404.6531317921358 L 923 1404.6531317921358 L 924 1410.1489824145426 L 924 1410.1489824145424 L 925 1415.6572811697295 L 925 1415.6572811697292 L 926 1421.178028057696 L 926 1421.1780280576959 L 927 1426.711223078443 L 927 1426.7112230784428 L 928 1432.25686623197 L 928 1432.2568662319698 L 929 1437.8149575182772 L 929 1437.8149575182765 L 930 1443.3854969373642 L 930 1443.385496937364 L 931 1448.9684844892313 L 931 1448.9684844892313 L 932 1454.5639201738788 L 932 1454.5639201738784 L 933 1460.171803991306 L 933 1460.1718039913058 L 934 1465.7921359415136 L 934 1465.7921359415132 L 935 1471.4249160245013 L 935 1471.4249160245006 L 936 1477.0701442402685 L 936 1477.0701442402683 L 937 1482.7278205888165 L 937 1482.7278205888158 L 938 1488.3979450701443 L 938 1488.3979450701438 L 939 1494.080517684252 L 939 1494.0805176842516 L 940 1499.7755384311401 L 940 1499.7755384311395 L 940.9999999999999 1505.483007310808 L 940.9999999999999 1505.4830073108076 L 941.9999999999999 1511.2029243232564 L 941.9999999999999 1511.2029243232557 L 943 1516.9352894684848 L 943 1516.9352894684841 L 944 1522.6801027464933 L 944 1522.6801027464926 L 945 1528.4373641572815 L 945 1528.437364157281 L 946 1534.2070737008498 L 946 1534.2070737008494 L 947 1539.9892313771984 L 947 1539.989231377198 L 948 1545.783837186327 L 948 1545.7838371863263 L 949 1551.5908911282356 L 949 1551.590891128235 L 950 1557.4103932029245 L 950 1557.410393202924 L 951 1563.2423434103932 L 951 1563.2423434103926 L 952 1569.0867417506424 L 952 1569.0867417506417 L 953 1574.9435882236712 L 953 1574.9435882236705 L 954 1580.8128828294805 L 954 1580.81288282948 L 955 1586.6946255680696 L 955 1586.6946255680691 L 956 1592.588816439439 L 956 1592.5888164394382 L 957 1598.4954554435883 L 957 1598.4954554435878 L 958 1604.4145425805177 L 958 1604.4145425805173 L 959 1610.3460778502272 L 959 1610.3460778502265 L 959.9999999999999 1616.2900612527167 L 959.9999999999999 1616.2900612527162 L 960.9999999999999 1622.2464927879867 L 960.9999999999999 1622.246492787986 L 961.9999999999999 1628.2153724560362 L 961.9999999999999 1628.2153724560355 L 962.9999999999999 1634.1967002568663 L 962.9999999999999 1634.1967002568656 L 964 1640.1904761904766 L 964 1640.190476190476 L 965 1646.1967002568665"
                stroke-opacity="0.8" stroke-linecap="round" stroke-linejoin="round" stroke-miterlimit="10"
                stroke-width="3.5" />
            <path fill="none" stroke="rgb(0,0,0)" paint-order="fill stroke markers"
                d=" M -5 194.19047619047618 L 969 194.19047619047618" stroke-opacity="0.4" stroke-linejoin="round"
                stroke-miterlimit="10" stroke-width="2" stroke-dasharray="6,4" />
            <path fill="rgb(97,97,97)" stroke="none" paint-order="stroke fill markers"
                d=" M 487 194.19047619047618 C 487 196.95189993963015 484.76142374915395 199.19047619047618 482 199.19047619047618 C 479.23857625084605 199.19047619047618 477 196.95189993963015 477 194.19047619047618 C 477 191.4290524413222 479.23857625084605 189.19047619047618 482 189.19047619047618 C 484.76142374915395 189.19047619047618 487 191.4290524413222 487 194.19047619047618 Z"
                fill-opacity="1" />
            <path fill="none" stroke="rgb(0,0,0)" paint-order="fill stroke markers"
                d=" M 487 194.19047619047618 C 487 196.95189993963015 484.76142374915395 199.19047619047618 482 199.19047619047618 C 479.23857625084605 199.19047619047618 477 196.95189993963015 477 194.19047619047618 C 477 191.4290524413222 479.23857625084605 189.19047619047618 482 189.19047619047618 C 484.76142374915395 189.19047619047618 487 191.4290524413222 487 194.19047619047618 Z"
                stroke-opacity="1" stroke-linecap="round" stroke-linejoin="round" stroke-miterlimit="10" />
            <g transform="scale(25,25)">
                <g transform="translate(19.52,7.431)">
                    <path fill="rgb(0,0,0)" stroke="none" paint-order="stroke fill markers"
                        d=" M 0.373 -0.378 Q 0.378 -0.41200000000000003 0.404 -0.42 Q 0.40900000000000003 -0.422 0.41500000000000004 -0.422 Q 0.441 -0.422 0.444 -0.395 Q 0.444 -0.389 0.437 -0.361 L 0.401 -0.221 Q 0.386 -0.158 0.379 -0.131 Q 0.366 -0.079 0.366 -0.057 Q 0.366 -0.011 0.396 -0.011 Q 0.434 -0.011 0.46 -0.091 Q 0.465 -0.108 0.47200000000000003 -0.135 Q 0.48 -0.152 0.486 -0.153 Q 0.498 -0.153 0.498 -0.14300000000000002 Q 0.498 -0.128 0.48 -0.073 Q 0.47400000000000003 -0.056 0.468 -0.044 Q 0.44 0.011 0.394 0.011 Q 0.338 0.011 0.313 -0.037 Q 0.306 -0.049 0.303 -0.064 Q 0.24 0.011 0.17300000000000001 0.011 Q 0.098 0.011 0.062 -0.057 Q 0.04 -0.097 0.04 -0.149 Q 0.04 -0.257 0.115 -0.34900000000000003 Q 0.185 -0.433 0.267 -0.441 Q 0.274 -0.442 0.281 -0.442 Q 0.342 -0.442 0.373 -0.378 M 0.308 -0.11900000000000001 L 0.308 -0.11900000000000001 L 0.358 -0.315 Q 0.361 -0.33 0.361 -0.332 Q 0.361 -0.353 0.343 -0.383 Q 0.321 -0.42 0.28200000000000003 -0.42 Q 0.23 -0.42 0.183 -0.352 Q 0.17400000000000002 -0.339 0.166 -0.324 Q 0.137 -0.266 0.117 -0.159 Q 0.111 -0.125 0.111 -0.105 Q 0.111 -0.037 0.149 -0.017 Q 0.16 -0.011 0.17500000000000002 -0.011 Q 0.231 -0.011 0.28800000000000003 -0.082 Q 0.302 -0.098 0.307 -0.115 L 0.307 -0.116 Q 0.308 -0.11800000000000001 0.308 -0.11900000000000001 Z" />
                </g>
            </g>
            <g transform="scale(25,25)">
                <g transform="translate(18.56,-4.026)">
                    <path fill="rgb(0,0,0)" stroke="none" paint-order="stroke fill markers"
                        d=" M 0.23900000000000002 -0.683 L 0.165 -0.382 Q 0.223 -0.442 0.28200000000000003 -0.442 Q 0.357 -0.442 0.394 -0.373 Q 0.41500000000000004 -0.333 0.41500000000000004 -0.28200000000000003 Q 0.41500000000000004 -0.176 0.341 -0.084 Q 0.272 0.001 0.189 0.01 Q 0.181 0.011 0.17400000000000002 0.011 Q 0.10200000000000001 0.011 0.067 -0.056 Q 0.047 -0.094 0.047 -0.146 Q 0.047 -0.18 0.063 -0.247 L 0.145 -0.5730000000000001 Q 0.159 -0.632 0.159 -0.635 Q 0.159 -0.646 0.145 -0.649 L 0.145 -0.649 Q 0.133 -0.652 0.109 -0.652 Q 0.08700000000000001 -0.652 0.085 -0.664 Q 0.085 -0.681 0.10400000000000001 -0.684 L 0.226 -0.6940000000000001 Q 0.23900000000000002 -0.6940000000000001 0.23900000000000002 -0.683 M 0.145 -0.305 L 0.123 -0.213 Q 0.107 -0.15 0.107 -0.112 Q 0.107 -0.026000000000000002 0.159 -0.013000000000000001 Q 0.166 -0.011 0.17400000000000002 -0.011 Q 0.227 -0.011 0.273 -0.081 Q 0.28300000000000003 -0.096 0.292 -0.114 Q 0.319 -0.171 0.337 -0.268 Q 0.343 -0.303 0.343 -0.326 Q 0.343 -0.406 0.294 -0.418 L 0.293 -0.419 Q 0.28700000000000003 -0.42 0.28 -0.42 Q 0.22 -0.42 0.16 -0.34 Q 0.152 -0.33 0.145 -0.305 Z" />
                </g>
            </g>
            <g transform="scale(25,25)">
                <g transform="translate(0.6,3.863692)">
                    <path fill="rgb(0,0,0)" stroke="none" paint-order="stroke fill markers"
                        d=" M 0.367 -0.4 L 0.367 -0.4 L 0.307 -0.083 Q 0.298 -0.021 0.271 0.059000000000000004 Q 0.261 0.088 0.251 0.108 Q 0.216 0.182 0.164 0.2 Q 0.151 0.20500000000000002 0.138 0.20500000000000002 Q 0.088 0.20500000000000002 0.064 0.171 Q 0.053 0.156 0.053 0.136 Q 0.053 0.096 0.08700000000000001 0.081 Q 0.097 0.076 0.108 0.076 Q 0.137 0.076 0.14400000000000002 0.101 Q 0.145 0.106 0.145 0.111 Q 0.145 0.145 0.115 0.159 Q 0.10400000000000001 0.164 0.09 0.165 Q 0.109 0.183 0.138 0.183 Q 0.182 0.183 0.20700000000000002 0.085 Q 0.212 0.062 0.219 0.025 L 0.225 -0.005 L 0.3 -0.4 L 0.234 -0.4 Q 0.209 -0.4 0.20700000000000002 -0.40800000000000003 L 0.20600000000000002 -0.40800000000000003 L 0.20600000000000002 -0.41200000000000003 Q 0.20600000000000002 -0.429 0.223 -0.431 L 0.223 -0.431 L 0.23600000000000002 -0.431 L 0.305 -0.431 Q 0.329 -0.556 0.338 -0.588 Q 0.368 -0.6880000000000001 0.444 -0.7030000000000001 Q 0.455 -0.705 0.465 -0.705 Q 0.517 -0.705 0.541 -0.671 L 0.541 -0.671 Q 0.552 -0.656 0.552 -0.636 Q 0.552 -0.596 0.518 -0.581 Q 0.508 -0.5760000000000001 0.497 -0.5760000000000001 Q 0.468 -0.5760000000000001 0.461 -0.601 Q 0.46 -0.606 0.46 -0.611 Q 0.46 -0.642 0.488 -0.657 Q 0.499 -0.664 0.514 -0.665 Q 0.495 -0.683 0.465 -0.683 Q 0.434 -0.683 0.418 -0.649 Q 0.41100000000000003 -0.635 0.394 -0.545 L 0.373 -0.431 L 0.456 -0.431 Q 0.481 -0.431 0.483 -0.42 Q 0.483 -0.402 0.467 -0.4 L 0.466 -0.4 L 0.453 -0.4 L 0.367 -0.4 Z" />
                </g>
                <g transform="translate(1.198,3.863692)">
                    <path fill="rgb(0,0,0)" stroke="none" paint-order="stroke fill markers"
                        d=" M 0.331 0.24 L 0.331 0.24 Q 0.331 0.25 0.321 0.25 Q 0.309 0.25 0.268 0.209 Q 0.20600000000000002 0.147 0.165 0.062 Q 0.099 -0.074 0.099 -0.25 Q 0.099 -0.419 0.162 -0.555 Q 0.214 -0.666 0.294 -0.733 Q 0.315 -0.75 0.321 -0.75 Q 0.331 -0.75 0.331 -0.74 Q 0.331 -0.735 0.318 -0.723 Q 0.157 -0.559 0.157 -0.25 Q 0.157 0.058 0.314 0.218 Q 0.331 0.23500000000000001 0.331 0.24 Z" />
                </g>
                <g transform="translate(1.587,3.863692)">
                    <path fill="rgb(0,0,0)" stroke="none" paint-order="stroke fill markers"
                        d=" M 0.334 -0.302 L 0.3 -0.165 Q 0.28300000000000003 -0.097 0.28300000000000003 -0.077 Q 0.28300000000000003 -0.025 0.32 -0.014 Q 0.328 -0.011 0.338 -0.011 Q 0.388 -0.011 0.429 -0.061 Q 0.456 -0.093 0.47100000000000003 -0.14200000000000002 Q 0.47400000000000003 -0.153 0.484 -0.153 Q 0.496 -0.153 0.496 -0.14300000000000002 Q 0.496 -0.11800000000000001 0.465 -0.07100000000000001 Q 0.41100000000000003 0.011 0.336 0.011 Q 0.268 0.011 0.23700000000000002 -0.046 Q 0.231 -0.055 0.228 -0.065 Q 0.20400000000000001 -0.017 0.162 0.002 Q 0.14300000000000002 0.011 0.123 0.011 Q 0.063 0.011 0.039 -0.024 Q 0.029 -0.037 0.029 -0.055 Q 0.029 -0.092 0.061 -0.107 Q 0.07200000000000001 -0.113 0.084 -0.113 Q 0.114 -0.113 0.12 -0.088 Q 0.121 -0.083 0.121 -0.078 Q 0.121 -0.044 0.08700000000000001 -0.028 Q 0.081 -0.025 0.074 -0.024 Q 0.095 -0.011 0.124 -0.011 Q 0.177 -0.011 0.20800000000000002 -0.082 Q 0.214 -0.097 0.219 -0.115 Q 0.273 -0.319 0.273 -0.353 Q 0.267 -0.41500000000000004 0.219 -0.42 Q 0.167 -0.42 0.124 -0.367 L 0.124 -0.366 Q 0.124 -0.365 0.123 -0.365 Q 0.108 -0.34500000000000003 0.096 -0.319 Q 0.091 -0.307 0.08700000000000001 -0.295 L 0.085 -0.289 Q 0.083 -0.278 0.07200000000000001 -0.278 Q 0.06 -0.278 0.06 -0.28800000000000003 Q 0.06 -0.313 0.092 -0.36 Q 0.146 -0.442 0.221 -0.442 Q 0.298 -0.442 0.329 -0.366 Q 0.361 -0.428 0.41400000000000003 -0.44 Q 0.424 -0.442 0.434 -0.442 Q 0.493 -0.442 0.517 -0.40900000000000003 Q 0.527 -0.395 0.527 -0.376 Q 0.527 -0.335 0.49 -0.321 Q 0.481 -0.318 0.47300000000000003 -0.318 Q 0.442 -0.318 0.436 -0.34500000000000003 Q 0.435 -0.34900000000000003 0.435 -0.353 Q 0.435 -0.383 0.464 -0.4 Q 0.47300000000000003 -0.405 0.483 -0.40700000000000003 Q 0.462 -0.42 0.433 -0.42 Q 0.365 -0.42 0.337 -0.314 Q 0.335 -0.308 0.334 -0.302 Z" />
                </g>
                <g transform="translate(2.159,3.863692)">
                    <path fill="rgb(0,0,0)" stroke="none" paint-order="stroke fill markers"
                        d=" M 0.289 -0.25 L 0.289 -0.25 Q 0.289 -0.081 0.226 0.055 Q 0.17400000000000002 0.166 0.094 0.233 Q 0.073 0.25 0.067 0.25 Q 0.057 0.25 0.057 0.24 Q 0.057 0.23500000000000001 0.07 0.223 Q 0.231 0.059000000000000004 0.231 -0.25 Q 0.231 -0.555 0.081 -0.712 L 0.076 -0.717 Q 0.057 -0.735 0.057 -0.74 Q 0.057 -0.75 0.067 -0.75 Q 0.079 -0.75 0.12 -0.709 Q 0.182 -0.647 0.223 -0.562 Q 0.289 -0.426 0.289 -0.25 Z" />
                </g>
                <g transform="translate(2.8257777777777777,3.863692)">
                    <path fill="rgb(0,0,0)" stroke="none" paint-order="stroke fill markers"
                        d=" M 0.687 -0.327 L 0.09 -0.327 Q 0.058 -0.327 0.056 -0.34700000000000003 Q 0.056 -0.367 0.089 -0.367 L 0.6880000000000001 -0.367 Q 0.72 -0.367 0.721 -0.34700000000000003 Q 0.721 -0.327 0.687 -0.327 M 0.6880000000000001 -0.133 L 0.089 -0.133 Q 0.057 -0.133 0.056 -0.153 Q 0.056 -0.17300000000000001 0.09 -0.17300000000000001 L 0.687 -0.17300000000000001 Q 0.719 -0.17300000000000001 0.721 -0.153 Q 0.721 -0.133 0.6880000000000001 -0.133 Z" />
                </g>
                <g transform="translate(3.8815555555555554,3.863692)">
                    <path fill="rgb(0,0,0)" stroke="none" paint-order="stroke fill markers"
                        d=" M 0.661 -0.23 L 0.116 -0.23 Q 0.084 -0.23 0.083 -0.25 Q 0.083 -0.27 0.116 -0.27 L 0.661 -0.27 Q 0.6930000000000001 -0.27 0.6940000000000001 -0.25 Q 0.6940000000000001 -0.23 0.661 -0.23 Z" />
                </g>
                <g transform="translate(4.6595555555555555,3.863692)">
                    <path fill="rgb(0,0,0)" stroke="none" paint-order="stroke fill markers"
                        d=" M 0.334 -0.302 L 0.3 -0.165 Q 0.28300000000000003 -0.097 0.28300000000000003 -0.077 Q 0.28300000000000003 -0.025 0.32 -0.014 Q 0.328 -0.011 0.338 -0.011 Q 0.388 -0.011 0.429 -0.061 Q 0.456 -0.093 0.47100000000000003 -0.14200000000000002 Q 0.47400000000000003 -0.153 0.484 -0.153 Q 0.496 -0.153 0.496 -0.14300000000000002 Q 0.496 -0.11800000000000001 0.465 -0.07100000000000001 Q 0.41100000000000003 0.011 0.336 0.011 Q 0.268 0.011 0.23700000000000002 -0.046 Q 0.231 -0.055 0.228 -0.065 Q 0.20400000000000001 -0.017 0.162 0.002 Q 0.14300000000000002 0.011 0.123 0.011 Q 0.063 0.011 0.039 -0.024 Q 0.029 -0.037 0.029 -0.055 Q 0.029 -0.092 0.061 -0.107 Q 0.07200000000000001 -0.113 0.084 -0.113 Q 0.114 -0.113 0.12 -0.088 Q 0.121 -0.083 0.121 -0.078 Q 0.121 -0.044 0.08700000000000001 -0.028 Q 0.081 -0.025 0.074 -0.024 Q 0.095 -0.011 0.124 -0.011 Q 0.177 -0.011 0.20800000000000002 -0.082 Q 0.214 -0.097 0.219 -0.115 Q 0.273 -0.319 0.273 -0.353 Q 0.267 -0.41500000000000004 0.219 -0.42 Q 0.167 -0.42 0.124 -0.367 L 0.124 -0.366 Q 0.124 -0.365 0.123 -0.365 Q 0.108 -0.34500000000000003 0.096 -0.319 Q 0.091 -0.307 0.08700000000000001 -0.295 L 0.085 -0.289 Q 0.083 -0.278 0.07200000000000001 -0.278 Q 0.06 -0.278 0.06 -0.28800000000000003 Q 0.06 -0.313 0.092 -0.36 Q 0.146 -0.442 0.221 -0.442 Q 0.298 -0.442 0.329 -0.366 Q 0.361 -0.428 0.41400000000000003 -0.44 Q 0.424 -0.442 0.434 -0.442 Q 0.493 -0.442 0.517 -0.40900000000000003 Q 0.527 -0.395 0.527 -0.376 Q 0.527 -0.335 0.49 -0.321 Q 0.481 -0.318 0.47300000000000003 -0.318 Q 0.442 -0.318 0.436 -0.34500000000000003 Q 0.435 -0.34900000000000003 0.435 -0.353 Q 0.435 -0.383 0.464 -0.4 Q 0.47300000000000003 -0.405 0.483 -0.40700000000000003 Q 0.462 -0.42 0.433 -0.42 Q 0.365 -0.42 0.337 -0.314 Q 0.335 -0.308 0.334 -0.302 Z" />
                </g>
                <g transform="translate(5.2315555555555555,3.4508) scale(0.7,0.7)">
                    <path fill="rgb(0,0,0)" stroke="none" paint-order="stroke fill markers"
                        d=" M 0.449 -0.17400000000000002 L 0.449 -0.17400000000000002 L 0.421 0 L 0.05 0 Q 0.05 -0.025 0.056 -0.032 L 0.061 -0.037 L 0.253 -0.251 Q 0.358 -0.369 0.358 -0.47200000000000003 Q 0.358 -0.561 0.304 -0.607 L 0.303 -0.608 L 0.302 -0.608 Q 0.27 -0.635 0.224 -0.635 Q 0.152 -0.635 0.109 -0.5730000000000001 Q 0.097 -0.555 0.089 -0.533 Q 0.092 -0.534 0.10200000000000001 -0.534 Q 0.14200000000000002 -0.534 0.153 -0.498 L 0.153 -0.497 Q 0.155 -0.49 0.155 -0.482 Q 0.155 -0.442 0.117 -0.431 Q 0.109 -0.429 0.10300000000000001 -0.429 Q 0.066 -0.429 0.054 -0.46 Q 0.05 -0.47100000000000003 0.05 -0.485 Q 0.05 -0.562 0.109 -0.617 Q 0.162 -0.666 0.23700000000000002 -0.666 Q 0.34700000000000003 -0.666 0.40800000000000003 -0.592 Q 0.443 -0.549 0.448 -0.49 Q 0.449 -0.481 0.449 -0.47200000000000003 Q 0.449 -0.399 0.394 -0.333 Q 0.365 -0.299 0.304 -0.243 L 0.243 -0.189 L 0.233 -0.18 L 0.127 -0.077 L 0.307 -0.077 Q 0.395 -0.077 0.402 -0.085 Q 0.41200000000000003 -0.099 0.424 -0.17400000000000002 L 0.449 -0.17400000000000002 Z" />
                </g>
                <g transform="translate(5.823703057975778,3.863692)">
                    <path fill="rgb(0,0,0)" stroke="none" paint-order="stroke fill markers"
                        d=" M 0.661 -0.23 L 0.116 -0.23 Q 0.084 -0.23 0.083 -0.25 Q 0.083 -0.27 0.116 -0.27 L 0.661 -0.27 Q 0.6930000000000001 -0.27 0.6940000000000001 -0.25 Q 0.6940000000000001 -0.23 0.661 -0.23 Z" />
                </g>
                <g transform="translate(6.823925280198,3.863692)">
                    <path fill="rgb(0,0,0)" stroke="none" paint-order="stroke fill markers"
                        d=" M 0.294 -0.64 L 0.294 -0.079 Q 0.294 -0.049 0.306 -0.041 Q 0.323 -0.031 0.387 -0.031 L 0.419 -0.031 L 0.419 0 Q 0.384 -0.003 0.257 -0.003 Q 0.13 -0.003 0.095 0 L 0.095 -0.031 L 0.127 -0.031 Q 0.20400000000000001 -0.031 0.215 -0.049 L 0.216 -0.05 Q 0.22 -0.058 0.22 -0.079 L 0.22 -0.597 Q 0.168 -0.5710000000000001 0.089 -0.5710000000000001 L 0.089 -0.602 Q 0.209 -0.602 0.271 -0.666 Q 0.29 -0.666 0.293 -0.659 L 0.293 -0.659 L 0.293 -0.658 Q 0.294 -0.655 0.294 -0.64 Z" />
                </g>
            </g>
        </g>
    </g>
</svg>