<svg version="1.1" xmlns="http://www.w3.org/2000/svg" xmlns:xlink="http://www.w3.org/1999/xlink" width="964"
    height="704">
    <defs>
        <clipPath id="boBfDOpCTlnO">
            <path fill="none" stroke="none" d=" M 0 0 L 964 0 L 964 704 L 0 704 L 0 0 Z" />
        </clipPath>
    </defs>
    <g transform="scale(1,1)" clip-path="url(#boBfDOpCTlnO)">
        <g>
            <rect fill="rgb(255,255,255)" stroke="none" x="0" y="0" width="964" height="704" fill-opacity="1" />
            <path fill="none" stroke="rgb(37,37,37)" paint-order="fill stroke markers" d=" M 482.5 2.5 L 482.5 704.5"
                stroke-opacity="1" stroke-miterlimit="10" />
            <path fill="none" stroke="rgb(37,37,37)" paint-order="fill stroke markers" d=" M 482.5 1.5 L 478.5 5.5"
                stroke-opacity="1" stroke-miterlimit="10" />
            <path fill="none" stroke="rgb(37,37,37)" paint-order="fill stroke markers" d=" M 482.5 1.5 L 486.5 5.5"
                stroke-opacity="1" stroke-miterlimit="10" />
            <path fill="none" stroke="rgb(37,37,37)" paint-order="fill stroke markers" d=" M 0.5 672.5 L 962.5 672.5"
                stroke-opacity="1" stroke-miterlimit="10" />
            <path fill="none" stroke="rgb(37,37,37)" paint-order="fill stroke markers" d=" M 963.5 672.5 L 959.5 668.5"
                stroke-opacity="1" stroke-miterlimit="10" />
            <path fill="none" stroke="rgb(37,37,37)" paint-order="fill stroke markers" d=" M 963.5 672.5 L 959.5 676.5"
                stroke-opacity="1" stroke-miterlimit="10" />
            <path fill="none" stroke="rgb(37,37,37)" paint-order="fill stroke markers" d=" M 0.5 672.5 L 0.5 675.5"
                stroke-opacity="1" stroke-miterlimit="10" /><text fill="rgb(37,37,37)" stroke="none"
                font-family="geogebra-sans-serif, sans-serif" font-size="12px" font-style="normal" font-weight="normal"
                text-decoration="normal" x="155" y="688" text-anchor="start" dominant-baseline="alphabetic"
                fill-opacity="1">–2</text><text fill="none" stroke="rgb(255,255,255)"
                font-family="geogebra-sans-serif, sans-serif" font-size="12px" font-style="normal" font-weight="normal"
                text-decoration="normal" x="155" y="688" text-anchor="start" dominant-baseline="alphabetic"
                stroke-opacity="1" stroke-linejoin="bevel" stroke-miterlimit="10" stroke-width="3">–2</text><text
                fill="rgb(37,37,37)" stroke="none" font-family="geogebra-sans-serif, sans-serif" font-size="12px"
                font-style="normal" font-weight="normal" text-decoration="normal" x="155" y="688" text-anchor="start"
                dominant-baseline="alphabetic" fill-opacity="1">–2</text>
            <path fill="none" stroke="rgb(37,37,37)" paint-order="fill stroke markers" d=" M 160.5 672.5 L 160.5 675.5"
                stroke-opacity="1" stroke-miterlimit="10" /><text fill="rgb(37,37,37)" stroke="none"
                font-family="geogebra-sans-serif, sans-serif" font-size="12px" font-style="normal" font-weight="normal"
                text-decoration="normal" x="316" y="688" text-anchor="start" dominant-baseline="alphabetic"
                fill-opacity="1">–1</text><text fill="none" stroke="rgb(255,255,255)"
                font-family="geogebra-sans-serif, sans-serif" font-size="12px" font-style="normal" font-weight="normal"
                text-decoration="normal" x="316" y="688" text-anchor="start" dominant-baseline="alphabetic"
                stroke-opacity="1" stroke-linejoin="bevel" stroke-miterlimit="10" stroke-width="3">–1</text><text
                fill="rgb(37,37,37)" stroke="none" font-family="geogebra-sans-serif, sans-serif" font-size="12px"
                font-style="normal" font-weight="normal" text-decoration="normal" x="316" y="688" text-anchor="start"
                dominant-baseline="alphabetic" fill-opacity="1">–1</text>
            <path fill="none" stroke="rgb(37,37,37)" paint-order="fill stroke markers" d=" M 321.5 672.5 L 321.5 675.5"
                stroke-opacity="1" stroke-miterlimit="10" /><text fill="rgb(37,37,37)" stroke="none"
                font-family="geogebra-sans-serif, sans-serif" font-size="12px" font-style="normal" font-weight="normal"
                text-decoration="normal" x="640" y="688" text-anchor="start" dominant-baseline="alphabetic"
                fill-opacity="1">1</text><text fill="none" stroke="rgb(255,255,255)"
                font-family="geogebra-sans-serif, sans-serif" font-size="12px" font-style="normal" font-weight="normal"
                text-decoration="normal" x="640" y="688" text-anchor="start" dominant-baseline="alphabetic"
                stroke-opacity="1" stroke-linejoin="bevel" stroke-miterlimit="10" stroke-width="3">1</text><text
                fill="rgb(37,37,37)" stroke="none" font-family="geogebra-sans-serif, sans-serif" font-size="12px"
                font-style="normal" font-weight="normal" text-decoration="normal" x="640" y="688" text-anchor="start"
                dominant-baseline="alphabetic" fill-opacity="1">1</text>
            <path fill="none" stroke="rgb(37,37,37)" paint-order="fill stroke markers" d=" M 642.5 672.5 L 642.5 675.5"
                stroke-opacity="1" stroke-miterlimit="10" /><text fill="rgb(37,37,37)" stroke="none"
                font-family="geogebra-sans-serif, sans-serif" font-size="12px" font-style="normal" font-weight="normal"
                text-decoration="normal" x="801" y="688" text-anchor="start" dominant-baseline="alphabetic"
                fill-opacity="1">2</text><text fill="none" stroke="rgb(255,255,255)"
                font-family="geogebra-sans-serif, sans-serif" font-size="12px" font-style="normal" font-weight="normal"
                text-decoration="normal" x="801" y="688" text-anchor="start" dominant-baseline="alphabetic"
                stroke-opacity="1" stroke-linejoin="bevel" stroke-miterlimit="10" stroke-width="3">2</text><text
                fill="rgb(37,37,37)" stroke="none" font-family="geogebra-sans-serif, sans-serif" font-size="12px"
                font-style="normal" font-weight="normal" text-decoration="normal" x="801" y="688" text-anchor="start"
                dominant-baseline="alphabetic" fill-opacity="1">2</text>
            <path fill="none" stroke="rgb(37,37,37)" paint-order="fill stroke markers" d=" M 803.5 672.5 L 803.5 675.5"
                stroke-opacity="1" stroke-miterlimit="10" />
            <path fill="none" stroke="rgb(37,37,37)" paint-order="fill stroke markers" d=" M 479.5 511.5 L 482.5 511.5"
                stroke-opacity="1" stroke-miterlimit="10" />
            <path fill="none" stroke="rgb(37,37,37)" paint-order="fill stroke markers" d=" M 479.5 351.5 L 482.5 351.5"
                stroke-opacity="1" stroke-miterlimit="10" />
            <path fill="none" stroke="rgb(37,37,37)" paint-order="fill stroke markers" d=" M 479.5 190.5 L 482.5 190.5"
                stroke-opacity="1" stroke-miterlimit="10" />
            <path fill="none" stroke="rgb(37,37,37)" paint-order="fill stroke markers" d=" M 479.5 29.5 L 482.5 29.5"
                stroke-opacity="1" stroke-miterlimit="10" /><text fill="rgb(37,37,37)" stroke="none"
                font-family="geogebra-sans-serif, sans-serif" font-size="12px" font-style="normal" font-weight="normal"
                text-decoration="normal" x="468" y="516" text-anchor="start" dominant-baseline="alphabetic"
                fill-opacity="1">1</text><text fill="none" stroke="rgb(255,255,255)"
                font-family="geogebra-sans-serif, sans-serif" font-size="12px" font-style="normal" font-weight="normal"
                text-decoration="normal" x="468" y="516" text-anchor="start" dominant-baseline="alphabetic"
                stroke-opacity="1" stroke-linejoin="bevel" stroke-miterlimit="10" stroke-width="3">1</text><text
                fill="rgb(37,37,37)" stroke="none" font-family="geogebra-sans-serif, sans-serif" font-size="12px"
                font-style="normal" font-weight="normal" text-decoration="normal" x="468" y="516" text-anchor="start"
                dominant-baseline="alphabetic" fill-opacity="1">1</text><text fill="rgb(37,37,37)" stroke="none"
                font-family="geogebra-sans-serif, sans-serif" font-size="12px" font-style="normal" font-weight="normal"
                text-decoration="normal" x="468" y="356" text-anchor="start" dominant-baseline="alphabetic"
                fill-opacity="1">2</text><text fill="none" stroke="rgb(255,255,255)"
                font-family="geogebra-sans-serif, sans-serif" font-size="12px" font-style="normal" font-weight="normal"
                text-decoration="normal" x="468" y="356" text-anchor="start" dominant-baseline="alphabetic"
                stroke-opacity="1" stroke-linejoin="bevel" stroke-miterlimit="10" stroke-width="3">2</text><text
                fill="rgb(37,37,37)" stroke="none" font-family="geogebra-sans-serif, sans-serif" font-size="12px"
                font-style="normal" font-weight="normal" text-decoration="normal" x="468" y="356" text-anchor="start"
                dominant-baseline="alphabetic" fill-opacity="1">2</text><text fill="rgb(37,37,37)" stroke="none"
                font-family="geogebra-sans-serif, sans-serif" font-size="12px" font-style="normal" font-weight="normal"
                text-decoration="normal" x="468" y="195" text-anchor="start" dominant-baseline="alphabetic"
                fill-opacity="1">3</text><text fill="none" stroke="rgb(255,255,255)"
                font-family="geogebra-sans-serif, sans-serif" font-size="12px" font-style="normal" font-weight="normal"
                text-decoration="normal" x="468" y="195" text-anchor="start" dominant-baseline="alphabetic"
                stroke-opacity="1" stroke-linejoin="bevel" stroke-miterlimit="10" stroke-width="3">3</text><text
                fill="rgb(37,37,37)" stroke="none" font-family="geogebra-sans-serif, sans-serif" font-size="12px"
                font-style="normal" font-weight="normal" text-decoration="normal" x="468" y="195" text-anchor="start"
                dominant-baseline="alphabetic" fill-opacity="1">3</text><text fill="rgb(37,37,37)" stroke="none"
                font-family="geogebra-sans-serif, sans-serif" font-size="12px" font-style="normal" font-weight="normal"
                text-decoration="normal" x="468" y="34" text-anchor="start" dominant-baseline="alphabetic"
                fill-opacity="1">4</text><text fill="none" stroke="rgb(255,255,255)"
                font-family="geogebra-sans-serif, sans-serif" font-size="12px" font-style="normal" font-weight="normal"
                text-decoration="normal" x="468" y="34" text-anchor="start" dominant-baseline="alphabetic"
                stroke-opacity="1" stroke-linejoin="bevel" stroke-miterlimit="10" stroke-width="3">4</text><text
                fill="rgb(37,37,37)" stroke="none" font-family="geogebra-sans-serif, sans-serif" font-size="12px"
                font-style="normal" font-weight="normal" text-decoration="normal" x="468" y="34" text-anchor="start"
                dominant-baseline="alphabetic" fill-opacity="1">4</text><text fill="rgb(37,37,37)" stroke="none"
                font-family="geogebra-sans-serif, sans-serif" font-size="12px" font-style="normal" font-weight="normal"
                text-decoration="normal" x="468" y="688" text-anchor="start" dominant-baseline="alphabetic"
                fill-opacity="1">0</text><text fill="none" stroke="rgb(255,255,255)"
                font-family="geogebra-sans-serif, sans-serif" font-size="12px" font-style="normal" font-weight="normal"
                text-decoration="normal" x="468" y="688" text-anchor="start" dominant-baseline="alphabetic"
                stroke-opacity="1" stroke-linejoin="bevel" stroke-miterlimit="10" stroke-width="3">0</text><text
                fill="rgb(37,37,37)" stroke="none" font-family="geogebra-sans-serif, sans-serif" font-size="12px"
                font-style="normal" font-weight="normal" text-decoration="normal" x="468" y="688" text-anchor="start"
                dominant-baseline="alphabetic" fill-opacity="1">0</text>
            <path fill="none" stroke="rgb(21,101,192)" paint-order="fill stroke markers"
                d=" M 0 -940.1347091919713 L 0 -934.1284851255807 L 0 -934.1284851255814 L 1.0000000000001137 -928.1347091919704 L 1.0000000000001137 -928.1347091919711 L 2.0000000000001137 -922.1533813911403 L 2.0000000000001137 -922.153381391141 L 3.0000000000001137 -916.1845017230908 L 3.0000000000001137 -916.1845017230914 L 4.000000000000114 -910.228070187821 L 4.000000000000114 -910.2280701878215 L 5.000000000000057 -904.2840867853313 L 5.000000000000057 -904.284086785332 L 6.000000000000057 -898.352551515622 L 6.000000000000057 -898.3525515156225 L 7.000000000000057 -892.4334643786926 L 7.000000000000057 -892.4334643786931 L 8.000000000000057 -886.526825374543 L 8.000000000000057 -886.5268253745437 L 9.000000000000057 -880.6326345031739 L 9.000000000000057 -880.6326345031744 L 10.000000000000057 -874.7508917645848 L 10.000000000000057 -874.7508917645853 L 11.000000000000057 -868.8815971587753 L 11.000000000000057 -868.881597158776 L 12.000000000000057 -863.0247506857465 L 12.000000000000057 -863.0247506857472 L 13.000000000000057 -857.1803523454973 L 13.000000000000057 -857.180352345498 L 14.000000000000057 -851.3484021380289 L 14.000000000000057 -851.3484021380293 L 15.000000000000057 -845.5289000633397 L 15.000000000000057 -845.5289000633404 L 16.000000000000057 -839.7218461214311 L 16.000000000000057 -839.7218461214318 L 17.000000000000057 -833.9272403123027 L 17.000000000000057 -833.9272403123032 L 18.000000000000057 -828.1450826359542 L 18.000000000000057 -828.1450826359546 L 19.000000000000057 -822.3753730923859 L 19.000000000000057 -822.3753730923863 L 20 -816.6181116815974 L 20 -816.6181116815981 L 21 -810.8732984035889 L 21 -810.8732984035896 L 22.000000000000114 -805.1409332583605 L 22.000000000000114 -805.1409332583612 L 23.000000000000114 -799.4210162459124 L 23.000000000000114 -799.4210162459128 L 24.000000000000057 -793.7135473662443 L 24.000000000000057 -793.7135473662449 L 25.000000000000057 -788.0185266193564 L 25.000000000000057 -788.0185266193569 L 26.000000000000057 -782.3359540052486 L 26.000000000000057 -782.335954005249 L 27.000000000000057 -776.6658295239206 L 27.000000000000057 -776.6658295239213 L 28.000000000000057 -771.0081531753731 L 28.000000000000057 -771.0081531753733 L 29.000000000000057 -765.3629249596054 L 29.000000000000057 -765.3629249596061 L 30.000000000000057 -759.7301448766179 L 30.000000000000057 -759.7301448766184 L 31.000000000000057 -754.1098129264105 L 31.000000000000057 -754.1098129264108 L 32.00000000000006 -748.5019291089832 L 32.00000000000006 -748.5019291089836 L 33.00000000000006 -742.9064934243361 L 33.00000000000006 -742.9064934243361 L 34.00000000000006 -737.3235058724688 L 34.00000000000006 -737.323505872469 L 35.00000000000006 -731.7529664533813 L 35.00000000000006 -731.752966453382 L 36.00000000000006 -726.1948751670745 L 36.00000000000006 -726.1948751670748 L 37.00000000000006 -720.6492320135476 L 37.00000000000006 -720.6492320135478 L 38.00000000000006 -715.1160369928007 L 38.00000000000006 -715.1160369928009 L 39.00000000000006 -709.595290104834 L 39.00000000000006 -709.5952901048342 L 40 -704.0869913496472 L 40 -704.0869913496474 L 41 -698.5911407272406 L 41 -698.5911407272406 L 42.000000000000114 -693.1077382376138 L 42.000000000000114 -693.1077382376138 L 43.000000000000114 -687.6367838807673 L 43.000000000000114 -687.6367838807676 L 44.00000000000006 -682.1782776567009 L 44.00000000000006 -682.1782776567011 L 45.00000000000006 -676.7322195654147 L 45.00000000000006 -676.7322195654147 L 46.00000000000006 -671.2986096069083 L 46.00000000000006 -671.2986096069087 L 47.00000000000006 -665.8774477811824 L 47.00000000000006 -665.8774477811826 L 48.00000000000006 -660.4687340882363 L 48.00000000000006 -660.4687340882365 L 49.00000000000006 -655.0724685280702 L 49.00000000000006 -655.0724685280704 L 50.00000000000006 -649.6886511006844 L 50.00000000000006 -649.6886511006846 L 51.00000000000006 -644.3172818060787 L 51.00000000000006 -644.3172818060791 L 52.00000000000006 -638.9583606442529 L 52.00000000000006 -638.9583606442532 L 53.00000000000006 -633.6118876152073 L 53.00000000000006 -633.6118876152075 L 54.00000000000006 -628.2778627189418 L 54.00000000000006 -628.2778627189421 L 55.00000000000006 -622.9562859554562 L 55.00000000000006 -622.9562859554567 L 56.00000000000006 -617.6471573247511 L 56.00000000000006 -617.6471573247511 L 57.00000000000006 -612.3504768268256 L 57.00000000000006 -612.3504768268258 L 58.00000000000006 -607.0662444616805 L 58.00000000000006 -607.0662444616808 L 59.00000000000006 -601.7944602293153 L 59.00000000000006 -601.7944602293155 L 60 -596.5351241297303 L 60 -596.5351241297305 L 61 -591.2882361629252 L 61 -591.2882361629256 L 62 -586.0537963289005 L 62 -586.0537963289007 L 63.000000000000114 -580.8318046276552 L 63.000000000000114 -580.8318046276556 L 64.00000000000006 -575.6222610591904 L 64.00000000000006 -575.6222610591908 L 65.00000000000006 -570.425165623506 L 65.00000000000006 -570.4251656235062 L 66.00000000000006 -565.2405183206013 L 66.00000000000006 -565.2405183206015 L 67.00000000000006 -560.068319150477 L 67.00000000000006 -560.0683191504772 L 68.00000000000006 -554.9085681131326 L 68.00000000000006 -554.9085681131328 L 69.00000000000006 -549.7612652085681 L 69.00000000000006 -549.7612652085686 L 70.00000000000006 -544.626410436784 L 70.00000000000006 -544.6264104367842 L 71.00000000000006 -539.5040037977799 L 71.00000000000006 -539.5040037977801 L 72.00000000000006 -534.3940452915558 L 72.00000000000006 -534.3940452915563 L 73.00000000000006 -529.2965349181118 L 73.00000000000006 -529.296534918112 L 74.00000000000006 -524.211472677448 L 74.00000000000006 -524.2114726774482 L 75.00000000000006 -519.1388585695643 L 75.00000000000006 -519.1388585695645 L 76.00000000000006 -514.0786925944603 L 76.00000000000006 -514.0786925944608 L 77.00000000000006 -509.0309747521369 L 77.00000000000006 -509.0309747521371 L 78.00000000000006 -503.9957050425933 L 78.00000000000006 -503.9957050425935 L 79.00000000000006 -498.9728834658297 L 79.00000000000006 -498.97288346583014 L 80 -493.9625100218466 L 80 -493.9625100218468 L 81 -488.96458471064307 L 81 -488.9645847106435 L 82 -483.9791075322198 L 82 -483.97910753222027 L 83.00000000000011 -479.00607848657637 L 83.00000000000011 -479.0060784865766 L 84.00000000000006 -474.0454975737134 L 84.00000000000006 -474.04549757371365 L 85.00000000000006 -469.0973647936303 L 85.00000000000006 -469.09736479363073 L 86.00000000000006 -464.1616801463276 L 86.00000000000006 -464.16168014632785 L 87.00000000000006 -459.2384436318048 L 87.00000000000006 -459.238443631805 L 88.00000000000006 -454.327655250062 L 88.00000000000006 -454.3276552500622 L 89.00000000000006 -449.42931500109944 L 89.00000000000006 -449.42931500109967 L 90.00000000000006 -444.5434228849167 L 90.00000000000006 -444.54342288491694 L 91.00000000000006 -439.66997890151447 L 91.00000000000006 -439.6699789015147 L 92.00000000000006 -434.80898305089204 L 92.00000000000006 -434.80898305089227 L 93.00000000000006 -429.96043533304965 L 93.00000000000006 -429.9604353330499 L 94.00000000000006 -425.1243357479873 L 94.00000000000006 -425.12433574798774 L 95.00000000000006 -420.3006842957052 L 95.00000000000006 -420.3006842957054 L 96.00000000000006 -415.48948097620314 L 96.00000000000006 -415.48948097620337 L 97.00000000000006 -410.6907257894811 L 97.00000000000006 -410.6907257894816 L 98.00000000000006 -405.90441873553937 L 98.00000000000006 -405.9044187355396 L 99 -401.13055981437765 L 99 -401.1305598143779 L 100 -396.36914902599574 L 100 -396.36914902599597 L 101 -391.6201863703941 L 101 -391.62018637039455 L 102 -386.8836718475725 L 102 -386.88367184757294 L 103 -382.15960545753114 L 103 -382.15960545753137 L 104.00000000000006 -377.4479872002694 L 104.00000000000006 -377.4479872002696 L 105.00000000000006 -372.7488170757881 L 105.00000000000006 -372.74881707578834 L 106.00000000000006 -368.0620950840869 L 106.00000000000006 -368.0620950840871 L 107.00000000000006 -363.3878212251657 L 107.00000000000006 -363.3878212251659 L 108.00000000000006 -358.7259954990245 L 108.00000000000006 -358.725995499025 L 109.00000000000006 -354.0766179056636 L 109.00000000000006 -354.07661790566385 L 110.00000000000006 -349.43968844508277 L 110.00000000000006 -349.439688445083 L 111.00000000000006 -344.81520711728194 L 111.00000000000006 -344.8152071172823 L 112.00000000000006 -340.20317392226127 L 112.00000000000006 -340.2031739222616 L 113.00000000000006 -335.6035888600205 L 113.00000000000006 -335.60358886002086 L 114.00000000000006 -331.01645193056004 L 114.00000000000006 -331.0164519305604 L 115.00000000000006 -326.4417631338795 L 115.00000000000006 -326.4417631338798 L 116.00000000000006 -321.8795224699792 L 116.00000000000006 -321.8795224699795 L 117.00000000000006 -317.3297299388588 L 117.00000000000006 -317.32972993885915 L 118.00000000000006 -312.7923855405186 L 118.00000000000006 -312.7923855405188 L 119 -308.2674892749585 L 119 -308.26748927495885 L 120 -303.75504114217847 L 120 -303.7550411421787 L 121 -299.25504114217847 L 121 -299.2550411421787 L 122 -294.7674892749586 L 122 -294.76748927495885 L 123 -290.2923855405186 L 123 -290.2923855405189 L 124.00000000000006 -285.8297299388587 L 124.00000000000006 -285.8297299388589 L 125.00000000000006 -281.37952246997907 L 125.00000000000006 -281.3795224699793 L 126.00000000000006 -276.94176313387936 L 126.00000000000006 -276.9417631338797 L 127.00000000000006 -272.5164519305599 L 127.00000000000006 -272.51645193056027 L 128.00000000000006 -268.1035888600205 L 128.00000000000006 -268.10358886002075 L 129.00000000000006 -263.70317392226127 L 129.00000000000006 -263.7031739222615 L 130.00000000000006 -259.31520711728194 L 130.00000000000006 -259.3152071172823 L 131.00000000000006 -254.93968844508277 L 131.00000000000006 -254.9396884450831 L 132.00000000000006 -250.57661790566374 L 132.00000000000006 -250.57661790566397 L 133.00000000000006 -246.22599549902475 L 133.00000000000006 -246.22599549902498 L 134.00000000000006 -241.8878212251658 L 134.00000000000006 -241.88782122516614 L 135.00000000000006 -237.562095084087 L 135.00000000000006 -237.56209508408733 L 136.00000000000006 -233.24881707578834 L 136.00000000000006 -233.24881707578857 L 137.00000000000006 -228.94798720026972 L 137.00000000000006 -228.94798720026995 L 138.00000000000006 -224.65960545753103 L 138.00000000000006 -224.65960545753126 L 139 -220.3836718475726 L 139 -220.38367184757283 L 140 -216.1201863703941 L 140 -216.12018637039444 L 141 -211.86914902599585 L 141 -211.8691490259962 L 142 -207.63055981437753 L 142 -207.63055981437788 L 143 -203.40441873553937 L 143 -203.4044187355397 L 144 -199.19072578948146 L 144 -199.1907257894817 L 145.00000000000006 -194.98948097620314 L 145.00000000000006 -194.98948097620337 L 146.00000000000006 -190.8006842957052 L 146.00000000000006 -190.80068429570554 L 147.00000000000006 -186.6243357479874 L 147.00000000000006 -186.62433574798763 L 148.00000000000006 -182.46043533304965 L 148.00000000000006 -182.46043533305 L 149.00000000000006 -178.30898305089192 L 149.00000000000006 -178.30898305089215 L 150.00000000000006 -174.16997890151436 L 150.00000000000006 -174.16997890151458 L 151.00000000000006 -170.04342288491694 L 151.00000000000006 -170.04342288491716 L 152.00000000000006 -165.92931500109944 L 152.00000000000006 -165.92931500109967 L 153.00000000000006 -161.8276552500622 L 153.00000000000006 -161.82765525006243 L 154.00000000000006 -157.7384436318049 L 154.00000000000006 -157.73844363180513 L 155.00000000000006 -153.66168014632763 L 155.00000000000006 -153.66168014632797 L 156.00000000000006 -149.59736479363062 L 156.00000000000006 -149.59736479363096 L 157.00000000000006 -145.54549757371365 L 157.00000000000006 -145.545497573714 L 158.00000000000006 -141.5060784865767 L 158.00000000000006 -141.50607848657705 L 159 -137.47910753221993 L 159 -137.47910753222016 L 160 -133.46458471064318 L 160 -133.4645847106434 L 161.00000000000006 -129.46251002184636 L 161.00000000000006 -129.46251002184647 L 162.00000000000006 -125.4728834658298 L 162.00000000000006 -125.47288346582991 L 163.00000000000006 -121.49570504259339 L 163.00000000000006 -121.49570504259339 L 164.00000000000006 -117.5309747521369 L 164.00000000000006 -117.53097475213713 L 165.00000000000006 -113.57869259446056 L 165.00000000000006 -113.57869259446068 L 166.00000000000006 -109.63885856956426 L 166.00000000000006 -109.6388585695646 L 167.00000000000006 -105.71147267744823 L 167.00000000000006 -105.71147267744823 L 168 -101.79653491811212 L 168 -101.79653491811223 L 169 -97.89404529155604 L 169 -97.89404529155615 L 170.00000000000006 -94.00400379778 L 170.00000000000006 -94.00400379778023 L 171.00000000000006 -90.12641043678423 L 171.00000000000006 -90.12641043678423 L 172.00000000000006 -86.26126520856849 L 172.00000000000006 -86.26126520856849 L 173.00000000000006 -82.40856811313267 L 173.00000000000006 -82.40856811313301 L 174.00000000000006 -78.56831915047712 L 174.00000000000006 -78.56831915047724 L 175.00000000000006 -74.74051832060161 L 175.00000000000006 -74.74051832060184 L 176.00000000000006 -70.92516562350613 L 176.00000000000006 -70.92516562350647 L 177.00000000000006 -67.12226105919092 L 177.00000000000006 -67.12226105919103 L 178 -63.331804627655515 L 178 -63.331804627655856 L 179 -59.55379632890049 L 179 -59.5537963289006 L 180.00000000000006 -55.78823616292527 L 180.00000000000006 -55.78823616292527 L 181.00000000000006 -52.03512412973021 L 181.00000000000006 -52.03512412973021 L 182.00000000000006 -48.29446022931529 L 182.00000000000006 -48.294460229315405 L 183.00000000000006 -44.56624446168041 L 183.00000000000006 -44.56624446168064 L 184.00000000000006 -40.850476826825684 L 184.00000000000006 -40.8504768268258 L 185.00000000000006 -37.14715732475099 L 185.00000000000006 -37.14715732475122 L 186.00000000000006 -33.45628595545645 L 186.00000000000006 -33.456285955456565 L 187.00000000000006 -29.777862718941833 L 187.00000000000006 -29.77786271894206 L 188 -26.111887615207593 L 188 -26.111887615207593 L 189 -22.458360644253162 L 189 -22.458360644253275 L 190 -18.817281806078995 L 190 -18.817281806078995 L 191.00000000000006 -15.188651100684524 L 191.00000000000006 -15.188651100684751 L 192.00000000000006 -11.57246852807043 L 192.00000000000006 -11.572468528070658 L 193.00000000000006 -7.968734088236488 L 193.00000000000006 -7.968734088236602 L 194.00000000000006 -4.377447781182582 L 194.00000000000006 -4.3774477811826955 L 195.00000000000006 -0.7986096069088262 L 195.00000000000006 -0.7986096069088262 L 196.00000000000006 2.7677804345850063 L 196.00000000000006 2.7677804345850063 L 197.00000000000006 6.321722343298802 L 197.00000000000006 6.321722343298461 L 198 9.863216119232334 L 198 9.863216119232106 L 199 13.392261762385829 L 199 13.392261762385715 L 200 16.908859272759287 L 200 16.908859272759173 L 201.00000000000006 20.413008650352708 L 201.00000000000006 20.413008650352594 L 202.00000000000006 23.904709895166093 L 202.00000000000006 23.90470989516575 L 203.00000000000006 27.383963007199213 L 203.00000000000006 27.3839630071991 L 204.00000000000006 30.850767986452297 L 204.00000000000006 30.850767986452183 L 205.00000000000006 34.305124832925344 L 205.00000000000006 34.30512483292512 L 206.00000000000006 37.74703354661824 L 206.00000000000006 37.74703354661813 L 207.00000000000006 41.1764941275311 L 207.00000000000006 41.17649412753099 L 208 44.59350657566381 L 208 44.593506575663696 L 209 47.998070891016596 L 209 47.99807089101637 L 210 51.39018707358912 L 210 51.390187073589004 L 211.00000000000006 54.76985512338183 L 211.00000000000006 54.76985512338172 L 212.00000000000006 58.137075040394166 L 212.00000000000006 58.13707504039405 L 213.00000000000006 61.49184682462658 L 213.00000000000006 61.491846824626464 L 214.00000000000006 64.83417047607884 L 214.00000000000006 64.83417047607873 L 215.00000000000006 68.16404599475106 L 215.00000000000006 68.16404599475084 L 216.00000000000006 71.48147338064314 L 216.00000000000006 71.48147338064302 L 217.00000000000006 74.78645263375518 L 217.00000000000006 74.78645263375495 L 218 78.07898375408718 L 218 78.07898375408695 L 219 81.35906674163891 L 219 81.3590667416388 L 220 84.62670159641073 L 220 84.62670159641061 L 221.00000000000006 87.8818883184025 L 221.00000000000006 87.88188831840239 L 222.00000000000006 91.12462690761413 L 222.00000000000006 91.12462690761402 L 223.00000000000006 94.35491736404572 L 223.00000000000006 94.35491736404549 L 224.00000000000006 97.57275968769704 L 224.00000000000006 97.57275968769693 L 225.00000000000006 100.77815387856845 L 225.00000000000006 100.77815387856833 L 226.00000000000003 103.9710999366597 L 226.00000000000003 103.97109993665958 L 227.00000000000003 107.15159786197091 L 227.00000000000003 107.1515978619708 L 228.00000000000003 110.31964765450209 L 228.00000000000003 110.31964765450186 L 229.00000000000003 113.47524931425312 L 229.00000000000003 113.47524931425289 L 230.00000000000003 116.618402841224 L 230.00000000000003 116.61840284122388 L 231.00000000000003 119.74910823541484 L 231.00000000000003 119.74910823541472 L 232.00000000000006 122.86736549682576 L 232.00000000000006 122.86736549682553 L 233.00000000000006 125.97317462545641 L 233.00000000000006 125.9731746254563 L 234.00000000000003 129.06653562130703 L 234.00000000000003 129.0665356213069 L 235.00000000000003 132.1474484843776 L 235.00000000000003 132.1474484843775 L 236.00000000000003 135.21591321466803 L 236.00000000000003 135.21591321466792 L 237.00000000000003 138.27192981217843 L 237.00000000000003 138.2719298121782 L 238.00000000000003 141.31549827690867 L 238.00000000000003 141.31549827690856 L 239.00000000000003 144.34661860885888 L 239.00000000000003 144.34661860885865 L 240.00000000000003 147.36529080802893 L 240.00000000000003 147.36529080802882 L 241 150.37151487441906 L 241 150.37151487441884 L 242.00000000000006 153.36529080802904 L 242.00000000000006 153.36529080802893 L 243.00000000000006 156.346618608859 L 243.00000000000006 156.34661860885876 L 244.00000000000003 159.31549827690867 L 244.00000000000003 159.31549827690856 L 245.00000000000003 162.27192981217843 L 245.00000000000003 162.2719298121783 L 246.00000000000003 165.21591321466798 L 246.00000000000003 165.21591321466786 L 247.00000000000003 168.14744848437755 L 247.00000000000003 168.14744848437738 L 248.00000000000003 171.06653562130697 L 248.00000000000003 171.06653562130685 L 249.00000000000003 173.9731746254564 L 249.00000000000003 173.9731746254563 L 250.00000000000003 176.8673654968257 L 250.00000000000003 176.86736549682553 L 251 179.74910823541484 L 251 179.74910823541467 L 252.00000000000006 182.61840284122405 L 252.00000000000006 182.61840284122388 L 253.00000000000003 185.47524931425312 L 253.00000000000003 185.47524931425295 L 254.00000000000003 188.31964765450203 L 254.00000000000003 188.31964765450192 L 255.00000000000003 191.1515978619709 L 255.00000000000003 191.15159786197086 L 256 193.9710999366597 L 256 193.97109993665958 L 257 196.77815387856845 L 257 196.77815387856828 L 258 199.572759687697 L 258 199.57275968769693 L 259 202.35491736404555 L 259 202.3549173640455 L 260 205.12462690761402 L 260 205.12462690761396 L 261 207.8818883184024 L 261 207.88188831840233 L 262.00000000000006 210.62670159641073 L 262.00000000000006 210.62670159641073 L 263 213.35906674163897 L 263 213.3590667416389 L 264 216.07898375408712 L 264 216.078983754087 L 265 218.78645263375512 L 265 218.78645263375506 L 266 221.48147338064308 L 266 221.48147338064302 L 267 224.16404599475095 L 267 224.1640459947509 L 268 226.83417047607873 L 268 226.83417047607867 L 269 229.4918468246264 L 269 229.4918468246264 L 270 232.1370750403941 L 270 232.137075040394 L 271 234.76985512338166 L 271 234.7698551233815 L 272 237.39018707358912 L 272 237.390187073589 L 273 239.9980708910166 L 273 239.99807089101648 L 274 242.59350657566387 L 274 242.5935065756638 L 275 245.17649412753104 L 275 245.176494127531 L 276 247.74703354661824 L 276 247.74703354661807 L 277 250.30512483292523 L 277 250.30512483292517 L 278 252.85076798645218 L 278 252.85076798645213 L 279 255.3839630071991 L 279 255.383963007199 L 280 257.90470989516587 L 280 257.9047098951658 L 281 260.4130086503526 L 281 260.4130086503525 L 282 262.90885927275923 L 282 262.9088592727591 L 283 265.39226176238583 L 283 265.39226176238583 L 284 267.86321611923233 L 284 267.8632161192322 L 285 270.3217223432987 L 285 270.32172234329863 L 286 272.767780434585 L 286 272.76778043458495 L 287 275.20139039309123 L 287 275.2013903930911 L 288 277.6225522188173 L 288 277.6225522188173 L 289 280.0312659117634 L 289 280.03126591176334 L 290 282.4275314719294 L 290 282.4275314719292 L 291 284.8113488993152 L 291 284.8113488993152 L 292 287.18271819392106 L 292 287.18271819392095 L 293 289.5416393557469 L 293 289.5416393557467 L 294 291.88811238479246 L 294 291.8881123847924 L 295 294.222137281058 L 295 294.222137281058 L 296 296.5437140445435 L 296 296.54371404454344 L 297 298.8528426752489 L 297 298.8528426752488 L 298 301.1495231731742 L 298 301.1495231731741 L 299 303.4337555383194 L 299 303.4337555383193 L 300 305.70553977068454 L 300 305.7055397706845 L 301 307.96487587026957 L 301 307.9648758702695 L 302 310.2117638370745 L 302 310.2117638370745 L 303 312.4462036710995 L 303 312.4462036710995 L 304 314.66819537234437 L 304 314.66819537234426 L 305 316.877738940809 L 305 316.877738940809 L 306 319.07483437649375 L 306 319.0748343764936 L 307 321.2594816793983 L 307 321.25948167939816 L 308 323.4316808495227 L 308 323.4316808495227 L 309 325.5914318868671 L 309 325.59143188686704 L 310 327.73873479143145 L 310 327.73873479143134 L 311 329.87358956321566 L 311 329.8735895632156 L 312 331.99599620221977 L 312 331.9959962022197 L 313 334.10595470844385 L 313 334.1059547084438 L 314 336.20346508188794 L 314 336.20346508188777 L 315 338.2885273225518 L 315 338.2885273225517 L 316 340.3611414304356 L 316 340.3611414304355 L 317 342.4213074055393 L 317 342.42130740553927 L 318 344.469025247863 L 318 344.46902524786293 L 319 346.5042949574065 L 319 346.50429495740644 L 320 348.52711653417003 L 320 348.5271165341699 L 321 350.5374899781534 L 321 350.53748997815336 L 322 352.53541528935676 L 322 352.5354152893567 L 323 354.52089246777996 L 323 354.5208924677799 L 324 356.4939215134231 L 324 356.49392151342306 L 325 358.4545024262862 L 325 358.4545024262861 L 326 360.4026352063692 L 326 360.40263520636915 L 327 362.3383198536721 L 327 362.3383198536721 L 328 364.26155636819493 L 328 364.2615563681949 L 329 366.1723447499377 L 329 366.17234474993757 L 330 368.07068499890033 L 330 368.0706849989002 L 331 369.95657711508284 L 331 369.95657711508284 L 332 371.83002109848536 L 332 371.8300210984853 L 333 373.6910169491078 L 333 373.69101694910773 L 334 375.53956466695007 L 334 375.53956466695007 L 335 377.3756642520123 L 335 377.3756642520123 L 336 379.19931570429446 L 336 379.19931570429446 L 337 381.0105190237966 L 337 381.0105190237965 L 338 382.80927421051854 L 338 382.80927421051854 L 339 384.5955812644604 L 339 384.5955812644604 L 340 386.3694401856223 L 340 386.36944018562224 L 341 388.13085097400403 L 341 388.130850974004 L 342 389.87981362960574 L 342 389.8798136296056 L 343 391.6163281524273 L 343 391.61632815242723 L 344 393.34039454246874 L 344 393.34039454246874 L 345 395.05201279973016 L 345 395.05201279973016 L 346 396.7511829242115 L 346 396.75118292421143 L 347 398.4379049159128 L 347 398.43790491591267 L 348 400.1121787748339 L 348 400.11217877483386 L 349 401.77400450097497 L 349 401.7740045009749 L 350 403.423382094336 L 350 403.4233820943359 L 351 405.0603115549169 L 351 405.06031155491684 L 352 406.6847928827178 L 352 406.68479288271766 L 353 408.29682607773844 L 353 408.29682607773844 L 354 409.89641113997914 L 354 409.8964111399791 L 355 411.4835480694397 L 355 411.4835480694397 L 356 413.0582368661202 L 356 413.0582368661202 L 357 414.6204775300206 L 357 414.6204775300206 L 358 416.17027006114097 L 358 416.1702700611409 L 359 417.7076144594812 L 359 417.7076144594812 L 360 419.2325107250414 L 360 419.2325107250414 L 361 420.7449588578214 L 361 420.7449588578214 L 362 422.2449588578215 L 362 422.2449588578214 L 363 423.7325107250414 L 363 423.7325107250413 L 364 425.2076144594812 L 364 425.20761445948114 L 365 426.6702700611409 L 365 426.6702700611409 L 366 428.1204775300206 L 366 428.1204775300206 L 367 429.5582368661202 L 367 429.5582368661202 L 368 430.98354806943973 L 368 430.9835480694397 L 369 432.39641113997914 L 369 432.39641113997914 L 370 433.7968260777384 L 370 433.7968260777384 L 371 435.1847928827177 L 371 435.1847928827177 L 372 436.5603115549169 L 372 436.5603115549169 L 373 437.923382094336 L 373 437.9233820943359 L 374 439.2740045009749 L 374 439.2740045009749 L 375 440.61217877483386 L 375 440.61217877483386 L 376 441.9379049159127 L 376 441.93790491591267 L 377 443.25118292421143 L 377 443.25118292421143 L 378 444.55201279973016 L 378 444.55201279973016 L 379 445.84039454246874 L 379 445.84039454246874 L 380 447.11632815242723 L 380 447.11632815242723 L 381 448.3798136296057 L 381 448.3798136296057 L 382 449.63085097400403 L 382 449.630850974004 L 383 450.86944018562224 L 383 450.86944018562224 L 384 452.0955812644604 L 384 452.0955812644604 L 385 453.30927421051854 L 385 453.30927421051854 L 386 454.5105190237965 L 386 454.5105190237965 L 387 455.69931570429446 L 387 455.69931570429446 L 388 456.87566425201226 L 388 456.87566425201226 L 389 458.03956466695007 L 389 458.03956466695 L 390 459.19101694910773 L 390 459.19101694910773 L 391 460.3300210984853 L 391 460.3300210984853 L 392 461.45657711508284 L 392 461.45657711508284 L 393 462.5706849989003 L 393 462.5706849989002 L 394 463.6723447499376 L 394 463.67234474993757 L 395 464.7615563681949 L 395 464.7615563681949 L 396 465.83831985367203 L 396 465.83831985367203 L 397 466.90263520636915 L 397 466.9026352063691 L 398 467.9545024262862 L 398 467.9545024262861 L 399 468.99392151342306 L 399 468.99392151342306 L 400 470.02089246777996 L 400 470.02089246777996 L 401 471.0354152893567 L 401 471.0354152893567 L 402 472.0374899781534 L 402 472.03748997815336 L 403 473.02711653417 L 403 473.02711653417 L 404 474.0042949574065 L 404 474.0042949574065 L 405 474.96902524786293 L 405 474.9690252478629 L 406 475.9213074055392 L 406 475.9213074055392 L 407 476.8611414304355 L 407 476.8611414304355 L 408 477.7885273225517 L 408 477.7885273225517 L 409 478.70346508188777 L 409 478.70346508188777 L 410 479.60595470844385 L 410 479.60595470844385 L 411 480.49599620221977 L 411 480.49599620221977 L 412 481.37358956321566 L 412 481.37358956321566 L 413 482.2387347914314 L 413 482.2387347914314 L 414 483.09143188686704 L 414 483.09143188686704 L 415 483.93168084952265 L 415 483.93168084952265 L 416 484.75948167939816 L 416 484.75948167939816 L 417 485.57483437649364 L 417 485.57483437649364 L 418 486.37773894080897 L 418 486.37773894080897 L 419 487.16819537234426 L 419 487.16819537234426 L 420 487.9462036710994 L 420 487.9462036710994 L 421 488.71176383707456 L 421 488.7117638370745 L 422 489.46487587026957 L 422 489.46487587026957 L 423 490.2055397706845 L 423 490.2055397706845 L 424 490.93375553831936 L 424 490.93375553831936 L 425 491.6495231731741 L 425 491.6495231731741 L 426 492.3528426752488 L 426 492.3528426752488 L 427 493.04371404454344 L 427 493.04371404454344 L 428 493.72213728105794 L 428 493.72213728105794 L 429 494.38811238479235 L 429 494.38811238479235 L 430 495.0416393557467 L 430 495.0416393557467 L 431 495.682718193921 L 431 495.682718193921 L 432 496.3113488993152 L 432 496.3113488993152 L 433 496.9275314719293 L 433 496.9275314719293 L 434 497.5312659117633 L 434 497.5312659117633 L 435 498.1225522188173 L 435 498.1225522188173 L 436 498.7013903930911 L 436 498.7013903930911 L 437 499.2677804345849 L 437 499.2677804345849 L 438 499.8217223432986 L 438 499.8217223432986 L 439 500.3632161192322 L 439 500.3632161192322 L 440 500.8922617623857 L 440 500.8922617623857 L 441 501.4088592727592 L 441 501.4088592727592 L 442 501.9130086503525 L 442 501.9130086503525 L 443 502.4047098951658 L 443 502.4047098951658 L 444 502.883963007199 L 444 502.883963007199 L 445 503.3507679864521 L 445 503.3507679864521 L 446 503.8051248329252 L 446 503.8051248329252 L 447 504.24703354661807 L 447 504.24703354661807 L 448 504.676494127531 L 448 504.676494127531 L 449 505.0935065756637 L 449 505.0935065756637 L 450 505.4980708910164 L 450 505.4980708910164 L 451 505.89018707358906 L 451 505.89018707358906 L 452 506.2698551233816 L 452 506.2698551233816 L 453 506.63707504039405 L 453 506.63707504039405 L 454 506.99184682462635 L 454 506.99184682462635 L 455 507.3341704760787 L 455 507.33417047607867 L 456 507.66404599475084 L 456 507.66404599475084 L 457 507.981473380643 L 457 507.981473380643 L 458 508.286452633755 L 458 508.286452633755 L 459 508.57898375408695 L 459 508.57898375408695 L 460 508.8590667416388 L 460 508.8590667416388 L 461 509.1267015964106 L 461 509.1267015964106 L 462 509.38188831840233 L 462 509.38188831840233 L 463 509.62462690761396 L 463 509.62462690761396 L 464 509.8549173640455 L 464 509.8549173640455 L 465 510.07275968769693 L 465 510.07275968769693 L 466 510.27815387856833 L 466 510.27815387856833 L 467 510.4710999366596 L 467 510.4710999366596 L 468 510.6515978619708 L 468 510.6515978619708 L 469 510.8196476545019 L 469 510.8196476545019 L 470 510.97524931425295 L 470 510.97524931425295 L 471 511.1184028412239 L 471 511.1184028412239 L 472 511.2491082354148 L 472 511.2491082354148 L 473 511.3673654968255 L 473 511.3673654968255 L 474 511.4731746254563 L 474 511.4731746254563 L 475 511.5665356213069 L 475 511.5665356213069 L 476 511.64744848437743 L 476 511.64744848437743 L 477 511.7159132146679 L 477 511.7159132146679 L 478 511.7719298121783 L 478 511.7719298121783 L 479 511.81549827690856 L 479 511.81549827690856 L 480 511.84661860885876 L 480 511.84661860885876 L 481 511.8652908080289 L 481 511.8652908080289 L 482 511.87151487441895 L 482 511.87151487441895 L 483 511.8652908080289 L 483 511.8652908080289 L 484 511.84661860885876 L 484 511.84661860885876 L 485 511.81549827690856 L 485 511.81549827690856 L 486 511.7719298121783 L 486 511.7719298121783 L 487 511.7159132146679 L 487 511.7159132146679 L 488 511.64744848437743 L 488 511.64744848437743 L 489 511.5665356213069 L 489 511.5665356213069 L 490 511.4731746254563 L 490 511.4731746254563 L 491 511.3673654968255 L 491 511.3673654968255 L 492 511.2491082354148 L 492 511.2491082354148 L 493 511.1184028412239 L 493 511.1184028412239 L 494 510.97524931425295 L 494 510.97524931425295 L 495 510.8196476545019 L 495 510.8196476545019 L 496 510.6515978619708 L 496 510.6515978619708 L 497 510.4710999366596 L 497 510.4710999366596 L 498 510.27815387856833 L 498 510.27815387856833 L 499 510.07275968769693 L 499 510.07275968769693 L 500 509.8549173640455 L 500 509.8549173640455 L 501 509.62462690761396 L 501 509.62462690761396 L 502 509.38188831840233 L 502 509.38188831840233 L 503 509.1267015964106 L 503 509.1267015964106 L 504 508.8590667416388 L 504 508.8590667416388 L 505 508.57898375408695 L 505 508.57898375408695 L 506 508.286452633755 L 506 508.286452633755 L 507 507.981473380643 L 507 507.981473380643 L 508 507.66404599475084 L 508 507.66404599475084 L 509 507.33417047607867 L 509 507.3341704760787 L 510 506.99184682462635 L 510 506.99184682462635 L 511 506.63707504039405 L 511 506.63707504039405 L 512 506.2698551233816 L 512 506.2698551233816 L 513 505.89018707358906 L 513 505.89018707358906 L 514 505.4980708910164 L 514 505.4980708910164 L 515 505.0935065756637 L 515 505.0935065756637 L 516 504.676494127531 L 516 504.676494127531 L 517 504.24703354661807 L 517 504.24703354661807 L 518 503.8051248329252 L 518 503.8051248329252 L 519 503.3507679864521 L 519 503.3507679864521 L 520 502.883963007199 L 520 502.883963007199 L 521 502.4047098951658 L 521 502.4047098951658 L 522 501.9130086503525 L 522 501.9130086503525 L 523 501.4088592727592 L 523 501.4088592727592 L 524 500.8922617623857 L 524 500.8922617623857 L 525 500.3632161192322 L 525 500.3632161192322 L 526 499.8217223432986 L 526 499.8217223432986 L 527 499.2677804345849 L 527 499.2677804345849 L 528 498.7013903930911 L 528 498.7013903930911 L 529 498.1225522188173 L 529 498.1225522188173 L 530 497.5312659117633 L 530 497.5312659117633 L 531 496.9275314719293 L 531 496.9275314719293 L 532 496.3113488993152 L 532 496.3113488993152 L 533 495.682718193921 L 533 495.682718193921 L 534 495.0416393557467 L 534 495.0416393557467 L 535 494.38811238479235 L 535 494.38811238479235 L 536 493.72213728105794 L 536 493.72213728105794 L 537 493.04371404454344 L 537 493.04371404454344 L 538 492.3528426752488 L 538 492.3528426752488 L 539 491.6495231731741 L 539 491.6495231731741 L 540 490.93375553831936 L 540 490.93375553831936 L 541 490.2055397706845 L 541 490.2055397706845 L 542 489.46487587026957 L 542 489.46487587026957 L 543 488.7117638370745 L 543 488.71176383707456 L 544 487.9462036710994 L 544 487.9462036710994 L 545 487.16819537234426 L 545 487.16819537234426 L 546 486.37773894080897 L 546 486.37773894080897 L 547 485.57483437649364 L 547 485.57483437649364 L 548 484.75948167939816 L 548 484.75948167939816 L 549 483.93168084952265 L 549 483.93168084952265 L 550 483.09143188686704 L 550 483.09143188686704 L 551 482.2387347914314 L 551 482.2387347914314 L 552 481.37358956321566 L 552 481.37358956321566 L 553 480.49599620221977 L 553 480.49599620221977 L 554 479.60595470844385 L 554 479.60595470844385 L 555 478.70346508188777 L 555 478.70346508188777 L 556 477.7885273225517 L 556 477.7885273225517 L 557 476.8611414304355 L 557 476.8611414304355 L 558 475.9213074055392 L 558 475.9213074055392 L 559 474.9690252478629 L 559 474.96902524786293 L 560 474.0042949574065 L 560 474.0042949574065 L 561 473.02711653417 L 561 473.02711653417 L 562 472.03748997815336 L 562 472.0374899781534 L 563 471.0354152893567 L 563 471.0354152893567 L 564 470.02089246777996 L 564 470.02089246777996 L 565 468.99392151342306 L 565 468.99392151342306 L 566 467.9545024262861 L 566 467.9545024262862 L 567 466.9026352063691 L 567 466.90263520636915 L 568 465.83831985367203 L 568 465.83831985367203 L 569 464.7615563681949 L 569 464.7615563681949 L 570 463.67234474993757 L 570 463.6723447499376 L 571 462.5706849989002 L 571 462.5706849989003 L 572 461.45657711508284 L 572 461.45657711508284 L 573 460.3300210984853 L 573 460.3300210984853 L 574 459.19101694910773 L 574 459.19101694910773 L 575 458.03956466695 L 575 458.03956466695007 L 576 456.87566425201226 L 576 456.87566425201226 L 577 455.69931570429446 L 577 455.69931570429446 L 578 454.5105190237965 L 578 454.5105190237965 L 579 453.30927421051854 L 579 453.30927421051854 L 580 452.0955812644604 L 580 452.0955812644604 L 581 450.86944018562224 L 581 450.86944018562224 L 582 449.630850974004 L 582 449.63085097400403 L 583 448.3798136296057 L 583 448.3798136296057 L 584 447.11632815242723 L 584 447.11632815242723 L 585 445.84039454246874 L 585 445.84039454246874 L 586 444.55201279973016 L 586 444.55201279973016 L 587 443.25118292421143 L 587 443.25118292421143 L 588 441.93790491591267 L 588 441.9379049159127 L 589 440.61217877483386 L 589 440.61217877483386 L 590 439.2740045009749 L 590 439.2740045009749 L 591 437.9233820943359 L 591 437.923382094336 L 592 436.5603115549169 L 592 436.5603115549169 L 593 435.1847928827177 L 593 435.1847928827177 L 594 433.7968260777384 L 594 433.7968260777384 L 595 432.39641113997914 L 595 432.39641113997914 L 596 430.9835480694397 L 596 430.98354806943973 L 597 429.5582368661202 L 597 429.5582368661202 L 598 428.1204775300206 L 598 428.1204775300206 L 599 426.6702700611409 L 599 426.6702700611409 L 600 425.20761445948114 L 600 425.2076144594812 L 601 423.7325107250413 L 601 423.7325107250414 L 602 422.2449588578214 L 602 422.2449588578215 L 603 420.7449588578214 L 603 420.7449588578214 L 604 419.2325107250414 L 604 419.2325107250414 L 605 417.7076144594812 L 605 417.7076144594812 L 606 416.1702700611409 L 606 416.17027006114097 L 607 414.6204775300206 L 607 414.6204775300206 L 608 413.0582368661202 L 608 413.0582368661202 L 609 411.4835480694397 L 609 411.4835480694397 L 610 409.8964111399791 L 610 409.89641113997914 L 611 408.29682607773844 L 611 408.29682607773844 L 612 406.68479288271766 L 612 406.6847928827178 L 613 405.06031155491684 L 613 405.0603115549169 L 614 403.4233820943359 L 614 403.423382094336 L 615 401.7740045009749 L 615 401.77400450097497 L 616 400.11217877483386 L 616 400.1121787748339 L 617 398.43790491591267 L 617 398.4379049159128 L 618 396.75118292421143 L 618 396.7511829242115 L 619 395.05201279973016 L 619 395.05201279973016 L 620 393.34039454246874 L 620 393.34039454246874 L 621 391.61632815242723 L 621 391.6163281524273 L 622 389.8798136296056 L 622 389.87981362960574 L 623 388.130850974004 L 623 388.13085097400403 L 624 386.36944018562224 L 624 386.3694401856223 L 625 384.5955812644604 L 625 384.5955812644604 L 626 382.80927421051854 L 626 382.80927421051854 L 627 381.0105190237965 L 627 381.0105190237966 L 628 379.19931570429446 L 628 379.19931570429446 L 629 377.3756642520123 L 629 377.3756642520123 L 630 375.53956466695007 L 630 375.53956466695007 L 631 373.69101694910773 L 631 373.6910169491078 L 632 371.8300210984853 L 632 371.83002109848536 L 633 369.95657711508284 L 633 369.95657711508284 L 634 368.0706849989002 L 634 368.07068499890033 L 635 366.17234474993757 L 635 366.1723447499377 L 636 364.2615563681949 L 636 364.26155636819493 L 637 362.3383198536721 L 637 362.3383198536721 L 638 360.40263520636915 L 638 360.4026352063692 L 639 358.4545024262861 L 639 358.4545024262862 L 640 356.49392151342306 L 640 356.4939215134231 L 641 354.5208924677799 L 641 354.52089246777996 L 642 352.5354152893567 L 642 352.53541528935676 L 643 350.53748997815336 L 643 350.5374899781534 L 644 348.5271165341699 L 644 348.52711653417003 L 645 346.50429495740644 L 645 346.5042949574065 L 646 344.46902524786293 L 646 344.469025247863 L 647 342.42130740553927 L 647 342.4213074055393 L 648 340.3611414304355 L 648 340.3611414304356 L 649 338.2885273225517 L 649 338.2885273225518 L 650 336.20346508188777 L 650 336.20346508188794 L 651 334.1059547084438 L 651 334.10595470844385 L 652 331.9959962022197 L 652 331.99599620221977 L 653 329.8735895632156 L 653 329.87358956321566 L 654 327.73873479143134 L 654 327.73873479143145 L 655 325.59143188686704 L 655 325.5914318868671 L 656 323.4316808495227 L 656 323.4316808495227 L 657 321.25948167939816 L 657 321.2594816793983 L 658 319.0748343764936 L 658 319.07483437649375 L 659 316.877738940809 L 659 316.877738940809 L 660 314.66819537234426 L 660 314.66819537234437 L 661 312.4462036710995 L 661 312.4462036710995 L 662 310.2117638370745 L 662 310.2117638370745 L 663 307.9648758702695 L 663 307.96487587026957 L 664 305.7055397706845 L 664 305.70553977068454 L 665 303.4337555383193 L 665 303.4337555383194 L 666 301.1495231731741 L 666 301.1495231731742 L 667 298.8528426752488 L 667 298.8528426752489 L 668 296.54371404454344 L 668 296.5437140445435 L 669 294.222137281058 L 669 294.222137281058 L 670 291.8881123847924 L 670 291.88811238479246 L 671 289.5416393557467 L 671 289.5416393557469 L 672 287.18271819392095 L 672 287.18271819392106 L 673 284.8113488993152 L 673 284.8113488993152 L 674 282.4275314719292 L 674 282.4275314719294 L 675 280.03126591176334 L 675 280.0312659117634 L 676 277.6225522188173 L 676 277.6225522188173 L 677 275.2013903930911 L 677 275.20139039309123 L 678 272.76778043458495 L 678 272.767780434585 L 679 270.32172234329863 L 679 270.3217223432987 L 680 267.8632161192322 L 680 267.86321611923233 L 681 265.39226176238583 L 681 265.39226176238583 L 682 262.9088592727591 L 682 262.90885927275923 L 683 260.4130086503525 L 683 260.4130086503526 L 684 257.9047098951658 L 684 257.90470989516587 L 685 255.383963007199 L 685 255.3839630071991 L 686 252.85076798645213 L 686 252.85076798645218 L 687 250.30512483292517 L 687 250.30512483292523 L 688 247.74703354661807 L 688 247.74703354661824 L 689 245.176494127531 L 689 245.17649412753104 L 690 242.5935065756638 L 690 242.59350657566387 L 691 239.99807089101648 L 691 239.9980708910166 L 692 237.390187073589 L 692 237.39018707358912 L 693 234.7698551233815 L 693 234.76985512338166 L 694 232.137075040394 L 694 232.1370750403941 L 695 229.4918468246264 L 695 229.4918468246264 L 696 226.83417047607867 L 696 226.83417047607873 L 697 224.1640459947509 L 697 224.16404599475095 L 698 221.48147338064302 L 698 221.48147338064308 L 699 218.78645263375506 L 699 218.78645263375512 L 700 216.078983754087 L 700 216.07898375408712 L 701 213.3590667416389 L 701 213.35906674163897 L 702 210.62670159641073 L 702 210.62670159641073 L 703 207.88188831840233 L 703 207.8818883184024 L 704 205.12462690761396 L 704 205.12462690761402 L 705 202.3549173640455 L 705 202.35491736404555 L 706 199.57275968769693 L 706 199.572759687697 L 707 196.77815387856828 L 707 196.77815387856845 L 708 193.97109993665958 L 708 193.9710999366597 L 709 191.15159786197086 L 709 191.1515978619709 L 710 188.31964765450192 L 710 188.31964765450203 L 711 185.47524931425295 L 711 185.47524931425312 L 712 182.61840284122388 L 712 182.61840284122405 L 713 179.74910823541467 L 713 179.74910823541484 L 714 176.86736549682553 L 714 176.8673654968257 L 715 173.9731746254563 L 715 173.9731746254564 L 716 171.06653562130685 L 716 171.06653562130697 L 717 168.14744848437738 L 717 168.14744848437755 L 718 165.21591321466786 L 718 165.21591321466798 L 719 162.2719298121783 L 719 162.27192981217843 L 720 159.31549827690856 L 720 159.31549827690867 L 721 156.34661860885876 L 721 156.346618608859 L 722 153.36529080802893 L 722 153.36529080802904 L 723 150.37151487441884 L 723 150.37151487441906 L 724 147.36529080802882 L 724 147.36529080802893 L 725 144.34661860885865 L 725 144.34661860885888 L 726 141.31549827690856 L 726 141.31549827690867 L 727 138.2719298121782 L 727 138.27192981217843 L 728 135.21591321466792 L 728 135.21591321466803 L 729 132.1474484843775 L 729 132.1474484843776 L 730 129.0665356213069 L 730 129.06653562130703 L 731 125.9731746254563 L 731 125.97317462545641 L 732 122.86736549682553 L 732 122.86736549682576 L 733 119.74910823541472 L 733 119.74910823541484 L 734 116.61840284122388 L 734 116.618402841224 L 735 113.47524931425289 L 735 113.47524931425312 L 736 110.31964765450186 L 736 110.31964765450209 L 737 107.1515978619708 L 737 107.15159786197091 L 738 103.97109993665958 L 738 103.9710999366597 L 739 100.77815387856833 L 739 100.77815387856845 L 740 97.57275968769693 L 740 97.57275968769704 L 741 94.35491736404549 L 741 94.35491736404572 L 742 91.12462690761402 L 742 91.12462690761413 L 743 87.88188831840239 L 743 87.8818883184025 L 744 84.62670159641061 L 744 84.62670159641073 L 745 81.3590667416388 L 745 81.35906674163891 L 746 78.07898375408695 L 746 78.07898375408718 L 747 74.78645263375495 L 747 74.78645263375518 L 748 71.48147338064302 L 748 71.48147338064314 L 749 68.16404599475084 L 749 68.16404599475106 L 750 64.83417047607873 L 750 64.83417047607884 L 751 61.491846824626464 L 751 61.49184682462658 L 752 58.13707504039405 L 752 58.137075040394166 L 753 54.76985512338172 L 753 54.76985512338183 L 754 51.390187073589004 L 754 51.39018707358912 L 755 47.99807089101637 L 755 47.998070891016596 L 756 44.593506575663696 L 756 44.59350657566381 L 757 41.17649412753099 L 757 41.1764941275311 L 758 37.74703354661813 L 758 37.74703354661824 L 759 34.30512483292512 L 759 34.305124832925344 L 760 30.850767986452183 L 760 30.850767986452297 L 761 27.3839630071991 L 761 27.383963007199213 L 762 23.90470989516575 L 762 23.904709895166093 L 763 20.413008650352594 L 763 20.413008650352708 L 764 16.908859272759173 L 764 16.908859272759287 L 765 13.392261762385715 L 765 13.392261762385829 L 766 9.863216119232106 L 766 9.863216119232334 L 767 6.321722343298461 L 767 6.321722343298802 L 768 2.7677804345850063 L 768 2.7677804345850063 L 769 -0.7986096069088262 L 769 -0.7986096069088262 L 770 -4.3774477811826955 L 770 -4.377447781182582 L 771 -7.968734088236602 L 771 -7.968734088236488 L 772 -11.572468528070658 L 772 -11.57246852807043 L 773 -15.188651100684751 L 773 -15.188651100684524 L 774 -18.817281806078995 L 774 -18.817281806078995 L 775 -22.458360644253275 L 775 -22.458360644253162 L 776 -26.111887615207593 L 776 -26.111887615207593 L 777 -29.77786271894206 L 777 -29.777862718941833 L 778 -33.456285955456565 L 778 -33.45628595545645 L 779 -37.14715732475122 L 779 -37.14715732475099 L 780 -40.8504768268258 L 780 -40.850476826825684 L 781 -44.56624446168064 L 781 -44.56624446168041 L 782 -48.294460229315405 L 782 -48.29446022931529 L 783 -52.03512412973021 L 783 -52.03512412973021 L 784 -55.78823616292527 L 784 -55.78823616292527 L 785 -59.5537963289006 L 785 -59.55379632890049 L 786 -63.331804627655856 L 786 -63.331804627655515 L 787 -67.12226105919103 L 787 -67.12226105919092 L 788 -70.92516562350647 L 788 -70.92516562350613 L 789 -74.74051832060184 L 789 -74.74051832060161 L 790 -78.56831915047724 L 790 -78.56831915047712 L 791 -82.40856811313301 L 791 -82.40856811313267 L 792 -86.26126520856849 L 792 -86.26126520856849 L 793 -90.12641043678423 L 793 -90.12641043678423 L 794 -94.00400379778023 L 794 -94.00400379778 L 795 -97.89404529155615 L 795 -97.89404529155604 L 796 -101.79653491811223 L 796 -101.79653491811212 L 797 -105.71147267744823 L 797 -105.71147267744823 L 798 -109.6388585695646 L 798 -109.63885856956426 L 799 -113.57869259446068 L 799 -113.57869259446056 L 800 -117.53097475213713 L 800 -117.5309747521369 L 801 -121.49570504259339 L 801 -121.49570504259339 L 802 -125.47288346582991 L 802 -125.4728834658298 L 803 -129.46251002184647 L 803 -129.46251002184636 L 804 -133.4645847106434 L 804 -133.46458471064318 L 805 -137.47910753222016 L 805 -137.47910753221993 L 806 -141.50607848657705 L 806 -141.5060784865767 L 807 -145.545497573714 L 807 -145.54549757371365 L 808 -149.59736479363096 L 808 -149.59736479363062 L 809 -153.66168014632797 L 809 -153.66168014632763 L 810 -157.73844363180513 L 810 -157.7384436318049 L 811 -161.82765525006243 L 811 -161.8276552500622 L 812 -165.92931500109967 L 812 -165.92931500109944 L 813 -170.04342288491716 L 813 -170.04342288491694 L 814 -174.16997890151458 L 814 -174.16997890151436 L 815 -178.30898305089215 L 815 -178.30898305089192 L 816 -182.46043533305 L 816 -182.46043533304965 L 817 -186.62433574798763 L 817 -186.6243357479874 L 818 -190.80068429570554 L 818 -190.8006842957052 L 819 -194.98948097620337 L 819 -194.98948097620314 L 820 -199.1907257894817 L 820 -199.19072578948146 L 821 -203.4044187355397 L 821 -203.40441873553937 L 822 -207.63055981437788 L 822 -207.63055981437753 L 823 -211.8691490259962 L 823 -211.86914902599585 L 824 -216.12018637039444 L 824 -216.1201863703941 L 825 -220.38367184757283 L 825 -220.3836718475726 L 826 -224.65960545753126 L 826 -224.65960545753103 L 827 -228.94798720026995 L 827 -228.94798720026972 L 828 -233.24881707578857 L 828 -233.24881707578834 L 829 -237.56209508408733 L 829 -237.562095084087 L 830 -241.88782122516614 L 830 -241.8878212251658 L 831 -246.22599549902498 L 831 -246.22599549902475 L 832 -250.57661790566397 L 832 -250.57661790566374 L 833 -254.9396884450831 L 833 -254.93968844508277 L 834 -259.3152071172823 L 834 -259.31520711728194 L 835 -263.7031739222615 L 835 -263.70317392226127 L 836 -268.10358886002075 L 836 -268.1035888600205 L 837 -272.51645193056027 L 837 -272.5164519305599 L 838 -276.9417631338797 L 838 -276.94176313387936 L 839 -281.3795224699793 L 839 -281.37952246997907 L 840 -285.8297299388589 L 840 -285.8297299388587 L 841 -290.2923855405189 L 841 -290.2923855405186 L 842 -294.76748927495885 L 842 -294.7674892749586 L 843 -299.2550411421787 L 843 -299.25504114217847 L 844 -303.7550411421787 L 844 -303.75504114217847 L 845 -308.26748927495885 L 845 -308.2674892749585 L 846 -312.7923855405188 L 846 -312.7923855405186 L 847 -317.32972993885915 L 847 -317.3297299388588 L 848 -321.8795224699795 L 848 -321.8795224699792 L 849 -326.4417631338798 L 849 -326.4417631338795 L 850 -331.0164519305604 L 850 -331.01645193056004 L 851 -335.60358886002086 L 851 -335.6035888600205 L 852 -340.2031739222616 L 852 -340.20317392226127 L 853 -344.8152071172823 L 853 -344.81520711728194 L 854 -349.439688445083 L 854 -349.43968844508277 L 855 -354.07661790566385 L 855 -354.0766179056636 L 856 -358.725995499025 L 856 -358.7259954990245 L 857 -363.3878212251659 L 857 -363.3878212251657 L 858 -368.0620950840871 L 858 -368.0620950840869 L 859 -372.74881707578834 L 859 -372.7488170757881 L 860 -377.4479872002696 L 860 -377.4479872002694 L 861 -382.15960545753137 L 861 -382.15960545753114 L 862 -386.88367184757294 L 862 -386.8836718475725 L 863 -391.62018637039455 L 863 -391.6201863703941 L 864 -396.36914902599597 L 864 -396.36914902599574 L 865 -401.1305598143779 L 865 -401.13055981437765 L 866 -405.9044187355396 L 866 -405.90441873553937 L 867 -410.6907257894816 L 867 -410.6907257894811 L 868 -415.48948097620337 L 868 -415.48948097620314 L 869 -420.3006842957054 L 869 -420.3006842957052 L 870 -425.12433574798774 L 870 -425.1243357479873 L 871 -429.9604353330499 L 871 -429.96043533304965 L 872 -434.80898305089227 L 872 -434.80898305089204 L 873 -439.6699789015147 L 873 -439.66997890151447 L 874 -444.54342288491694 L 874 -444.5434228849167 L 875 -449.42931500109967 L 875 -449.42931500109944 L 876 -454.3276552500622 L 876 -454.327655250062 L 877 -459.238443631805 L 877 -459.2384436318048 L 878 -464.16168014632785 L 878 -464.1616801463276 L 879 -469.09736479363073 L 879 -469.0973647936303 L 880 -474.04549757371365 L 880 -474.0454975737134 L 880.9999999999999 -479.0060784865766 L 880.9999999999999 -479.00607848657637 L 882 -483.97910753222027 L 882 -483.9791075322198 L 883 -488.9645847106435 L 883 -488.96458471064307 L 884 -493.9625100218468 L 884 -493.9625100218466 L 885 -498.97288346583014 L 885 -498.9728834658297 L 886 -503.9957050425935 L 886 -503.9957050425933 L 887 -509.0309747521371 L 887 -509.0309747521369 L 888 -514.0786925944608 L 888 -514.0786925944603 L 889 -519.1388585695645 L 889 -519.1388585695643 L 890 -524.2114726774482 L 890 -524.211472677448 L 891 -529.296534918112 L 891 -529.2965349181118 L 892 -534.3940452915563 L 892 -534.3940452915558 L 893 -539.5040037977801 L 893 -539.5040037977799 L 894 -544.6264104367842 L 894 -544.626410436784 L 895 -549.7612652085686 L 895 -549.7612652085681 L 896 -554.9085681131328 L 896 -554.9085681131326 L 897 -560.0683191504772 L 897 -560.068319150477 L 898 -565.2405183206015 L 898 -565.2405183206013 L 899 -570.4251656235062 L 899 -570.425165623506 L 900 -575.6222610591908 L 900 -575.6222610591904 L 900.9999999999999 -580.8318046276556 L 900.9999999999999 -580.8318046276552 L 902 -586.0537963289007 L 902 -586.0537963289005 L 903 -591.2882361629256 L 903 -591.2882361629252 L 904 -596.5351241297305 L 904 -596.5351241297303 L 905 -601.7944602293155 L 905 -601.7944602293153 L 906 -607.0662444616808 L 906 -607.0662444616805 L 907 -612.3504768268258 L 907 -612.3504768268256 L 908 -617.6471573247511 L 908 -617.6471573247511 L 909 -622.9562859554567 L 909 -622.9562859554562 L 910 -628.2778627189421 L 910 -628.2778627189418 L 911 -633.6118876152075 L 911 -633.6118876152073 L 912 -638.9583606442532 L 912 -638.9583606442529 L 913 -644.3172818060791 L 913 -644.3172818060787 L 914 -649.6886511006846 L 914 -649.6886511006844 L 915 -655.0724685280704 L 915 -655.0724685280702 L 916 -660.4687340882365 L 916 -660.4687340882363 L 917 -665.8774477811826 L 917 -665.8774477811824 L 918 -671.2986096069087 L 918 -671.2986096069083 L 919 -676.7322195654147 L 919 -676.7322195654147 L 920 -682.1782776567011 L 920 -682.1782776567009 L 920.9999999999999 -687.6367838807676 L 920.9999999999999 -687.6367838807673 L 921.9999999999999 -693.1077382376138 L 921.9999999999999 -693.1077382376138 L 923 -698.5911407272406 L 923 -698.5911407272406 L 924 -704.0869913496474 L 924 -704.0869913496472 L 925 -709.5952901048342 L 925 -709.595290104834 L 926 -715.1160369928009 L 926 -715.1160369928007 L 927 -720.6492320135478 L 927 -720.6492320135476 L 928 -726.1948751670748 L 928 -726.1948751670745 L 929 -731.752966453382 L 929 -731.7529664533813 L 930 -737.323505872469 L 930 -737.3235058724688 L 931 -742.9064934243361 L 931 -742.9064934243361 L 932 -748.5019291089836 L 932 -748.5019291089832 L 933 -754.1098129264108 L 933 -754.1098129264105 L 934 -759.7301448766184 L 934 -759.7301448766179 L 935 -765.3629249596061 L 935 -765.3629249596054 L 936 -771.0081531753733 L 936 -771.0081531753731 L 937 -776.6658295239213 L 937 -776.6658295239206 L 938 -782.335954005249 L 938 -782.3359540052486 L 939 -788.0185266193569 L 939 -788.0185266193564 L 940 -793.7135473662449 L 940 -793.7135473662443 L 940.9999999999999 -799.4210162459128 L 940.9999999999999 -799.4210162459124 L 941.9999999999999 -805.1409332583612 L 941.9999999999999 -805.1409332583605 L 943 -810.8732984035896 L 943 -810.8732984035889 L 944 -816.6181116815981 L 944 -816.6181116815974 L 945 -822.3753730923863 L 945 -822.3753730923859 L 946 -828.1450826359546 L 946 -828.1450826359542 L 947 -833.9272403123032 L 947 -833.9272403123027 L 948 -839.7218461214318 L 948 -839.7218461214311 L 949 -845.5289000633404 L 949 -845.5289000633397 L 950 -851.3484021380293 L 950 -851.3484021380289 L 951 -857.180352345498 L 951 -857.1803523454973 L 952 -863.0247506857472 L 952 -863.0247506857465 L 953 -868.881597158776 L 953 -868.8815971587753 L 954 -874.7508917645853 L 954 -874.7508917645848 L 955 -880.6326345031744 L 955 -880.6326345031739 L 956 -886.5268253745437 L 956 -886.526825374543 L 957 -892.4334643786931 L 957 -892.4334643786926 L 958 -898.3525515156225 L 958 -898.352551515622 L 959 -904.284086785332 L 959 -904.2840867853313 L 959.9999999999999 -910.2280701878215 L 959.9999999999999 -910.228070187821 L 960.9999999999999 -916.1845017230914 L 960.9999999999999 -916.1845017230908 L 961.9999999999999 -922.153381391141 L 961.9999999999999 -922.1533813911403 L 962.9999999999999 -928.1347091919711 L 962.9999999999999 -928.1347091919704 L 964 -934.1284851255814 L 964 -934.1284851255807 L 965 -940.1347091919713"
                stroke-opacity="0.8" stroke-linecap="round" stroke-linejoin="round" stroke-miterlimit="10"
                stroke-width="3.5" />
            <path fill="none" stroke="rgb(0,0,0)" paint-order="fill stroke markers"
                d=" M -5 511.87151487441895 L 969 511.87151487441895" stroke-opacity="0.4" stroke-linejoin="round"
                stroke-miterlimit="10" stroke-width="2" stroke-dasharray="6,4" />
            <path fill="rgb(97,97,97)" stroke="none" paint-order="stroke fill markers"
                d=" M 487 511.87151487441895 C 487 514.632938623573 484.76142374915395 516.871514874419 482 516.871514874419 C 479.23857625084605 516.871514874419 477 514.632938623573 477 511.87151487441895 C 477 509.110091125265 479.23857625084605 506.87151487441895 482 506.87151487441895 C 484.76142374915395 506.87151487441895 487 509.110091125265 487 511.87151487441895 Z"
                fill-opacity="1" />
            <path fill="none" stroke="rgb(0,0,0)" paint-order="fill stroke markers"
                d=" M 487 511.87151487441895 C 487 514.632938623573 484.76142374915395 516.871514874419 482 516.871514874419 C 479.23857625084605 516.871514874419 477 514.632938623573 477 511.87151487441895 C 477 509.110091125265 479.23857625084605 506.87151487441895 482 506.87151487441895 C 484.76142374915395 506.87151487441895 487 509.110091125265 487 511.87151487441895 Z"
                stroke-opacity="1" stroke-linecap="round" stroke-linejoin="round" stroke-miterlimit="10" />
            <g transform="scale(25,25)">
                <g transform="translate(18.56,21.534)">
                    <path fill="rgb(0,0,0)" stroke="none" paint-order="stroke fill markers"
                        d=" M 0.23900000000000002 -0.683 L 0.165 -0.382 Q 0.223 -0.442 0.28200000000000003 -0.442 Q 0.357 -0.442 0.394 -0.373 Q 0.41500000000000004 -0.333 0.41500000000000004 -0.28200000000000003 Q 0.41500000000000004 -0.176 0.341 -0.084 Q 0.272 0.001 0.189 0.01 Q 0.181 0.011 0.17400000000000002 0.011 Q 0.10200000000000001 0.011 0.067 -0.056 Q 0.047 -0.094 0.047 -0.146 Q 0.047 -0.18 0.063 -0.247 L 0.145 -0.5730000000000001 Q 0.159 -0.632 0.159 -0.635 Q 0.159 -0.646 0.145 -0.649 L 0.145 -0.649 Q 0.133 -0.652 0.109 -0.652 Q 0.08700000000000001 -0.652 0.085 -0.664 Q 0.085 -0.681 0.10400000000000001 -0.684 L 0.226 -0.6940000000000001 Q 0.23900000000000002 -0.6940000000000001 0.23900000000000002 -0.683 M 0.145 -0.305 L 0.123 -0.213 Q 0.107 -0.15 0.107 -0.112 Q 0.107 -0.026000000000000002 0.159 -0.013000000000000001 Q 0.166 -0.011 0.17400000000000002 -0.011 Q 0.227 -0.011 0.273 -0.081 Q 0.28300000000000003 -0.096 0.292 -0.114 Q 0.319 -0.171 0.337 -0.268 Q 0.343 -0.303 0.343 -0.326 Q 0.343 -0.406 0.294 -0.418 L 0.293 -0.419 Q 0.28700000000000003 -0.42 0.28 -0.42 Q 0.22 -0.42 0.16 -0.34 Q 0.152 -0.33 0.145 -0.305 Z" />
                </g>
            </g>
            <g transform="scale(25,25)">
                <g transform="translate(0.6,1.463692)">
                    <path fill="rgb(0,0,0)" stroke="none" paint-order="stroke fill markers"
                        d=" M 0.367 -0.4 L 0.367 -0.4 L 0.307 -0.083 Q 0.298 -0.021 0.271 0.059000000000000004 Q 0.261 0.088 0.251 0.108 Q 0.216 0.182 0.164 0.2 Q 0.151 0.20500000000000002 0.138 0.20500000000000002 Q 0.088 0.20500000000000002 0.064 0.171 Q 0.053 0.156 0.053 0.136 Q 0.053 0.096 0.08700000000000001 0.081 Q 0.097 0.076 0.108 0.076 Q 0.137 0.076 0.14400000000000002 0.101 Q 0.145 0.106 0.145 0.111 Q 0.145 0.145 0.115 0.159 Q 0.10400000000000001 0.164 0.09 0.165 Q 0.109 0.183 0.138 0.183 Q 0.182 0.183 0.20700000000000002 0.085 Q 0.212 0.062 0.219 0.025 L 0.225 -0.005 L 0.3 -0.4 L 0.234 -0.4 Q 0.209 -0.4 0.20700000000000002 -0.40800000000000003 L 0.20600000000000002 -0.40800000000000003 L 0.20600000000000002 -0.41200000000000003 Q 0.20600000000000002 -0.429 0.223 -0.431 L 0.223 -0.431 L 0.23600000000000002 -0.431 L 0.305 -0.431 Q 0.329 -0.556 0.338 -0.588 Q 0.368 -0.6880000000000001 0.444 -0.7030000000000001 Q 0.455 -0.705 0.465 -0.705 Q 0.517 -0.705 0.541 -0.671 L 0.541 -0.671 Q 0.552 -0.656 0.552 -0.636 Q 0.552 -0.596 0.518 -0.581 Q 0.508 -0.5760000000000001 0.497 -0.5760000000000001 Q 0.468 -0.5760000000000001 0.461 -0.601 Q 0.46 -0.606 0.46 -0.611 Q 0.46 -0.642 0.488 -0.657 Q 0.499 -0.664 0.514 -0.665 Q 0.495 -0.683 0.465 -0.683 Q 0.434 -0.683 0.418 -0.649 Q 0.41100000000000003 -0.635 0.394 -0.545 L 0.373 -0.431 L 0.456 -0.431 Q 0.481 -0.431 0.483 -0.42 Q 0.483 -0.402 0.467 -0.4 L 0.466 -0.4 L 0.453 -0.4 L 0.367 -0.4 Z" />
                </g>
                <g transform="translate(1.198,1.463692)">
                    <path fill="rgb(0,0,0)" stroke="none" paint-order="stroke fill markers"
                        d=" M 0.331 0.24 L 0.331 0.24 Q 0.331 0.25 0.321 0.25 Q 0.309 0.25 0.268 0.209 Q 0.20600000000000002 0.147 0.165 0.062 Q 0.099 -0.074 0.099 -0.25 Q 0.099 -0.419 0.162 -0.555 Q 0.214 -0.666 0.294 -0.733 Q 0.315 -0.75 0.321 -0.75 Q 0.331 -0.75 0.331 -0.74 Q 0.331 -0.735 0.318 -0.723 Q 0.157 -0.559 0.157 -0.25 Q 0.157 0.058 0.314 0.218 Q 0.331 0.23500000000000001 0.331 0.24 Z" />
                </g>
                <g transform="translate(1.587,1.463692)">
                    <path fill="rgb(0,0,0)" stroke="none" paint-order="stroke fill markers"
                        d=" M 0.334 -0.302 L 0.3 -0.165 Q 0.28300000000000003 -0.097 0.28300000000000003 -0.077 Q 0.28300000000000003 -0.025 0.32 -0.014 Q 0.328 -0.011 0.338 -0.011 Q 0.388 -0.011 0.429 -0.061 Q 0.456 -0.093 0.47100000000000003 -0.14200000000000002 Q 0.47400000000000003 -0.153 0.484 -0.153 Q 0.496 -0.153 0.496 -0.14300000000000002 Q 0.496 -0.11800000000000001 0.465 -0.07100000000000001 Q 0.41100000000000003 0.011 0.336 0.011 Q 0.268 0.011 0.23700000000000002 -0.046 Q 0.231 -0.055 0.228 -0.065 Q 0.20400000000000001 -0.017 0.162 0.002 Q 0.14300000000000002 0.011 0.123 0.011 Q 0.063 0.011 0.039 -0.024 Q 0.029 -0.037 0.029 -0.055 Q 0.029 -0.092 0.061 -0.107 Q 0.07200000000000001 -0.113 0.084 -0.113 Q 0.114 -0.113 0.12 -0.088 Q 0.121 -0.083 0.121 -0.078 Q 0.121 -0.044 0.08700000000000001 -0.028 Q 0.081 -0.025 0.074 -0.024 Q 0.095 -0.011 0.124 -0.011 Q 0.177 -0.011 0.20800000000000002 -0.082 Q 0.214 -0.097 0.219 -0.115 Q 0.273 -0.319 0.273 -0.353 Q 0.267 -0.41500000000000004 0.219 -0.42 Q 0.167 -0.42 0.124 -0.367 L 0.124 -0.366 Q 0.124 -0.365 0.123 -0.365 Q 0.108 -0.34500000000000003 0.096 -0.319 Q 0.091 -0.307 0.08700000000000001 -0.295 L 0.085 -0.289 Q 0.083 -0.278 0.07200000000000001 -0.278 Q 0.06 -0.278 0.06 -0.28800000000000003 Q 0.06 -0.313 0.092 -0.36 Q 0.146 -0.442 0.221 -0.442 Q 0.298 -0.442 0.329 -0.366 Q 0.361 -0.428 0.41400000000000003 -0.44 Q 0.424 -0.442 0.434 -0.442 Q 0.493 -0.442 0.517 -0.40900000000000003 Q 0.527 -0.395 0.527 -0.376 Q 0.527 -0.335 0.49 -0.321 Q 0.481 -0.318 0.47300000000000003 -0.318 Q 0.442 -0.318 0.436 -0.34500000000000003 Q 0.435 -0.34900000000000003 0.435 -0.353 Q 0.435 -0.383 0.464 -0.4 Q 0.47300000000000003 -0.405 0.483 -0.40700000000000003 Q 0.462 -0.42 0.433 -0.42 Q 0.365 -0.42 0.337 -0.314 Q 0.335 -0.308 0.334 -0.302 Z" />
                </g>
                <g transform="translate(2.159,1.463692)">
                    <path fill="rgb(0,0,0)" stroke="none" paint-order="stroke fill markers"
                        d=" M 0.289 -0.25 L 0.289 -0.25 Q 0.289 -0.081 0.226 0.055 Q 0.17400000000000002 0.166 0.094 0.233 Q 0.073 0.25 0.067 0.25 Q 0.057 0.25 0.057 0.24 Q 0.057 0.23500000000000001 0.07 0.223 Q 0.231 0.059000000000000004 0.231 -0.25 Q 0.231 -0.555 0.081 -0.712 L 0.076 -0.717 Q 0.057 -0.735 0.057 -0.74 Q 0.057 -0.75 0.067 -0.75 Q 0.079 -0.75 0.12 -0.709 Q 0.182 -0.647 0.223 -0.562 Q 0.289 -0.426 0.289 -0.25 Z" />
                </g>
                <g transform="translate(2.8257777777777777,1.463692)">
                    <path fill="rgb(0,0,0)" stroke="none" paint-order="stroke fill markers"
                        d=" M 0.687 -0.327 L 0.09 -0.327 Q 0.058 -0.327 0.056 -0.34700000000000003 Q 0.056 -0.367 0.089 -0.367 L 0.6880000000000001 -0.367 Q 0.72 -0.367 0.721 -0.34700000000000003 Q 0.721 -0.327 0.687 -0.327 M 0.6880000000000001 -0.133 L 0.089 -0.133 Q 0.057 -0.133 0.056 -0.153 Q 0.056 -0.17300000000000001 0.09 -0.17300000000000001 L 0.687 -0.17300000000000001 Q 0.719 -0.17300000000000001 0.721 -0.153 Q 0.721 -0.133 0.6880000000000001 -0.133 Z" />
                </g>
                <g transform="translate(3.8815555555555554,1.463692)">
                    <path fill="rgb(0,0,0)" stroke="none" paint-order="stroke fill markers"
                        d=" M 0.334 -0.302 L 0.3 -0.165 Q 0.28300000000000003 -0.097 0.28300000000000003 -0.077 Q 0.28300000000000003 -0.025 0.32 -0.014 Q 0.328 -0.011 0.338 -0.011 Q 0.388 -0.011 0.429 -0.061 Q 0.456 -0.093 0.47100000000000003 -0.14200000000000002 Q 0.47400000000000003 -0.153 0.484 -0.153 Q 0.496 -0.153 0.496 -0.14300000000000002 Q 0.496 -0.11800000000000001 0.465 -0.07100000000000001 Q 0.41100000000000003 0.011 0.336 0.011 Q 0.268 0.011 0.23700000000000002 -0.046 Q 0.231 -0.055 0.228 -0.065 Q 0.20400000000000001 -0.017 0.162 0.002 Q 0.14300000000000002 0.011 0.123 0.011 Q 0.063 0.011 0.039 -0.024 Q 0.029 -0.037 0.029 -0.055 Q 0.029 -0.092 0.061 -0.107 Q 0.07200000000000001 -0.113 0.084 -0.113 Q 0.114 -0.113 0.12 -0.088 Q 0.121 -0.083 0.121 -0.078 Q 0.121 -0.044 0.08700000000000001 -0.028 Q 0.081 -0.025 0.074 -0.024 Q 0.095 -0.011 0.124 -0.011 Q 0.177 -0.011 0.20800000000000002 -0.082 Q 0.214 -0.097 0.219 -0.115 Q 0.273 -0.319 0.273 -0.353 Q 0.267 -0.41500000000000004 0.219 -0.42 Q 0.167 -0.42 0.124 -0.367 L 0.124 -0.366 Q 0.124 -0.365 0.123 -0.365 Q 0.108 -0.34500000000000003 0.096 -0.319 Q 0.091 -0.307 0.08700000000000001 -0.295 L 0.085 -0.289 Q 0.083 -0.278 0.07200000000000001 -0.278 Q 0.06 -0.278 0.06 -0.28800000000000003 Q 0.06 -0.313 0.092 -0.36 Q 0.146 -0.442 0.221 -0.442 Q 0.298 -0.442 0.329 -0.366 Q 0.361 -0.428 0.41400000000000003 -0.44 Q 0.424 -0.442 0.434 -0.442 Q 0.493 -0.442 0.517 -0.40900000000000003 Q 0.527 -0.395 0.527 -0.376 Q 0.527 -0.335 0.49 -0.321 Q 0.481 -0.318 0.47300000000000003 -0.318 Q 0.442 -0.318 0.436 -0.34500000000000003 Q 0.435 -0.34900000000000003 0.435 -0.353 Q 0.435 -0.383 0.464 -0.4 Q 0.47300000000000003 -0.405 0.483 -0.40700000000000003 Q 0.462 -0.42 0.433 -0.42 Q 0.365 -0.42 0.337 -0.314 Q 0.335 -0.308 0.334 -0.302 Z" />
                </g>
                <g transform="translate(4.453555555555555,1.0508) scale(0.7,0.7)">
                    <path fill="rgb(0,0,0)" stroke="none" paint-order="stroke fill markers"
                        d=" M 0.449 -0.17400000000000002 L 0.449 -0.17400000000000002 L 0.421 0 L 0.05 0 Q 0.05 -0.025 0.056 -0.032 L 0.061 -0.037 L 0.253 -0.251 Q 0.358 -0.369 0.358 -0.47200000000000003 Q 0.358 -0.561 0.304 -0.607 L 0.303 -0.608 L 0.302 -0.608 Q 0.27 -0.635 0.224 -0.635 Q 0.152 -0.635 0.109 -0.5730000000000001 Q 0.097 -0.555 0.089 -0.533 Q 0.092 -0.534 0.10200000000000001 -0.534 Q 0.14200000000000002 -0.534 0.153 -0.498 L 0.153 -0.497 Q 0.155 -0.49 0.155 -0.482 Q 0.155 -0.442 0.117 -0.431 Q 0.109 -0.429 0.10300000000000001 -0.429 Q 0.066 -0.429 0.054 -0.46 Q 0.05 -0.47100000000000003 0.05 -0.485 Q 0.05 -0.562 0.109 -0.617 Q 0.162 -0.666 0.23700000000000002 -0.666 Q 0.34700000000000003 -0.666 0.40800000000000003 -0.592 Q 0.443 -0.549 0.448 -0.49 Q 0.449 -0.481 0.449 -0.47200000000000003 Q 0.449 -0.399 0.394 -0.333 Q 0.365 -0.299 0.304 -0.243 L 0.243 -0.189 L 0.233 -0.18 L 0.127 -0.077 L 0.307 -0.077 Q 0.395 -0.077 0.402 -0.085 Q 0.41200000000000003 -0.099 0.424 -0.17400000000000002 L 0.449 -0.17400000000000002 Z" />
                </g>
                <g transform="translate(5.045703057975778,1.463692)">
                    <path fill="rgb(0,0,0)" stroke="none" paint-order="stroke fill markers"
                        d=" M 0.40900000000000003 -0.23 L 0.40900000000000003 0.05 Q 0.40900000000000003 0.082 0.389 0.083 Q 0.369 0.083 0.369 0.05 L 0.369 -0.23 L 0.089 -0.23 Q 0.057 -0.23 0.056 -0.25 Q 0.056 -0.27 0.089 -0.27 L 0.369 -0.27 L 0.369 -0.55 Q 0.369 -0.582 0.389 -0.583 Q 0.40900000000000003 -0.583 0.40900000000000003 -0.55 L 0.40900000000000003 -0.27 L 0.6880000000000001 -0.27 Q 0.72 -0.27 0.721 -0.25 Q 0.721 -0.23 0.6880000000000001 -0.23 L 0.40900000000000003 -0.23 Z" />
                </g>
                <g transform="translate(6.0459252801979995,1.463692)">
                    <path fill="rgb(0,0,0)" stroke="none" paint-order="stroke fill markers"
                        d=" M 0.294 -0.64 L 0.294 -0.079 Q 0.294 -0.049 0.306 -0.041 Q 0.323 -0.031 0.387 -0.031 L 0.419 -0.031 L 0.419 0 Q 0.384 -0.003 0.257 -0.003 Q 0.13 -0.003 0.095 0 L 0.095 -0.031 L 0.127 -0.031 Q 0.20400000000000001 -0.031 0.215 -0.049 L 0.216 -0.05 Q 0.22 -0.058 0.22 -0.079 L 0.22 -0.597 Q 0.168 -0.5710000000000001 0.089 -0.5710000000000001 L 0.089 -0.602 Q 0.209 -0.602 0.271 -0.666 Q 0.29 -0.666 0.293 -0.659 L 0.293 -0.659 L 0.293 -0.658 Q 0.294 -0.655 0.294 -0.64 Z" />
                </g>
            </g>
        </g>
    </g>
</svg>