<?xml version="1.0" encoding="UTF-8" standalone="no"?>
<!-- Created with Inkscape (http://www.inkscape.org/) -->

<svg width="200" height="150" viewBox="0 0 200 150" version="1.1" id="svg1" xml:space="preserve"
  inkscape:export-filename="derivada.svg" inkscape:export-xdpi="96" inkscape:export-ydpi="96"
  xmlns:inkscape="http://www.inkscape.org/namespaces/inkscape"
  xmlns:sodipodi="http://sodipodi.sourceforge.net/DTD/sodipodi-0.dtd" xmlns="http://www.w3.org/2000/svg"
  xmlns:svg="http://www.w3.org/2000/svg">
  <sodipodi:namedview id="namedview1" pagecolor="#505050" bordercolor="#eeeeee" borderopacity="1"
    inkscape:showpageshadow="false" inkscape:pageopacity="0" inkscape:pagecheckerboard="0" inkscape:deskcolor="#505050"
    inkscape:document-units="px" showborder="true" showguides="true">
    <sodipodi:guide position="-163.56075,74.941298" orientation="0,-1" id="guide1" inkscape:locked="false" />
    <sodipodi:guide position="100.26498,219.45731" orientation="1,0" id="guide2" inkscape:locked="false" />
  </sodipodi:namedview>
  <defs id="defs1" />
  <g id="g120" clip-path="url(#clipPath122)" transform="matrix(0.23062479,0,0,0.23062479,0.58750573,-13.694739)">
    <path fill="none" stroke="currentColor" paint-order="fill stroke markers" d="m 145.5,2.5 v 702" stroke-opacity="1"
      stroke-miterlimit="10" id="path2" />
    <path fill="none" stroke="currentColor" paint-order="fill stroke markers" d="m 145.5,1.5 -4,4" stroke-opacity="1"
      stroke-miterlimit="10" id="path3" />
    <path fill="none" stroke="currentColor" paint-order="fill stroke markers" d="m 145.5,1.5 4,4" stroke-opacity="1"
      stroke-miterlimit="10" id="path4" />
    <path fill="none" stroke="currentColor" paint-order="fill stroke markers" d="m 0.5,652.5 h 893" stroke-opacity="1"
      stroke-miterlimit="10" id="path5" />
    <path fill="none" stroke="currentColor" paint-order="fill stroke markers" d="m 894.5,652.5 -4,-4" stroke-opacity="1"
      stroke-miterlimit="10" id="path6" />
    <path fill="none" stroke="currentColor" paint-order="fill stroke markers" d="m 894.5,652.5 -4,4" stroke-opacity="1"
      stroke-miterlimit="10" id="path7" />
    <path fill="none" stroke="currentColor" paint-order="fill stroke markers" d="m 30.5,652.5 v 3" stroke-opacity="1"
      stroke-miterlimit="10" id="path9" style="display:inline" />
    <path fill="none" stroke="currentColor" paint-order="fill stroke markers" d="m 145.5,652.5 v 3" stroke-opacity="1"
      stroke-miterlimit="10" id="path10" style="display:inline" />
    <path fill="none" stroke="currentColor" paint-order="fill stroke markers" d="m 260.5,652.5 v 3" stroke-opacity="1"
      stroke-miterlimit="10" id="path12" style="display:inline" />
    <path fill="none" stroke="currentColor" paint-order="fill stroke markers" d="m 376.5,652.5 v 3" stroke-opacity="1"
      stroke-miterlimit="10" id="path15" style="display:inline" />
    <path fill="none" stroke="currentColor" paint-order="fill stroke markers" d="m 491.5,652.5 v 3" stroke-opacity="1"
      stroke-miterlimit="10" id="path18" style="display:inline" />
    <path fill="none" stroke="currentColor" paint-order="fill stroke markers" d="m 607.5,652.5 v 3" stroke-opacity="1"
      stroke-miterlimit="10" id="path21" style="display:inline" />
    <path fill="none" stroke="currentColor" paint-order="fill stroke markers" d="m 722.5,652.5 v 3" stroke-opacity="1"
      stroke-miterlimit="10" id="path24" style="display:inline" />
    <path fill="none" stroke="currentColor" paint-order="fill stroke markers" d="m 838.5,652.5 v 3" stroke-opacity="1"
      stroke-miterlimit="10" id="path27" style="display:inline" />
    <path fill="none" stroke="currentColor" paint-order="fill stroke markers" d="m 142.5,536.5 h 3" stroke-opacity="1"
      stroke-miterlimit="10" id="path28" style="display:inline" />
    <path fill="none" stroke="currentColor" paint-order="fill stroke markers" d="m 142.5,421.5 h 3" stroke-opacity="1"
      stroke-miterlimit="10" id="path29" style="display:inline" />
    <path fill="none" stroke="currentColor" paint-order="fill stroke markers" d="m 142.5,305.5 h 3" stroke-opacity="1"
      stroke-miterlimit="10" id="path30" style="display:inline" />
    <path fill="none" stroke="currentColor" paint-order="fill stroke markers" d="m 142.5,190.5 h 3" stroke-opacity="1"
      stroke-miterlimit="10" id="path31" style="display:inline" />
    <path fill="none" stroke="currentColor" paint-order="fill stroke markers" d="m 142.5,74.5 h 3" stroke-opacity="1"
      stroke-miterlimit="10" id="path32" style="display:inline" />
    <path fill="#1565c0" stroke="none" paint-order="stroke fill markers" fill-rule="evenodd"
      d="M 376.42353,507.7863 H 609.3 V 295.33391 Z" fill-opacity="0.0980392" id="path49" />
    <path fill="none" stroke="#800000" paint-order="fill stroke markers"
      d="m 0.5,698.16243 v 0.24318 -0.24318 l 1,-0.24403 v 0 l 1,-0.24489 v 0 l 1,-0.24575 v 0 l 1,-0.24662 v 0 l 1,-0.24748 v 0 l 1,-0.24836 v 0 l 1,-0.24922 v 0 l 1,-0.25011 v 0 l 1,-0.25099 v 0 l 1,-0.25186 v 0 l 1,-0.25276 v 0 l 1,-0.25364 v 0 l 1,-0.25454 v 0 l 1,-0.25543 v 0 l 1,-0.25633 v 0 l 1,-0.25724 v 0 l 1,-0.25813 v 0 l 1,-0.25905 v 0 l 1,-0.25996 v 0 l 1,-0.26087 v 0 l 1,-0.26179 v 0 l 1,-0.26271 v 0 l 1,-0.26364 v 0 l 1,-0.26456 v 0 l 1,-0.2655 v 0 l 1,-0.26643 v 0 l 1,-0.26736 v 0 l 1,-0.26831 v 0 l 1,-0.26925 v 0 l 1,-0.2702 v 0 l 1,-0.27115 v 0 l 1,-0.2721 v 0 l 1,-0.27306 v 0 l 1,-0.27402 v 0 l 1,-0.27499 v 0 l 1,-0.27595 v 0 l 1,-0.27693 v 0 l 1,-0.2779 v 0 l 1,-0.27887 v 0 l 1,-0.27986 v 0 l 1,-0.28084 v 0 l 1,-0.28183 v 0 l 1,-0.28283 v 0 l 1,-0.28381 v 0 l 1,-0.28482 v 0 l 1,-0.28582 v 0 l 1,-0.28682 v 0 l 1,-0.28784 v 0 l 1,-0.28884 v 0 l 1,-0.28986 v 0 l 1,-0.29089 v 0 l 1,-0.2919 v 0 l 1,-0.29294 v 0 l 1,-0.29396 v 0 l 1,-0.295 v 0 l 1,-0.29603 v 0 l 1,-0.29708 v 0 l 1,-0.29813 v 0 l 1,-0.29917 v 0 l 1,-0.30022 v 0 l 1,-0.30128 v 0 l 1,-0.30235 v 0 l 1,-0.3034 v 0 l 1,-0.30447 v 0 l 1,-0.30555 v 0 l 1,-0.30662 v 0 l 1,-0.30769 v 0 l 1,-0.30879 v 0 l 1,-0.30986 v 0 l 1,-0.31096 v 0 l 1,-0.31205 v 0 l 1,-0.31315 v 0 l 1,-0.31425 v 0 l 1,-0.31536 v 0 l 1,-0.31647 v 0 l 1,-0.31758 v 0 l 1,-0.3187 v 0 l 1,-0.31982 v 0 l 1,-0.32094 v 0 l 1,-0.32207 v 0 l 1,-0.32321 v 0 l 1,-0.32435 v 0 l 1,-0.32548 v 0 l 1,-0.32663 v 0 l 1,-0.32778 v 0 l 1,-0.32894 v 0 l 1,-0.33009 v 0 l 1,-0.33125 v 0 l 1,-0.33242 v 0 l 1,-0.33359 v 0 l 1,-0.33476 v 0 l 1,-0.33594 v 0 l 1,-0.33712 v 0 l 1,-0.33831 v 0 l 1,-0.3395 v 0 l 1,-0.34069 v 0 l 1,-0.34189 v 0 l 1,-0.34309 v 0 l 1,-0.34431 v 0 l 1,-0.34551 v 0 l 1,-0.34673 v 0 l 1,-0.34795 v 0 l 1,-0.34917 v 0 l 1,-0.3504 v 0 l 1,-0.35164 v 0 l 1,-0.35287 v 0 l 1,-0.35411 v 0 l 1,-0.35536 v 0 l 1,-0.35661 v 0 l 1,-0.35787 v 0 l 1,-0.35912 v 0 l 1,-0.36039 v 0 l 1,-0.36166 v 0 l 1,-0.36293 v 0 l 1,-0.3642 v 0 l 1,-0.36549 v 0 l 1,-0.36677 v 0 l 1,-0.36807 v 0 l 1,-0.36935 v 0 l 1,-0.37066 v 0 l 1,-0.37197 v 0 l 1,-0.37327 v 0 l 1,-0.37458 v 0 l 1,-0.37591 v 0 l 1,-0.37722 v 0 l 1,-0.37855 v 0 l 1,-0.37989 v 0 l 1,-0.38122 v 0 l 1,-0.38256 v 0 l 1,-0.38391 v 0 l 1,-0.38526 v 0 l 1,-0.38662 v 0 l 1,-0.38797 v 0 l 1,-0.38934 v 0 l 1,-0.39072 v 0 l 1,-0.39208 v 0 l 1,-0.39347 v 0 l 1,-0.39485 v 0 l 1,-0.39624 v 0 l 1,-0.39763 v 0 l 1,-0.39903 v 0 l 1,-0.40044 v 0 l 1,-0.40184 v 0 l 1,-0.40326 v 0 l 1,-0.40468 v 0 l 1,-0.40611 v 0 l 1,-0.40753 v 0 l 1,-0.40896 v 0 l 1,-0.41041 v 0 l 1,-0.41185 v 0 l 1,-0.41329 v 0 l 1,-0.41475 v 0 l 1,-0.41622 v 0 l 1,-0.41767 v 0 l 1,-0.41915 v 0 l 1,-0.42062 v 0 l 1,-0.4221 v 0 l 1,-0.42358 v 0 l 1,-0.42508 v 0 l 1,-0.42657 v 0 l 1,-0.42807 v 0 l 1,-0.42958 v 0 l 1,-0.43109 v 0 l 1,-0.43261 v 0 l 1,-0.43413 v 0 l 1,-0.43566 v 0 l 1,-0.43719 v 0 l 1,-0.43873 v 0 l 1,-0.44027 v 0 l 1,-0.44182 v 0 l 1,-0.44337 v 0 l 1,-0.44494 v 0 l 1,-0.4465 v 0 l 1,-0.44807 v 0 l 1,-0.44965 v 0 l 1,-0.45124 v 0 l 1,-0.45281 v 0 l 1,-0.45442 v 0 l 1,-0.45601 v 0 l 1,-0.45761 v 0 l 1,-0.45923 v 0 l 1,-0.46084 v 0 l 1,-0.46247 v 0 l 1,-0.46409 v 0 l 1,-0.46572 v 0 l 1,-0.46736 v 0 l 1,-0.46901 v 0 l 1,-0.47066 v 0 l 1,-0.47231 v 0 l 1,-0.47398 v 0 l 1,-0.47564 v 0 l 1,-0.47732 v 0 l 1,-0.47899 v 0 l 1,-0.48068 v 0 l 1,-0.48238 v 0 l 1,-0.48407 v 0 l 1,-0.48577 v 0 l 1,-0.48748 v 0 l 1,-0.4892 v 0 l 1,-0.49092 v 0 l 1,-0.49265 v 0 l 1,-0.49438 v 0 l 1,-0.49612 v 0 l 1,-0.49786 v 0 l 1,-0.49962 v 0 l 1,-0.50137 v 0 l 1,-0.50314 v 0 l 1,-0.50491 v 0 l 1,-0.50669 v 0 l 1,-0.50847 v 0 l 1,-0.51026 v 0 l 1,-0.51205 v 0 l 1,-0.51386 v 0 l 1,-0.51566 v 0 l 1,-0.51748 v 0 l 1,-0.5193 v 0 l 1,-0.52113 v 0 l 1,-0.52295 v 0 l 1,-0.5248 v 0 l 1,-0.52665 v 0 l 1,-0.5285 v 0 l 1,-0.53036 v 0 l 1,-0.53223 v 0 l 1,-0.53409 v 0 l 1,-0.53598 v 0 l 1,-0.53787 v 0 l 1,-0.53975 v 0 l 1,-0.54166 v 0 l 1,-0.54356 v 0 l 1,-0.54547 v 0 l 1,-0.54739 v 0 l 1,-0.54932 v 0 l 1,-0.55126 v 0 l 1,-0.55319 v 0 l 1,-0.55514 v 0 l 1,-0.55709 v 0 l 1,-0.55905 v 0 l 1,-0.56102 v 0 l 1,-0.56299 v 0 l 1,-0.56497 v 0 l 1,-0.56697 v 0 l 1,-0.56895 v 0 l 1,-0.57096 v 0 l 1,-0.57297 v 0 l 1,-0.57498 v 0 l 1,-0.57701 v 0 l 1,-0.57904 v 0 l 1,-0.58107 v 0 l 1,-0.58312 v 0 l 1,-0.58517 v 0 l 1,-0.58723 v 0 l 1,-0.5893 v 0 l 1,-0.59137 v 0 l 1,-0.59345 v 0 l 1,-0.59554 v 0 l 1,-0.59763 v 0 l 1,-0.59974 v 0 l 1,-0.60185 v 0 l 1,-0.60396 v 0 l 1,-0.60609 v 0 l 1,-0.60823 v 0 l 1,-0.61036 v 0 l 1,-0.61251 v 0 l 1,-0.61467 v 0 l 1,-0.61683 v 0 l 1,-0.619 v 0 l 1,-0.62117 v 0 l 1,-0.62337 v 0 l 1,-0.62555 v 0 l 1,-0.62776 v 0 l 1,-0.62997 v 0 l 1,-0.63218 v 0 l 1,-0.63441 v 0 l 1,-0.63664 v 0 l 1,-0.63888 v 0 l 1,-0.64113 v 0 l 1,-0.64338 v 0 l 1,-0.64565 v 0 l 1,-0.64792 v 0 l 1,-0.6502 v 0 l 1,-0.65248 v 0 l 1,-0.65479 v 0 l 1,-0.65708 v 0 l 1,-0.6594 v 0 l 1,-0.66172 v 0 l 1,-0.66405 v 0 l 1,-0.66638 v 0 l 1,-0.66873 v 0 l 1,-0.67109 v 0 l 1,-0.67344 v 0 l 1,-0.67581 v 0 l 1,-0.67819 v 0 l 1,-0.68058 v 0 l 1,-0.68297 v 0 l 1,-0.68538 v 0 l 1,-0.68778 v 0 l 1,-0.69021 v 0 l 1,-0.69264 v 0 l 1,-0.69507 v 0 l 1,-0.69752 v 0 l 1,-0.69997 v 0 l 1,-0.70244 v 0 l 1,-0.7049 v 0 l 1,-0.70739 v 0 l 1,-0.70988 v 0 l 1,-0.71237 v 0 l 1,-0.71488 v 0 l 1,-0.7174 v 0 l 1,-0.71992 v 0 l 1,-0.72245 v 0 l 1,-0.725 v 0 l 1,-0.72755 v 0 l 1,-0.7301 v 0 l 1,-0.73268 v 0 l 1,-0.73525 v 0 l 1,-0.73785 v 0 l 1,-0.74043 v 0 l 1,-0.74305 v 0 l 1,-0.74565 v 0 l 1,-0.74828 v 0 l 1,-0.75092 v 0 l 1,-0.75355 v 0 l 1,-0.75621 v 0 l 1,-0.75887 v 0 l 1,-0.76154 v 0 l 1,-0.76422 v 0 l 1,-0.7669 v 0 l 1,-0.76961 v 0 l 1,-0.77231 v 0 l 1,-0.77504 v 0 l 1,-0.77775 v 0 l 1,-0.7805 v 0 l 1,-0.78324 v 0 l 1,-0.786 v 0 l 1,-0.78876 v 0 l 1,-0.79154 v 0 l 1,-0.79432 v 0 l 1,-0.79712 v 0 l 1,-0.79992 v 0 l 1,-0.80274 v 0 l 1,-0.80556 v 0 l 1,-0.8084 v 0 l 1,-0.81124 v 0 l 1,-0.8141 v 0 l 1,-0.81696 v 0 l 1,-0.81984 v 0 l 1,-0.82272 v 0 l 1,-0.82561 v 0 l 1,-0.82852 v 0 l 1,-0.83143 v 0 l 1,-0.83437 v 0 l 1,-0.83729 v 0 l 1,-0.84024 v 0 l 1,-0.8432 v 0 l 1,-0.84617 v 0 l 1,-0.84914 v 0 l 1,-0.85213 v 0 l 1,-0.85513 v 0 l 1,-0.85814 v 0 l 1,-0.86116 v 0 l 1,-0.86419 v 0 l 1,-0.86723 v 0 l 1,-0.87028 v 0 l 1,-0.87334 v 0 l 1,-0.87642 v 0 l 1,-0.8795 v 0 l 1,-0.88259 v 0 l 1,-0.8857 v 0 l 1,-0.88882 v 0 l 1,-0.89194 v 0 l 1,-0.89508 v 0 l 1,-0.89823 v 0 l 1,-0.9014 v 0 l 1,-0.90456 v 0 l 1,-0.90775 v 0 l 1,-0.91094 v 0 l 1,-0.91414 v 0 l 1,-0.91737 v 0 l 1,-0.92059 v 0 l 1,-0.92383 v 0 l 1,-0.92708 v 0 l 1,-0.93034 v 0 l 1,-0.93362 v 0 l 1,-0.9369 v 0 l 1,-0.94019 v 0 l 1,-0.94351 v 0 l 1,-0.94683 v 0 l 1,-0.95015 v 0 l 1,-0.95351 v 0 l 1,-0.95685 v 0 l 1,-0.96022 v 0 l 1,-0.96361 v 0 l 1,-0.96699 v 0 l 1,-0.97039 v 0 l 1,-0.97381 v 0 l 1,-0.97724 v 0 l 1,-0.98067 v 0 l 1,-0.98412 v 0 l 1,-0.98759 v 0 l 1,-0.99106 v 0 l 1,-0.99455 v 0 l 1,-0.99805 v 0 l 1,-1.00156 v 0 l 1,-1.00509 v 0 l 1,-1.00862 v 0 l 1,-1.01217 v 0 l 1,-1.01573 v 0 l 1,-1.01931 v 0 l 1,-1.02289 v 0 l 1,-1.0265 v 0 l 1,-1.0301 v 0 l 1,-1.03373 v 0 l 1,-1.03736 v 0 l 1,-1.04102 v 0 l 1,-1.04468 v 0 l 1,-1.04835 v 0 l 1,-1.05205 v 0 l 1,-1.05574 v 0 l 1,-1.05946 v 0 l 1,-1.06319 v 0 l 1,-1.06693 v 0 l 1,-1.07068 v 0 l 1,-1.07446 v 0 l 1,-1.07823 v 0 l 1,-1.08202 v 0 l 1,-1.08583 v 0 l 1,-1.08966 v 0 l 1,-1.09349 v 0 l 1,-1.09733 v 0 l 1,-1.1012 v 0 l 1,-1.10507 v 0 l 1,-1.10896 v 0 l 1,-1.11286 v 0 l 1,-1.11677 v 0 l 1,-1.12071 v 0 l 1,-1.12465 v 0 l 1,-1.12861 v 0 l 1,-1.13258 v 0 l 1,-1.13656 v 0 l 1,-1.14056 v 0 l 1,-1.14458 v 0 l 1,-1.1486 v 0 l 1,-1.15265 v 0 l 1,-1.1567 v 0 l 1,-1.16077 v 0 l 1,-1.16486 v 0 l 1,-1.16895 v 0 l 1,-1.17307 v 0 l 1,-1.17719 v 0 l 1,-1.18134 v 0 l 1,-1.18549 v 0 l 1,-1.18967 v 0 l 1,-1.19385 v 0 l 1,-1.19805 v 0 l 1,-1.20227 v 0 l 1,-1.20649 v 0 l 1,-1.21075 v 0 l 1,-1.215 v 0 l 1,-1.21928 v 0 l 1,-1.22357 v 0 l 1,-1.22787 v 0 l 1,-1.2322 v 0 l 1,-1.23653 v 0 l 1,-1.24088 v 0 l 1,-1.24524 v 0 l 1,-1.24963 v 0 l 1,-1.25403 v 0 l 1,-1.25844 v 0 l 1,-1.26286 v 0 l 1,-1.26731 v 0 l 1,-1.27177 v 0 l 1,-1.27625 v 0 l 1,-1.28073 v 0 l 1,-1.28524 v 0 l 1,-1.28977 v 0 l 1,-1.2943 v 0 l 1,-1.29885 v 0 l 1,-1.30343 v 0 l 1,-1.30801 v 0 l 1,-1.31262 v 0 l 1,-1.31723 v 0 l 1,-1.32187 v 0 l 1,-1.32652 v 0 l 1,-1.33119 v 0 l 1,-1.33587 v 0 l 1,-1.34057 v 0 l 1,-1.34529 v 0 l 1,-1.35002 v 0 l 1,-1.35478 v 0 l 1,-1.35954 v 0 l 1,-1.36432 v 0 l 1,-1.36912 v 0 l 1,-1.37395 v 0 l 1,-1.37877 v 0 l 1,-1.38363 v 0 l 1,-1.3885 v 0 l 1,-1.39338 v 0 l 1,-1.39828 v 0 l 1,-1.40321 v 0 l 1,-1.40814 v 0 l 1,-1.4131 v 0 l 1,-1.41806 v 0 l 1,-1.42306 v 0 l 1,-1.42807 v 0 l 1,-1.43309 v 0 l 1,-1.43813 v 0 l 1,-1.4432 v 0 l 1,-1.44827 v 0 l 1,-1.45337 v 0 l 1,-1.45848 v 0 l 1,-1.46361 v 0 l 1,-1.46877 v 0 l 1,-1.47393 v 0 l 1,-1.47912 v 0 l 1,-1.48432 v 0 l 1,-1.48954 v 0 l 1,-1.49479 v 0 l 1,-1.50005 v 0 l 1,-1.50532 v 0 l 1,-1.51062 v 0 l 1,-1.51594 v 0 l 1,-1.52127 v 0 l 1,-1.52662 v 0 l 1,-1.532 v 0 l 1,-1.53738 v 0 l 1,-1.5428 v 0 l 1,-1.54822 v 0 l 1,-1.55367 v 0 l 1,-1.55914 v 0 l 1,-1.56463 v 0 l 1,-1.57013 v 0 l 1,-1.57565 v 0 l 1,-1.5812 v 0 l 1,-1.58676 v 0 l 1,-1.59235 v 0 l 1,-1.59795 v 0 l 1,-1.60357 v 0 l 1,-1.60921 v 0 l 1,-1.61488 v 0 l 1,-1.62056 v 0 l 1,-1.62626 v 0 l 1,-1.63198 v 0 l 1,-1.63773 v 0 l 1,-1.64348 v 0 l 1,-1.64927 v 0 l 1,-1.65508 v 0 l 1,-1.66089 v 0 l 1,-1.66675 v 0 l 1,-1.6726 v 0 l 1,-1.67849 v 0 l 1,-1.6844 v 0 l 1,-1.69033 v 0 l 1,-1.69627 v 0 l 1,-1.70224 v 0 l 1,-1.70823 v 0 l 1,-1.71424 v 0 l 1,-1.72027 v 0 l 1,-1.72633 v 0 l 1,-1.7324 v 0 l 1,-1.7385 v 0 l 1,-1.74461 v 0 l 1,-1.75075 v 0 l 1,-1.75691 v 0 l 1,-1.7631 v 0 l 1,-1.7693 v 0 l 1,-1.77552 v 0 l 1,-1.78177 v 0 l 1,-1.78804 v 0 l 1,-1.79433 v 0 l 1,-1.80065 v 0 l 1,-1.80698 v 0 l 1,-1.81334 v 0 l 1,-1.81972 v 0 l 1,-1.82613 v 0 l 1,-1.83254 v 0 l 1,-1.839 v 0 l 1,-1.84547 v 0 l 1,-1.85196 v 0 l 1,-1.85848 v 0 l 1,-1.86502 v 0 l 1,-1.87157 v 0 l 1,-1.87817 v 0 l 1,-1.88477 v 0 l 1,-1.89141 v 0 l 1,-1.89806 v 0 l 1,-1.90474 v 0 l 1,-1.91144 v 0 l 1,-1.91817 v 0 l 1,-1.92491 v 0 l 1,-1.93169 v 0 l 1,-1.93849 v 0 l 1,-1.94531 v 0 l 1,-1.95215 v 0 l 1,-1.95902 v 0 l 1,-1.96592 v 0 l 1,-1.97283 v 0 l 1,-1.97977 v 0 l 1,-1.98674 v 0 l 1,-1.99373 v 0 l 1,-2.00075 v 0 l 1,-2.00778 v 0 l 1,-2.01485 v 0 l 1,-2.02194 v 0 l 1,-2.02906 v 0 l 1,-2.03619 v 0 l 1,-2.04336 v 0 l 1,-2.05055 v 0 l 1,-2.05776 v 0 l 1,-2.06501 v 0 l 1,-2.07227 v 0 l 1,-2.07956 v 0 l 1,-2.08688 v 0 l 1,-2.09422 v 0 l 1,-2.10159 v 0 l 1,-2.10899 v 0 l 1,-2.11641 v 0 l 1,-2.12385 v 0 l 1,-2.13133 v 0 l 1,-2.13882 v 0 l 1,-2.14636 v 0 l 1,-2.1539 v 0 l 1,-2.16148 v 0 l 1,-2.16909 v 0 l 1,-2.17672 v 0 l 1,-2.18438 v 0 l 1,-2.19207 v 0 l 1,-2.19978 v 0 l 1,-2.20752 v 0 l 1,-2.21529 v 0 l 1,-2.22308 v 0 l 1,-2.2309 v 0 l 1,-2.23876 v 0 l 1,-2.24663 v 0 l 1,-2.25454 v 0 l 1,-2.26247 v 0 l 1,-2.27043 v 0 l 1,-2.27842 v 0 l 1,-2.28643 v 0 l 1,-2.29449 v 0 l 1,-2.30255 v 0 l 1,-2.31066 v 0 l 1,-2.31879 v 0 l 1,-2.32694 v 0 l 1,-2.33514 v 0 l 1,-2.343349 v 0 l 1,-2.351596 v 0 l 1,-2.359871 v 0 l 1,-2.368175 v 0 l 1,-2.376507 v 0 l 1,-2.38487 v 0 l 1,-2.393261 v 0 l 1,-2.401682 v 0 l 1,-2.410133 v 0 l 1,-2.418613 v 0 l 1,-2.427123 v 0 l 1,-2.435664 v 0 l 1,-2.444234 v 0 l 1,-2.452835 v 0 l 1,-2.461465 v 0 l 1,-2.470126 v 0 l 1,-2.478818 v 0 l 1,-2.48754 v 0 l 1,-2.496293 v 0 l 1,-2.505076 v 0 l 1,-2.513891 v 0 l 1,-2.522737 v 0 l 1,-2.531613 v 0 l 1,-2.540521 v 0 l 1,-2.54946 v 0 l 1,-2.558431 v 0 l 1,-2.567433 v 0 l 1,-2.576467 v 0 l 1,-2.585533 v 0 l 1,-2.594631 v 0 l 1,-2.60376 v 0 l 1,-2.612922 v 0 l 1,-2.622116 v 0 l 1,-2.631342 v 0 l 1,-2.640601 v 0 l 1,-2.649892 v 0 l 1,-2.6592169 v 0 l 1,-2.6685734 v 0 l 1,-2.6779632 v 0 l 1,-2.6873861 v 0 l 1,-2.6968421 v 0 l 1,-2.7063313 v 0 l 1,-2.715854 v 0 l 1,-2.7254102 v 0 l 1,-2.7349998 v 0 l 1,-2.744624 v 0 l 1,-2.754281 v 0 l 1,-2.763972 v 0 l 1,-2.773698 v 0 l 1,-2.783458 v 0 l 1,-2.793251 v 0 l 1,-2.80308 v 0 l 1,-2.812943 v 0 l 1,-2.822841 v 0 l 1,-2.832774 v 0 l 1,-2.842741 v 0 l 1,-2.852744 v 0 l 1,-2.862782 v 0 l 1,-2.872855 v 0 l 1,-2.882963 v 0 l 1,-2.893108 v 0 l 1,-2.903288 v 0 l 1,-2.913503 v 0 l 1,-2.923755 v 0 l 1,-2.934042 v 0 l 1,-2.944367 v 0 l 1,-2.954727 v 0 l 1,-2.965123 v 0 l 1,-2.975557 v 0 l 1,-2.986027 v 0 l 1,-2.996533 v 0 l 1,-3.007077 v 0 l 1,-3.017659 v 0 l 1,-3.028276 v 0 l 1,-3.038932 v 0 l 1,-3.049621 v 0 l 1,-3.06036 v 0 l 1,-3.07112 v 0 l 1,-3.08193 v 0 l 1,-3.09278 v 0 l 1,-3.10365 v 0 l 1,-3.11458 v 0 l 1,-3.12554 v 0 l 1,-3.13653 v 0 l 1,-3.14757 v 0 l 1,-3.15865 v 0 l 1,-3.16976 v 0 l 1,-3.18091 v 0 l 1,-3.19211 v 0 l 1,-3.20334 v 0 l 1,-3.21461 v 0 l 1,-3.22592 v 0 l 1,-3.23727 v 0 l 1,-3.24866 v 0 l 1,-3.26009 v 0 l 1,-3.27157 v 0 l 1,-3.28308 v 0 l 1,-3.29462 v 0 l 1,-3.30622 v 0 l 1,-3.31786 v 0 l 1,-3.32953 v 0 l 1,-3.34124 v 0 l 1,-3.353 v 0 l 1,-3.3648 v 0 l 1,-3.37664 v 0 l 1,-3.38852 v 0 l 1,-3.40044 v 0 l 1,-3.41241 v 0 l 1,-3.42442 v 0 l 1,-3.43646 v 0 l 1,-3.44856 v 0 l 1,-3.46069 v 0 l 1,-3.47287 v 0 l 1,-3.48508 v 0 l 1,-3.49735 v 0 l 1,-3.50966 v 0 l 1,-3.522 v 0 l 1,-3.5344 v 0 l 1,-3.54684 v 0 l 1,-3.55931 v 0 l 1,-3.57184 v 0 l 1,-3.58441 v 0 l 1,-3.59702 v 0 l 1,-3.60967 v 0 l 1,-3.62238 v 0 l 1,-3.63512 v 0 l 1,-3.64792 v 0 l 1,-3.66075 v 0 l 1,-3.67363 v 0 l 1,-3.68655 v 0 l 1,-3.69953 v 0 l 1,-3.71255 v 0 l 1,-3.72561 v 0 l 1,-3.73872 v 0 l 1,-3.75187 v 0 l 1,-3.76508 v 0 l 1,-3.77832 v 0 l 1,-3.79162 v 0 l 1,-3.80496 v 0 l 1,-3.81834 v 0 l 1,-3.83179 v 0 l 1,-3.84526 v 0 l 1,-3.8588 v 0 l 1,-3.87237 v 0 l 1,-3.886 v 0 l 1,-3.89968 v 0 l 1,-3.91339 v 0 l 1,-3.92717 v 0 l 1,-3.94098 v 0 l 1,-3.95485 v 0 l 1,-3.96877 v 0 l 1,-3.98273 v 0 l 1,-3.99674 v 0 l 1,-4.01081 v 0 l 1,-4.02492 v 0 l 1,-4.03908 v 0 l 1,-4.0533 v 0 l 1,-4.06755 v 0 l 1,-4.08187 v 0 l 1,-4.09624 v 0 l 1,-4.11064 v 0 l 1,-4.12511 v 0 l 1,-4.13963 v 0 l 1,-4.15419 v 0 l 1,-4.1688 v 0 l 1,-4.18348 v 0 l 1,-4.1982 v 0 l 1,-4.21296 v 0 l 1,-4.2278 v 0 l 1,-4.24266 v 0 l 1,-4.2576 v 0 l 1,-4.27258 v 0 l 1,-4.28761 v 0 l 1,-4.3027 v 0 l 1,-4.31784 v 0 l 1,-4.33303 v 0 l 1,-4.34828 v 0 l 1,-4.36358 v 0 l 1,-4.37893 v 0 l 1,-4.39434 v 0 l 1,-4.4098 v 0 l 1,-4.42532 v 0 l 1,-4.44089 v 0 l 1,-4.45652 v 0 l 1,-4.47219 v 0 l 1,-4.48794 v 0 l 1,-4.50372 v 0 l 1,-4.51957 v 0 l 1,-4.53548 v 0 l 1,-4.55143 v 0 l 1,-4.56745 v 0 l 1,-4.58352 v 0 l 1,-4.59965 v 0 l 1,-4.61583 v 0 l 1,-4.63207 v 0 l 1,-4.64837 v 0 l 1,-4.66473 v 0 l 1,-4.68115 v 0 l 1,-4.69761 v 0 l 1,-4.71414 v 0 l 1,-4.73073 v 0 l 1,-4.74738 v 0 l 1,-4.76408 v 0 l 1,-4.78084 v 0 l 1,-4.79767 v 0 l 1,-4.81455 v 0 l 1,-4.83148 v 0 l 1,-4.84849 v 0 l 1,-4.86555 v 0 l 1,-4.88267 v 0 l 1,-4.89985 v 0 l 1,-4.91709 v 0 l 1,-4.93439 v 0 l 1,-4.95176 v 0 l 1,-4.96917 v 0 l 1,-4.98667 v 0 l 1,-5.00421 v 0 l 1,-5.02181 v 0 l 1,-5.03949 v 0 l 1,-5.05722 v 0 l 1,-5.07502 v 0 l 1,-5.09287 v 0 l 1,-5.11079 v 0 l 1,-5.12877 v 0 l 1,-5.14683 v 0 l 1,-5.16493 v 0 l 1,-5.1831 v 0 l 1,-5.20134 v 0 l 1,-5.21965 v 0 l 1,-5.23801 v 0 l 1,-5.25644 v 0 l 1,-5.27494 v 0 l 1,-5.29349 v 0 l 1,-5.31213 v 0 l 1,-5.33081 v 0 l 1,-5.34958 v 0 l 1,-5.36839 v 0 l 1,-5.38729 v 0 l 1,-5.40624 v 0 l 1,-5.42526 v 0 l 1,-5.44436 v 0 l 1,-5.46351 v 0 l 1,-5.48273 v 0 l 1,-5.50203 v 0 l 1,-5.52139 v 0 l 1,-5.54081 v 0 l 1,-5.56031 v 0 l 1,-5.57988 v 0 l 1,-5.59951 v 0 l 1,-5.61921 v 0 l 1,-5.63899"
      stroke-opacity="0.8" stroke-linecap="round" stroke-linejoin="round" stroke-miterlimit="10" stroke-width="4"
      id="path50" />
    <path fill="none" stroke="currentColor" paint-order="fill stroke markers" d="M 233.90883,709 739.61741,-5"
      stroke-opacity="1" stroke-linecap="round" stroke-linejoin="round" stroke-miterlimit="10" stroke-width="3"
      id="path51" />
    <path fill="none" stroke="#0033cc" paint-order="fill stroke markers" d="M 155.86617,709 900,30.129318"
      stroke-opacity="0.74902" stroke-linecap="round" stroke-linejoin="round" stroke-miterlimit="10" stroke-width="3.5"
      id="path52" />
    <path fill="none" stroke="currentColor" paint-order="fill stroke markers" d="M 376.42353,507.7863 V 652.08041"
      stroke-opacity="0.698039" stroke-linejoin="round" stroke-miterlimit="10" stroke-dasharray="5, 4" id="path53" />
    <path fill="none" stroke="currentColor" paint-order="fill stroke markers" d="M 609.3,178.99258 V 652.08041"
      stroke-opacity="0.698039" stroke-linejoin="round" stroke-miterlimit="10" stroke-dasharray="5, 4" id="path54" />
    <path fill="none" stroke="#1565c0" paint-order="fill stroke markers" d="M 376.42353,507.7863 H 609.3"
      stroke-opacity="0.8" stroke-linecap="round" stroke-linejoin="round" stroke-miterlimit="10" stroke-width="2.5"
      id="path55" />
    <path fill="none" stroke="#1565c0" paint-order="fill stroke markers" d="M 609.3,507.7863 V 295.33391"
      stroke-opacity="0.8" stroke-linecap="round" stroke-linejoin="round" stroke-miterlimit="10" stroke-width="2.5"
      id="path56" />
    <path fill="none" stroke="#1565c0" paint-order="fill stroke markers" d="M 609.3,295.33391 376.42353,507.7863"
      stroke-opacity="0.8" stroke-linecap="round" stroke-linejoin="round" stroke-miterlimit="10" stroke-width="2.5"
      id="path57" />
    <path fill="currentColor" stroke="none" paint-order="stroke fill markers"
      d="m 610.22415,530.49064 v 0 c 0.0503,0.12152 0.0756,0.25095 0.0758,0.38042 v 0 c -3.1e-4,-0.13473 -0.0272,-0.2632 -0.0758,-0.38042 z m -234.72476,-3e-5 v 0 c -0.0488,0.11767 -0.0758,0.24668 -0.0759,0.38198 v 0 c 10e-5,-0.12999 0.0254,-0.25997 0.0759,-0.38198 z m -0.0759,0.38498 c 3e-4,0.13477 0.0272,0.26329 0.0759,0.38054 v 0 c -0.0503,-0.12156 -0.0756,-0.25103 -0.0759,-0.38054 z M 610.3,530.87621 c -3.7e-4,0.12931 -0.0257,0.25856 -0.0759,0.37992 v 0 c 0.0485,-0.11707 0.0755,-0.24537 0.0759,-0.37992 z m -231.46226,-1.00286 -1,1 1,1 h 228.04805 l 1,-1 -1,-1 z"
      fill-opacity="0.501961" id="path58" />
    <path fill="currentColor" stroke="none" paint-order="stroke fill markers"
      d="m 375.71642,531.58046 4,4 c 0.39053,0.39053 1.02369,0.39053 1.41422,0 0.39052,-0.39052 0.39052,-1.02369 0,-1.41421 l -4,-4 c -0.39053,-0.39053 -1.02369,-0.39053 -1.41422,0 -0.39052,0.39052 -0.39052,1.02369 0,1.41421 z m 4,-5.41421 -4,4 c -0.39052,0.39052 -0.39052,1.02369 0,1.41421 0.39053,0.39053 1.02369,0.39053 1.41422,0 l 4,-4 c 0.39052,-0.39052 0.39052,-1.02369 0,-1.41421 -0.39053,-0.39053 -1.02369,-0.39053 -1.41422,0 z"
      fill-opacity="0.501961" id="path59" />
    <path fill="currentColor" stroke="none" paint-order="stroke fill markers"
      d="m 608.59289,530.16625 -4,4 c -0.39052,0.39052 -0.39052,1.02369 0,1.41421 0.39053,0.39053 1.02369,0.39053 1.41422,0 l 4,-4 c 0.39052,-0.39052 0.39052,-1.02369 0,-1.41421 -0.39053,-0.39053 -1.02369,-0.39053 -1.41422,0 z m -4,-2.58579 4,4 c 0.39053,0.39053 1.02369,0.39053 1.41422,0 0.39052,-0.39052 0.39052,-1.02369 0,-1.41421 l -4,-4 c -0.39053,-0.39053 -1.02369,-0.39053 -1.41422,0 -0.39052,0.39052 -0.39052,1.02369 0,1.41421 z"
      fill-opacity="0.501961" id="path60" />
    <path fill="currentColor" stroke="none" paint-order="stroke fill markers"
      d="m 610.22415,605.52358 v 0 c 0.0503,0.12152 0.0756,0.25095 0.0758,0.38042 v 0 c -3.1e-4,-0.13473 -0.0272,-0.2632 -0.0758,-0.38042 z m -234.72476,-3e-5 v 0 c -0.0488,0.11768 -0.0758,0.24668 -0.0759,0.38198 v 0 c 10e-5,-0.12999 0.0254,-0.25997 0.0759,-0.38198 z m -0.0759,0.38498 c 3e-4,0.13477 0.0272,0.26329 0.0759,0.38055 v 0 c -0.0503,-0.12157 -0.0756,-0.25104 -0.0759,-0.38055 z M 610.3,605.90915 c -3.7e-4,0.12931 -0.0257,0.25856 -0.0759,0.37993 v 0 c 0.0485,-0.11708 0.0755,-0.24538 0.0759,-0.37993 z m -231.46226,-1.00285 -1,1 1,1 h 228.04805 l 1,-1 -1,-1 z"
      fill-opacity="0.501961" id="path61" />
    <path fill="currentColor" stroke="none" paint-order="stroke fill markers"
      d="m 375.71642,606.6134 4,4 c 0.39053,0.39053 1.02369,0.39053 1.41422,0 0.39052,-0.39052 0.39052,-1.02369 0,-1.41421 l -4,-4 c -0.39053,-0.39053 -1.02369,-0.39053 -1.41422,0 -0.39052,0.39052 -0.39052,1.02369 0,1.41421 z m 4,-5.41421 -4,4 c -0.39052,0.39052 -0.39052,1.02369 0,1.41421 0.39053,0.39053 1.02369,0.39053 1.41422,0 l 4,-4 c 0.39052,-0.39052 0.39052,-1.02369 0,-1.41421 -0.39053,-0.39053 -1.02369,-0.39053 -1.41422,0 z"
      fill-opacity="0.501961" id="path62" />
    <path fill="currentColor" stroke="none" paint-order="stroke fill markers"
      d="m 608.59289,605.19919 -4,4 c -0.39052,0.39052 -0.39052,1.02369 0,1.41421 0.39053,0.39053 1.02369,0.39053 1.41422,0 l 4,-4 c 0.39052,-0.39052 0.39052,-1.02369 0,-1.41421 -0.39053,-0.39053 -1.02369,-0.39053 -1.41422,0 z m -4,-2.58579 4,4 c 0.39053,0.39053 1.02369,0.39053 1.41422,0 0.39052,-0.39052 0.39052,-1.02369 0,-1.41421 l -4,-4 c -0.39053,-0.39053 -1.02369,-0.39053 -1.41422,0 -0.39052,0.39052 -0.39052,1.02369 0,1.41421 z"
      fill-opacity="0.501961" id="path63" />
    <path fill="none" stroke="currentColor" paint-order="fill stroke markers" d="M 376.42353,507.7863 H 145.55294"
      stroke-opacity="0.698039" stroke-linejoin="round" stroke-miterlimit="10" stroke-dasharray="5, 4" id="path64" />
    <path fill="none" stroke="currentColor" paint-order="fill stroke markers" d="M 145.55294,178.99258 H 609.3"
      stroke-opacity="0.698039" stroke-linejoin="round" stroke-miterlimit="10" stroke-dasharray="5, 4" id="path65" />
    <path fill="currentColor" stroke="none" paint-order="stroke fill markers"
      d="m 632.38707,294.33391 c 0.13025,0 0.26049,0.0253 0.38274,0.0759 v 0 c -0.11789,-0.0489 -0.24717,-0.0759 -0.38274,-0.0759 z m -2e-5,0 c -0.13558,0 -0.26486,0.027 -0.38277,0.0759 v 0 c 0.12226,-0.0506 0.25252,-0.0759 0.38277,-0.0759 z m 10e-6,2.41421 -1,1 v 207.62396 l 1,1 1,-1 V 297.74812 Z m -0.3827,211.96233 v 0 c 0.11788,0.0489 0.24714,0.0759 0.3827,0.0759 v 0 c -0.13023,0 -0.26046,-0.0253 -0.3827,-0.0759 z m 0.76545,-2e-5 c -0.12225,0.0506 -0.2525,0.0759 -0.38275,0.0759 v 0 c 0.13558,0 0.26486,-0.027 0.38275,-0.0759 z"
      fill-opacity="0.501961" id="path66" />
    <path fill="currentColor" stroke="none" paint-order="stroke fill markers"
      d="m 631.67995,294.6268 -4,4 c -0.39052,0.39053 -0.39052,1.02369 0,1.41421 0.39053,0.39053 1.02369,0.39053 1.41422,0 l 4,-4 c 0.39052,-0.39052 0.39052,-1.02368 0,-1.41421 -0.39053,-0.39052 -1.02369,-0.39052 -1.41422,0 z m 5.41422,4 -4,-4 c -0.39053,-0.39052 -1.02369,-0.39052 -1.41422,0 -0.39052,0.39053 -0.39052,1.02369 0,1.41421 l 4,4 c 0.39053,0.39053 1.02369,0.39053 1.41422,0 0.39052,-0.39052 0.39052,-1.02368 0,-1.41421 z"
      fill-opacity="0.501961" id="path67" />
    <path fill="currentColor" stroke="none" paint-order="stroke fill markers"
      d="m 633.09417,507.07919 -4,-4 c -0.39053,-0.39053 -1.02369,-0.39053 -1.41422,0 -0.39052,0.39052 -0.39052,1.02369 0,1.41421 l 4,4 c 0.39053,0.39053 1.02369,0.39053 1.41422,0 0.39052,-0.39052 0.39052,-1.02369 0,-1.41421 z m 2.58578,-4 -4,4 c -0.39052,0.39052 -0.39052,1.02369 0,1.41421 0.39053,0.39053 1.02369,0.39053 1.41422,0 l 4,-4 c 0.39052,-0.39052 0.39052,-1.02369 0,-1.41421 -0.39053,-0.39053 -1.02369,-0.39053 -1.41422,0 z"
      fill-opacity="0.501961" id="path68" />
    <path fill="currentColor" stroke="none" paint-order="stroke fill markers"
      d="m 678.56117,177.99258 v 0 c -0.13558,0 -0.26486,0.027 -0.38277,0.0759 v 0 c 0.12226,-0.0506 0.25251,-0.0759 0.38277,-0.0759 z m 2e-5,0 c 0.13025,0 0.2605,0.0253 0.38276,0.0759 v 0 c -0.1179,-0.0489 -0.24718,-0.0759 -0.38276,-0.0759 z m -10e-6,2.41422 -1,1 v 323.96528 l 1,1 1,-1 V 181.4068 Z m -0.38269,328.30366 v 0 c 0.11788,0.0489 0.24714,0.0758 0.38269,0.0758 -0.13023,0 -0.26045,-0.0253 -0.38269,-0.0758 z m 0.76544,-3e-5 c -0.12226,0.0506 -0.2525,0.0759 -0.38275,0.0759 0.13557,0 0.26485,-0.027 0.38275,-0.0759 z"
      fill-opacity="0.501961" id="path69" />
    <path fill="currentColor" stroke="none" paint-order="stroke fill markers"
      d="m 677.85407,178.28548 -4,4 c -0.39052,0.39052 -0.39052,1.02369 0,1.41421 0.39052,0.39052 1.02369,0.39052 1.41421,0 l 4,-4 c 0.39053,-0.39052 0.39053,-1.02369 0,-1.41421 -0.39052,-0.39053 -1.02369,-0.39053 -1.41421,0 z m 5.41421,4 -4,-4 c -0.39052,-0.39053 -1.02369,-0.39053 -1.41421,0 -0.39052,0.39052 -0.39052,1.02369 0,1.41421 l 4,4 c 0.39052,0.39052 1.02369,0.39052 1.41421,0 0.39053,-0.39052 0.39053,-1.02369 0,-1.41421 z"
      fill-opacity="0.501961" id="path70" />
    <path fill="currentColor" stroke="none" paint-order="stroke fill markers"
      d="m 679.26828,507.07919 -4,-4 c -0.39052,-0.39053 -1.02369,-0.39053 -1.41421,0 -0.39052,0.39052 -0.39052,1.02369 0,1.41421 l 4,4 c 0.39052,0.39053 1.02369,0.39053 1.41421,0 0.39053,-0.39052 0.39053,-1.02369 0,-1.41421 z m 2.58579,-4 -4,4 c -0.39052,0.39052 -0.39052,1.02369 0,1.41421 0.39052,0.39053 1.02369,0.39053 1.41421,0 l 4,-4 c 0.39053,-0.39052 0.39053,-1.02369 0,-1.41421 -0.39052,-0.39053 -1.02369,-0.39053 -1.41421,0 z"
      fill-opacity="0.501961" id="path71" />
    <path fill="#1565c0" stroke="none" paint-order="stroke fill markers"
      d="m 614.3,178.99258 c 0,2.76143 -2.23858,5 -5,5 -2.76142,0 -5,-2.23857 -5,-5 0,-2.76142 2.23858,-5 5,-5 2.76142,0 5,2.23858 5,5 z"
      fill-opacity="1" id="path72" />
    <path fill="none" stroke="currentColor" paint-order="fill stroke markers"
      d="m 614.3,178.99258 c 0,2.76143 -2.23858,5 -5,5 -2.76142,0 -5,-2.23857 -5,-5 0,-2.76142 2.23858,-5 5,-5 2.76142,0 5,2.23858 5,5 z"
      stroke-opacity="1" stroke-linecap="round" stroke-linejoin="round" stroke-miterlimit="10" id="path73" />
    <path fill="#616161" stroke="none" paint-order="stroke fill markers"
      d="m 381.42353,652.08041 c 0,2.76143 -2.23858,5 -5,5 -2.76142,0 -5,-2.23857 -5,-5 0,-2.76142 2.23858,-5 5,-5 2.76142,0 5,2.23858 5,5 z"
      fill-opacity="1" id="path74" />
    <path fill="none" stroke="currentColor" paint-order="fill stroke markers"
      d="m 381.42353,652.08041 c 0,2.76143 -2.23858,5 -5,5 -2.76142,0 -5,-2.23857 -5,-5 0,-2.76142 2.23858,-5 5,-5 2.76142,0 5,2.23858 5,5 z"
      stroke-opacity="1" stroke-linecap="round" stroke-linejoin="round" stroke-miterlimit="10" id="path75" />
    <path fill="#616161" stroke="none" paint-order="stroke fill markers"
      d="m 614.3,652.08041 c 0,2.76143 -2.23858,5 -5,5 -2.76142,0 -5,-2.23857 -5,-5 0,-2.76142 2.23858,-5 5,-5 2.76142,0 5,2.23858 5,5 z"
      fill-opacity="1" id="path76" />
    <path fill="none" stroke="currentColor" paint-order="fill stroke markers"
      d="m 614.3,652.08041 c 0,2.76143 -2.23858,5 -5,5 -2.76142,0 -5,-2.23857 -5,-5 0,-2.76142 2.23858,-5 5,-5 2.76142,0 5,2.23858 5,5 z"
      stroke-opacity="1" stroke-linecap="round" stroke-linejoin="round" stroke-miterlimit="10" id="path77" />
    <path fill="#616161" stroke="none" paint-order="stroke fill markers"
      d="m 614.3,507.7863 c 0,2.76142 -2.23858,5 -5,5 -2.76142,0 -5,-2.23858 -5,-5 0,-2.76143 2.23858,-5 5,-5 2.76142,0 5,2.23857 5,5 z"
      fill-opacity="1" id="path78" />
    <path fill="none" stroke="currentColor" paint-order="fill stroke markers"
      d="m 614.3,507.7863 c 0,2.76142 -2.23858,5 -5,5 -2.76142,0 -5,-2.23858 -5,-5 0,-2.76143 2.23858,-5 5,-5 2.76142,0 5,2.23857 5,5 z"
      stroke-opacity="1" stroke-linecap="round" stroke-linejoin="round" stroke-miterlimit="10" id="path79" />
    <path fill="#616161" stroke="none" paint-order="stroke fill markers"
      d="m 614.3,295.33391 c 0,2.76142 -2.23858,5 -5,5 -2.76142,0 -5,-2.23858 -5,-5 0,-2.76143 2.23858,-5 5,-5 2.76142,0 5,2.23857 5,5 z"
      fill-opacity="1" id="path80" />
    <path fill="none" stroke="currentColor" paint-order="fill stroke markers"
      d="m 614.3,295.33391 c 0,2.76142 -2.23858,5 -5,5 -2.76142,0 -5,-2.23858 -5,-5 0,-2.76143 2.23858,-5 5,-5 2.76142,0 5,2.23857 5,5 z"
      stroke-opacity="1" stroke-linecap="round" stroke-linejoin="round" stroke-miterlimit="10" id="path81" />
    <path fill="#616161" stroke="none" paint-order="stroke fill markers"
      d="m 150.55294,507.7863 c 0,2.76142 -2.23858,5 -5,5 -2.76142,0 -5,-2.23858 -5,-5 0,-2.76143 2.23858,-5 5,-5 2.76142,0 5,2.23857 5,5 z"
      fill-opacity="1" id="path82" />
    <path fill="none" stroke="currentColor" paint-order="fill stroke markers"
      d="m 150.55294,507.7863 c 0,2.76142 -2.23858,5 -5,5 -2.76142,0 -5,-2.23858 -5,-5 0,-2.76143 2.23858,-5 5,-5 2.76142,0 5,2.23857 5,5 z"
      stroke-opacity="1" stroke-linecap="round" stroke-linejoin="round" stroke-miterlimit="10" id="path83" />
    <path fill="#616161" stroke="none" paint-order="stroke fill markers"
      d="m 150.55294,178.99258 c 0,2.76143 -2.23858,5 -5,5 -2.76142,0 -5,-2.23857 -5,-5 0,-2.76142 2.23858,-5 5,-5 2.76142,0 5,2.23858 5,5 z"
      fill-opacity="1" id="path84" />
    <path fill="none" stroke="currentColor" paint-order="fill stroke markers"
      d="m 150.55294,178.99258 c 0,2.76143 -2.23858,5 -5,5 -2.76142,0 -5,-2.23857 -5,-5 0,-2.76142 2.23858,-5 5,-5 2.76142,0 5,2.23858 5,5 z"
      stroke-opacity="1" stroke-linecap="round" stroke-linejoin="round" stroke-miterlimit="10" id="path85" />
    <path fill="#1565c0" stroke="none" paint-order="stroke fill markers"
      d="m 381.42353,507.7863 c 0,2.76142 -2.23858,5 -5,5 -2.76142,0 -5,-2.23858 -5,-5 0,-2.76143 2.23858,-5 5,-5 2.76142,0 5,2.23857 5,5 z"
      fill-opacity="1" id="path86" />
    <path fill="none" stroke="currentColor" paint-order="fill stroke markers"
      d="m 381.42353,507.7863 c 0,2.76142 -2.23858,5 -5,5 -2.76142,0 -5,-2.23858 -5,-5 0,-2.76143 2.23858,-5 5,-5 2.76142,0 5,2.23857 5,5 z"
      stroke-opacity="1" stroke-linecap="round" stroke-linejoin="round" stroke-miterlimit="10" id="path87" />
    <g transform="scale(25)" id="g89">
      <g transform="translate(14.8,27.631)" id="g88">
        <path fill="currentColor" stroke="none" paint-order="stroke fill markers"
          d="M 0.334,-0.302 0.3,-0.165 q -0.017,0.068 -0.017,0.088 0,0.052 0.037,0.063 0.008,0.003 0.018,0.003 0.05,0 0.091,-0.05 0.027,-0.032 0.042,-0.081 0.003,-0.011 0.013,-0.011 0.012,0 0.012,0.01 0,0.025 -0.031,0.072 Q 0.411,0.011 0.336,0.011 0.268,0.011 0.237,-0.046 0.231,-0.055 0.228,-0.065 0.204,-0.017 0.162,0.002 0.143,0.011 0.123,0.011 q -0.06,0 -0.084,-0.035 -0.01,-0.013 -0.01,-0.031 0,-0.037 0.032,-0.052 0.011,-0.006 0.023,-0.006 0.03,0 0.036,0.025 0.001,0.005 0.001,0.01 0,0.034 -0.034,0.05 -0.006,0.003 -0.013,0.004 0.021,0.013 0.05,0.013 0.053,0 0.084,-0.071 0.006,-0.015 0.011,-0.033 0.054,-0.204 0.054,-0.238 -0.006,-0.062 -0.054,-0.067 -0.052,0 -0.095,0.053 v 0.001 q 0,0.001 -0.001,0.001 -0.015,0.02 -0.027,0.046 -0.005,0.012 -0.009,0.024 l -0.002,0.006 q -0.002,0.011 -0.013,0.011 -0.012,0 -0.012,-0.01 0,-0.025 0.032,-0.072 0.054,-0.082 0.129,-0.082 0.077,0 0.108,0.076 0.032,-0.062 0.085,-0.074 0.01,-0.002 0.02,-0.002 0.059,0 0.083,0.033 0.01,0.014 0.01,0.033 0,0.041 -0.037,0.055 -0.009,0.003 -0.017,0.003 -0.031,0 -0.037,-0.027 -0.001,-0.004 -0.001,-0.008 0,-0.03 0.029,-0.047 0.009,-0.005 0.019,-0.007 -0.021,-0.013 -0.05,-0.013 -0.068,0 -0.096,0.106 -0.002,0.006 -0.003,0.012 z"
          id="path88" />
      </g>
    </g>
    <g transform="scale(25)" id="g91">
      <g transform="translate(19.44,25.214)" id="g90">
        <path fill="currentColor" stroke="none" paint-order="stroke fill markers"
          d="m 0.287,-0.683 -0.078,0.318 q 0.062,-0.077 0.148,-0.077 0.089,0 0.11,0.069 v 0.001 q 0.005,0.017 0.005,0.037 0,0.056 -0.061,0.22 -0.018,0.044 -0.018,0.071 0,0.033 0.024,0.033 0.062,0 0.098,-0.11 l 0.004,-0.014 q 0.005,-0.016 0.01,-0.017 v -0.001 h 0.005 q 0.012,0 0.012,0.01 0,0.017 -0.021,0.063 -0.043,0.091 -0.11,0.091 -0.051,0 -0.073,-0.043 -0.009,-0.018 -0.009,-0.039 0,-0.018 0.013,-0.055 0.062,-0.158 0.062,-0.224 0,-0.07 -0.054,-0.07 -0.048,0 -0.096,0.035 -0.037,0.029 -0.065,0.086 L 0.19,-0.293 Q 0.186,-0.269 0.179,-0.248 0.174,-0.225 0.162,-0.181 L 0.14,-0.091 0.121,-0.015 Q 0.114,0.006 0.09,0.01 0.087,0.011 0.084,0.011 0.06,0.011 0.056,-0.01 0.055,-0.014 0.055,-0.017 q 0,-0.008 0.004,-0.022 l 0.145,-0.576 0.003,-0.02 q 0,-0.011 -0.014,-0.014 v 0 q -0.012,-0.003 -0.036,-0.003 -0.022,0 -0.024,-0.012 0,-0.017 0.019,-0.02 l 0.122,-0.01 q 0.013,0 0.013,0.011 z"
          id="path89" />
      </g>
    </g>
    <g transform="scale(25)" id="g97">
      <g transform="translate(17.6,22.214)" id="g92">
        <path fill="currentColor" stroke="none" paint-order="stroke fill markers"
          d="m 0.516,-0.683 -0.144,0.578 q -0.006,0.025 -0.006,0.048 0,0.046 0.03,0.046 0.038,0 0.064,-0.08 0.005,-0.017 0.012,-0.044 0.008,-0.017 0.014,-0.018 0.012,0 0.012,0.01 0,0.015 -0.018,0.07 Q 0.474,-0.056 0.468,-0.044 0.44,0.011 0.394,0.011 0.338,0.011 0.313,-0.037 0.306,-0.049 0.303,-0.064 0.24,0.011 0.173,0.011 0.098,0.011 0.062,-0.057 0.04,-0.097 0.04,-0.149 q 0,-0.108 0.075,-0.2 0.07,-0.084 0.152,-0.092 0.007,-0.001 0.014,-0.001 0.061,0 0.092,0.064 l 0.06,-0.237 0.003,-0.02 q 0,-0.011 -0.014,-0.014 -0.012,-0.003 -0.036,-0.003 -0.022,0 -0.024,-0.012 0,-0.017 0.014,-0.019 0.094,-0.011 0.127,-0.011 0.013,0 0.013,0.011 m -0.208,0.564 v 0 l 0.05,-0.196 q 0.003,-0.015 0.003,-0.017 0,-0.021 -0.018,-0.051 -0.022,-0.037 -0.061,-0.037 -0.052,0 -0.099,0.068 -0.009,0.013 -0.017,0.028 -0.029,0.058 -0.049,0.165 -0.006,0.034 -0.006,0.054 0,0.068 0.038,0.088 0.011,0.006 0.026,0.006 0.056,0 0.113,-0.071 0.014,-0.016 0.019,-0.033 v -0.001 q 0.001,-0.002 0.001,-0.003 z"
          id="path91" />
      </g>
      <g transform="translate(18.12,22.214)" id="g93">
        <path fill="currentColor" stroke="none" paint-order="stroke fill markers"
          d="M 0.334,-0.302 0.3,-0.165 q -0.017,0.068 -0.017,0.088 0,0.052 0.037,0.063 0.008,0.003 0.018,0.003 0.05,0 0.091,-0.05 0.027,-0.032 0.042,-0.081 0.003,-0.011 0.013,-0.011 0.012,0 0.012,0.01 0,0.025 -0.031,0.072 Q 0.411,0.011 0.336,0.011 0.268,0.011 0.237,-0.046 0.231,-0.055 0.228,-0.065 0.204,-0.017 0.162,0.002 0.143,0.011 0.123,0.011 q -0.06,0 -0.084,-0.035 -0.01,-0.013 -0.01,-0.031 0,-0.037 0.032,-0.052 0.011,-0.006 0.023,-0.006 0.03,0 0.036,0.025 0.001,0.005 0.001,0.01 0,0.034 -0.034,0.05 -0.006,0.003 -0.013,0.004 0.021,0.013 0.05,0.013 0.053,0 0.084,-0.071 0.006,-0.015 0.011,-0.033 0.054,-0.204 0.054,-0.238 -0.006,-0.062 -0.054,-0.067 -0.052,0 -0.095,0.053 v 0.001 q 0,0.001 -0.001,0.001 -0.015,0.02 -0.027,0.046 -0.005,0.012 -0.009,0.024 l -0.002,0.006 q -0.002,0.011 -0.013,0.011 -0.012,0 -0.012,-0.01 0,-0.025 0.032,-0.072 0.054,-0.082 0.129,-0.082 0.077,0 0.108,0.076 0.032,-0.062 0.085,-0.074 0.01,-0.002 0.02,-0.002 0.059,0 0.083,0.033 0.01,0.014 0.01,0.033 0,0.041 -0.037,0.055 -0.009,0.003 -0.017,0.003 -0.031,0 -0.037,-0.027 -0.001,-0.004 -0.001,-0.008 0,-0.03 0.029,-0.047 0.009,-0.005 0.019,-0.007 -0.021,-0.013 -0.05,-0.013 -0.068,0 -0.096,0.106 -0.002,0.006 -0.003,0.012 z"
          id="path92" />
      </g>
      <g transform="translate(18.969778,22.214)" id="g94">
        <path fill="currentColor" stroke="none" paint-order="stroke fill markers"
          d="M 0.687,-0.327 H 0.09 q -0.032,0 -0.034,-0.02 0,-0.02 0.033,-0.02 h 0.599 q 0.032,0 0.033,0.02 0,0.02 -0.034,0.02 m 10e-4,0.194 H 0.089 q -0.032,0 -0.033,-0.02 0,-0.02 0.034,-0.02 h 0.597 q 0.032,0 0.034,0.02 0,0.02 -0.033,0.02 z"
          id="path93" />
      </g>
      <g transform="translate(20.025556,22.214)" id="g95">
        <path fill="currentColor" stroke="none" paint-order="stroke fill markers"
          d="M 0.442,-0.698 0.78,-0.02 Q 0.785,-0.011 0.785,-0.008 0.779,0 0.763,0 H 0.069 q -0.021,0 -0.022,-0.008 0,-0.003 0.005,-0.012 L 0.39,-0.698 q 0.008,-0.015 0.016,-0.017 0.004,-0.001 0.01,-0.001 0.016,0 0.022,0.011 0.001,0.002 0.004,0.007 m -0.058,0.082 -0.27,0.54 h 0.539 z"
          id="path94" />
      </g>
      <g transform="translate(20.858556,22.214)" id="g96">
        <path fill="currentColor" stroke="none" paint-order="stroke fill markers"
          d="M 0.334,-0.302 0.3,-0.165 q -0.017,0.068 -0.017,0.088 0,0.052 0.037,0.063 0.008,0.003 0.018,0.003 0.05,0 0.091,-0.05 0.027,-0.032 0.042,-0.081 0.003,-0.011 0.013,-0.011 0.012,0 0.012,0.01 0,0.025 -0.031,0.072 Q 0.411,0.011 0.336,0.011 0.268,0.011 0.237,-0.046 0.231,-0.055 0.228,-0.065 0.204,-0.017 0.162,0.002 0.143,0.011 0.123,0.011 q -0.06,0 -0.084,-0.035 -0.01,-0.013 -0.01,-0.031 0,-0.037 0.032,-0.052 0.011,-0.006 0.023,-0.006 0.03,0 0.036,0.025 0.001,0.005 0.001,0.01 0,0.034 -0.034,0.05 -0.006,0.003 -0.013,0.004 0.021,0.013 0.05,0.013 0.053,0 0.084,-0.071 0.006,-0.015 0.011,-0.033 0.054,-0.204 0.054,-0.238 -0.006,-0.062 -0.054,-0.067 -0.052,0 -0.095,0.053 v 0.001 q 0,0.001 -0.001,0.001 -0.015,0.02 -0.027,0.046 -0.005,0.012 -0.009,0.024 l -0.002,0.006 q -0.002,0.011 -0.013,0.011 -0.012,0 -0.012,-0.01 0,-0.025 0.032,-0.072 0.054,-0.082 0.129,-0.082 0.077,0 0.108,0.076 0.032,-0.062 0.085,-0.074 0.01,-0.002 0.02,-0.002 0.059,0 0.083,0.033 0.01,0.014 0.01,0.033 0,0.041 -0.037,0.055 -0.009,0.003 -0.017,0.003 -0.031,0 -0.037,-0.027 -0.001,-0.004 -0.001,-0.008 0,-0.03 0.029,-0.047 0.009,-0.005 0.019,-0.007 -0.021,-0.013 -0.05,-0.013 -0.068,0 -0.096,0.106 -0.002,0.006 -0.003,0.012 z"
          id="path95" />
      </g>
    </g>
    <g transform="scale(25)" id="g101">
      <g transform="translate(23.2,27.694)" id="g98">
        <path fill="currentColor" stroke="none" paint-order="stroke fill markers"
          d="M 0.334,-0.302 0.3,-0.165 q -0.017,0.068 -0.017,0.088 0,0.052 0.037,0.063 0.008,0.003 0.018,0.003 0.05,0 0.091,-0.05 0.027,-0.032 0.042,-0.081 0.003,-0.011 0.013,-0.011 0.012,0 0.012,0.01 0,0.025 -0.031,0.072 Q 0.411,0.011 0.336,0.011 0.268,0.011 0.237,-0.046 0.231,-0.055 0.228,-0.065 0.204,-0.017 0.162,0.002 0.143,0.011 0.123,0.011 q -0.06,0 -0.084,-0.035 -0.01,-0.013 -0.01,-0.031 0,-0.037 0.032,-0.052 0.011,-0.006 0.023,-0.006 0.03,0 0.036,0.025 0.001,0.005 0.001,0.01 0,0.034 -0.034,0.05 -0.006,0.003 -0.013,0.004 0.021,0.013 0.05,0.013 0.053,0 0.084,-0.071 0.006,-0.015 0.011,-0.033 0.054,-0.204 0.054,-0.238 -0.006,-0.062 -0.054,-0.067 -0.052,0 -0.095,0.053 v 0.001 q 0,0.001 -0.001,0.001 -0.015,0.02 -0.027,0.046 -0.005,0.012 -0.009,0.024 l -0.002,0.006 q -0.002,0.011 -0.013,0.011 -0.012,0 -0.012,-0.01 0,-0.025 0.032,-0.072 0.054,-0.082 0.129,-0.082 0.077,0 0.108,0.076 0.032,-0.062 0.085,-0.074 0.01,-0.002 0.02,-0.002 0.059,0 0.083,0.033 0.01,0.014 0.01,0.033 0,0.041 -0.037,0.055 -0.009,0.003 -0.017,0.003 -0.031,0 -0.037,-0.027 -0.001,-0.004 -0.001,-0.008 0,-0.03 0.029,-0.047 0.009,-0.005 0.019,-0.007 -0.021,-0.013 -0.05,-0.013 -0.068,0 -0.096,0.106 -0.002,0.006 -0.003,0.012 z"
          id="path97" />
      </g>
      <g transform="translate(23.994222,27.694)" id="g99">
        <path fill="currentColor" stroke="none" paint-order="stroke fill markers"
          d="m 0.409,-0.23 v 0.28 q 0,0.032 -0.02,0.033 -0.02,0 -0.02,-0.033 v -0.28 h -0.28 q -0.032,0 -0.033,-0.02 0,-0.02 0.033,-0.02 h 0.28 v -0.28 q 0,-0.032 0.02,-0.033 0.02,0 0.02,0.033 v 0.28 h 0.279 q 0.032,0 0.033,0.02 0,0.02 -0.033,0.02 z"
          id="path98" />
      </g>
      <g transform="translate(24.994444,27.694)" id="g100">
        <path fill="currentColor" stroke="none" paint-order="stroke fill markers"
          d="m 0.287,-0.683 -0.078,0.318 q 0.062,-0.077 0.148,-0.077 0.089,0 0.11,0.069 v 0.001 q 0.005,0.017 0.005,0.037 0,0.056 -0.061,0.22 -0.018,0.044 -0.018,0.071 0,0.033 0.024,0.033 0.062,0 0.098,-0.11 l 0.004,-0.014 q 0.005,-0.016 0.01,-0.017 v -0.001 h 0.005 q 0.012,0 0.012,0.01 0,0.017 -0.021,0.063 -0.043,0.091 -0.11,0.091 -0.051,0 -0.073,-0.043 -0.009,-0.018 -0.009,-0.039 0,-0.018 0.013,-0.055 0.062,-0.158 0.062,-0.224 0,-0.07 -0.054,-0.07 -0.048,0 -0.096,0.035 -0.037,0.029 -0.065,0.086 L 0.19,-0.293 Q 0.186,-0.269 0.179,-0.248 0.174,-0.225 0.162,-0.181 L 0.14,-0.091 0.121,-0.015 Q 0.114,0.006 0.09,0.01 0.087,0.011 0.084,0.011 0.06,0.011 0.056,-0.01 0.055,-0.014 0.055,-0.017 q 0,-0.008 0.004,-0.022 l 0.145,-0.576 0.003,-0.02 q 0,-0.011 -0.014,-0.014 v 0 q -0.012,-0.003 -0.036,-0.003 -0.022,0 -0.024,-0.012 0,-0.017 0.019,-0.02 l 0.122,-0.01 q 0.013,0 0.013,0.011 z"
          id="path99" />
      </g>
    </g>
    <g transform="scale(25)" id="g106">
      <g transform="translate(3.48,20.63)" id="g102">
        <path fill="currentColor" stroke="none" paint-order="stroke fill markers"
          d="m 0.367,-0.4 v 0 l -0.06,0.317 Q 0.298,-0.021 0.271,0.059 0.261,0.088 0.251,0.108 0.216,0.182 0.164,0.2 0.151,0.205 0.138,0.205 0.088,0.205 0.064,0.171 0.053,0.156 0.053,0.136 q 0,-0.04 0.034,-0.055 0.01,-0.005 0.021,-0.005 0.029,0 0.036,0.025 0.001,0.005 0.001,0.01 0,0.034 -0.03,0.048 -0.011,0.005 -0.025,0.006 0.019,0.018 0.048,0.018 0.044,0 0.069,-0.098 0.005,-0.023 0.012,-0.06 L 0.225,-0.005 0.3,-0.4 H 0.234 q -0.025,0 -0.027,-0.008 H 0.206 v -0.004 q 0,-0.017 0.017,-0.019 v 0 h 0.013 0.069 q 0.024,-0.125 0.033,-0.157 0.03,-0.1 0.106,-0.115 0.011,-0.002 0.021,-0.002 0.052,0 0.076,0.034 v 0 q 0.011,0.015 0.011,0.035 0,0.04 -0.034,0.055 -0.01,0.005 -0.021,0.005 -0.029,0 -0.036,-0.025 -0.001,-0.005 -0.001,-0.01 0,-0.031 0.028,-0.046 0.011,-0.007 0.026,-0.008 -0.019,-0.018 -0.049,-0.018 -0.031,0 -0.047,0.034 -0.007,0.014 -0.024,0.104 l -0.021,0.114 h 0.083 q 0.025,0 0.027,0.011 0,0.018 -0.016,0.02 H 0.466 0.453 Z"
          id="path101" />
      </g>
      <g transform="translate(4.078,20.63)" id="g103">
        <path fill="currentColor" stroke="none" paint-order="stroke fill markers"
          d="m 0.331,0.24 v 0 q 0,0.01 -0.01,0.01 Q 0.309,0.25 0.268,0.209 0.206,0.147 0.165,0.062 0.099,-0.074 0.099,-0.25 q 0,-0.169 0.063,-0.305 0.052,-0.111 0.132,-0.178 0.021,-0.017 0.027,-0.017 0.01,0 0.01,0.01 0,0.005 -0.013,0.017 -0.161,0.164 -0.161,0.473 0,0.308 0.157,0.468 0.017,0.017 0.017,0.022 z"
          id="path102" />
      </g>
      <g transform="translate(4.467,20.63)" id="g104">
        <path fill="currentColor" stroke="none" paint-order="stroke fill markers"
          d="M 0.334,-0.302 0.3,-0.165 q -0.017,0.068 -0.017,0.088 0,0.052 0.037,0.063 0.008,0.003 0.018,0.003 0.05,0 0.091,-0.05 0.027,-0.032 0.042,-0.081 0.003,-0.011 0.013,-0.011 0.012,0 0.012,0.01 0,0.025 -0.031,0.072 Q 0.411,0.011 0.336,0.011 0.268,0.011 0.237,-0.046 0.231,-0.055 0.228,-0.065 0.204,-0.017 0.162,0.002 0.143,0.011 0.123,0.011 q -0.06,0 -0.084,-0.035 -0.01,-0.013 -0.01,-0.031 0,-0.037 0.032,-0.052 0.011,-0.006 0.023,-0.006 0.03,0 0.036,0.025 0.001,0.005 0.001,0.01 0,0.034 -0.034,0.05 -0.006,0.003 -0.013,0.004 0.021,0.013 0.05,0.013 0.053,0 0.084,-0.071 0.006,-0.015 0.011,-0.033 0.054,-0.204 0.054,-0.238 -0.006,-0.062 -0.054,-0.067 -0.052,0 -0.095,0.053 v 0.001 q 0,0.001 -0.001,0.001 -0.015,0.02 -0.027,0.046 -0.005,0.012 -0.009,0.024 l -0.002,0.006 q -0.002,0.011 -0.013,0.011 -0.012,0 -0.012,-0.01 0,-0.025 0.032,-0.072 0.054,-0.082 0.129,-0.082 0.077,0 0.108,0.076 0.032,-0.062 0.085,-0.074 0.01,-0.002 0.02,-0.002 0.059,0 0.083,0.033 0.01,0.014 0.01,0.033 0,0.041 -0.037,0.055 -0.009,0.003 -0.017,0.003 -0.031,0 -0.037,-0.027 -0.001,-0.004 -0.001,-0.008 0,-0.03 0.029,-0.047 0.009,-0.005 0.019,-0.007 -0.021,-0.013 -0.05,-0.013 -0.068,0 -0.096,0.106 -0.002,0.006 -0.003,0.012 z"
          id="path103" />
      </g>
      <g transform="translate(5.039,20.63)" id="g105">
        <path fill="currentColor" stroke="none" paint-order="stroke fill markers"
          d="m 0.289,-0.25 v 0 q 0,0.169 -0.063,0.305 Q 0.174,0.166 0.094,0.233 0.073,0.25 0.067,0.25 q -0.01,0 -0.01,-0.01 0,-0.005 0.013,-0.017 0.161,-0.164 0.161,-0.473 0,-0.305 -0.15,-0.462 L 0.076,-0.717 Q 0.057,-0.735 0.057,-0.74 q 0,-0.01 0.01,-0.01 0.012,0 0.053,0.041 0.062,0.062 0.103,0.147 0.066,0.136 0.066,0.312 z"
          id="path104" />
      </g>
    </g>
    <g transform="scale(25)" id="g113">
      <g transform="translate(1.52,7.43)" id="g107">
        <path fill="currentColor" stroke="none" paint-order="stroke fill markers"
          d="m 0.367,-0.4 v 0 l -0.06,0.317 Q 0.298,-0.021 0.271,0.059 0.261,0.088 0.251,0.108 0.216,0.182 0.164,0.2 0.151,0.205 0.138,0.205 0.088,0.205 0.064,0.171 0.053,0.156 0.053,0.136 q 0,-0.04 0.034,-0.055 0.01,-0.005 0.021,-0.005 0.029,0 0.036,0.025 0.001,0.005 0.001,0.01 0,0.034 -0.03,0.048 -0.011,0.005 -0.025,0.006 0.019,0.018 0.048,0.018 0.044,0 0.069,-0.098 0.005,-0.023 0.012,-0.06 L 0.225,-0.005 0.3,-0.4 H 0.234 q -0.025,0 -0.027,-0.008 H 0.206 v -0.004 q 0,-0.017 0.017,-0.019 v 0 h 0.013 0.069 q 0.024,-0.125 0.033,-0.157 0.03,-0.1 0.106,-0.115 0.011,-0.002 0.021,-0.002 0.052,0 0.076,0.034 v 0 q 0.011,0.015 0.011,0.035 0,0.04 -0.034,0.055 -0.01,0.005 -0.021,0.005 -0.029,0 -0.036,-0.025 -0.001,-0.005 -0.001,-0.01 0,-0.031 0.028,-0.046 0.011,-0.007 0.026,-0.008 -0.019,-0.018 -0.049,-0.018 -0.031,0 -0.047,0.034 -0.007,0.014 -0.024,0.104 l -0.021,0.114 h 0.083 q 0.025,0 0.027,0.011 0,0.018 -0.016,0.02 H 0.466 0.453 Z"
          id="path106" />
      </g>
      <g transform="translate(2.118,7.43)" id="g108">
        <path fill="currentColor" stroke="none" paint-order="stroke fill markers"
          d="m 0.331,0.24 v 0 q 0,0.01 -0.01,0.01 Q 0.309,0.25 0.268,0.209 0.206,0.147 0.165,0.062 0.099,-0.074 0.099,-0.25 q 0,-0.169 0.063,-0.305 0.052,-0.111 0.132,-0.178 0.021,-0.017 0.027,-0.017 0.01,0 0.01,0.01 0,0.005 -0.013,0.017 -0.161,0.164 -0.161,0.473 0,0.308 0.157,0.468 0.017,0.017 0.017,0.022 z"
          id="path107" />
      </g>
      <g transform="translate(2.507,7.43)" id="g109">
        <path fill="currentColor" stroke="none" paint-order="stroke fill markers"
          d="M 0.334,-0.302 0.3,-0.165 q -0.017,0.068 -0.017,0.088 0,0.052 0.037,0.063 0.008,0.003 0.018,0.003 0.05,0 0.091,-0.05 0.027,-0.032 0.042,-0.081 0.003,-0.011 0.013,-0.011 0.012,0 0.012,0.01 0,0.025 -0.031,0.072 Q 0.411,0.011 0.336,0.011 0.268,0.011 0.237,-0.046 0.231,-0.055 0.228,-0.065 0.204,-0.017 0.162,0.002 0.143,0.011 0.123,0.011 q -0.06,0 -0.084,-0.035 -0.01,-0.013 -0.01,-0.031 0,-0.037 0.032,-0.052 0.011,-0.006 0.023,-0.006 0.03,0 0.036,0.025 0.001,0.005 0.001,0.01 0,0.034 -0.034,0.05 -0.006,0.003 -0.013,0.004 0.021,0.013 0.05,0.013 0.053,0 0.084,-0.071 0.006,-0.015 0.011,-0.033 0.054,-0.204 0.054,-0.238 -0.006,-0.062 -0.054,-0.067 -0.052,0 -0.095,0.053 v 0.001 q 0,0.001 -0.001,0.001 -0.015,0.02 -0.027,0.046 -0.005,0.012 -0.009,0.024 l -0.002,0.006 q -0.002,0.011 -0.013,0.011 -0.012,0 -0.012,-0.01 0,-0.025 0.032,-0.072 0.054,-0.082 0.129,-0.082 0.077,0 0.108,0.076 0.032,-0.062 0.085,-0.074 0.01,-0.002 0.02,-0.002 0.059,0 0.083,0.033 0.01,0.014 0.01,0.033 0,0.041 -0.037,0.055 -0.009,0.003 -0.017,0.003 -0.031,0 -0.037,-0.027 -0.001,-0.004 -0.001,-0.008 0,-0.03 0.029,-0.047 0.009,-0.005 0.019,-0.007 -0.021,-0.013 -0.05,-0.013 -0.068,0 -0.096,0.106 -0.002,0.006 -0.003,0.012 z"
          id="path108" />
      </g>
      <g transform="translate(3.3012222,7.43)" id="g110">
        <path fill="currentColor" stroke="none" paint-order="stroke fill markers"
          d="m 0.409,-0.23 v 0.28 q 0,0.032 -0.02,0.033 -0.02,0 -0.02,-0.033 v -0.28 h -0.28 q -0.032,0 -0.033,-0.02 0,-0.02 0.033,-0.02 h 0.28 v -0.28 q 0,-0.032 0.02,-0.033 0.02,0 0.02,0.033 v 0.28 h 0.279 q 0.032,0 0.033,0.02 0,0.02 -0.033,0.02 z"
          id="path109" />
      </g>
      <g transform="translate(4.3014444,7.43)" id="g111">
        <path fill="currentColor" stroke="none" paint-order="stroke fill markers"
          d="m 0.287,-0.683 -0.078,0.318 q 0.062,-0.077 0.148,-0.077 0.089,0 0.11,0.069 v 0.001 q 0.005,0.017 0.005,0.037 0,0.056 -0.061,0.22 -0.018,0.044 -0.018,0.071 0,0.033 0.024,0.033 0.062,0 0.098,-0.11 l 0.004,-0.014 q 0.005,-0.016 0.01,-0.017 v -0.001 h 0.005 q 0.012,0 0.012,0.01 0,0.017 -0.021,0.063 -0.043,0.091 -0.11,0.091 -0.051,0 -0.073,-0.043 -0.009,-0.018 -0.009,-0.039 0,-0.018 0.013,-0.055 0.062,-0.158 0.062,-0.224 0,-0.07 -0.054,-0.07 -0.048,0 -0.096,0.035 -0.037,0.029 -0.065,0.086 L 0.19,-0.293 Q 0.186,-0.269 0.179,-0.248 0.174,-0.225 0.162,-0.181 L 0.14,-0.091 0.121,-0.015 Q 0.114,0.006 0.09,0.01 0.087,0.011 0.084,0.011 0.06,0.011 0.056,-0.01 0.055,-0.014 0.055,-0.017 q 0,-0.008 0.004,-0.022 l 0.145,-0.576 0.003,-0.02 q 0,-0.011 -0.014,-0.014 v 0 q -0.012,-0.003 -0.036,-0.003 -0.022,0 -0.024,-0.012 0,-0.017 0.019,-0.02 l 0.122,-0.01 q 0.013,0 0.013,0.011 z"
          id="path110" />
      </g>
      <g transform="translate(4.8774444,7.43)" id="g112">
        <path fill="currentColor" stroke="none" paint-order="stroke fill markers"
          d="m 0.289,-0.25 v 0 q 0,0.169 -0.063,0.305 Q 0.174,0.166 0.094,0.233 0.073,0.25 0.067,0.25 q -0.01,0 -0.01,-0.01 0,-0.005 0.013,-0.017 0.161,-0.164 0.161,-0.473 0,-0.305 -0.15,-0.462 L 0.076,-0.717 Q 0.057,-0.735 0.057,-0.74 q 0,-0.01 0.01,-0.01 0.012,0 0.053,0.041 0.062,0.062 0.103,0.147 0.066,0.136 0.066,0.312 z"
          id="path111" />
      </g>
    </g>
    <g transform="scale(25)" id="g116">
      <g transform="translate(27.36,14.163)" id="g114">
        <path fill="currentColor" stroke="none" paint-order="stroke fill markers"
          d="M 0.442,-0.698 0.78,-0.02 Q 0.785,-0.011 0.785,-0.008 0.779,0 0.763,0 H 0.069 q -0.021,0 -0.022,-0.008 0,-0.003 0.005,-0.012 L 0.39,-0.698 q 0.008,-0.015 0.016,-0.017 0.004,-0.001 0.01,-0.001 0.016,0 0.022,0.011 0.001,0.002 0.004,0.007 m -0.058,0.082 -0.27,0.54 h 0.539 z"
          id="path113" />
      </g>
      <g transform="translate(28.193,14.163)" id="g115">
        <path fill="currentColor" stroke="none" paint-order="stroke fill markers"
          d="M 0.486,-0.381 0.39,0.001 Q 0.366,0.099 0.283,0.16 0.222,0.205 0.156,0.205 0.089,0.205 0.061,0.159 0.05,0.14 0.05,0.118 0.05,0.067 0.091,0.055 0.099,0.053 0.106,0.053 q 0.032,0 0.036,0.028 0.001,0.003 0.001,0.007 0,0.023 -0.02,0.041 -0.014,0.012 -0.043,0.012 0.018,0.042 0.076,0.042 0.062,0 0.11,-0.063 0.039,-0.052 0.062,-0.141 0.001,-0.004 0.003,-0.013 -0.045,0.045 -0.101,0.045 -0.08,0 -0.109,-0.059 -0.013,-0.026 -0.013,-0.06 0,-0.055 0.053,-0.197 0.002,-0.006 0.005,-0.013 0.017,-0.046 0.017,-0.07 0,-0.032 -0.025,-0.032 -0.055,0 -0.09,0.091 v 0.001 q -0.006,0.015 -0.011,0.032 -0.011,0.017 -0.016,0.018 -0.012,0 -0.012,-0.01 0,-0.018 0.021,-0.063 0.044,-0.091 0.111,-0.091 0.053,0 0.074,0.045 0.008,0.017 0.008,0.037 0,0.021 -0.02,0.072 -0.051,0.132 -0.051,0.196 0,0.081 0.062,0.081 0.058,0 0.101,-0.062 0.01,-0.015 0.012,-0.023 l 0.045,-0.18 q 0.007,-0.033 0.02,-0.08 0.01,-0.043 0.014,-0.054 0.013,-0.021 0.035,-0.021 0.025,0.005 0.029,0.027 0,0.009 -0.004,0.023 z"
          id="path114" />
      </g>
    </g>
    <g transform="scale(25)" id="g119">
      <g transform="translate(25.48,16.494)" id="g117">
        <path fill="currentColor" stroke="none" paint-order="stroke fill markers"
          d="m 0.516,-0.683 -0.144,0.578 q -0.006,0.025 -0.006,0.048 0,0.046 0.03,0.046 0.038,0 0.064,-0.08 0.005,-0.017 0.012,-0.044 0.008,-0.017 0.014,-0.018 0.012,0 0.012,0.01 0,0.015 -0.018,0.07 Q 0.474,-0.056 0.468,-0.044 0.44,0.011 0.394,0.011 0.338,0.011 0.313,-0.037 0.306,-0.049 0.303,-0.064 0.24,0.011 0.173,0.011 0.098,0.011 0.062,-0.057 0.04,-0.097 0.04,-0.149 q 0,-0.108 0.075,-0.2 0.07,-0.084 0.152,-0.092 0.007,-0.001 0.014,-0.001 0.061,0 0.092,0.064 l 0.06,-0.237 0.003,-0.02 q 0,-0.011 -0.014,-0.014 -0.012,-0.003 -0.036,-0.003 -0.022,0 -0.024,-0.012 0,-0.017 0.014,-0.019 0.094,-0.011 0.127,-0.011 0.013,0 0.013,0.011 m -0.208,0.564 v 0 l 0.05,-0.196 q 0.003,-0.015 0.003,-0.017 0,-0.021 -0.018,-0.051 -0.022,-0.037 -0.061,-0.037 -0.052,0 -0.099,0.068 -0.009,0.013 -0.017,0.028 -0.029,0.058 -0.049,0.165 -0.006,0.034 -0.006,0.054 0,0.068 0.038,0.088 0.011,0.006 0.026,0.006 0.056,0 0.113,-0.071 0.014,-0.016 0.019,-0.033 v -0.001 q 0.001,-0.002 0.001,-0.003 z"
          id="path116" />
      </g>
      <g transform="translate(26,16.494)" id="g118">
        <path fill="currentColor" stroke="none" paint-order="stroke fill markers"
          d="M 0.486,-0.381 0.39,0.001 Q 0.366,0.099 0.283,0.16 0.222,0.205 0.156,0.205 0.089,0.205 0.061,0.159 0.05,0.14 0.05,0.118 0.05,0.067 0.091,0.055 0.099,0.053 0.106,0.053 q 0.032,0 0.036,0.028 0.001,0.003 0.001,0.007 0,0.023 -0.02,0.041 -0.014,0.012 -0.043,0.012 0.018,0.042 0.076,0.042 0.062,0 0.11,-0.063 0.039,-0.052 0.062,-0.141 0.001,-0.004 0.003,-0.013 -0.045,0.045 -0.101,0.045 -0.08,0 -0.109,-0.059 -0.013,-0.026 -0.013,-0.06 0,-0.055 0.053,-0.197 0.002,-0.006 0.005,-0.013 0.017,-0.046 0.017,-0.07 0,-0.032 -0.025,-0.032 -0.055,0 -0.09,0.091 v 0.001 q -0.006,0.015 -0.011,0.032 -0.011,0.017 -0.016,0.018 -0.012,0 -0.012,-0.01 0,-0.018 0.021,-0.063 0.044,-0.091 0.111,-0.091 0.053,0 0.074,0.045 0.008,0.017 0.008,0.037 0,0.021 -0.02,0.072 -0.051,0.132 -0.051,0.196 0,0.081 0.062,0.081 0.058,0 0.101,-0.062 0.01,-0.015 0.012,-0.023 l 0.045,-0.18 q 0.007,-0.033 0.02,-0.08 0.01,-0.043 0.014,-0.054 0.013,-0.021 0.035,-0.021 0.025,0.005 0.029,0.027 0,0.009 -0.004,0.023 z"
          id="path117" />
      </g>
    </g>
  </g>
</svg>