<?xml version="1.0" encoding="UTF-8" standalone="no"?>
<!-- Created with Inkscape (http://www.inkscape.org/) -->

<svg width="200" height="150" viewBox="0 0 200 150" version="1.1" id="svg1" xml:space="preserve"
  inkscape:export-filename="bitmap.svg" inkscape:export-xdpi="96" inkscape:export-ydpi="96"
  xmlns:inkscape="http://www.inkscape.org/namespaces/inkscape"
  xmlns:sodipodi="http://sodipodi.sourceforge.net/DTD/sodipodi-0.dtd" xmlns="http://www.w3.org/2000/svg"
  xmlns:svg="http://www.w3.org/2000/svg">
  <sodipodi:namedview id="namedview1" pagecolor="#505050" bordercolor="#eeeeee" borderopacity="1"
    inkscape:showpageshadow="false" inkscape:pageopacity="0" inkscape:pagecheckerboard="0" inkscape:deskcolor="#505050"
    inkscape:document-units="px" showborder="true" showguides="true">
    <sodipodi:guide position="-163.56075,74.941298" orientation="0,-1" id="guide1" inkscape:locked="false" />
    <sodipodi:guide position="100.26498,219.45731" orientation="1,0" id="guide2" inkscape:locked="false" />
  </sodipodi:namedview>
  <defs id="defs1" />
  <g inkscape:label="Capa 1" inkscape:groupmode="layer" id="layer1">
    <g style="fill:currentColor" id="g1" transform="matrix(9.3670847,0,0,9.3670847,34.489839,-0.4381161)">
      <path fill-rule="evenodd"
        d="M 14,4.5 V 14 a 2,2 0 0 1 -2,2 H 9 v -1 h 3 a 1,1 0 0 0 1,-1 V 4.5 H 11 A 1.5,1.5 0 0 1 9.5,3 V 1 H 4 A 1,1 0 0 0 3,2 v 9 H 2 V 2 A 2,2 0 0 1 4,0 H 9.5 Z M 0.706,13.189 v 2.66 H 0 V 11.85 h 0.806 l 1.14,2.596 h 0.026 l 1.14,-2.596 h 0.8 v 3.999 H 3.196 v -2.66 H 3.158 L 2.212,15.348 H 1.696 L 0.744,13.188 H 0.706 Z m 3.919,2.66 V 11.85 h 1.459 q 0.609,0 1.005,0.234 0.396,0.234 0.589,0.68 0.195,0.445 0.196,1.075 0,0.634 -0.196,1.084 -0.197,0.451 -0.595,0.689 -0.396,0.237 -1,0.237 H 4.626 Z M 5.978,12.495 H 5.416 v 2.707 h 0.562 q 0.279,0 0.484,-0.082 A 0.8,0.8 0 0 0 6.796,14.868 1.1,1.1 0 0 0 6.992,14.446 Q 7.059,14.194 7.059,13.854 A 2.1,2.1 0 0 0 6.942,13.101 0.9,0.9 0 0 0 6.588,12.647 Q 6.35,12.495 5.978,12.495"
        id="path1" />
    </g>
  </g>
</svg>