<?xml version="1.0" encoding="UTF-8" standalone="no"?>
<!-- Created with Inkscape (http://www.inkscape.org/) -->

<svg width="200" height="150" viewBox="0 0 200 150" version="1.1" id="svg1" xml:space="preserve"
  inkscape:export-filename="limite.svg" inkscape:export-xdpi="96" inkscape:export-ydpi="96"
  xmlns:inkscape="http://www.inkscape.org/namespaces/inkscape"
  xmlns:sodipodi="http://sodipodi.sourceforge.net/DTD/sodipodi-0.dtd" xmlns:xlink="http://www.w3.org/1999/xlink"
  xmlns="http://www.w3.org/2000/svg" xmlns:svg="http://www.w3.org/2000/svg">
  <sodipodi:namedview id="namedview1" pagecolor="#505050" bordercolor="#eeeeee" borderopacity="1"
    inkscape:showpageshadow="false" inkscape:pageopacity="0" inkscape:pagecheckerboard="0" inkscape:deskcolor="#505050"
    inkscape:document-units="px" showborder="true" showguides="true">
    <sodipodi:guide position="-163.56075,74.941298" orientation="0,-1" id="guide1" inkscape:locked="false" />
    <sodipodi:guide position="100.26498,219.45731" orientation="1,0" id="guide2" inkscape:locked="false" />
  </sodipodi:namedview>
  <defs id="defs1">
    <use id="g2-102-5" xlink:href="#g1-102-3" transform="scale(1.199614)" />
    <use id="g2-120-3" xlink:href="#g1-120-1" transform="scale(1.199614)" />
    <path id="g0-33-7"
      d="m 17.232543,-4.75238 c -1.136439,0.867826 -1.694327,1.714989 -1.859627,1.983602 -0.929814,1.425714 -1.095114,2.727453 -1.095114,2.748115 0,0.247951 0.24795,0.247951 0.41325,0.247951 0.351263,0 0.371926,-0.041325 0.454576,-0.413251 0.475238,-2.024927 1.694327,-3.760579 4.029192,-4.711054 0.24795,-0.082651 0.309937,-0.123976 0.309937,-0.268613 0,-0.144637 -0.123975,-0.206625 -0.1653,-0.227288 -0.909151,-0.351263 -3.409316,-1.384389 -4.194492,-4.855692 -0.06199,-0.247951 -0.08265,-0.309938 -0.433913,-0.309938 -0.1653,0 -0.41325,0 -0.41325,0.24795 0,0.04133 0.185963,1.343064 1.053789,2.727453 0.41325,0.619875 1.012463,1.343064 1.900952,2.004264 H 1.880289 c -0.371925,0 -0.74385,0 -0.74385,0.413251 0,0.413251 0.371925,0.41325 0.74385,0.41325 z" />
    <path id="g1-97-9"
      d="m 6.219419,-2.45884 c -0.103313,0.351263 -0.103313,0.392588 -0.392588,0.785176 -0.454576,0.57855 -1.363726,1.467039 -2.334865,1.467039 -0.847163,0 -1.322401,-0.764513 -1.322401,-1.983602 0,-1.136439 0.640538,-3.450641 1.033126,-4.318467 0.702525,-1.446377 1.673664,-2.190227 2.479502,-2.190227 1.363727,0 1.632339,1.694326 1.632339,1.859627 0,0.020662 -0.061987,0.289275 -0.08265,0.3306 z M 7.54182,-7.748445 C 7.314532,-8.285671 6.756644,-9.112172 5.682193,-9.112172 c -2.334865,0 -4.855692,3.016728 -4.855692,6.074781 0,2.04559 1.198426,3.244016 2.603477,3.244016 1.136439,0 2.107578,-0.888488 2.686128,-1.570351 0.206625,1.219088 1.177764,1.570351 1.79764,1.570351 0.619876,0 1.115776,-0.371925 1.487701,-1.115776 0.3306,-0.702526 0.619876,-1.962939 0.619876,-2.04559 0,-0.103312 -0.08265,-0.185962 -0.206626,-0.185962 -0.185962,0 -0.206625,0.103312 -0.289275,0.41325 -0.309938,1.219089 -0.702526,2.520828 -1.549689,2.520828 -0.599213,0 -0.640538,-0.537226 -0.640538,-0.950476 0,-0.475238 0.061988,-0.702526 0.24795,-1.508364 0.144638,-0.516563 0.24795,-0.971139 0.413251,-1.570352 0.764513,-3.099378 0.950476,-3.843229 0.950476,-3.967204 0,-0.289275 -0.227288,-0.516563 -0.537226,-0.516563 -0.661201,0 -0.826501,0.723188 -0.867826,0.971139 z" />
    <path id="g1-102-3"
      d="m 9.215484,-8.306333 c 0.413251,0 0.578551,0 0.578551,-0.392588 0,-0.206626 -0.1653,-0.206626 -0.537226,-0.206626 H 7.583145 c 0.392588,-2.128239 0.681863,-3.595278 0.847164,-4.256479 0.123975,-0.4959 0.557888,-0.971138 1.095113,-0.971138 0.433913,0 0.867826,0.185962 1.074451,0.371925 -0.805838,0.08265 -1.053788,0.681863 -1.053788,1.033126 0,0.41325 0.309938,0.661201 0.702525,0.661201 0.413251,0 1.033126,-0.351263 1.033126,-1.136439 0,-0.867826 -0.867825,-1.343064 -1.776976,-1.343064 -0.888489,0 -1.756315,0.661201 -2.169565,1.467039 -0.371925,0.723188 -0.578551,1.467039 -1.053789,4.173829 H 4.897017 c -0.392587,0 -0.599213,0 -0.599213,0.371926 0,0.227288 0.123976,0.227288 0.537226,0.227288 H 6.157431 C 5.785506,-6.384719 4.938343,-1.714989 4.463105,0.495901 4.111842,2.29354 3.801904,3.801904 2.768778,3.801904 c -0.061988,0 -0.661201,0 -1.033126,-0.392588 C 2.78944,3.326666 2.78944,2.417515 2.78944,2.396852 c 0,-0.41325 -0.309937,-0.6612 -0.702525,-0.6612 -0.413251,0 -1.033126,0.351263 -1.033126,1.136438 0,0.888489 0.90915,1.343064 1.714989,1.343064 2.107577,0 2.975403,-3.781241 3.202691,-4.814367 0.371925,-1.591014 1.384388,-7.087245 1.487701,-7.70712 z" />
    <path id="g1-120-1"
      d="m 9.794035,-8.430309 c -0.661201,0.123976 -0.909151,0.619876 -0.909151,1.012464 0,0.4959 0.392588,0.661201 0.681863,0.661201 0.619876,0 1.053789,-0.537226 1.053789,-1.095114 0,-0.867826 -0.991801,-1.260414 -1.859627,-1.260414 -1.260414,0 -1.96294,1.239751 -2.148902,1.632339 -0.475238,-1.549689 -1.756315,-1.632339 -2.12824,-1.632339 -2.107577,0 -3.223353,2.70679 -3.223353,3.161366 0,0.08265 0.08265,0.185963 0.227288,0.185963 0.1653,0 0.206625,-0.123975 0.24795,-0.206626 0.702525,-2.293539 2.086914,-2.727452 2.686128,-2.727452 0.929813,0 1.115776,0.867826 1.115776,1.363726 0,0.454575 -0.123975,0.929813 -0.371926,1.921614 l -0.702525,2.830766 c -0.309938,1.239751 -0.909151,2.37619 -2.004265,2.37619 -0.103313,0 -0.619876,0 -1.053789,-0.268613 0.743851,-0.144638 0.909151,-0.764513 0.909151,-1.012464 0,-0.41325 -0.309937,-0.6612 -0.702525,-0.6612 -0.495901,0 -1.033126,0.433913 -1.033126,1.095113 0,0.867826 0.971138,1.260414 1.859626,1.260414 0.991801,0 1.694327,-0.785176 2.12824,-1.632339 0.3306,1.219089 1.363727,1.632339 2.12824,1.632339 2.107577,0 3.223353,-2.70679 3.223353,-3.161366 0,-0.103312 -0.08265,-0.185962 -0.206625,-0.185962 -0.185963,0 -0.206625,0.103312 -0.268613,0.268613 -0.557888,1.818301 -1.756314,2.665465 -2.686128,2.665465 -0.723188,0 -1.115776,-0.537226 -1.115776,-1.384389 0,-0.454576 0.08265,-0.785176 0.413251,-2.148902 l 0.723188,-2.810103 c 0.309938,-1.239751 1.012463,-2.148902 1.962939,-2.148902 0.041325,0 0.619876,0 1.053789,0.268612 z" />
    <path id="g3-40-4"
      d="m 7.584838,6.048041 c 0,-0.024787 0,-0.074361 -0.074361,-0.148722 C 6.370273,4.734327 3.321465,1.561584 3.321465,-6.171976 c 0,-7.73356 2.999234,-10.881517 4.213799,-12.120869 0,-0.02479 0.049574,-0.07436 0.049574,-0.148723 0,-0.07436 -0.074361,-0.123935 -0.173509,-0.123935 -0.272658,0 -2.379557,1.834242 -3.594123,4.560818 -1.239352,2.751363 -1.586371,5.428365 -1.586371,7.807922 0,1.784667 0.173509,4.808688 1.660732,8.006218 1.189779,2.577853 3.222317,4.387308 3.519762,4.387308 0.123935,0 0.173509,-0.049574 0.173509,-0.148722 z" />
    <path id="g3-41-2"
      d="m 6.518995,-6.171976 c 0,-1.784668 -0.173509,-4.808689 -1.660733,-8.006219 -1.189778,-2.577853 -3.222316,-4.387308 -3.519761,-4.387308 -0.074361,0 -0.173509,0.02479 -0.173509,0.148722 0,0.04957 0.024787,0.07436 0.049574,0.123936 1.189778,1.239352 4.213799,4.387308 4.213799,12.096082 0,7.73356 -2.999234,10.881516 -4.213799,12.120869 -0.024787,0.049574 -0.049574,0.074361 -0.049574,0.123935 0,0.123935 0.099148,0.148722 0.173509,0.148722 0.272657,0 2.379557,-1.834242 3.594123,-4.560817 1.239352,-2.751363 1.586371,-5.428365 1.586371,-7.807922 z" />
    <path id="g3-105-1"
      d="m 3.841993,-15.268825 c 0,-0.545315 -0.446167,-1.016269 -1.016269,-1.016269 -0.545315,0 -1.016269,0.446167 -1.016269,1.016269 0,0.545315 0.446167,1.016269 1.016269,1.016269 0.545315,0 1.016269,-0.446167 1.016269,-1.016269 z m -2.900085,4.684753 v 0.644464 c 1.388075,0 1.586371,0.148722 1.586371,1.3385 v 6.890801 c 0,0.941908 -0.099148,1.065844 -1.685519,1.065844 V 0 c 0.594889,-0.049574 1.660732,-0.049574 2.280409,-0.049574 0.594889,0 1.611158,0 2.18126,0.049574 v -0.644463 c -1.462436,0 -1.51201,-0.148723 -1.51201,-1.041057 v -9.171209 z" />
    <path id="g3-108-6"
      d="m 3.792419,-17.202215 -2.949659,0.272658 v 0.644463 c 1.462436,0 1.685519,0.148722 1.685519,1.338501 v 13.236286 c 0,0.941908 -0.099148,1.065844 -1.685519,1.065844 V 0 c 0.594889,-0.049574 1.685519,-0.049574 2.305196,-0.049574 0.644463,0 1.735094,0 2.329983,0.049574 v -0.644463 c -1.586372,0 -1.68552,-0.099149 -1.68552,-1.065844 z" />
    <path id="g3-109-3"
      d="m 16.756048,-7.535264 c 0,-1.239353 -0.223083,-3.321465 -3.172743,-3.321465 -1.685519,0 -2.850511,1.140204 -3.296678,2.478705 h -0.02479 c -0.297445,-2.032538 -1.759881,-2.478705 -3.147956,-2.478705 -1.958177,0 -2.974446,1.51201 -3.346252,2.503492 H 3.742845 v -2.503492 l -2.924872,0.272657 v 0.644464 c 1.462436,0 1.685519,0.148722 1.685519,1.3385 v 6.890801 c 0,0.941908 -0.099148,1.065844 -1.685519,1.065844 V 0 c 0.594889,-0.049574 1.685519,-0.049574 2.329983,-0.049574 0.644464,0 1.759881,0 2.35477,0.049574 v -0.644463 c -1.586372,0 -1.68552,-0.099149 -1.68552,-1.065844 v -4.759114 c 0,-2.280409 1.388075,-3.990716 3.123169,-3.990716 1.834242,0 2.032538,1.635946 2.032538,2.825725 v 5.924105 c 0,0.941908 -0.099148,1.065844 -1.685519,1.065844 V 0 c 0.594889,-0.049574 1.685519,-0.049574 2.329983,-0.049574 0.644464,0 1.759881,0 2.35477,0.049574 v -0.644463 c -1.586372,0 -1.68552,-0.099149 -1.68552,-1.065844 v -4.759114 c 0,-2.280409 1.388075,-3.990716 3.123169,-3.990716 1.834242,0 2.032538,1.635946 2.032538,2.825725 v 5.924105 c 0,0.941908 -0.09915,1.065844 -1.685519,1.065844 V 0 c 0.594889,-0.049574 1.685519,-0.049574 2.329983,-0.049574 0.644464,0 1.75988,0 2.35477,0.049574 v -0.644463 c -1.586372,0 -1.68552,-0.099149 -1.68552,-1.065844 z" />
  </defs>
  <g id="page1" transform="matrix(2.1786015,0,0,2.1786015,-122.00846,-78.555336)" fill="currentColor">
    <use x="62.046608" y="72.366226" xlink:href="#g3-108-6" id="use1" />
    <use x="68.234528" y="72.366226" xlink:href="#g3-105-1" id="use2" />
    <use x="74.422455" y="72.366226" xlink:href="#g3-109-3" id="use3" />
    <use x="56.413265" y="87.238472" xlink:href="#g1-120-1" id="use4" />
    <use x="67.910294" y="87.238472" xlink:href="#g0-33-7" id="use5" />
    <use x="88.572876" y="87.238472" xlink:href="#g1-97-9" id="use6" />
    <use x="103.32452" y="72.366226" xlink:href="#g2-102-5" id="use7" />
    <use x="117.93413" y="72.366226" xlink:href="#g3-40-4" id="use8" />
    <use x="126.71198" y="72.366226" xlink:href="#g2-120-3" id="use9" />
    <use x="140.50398" y="72.366226" xlink:href="#g3-41-2" id="use10" />
  </g>
</svg>