<?xml version="1.0" encoding="UTF-8" standalone="no"?>
<!-- Created with Inkscape (http://www.inkscape.org/) -->

<svg width="200" height="150" viewBox="0 0 200 150" version="1.1" id="svg1" xml:space="preserve"
  inkscape:export-filename="trigonometria.svg" inkscape:export-xdpi="96" inkscape:export-ydpi="96"
  xmlns:inkscape="http://www.inkscape.org/namespaces/inkscape"
  xmlns:sodipodi="http://sodipodi.sourceforge.net/DTD/sodipodi-0.dtd" xmlns:xlink="http://www.w3.org/1999/xlink"
  xmlns="http://www.w3.org/2000/svg" xmlns:svg="http://www.w3.org/2000/svg">
  <sodipodi:namedview id="namedview1" pagecolor="#505050" bordercolor="#eeeeee" borderopacity="1"
    inkscape:showpageshadow="false" inkscape:pageopacity="0" inkscape:pagecheckerboard="0" inkscape:deskcolor="#505050"
    inkscape:document-units="px" showborder="true" showguides="true">
    <sodipodi:guide position="-163.56075,74.941298" orientation="0,-1" id="guide1" inkscape:locked="false" />
    <sodipodi:guide position="100.26498,219.45731" orientation="1,0" id="guide2" inkscape:locked="false" />
  </sodipodi:namedview>
  <defs id="defs1">
    <path id="g0-11-8"
      d="m 11.476406,-6.271125 c 0,-2.404344 -1.363288,-4.659966 -3.990716,-4.659966 -3.247104,0 -6.494208,3.544549 -6.494208,7.064311 0,2.156473 1.338501,4.114651 3.86678,4.114651 1.536798,0 3.37104,-0.59489 5.130921,-2.082113 0.347018,1.388075 1.115417,2.082113 2.18126,2.082113 1.338501,0 2.007752,-1.388075 2.007752,-1.710307 0,-0.223084 -0.17351,-0.223084 -0.247871,-0.223084 -0.198296,0 -0.223083,0.074362 -0.297445,0.272658 -0.223083,0.619676 -0.793185,1.164991 -1.388075,1.164991 -0.768398,0 -0.768398,-1.586371 -0.768398,-3.098381 2.528279,-3.024021 3.123168,-6.147189 3.123168,-6.171977 0,-0.223083 -0.198296,-0.223083 -0.272657,-0.223083 -0.223084,0 -0.247871,0.074361 -0.347019,0.520528 -0.322232,1.09063 -0.966695,3.024021 -2.503492,5.056559 z m -1.561585,3.841994 c -2.18126,1.958177 -4.139438,2.18126 -5.006984,2.18126 -1.759881,0 -2.255622,-1.561584 -2.255622,-2.726575 0,-1.065844 0.545315,-3.594123 1.313714,-4.957411 1.016269,-1.735094 2.404344,-2.503492 3.519761,-2.503492 2.404344,0 2.404344,3.147955 2.404344,5.230068 0,0.619676 -0.024787,1.26414 -0.024787,1.883816 0,0.495741 0.024787,0.619676 0.049574,0.892334 z" />
    <path id="g1-40-2"
      d="m 7.584838,6.048041 c 0,-0.024787 0,-0.074361 -0.074361,-0.148722 C 6.370273,4.734327 3.321465,1.561584 3.321465,-6.171976 c 0,-7.73356 2.999234,-10.881517 4.213799,-12.120869 0,-0.02479 0.049574,-0.07436 0.049574,-0.148723 0,-0.07436 -0.074361,-0.123935 -0.173509,-0.123935 -0.272658,0 -2.379557,1.834242 -3.594123,4.560818 -1.239352,2.751363 -1.586371,5.428365 -1.586371,7.807922 0,1.784667 0.173509,4.808688 1.660732,8.006218 1.189779,2.577853 3.222317,4.387308 3.519762,4.387308 0.123935,0 0.173509,-0.049574 0.173509,-0.148722 z" />
    <path id="g1-41-9"
      d="m 6.518995,-6.171976 c 0,-1.784668 -0.173509,-4.808689 -1.660733,-8.006219 -1.189778,-2.577853 -3.222316,-4.387308 -3.519761,-4.387308 -0.074361,0 -0.173509,0.02479 -0.173509,0.148722 0,0.04957 0.024787,0.07436 0.049574,0.123936 1.189778,1.239352 4.213799,4.387308 4.213799,12.096082 0,7.73356 -2.999234,10.881516 -4.213799,12.120869 -0.024787,0.049574 -0.049574,0.074361 -0.049574,0.123935 0,0.123935 0.099148,0.148722 0.173509,0.148722 0.272657,0 2.379557,-1.834242 3.594123,-4.560817 1.239352,-2.751363 1.586371,-5.428365 1.586371,-7.807922 z" />
    <path id="g1-99-8"
      d="m 8.650682,-8.675469 c -0.470954,0 -1.164992,0 -1.164992,0.867547 0,0.694038 0.570102,0.892334 0.892334,0.892334 0.173509,0 0.892334,-0.074361 0.892334,-0.941908 0,-1.759881 -1.68552,-3.098382 -3.594123,-3.098382 -2.627427,0 -4.858262,2.429132 -4.858262,5.601874 0,3.296679 2.329983,5.5523 4.858262,5.5523 3.073595,0 3.841994,-2.850511 3.841994,-3.123168 0,-0.099149 -0.024788,-0.17351 -0.198297,-0.17351 -0.173509,0 -0.198296,0.024787 -0.297445,0.347019 -0.644463,2.007751 -2.057325,2.503492 -3.123168,2.503492 -1.586372,0 -3.494975,-1.462436 -3.494975,-5.13092 0,-3.767632 1.834242,-5.13092 3.296678,-5.13092 0.966695,0 2.404344,0.470954 2.94966,1.834242 z" />
    <path id="g1-105-4"
      d="m 3.841993,-15.268825 c 0,-0.545315 -0.446167,-1.016269 -1.016269,-1.016269 -0.545315,0 -1.016269,0.446167 -1.016269,1.016269 0,0.545315 0.446167,1.016269 1.016269,1.016269 0.545315,0 1.016269,-0.446167 1.016269,-1.016269 z m -2.900085,4.684753 v 0.644464 c 1.388075,0 1.586371,0.148722 1.586371,1.3385 v 6.890801 c 0,0.941908 -0.099148,1.065844 -1.685519,1.065844 V 0 c 0.594889,-0.049574 1.660732,-0.049574 2.280409,-0.049574 0.594889,0 1.611158,0 2.18126,0.049574 v -0.644463 c -1.462436,0 -1.51201,-0.148723 -1.51201,-1.041057 v -9.171209 z" />
    <path id="g1-110-1"
      d="m 10.286627,-7.535264 c 0,-1.26414 -0.24787,-3.321465 -3.172743,-3.321465 -1.958177,0 -2.974446,1.51201 -3.346252,2.503492 H 3.742845 v -2.503492 l -2.924872,0.272657 v 0.644464 c 1.462436,0 1.685519,0.148722 1.685519,1.3385 v 6.890801 c 0,0.941908 -0.099148,1.065844 -1.685519,1.065844 V 0 c 0.594889,-0.049574 1.685519,-0.049574 2.329983,-0.049574 0.644464,0 1.759881,0 2.35477,0.049574 v -0.644463 c -1.586372,0 -1.68552,-0.099149 -1.68552,-1.065844 v -4.759114 c 0,-2.280409 1.388075,-3.990716 3.123169,-3.990716 1.834242,0 2.032538,1.635946 2.032538,2.825725 v 5.924105 c 0,0.941908 -0.099148,1.065844 -1.685519,1.065844 V 0 c 0.594889,-0.049574 1.685519,-0.049574 2.329983,-0.049574 0.644464,0 1.759881,0 2.35477,0.049574 v -0.644463 c -1.586372,0 -1.68552,-0.099149 -1.68552,-1.065844 z" />
    <path id="g1-111-0"
      d="m 10.68322,-5.304429 c 0,-3.172743 -2.305196,-5.651449 -5.006985,-5.651449 -2.701789,0 -5.006985,2.478706 -5.006985,5.651449 0,3.123168 2.305196,5.502725 5.006985,5.502725 2.701789,0 5.006985,-2.379557 5.006985,-5.502725 z m -5.006985,5.056558 c -1.164991,0 -2.156473,-0.694037 -2.726576,-1.660732 -0.619676,-1.115418 -0.694037,-2.503493 -0.694037,-3.594123 0,-1.041056 0.049574,-2.329983 0.694037,-3.4454 0.495741,-0.817973 1.462437,-1.611159 2.726576,-1.611159 1.115418,0 2.057326,0.619677 2.652215,1.487223 0.768399,1.164992 0.768399,2.800937 0.768399,3.569336 0,0.966695 -0.049574,2.453918 -0.718825,3.643697 -0.694037,1.140204 -1.759881,1.611158 -2.701789,1.611158 z" />
    <path id="g1-115-6"
      d="m 7.6592,-10.460137 c 0,-0.446167 -0.024788,-0.470954 -0.17351,-0.470954 -0.099148,0 -0.123935,0.02479 -0.42138,0.396593 -0.074361,0.09915 -0.297444,0.347019 -0.371806,0.446167 -0.793185,-0.84276 -1.908603,-0.867547 -2.329983,-0.867547 -2.751363,0 -3.742845,1.437649 -3.742845,2.875299 0,2.230834 2.52828,2.751363 3.247104,2.900085 1.561585,0.322232 2.1069,0.42138 2.627428,0.867547 0.322232,0.297444 0.867547,0.84276 0.867547,1.735093 0,1.041057 -0.594889,2.379558 -2.875298,2.379558 -2.156474,0 -2.924873,-1.635946 -3.37104,-3.817207 -0.074361,-0.347018 -0.074361,-0.371805 -0.272657,-0.371805 -0.198296,0 -0.223084,0.024787 -0.223084,0.520528 v 3.569335 c 0,0.446167 0.024787,0.470954 0.17351,0.470954 0.123935,0 0.148722,-0.024787 0.272657,-0.223083 0.148723,-0.223084 0.520528,-0.817973 0.669251,-1.065843 0.495741,0.66925 1.363288,1.313713 2.751363,1.313713 2.453918,0 3.767632,-1.3385 3.767632,-3.271891 0,-1.264139 -0.669251,-1.93339 -0.991482,-2.230834 C 6.518995,-6.072828 5.651448,-6.246337 4.610392,-6.444634 3.247104,-6.742079 1.51201,-7.089097 1.51201,-8.601108 c 0,-0.644463 0.347019,-2.007751 2.850511,-2.007751 2.652215,0 2.800937,2.478705 2.850512,3.271891 0.024787,0.123935 0.148722,0.148723 0.223083,0.148723 0.223084,0 0.223084,-0.074362 0.223084,-0.495742 z" />
  </defs>
  <g id="page1" transform="matrix(2.4043229,0,0,2.4043229,-113.84611,-123.94962)" fill="currentColor">
    <use x="58.903744" y="72.366226" xlink:href="#g1-115-6" id="use1" />
    <use x="67.811119" y="72.366226" xlink:href="#g1-105-4" id="use2" />
    <use x="73.999039" y="72.366226" xlink:href="#g1-110-1" id="use3" />
    <use x="86.661789" y="72.366226" xlink:href="#g1-40-2" id="use4" />
    <use x="95.439644" y="72.366226" xlink:href="#g0-11-8" id="use5" />
    <use x="111.03469" y="72.366226" xlink:href="#g1-41-9" id="use6" />
    <rect x="57.60878" y="82.442368" height="0.991445" width="63.498695" id="rect6" />
    <use x="57.60878" y="106.13755" xlink:href="#g1-99-8" id="use7" />
    <use x="67.681618" y="106.13755" xlink:href="#g1-111-0" id="use8" />
    <use x="79.049408" y="106.13755" xlink:href="#g1-115-6" id="use9" />
    <use x="87.956757" y="106.13755" xlink:href="#g1-40-2" id="use10" />
    <use x="96.734612" y="106.13755" xlink:href="#g0-11-8" id="use11" />
    <use x="112.32965" y="106.13755" xlink:href="#g1-41-9" id="use12" />
  </g>
</svg>