<svg version="1.1" xmlns="http://www.w3.org/2000/svg" xmlns:xlink="http://www.w3.org/1999/xlink" width="888"
    height="704">
    <defs>
        <clipPath id="GWfTDkvSrpTb">
            <path fill="none" stroke="none" d=" M 0 0 L 888 0 L 888 704 L 0 704 L 0 0 Z" />
        </clipPath>
    </defs>
    <g transform="scale(1,1)" clip-path="url(#GWfTDkvSrpTb)">
        <g>
            <rect fill="rgb(255,255,255)" stroke="none" x="0" y="0" width="888" height="704" fill-opacity="1" />
            <path fill="none" stroke="rgb(37,37,37)" paint-order="fill stroke markers" d=" M 444.5 2.5 L 444.5 704.5"
                stroke-opacity="1" stroke-miterlimit="10" />
            <path fill="none" stroke="rgb(37,37,37)" paint-order="fill stroke markers" d=" M 444.5 1.5 L 440.5 5.5"
                stroke-opacity="1" stroke-miterlimit="10" />
            <path fill="none" stroke="rgb(37,37,37)" paint-order="fill stroke markers" d=" M 444.5 1.5 L 448.5 5.5"
                stroke-opacity="1" stroke-miterlimit="10" />
            <path fill="none" stroke="rgb(37,37,37)" paint-order="fill stroke markers" d=" M 0.5 641.5 L 886.5 641.5"
                stroke-opacity="1" stroke-miterlimit="10" />
            <path fill="none" stroke="rgb(37,37,37)" paint-order="fill stroke markers" d=" M 887.5 641.5 L 883.5 637.5"
                stroke-opacity="1" stroke-miterlimit="10" />
            <path fill="none" stroke="rgb(37,37,37)" paint-order="fill stroke markers" d=" M 887.5 641.5 L 883.5 645.5"
                stroke-opacity="1" stroke-miterlimit="10" /><text fill="rgb(37,37,37)" stroke="none"
                font-family="geogebra-sans-serif, sans-serif" font-size="12px" font-style="normal" font-weight="normal"
                text-decoration="normal" x="105" y="657" text-anchor="start" dominant-baseline="alphabetic"
                fill-opacity="1">–3</text><text fill="none" stroke="rgb(255,255,255)"
                font-family="geogebra-sans-serif, sans-serif" font-size="12px" font-style="normal" font-weight="normal"
                text-decoration="normal" x="105" y="657" text-anchor="start" dominant-baseline="alphabetic"
                stroke-opacity="1" stroke-linejoin="bevel" stroke-miterlimit="10" stroke-width="3">–3</text><text
                fill="rgb(37,37,37)" stroke="none" font-family="geogebra-sans-serif, sans-serif" font-size="12px"
                font-style="normal" font-weight="normal" text-decoration="normal" x="105" y="657" text-anchor="start"
                dominant-baseline="alphabetic" fill-opacity="1">–3</text>
            <path fill="none" stroke="rgb(37,37,37)" paint-order="fill stroke markers" d=" M 110.5 641.5 L 110.5 644.5"
                stroke-opacity="1" stroke-miterlimit="10" /><text fill="rgb(37,37,37)" stroke="none"
                font-family="geogebra-sans-serif, sans-serif" font-size="12px" font-style="normal" font-weight="normal"
                text-decoration="normal" x="216" y="657" text-anchor="start" dominant-baseline="alphabetic"
                fill-opacity="1">–2</text><text fill="none" stroke="rgb(255,255,255)"
                font-family="geogebra-sans-serif, sans-serif" font-size="12px" font-style="normal" font-weight="normal"
                text-decoration="normal" x="216" y="657" text-anchor="start" dominant-baseline="alphabetic"
                stroke-opacity="1" stroke-linejoin="bevel" stroke-miterlimit="10" stroke-width="3">–2</text><text
                fill="rgb(37,37,37)" stroke="none" font-family="geogebra-sans-serif, sans-serif" font-size="12px"
                font-style="normal" font-weight="normal" text-decoration="normal" x="216" y="657" text-anchor="start"
                dominant-baseline="alphabetic" fill-opacity="1">–2</text>
            <path fill="none" stroke="rgb(37,37,37)" paint-order="fill stroke markers" d=" M 221.5 641.5 L 221.5 644.5"
                stroke-opacity="1" stroke-miterlimit="10" /><text fill="rgb(37,37,37)" stroke="none"
                font-family="geogebra-sans-serif, sans-serif" font-size="12px" font-style="normal" font-weight="normal"
                text-decoration="normal" x="328" y="657" text-anchor="start" dominant-baseline="alphabetic"
                fill-opacity="1">–1</text><text fill="none" stroke="rgb(255,255,255)"
                font-family="geogebra-sans-serif, sans-serif" font-size="12px" font-style="normal" font-weight="normal"
                text-decoration="normal" x="328" y="657" text-anchor="start" dominant-baseline="alphabetic"
                stroke-opacity="1" stroke-linejoin="bevel" stroke-miterlimit="10" stroke-width="3">–1</text><text
                fill="rgb(37,37,37)" stroke="none" font-family="geogebra-sans-serif, sans-serif" font-size="12px"
                font-style="normal" font-weight="normal" text-decoration="normal" x="328" y="657" text-anchor="start"
                dominant-baseline="alphabetic" fill-opacity="1">–1</text>
            <path fill="none" stroke="rgb(37,37,37)" paint-order="fill stroke markers" d=" M 333.5 641.5 L 333.5 644.5"
                stroke-opacity="1" stroke-miterlimit="10" /><text fill="rgb(37,37,37)" stroke="none"
                font-family="geogebra-sans-serif, sans-serif" font-size="12px" font-style="normal" font-weight="normal"
                text-decoration="normal" x="553" y="657" text-anchor="start" dominant-baseline="alphabetic"
                fill-opacity="1">1</text><text fill="none" stroke="rgb(255,255,255)"
                font-family="geogebra-sans-serif, sans-serif" font-size="12px" font-style="normal" font-weight="normal"
                text-decoration="normal" x="553" y="657" text-anchor="start" dominant-baseline="alphabetic"
                stroke-opacity="1" stroke-linejoin="bevel" stroke-miterlimit="10" stroke-width="3">1</text><text
                fill="rgb(37,37,37)" stroke="none" font-family="geogebra-sans-serif, sans-serif" font-size="12px"
                font-style="normal" font-weight="normal" text-decoration="normal" x="553" y="657" text-anchor="start"
                dominant-baseline="alphabetic" fill-opacity="1">1</text>
            <path fill="none" stroke="rgb(37,37,37)" paint-order="fill stroke markers" d=" M 555.5 641.5 L 555.5 644.5"
                stroke-opacity="1" stroke-miterlimit="10" /><text fill="rgb(37,37,37)" stroke="none"
                font-family="geogebra-sans-serif, sans-serif" font-size="12px" font-style="normal" font-weight="normal"
                text-decoration="normal" x="664" y="657" text-anchor="start" dominant-baseline="alphabetic"
                fill-opacity="1">2</text><text fill="none" stroke="rgb(255,255,255)"
                font-family="geogebra-sans-serif, sans-serif" font-size="12px" font-style="normal" font-weight="normal"
                text-decoration="normal" x="664" y="657" text-anchor="start" dominant-baseline="alphabetic"
                stroke-opacity="1" stroke-linejoin="bevel" stroke-miterlimit="10" stroke-width="3">2</text><text
                fill="rgb(37,37,37)" stroke="none" font-family="geogebra-sans-serif, sans-serif" font-size="12px"
                font-style="normal" font-weight="normal" text-decoration="normal" x="664" y="657" text-anchor="start"
                dominant-baseline="alphabetic" fill-opacity="1">2</text>
            <path fill="none" stroke="rgb(37,37,37)" paint-order="fill stroke markers" d=" M 666.5 641.5 L 666.5 644.5"
                stroke-opacity="1" stroke-miterlimit="10" /><text fill="rgb(37,37,37)" stroke="none"
                font-family="geogebra-sans-serif, sans-serif" font-size="12px" font-style="normal" font-weight="normal"
                text-decoration="normal" x="775" y="657" text-anchor="start" dominant-baseline="alphabetic"
                fill-opacity="1">3</text><text fill="none" stroke="rgb(255,255,255)"
                font-family="geogebra-sans-serif, sans-serif" font-size="12px" font-style="normal" font-weight="normal"
                text-decoration="normal" x="775" y="657" text-anchor="start" dominant-baseline="alphabetic"
                stroke-opacity="1" stroke-linejoin="bevel" stroke-miterlimit="10" stroke-width="3">3</text><text
                fill="rgb(37,37,37)" stroke="none" font-family="geogebra-sans-serif, sans-serif" font-size="12px"
                font-style="normal" font-weight="normal" text-decoration="normal" x="775" y="657" text-anchor="start"
                dominant-baseline="alphabetic" fill-opacity="1">3</text>
            <path fill="none" stroke="rgb(37,37,37)" paint-order="fill stroke markers" d=" M 777.5 641.5 L 777.5 644.5"
                stroke-opacity="1" stroke-miterlimit="10" />
            <path fill="none" stroke="rgb(37,37,37)" paint-order="fill stroke markers" d=" M 441.5 530.5 L 444.5 530.5"
                stroke-opacity="1" stroke-miterlimit="10" />
            <path fill="none" stroke="rgb(37,37,37)" paint-order="fill stroke markers" d=" M 441.5 419.5 L 444.5 419.5"
                stroke-opacity="1" stroke-miterlimit="10" />
            <path fill="none" stroke="rgb(37,37,37)" paint-order="fill stroke markers" d=" M 441.5 308.5 L 444.5 308.5"
                stroke-opacity="1" stroke-miterlimit="10" />
            <path fill="none" stroke="rgb(37,37,37)" paint-order="fill stroke markers" d=" M 441.5 197.5 L 444.5 197.5"
                stroke-opacity="1" stroke-miterlimit="10" />
            <path fill="none" stroke="rgb(37,37,37)" paint-order="fill stroke markers" d=" M 441.5 86.5 L 444.5 86.5"
                stroke-opacity="1" stroke-miterlimit="10" /><text fill="rgb(37,37,37)" stroke="none"
                font-family="geogebra-sans-serif, sans-serif" font-size="12px" font-style="normal" font-weight="normal"
                text-decoration="normal" x="430" y="535" text-anchor="start" dominant-baseline="alphabetic"
                fill-opacity="1">1</text><text fill="none" stroke="rgb(255,255,255)"
                font-family="geogebra-sans-serif, sans-serif" font-size="12px" font-style="normal" font-weight="normal"
                text-decoration="normal" x="430" y="535" text-anchor="start" dominant-baseline="alphabetic"
                stroke-opacity="1" stroke-linejoin="bevel" stroke-miterlimit="10" stroke-width="3">1</text><text
                fill="rgb(37,37,37)" stroke="none" font-family="geogebra-sans-serif, sans-serif" font-size="12px"
                font-style="normal" font-weight="normal" text-decoration="normal" x="430" y="535" text-anchor="start"
                dominant-baseline="alphabetic" fill-opacity="1">1</text><text fill="rgb(37,37,37)" stroke="none"
                font-family="geogebra-sans-serif, sans-serif" font-size="12px" font-style="normal" font-weight="normal"
                text-decoration="normal" x="430" y="424" text-anchor="start" dominant-baseline="alphabetic"
                fill-opacity="1">2</text><text fill="none" stroke="rgb(255,255,255)"
                font-family="geogebra-sans-serif, sans-serif" font-size="12px" font-style="normal" font-weight="normal"
                text-decoration="normal" x="430" y="424" text-anchor="start" dominant-baseline="alphabetic"
                stroke-opacity="1" stroke-linejoin="bevel" stroke-miterlimit="10" stroke-width="3">2</text><text
                fill="rgb(37,37,37)" stroke="none" font-family="geogebra-sans-serif, sans-serif" font-size="12px"
                font-style="normal" font-weight="normal" text-decoration="normal" x="430" y="424" text-anchor="start"
                dominant-baseline="alphabetic" fill-opacity="1">2</text><text fill="rgb(37,37,37)" stroke="none"
                font-family="geogebra-sans-serif, sans-serif" font-size="12px" font-style="normal" font-weight="normal"
                text-decoration="normal" x="430" y="313" text-anchor="start" dominant-baseline="alphabetic"
                fill-opacity="1">3</text><text fill="none" stroke="rgb(255,255,255)"
                font-family="geogebra-sans-serif, sans-serif" font-size="12px" font-style="normal" font-weight="normal"
                text-decoration="normal" x="430" y="313" text-anchor="start" dominant-baseline="alphabetic"
                stroke-opacity="1" stroke-linejoin="bevel" stroke-miterlimit="10" stroke-width="3">3</text><text
                fill="rgb(37,37,37)" stroke="none" font-family="geogebra-sans-serif, sans-serif" font-size="12px"
                font-style="normal" font-weight="normal" text-decoration="normal" x="430" y="313" text-anchor="start"
                dominant-baseline="alphabetic" fill-opacity="1">3</text><text fill="rgb(37,37,37)" stroke="none"
                font-family="geogebra-sans-serif, sans-serif" font-size="12px" font-style="normal" font-weight="normal"
                text-decoration="normal" x="430" y="202" text-anchor="start" dominant-baseline="alphabetic"
                fill-opacity="1">4</text><text fill="none" stroke="rgb(255,255,255)"
                font-family="geogebra-sans-serif, sans-serif" font-size="12px" font-style="normal" font-weight="normal"
                text-decoration="normal" x="430" y="202" text-anchor="start" dominant-baseline="alphabetic"
                stroke-opacity="1" stroke-linejoin="bevel" stroke-miterlimit="10" stroke-width="3">4</text><text
                fill="rgb(37,37,37)" stroke="none" font-family="geogebra-sans-serif, sans-serif" font-size="12px"
                font-style="normal" font-weight="normal" text-decoration="normal" x="430" y="202" text-anchor="start"
                dominant-baseline="alphabetic" fill-opacity="1">4</text><text fill="rgb(37,37,37)" stroke="none"
                font-family="geogebra-sans-serif, sans-serif" font-size="12px" font-style="normal" font-weight="normal"
                text-decoration="normal" x="430" y="91" text-anchor="start" dominant-baseline="alphabetic"
                fill-opacity="1">5</text><text fill="none" stroke="rgb(255,255,255)"
                font-family="geogebra-sans-serif, sans-serif" font-size="12px" font-style="normal" font-weight="normal"
                text-decoration="normal" x="430" y="91" text-anchor="start" dominant-baseline="alphabetic"
                stroke-opacity="1" stroke-linejoin="bevel" stroke-miterlimit="10" stroke-width="3">5</text><text
                fill="rgb(37,37,37)" stroke="none" font-family="geogebra-sans-serif, sans-serif" font-size="12px"
                font-style="normal" font-weight="normal" text-decoration="normal" x="430" y="91" text-anchor="start"
                dominant-baseline="alphabetic" fill-opacity="1">5</text><text fill="rgb(37,37,37)" stroke="none"
                font-family="geogebra-sans-serif, sans-serif" font-size="12px" font-style="normal" font-weight="normal"
                text-decoration="normal" x="430" y="657" text-anchor="start" dominant-baseline="alphabetic"
                fill-opacity="1">0</text><text fill="none" stroke="rgb(255,255,255)"
                font-family="geogebra-sans-serif, sans-serif" font-size="12px" font-style="normal" font-weight="normal"
                text-decoration="normal" x="430" y="657" text-anchor="start" dominant-baseline="alphabetic"
                stroke-opacity="1" stroke-linejoin="bevel" stroke-miterlimit="10" stroke-width="3">0</text><text
                fill="rgb(37,37,37)" stroke="none" font-family="geogebra-sans-serif, sans-serif" font-size="12px"
                font-style="normal" font-weight="normal" text-decoration="normal" x="430" y="657" text-anchor="start"
                dominant-baseline="alphabetic" fill-opacity="1">0</text>
            <path fill="none" stroke="rgb(204,0,0)" paint-order="fill stroke markers"
                d=" M 110.99999889000003 86.42372275218747 L 110.99999999999994 86.42372719218724 M 110.99999999999994 86.42372719218724 L 112.734375 93.33412758281224 L 114.46875 100.19032875468724 L 116.203125 106.99233070781224 L 117.9375 113.74013344218724 L 119.671875 120.43373695781224 L 121.40625 127.07314125468724 L 123.140625 133.6583463328123 L 124.875 140.1893521921873 L 126.609375 146.6661588328123 L 128.34375 153.0887662546873 L 130.078125 159.4571744578123 L 131.8125 165.7713834421873 L 133.546875 172.0313932078123 L 135.28125 178.2372037546873 L 137.015625 184.3888150828123 L 138.75 190.4862271921873 L 140.484375 196.5294400828123 L 142.21875 202.5184537546873 L 143.953125 208.4532682078123 L 145.6875 214.3338834421873 L 147.421875 220.1602994578123 L 149.15625 225.9325162546873 L 150.890625 231.6505338328123 L 152.625 237.3143521921873 L 154.359375 242.9239713328123 L 156.09375 248.4793912546873 L 157.828125 253.9806119578123 L 159.5625 259.4276334421873 L 161.296875 264.8204557078123 L 163.03125 270.1590787546873 L 164.765625 275.4435025828123 L 166.5 280.6737271921873 L 168.234375 285.8497525828123 L 169.96875 290.9715787546873 L 171.703125 296.0392057078123 L 173.4375 301.0526334421873 L 176.90625 310.9168912546873 L 180.375 320.5643521921873 L 183.84375 329.9950162546873 L 187.3125 339.2088834421873 L 190.78125 348.2059537546873 L 194.25 356.9862271921873 L 197.71875 365.5497037546873 L 201.1875 373.8963834421873 L 204.65625 382.0262662546873 L 208.125 389.93935219218736 L 211.59375 397.63564125468736 L 215.0625 405.11513344218736 L 218.53125 412.37782875468736 L 222 419.42372719218736 M 222 419.42372719218736 L 225.46875 426.25282875468736 L 228.9375 432.86513344218736 L 232.40625 439.26064125468736 L 235.875 445.43935219218736 L 239.34375 451.40126625468736 L 242.8125 457.14638344218736 L 246.28125 462.67470375468736 L 249.75 467.98622719218736 L 253.21875 473.08095375468736 L 256.6875 477.95888344218736 L 260.15625 482.62001625468736 L 263.625 487.06435219218736 L 267.09375 491.29189125468736 L 270.5625 495.30263344218736 L 274.03125 499.09657875468736 L 277.5 502.67372719218736 L 280.96875 506.03407875468736 L 284.4375 509.17763344218736 L 287.90625 512.1043912546874 L 291.375 514.8143521921874 L 294.84375 517.3075162546874 L 298.3125 519.5838834421874 L 301.78125 521.6434537546874 L 305.25 523.4862271921874 L 308.71875 525.1122037546874 L 312.1875 526.5213834421874 L 315.65625 527.7137662546874 L 319.125 528.6893521921874 L 322.59375 529.4481412546874 L 326.0625 529.9901334421874 L 329.53125 530.3153287546874 L 333 530.4237271921874 L 336.46875 530.3153287546874 L 339.9375 529.9901334421874 L 343.40625 529.4481412546874 L 346.875 528.6893521921874 L 350.34375 527.7137662546874 L 353.8125 526.5213834421874 L 357.28125 525.1122037546874 L 360.75 523.4862271921874 L 364.21875 521.6434537546874 L 367.6875 519.5838834421874 L 371.15625 517.3075162546874 L 374.625 514.8143521921874 L 378.09375 512.1043912546874 L 381.5625 509.17763344218736 L 385.03125 506.03407875468736 L 388.5 502.67372719218736 L 391.96875 499.09657875468736 L 395.4375 495.30263344218736 L 398.90625 491.29189125468736 L 402.375 487.06435219218736 L 405.84375 482.62001625468736 L 409.3125 477.9588834421874 L 412.78125 473.0809537546874 L 416.25 467.9862271921874 L 419.71875 462.6747037546874 L 423.1875 457.1463834421874 L 426.65625 451.40126625468747 L 430.125 445.43935219218747 L 433.59375 439.26064125468747 L 437.0625 432.86513344218747 L 440.53125 426.2528287546874 L 444 419.4237271921874 M 444 419.4237271921874 L 447.46875 412.3778287546874 L 450.9375 405.1151334421874 L 454.40625 397.6356412546874 L 457.875 389.9393521921874 L 461.34375 382.0262662546874 L 464.8125 373.8963834421874 L 468.28125 365.5497037546874 L 471.75 356.9862271921874 L 475.21875 348.2059537546874 L 478.6875 339.2088834421874 L 482.15625 329.9950162546874 L 485.625 320.5643521921874 L 489.09375 310.91689125468747 L 492.5625 301.05263344218747 L 494.296875 296.03920570781247 L 496.03125 290.97157875468747 L 497.765625 285.84975258281247 L 499.5 280.67372719218747 L 501.234375 275.44350258281247 L 502.96875 270.15907875468747 L 504.703125 264.82045570781247 L 506.4375 259.42763344218747 L 508.171875 253.98061195781247 L 509.90625 248.47939125468747 L 511.640625 242.92397133281247 L 513.375 237.31435219218747 L 515.109375 231.65053383281247 L 516.84375 225.93251625468747 L 518.578125 220.16029945781247 L 520.3125 214.33388344218747 L 522.046875 208.45326820781247 L 523.78125 202.51845375468747 L 525.515625 196.52944008281247 L 527.25 190.48622719218747 L 528.984375 184.38881508281247 L 530.71875 178.23720375468747 L 532.453125 172.03139320781247 L 534.1875 165.77138344218747 L 535.921875 159.45717445781247 L 537.65625 153.08876625468758 L 539.390625 146.66615883281258 L 541.125 140.18935219218758 L 542.859375 133.65834633281258 L 544.59375 127.07314125468758 L 546.328125 120.43373695781258 L 548.0625 113.74013344218758 L 549.796875 106.99233070781258 L 551.53125 100.19032875468758 L 553.265625 93.33412758281258 L 555 86.42372719218758 M 555 86.42372719218758 L 555.0000011100001 86.42372275218736"
                stroke-opacity="0.8" stroke-linecap="round" stroke-linejoin="round" stroke-miterlimit="10"
                stroke-width="3.5" />
            <path fill="none" stroke="rgb(0,0,0)" paint-order="fill stroke markers"
                d=" M -5 86.42372719218724 L 893 86.42372719218724" stroke-opacity="0.6980392156862745"
                stroke-linejoin="round" stroke-miterlimit="10" stroke-width="1.5" stroke-dasharray="5.5,4" />
            <path fill="none" stroke="rgb(0,0,0)" paint-order="fill stroke markers"
                d=" M -5 530.4237271921874 L 893 530.4237271921874" stroke-opacity="1" stroke-linecap="round"
                stroke-linejoin="round" stroke-miterlimit="10" stroke-width="1.5" />
            <path fill="none" stroke="rgb(0,0,0)" paint-order="fill stroke markers"
                d=" M 110.99999999999994 86.42372719218724 L 110.99999999999994 641.4237271921874" stroke-opacity="1"
                stroke-linejoin="round" stroke-miterlimit="10" stroke-width="0.5" stroke-dasharray="4.5,4" />
            <path fill="none" stroke="rgb(0,0,0)" paint-order="fill stroke markers"
                d=" M 555.0000000000001 86.42372719218724 L 555.0000000000001 641.4237271921874" stroke-opacity="1"
                stroke-linejoin="round" stroke-miterlimit="10" stroke-width="0.5" stroke-dasharray="4.5,4" />
            <path fill="none" stroke="rgb(0,0,0)" paint-order="fill stroke markers"
                d=" M 333 530.4237271921874 L 333 641.4237271921874" stroke-opacity="1" stroke-linejoin="round"
                stroke-miterlimit="10" stroke-width="0.5" stroke-dasharray="4.5,4" />
            <path fill="rgb(204,0,0)" stroke="none" paint-order="stroke fill markers"
                d=" M 114.99999999999994 86.42372719218724 C 114.99999999999994 88.63286619151042 113.20913899932312 90.42372719218724 110.99999999999994 90.42372719218724 C 108.79086100067677 90.42372719218724 106.99999999999994 88.63286619151042 106.99999999999994 86.42372719218724 C 106.99999999999994 84.21458819286407 108.79086100067677 82.42372719218724 110.99999999999994 82.42372719218724 C 113.20913899932312 82.42372719218724 114.99999999999994 84.21458819286407 114.99999999999994 86.42372719218724 Z"
                fill-opacity="1" />
            <path fill="none" stroke="rgb(0,0,0)" paint-order="fill stroke markers"
                d=" M 114.99999999999994 86.42372719218724 C 114.99999999999994 88.63286619151042 113.20913899932312 90.42372719218724 110.99999999999994 90.42372719218724 C 108.79086100067677 90.42372719218724 106.99999999999994 88.63286619151042 106.99999999999994 86.42372719218724 C 106.99999999999994 84.21458819286407 108.79086100067677 82.42372719218724 110.99999999999994 82.42372719218724 C 113.20913899932312 82.42372719218724 114.99999999999994 84.21458819286407 114.99999999999994 86.42372719218724 Z"
                stroke-opacity="1" stroke-linecap="round" stroke-linejoin="round" stroke-miterlimit="10" />
            <path fill="rgb(204,0,0)" stroke="none" paint-order="stroke fill markers"
                d=" M 559.0000000000001 86.42372719218724 C 559.0000000000001 88.63286619151042 557.2091389993233 90.42372719218724 555.0000000000001 90.42372719218724 C 552.790861000677 90.42372719218724 551.0000000000001 88.63286619151042 551.0000000000001 86.42372719218724 C 551.0000000000001 84.21458819286407 552.790861000677 82.42372719218724 555.0000000000001 82.42372719218724 C 557.2091389993233 82.42372719218724 559.0000000000001 84.21458819286407 559.0000000000001 86.42372719218724 Z"
                fill-opacity="1" />
            <path fill="none" stroke="rgb(0,0,0)" paint-order="fill stroke markers"
                d=" M 559.0000000000001 86.42372719218724 C 559.0000000000001 88.63286619151042 557.2091389993233 90.42372719218724 555.0000000000001 90.42372719218724 C 552.790861000677 90.42372719218724 551.0000000000001 88.63286619151042 551.0000000000001 86.42372719218724 C 551.0000000000001 84.21458819286407 552.790861000677 82.42372719218724 555.0000000000001 82.42372719218724 C 557.2091389993233 82.42372719218724 559.0000000000001 84.21458819286407 559.0000000000001 86.42372719218724 Z"
                stroke-opacity="1" stroke-linecap="round" stroke-linejoin="round" stroke-miterlimit="10" />
            <path fill="rgb(97,97,97)" stroke="none" paint-order="stroke fill markers"
                d=" M 337 530.4237271921874 C 337 532.6328661915105 335.20913899932316 534.4237271921874 333 534.4237271921874 C 330.79086100067684 534.4237271921874 329 532.6328661915105 329 530.4237271921874 C 329 528.2145881928642 330.79086100067684 526.4237271921874 333 526.4237271921874 C 335.20913899932316 526.4237271921874 337 528.2145881928642 337 530.4237271921874 Z"
                fill-opacity="1" />
            <path fill="none" stroke="rgb(0,0,0)" paint-order="fill stroke markers"
                d=" M 337 530.4237271921874 C 337 532.6328661915105 335.20913899932316 534.4237271921874 333 534.4237271921874 C 330.79086100067684 534.4237271921874 329 532.6328661915105 329 530.4237271921874 C 329 528.2145881928642 330.79086100067684 526.4237271921874 333 526.4237271921874 C 335.20913899932316 526.4237271921874 337 528.2145881928642 337 530.4237271921874 Z"
                stroke-opacity="1" stroke-linecap="round" stroke-linejoin="round" stroke-miterlimit="10" />
            <path fill="rgb(0,0,0)" stroke="none" paint-order="stroke fill markers"
                d=" M 113.99999999999994 641.4237271921874 C 113.99999999999994 643.0805814416798 112.65685424949233 644.4237271921874 110.99999999999994 644.4237271921874 C 109.34314575050756 644.4237271921874 107.99999999999994 643.0805814416798 107.99999999999994 641.4237271921874 C 107.99999999999994 639.7668729426949 109.34314575050756 638.4237271921874 110.99999999999994 638.4237271921874 C 112.65685424949233 638.4237271921874 113.99999999999994 639.7668729426949 113.99999999999994 641.4237271921874 Z"
                fill-opacity="1" />
            <path fill="none" stroke="rgb(0,0,0)" paint-order="fill stroke markers"
                d=" M 113.99999999999994 641.4237271921874 C 113.99999999999994 643.0805814416798 112.65685424949233 644.4237271921874 110.99999999999994 644.4237271921874 C 109.34314575050756 644.4237271921874 107.99999999999994 643.0805814416798 107.99999999999994 641.4237271921874 C 107.99999999999994 639.7668729426949 109.34314575050756 638.4237271921874 110.99999999999994 638.4237271921874 C 112.65685424949233 638.4237271921874 113.99999999999994 639.7668729426949 113.99999999999994 641.4237271921874 Z"
                stroke-opacity="1" stroke-linecap="round" stroke-linejoin="round" stroke-miterlimit="10" />
            <path fill="rgb(0,0,0)" stroke="none" paint-order="stroke fill markers"
                d=" M 558.0000000000001 641.4237271921874 C 558.0000000000001 643.0805814416798 556.6568542494925 644.4237271921874 555.0000000000001 644.4237271921874 C 553.3431457505077 644.4237271921874 552.0000000000001 643.0805814416798 552.0000000000001 641.4237271921874 C 552.0000000000001 639.7668729426949 553.3431457505077 638.4237271921874 555.0000000000001 638.4237271921874 C 556.6568542494925 638.4237271921874 558.0000000000001 639.7668729426949 558.0000000000001 641.4237271921874 Z"
                fill-opacity="1" />
            <path fill="none" stroke="rgb(0,0,0)" paint-order="fill stroke markers"
                d=" M 558.0000000000001 641.4237271921874 C 558.0000000000001 643.0805814416798 556.6568542494925 644.4237271921874 555.0000000000001 644.4237271921874 C 553.3431457505077 644.4237271921874 552.0000000000001 643.0805814416798 552.0000000000001 641.4237271921874 C 552.0000000000001 639.7668729426949 553.3431457505077 638.4237271921874 555.0000000000001 638.4237271921874 C 556.6568542494925 638.4237271921874 558.0000000000001 639.7668729426949 558.0000000000001 641.4237271921874 Z"
                stroke-opacity="1" stroke-linecap="round" stroke-linejoin="round" stroke-miterlimit="10" />
            <path fill="rgb(0,0,0)" stroke="none" paint-order="stroke fill markers"
                d=" M 336 641.4237271921874 C 336 643.0805814416798 334.65685424949237 644.4237271921874 333 644.4237271921874 C 331.34314575050763 644.4237271921874 330 643.0805814416798 330 641.4237271921874 C 330 639.7668729426949 331.34314575050763 638.4237271921874 333 638.4237271921874 C 334.65685424949237 638.4237271921874 336 639.7668729426949 336 641.4237271921874 Z"
                fill-opacity="1" />
            <path fill="none" stroke="rgb(0,0,0)" paint-order="fill stroke markers"
                d=" M 336 641.4237271921874 C 336 643.0805814416798 334.65685424949237 644.4237271921874 333 644.4237271921874 C 331.34314575050763 644.4237271921874 330 643.0805814416798 330 641.4237271921874 C 330 639.7668729426949 331.34314575050763 638.4237271921874 333 638.4237271921874 C 334.65685424949237 638.4237271921874 336 639.7668729426949 336 641.4237271921874 Z"
                stroke-opacity="1" stroke-linecap="round" stroke-linejoin="round" stroke-miterlimit="10" />
            <g transform="scale(25,25)">
                <g transform="translate(4.2,27.431)">
                    <path fill="rgb(0,0,0)" stroke="none" paint-order="stroke fill markers"
                        d=" M 0.373 -0.378 Q 0.378 -0.41200000000000003 0.404 -0.42 Q 0.40900000000000003 -0.422 0.41500000000000004 -0.422 Q 0.441 -0.422 0.444 -0.395 Q 0.444 -0.389 0.437 -0.361 L 0.401 -0.221 Q 0.386 -0.158 0.379 -0.131 Q 0.366 -0.079 0.366 -0.057 Q 0.366 -0.011 0.396 -0.011 Q 0.434 -0.011 0.46 -0.091 Q 0.465 -0.108 0.47200000000000003 -0.135 Q 0.48 -0.152 0.486 -0.153 Q 0.498 -0.153 0.498 -0.14300000000000002 Q 0.498 -0.128 0.48 -0.073 Q 0.47400000000000003 -0.056 0.468 -0.044 Q 0.44 0.011 0.394 0.011 Q 0.338 0.011 0.313 -0.037 Q 0.306 -0.049 0.303 -0.064 Q 0.24 0.011 0.17300000000000001 0.011 Q 0.098 0.011 0.062 -0.057 Q 0.04 -0.097 0.04 -0.149 Q 0.04 -0.257 0.115 -0.34900000000000003 Q 0.185 -0.433 0.267 -0.441 Q 0.274 -0.442 0.281 -0.442 Q 0.342 -0.442 0.373 -0.378 M 0.308 -0.11900000000000001 L 0.308 -0.11900000000000001 L 0.358 -0.315 Q 0.361 -0.33 0.361 -0.332 Q 0.361 -0.353 0.343 -0.383 Q 0.321 -0.42 0.28200000000000003 -0.42 Q 0.23 -0.42 0.183 -0.352 Q 0.17400000000000002 -0.339 0.166 -0.324 Q 0.137 -0.266 0.117 -0.159 Q 0.111 -0.125 0.111 -0.105 Q 0.111 -0.037 0.149 -0.017 Q 0.16 -0.011 0.17500000000000002 -0.011 Q 0.231 -0.011 0.28800000000000003 -0.082 Q 0.302 -0.098 0.307 -0.115 L 0.307 -0.116 Q 0.308 -0.11800000000000001 0.308 -0.11900000000000001 Z" />
                </g>
            </g>
            <g transform="scale(25,25)">
                <g transform="translate(13.08,27.431)">
                    <path fill="rgb(0,0,0)" stroke="none" paint-order="stroke fill markers"
                        d=" M 0.396 -0.38 L 0.396 -0.38 Q 0.368 -0.41600000000000004 0.31 -0.42 Q 0.245 -0.42 0.192 -0.354 Q 0.179 -0.338 0.169 -0.32 Q 0.129 -0.247 0.117 -0.148 Q 0.115 -0.132 0.115 -0.12 Q 0.115 -0.038 0.171 -0.017 Q 0.185 -0.011 0.20500000000000002 -0.011 Q 0.295 -0.011 0.367 -0.07100000000000001 Q 0.388 -0.088 0.405 -0.11 Q 0.41200000000000003 -0.12 0.418 -0.12 Q 0.427 -0.12 0.43 -0.107 Q 0.43 -0.096 0.396 -0.064 Q 0.313 0.011 0.203 0.011 Q 0.108 0.011 0.065 -0.065 Q 0.041 -0.106 0.041 -0.158 Q 0.041 -0.26 0.11900000000000001 -0.34700000000000003 Q 0.196 -0.433 0.291 -0.441 Q 0.3 -0.442 0.309 -0.442 Q 0.386 -0.442 0.41600000000000004 -0.395 Q 0.427 -0.377 0.427 -0.356 Q 0.427 -0.312 0.392 -0.296 Q 0.382 -0.292 0.371 -0.292 Q 0.341 -0.292 0.335 -0.318 Q 0.334 -0.322 0.334 -0.327 Q 0.334 -0.34900000000000003 0.352 -0.366 Q 0.366 -0.38 0.396 -0.38 Z" />
                </g>
            </g>
            <g transform="scale(25,25)">
                <g transform="translate(21.96,27.534)">
                    <path fill="rgb(0,0,0)" stroke="none" paint-order="stroke fill markers"
                        d=" M 0.23900000000000002 -0.683 L 0.165 -0.382 Q 0.223 -0.442 0.28200000000000003 -0.442 Q 0.357 -0.442 0.394 -0.373 Q 0.41500000000000004 -0.333 0.41500000000000004 -0.28200000000000003 Q 0.41500000000000004 -0.176 0.341 -0.084 Q 0.272 0.001 0.189 0.01 Q 0.181 0.011 0.17400000000000002 0.011 Q 0.10200000000000001 0.011 0.067 -0.056 Q 0.047 -0.094 0.047 -0.146 Q 0.047 -0.18 0.063 -0.247 L 0.145 -0.5730000000000001 Q 0.159 -0.632 0.159 -0.635 Q 0.159 -0.646 0.145 -0.649 L 0.145 -0.649 Q 0.133 -0.652 0.109 -0.652 Q 0.08700000000000001 -0.652 0.085 -0.664 Q 0.085 -0.681 0.10400000000000001 -0.684 L 0.226 -0.6940000000000001 Q 0.23900000000000002 -0.6940000000000001 0.23900000000000002 -0.683 M 0.145 -0.305 L 0.123 -0.213 Q 0.107 -0.15 0.107 -0.112 Q 0.107 -0.026000000000000002 0.159 -0.013000000000000001 Q 0.166 -0.011 0.17400000000000002 -0.011 Q 0.227 -0.011 0.273 -0.081 Q 0.28300000000000003 -0.096 0.292 -0.114 Q 0.319 -0.171 0.337 -0.268 Q 0.343 -0.303 0.343 -0.326 Q 0.343 -0.406 0.294 -0.418 L 0.293 -0.419 Q 0.28700000000000003 -0.42 0.28 -0.42 Q 0.22 -0.42 0.16 -0.34 Q 0.152 -0.33 0.145 -0.305 Z" />
                </g>
            </g>
            <g transform="scale(23,23)">
                <g transform="translate(0.6521739130434783,1.5158659130434782)">
                    <path fill="rgb(0,0,0)" stroke="none" paint-order="stroke fill markers"
                        d=" M 0.367 -0.4 L 0.367 -0.4 L 0.307 -0.083 Q 0.298 -0.021 0.271 0.059000000000000004 Q 0.261 0.088 0.251 0.108 Q 0.216 0.182 0.164 0.2 Q 0.151 0.20500000000000002 0.138 0.20500000000000002 Q 0.088 0.20500000000000002 0.064 0.171 Q 0.053 0.156 0.053 0.136 Q 0.053 0.096 0.08700000000000001 0.081 Q 0.097 0.076 0.108 0.076 Q 0.137 0.076 0.14400000000000002 0.101 Q 0.145 0.106 0.145 0.111 Q 0.145 0.145 0.115 0.159 Q 0.10400000000000001 0.164 0.09 0.165 Q 0.109 0.183 0.138 0.183 Q 0.182 0.183 0.20700000000000002 0.085 Q 0.212 0.062 0.219 0.025 L 0.225 -0.005 L 0.3 -0.4 L 0.234 -0.4 Q 0.209 -0.4 0.20700000000000002 -0.40800000000000003 L 0.20600000000000002 -0.40800000000000003 L 0.20600000000000002 -0.41200000000000003 Q 0.20600000000000002 -0.429 0.223 -0.431 L 0.223 -0.431 L 0.23600000000000002 -0.431 L 0.305 -0.431 Q 0.329 -0.556 0.338 -0.588 Q 0.368 -0.6880000000000001 0.444 -0.7030000000000001 Q 0.455 -0.705 0.465 -0.705 Q 0.517 -0.705 0.541 -0.671 L 0.541 -0.671 Q 0.552 -0.656 0.552 -0.636 Q 0.552 -0.596 0.518 -0.581 Q 0.508 -0.5760000000000001 0.497 -0.5760000000000001 Q 0.468 -0.5760000000000001 0.461 -0.601 Q 0.46 -0.606 0.46 -0.611 Q 0.46 -0.642 0.488 -0.657 Q 0.499 -0.664 0.514 -0.665 Q 0.495 -0.683 0.465 -0.683 Q 0.434 -0.683 0.418 -0.649 Q 0.41100000000000003 -0.635 0.394 -0.545 L 0.373 -0.431 L 0.456 -0.431 Q 0.481 -0.431 0.483 -0.42 Q 0.483 -0.402 0.467 -0.4 L 0.466 -0.4 L 0.453 -0.4 L 0.367 -0.4 Z" />
                </g>
                <g transform="translate(1.2501739130434784,1.5158659130434782)">
                    <path fill="rgb(0,0,0)" stroke="none" paint-order="stroke fill markers"
                        d=" M 0.331 0.24 L 0.331 0.24 Q 0.331 0.25 0.321 0.25 Q 0.309 0.25 0.268 0.209 Q 0.20600000000000002 0.147 0.165 0.062 Q 0.099 -0.074 0.099 -0.25 Q 0.099 -0.419 0.162 -0.555 Q 0.214 -0.666 0.294 -0.733 Q 0.315 -0.75 0.321 -0.75 Q 0.331 -0.75 0.331 -0.74 Q 0.331 -0.735 0.318 -0.723 Q 0.157 -0.559 0.157 -0.25 Q 0.157 0.058 0.314 0.218 Q 0.331 0.23500000000000001 0.331 0.24 Z" />
                </g>
                <g transform="translate(1.6391739130434784,1.5158659130434782)">
                    <path fill="rgb(0,0,0)" stroke="none" paint-order="stroke fill markers"
                        d=" M 0.334 -0.302 L 0.3 -0.165 Q 0.28300000000000003 -0.097 0.28300000000000003 -0.077 Q 0.28300000000000003 -0.025 0.32 -0.014 Q 0.328 -0.011 0.338 -0.011 Q 0.388 -0.011 0.429 -0.061 Q 0.456 -0.093 0.47100000000000003 -0.14200000000000002 Q 0.47400000000000003 -0.153 0.484 -0.153 Q 0.496 -0.153 0.496 -0.14300000000000002 Q 0.496 -0.11800000000000001 0.465 -0.07100000000000001 Q 0.41100000000000003 0.011 0.336 0.011 Q 0.268 0.011 0.23700000000000002 -0.046 Q 0.231 -0.055 0.228 -0.065 Q 0.20400000000000001 -0.017 0.162 0.002 Q 0.14300000000000002 0.011 0.123 0.011 Q 0.063 0.011 0.039 -0.024 Q 0.029 -0.037 0.029 -0.055 Q 0.029 -0.092 0.061 -0.107 Q 0.07200000000000001 -0.113 0.084 -0.113 Q 0.114 -0.113 0.12 -0.088 Q 0.121 -0.083 0.121 -0.078 Q 0.121 -0.044 0.08700000000000001 -0.028 Q 0.081 -0.025 0.074 -0.024 Q 0.095 -0.011 0.124 -0.011 Q 0.177 -0.011 0.20800000000000002 -0.082 Q 0.214 -0.097 0.219 -0.115 Q 0.273 -0.319 0.273 -0.353 Q 0.267 -0.41500000000000004 0.219 -0.42 Q 0.167 -0.42 0.124 -0.367 L 0.124 -0.366 Q 0.124 -0.365 0.123 -0.365 Q 0.108 -0.34500000000000003 0.096 -0.319 Q 0.091 -0.307 0.08700000000000001 -0.295 L 0.085 -0.289 Q 0.083 -0.278 0.07200000000000001 -0.278 Q 0.06 -0.278 0.06 -0.28800000000000003 Q 0.06 -0.313 0.092 -0.36 Q 0.146 -0.442 0.221 -0.442 Q 0.298 -0.442 0.329 -0.366 Q 0.361 -0.428 0.41400000000000003 -0.44 Q 0.424 -0.442 0.434 -0.442 Q 0.493 -0.442 0.517 -0.40900000000000003 Q 0.527 -0.395 0.527 -0.376 Q 0.527 -0.335 0.49 -0.321 Q 0.481 -0.318 0.47300000000000003 -0.318 Q 0.442 -0.318 0.436 -0.34500000000000003 Q 0.435 -0.34900000000000003 0.435 -0.353 Q 0.435 -0.383 0.464 -0.4 Q 0.47300000000000003 -0.405 0.483 -0.40700000000000003 Q 0.462 -0.42 0.433 -0.42 Q 0.365 -0.42 0.337 -0.314 Q 0.335 -0.308 0.334 -0.302 Z" />
                </g>
                <g transform="translate(2.211173913043478,1.5158659130434782)">
                    <path fill="rgb(0,0,0)" stroke="none" paint-order="stroke fill markers"
                        d=" M 0.289 -0.25 L 0.289 -0.25 Q 0.289 -0.081 0.226 0.055 Q 0.17400000000000002 0.166 0.094 0.233 Q 0.073 0.25 0.067 0.25 Q 0.057 0.25 0.057 0.24 Q 0.057 0.23500000000000001 0.07 0.223 Q 0.231 0.059000000000000004 0.231 -0.25 Q 0.231 -0.555 0.081 -0.712 L 0.076 -0.717 Q 0.057 -0.735 0.057 -0.74 Q 0.057 -0.75 0.067 -0.75 Q 0.079 -0.75 0.12 -0.709 Q 0.182 -0.647 0.223 -0.562 Q 0.289 -0.426 0.289 -0.25 Z" />
                </g>
                <g transform="translate(2.8779516908212557,1.5158659130434782)">
                    <path fill="rgb(0,0,0)" stroke="none" paint-order="stroke fill markers"
                        d=" M 0.687 -0.327 L 0.09 -0.327 Q 0.058 -0.327 0.056 -0.34700000000000003 Q 0.056 -0.367 0.089 -0.367 L 0.6880000000000001 -0.367 Q 0.72 -0.367 0.721 -0.34700000000000003 Q 0.721 -0.327 0.687 -0.327 M 0.6880000000000001 -0.133 L 0.089 -0.133 Q 0.057 -0.133 0.056 -0.153 Q 0.056 -0.17300000000000001 0.09 -0.17300000000000001 L 0.687 -0.17300000000000001 Q 0.719 -0.17300000000000001 0.721 -0.153 Q 0.721 -0.133 0.6880000000000001 -0.133 Z" />
                </g>
                <g transform="translate(3.9337294685990334,1.5158659130434782)">
                    <path fill="rgb(0,0,0)" stroke="none" paint-order="stroke fill markers"
                        d=" M 0.331 0.24 L 0.331 0.24 Q 0.331 0.25 0.321 0.25 Q 0.309 0.25 0.268 0.209 Q 0.20600000000000002 0.147 0.165 0.062 Q 0.099 -0.074 0.099 -0.25 Q 0.099 -0.419 0.162 -0.555 Q 0.214 -0.666 0.294 -0.733 Q 0.315 -0.75 0.321 -0.75 Q 0.331 -0.75 0.331 -0.74 Q 0.331 -0.735 0.318 -0.723 Q 0.157 -0.559 0.157 -0.25 Q 0.157 0.058 0.314 0.218 Q 0.331 0.23500000000000001 0.331 0.24 Z" />
                </g>
                <g transform="translate(4.322729468599033,1.5158659130434782)">
                    <path fill="rgb(0,0,0)" stroke="none" paint-order="stroke fill markers"
                        d=" M 0.334 -0.302 L 0.3 -0.165 Q 0.28300000000000003 -0.097 0.28300000000000003 -0.077 Q 0.28300000000000003 -0.025 0.32 -0.014 Q 0.328 -0.011 0.338 -0.011 Q 0.388 -0.011 0.429 -0.061 Q 0.456 -0.093 0.47100000000000003 -0.14200000000000002 Q 0.47400000000000003 -0.153 0.484 -0.153 Q 0.496 -0.153 0.496 -0.14300000000000002 Q 0.496 -0.11800000000000001 0.465 -0.07100000000000001 Q 0.41100000000000003 0.011 0.336 0.011 Q 0.268 0.011 0.23700000000000002 -0.046 Q 0.231 -0.055 0.228 -0.065 Q 0.20400000000000001 -0.017 0.162 0.002 Q 0.14300000000000002 0.011 0.123 0.011 Q 0.063 0.011 0.039 -0.024 Q 0.029 -0.037 0.029 -0.055 Q 0.029 -0.092 0.061 -0.107 Q 0.07200000000000001 -0.113 0.084 -0.113 Q 0.114 -0.113 0.12 -0.088 Q 0.121 -0.083 0.121 -0.078 Q 0.121 -0.044 0.08700000000000001 -0.028 Q 0.081 -0.025 0.074 -0.024 Q 0.095 -0.011 0.124 -0.011 Q 0.177 -0.011 0.20800000000000002 -0.082 Q 0.214 -0.097 0.219 -0.115 Q 0.273 -0.319 0.273 -0.353 Q 0.267 -0.41500000000000004 0.219 -0.42 Q 0.167 -0.42 0.124 -0.367 L 0.124 -0.366 Q 0.124 -0.365 0.123 -0.365 Q 0.108 -0.34500000000000003 0.096 -0.319 Q 0.091 -0.307 0.08700000000000001 -0.295 L 0.085 -0.289 Q 0.083 -0.278 0.07200000000000001 -0.278 Q 0.06 -0.278 0.06 -0.28800000000000003 Q 0.06 -0.313 0.092 -0.36 Q 0.146 -0.442 0.221 -0.442 Q 0.298 -0.442 0.329 -0.366 Q 0.361 -0.428 0.41400000000000003 -0.44 Q 0.424 -0.442 0.434 -0.442 Q 0.493 -0.442 0.517 -0.40900000000000003 Q 0.527 -0.395 0.527 -0.376 Q 0.527 -0.335 0.49 -0.321 Q 0.481 -0.318 0.47300000000000003 -0.318 Q 0.442 -0.318 0.436 -0.34500000000000003 Q 0.435 -0.34900000000000003 0.435 -0.353 Q 0.435 -0.383 0.464 -0.4 Q 0.47300000000000003 -0.405 0.483 -0.40700000000000003 Q 0.462 -0.42 0.433 -0.42 Q 0.365 -0.42 0.337 -0.314 Q 0.335 -0.308 0.334 -0.302 Z" />
                </g>
                <g transform="translate(4.894729468599033,1.1029739130434781) scale(0.7,0.7)">
                    <path fill="rgb(0,0,0)" stroke="none" paint-order="stroke fill markers"
                        d=" M 0.449 -0.17400000000000002 L 0.449 -0.17400000000000002 L 0.421 0 L 0.05 0 Q 0.05 -0.025 0.056 -0.032 L 0.061 -0.037 L 0.253 -0.251 Q 0.358 -0.369 0.358 -0.47200000000000003 Q 0.358 -0.561 0.304 -0.607 L 0.303 -0.608 L 0.302 -0.608 Q 0.27 -0.635 0.224 -0.635 Q 0.152 -0.635 0.109 -0.5730000000000001 Q 0.097 -0.555 0.089 -0.533 Q 0.092 -0.534 0.10200000000000001 -0.534 Q 0.14200000000000002 -0.534 0.153 -0.498 L 0.153 -0.497 Q 0.155 -0.49 0.155 -0.482 Q 0.155 -0.442 0.117 -0.431 Q 0.109 -0.429 0.10300000000000001 -0.429 Q 0.066 -0.429 0.054 -0.46 Q 0.05 -0.47100000000000003 0.05 -0.485 Q 0.05 -0.562 0.109 -0.617 Q 0.162 -0.666 0.23700000000000002 -0.666 Q 0.34700000000000003 -0.666 0.40800000000000003 -0.592 Q 0.443 -0.549 0.448 -0.49 Q 0.449 -0.481 0.449 -0.47200000000000003 Q 0.449 -0.399 0.394 -0.333 Q 0.365 -0.299 0.304 -0.243 L 0.243 -0.189 L 0.233 -0.18 L 0.127 -0.077 L 0.307 -0.077 Q 0.395 -0.077 0.402 -0.085 Q 0.41200000000000003 -0.099 0.424 -0.17400000000000002 L 0.449 -0.17400000000000002 Z" />
                </g>
                <g transform="translate(5.488609604079951,1.5158659130434782)">
                    <path fill="rgb(0,0,0)" stroke="none" paint-order="stroke fill markers"
                        d=" M 0.40900000000000003 -0.23 L 0.40900000000000003 0.05 Q 0.40900000000000003 0.082 0.389 0.083 Q 0.369 0.083 0.369 0.05 L 0.369 -0.23 L 0.089 -0.23 Q 0.057 -0.23 0.056 -0.25 Q 0.056 -0.27 0.089 -0.27 L 0.369 -0.27 L 0.369 -0.55 Q 0.369 -0.582 0.389 -0.583 Q 0.40900000000000003 -0.583 0.40900000000000003 -0.55 L 0.40900000000000003 -0.27 L 0.6880000000000001 -0.27 Q 0.72 -0.27 0.721 -0.25 Q 0.721 -0.23 0.6880000000000001 -0.23 L 0.40900000000000003 -0.23 Z" />
                </g>
                <g transform="translate(6.488831826302174,1.5158659130434782)">
                    <path fill="rgb(0,0,0)" stroke="none" paint-order="stroke fill markers"
                        d=" M 0.294 -0.64 L 0.294 -0.079 Q 0.294 -0.049 0.306 -0.041 Q 0.323 -0.031 0.387 -0.031 L 0.419 -0.031 L 0.419 0 Q 0.384 -0.003 0.257 -0.003 Q 0.13 -0.003 0.095 0 L 0.095 -0.031 L 0.127 -0.031 Q 0.20400000000000001 -0.031 0.215 -0.049 L 0.216 -0.05 Q 0.22 -0.058 0.22 -0.079 L 0.22 -0.597 Q 0.168 -0.5710000000000001 0.089 -0.5710000000000001 L 0.089 -0.602 Q 0.209 -0.602 0.271 -0.666 Q 0.29 -0.666 0.293 -0.659 L 0.293 -0.659 L 0.293 -0.658 Q 0.294 -0.655 0.294 -0.64 Z" />
                </g>
                <g transform="translate(6.988831826302174,1.5158659130434782)">
                    <path fill="rgb(0,0,0)" stroke="none" paint-order="stroke fill markers"
                        d=" M 0.289 -0.25 L 0.289 -0.25 Q 0.289 -0.081 0.226 0.055 Q 0.17400000000000002 0.166 0.094 0.233 Q 0.073 0.25 0.067 0.25 Q 0.057 0.25 0.057 0.24 Q 0.057 0.23500000000000001 0.07 0.223 Q 0.231 0.059000000000000004 0.231 -0.25 Q 0.231 -0.555 0.081 -0.712 L 0.076 -0.717 Q 0.057 -0.735 0.057 -0.74 Q 0.057 -0.75 0.067 -0.75 Q 0.079 -0.75 0.12 -0.709 Q 0.182 -0.647 0.223 -0.562 Q 0.289 -0.426 0.289 -0.25 Z" />
                </g>
                <g transform="translate(7.544498492968841,1.5158659130434782)">
                    <path fill="rgb(0,0,0)" stroke="none" paint-order="stroke fill markers"
                        d=" M 0.40900000000000003 -0.23 L 0.40900000000000003 0.05 Q 0.40900000000000003 0.082 0.389 0.083 Q 0.369 0.083 0.369 0.05 L 0.369 -0.23 L 0.089 -0.23 Q 0.057 -0.23 0.056 -0.25 Q 0.056 -0.27 0.089 -0.27 L 0.369 -0.27 L 0.369 -0.55 Q 0.369 -0.582 0.389 -0.583 Q 0.40900000000000003 -0.583 0.40900000000000003 -0.55 L 0.40900000000000003 -0.27 L 0.6880000000000001 -0.27 Q 0.72 -0.27 0.721 -0.25 Q 0.721 -0.23 0.6880000000000001 -0.23 L 0.40900000000000003 -0.23 Z" />
                </g>
                <g transform="translate(8.544720715191062,1.5158659130434782)">
                    <path fill="rgb(0,0,0)" stroke="none" paint-order="stroke fill markers"
                        d=" M 0.294 -0.64 L 0.294 -0.079 Q 0.294 -0.049 0.306 -0.041 Q 0.323 -0.031 0.387 -0.031 L 0.419 -0.031 L 0.419 0 Q 0.384 -0.003 0.257 -0.003 Q 0.13 -0.003 0.095 0 L 0.095 -0.031 L 0.127 -0.031 Q 0.20400000000000001 -0.031 0.215 -0.049 L 0.216 -0.05 Q 0.22 -0.058 0.22 -0.079 L 0.22 -0.597 Q 0.168 -0.5710000000000001 0.089 -0.5710000000000001 L 0.089 -0.602 Q 0.209 -0.602 0.271 -0.666 Q 0.29 -0.666 0.293 -0.659 L 0.293 -0.659 L 0.293 -0.658 Q 0.294 -0.655 0.294 -0.64 Z" />
                </g>
                <g transform="translate(11.044720715191062,1.5158659130434782)">
                    <path fill="rgb(0,0,0)" stroke="none" paint-order="stroke fill markers"
                        d=" M 0.334 -0.302 L 0.3 -0.165 Q 0.28300000000000003 -0.097 0.28300000000000003 -0.077 Q 0.28300000000000003 -0.025 0.32 -0.014 Q 0.328 -0.011 0.338 -0.011 Q 0.388 -0.011 0.429 -0.061 Q 0.456 -0.093 0.47100000000000003 -0.14200000000000002 Q 0.47400000000000003 -0.153 0.484 -0.153 Q 0.496 -0.153 0.496 -0.14300000000000002 Q 0.496 -0.11800000000000001 0.465 -0.07100000000000001 Q 0.41100000000000003 0.011 0.336 0.011 Q 0.268 0.011 0.23700000000000002 -0.046 Q 0.231 -0.055 0.228 -0.065 Q 0.20400000000000001 -0.017 0.162 0.002 Q 0.14300000000000002 0.011 0.123 0.011 Q 0.063 0.011 0.039 -0.024 Q 0.029 -0.037 0.029 -0.055 Q 0.029 -0.092 0.061 -0.107 Q 0.07200000000000001 -0.113 0.084 -0.113 Q 0.114 -0.113 0.12 -0.088 Q 0.121 -0.083 0.121 -0.078 Q 0.121 -0.044 0.08700000000000001 -0.028 Q 0.081 -0.025 0.074 -0.024 Q 0.095 -0.011 0.124 -0.011 Q 0.177 -0.011 0.20800000000000002 -0.082 Q 0.214 -0.097 0.219 -0.115 Q 0.273 -0.319 0.273 -0.353 Q 0.267 -0.41500000000000004 0.219 -0.42 Q 0.167 -0.42 0.124 -0.367 L 0.124 -0.366 Q 0.124 -0.365 0.123 -0.365 Q 0.108 -0.34500000000000003 0.096 -0.319 Q 0.091 -0.307 0.08700000000000001 -0.295 L 0.085 -0.289 Q 0.083 -0.278 0.07200000000000001 -0.278 Q 0.06 -0.278 0.06 -0.28800000000000003 Q 0.06 -0.313 0.092 -0.36 Q 0.146 -0.442 0.221 -0.442 Q 0.298 -0.442 0.329 -0.366 Q 0.361 -0.428 0.41400000000000003 -0.44 Q 0.424 -0.442 0.434 -0.442 Q 0.493 -0.442 0.517 -0.40900000000000003 Q 0.527 -0.395 0.527 -0.376 Q 0.527 -0.335 0.49 -0.321 Q 0.481 -0.318 0.47300000000000003 -0.318 Q 0.442 -0.318 0.436 -0.34500000000000003 Q 0.435 -0.34900000000000003 0.435 -0.353 Q 0.435 -0.383 0.464 -0.4 Q 0.47300000000000003 -0.405 0.483 -0.40700000000000003 Q 0.462 -0.42 0.433 -0.42 Q 0.365 -0.42 0.337 -0.314 Q 0.335 -0.308 0.334 -0.302 Z" />
                </g>
                <g transform="translate(11.89449849296884,1.5158659130434782)">
                    <path fill="rgb(0,0,0)" stroke="none" paint-order="stroke fill markers"
                        d=" M 0.55 -0.23 L 0.55 -0.23 L 0.124 -0.23 Q 0.134 -0.11800000000000001 0.226 -0.052000000000000005 Q 0.297 0 0.391 0 L 0.55 0 Q 0.582 0 0.583 0.02 Q 0.583 0.04 0.55 0.04 L 0.388 0.04 Q 0.262 0.04 0.17300000000000001 -0.044 Q 0.083 -0.129 0.083 -0.25 Q 0.083 -0.377 0.179 -0.462 Q 0.268 -0.54 0.387 -0.54 L 0.55 -0.54 Q 0.582 -0.54 0.583 -0.52 Q 0.583 -0.5 0.55 -0.5 L 0.39 -0.5 Q 0.273 -0.5 0.195 -0.422 Q 0.132 -0.359 0.124 -0.27 L 0.55 -0.27 Q 0.582 -0.27 0.583 -0.25 Q 0.583 -0.23 0.55 -0.23 Z" />
                </g>
                <g transform="translate(12.839276270746618,1.5158659130434782)">
                    <path fill="rgb(0,0,0)" stroke="none" paint-order="stroke fill markers"
                        d=" M 0.255 0.25 L 0.11800000000000001 0.25 L 0.11800000000000001 -0.75 L 0.255 -0.75 L 0.255 -0.71 L 0.158 -0.71 L 0.158 0.21 L 0.255 0.21 L 0.255 0.25 Z" />
                </g>
                <g transform="translate(13.117276270746618,1.5158659130434782)">
                    <path fill="rgb(0,0,0)" stroke="none" paint-order="stroke fill markers"
                        d=" M 0.661 -0.23 L 0.116 -0.23 Q 0.084 -0.23 0.083 -0.25 Q 0.083 -0.27 0.116 -0.27 L 0.661 -0.27 Q 0.6930000000000001 -0.27 0.6940000000000001 -0.25 Q 0.6940000000000001 -0.23 0.661 -0.23 Z" />
                </g>
                <g transform="translate(13.895276270746619,1.5158659130434782)">
                    <path fill="rgb(0,0,0)" stroke="none" paint-order="stroke fill markers"
                        d=" M 0.29 -0.352 L 0.29 -0.352 Q 0.39 -0.332 0.434 -0.254 Q 0.457 -0.215 0.457 -0.171 Q 0.457 -0.08600000000000001 0.387 -0.028 Q 0.326 0.022 0.244 0.022 Q 0.145 0.022 0.085 -0.037 Q 0.042 -0.079 0.042 -0.135 Q 0.042 -0.182 0.084 -0.191 Q 0.091 -0.193 0.098 -0.193 Q 0.136 -0.193 0.149 -0.161 Q 0.153 -0.148 0.154 -0.137 Q 0.154 -0.097 0.11800000000000001 -0.085 Q 0.10400000000000001 -0.08 0.088 -0.082 Q 0.125 -0.02 0.216 -0.008 Q 0.229 -0.006 0.241 -0.006 Q 0.305 -0.006 0.335 -0.069 Q 0.354 -0.109 0.354 -0.171 Q 0.354 -0.304 0.274 -0.331 Q 0.256 -0.337 0.23500000000000001 -0.337 L 0.191 -0.337 Q 0.169 -0.337 0.167 -0.34800000000000003 Q 0.167 -0.358 0.182 -0.36 Q 0.197 -0.36 0.221 -0.363 Q 0.272 -0.365 0.301 -0.402 L 0.301 -0.403 L 0.302 -0.404 L 0.303 -0.405 L 0.304 -0.405 L 0.31 -0.41500000000000004 Q 0.338 -0.462 0.338 -0.529 Q 0.338 -0.622 0.266 -0.638 Q 0.254 -0.641 0.242 -0.641 Q 0.17200000000000001 -0.641 0.128 -0.601 Q 0.117 -0.591 0.109 -0.579 Q 0.171 -0.579 0.171 -0.529 Q 0.171 -0.493 0.14 -0.481 Q 0.131 -0.47800000000000004 0.12 -0.47800000000000004 Q 0.081 -0.47800000000000004 0.07100000000000001 -0.513 L 0.07100000000000001 -0.513 L 0.07100000000000001 -0.514 Q 0.069 -0.522 0.069 -0.53 Q 0.069 -0.597 0.135 -0.637 Q 0.183 -0.666 0.246 -0.666 Q 0.337 -0.666 0.393 -0.612 L 0.395 -0.61 Q 0.43 -0.5740000000000001 0.43 -0.528 Q 0.43 -0.445 0.359 -0.389 Q 0.328 -0.365 0.29 -0.352 Z" />
                </g>
                <g transform="translate(14.395276270746619,1.5158659130434782)">
                    <path fill="rgb(0,0,0)" stroke="none" paint-order="stroke fill markers"
                        d=" M 0.203 -0.001 L 0.203 -0.001 Q 0.203 0.096 0.14 0.169 Q 0.123 0.189 0.112 0.193 Q 0.10200000000000001 0.193 0.10200000000000001 0.182 Q 0.10200000000000001 0.177 0.113 0.166 Q 0.17300000000000001 0.106 0.18 0.019 Q 0.181 0.009000000000000001 0.181 -0.001 Q 0.181 -0.016 0.179 -0.016 Q 0.178 -0.016 0.17400000000000002 -0.013000000000000001 Q 0.16 0 0.139 0 Q 0.10200000000000001 0 0.09 -0.034 Q 0.08600000000000001 -0.043000000000000003 0.08600000000000001 -0.053 Q 0.08600000000000001 -0.089 0.117 -0.10200000000000001 Q 0.127 -0.106 0.139 -0.106 Q 0.183 -0.106 0.198 -0.048 Q 0.203 -0.027 0.203 -0.001 Z" />
                </g>
                <g transform="translate(14.839942937413285,1.5158659130434782)">
                    <path fill="rgb(0,0,0)" stroke="none" paint-order="stroke fill markers"
                        d=" M 0.294 -0.64 L 0.294 -0.079 Q 0.294 -0.049 0.306 -0.041 Q 0.323 -0.031 0.387 -0.031 L 0.419 -0.031 L 0.419 0 Q 0.384 -0.003 0.257 -0.003 Q 0.13 -0.003 0.095 0 L 0.095 -0.031 L 0.127 -0.031 Q 0.20400000000000001 -0.031 0.215 -0.049 L 0.216 -0.05 Q 0.22 -0.058 0.22 -0.079 L 0.22 -0.597 Q 0.168 -0.5710000000000001 0.089 -0.5710000000000001 L 0.089 -0.602 Q 0.209 -0.602 0.271 -0.666 Q 0.29 -0.666 0.293 -0.659 L 0.293 -0.659 L 0.293 -0.658 Q 0.294 -0.655 0.294 -0.64 Z" />
                </g>
                <g transform="translate(15.339942937413285,1.5158659130434782)">
                    <path fill="rgb(0,0,0)" stroke="none" paint-order="stroke fill markers"
                        d=" M 0.159 -0.75 L 0.159 0.25 L 0.022 0.25 L 0.022 0.21 L 0.11900000000000001 0.21 L 0.11900000000000001 -0.71 L 0.022 -0.71 L 0.022 -0.75 L 0.159 -0.75 Z" />
                </g>
            </g>
        </g>
    </g>
</svg>