<?xml version="1.0" encoding="UTF-8" standalone="no"?>
<!-- Created with Inkscape (http://www.inkscape.org/) -->

<svg
   width="720"
   height="480"
   viewBox="0 0 720 480"
   version="1.1"
   id="svg1"
   inkscape:version="1.3.2 (091e20e, 2023-11-25, custom)"
   xml:space="preserve"
   sodipodi:docname="parabola1.lnkspace.svg"
   xmlns:inkscape="http://www.inkscape.org/namespaces/inkscape"
   xmlns:sodipodi="http://sodipodi.sourceforge.net/DTD/sodipodi-0.dtd"
   xmlns="http://www.w3.org/2000/svg"
   xmlns:svg="http://www.w3.org/2000/svg"><sodipodi:namedview
     id="namedview1"
     pagecolor="#505050"
     bordercolor="#eeeeee"
     borderopacity="1"
     inkscape:showpageshadow="false"
     inkscape:pageopacity="0"
     inkscape:pagecheckerboard="true"
     inkscape:deskcolor="#505050"
     inkscape:document-units="px"
     labelstyle="default"
     showgrid="true"
     inkscape:zoom="1.7058951"
     inkscape:cx="300.72189"
     inkscape:cy="279.9117"
     inkscape:window-width="1360"
     inkscape:window-height="697"
     inkscape:window-x="-8"
     inkscape:window-y="-8"
     inkscape:window-maximized="1"
     inkscape:current-layer="g20"
     showguides="true" /><defs
     id="defs1"><marker
       style="overflow:visible"
       id="Triangle"
       refX="0"
       refY="0"
       orient="auto-start-reverse"
       inkscape:stockid="Triangle arrow"
       markerWidth="1"
       markerHeight="1"
       viewBox="0 0 1 1"
       inkscape:isstock="true"
       inkscape:collect="always"
       preserveAspectRatio="xMidYMid"><path
         transform="scale(0.5)"
         style="fill:context-stroke;fill-rule:evenodd;stroke:context-stroke;stroke-width:1pt"
         d="M 5.77,0 -2.88,5 V -5 Z"
         id="path135" /></marker><clipPath
       id="wcISBGKpftQc"><path
         fill="none"
         stroke="none"
         d="M 0,0 H 1288 V 704 H 0 Z"
         id="path1" /></clipPath><marker
       style="overflow:visible"
       id="Triangle-5"
       refX="0"
       refY="0"
       orient="auto-start-reverse"
       inkscape:stockid="Triangle arrow"
       markerWidth="1"
       markerHeight="1"
       viewBox="0 0 1 1"
       inkscape:isstock="true"
       inkscape:collect="always"
       preserveAspectRatio="xMidYMid"><path
         transform="scale(0.5)"
         style="fill:context-stroke;fill-rule:evenodd;stroke:context-stroke;stroke-width:1pt"
         d="M 5.77,0 -2.88,5 V -5 Z"
         id="path135-5" /></marker></defs><g
     inkscape:label="Layer 1"
     inkscape:groupmode="layer"
     id="layer1"><g
       id="g20"
       clip-path="url(#clipPath22)"
       transform="matrix(0.66663005,0,0,0.6666046,-71.60145,7.3768911)"
       style="stroke-width:1.50011"><rect
         fill="#000000"
         stroke="none"
         x="-3.2828875e-11"
         y="-513.40021"
         width="1301.7506"
         height="1222.4009"
         fill-opacity="1"
         id="rect1"
         style="display:inline;stroke-width:1.50011" /><text
         xml:space="preserve"
         style="font-size:36.0027px;font-family:'Cambria Math';-inkscape-font-specification:'Cambria Math';fill:#ffffff;stroke:none;stroke-width:3.00022;stroke-linejoin:round;stroke-miterlimit:0"
         x="651.67322"
         y="92.148079"
         id="text1-6"
         transform="scale(0.9999809,1.0000191)"><tspan
           sodipodi:role="line"
           style="font-size:36.0027px;stroke:none;stroke-width:3.00022"
           x="651.67322"
           y="92.148079"
           id="tspan2-5">Eje</tspan></text><path
         style="fill:none;fill-opacity:1;stroke:#999999;stroke-width:3.00022;stroke-linejoin:round;stroke-miterlimit:0;stroke-dasharray:none;stroke-opacity:1;marker-end:url(#Triangle-5)"
         d="m 636.81845,526.75006 -50.18364,17.31025"
         id="path21-9"
         sodipodi:nodetypes="cc" /><text
         xml:space="preserve"
         style="font-size:36.0027px;font-family:'Cambria Math';-inkscape-font-specification:'Cambria Math';fill:#ffffff;stroke:none;stroke-width:3.00022;stroke-linejoin:round;stroke-miterlimit:0"
         x="465.51031"
         y="558.60883"
         id="text1-95"
         transform="scale(0.9999809,1.0000191)"><tspan
           sodipodi:role="line"
           style="font-size:36.0027px;stroke:none;stroke-width:3.00022"
           x="465.51031"
           y="558.60883"
           id="tspan2-4">Vertice</tspan></text><text
         xml:space="preserve"
         style="font-size:36.0027px;font-family:'Cambria Math';-inkscape-font-specification:'Cambria Math';fill:#ffffff;stroke:none;stroke-width:3.00022;stroke-linejoin:round;stroke-miterlimit:0"
         x="170.51062"
         y="576.61029"
         id="text1-9"
         transform="scale(0.9999809,1.0000191)"><tspan
           sodipodi:role="line"
           style="font-size:36.0027px;stroke:none;stroke-width:3.00022"
           x="170.51062"
           y="576.61029"
           id="tspan2-2">Directriz</tspan></text><path
         fill="none"
         stroke="#ff6600"
         paint-order="fill stroke markers"
         d="m 128.8,-510.4 c 343.46667,1373.86667 686.93333,1373.86667 1030.4,0"
         stroke-opacity="1"
         stroke-linecap="round"
         stroke-linejoin="round"
         stroke-miterlimit="10"
         stroke-width="6.00045"
         id="path2" /><path
         fill="none"
         stroke="#0099ff"
         paint-order="fill stroke markers"
         d="M -5,584.4 H 1293"
         stroke-opacity="1"
         stroke-linecap="round"
         stroke-linejoin="round"
         stroke-miterlimit="10"
         stroke-width="3.75028"
         id="path3" /><path
         fill="none"
         stroke="#a0a0a0"
         paint-order="fill stroke markers"
         d="M 644,709 V -5"
         stroke-opacity="1"
         stroke-linejoin="round"
         stroke-miterlimit="10"
         stroke-width="3.75028"
         stroke-dasharray="10.5, 8"
         id="path4" /><path
         fill="none"
         stroke="#ffffff"
         paint-order="fill stroke markers"
         d="M 856.55744,344.60923 644,455.6"
         stroke-opacity="1"
         stroke-linecap="round"
         stroke-linejoin="round"
         stroke-miterlimit="10"
         stroke-width="3.75028"
         id="path5" /><path
         fill="none"
         stroke="#ffffff"
         paint-order="fill stroke markers"
         d="M 856.55744,344.60923 V 584.4"
         stroke-opacity="1"
         stroke-linecap="round"
         stroke-linejoin="round"
         stroke-miterlimit="10"
         stroke-width="3.75028"
         id="path6" /><path
         fill="none"
         stroke="#ffffff"
         paint-order="fill stroke markers"
         d="M 431.44256,344.60923 644,455.6"
         stroke-opacity="1"
         stroke-linecap="round"
         stroke-linejoin="round"
         stroke-miterlimit="10"
         stroke-width="3.75028"
         id="path7" /><path
         fill="none"
         stroke="#ffffff"
         paint-order="fill stroke markers"
         d="M 431.44256,344.60923 V 584.4"
         stroke-opacity="1"
         stroke-linecap="round"
         stroke-linejoin="round"
         stroke-miterlimit="10"
         stroke-width="3.75028"
         id="path8" /><g
         id="g23"
         transform="matrix(1.372378,0,0,1.372378,-239.81141,-193.63654)"
         style="stroke-width:1.09307"><path
           fill="#1565c0"
           stroke="none"
           paint-order="stroke fill markers"
           d="m 650,520 c 0,3.31371 -2.68629,6 -6,6 -3.31371,0 -6,-2.68629 -6,-6 0,-3.31371 2.68629,-6 6,-6 3.31371,0 6,2.68629 6,6 z"
           fill-opacity="1"
           id="path9"
           style="stroke-width:1.09307" /><path
           fill="none"
           stroke="#000000"
           paint-order="fill stroke markers"
           d="m 650,520 c 0,3.31371 -2.68629,6 -6,6 -3.31371,0 -6,-2.68629 -6,-6 0,-3.31371 2.68629,-6 6,-6 3.31371,0 6,2.68629 6,6 z"
           stroke-opacity="1"
           stroke-linecap="round"
           stroke-linejoin="round"
           stroke-miterlimit="10"
           id="path10"
           style="stroke-width:1.09307" /></g><g
         id="g22"
         transform="matrix(1.2362519,0,0,1.2362519,-152.14622,-108.9511)"
         style="stroke-width:1.21343"><path
           fill="#d32f2f"
           stroke="none"
           paint-order="stroke fill markers"
           d="m 650,455.6 c 0,3.31371 -2.68629,6 -6,6 -3.31371,0 -6,-2.68629 -6,-6 0,-3.31371 2.68629,-6 6,-6 3.31371,0 6,2.68629 6,6 z"
           fill-opacity="1"
           id="path11"
           style="stroke-width:1.21343" /><path
           fill="none"
           stroke="#000000"
           paint-order="fill stroke markers"
           d="m 650,455.6 c 0,3.31371 -2.68629,6 -6,6 -3.31371,0 -6,-2.68629 -6,-6 0,-3.31371 2.68629,-6 6,-6 3.31371,0 6,2.68629 6,6 z"
           stroke-opacity="1"
           stroke-linecap="round"
           stroke-linejoin="round"
           stroke-miterlimit="10"
           id="path12"
           style="stroke-width:1.21343" /></g><g
         id="g21"><path
           fill="#ffffff"
           stroke="none"
           paint-order="stroke fill markers"
           d="m 861.55744,344.60923 c 0,2.76142 -2.23858,5 -5,5 -2.76143,0 -5,-2.23858 -5,-5 0,-2.76143 2.23857,-5 5,-5 2.76142,0 5,2.23857 5,5 z"
           fill-opacity="1"
           id="path13"
           style="stroke-width:1.50011" /><path
           fill="none"
           stroke="#000000"
           paint-order="fill stroke markers"
           d="m 861.55744,344.60923 c 0,2.76142 -2.23858,5 -5,5 -2.76143,0 -5,-2.23858 -5,-5 0,-2.76143 2.23857,-5 5,-5 2.76142,0 5,2.23857 5,5 z"
           stroke-opacity="1"
           stroke-linecap="round"
           stroke-linejoin="round"
           stroke-miterlimit="10"
           id="path14"
           style="stroke-width:1.50011;stroke:#000000;stroke-opacity:1" /></g><path
         fill="#ffffff"
         stroke="none"
         paint-order="stroke fill markers"
         d="m 436.44256,344.60923 c 0,2.76142 -2.23857,5 -5,5 -2.76142,0 -5,-2.23858 -5,-5 0,-2.76143 2.23858,-5 5,-5 2.76143,0 5,2.23857 5,5 z"
         fill-opacity="1"
         id="path15"
         style="stroke-width:1.50011" /><path
         fill="none"
         stroke="#000000"
         paint-order="fill stroke markers"
         d="m 436.44256,344.60923 c 0,2.76142 -2.23857,5 -5,5 -2.76142,0 -5,-2.23858 -5,-5 0,-2.76143 2.23858,-5 5,-5 2.76143,0 5,2.23857 5,5 z"
         stroke-opacity="1"
         stroke-linecap="round"
         stroke-linejoin="round"
         stroke-miterlimit="10"
         id="path16"
         style="stroke-width:1.50011" /><path
         fill="#ffffff"
         stroke="none"
         paint-order="stroke fill markers"
         d="m 861.55744,584.4 c 0,2.76142 -2.23858,5 -5,5 -2.76143,0 -5,-2.23858 -5,-5 0,-2.76142 2.23857,-5 5,-5 2.76142,0 5,2.23858 5,5 z"
         fill-opacity="1"
         id="path17"
         style="stroke-width:1.50011" /><path
         fill="none"
         stroke="#000000"
         paint-order="fill stroke markers"
         d="m 861.55744,584.4 c 0,2.76142 -2.23858,5 -5,5 -2.76143,0 -5,-2.23858 -5,-5 0,-2.76142 2.23857,-5 5,-5 2.76142,0 5,2.23858 5,5 z"
         stroke-opacity="1"
         stroke-linecap="round"
         stroke-linejoin="round"
         stroke-miterlimit="10"
         id="path18"
         style="stroke-width:1.50011" /><path
         fill="#ffffff"
         stroke="none"
         paint-order="stroke fill markers"
         d="m 436.44256,584.4 c 0,2.76142 -2.23857,5 -5,5 -2.76142,0 -5,-2.23858 -5,-5 0,-2.76142 2.23858,-5 5,-5 2.76143,0 5,2.23858 5,5 z"
         fill-opacity="1"
         id="path19"
         style="stroke-width:1.50011" /><path
         fill="none"
         stroke="#000000"
         paint-order="fill stroke markers"
         d="m 436.44256,584.4 c 0,2.76142 -2.23857,5 -5,5 -2.76142,0 -5,-2.23858 -5,-5 0,-2.76142 2.23858,-5 5,-5 2.76143,0 5,2.23858 5,5 z"
         stroke-opacity="1"
         stroke-linecap="round"
         stroke-linejoin="round"
         stroke-miterlimit="10"
         id="path20"
         style="stroke-width:1.50011" /><text
         xml:space="preserve"
         style="font-size:36.0027px;font-family:'Cambria Math';-inkscape-font-specification:'Cambria Math';fill:#ffffff;stroke:none;stroke-width:3.00022;stroke-linejoin:round;stroke-miterlimit:0"
         x="481.78574"
         y="328.74649"
         id="text1"
         transform="scale(0.9999809,1.0000191)"><tspan
           sodipodi:role="line"
           style="font-size:36.0027px;stroke:none;stroke-width:3.00022"
           x="481.78574"
           y="328.74649"
           id="tspan2">Foco</tspan></text><path
         style="fill:none;fill-opacity:1;stroke:#999999;stroke-width:3.00022;stroke-linejoin:round;stroke-miterlimit:0;stroke-dasharray:none;stroke-opacity:1;marker-end:url(#Triangle)"
         d="M 638.72389,447.24586 559.04714,342.73409"
         id="path21"
         sodipodi:nodetypes="cc" /></g></g></svg>
