<svg version="1.1" xmlns="http://www.w3.org/2000/svg" xmlns:xlink="http://www.w3.org/1999/xlink" width="953"
    height="704">
    <defs>
        <clipPath id="ODITaexIbfKF">
            <path fill="none" stroke="none" d=" M 0 0 L 953 0 L 953 704 L 0 704 L 0 0 Z" />
        </clipPath>
    </defs>
    <g transform="scale(1,1)" clip-path="url(#ODITaexIbfKF)">
        <g>
            <rect fill="#ffffff" stroke="none" x="0" y="0" width="953" height="704" fill-opacity="1" />
            <path fill="none" stroke="rgb(37,37,37)" paint-order="fill stroke markers" d=" M 472.5 -0.5 L 472.5 704.5"
                stroke-opacity="1" stroke-miterlimit="10" />
            <path fill="none" stroke="rgb(37,37,37)" paint-order="fill stroke markers" d=" M 0.5 352.5 L 952.5 352.5"
                stroke-opacity="1" stroke-miterlimit="10" />
            <path fill="none" stroke="rgb(37,37,37)" paint-order="fill stroke markers" d=" M 0.5 352.5 L 0.5 355.5"
                stroke-opacity="1" stroke-miterlimit="10" /><text fill="rgb(37,37,37)" stroke="none"
                font-family="geogebra-sans-serif, sans-serif" font-size="12px" font-style="normal" font-weight="normal"
                text-decoration="normal" x="231" y="368" text-anchor="start" dominant-baseline="alphabetic"
                fill-opacity="1">–1</text><text fill="none" stroke="rgb(255,255,255)"
                font-family="geogebra-sans-serif, sans-serif" font-size="12px" font-style="normal" font-weight="normal"
                text-decoration="normal" x="231" y="368" text-anchor="start" dominant-baseline="alphabetic"
                stroke-opacity="1" stroke-linejoin="bevel" stroke-miterlimit="10" stroke-width="3">–1</text><text
                fill="rgb(37,37,37)" stroke="none" font-family="geogebra-sans-serif, sans-serif" font-size="12px"
                font-style="normal" font-weight="normal" text-decoration="normal" x="231" y="368" text-anchor="start"
                dominant-baseline="alphabetic" fill-opacity="1">–1</text>
            <path fill="none" stroke="rgb(37,37,37)" paint-order="fill stroke markers" d=" M 236.5 352.5 L 236.5 355.5"
                stroke-opacity="1" stroke-miterlimit="10" />
            <path fill="none" stroke="rgb(37,37,37)" paint-order="fill stroke markers" d=" M 472.5 352.5 L 472.5 355.5"
                stroke-opacity="1" stroke-miterlimit="10" /><text fill="rgb(37,37,37)" stroke="none"
                font-family="geogebra-sans-serif, sans-serif" font-size="12px" font-style="normal" font-weight="normal"
                text-decoration="normal" x="706" y="368" text-anchor="start" dominant-baseline="alphabetic"
                fill-opacity="1">1</text><text fill="none" stroke="rgb(255,255,255)"
                font-family="geogebra-sans-serif, sans-serif" font-size="12px" font-style="normal" font-weight="normal"
                text-decoration="normal" x="706" y="368" text-anchor="start" dominant-baseline="alphabetic"
                stroke-opacity="1" stroke-linejoin="bevel" stroke-miterlimit="10" stroke-width="3">1</text><text
                fill="rgb(37,37,37)" stroke="none" font-family="geogebra-sans-serif, sans-serif" font-size="12px"
                font-style="normal" font-weight="normal" text-decoration="normal" x="706" y="368" text-anchor="start"
                dominant-baseline="alphabetic" fill-opacity="1">1</text>
            <path fill="none" stroke="rgb(37,37,37)" paint-order="fill stroke markers" d=" M 708.5 352.5 L 708.5 355.5"
                stroke-opacity="1" stroke-miterlimit="10" />
            <path fill="none" stroke="rgb(37,37,37)" paint-order="fill stroke markers" d=" M 944.5 352.5 L 944.5 355.5"
                stroke-opacity="1" stroke-miterlimit="10" />
            <path fill="none" stroke="rgb(37,37,37)" paint-order="fill stroke markers" d=" M 469.5 588.5 L 472.5 588.5"
                stroke-opacity="1" stroke-miterlimit="10" />
            <path fill="none" stroke="rgb(37,37,37)" paint-order="fill stroke markers" d=" M 469.5 115.5 L 472.5 115.5"
                stroke-opacity="1" stroke-miterlimit="10" /><text fill="rgb(37,37,37)" stroke="none"
                font-family="geogebra-sans-serif, sans-serif" font-size="12px" font-style="normal" font-weight="normal"
                text-decoration="normal" x="452" y="593" text-anchor="start" dominant-baseline="alphabetic"
                fill-opacity="1">–1</text><text fill="none" stroke="rgb(255,255,255)"
                font-family="geogebra-sans-serif, sans-serif" font-size="12px" font-style="normal" font-weight="normal"
                text-decoration="normal" x="452" y="593" text-anchor="start" dominant-baseline="alphabetic"
                stroke-opacity="1" stroke-linejoin="bevel" stroke-miterlimit="10" stroke-width="3">–1</text><text
                fill="rgb(37,37,37)" stroke="none" font-family="geogebra-sans-serif, sans-serif" font-size="12px"
                font-style="normal" font-weight="normal" text-decoration="normal" x="452" y="593" text-anchor="start"
                dominant-baseline="alphabetic" fill-opacity="1">–1</text><text fill="rgb(37,37,37)" stroke="none"
                font-family="geogebra-sans-serif, sans-serif" font-size="12px" font-style="normal" font-weight="normal"
                text-decoration="normal" x="458" y="120" text-anchor="start" dominant-baseline="alphabetic"
                fill-opacity="1">1</text><text fill="none" stroke="rgb(255,255,255)"
                font-family="geogebra-sans-serif, sans-serif" font-size="12px" font-style="normal" font-weight="normal"
                text-decoration="normal" x="458" y="120" text-anchor="start" dominant-baseline="alphabetic"
                stroke-opacity="1" stroke-linejoin="bevel" stroke-miterlimit="10" stroke-width="3">1</text><text
                fill="rgb(37,37,37)" stroke="none" font-family="geogebra-sans-serif, sans-serif" font-size="12px"
                font-style="normal" font-weight="normal" text-decoration="normal" x="458" y="120" text-anchor="start"
                dominant-baseline="alphabetic" fill-opacity="1">1</text><text fill="rgb(37,37,37)" stroke="none"
                font-family="geogebra-sans-serif, sans-serif" font-size="12px" font-style="normal" font-weight="normal"
                text-decoration="normal" x="458" y="368" text-anchor="start" dominant-baseline="alphabetic"
                fill-opacity="1">0</text><text fill="none" stroke="rgb(255,255,255)"
                font-family="geogebra-sans-serif, sans-serif" font-size="12px" font-style="normal" font-weight="normal"
                text-decoration="normal" x="458" y="368" text-anchor="start" dominant-baseline="alphabetic"
                stroke-opacity="1" stroke-linejoin="bevel" stroke-miterlimit="10" stroke-width="3">0</text><text
                fill="rgb(37,37,37)" stroke="none" font-family="geogebra-sans-serif, sans-serif" font-size="12px"
                font-style="normal" font-weight="normal" text-decoration="normal" x="458" y="368" text-anchor="start"
                dominant-baseline="alphabetic" fill-opacity="1">0</text>
            <path fill="rgb(0,51,204)" stroke="none" paint-order="stroke fill markers" fill-rule="evenodd"
                d=" M 639.5539770553218 352 L 472.4999999999999 352 L 639.5539770553218 184.9460229446782 Z"
                fill-opacity="0.09803921568627451" />
            <path fill="none" stroke="rgb(0,0,0)" paint-order="fill stroke markers"
                d=" M 708.7499999999998 352 C 708.7499999999998 482.4772721475249 602.9772721475247 588.25 472.4999999999999 588.25 C 342.022727852475 588.25 236.24999999999994 482.4772721475249 236.24999999999994 352 C 236.24999999999994 221.5227278524751 342.022727852475 115.75000000000003 472.4999999999999 115.75000000000003 C 602.9772721475247 115.75000000000003 708.7499999999998 221.5227278524751 708.7499999999998 352 Z"
                stroke-opacity="0.6980392156862745" stroke-linecap="round" stroke-linejoin="round"
                stroke-miterlimit="10" stroke-width="2" />
            <path fill="rgb(0,0,0)" stroke="none" paint-order="stroke fill markers"
                d=" M 517.4999999999999 352 C 517.4999999999999 340.0652579572205 512.7589421835561 328.6193318767669 504.3198051533945 320.1801948466054 L 472.4999999999999 352 Z"
                fill-opacity="0.2" />
            <path fill="none" stroke="rgb(0,0,0)" paint-order="fill stroke markers"
                d=" M 517.4999999999999 352 C 517.4999999999999 340.0652579572205 512.7589421835561 328.6193318767669 504.3198051533945 320.1801948466054 L 472.4999999999999 352 Z"
                stroke-opacity="0.6" stroke-linecap="round" stroke-linejoin="round" stroke-miterlimit="10"
                stroke-width="2.5" /><text fill="rgb(0,0,0)" stroke="none" font-family="geogebra-sans-serif, sans-serif"
                font-size="16px" font-style="normal" font-weight="normal" text-decoration="normal" x="521" y="336"
                text-anchor="start" dominant-baseline="alphabetic" fill-opacity="1">x</text><text fill="none"
                stroke="rgb(255,255,255)" font-family="geogebra-sans-serif, sans-serif" font-size="16px"
                font-style="normal" font-weight="normal" text-decoration="normal" x="521" y="336" text-anchor="start"
                dominant-baseline="alphabetic" stroke-opacity="1" stroke-linejoin="bevel" stroke-miterlimit="10"
                stroke-width="3">x</text><text fill="rgb(0,0,0)" stroke="none"
                font-family="geogebra-sans-serif, sans-serif" font-size="16px" font-style="normal" font-weight="normal"
                text-decoration="normal" x="521" y="336" text-anchor="start" dominant-baseline="alphabetic"
                fill-opacity="1">x</text>
            <path fill="none" stroke="rgb(0,51,204)" paint-order="fill stroke markers"
                d=" M 639.5539770553218 352 L 472.4999999999999 352" stroke-opacity="0.6980392156862745"
                stroke-linecap="round" stroke-linejoin="round" stroke-miterlimit="10" stroke-width="2.5" />
            <path fill="none" stroke="rgb(0,51,204)" paint-order="fill stroke markers"
                d=" M 472.4999999999999 352 L 639.5539770553218 184.9460229446782" stroke-opacity="0.6980392156862745"
                stroke-linecap="round" stroke-linejoin="round" stroke-miterlimit="10" stroke-width="2.5" />
            <path fill="none" stroke="rgb(0,51,204)" paint-order="fill stroke markers"
                d=" M 639.5539770553218 184.9460229446782 L 639.5539770553218 352" stroke-opacity="0.6980392156862745"
                stroke-linecap="round" stroke-linejoin="round" stroke-miterlimit="10" stroke-width="2.5" /><text
                fill="rgb(0,0,0)" stroke="none" font-family="geogebra-sans-serif, sans-serif" font-size="16px"
                font-style="normal" font-weight="normal" text-decoration="normal" x="538" y="394" text-anchor="start"
                dominant-baseline="alphabetic" fill-opacity="1">Cos(x)</text><text fill="none" stroke="rgb(255,255,255)"
                font-family="geogebra-sans-serif, sans-serif" font-size="16px" font-style="normal" font-weight="normal"
                text-decoration="normal" x="538" y="394" text-anchor="start" dominant-baseline="alphabetic"
                stroke-opacity="1" stroke-linejoin="bevel" stroke-miterlimit="10" stroke-width="3">Cos(x)</text><text
                fill="rgb(0,0,0)" stroke="none" font-family="geogebra-sans-serif, sans-serif" font-size="16px"
                font-style="normal" font-weight="normal" text-decoration="normal" x="538" y="394" text-anchor="start"
                dominant-baseline="alphabetic" fill-opacity="1">Cos(x)</text>
            <path fill="rgb(0,0,0)" stroke="none" paint-order="stroke fill markers"
                d=" M 475.5177669529662 374.375 L 474.2677669529662 375.625 L 475.5177669529662 376.875 L 478.9999999999999 376.875 L 478.9999999999999 374.375 Z M 482.9999999999999 374.375 L 482.9999999999999 376.875 L 489.4999999999999 376.875 L 489.4999999999999 374.375 Z M 493.4999999999999 374.375 L 493.4999999999999 376.875 L 499.9999999999999 376.875 L 499.9999999999999 374.375 Z M 503.9999999999999 374.375 L 503.9999999999999 376.875 L 510.4999999999999 376.875 L 510.4999999999999 374.375 Z M 514.4999999999999 374.375 L 514.4999999999999 376.875 L 520.9999999999999 376.875 L 520.9999999999999 374.375 Z M 524.9999999999999 374.375 L 524.9999999999999 376.875 L 531.4999999999999 376.875 L 531.4999999999999 374.375 Z M 535.4999999999999 374.375 L 535.4999999999999 376.875 L 541.9999999999999 376.875 L 541.9999999999999 374.375 Z M 545.9999999999999 374.375 L 545.9999999999999 376.875 L 552.4999999999999 376.875 L 552.4999999999999 374.375 Z M 556.4999999999999 374.375 L 556.4999999999999 376.875 L 562.9999999999999 376.875 L 562.9999999999999 374.375 Z M 566.9999999999999 374.375 L 566.9999999999999 376.875 L 573.4999999999999 376.875 L 573.4999999999999 374.375 Z M 577.4999999999999 374.375 L 577.4999999999999 376.875 L 583.9999999999999 376.875 L 583.9999999999999 374.375 Z M 587.9999999999999 374.375 L 587.9999999999999 376.875 L 594.4999999999999 376.875 L 594.4999999999999 374.375 Z M 598.4999999999999 374.375 L 598.4999999999999 376.875 L 604.9999999999999 376.875 L 604.9999999999999 374.375 Z M 608.9999999999999 374.375 L 608.9999999999999 376.875 L 615.4999999999999 376.875 L 615.4999999999999 374.375 Z M 619.4999999999999 374.375 L 619.4999999999999 376.875 L 625.9999999999999 376.875 L 625.9999999999999 374.375 Z M 629.9999999999999 374.375 L 629.9999999999999 376.875 L 636.4999999999999 376.875 L 636.4999999999999 374.375 Z"
                fill-opacity="0.6980392156862745" />
            <path fill="rgb(0,0,0)" stroke="none" paint-order="stroke fill markers"
                d=" M 471.6161165235167 376.50888347648316 L 476.6161165235167 381.50888347648316 C 477.1042718882058 381.99703884117224 477.89572811179397 381.99703884117224 478.38388347648305 381.50888347648316 C 478.8720388411721 381.0207281117941 478.8720388411721 380.2292718882059 478.38388347648305 379.74111652351684 L 473.38388347648305 374.74111652351684 C 472.89572811179397 374.25296115882776 472.1042718882058 374.25296115882776 471.6161165235167 374.74111652351684 C 471.12796115882765 375.2292718882059 471.12796115882765 376.0207281117941 471.6161165235167 376.50888347648316 Z M 476.6161165235167 369.74111652351684 L 471.6161165235167 374.74111652351684 C 471.12796115882765 375.2292718882059 471.12796115882765 376.0207281117941 471.6161165235167 376.50888347648316 C 472.1042718882058 376.99703884117224 472.89572811179397 376.99703884117224 473.38388347648305 376.50888347648316 L 478.38388347648305 371.50888347648316 C 478.8720388411721 371.0207281117941 478.8720388411721 370.2292718882059 478.38388347648305 369.74111652351684 C 477.89572811179397 369.25296115882776 477.1042718882058 369.25296115882776 476.6161165235167 369.74111652351684 Z"
                fill-opacity="0.6980392156862745" />
            <path fill="rgb(0,0,0)" stroke="none" paint-order="stroke fill markers"
                d=" M 638.6700935788385 374.74111652351684 L 633.6700935788385 379.74111652351684 C 633.1819382141495 380.229271888206 633.1819382141495 381.02072811179414 633.6700935788385 381.5088834764832 C 634.1582489435276 381.9970388411723 634.9497051671159 381.9970388411723 635.437860531805 381.50888347648316 L 640.437860531805 376.50888347648316 C 640.926015896494 376.020728111794 640.926015896494 375.22927188820586 640.437860531805 374.7411165235168 C 639.9497051671159 374.2529611588277 639.1582489435276 374.2529611588277 638.6700935788385 374.74111652351684 Z M 633.6700935788385 371.50888347648316 L 638.6700935788385 376.50888347648316 C 639.1582489435276 376.9970388411723 639.9497051671159 376.9970388411723 640.437860531805 376.5088834764832 C 640.926015896494 376.02072811179414 640.926015896494 375.229271888206 640.437860531805 374.74111652351684 L 635.437860531805 369.74111652351684 C 634.9497051671159 369.2529611588277 634.1582489435276 369.2529611588277 633.6700935788385 369.7411165235168 C 633.1819382141495 370.22927188820586 633.1819382141495 371.020728111794 633.6700935788385 371.50888347648316 Z"
                fill-opacity="0.6980392156862745" /><text fill="rgb(0,0,0)" stroke="none"
                font-family="geogebra-sans-serif, sans-serif" font-size="16px" font-style="normal" font-weight="normal"
                text-decoration="normal" x="671" y="274" text-anchor="start" dominant-baseline="alphabetic"
                fill-opacity="1">Sin(x)</text><text fill="none" stroke="rgb(255,255,255)"
                font-family="geogebra-sans-serif, sans-serif" font-size="16px" font-style="normal" font-weight="normal"
                text-decoration="normal" x="671" y="274" text-anchor="start" dominant-baseline="alphabetic"
                stroke-opacity="1" stroke-linejoin="bevel" stroke-miterlimit="10" stroke-width="3">Sin(x)</text><text
                fill="rgb(0,0,0)" stroke="none" font-family="geogebra-sans-serif, sans-serif" font-size="16px"
                font-style="normal" font-weight="normal" text-decoration="normal" x="671" y="274" text-anchor="start"
                dominant-baseline="alphabetic" fill-opacity="1">Sin(x)</text>
            <path fill="rgb(0,0,0)" stroke="none" paint-order="stroke fill markers"
                d=" M 661.9289770553216 188 L 661.9289770553216 194.5 L 664.4289770553216 194.5 L 664.4289770553216 188 Z M 661.9289770553216 198.5 L 661.9289770553216 205 L 664.4289770553216 205 L 664.4289770553216 198.5 Z M 661.9289770553216 209 L 661.9289770553216 215.5 L 664.4289770553216 215.5 L 664.4289770553216 209 Z M 661.9289770553216 219.5 L 661.9289770553216 226 L 664.4289770553216 226 L 664.4289770553216 219.5 Z M 661.9289770553216 230 L 661.9289770553216 236.5 L 664.4289770553216 236.5 L 664.4289770553216 230 Z M 661.9289770553216 240.5 L 661.9289770553216 247 L 664.4289770553216 247 L 664.4289770553216 240.5 Z M 661.9289770553216 251 L 661.9289770553216 257.5 L 664.4289770553216 257.5 L 664.4289770553216 251 Z M 661.9289770553216 261.5 L 661.9289770553216 268 L 664.4289770553216 268 L 664.4289770553216 261.5 Z M 661.9289770553216 272 L 661.9289770553216 278.5 L 664.4289770553216 278.5 L 664.4289770553216 272 Z M 661.9289770553216 282.5 L 661.9289770553216 289 L 664.4289770553216 289 L 664.4289770553216 282.5 Z M 661.9289770553216 293 L 661.9289770553216 299.5 L 664.4289770553216 299.5 L 664.4289770553216 293 Z M 661.9289770553216 303.5 L 661.9289770553216 310 L 664.4289770553216 310 L 664.4289770553216 303.5 Z M 661.9289770553216 314 L 661.9289770553216 320.5 L 664.4289770553216 320.5 L 664.4289770553216 314 Z M 661.9289770553216 324.5 L 661.9289770553216 331 L 664.4289770553216 331 L 664.4289770553216 324.5 Z M 661.9289770553216 335 L 661.9289770553216 341.5 L 664.4289770553216 341.5 L 664.4289770553216 335 Z M 661.9289770553216 345.5 L 661.9289770553216 348.9822330470337 L 663.1789770553216 350.2322330470337 L 664.4289770553216 348.9822330470337 L 664.4289770553216 345.5 Z"
                fill-opacity="0.6980392156862745" />
            <path fill="rgb(0,0,0)" stroke="none" paint-order="stroke fill markers"
                d=" M 664.0628605318047 352.8838834764832 L 669.0628605318047 347.8838834764832 C 669.5510158964939 347.39572811179414 669.5510158964939 346.604271888206 669.0628605318049 346.1161165235169 C 668.5747051671158 345.6279611588278 667.7832489435276 345.6279611588277 667.2950935788385 346.1161165235168 L 662.2950935788385 351.1161165235168 C 661.8069382141493 351.60427188820586 661.8069382141493 352.395728111794 662.2950935788384 352.8838834764831 C 662.7832489435275 353.3720388411722 663.5747051671157 353.3720388411723 664.0628605318047 352.8838834764832 Z M 657.2950935788385 347.8838834764832 L 662.2950935788385 352.8838834764832 C 662.7832489435276 353.3720388411723 663.5747051671158 353.3720388411722 664.0628605318049 352.8838834764831 C 664.5510158964939 352.395728111794 664.5510158964939 351.60427188820586 664.0628605318047 351.1161165235168 L 659.0628605318047 346.1161165235168 C 658.5747051671157 345.6279611588277 657.7832489435275 345.6279611588278 657.2950935788384 346.1161165235169 C 656.8069382141493 346.604271888206 656.8069382141493 347.39572811179414 657.2950935788385 347.8838834764832 Z"
                fill-opacity="0.6980392156862745" />
            <path fill="rgb(0,0,0)" stroke="none" paint-order="stroke fill markers"
                d=" M 662.2950935788384 185.82990642116135 L 667.2950935788384 190.82990642116135 C 667.7832489435275 191.31806178585043 668.5747051671158 191.31806178585043 669.0628605318049 190.82990642116135 C 669.5510158964939 190.34175105647228 669.5510158964939 189.550294832884 669.0628605318049 189.0621394681949 L 664.0628605318049 184.0621394681949 C 663.5747051671158 183.57398410350584 662.7832489435275 183.57398410350584 662.2950935788384 184.0621394681949 C 661.8069382141493 184.550294832884 661.8069382141493 185.34175105647228 662.2950935788384 185.82990642116135 Z M 659.0628605318049 190.82990642116135 L 664.0628605318049 185.82990642116135 C 664.5510158964939 185.34175105647228 664.5510158964939 184.550294832884 664.0628605318049 184.0621394681949 C 663.5747051671158 183.57398410350584 662.7832489435275 183.57398410350584 662.2950935788384 184.0621394681949 L 657.2950935788384 189.0621394681949 C 656.8069382141493 189.550294832884 656.8069382141493 190.34175105647228 657.2950935788384 190.82990642116135 C 657.7832489435275 191.31806178585043 658.5747051671158 191.31806178585043 659.0628605318049 190.82990642116135 Z"
                fill-opacity="0.6980392156862745" />
            <path fill="rgb(97,97,97)" stroke="none" paint-order="stroke fill markers"
                d=" M 642.5539770553218 184.9460229446782 C 642.5539770553218 186.60287719417056 641.2108313048142 187.9460229446782 639.5539770553218 187.9460229446782 C 637.8971228058293 187.9460229446782 636.5539770553218 186.60287719417056 636.5539770553218 184.9460229446782 C 636.5539770553218 183.28916869518582 637.8971228058293 181.9460229446782 639.5539770553218 181.9460229446782 C 641.2108313048142 181.9460229446782 642.5539770553218 183.28916869518582 642.5539770553218 184.9460229446782 Z"
                fill-opacity="1" />
            <path fill="none" stroke="rgb(0,0,0)" paint-order="fill stroke markers"
                d=" M 642.5539770553218 184.9460229446782 C 642.5539770553218 186.60287719417056 641.2108313048142 187.9460229446782 639.5539770553218 187.9460229446782 C 637.8971228058293 187.9460229446782 636.5539770553218 186.60287719417056 636.5539770553218 184.9460229446782 C 636.5539770553218 183.28916869518582 637.8971228058293 181.9460229446782 639.5539770553218 181.9460229446782 C 641.2108313048142 181.9460229446782 642.5539770553218 183.28916869518582 642.5539770553218 184.9460229446782 Z"
                stroke-opacity="1" stroke-linecap="round" stroke-linejoin="round" stroke-miterlimit="10" />
            <path fill="rgb(97,97,97)" stroke="none" paint-order="stroke fill markers"
                d=" M 475.4999999999999 352 C 475.4999999999999 353.65685424949237 474.15685424949226 355 472.4999999999999 355 C 470.8431457505075 355 469.4999999999999 353.65685424949237 469.4999999999999 352 C 469.4999999999999 350.34314575050763 470.8431457505075 349 472.4999999999999 349 C 474.15685424949226 349 475.4999999999999 350.34314575050763 475.4999999999999 352 Z"
                fill-opacity="1" />
            <path fill="none" stroke="rgb(0,0,0)" paint-order="fill stroke markers"
                d=" M 475.4999999999999 352 C 475.4999999999999 353.65685424949237 474.15685424949226 355 472.4999999999999 355 C 470.8431457505075 355 469.4999999999999 353.65685424949237 469.4999999999999 352 C 469.4999999999999 350.34314575050763 470.8431457505075 349 472.4999999999999 349 C 474.15685424949226 349 475.4999999999999 350.34314575050763 475.4999999999999 352 Z"
                stroke-opacity="1" stroke-linecap="round" stroke-linejoin="round" stroke-miterlimit="10" />
            <path fill="rgb(97,97,97)" stroke="none" paint-order="stroke fill markers"
                d=" M 642.5539770553218 352 C 642.5539770553218 353.65685424949237 641.2108313048142 355 639.5539770553218 355 C 637.8971228058293 355 636.5539770553218 353.65685424949237 636.5539770553218 352 C 636.5539770553218 350.34314575050763 637.8971228058293 349 639.5539770553218 349 C 641.2108313048142 349 642.5539770553218 350.34314575050763 642.5539770553218 352 Z"
                fill-opacity="1" />
            <path fill="none" stroke="rgb(0,0,0)" paint-order="fill stroke markers"
                d=" M 642.5539770553218 352 C 642.5539770553218 353.65685424949237 641.2108313048142 355 639.5539770553218 355 C 637.8971228058293 355 636.5539770553218 353.65685424949237 636.5539770553218 352 C 636.5539770553218 350.34314575050763 637.8971228058293 349 639.5539770553218 349 C 641.2108313048142 349 642.5539770553218 350.34314575050763 642.5539770553218 352 Z"
                stroke-opacity="1" stroke-linecap="round" stroke-linejoin="round" stroke-miterlimit="10" />
        </g>
    </g>
</svg>