<svg version="1.1" xmlns="http://www.w3.org/2000/svg" xmlns:xlink="http://www.w3.org/1999/xlink" width="906" height="704"><defs><clipPath id="TSakwCxNbfqt"><path fill="none" stroke="none" d=" M 0 0 L 906 0 L 906 704 L 0 704 L 0 0 Z"/></clipPath></defs><g transform="scale(1,1)" clip-path="url(#TSakwCxNbfqt)"><g><rect fill="rgb(255,255,255)" stroke="none" x="0" y="0" width="906" height="704" fill-opacity="1"/><path fill="none" stroke="rgb(37,37,37)" paint-order="fill stroke markers" d=" M 453.5 2.5 L 453.5 704.5" stroke-opacity="1" stroke-miterlimit="10"/><path fill="none" stroke="rgb(37,37,37)" paint-order="fill stroke markers" d=" M 453.5 1.5 L 449.5 5.5" stroke-opacity="1" stroke-miterlimit="10"/><path fill="none" stroke="rgb(37,37,37)" paint-order="fill stroke markers" d=" M 453.5 1.5 L 457.5 5.5" stroke-opacity="1" stroke-miterlimit="10"/><path fill="none" stroke="rgb(37,37,37)" paint-order="fill stroke markers" d=" M 0.5 616.5 L 904.5 616.5" stroke-opacity="1" stroke-miterlimit="10"/><path fill="none" stroke="rgb(37,37,37)" paint-order="fill stroke markers" d=" M 905.5 616.5 L 901.5 612.5" stroke-opacity="1" stroke-miterlimit="10"/><path fill="none" stroke="rgb(37,37,37)" paint-order="fill stroke markers" d=" M 905.5 616.5 L 901.5 620.5" stroke-opacity="1" stroke-miterlimit="10"/><text fill="rgb(37,37,37)" stroke="none" font-family="geogebra-sans-serif, sans-serif" font-size="12px" font-style="normal" font-weight="normal" text-decoration="normal" x="80" y="632" text-anchor="start" dominant-baseline="alphabetic" fill-opacity="1">–π / 2</text><text fill="none" stroke="rgb(255,255,255)" font-family="geogebra-sans-serif, sans-serif" font-size="12px" font-style="normal" font-weight="normal" text-decoration="normal" x="80" y="632" text-anchor="start" dominant-baseline="alphabetic" stroke-opacity="1" stroke-linejoin="bevel" stroke-miterlimit="10" stroke-width="3">–π / 2</text><text fill="rgb(37,37,37)" stroke="none" font-family="geogebra-sans-serif, sans-serif" font-size="12px" font-style="normal" font-weight="normal" text-decoration="normal" x="80" y="632" text-anchor="start" dominant-baseline="alphabetic" fill-opacity="1">–π / 2</text><path fill="none" stroke="rgb(37,37,37)" paint-order="fill stroke markers" d=" M 97.5 616.5 L 97.5 619.5" stroke-opacity="1" stroke-miterlimit="10"/><text fill="rgb(37,37,37)" stroke="none" font-family="geogebra-sans-serif, sans-serif" font-size="12px" font-style="normal" font-weight="normal" text-decoration="normal" x="258" y="632" text-anchor="start" dominant-baseline="alphabetic" fill-opacity="1">–π / 4</text><text fill="none" stroke="rgb(255,255,255)" font-family="geogebra-sans-serif, sans-serif" font-size="12px" font-style="normal" font-weight="normal" text-decoration="normal" x="258" y="632" text-anchor="start" dominant-baseline="alphabetic" stroke-opacity="1" stroke-linejoin="bevel" stroke-miterlimit="10" stroke-width="3">–π / 4</text><text fill="rgb(37,37,37)" stroke="none" font-family="geogebra-sans-serif, sans-serif" font-size="12px" font-style="normal" font-weight="normal" text-decoration="normal" x="258" y="632" text-anchor="start" dominant-baseline="alphabetic" fill-opacity="1">–π / 4</text><path fill="none" stroke="rgb(37,37,37)" paint-order="fill stroke markers" d=" M 275.5 616.5 L 275.5 619.5" stroke-opacity="1" stroke-miterlimit="10"/><text fill="rgb(37,37,37)" stroke="none" font-family="geogebra-sans-serif, sans-serif" font-size="12px" font-style="normal" font-weight="normal" text-decoration="normal" x="616" y="632" text-anchor="start" dominant-baseline="alphabetic" fill-opacity="1">π / 4</text><text fill="none" stroke="rgb(255,255,255)" font-family="geogebra-sans-serif, sans-serif" font-size="12px" font-style="normal" font-weight="normal" text-decoration="normal" x="616" y="632" text-anchor="start" dominant-baseline="alphabetic" stroke-opacity="1" stroke-linejoin="bevel" stroke-miterlimit="10" stroke-width="3">π / 4</text><text fill="rgb(37,37,37)" stroke="none" font-family="geogebra-sans-serif, sans-serif" font-size="12px" font-style="normal" font-weight="normal" text-decoration="normal" x="616" y="632" text-anchor="start" dominant-baseline="alphabetic" fill-opacity="1">π / 4</text><path fill="none" stroke="rgb(37,37,37)" paint-order="fill stroke markers" d=" M 630.5 616.5 L 630.5 619.5" stroke-opacity="1" stroke-miterlimit="10"/><text fill="rgb(37,37,37)" stroke="none" font-family="geogebra-sans-serif, sans-serif" font-size="12px" font-style="normal" font-weight="normal" text-decoration="normal" x="794" y="632" text-anchor="start" dominant-baseline="alphabetic" fill-opacity="1">π / 2</text><text fill="none" stroke="rgb(255,255,255)" font-family="geogebra-sans-serif, sans-serif" font-size="12px" font-style="normal" font-weight="normal" text-decoration="normal" x="794" y="632" text-anchor="start" dominant-baseline="alphabetic" stroke-opacity="1" stroke-linejoin="bevel" stroke-miterlimit="10" stroke-width="3">π / 2</text><text fill="rgb(37,37,37)" stroke="none" font-family="geogebra-sans-serif, sans-serif" font-size="12px" font-style="normal" font-weight="normal" text-decoration="normal" x="794" y="632" text-anchor="start" dominant-baseline="alphabetic" fill-opacity="1">π / 2</text><path fill="none" stroke="rgb(37,37,37)" paint-order="fill stroke markers" d=" M 808.5 616.5 L 808.5 619.5" stroke-opacity="1" stroke-miterlimit="10"/><path fill="none" stroke="rgb(37,37,37)" paint-order="fill stroke markers" d=" M 450.5 389.5 L 453.5 389.5" stroke-opacity="1" stroke-miterlimit="10"/><path fill="none" stroke="rgb(37,37,37)" paint-order="fill stroke markers" d=" M 450.5 163.5 L 453.5 163.5" stroke-opacity="1" stroke-miterlimit="10"/><text fill="rgb(37,37,37)" stroke="none" font-family="geogebra-sans-serif, sans-serif" font-size="12px" font-style="normal" font-weight="normal" text-decoration="normal" x="439" y="394" text-anchor="start" dominant-baseline="alphabetic" fill-opacity="1">1</text><text fill="none" stroke="rgb(255,255,255)" font-family="geogebra-sans-serif, sans-serif" font-size="12px" font-style="normal" font-weight="normal" text-decoration="normal" x="439" y="394" text-anchor="start" dominant-baseline="alphabetic" stroke-opacity="1" stroke-linejoin="bevel" stroke-miterlimit="10" stroke-width="3">1</text><text fill="rgb(37,37,37)" stroke="none" font-family="geogebra-sans-serif, sans-serif" font-size="12px" font-style="normal" font-weight="normal" text-decoration="normal" x="439" y="394" text-anchor="start" dominant-baseline="alphabetic" fill-opacity="1">1</text><text fill="rgb(37,37,37)" stroke="none" font-family="geogebra-sans-serif, sans-serif" font-size="12px" font-style="normal" font-weight="normal" text-decoration="normal" x="439" y="168" text-anchor="start" dominant-baseline="alphabetic" fill-opacity="1">2</text><text fill="none" stroke="rgb(255,255,255)" font-family="geogebra-sans-serif, sans-serif" font-size="12px" font-style="normal" font-weight="normal" text-decoration="normal" x="439" y="168" text-anchor="start" dominant-baseline="alphabetic" stroke-opacity="1" stroke-linejoin="bevel" stroke-miterlimit="10" stroke-width="3">2</text><text fill="rgb(37,37,37)" stroke="none" font-family="geogebra-sans-serif, sans-serif" font-size="12px" font-style="normal" font-weight="normal" text-decoration="normal" x="439" y="168" text-anchor="start" dominant-baseline="alphabetic" fill-opacity="1">2</text><text fill="rgb(37,37,37)" stroke="none" font-family="geogebra-sans-serif, sans-serif" font-size="12px" font-style="normal" font-weight="normal" text-decoration="normal" x="439" y="632" text-anchor="start" dominant-baseline="alphabetic" fill-opacity="1">0</text><text fill="none" stroke="rgb(255,255,255)" font-family="geogebra-sans-serif, sans-serif" font-size="12px" font-style="normal" font-weight="normal" text-decoration="normal" x="439" y="632" text-anchor="start" dominant-baseline="alphabetic" stroke-opacity="1" stroke-linejoin="bevel" stroke-miterlimit="10" stroke-width="3">0</text><text fill="rgb(37,37,37)" stroke="none" font-family="geogebra-sans-serif, sans-serif" font-size="12px" font-style="normal" font-weight="normal" text-decoration="normal" x="439" y="632" text-anchor="start" dominant-baseline="alphabetic" fill-opacity="1">0</text><path fill="none" stroke="rgb(0,0,255)" paint-order="fill stroke markers" d=" M 97.214629715956 616 L 99.09375 614.1209035371961 M 99.09375 614.1209035371961 L 102.6328125 610.5823362069655 L 106.171875 607.0450915216497 L 109.7109375 603.5100330488076 L 113.25 599.9780238222653 M 113.25 599.9780238222653 L 116.7890625 596.4499261314194 L 120.328125 592.9266013107211 L 123.8671875 589.4089095293938 L 127.40625 585.897709581435 L 130.9453125 582.3938586759547 L 134.484375 578.8982122278987 L 138.0234375 575.4116236492131 L 141.5625 571.9349441404944 L 145.1015625 568.4690224831822 L 148.640625 565.0147048323408 L 152.1796875 561.5728345100829 L 155.71875 558.1442517996842 L 159.2578125 554.7297937404406 L 162.796875 551.3302939233172 L 166.3359375 547.9465822874387 L 169.875 544.5794849174716 L 173.4140625 541.229823841948 L 176.953125 537.8984168325785 L 180.4921875 534.5860772046054 L 184.03125 531.2936136182433 L 187.5703125 528.021829881256 L 191.109375 524.7715247527192 L 194.6484375 521.543491748014 L 198.1875 518.3385189451021 L 201.7265625 515.1573887921274 L 205.265625 512.0008779163932 L 208.8046875 508.8697569347587 L 212.34375 505.7647902655053 L 215.8828125 502.6867359417137 L 219.421875 499.6363454262016 L 222.9609375 496.6143634280647 L 226.5 493.6215277208663 M 226.5 493.6215277208663 L 230.0390625 490.6585689625213 L 233.578125 487.72621051691556 L 237.1171875 484.82516827730774 L 240.65625 481.95615049155384 L 244.1953125 479.1198575891988 L 247.734375 476.3169820104764 L 251.2734375 473.54820803726057 L 254.8125 470.8142116260069 L 258.3515625 468.11566024272815 L 261.890625 465.45321270004206 L 265.4296875 462.82751899633126 L 268.96875 460.2392201570557 L 272.5078125 457.6889480782555 L 276.046875 455.17732537228295 L 279.5859375 452.7049652157998 L 283.125 450.27247120007956 L 286.6640625 447.88043718364946 L 290.203125 445.5294471473079 L 293.7421875 443.2200750515545 L 297.28125 440.9528846964652 L 300.8203125 438.7284295840492 L 304.359375 436.54725278311906 L 307.8984375 434.40988679670824 L 311.4375 432.3168534320681 L 314.9765625 430.2686636732765 L 318.515625 428.2658175564877 L 322.0546875 426.30880404785637 L 325.59375 424.39810092416315 L 329.1328125 422.53417465617224 L 332.671875 420.7174802947496 L 336.2109375 418.94846135976843 L 339.75 417.22754973183055 L 343.2890625 415.55516554682856 L 346.828125 413.93171709337577 L 350.3671875 412.35760071312865 L 353.90625 410.83320070402544 L 357.4453125 409.3588892264653 L 360.984375 407.935026212451 L 364.5234375 406.56195927771637 L 368.0625 405.2400236368608 L 371.6015625 403.969542021512 L 375.140625 402.75082460153493 L 378.6796875 401.5841689093089 L 382.21875 400.469859767089 L 385.7578125 399.4081692174708 L 389.296875 398.3993564569752 L 392.8359375 397.44366777276934 L 396.375 396.541336482539 L 399.9140625 395.69258287752723 L 403.453125 394.8976141687541 L 406.9921875 394.1566244364283 L 410.53125 393.46979458256567 L 414.0703125 392.83729228682455 L 417.609375 392.25927196556916 L 421.1484375 391.73587473417075 L 424.6875 391.267228372557 L 428.2265625 390.8534472940156 L 431.765625 390.49463251726263 L 435.3046875 390.1908716417795 L 438.84375 389.94223882642757 L 442.3828125 389.74879477134266 L 445.921875 389.6105867031166 L 449.4609375 389.52764836326696 L 453 389.5 M 453 389.5 L 456.5390625 389.52764836326696 L 460.078125 389.6105867031166 L 463.6171875 389.74879477134266 L 467.15625 389.94223882642757 L 470.6953125 390.1908716417795 L 474.234375 390.49463251726263 L 477.7734375 390.8534472940156 L 481.3125 391.267228372557 L 484.8515625 391.73587473417075 L 488.390625 392.25927196556916 L 491.9296875 392.83729228682455 L 495.46875 393.46979458256567 L 499.0078125 394.1566244364283 L 502.546875 394.8976141687541 L 506.0859375 395.69258287752723 L 509.625 396.541336482539 L 513.1640625 397.44366777276934 L 516.703125 398.3993564569752 L 520.2421875 399.4081692174708 L 523.78125 400.469859767089 L 527.3203125 401.5841689093089 L 530.859375 402.75082460153493 L 534.3984375 403.969542021512 L 537.9375 405.2400236368608 L 541.4765625 406.56195927771637 L 545.015625 407.935026212451 L 548.5546875 409.3588892264653 L 552.09375 410.83320070402544 L 555.6328125 412.35760071312865 L 559.171875 413.93171709337577 L 562.7109375 415.55516554682856 L 566.25 417.22754973183055 L 569.7890625 418.94846135976843 L 573.328125 420.7174802947496 L 576.8671875 422.53417465617224 L 580.40625 424.39810092416315 L 583.9453125 426.30880404785637 L 587.484375 428.2658175564877 L 591.0234375 430.2686636732765 L 594.5625 432.3168534320681 L 598.1015625 434.40988679670824 L 601.640625 436.54725278311906 L 605.1796875 438.7284295840492 L 608.71875 440.9528846964652 L 612.2578125 443.2200750515545 L 615.796875 445.5294471473079 L 619.3359375 447.88043718364946 L 622.875 450.27247120007956 L 626.4140625 452.7049652157998 L 629.953125 455.17732537228295 L 633.4921875 457.6889480782555 L 637.03125 460.2392201570557 L 640.5703125 462.82751899633126 L 644.109375 465.45321270004206 L 647.6484375 468.11566024272815 L 651.1875 470.8142116260069 L 654.7265625 473.54820803726057 L 658.265625 476.3169820104764 L 661.8046875 479.1198575891988 L 665.34375 481.95615049155384 L 668.8828125 484.82516827730774 L 672.421875 487.72621051691556 L 675.9609375 490.6585689625213 L 679.5 493.6215277208663 M 679.5 493.6215277208663 L 683.0390625 496.6143634280647 L 686.578125 499.6363454262016 L 690.1171875 502.6867359417137 L 693.65625 505.7647902655053 L 697.1953125 508.8697569347587 L 700.734375 512.0008779163932 L 704.2734375 515.1573887921274 L 707.8125 518.3385189451021 L 711.3515625 521.543491748014 L 714.890625 524.7715247527192 L 718.4296875 528.021829881256 L 721.96875 531.2936136182433 L 725.5078125 534.5860772046054 L 729.046875 537.8984168325785 L 732.5859375 541.229823841948 L 736.125 544.5794849174716 L 739.6640625 547.9465822874387 L 743.203125 551.3302939233172 L 746.7421875 554.7297937404406 L 750.28125 558.1442517996842 L 753.8203125 561.5728345100829 L 757.359375 565.0147048323408 L 760.8984375 568.4690224831822 L 764.4375 571.9349441404944 L 767.9765625 575.4116236492131 L 771.515625 578.8982122278987 L 775.0546875 582.3938586759547 L 778.59375 585.897709581435 L 782.1328125 589.4089095293938 L 785.671875 592.9266013107211 L 789.2109375 596.4499261314194 L 792.75 599.9780238222653 M 792.75 599.9780238222653 L 796.2890625 603.5100330488076 L 799.828125 607.0450915216497 L 803.3671875 610.5823362069655 L 806.90625 614.1209035371961 M 806.90625 614.1209035371961 L 808.785370284044 616" stroke-opacity="0.8" stroke-linecap="round" stroke-linejoin="round" stroke-miterlimit="10" stroke-width="2.5"/><path fill="none" stroke="rgb(204,0,0)" paint-order="fill stroke markers" d=" M 181.376953125 -7.819495011706863 L 182.26171875 -1.6329028238627643 L 183.146484375 4.422945745823199 L 184.03125 10.35204131138596 L 184.916015625 16.15821337233274 L 185.80078125 21.845138359063185 L 186.685546875 27.416347200924633 L 187.5703125 32.87523244962415 L 188.455078125 38.225054988177135 L 189.33984375 43.46895035325815 L 190.224609375 48.60993469669597 L 191.109375 53.65091040991433 L 192.87890625 63.4439082711998 L 194.6484375 72.86908240204423 L 196.41796875 81.9460618693596 L 198.1875 90.69309859061264 L 199.95703125 99.12718591583155 L 201.7265625 107.26416516280221 L 203.49609375 115.11882150945769 L 205.265625 122.70497046352813 L 207.03515625 130.0355359722385 L 208.8046875 137.1226211000248 L 210.57421875 143.9775720863487 L 212.34375 150.61103649584157 L 214.11328125 157.03301608675594 L 215.8828125 163.25291494902962 L 217.65234375 169.2795833984656 L 219.421875 175.12135805717685 L 221.19140625 180.78609850132602 L 222.9609375 186.28122081429757 L 224.73046875 191.61372834589838 L 226.5 196.79023994527046 M 226.5 196.79023994527046 L 230.0390625 206.69998183872679 L 233.578125 216.0566428516928 L 237.1171875 224.90172812682096 L 240.65625 233.27262990334054 L 244.1953125 241.20312226127749 L 247.734375 248.7237860521617 L 251.2734375 255.86237524187186 L 254.8125 262.6441338745406 L 258.3515625 269.092071248353 L 261.890625 275.2272015889486 L 265.4296875 281.0687534481392 L 268.96875 286.6343531938609 L 272.5078125 291.94018625206604 L 276.046875 297.0011391816618 L 279.5859375 301.830925185217 L 283.125 306.4421952617408 L 286.6640625 310.8466368780577 L 290.203125 315.0550617599535 L 293.7421875 319.07748417353645 L 297.28125 322.92319087326297 L 300.8203125 326.6008037294182 L 304.359375 330.11833590935385 L 307.8984375 333.48324236922156 L 311.4375 336.70246531285983 L 314.9765625 339.78247518903737 L 318.515625 342.72930772510523 L 322.0546875 345.5485974323087 L 325.59375 348.2456079639673 L 329.1328125 350.8252596611027 L 332.671875 353.2921545797698 L 336.2109375 355.65059925938715 L 339.75 357.9046254609896 L 343.2890625 360.0580090778773 L 346.828125 362.11428739805353 L 350.3671875 364.0767748776598 L 353.90625 365.9485775669233 L 357.4453125 367.7326063146072 L 360.984375 369.4315888632764 L 364.5234375 371.0480809356541 L 368.0625 372.5844764016946 L 371.6015625 374.04301660658126 L 375.140625 375.42579893151014 L 378.6796875 376.734784651695 L 382.21875 377.9718061494294 L 385.7578125 379.1385735341494 L 389.296875 380.23668071617476 L 392.8359375 381.2676109760955 L 396.375 382.2327420675366 L 399.9140625 383.13335088722783 L 403.453125 383.97061774287727 L 406.9921875 384.74563024624206 L 410.53125 385.45938685598014 L 414.0703125 386.11280009231075 L 417.609375 386.7066994431822 L 421.1484375 387.24183397951236 L 424.6875 387.71887469510796 L 428.2265625 388.13841658506374 L 431.765625 388.5009804747675 L 435.3046875 388.8070146100789 L 438.84375 389.0568960177884 L 442.3828125 389.2509316440893 L 445.921875 389.3893592774894 L 449.4609375 389.4723482613453 L 453 389.5 M 453 389.5 L 456.5390625 389.4723482613453 L 460.078125 389.3893592774894 L 463.6171875 389.2509316440893 L 467.15625 389.0568960177884 L 470.6953125 388.8070146100789 L 474.234375 388.5009804747675 L 477.7734375 388.13841658506374 L 481.3125 387.71887469510796 L 484.8515625 387.24183397951236 L 488.390625 386.7066994431822 L 491.9296875 386.11280009231075 L 495.46875 385.45938685598014 L 499.0078125 384.74563024624206 L 502.546875 383.97061774287727 L 506.0859375 383.13335088722783 L 509.625 382.2327420675366 L 513.1640625 381.2676109760955 L 516.703125 380.23668071617476 L 520.2421875 379.1385735341494 L 523.78125 377.9718061494294 L 527.3203125 376.734784651695 L 530.859375 375.42579893151014 L 534.3984375 374.04301660658126 L 537.9375 372.5844764016946 L 541.4765625 371.0480809356541 L 545.015625 369.4315888632764 L 548.5546875 367.7326063146072 L 552.09375 365.9485775669233 L 555.6328125 364.0767748776598 L 559.171875 362.11428739805353 L 562.7109375 360.0580090778773 L 566.25 357.9046254609896 L 569.7890625 355.65059925938715 L 573.328125 353.2921545797698 L 576.8671875 350.8252596611027 L 580.40625 348.2456079639673 L 583.9453125 345.5485974323087 L 587.484375 342.72930772510523 L 591.0234375 339.78247518903737 L 594.5625 336.70246531285983 L 598.1015625 333.48324236922156 L 601.640625 330.11833590935385 L 605.1796875 326.6008037294182 L 608.71875 322.92319087326297 L 612.2578125 319.07748417353645 L 615.796875 315.0550617599535 L 619.3359375 310.8466368780577 L 622.875 306.4421952617408 L 626.4140625 301.830925185217 L 629.953125 297.0011391816618 L 633.4921875 291.94018625206604 L 637.03125 286.6343531938609 L 640.5703125 281.0687534481392 L 644.109375 275.2272015889486 L 647.6484375 269.092071248353 L 651.1875 262.6441338745406 L 654.7265625 255.86237524187186 L 658.265625 248.7237860521617 L 661.8046875 241.20312226127749 L 665.34375 233.27262990334054 L 668.8828125 224.90172812682096 L 672.421875 216.0566428516928 L 675.9609375 206.69998183872679 L 679.5 196.79023994527046 M 679.5 196.79023994527046 L 681.26953125 191.61372834589838 L 683.0390625 186.28122081429757 L 684.80859375 180.78609850132602 L 686.578125 175.12135805717685 L 688.34765625 169.2795833984656 L 690.1171875 163.25291494902962 L 691.88671875 157.03301608675594 L 693.65625 150.61103649584157 L 695.42578125 143.9775720863487 L 697.1953125 137.1226211000248 L 698.96484375 130.0355359722385 L 700.734375 122.70497046352813 L 702.50390625 115.11882150945769 L 704.2734375 107.26416516280221 L 706.04296875 99.12718591583155 L 707.8125 90.69309859061264 L 709.58203125 81.9460618693596 L 711.3515625 72.86908240204423 L 713.12109375 63.4439082711998 L 714.890625 53.65091040991433 L 715.775390625 48.60993469669597 L 716.66015625 43.46895035325815 L 717.544921875 38.225054988177135 L 718.4296875 32.87523244962415 L 719.314453125 27.416347200924633 L 720.19921875 21.845138359063185 L 721.083984375 16.15821337233274 L 721.96875 10.35204131138596 L 722.853515625 4.422945745823199 L 723.73828125 -1.6329028238627643 L 724.623046875 -7.819495011706863 M 724.6806656430385 -9.999999999999998" stroke-opacity="0.8" stroke-linecap="round" stroke-linejoin="round" stroke-miterlimit="10" stroke-width="2.5"/><path fill="none" stroke="rgb(0,100,0)" paint-order="fill stroke markers" d=" M 97.214629715956 260.214629715956 L 99.09375 262.08157013728106 M 99.09375 262.08157013728106 L 102.6328125 265.5325433069782 L 106.171875 268.90049383577116 L 109.7109375 272.1878094975904 L 113.25 275.39678438217516 M 113.25 275.39678438217516 L 116.7890625 278.5296233084721 L 120.328125 281.58844598968443 L 123.8671875 284.575290966058 L 127.40625 287.49211932030596 L 130.9453125 290.34081818949505 L 134.484375 293.1232040862161 L 138.0234375 295.8410260409475 L 141.5625 298.4959685766764 L 145.1015625 301.08965452606543 L 148.640625 303.6236477007378 L 152.1796875 306.099455421592 L 155.71875 308.51853091844794 L 159.2578125 310.8822756067649 L 162.796875 313.19204124864734 L 166.3359375 315.4491320048772 L 169.875 317.6548063842618 L 173.4140625 319.81027909617694 L 176.953125 321.9167228117989 L 180.4921875 323.97526983916515 L 184.03125 325.98701371687645 L 187.5703125 327.9530107309425 L 191.109375 329.8742813589922 L 194.6484375 331.751811645806 L 198.1875 333.5865545138772 L 201.7265625 335.37943101248675 L 205.265625 337.13133150855685 L 208.8046875 338.8431168223541 L 212.34375 340.51561931092436 L 215.8828125 342.1496439019728 L 219.421875 343.7459690807362 L 222.9609375 345.30534783224846 L 226.5 346.82850854125553 M 226.5 346.82850854125553 L 230.0390625 348.3161558519087 L 233.578125 349.7689714892366 L 237.1171875 351.18761504428596 L 240.65625 352.5727247247105 L 244.1953125 353.9249180724865 L 247.734375 355.2447926503394 L 251.2734375 356.53292669837674 L 254.8125 357.789879762339 L 258.3515625 359.016193294801 L 261.890625 360.2123912305857 L 265.4296875 361.37898053757897 L 268.96875 362.51645174407236 L 272.5078125 363.6252794436981 L 276.046875 364.70592277896446 L 279.5859375 365.7588259043423 L 283.125 366.78441842980766 L 286.6640625 367.7831158456925 L 290.203125 368.75531992965284 L 293.7421875 369.7014191365203 L 297.28125 370.62178897176307 L 300.8203125 371.5167923492428 L 304.359375 372.3867799339207 L 307.8984375 373.2320904701288 L 311.4375 374.0530510959927 L 314.9765625 374.84997764456136 L 318.515625 375.6231749321689 L 322.0546875 376.37293703452843 L 325.59375 377.09954755103104 L 329.1328125 377.8032798576982 L 332.671875 378.48439734921357 L 336.2109375 379.1431536704366 L 339.75 379.7797929377825 M 339.75 379.7797929377825 L 343.2890625 380.39454995082764 L 346.828125 380.9876503944884 L 350.3671875 381.5593110320948 L 353.90625 382.1097398896703 L 357.4453125 382.63913643170815 L 360.984375 383.14769172872184 L 364.5234375 383.63558861683026 L 368.0625 384.10300184962597 L 371.6015625 384.5500982425587 L 375.140625 384.97703681005703 L 378.6796875 385.38396889559465 L 382.21875 385.77103829489783 L 385.7578125 386.13838137248 L 389.296875 386.4861271716758 L 392.8359375 386.81439751833915 L 396.375 387.1233071183568 M 396.375 387.1233071183568 L 399.9140625 387.41296364912216 L 403.453125 387.68346784510123 L 406.9921875 387.93491357761707 L 410.53125 388.1673879289663 L 414.0703125 388.3809712609761 L 417.609375 388.5757372780986 L 421.1484375 388.7517530851351 L 424.6875 388.90907923967006 M 424.6875 388.90907923967006 L 428.2265625 389.04776979929136 L 431.765625 389.1678723636627 L 435.3046875 389.26942811150775 L 438.84375 389.3524718325593 M 438.84375 389.3524718325593 L 442.3828125 389.4170319545168 L 445.921875 389.4631305650518 M 445.921875 389.4631305650518 L 449.4609375 389.4907834288907 M 449.4609375 389.4907834288907 L 453 389.5 M 453 389.5 L 456.5390625 389.4907834288907 M 456.5390625 389.4907834288907 L 460.078125 389.4631305650518 M 460.078125 389.4631305650518 L 463.6171875 389.4170319545168 L 467.15625 389.3524718325593 M 467.15625 389.3524718325593 L 470.6953125 389.26942811150775 L 474.234375 389.1678723636627 L 477.7734375 389.04776979929136 L 481.3125 388.90907923967006 M 481.3125 388.90907923967006 L 484.8515625 388.7517530851351 L 488.390625 388.5757372780986 L 491.9296875 388.3809712609761 L 495.46875 388.1673879289663 L 499.0078125 387.93491357761707 L 502.546875 387.68346784510123 L 506.0859375 387.41296364912216 L 509.625 387.1233071183568 M 509.625 387.1233071183568 L 513.1640625 386.81439751833915 L 516.703125 386.4861271716758 L 520.2421875 386.13838137248 L 523.78125 385.77103829489783 L 527.3203125 385.38396889559465 L 530.859375 384.97703681005703 L 534.3984375 384.5500982425587 L 537.9375 384.10300184962597 L 541.4765625 383.63558861683026 L 545.015625 383.14769172872184 L 548.5546875 382.63913643170815 L 552.09375 382.1097398896703 L 555.6328125 381.5593110320948 L 559.171875 380.9876503944884 L 562.7109375 380.39454995082764 L 566.25 379.7797929377825 M 566.25 379.7797929377825 L 569.7890625 379.1431536704366 L 573.328125 378.48439734921357 L 576.8671875 377.8032798576982 L 580.40625 377.09954755103104 L 583.9453125 376.37293703452843 L 587.484375 375.6231749321689 L 591.0234375 374.84997764456136 L 594.5625 374.0530510959927 L 598.1015625 373.2320904701288 L 601.640625 372.3867799339207 L 605.1796875 371.5167923492428 L 608.71875 370.62178897176307 L 612.2578125 369.7014191365203 L 615.796875 368.75531992965284 L 619.3359375 367.7831158456925 L 622.875 366.78441842980766 L 626.4140625 365.7588259043423 L 629.953125 364.70592277896446 L 633.4921875 363.6252794436981 L 637.03125 362.51645174407236 L 640.5703125 361.37898053757897 L 644.109375 360.2123912305857 L 647.6484375 359.016193294801 L 651.1875 357.789879762339 L 654.7265625 356.53292669837674 L 658.265625 355.2447926503394 L 661.8046875 353.9249180724865 L 665.34375 352.5727247247105 L 668.8828125 351.18761504428596 L 672.421875 349.7689714892366 L 675.9609375 348.3161558519087 L 679.5 346.82850854125553 M 679.5 346.82850854125553 L 683.0390625 345.30534783224846 L 686.578125 343.7459690807362 L 690.1171875 342.1496439019728 L 693.65625 340.51561931092436 L 697.1953125 338.8431168223541 L 700.734375 337.13133150855685 L 704.2734375 335.37943101248675 L 707.8125 333.5865545138772 L 711.3515625 331.751811645806 L 714.890625 329.8742813589922 L 718.4296875 327.9530107309425 L 721.96875 325.98701371687645 L 725.5078125 323.97526983916515 L 729.046875 321.9167228117989 L 732.5859375 319.81027909617694 L 736.125 317.6548063842618 L 739.6640625 315.4491320048772 L 743.203125 313.19204124864734 L 746.7421875 310.8822756067649 L 750.28125 308.51853091844794 L 753.8203125 306.099455421592 L 757.359375 303.6236477007378 L 760.8984375 301.08965452606543 L 764.4375 298.4959685766764 L 767.9765625 295.8410260409475 L 771.515625 293.1232040862161 L 775.0546875 290.34081818949505 L 778.59375 287.49211932030596 L 782.1328125 284.575290966058 L 785.671875 281.58844598968443 L 789.2109375 278.5296233084721 L 792.75 275.39678438217516 M 792.75 275.39678438217516 L 796.2890625 272.1878094975904 L 799.828125 268.90049383577116 L 803.3671875 265.5325433069782 L 806.90625 262.08157013728106 M 806.90625 262.08157013728106 L 808.785370284044 260.214629715956" stroke-opacity="0.8" stroke-linecap="round" stroke-linejoin="round" stroke-miterlimit="10" stroke-width="2.5"/><path fill="none" stroke="rgb(0,0,0)" paint-order="fill stroke markers" d=" M 808.7853680190441 709 L 808.7853680190441 -5" stroke-opacity="0.6980392156862745" stroke-linejoin="round" stroke-miterlimit="10" stroke-dasharray="5,4"/><path fill="none" stroke="rgb(0,0,0)" paint-order="fill stroke markers" d=" M 97.21463198095591 709 L 97.21463198095591 -5" stroke-opacity="0.6980392156862745" stroke-linejoin="round" stroke-miterlimit="10" stroke-dasharray="5,4"/><path fill="rgb(0,0,0)" stroke="none" paint-order="stroke fill markers" d=" M 457 389.5 C 457 391.70913899932316 455.20913899932316 393.5 453 393.5 C 450.79086100067684 393.5 449 391.70913899932316 449 389.5 C 449 387.29086100067684 450.79086100067684 385.5 453 385.5 C 455.20913899932316 385.5 457 387.29086100067684 457 389.5 Z" fill-opacity="1"/><path fill="none" stroke="rgb(0,0,0)" paint-order="fill stroke markers" d=" M 457 389.5 C 457 391.70913899932316 455.20913899932316 393.5 453 393.5 C 450.79086100067684 393.5 449 391.70913899932316 449 389.5 C 449 387.29086100067684 450.79086100067684 385.5 453 385.5 C 455.20913899932316 385.5 457 387.29086100067684 457 389.5 Z" stroke-opacity="1" stroke-linecap="round" stroke-linejoin="round" stroke-miterlimit="10"/><g transform="scale(25,25)"><g transform="translate(7.72,21.75)"><path fill="rgb(0,0,204)" stroke="none" paint-order="stroke fill markers" d=" M 0.367 -0.4 L 0.367 -0.4 L 0.307 -0.083 Q 0.298 -0.021 0.271 0.059000000000000004 Q 0.261 0.088 0.251 0.108 Q 0.216 0.182 0.164 0.2 Q 0.151 0.20500000000000002 0.138 0.20500000000000002 Q 0.088 0.20500000000000002 0.064 0.171 Q 0.053 0.156 0.053 0.136 Q 0.053 0.096 0.08700000000000001 0.081 Q 0.097 0.076 0.108 0.076 Q 0.137 0.076 0.14400000000000002 0.101 Q 0.145 0.106 0.145 0.111 Q 0.145 0.145 0.115 0.159 Q 0.10400000000000001 0.164 0.09 0.165 Q 0.109 0.183 0.138 0.183 Q 0.182 0.183 0.20700000000000002 0.085 Q 0.212 0.062 0.219 0.025 L 0.225 -0.005 L 0.3 -0.4 L 0.234 -0.4 Q 0.209 -0.4 0.20700000000000002 -0.40800000000000003 L 0.20600000000000002 -0.40800000000000003 L 0.20600000000000002 -0.41200000000000003 Q 0.20600000000000002 -0.429 0.223 -0.431 L 0.223 -0.431 L 0.23600000000000002 -0.431 L 0.305 -0.431 Q 0.329 -0.556 0.338 -0.588 Q 0.368 -0.6880000000000001 0.444 -0.7030000000000001 Q 0.455 -0.705 0.465 -0.705 Q 0.517 -0.705 0.541 -0.671 L 0.541 -0.671 Q 0.552 -0.656 0.552 -0.636 Q 0.552 -0.596 0.518 -0.581 Q 0.508 -0.5760000000000001 0.497 -0.5760000000000001 Q 0.468 -0.5760000000000001 0.461 -0.601 Q 0.46 -0.606 0.46 -0.611 Q 0.46 -0.642 0.488 -0.657 Q 0.499 -0.664 0.514 -0.665 Q 0.495 -0.683 0.465 -0.683 Q 0.434 -0.683 0.418 -0.649 Q 0.41100000000000003 -0.635 0.394 -0.545 L 0.373 -0.431 L 0.456 -0.431 Q 0.481 -0.431 0.483 -0.42 Q 0.483 -0.402 0.467 -0.4 L 0.466 -0.4 L 0.453 -0.4 L 0.367 -0.4 Z"/></g><g transform="translate(8.318,21.75)"><path fill="rgb(0,0,204)" stroke="none" paint-order="stroke fill markers" d=" M 0.331 0.24 L 0.331 0.24 Q 0.331 0.25 0.321 0.25 Q 0.309 0.25 0.268 0.209 Q 0.20600000000000002 0.147 0.165 0.062 Q 0.099 -0.074 0.099 -0.25 Q 0.099 -0.419 0.162 -0.555 Q 0.214 -0.666 0.294 -0.733 Q 0.315 -0.75 0.321 -0.75 Q 0.331 -0.75 0.331 -0.74 Q 0.331 -0.735 0.318 -0.723 Q 0.157 -0.559 0.157 -0.25 Q 0.157 0.058 0.314 0.218 Q 0.331 0.23500000000000001 0.331 0.24 Z"/></g><g transform="translate(8.706999999999999,21.75)"><path fill="rgb(0,0,204)" stroke="none" paint-order="stroke fill markers" d=" M 0.334 -0.302 L 0.3 -0.165 Q 0.28300000000000003 -0.097 0.28300000000000003 -0.077 Q 0.28300000000000003 -0.025 0.32 -0.014 Q 0.328 -0.011 0.338 -0.011 Q 0.388 -0.011 0.429 -0.061 Q 0.456 -0.093 0.47100000000000003 -0.14200000000000002 Q 0.47400000000000003 -0.153 0.484 -0.153 Q 0.496 -0.153 0.496 -0.14300000000000002 Q 0.496 -0.11800000000000001 0.465 -0.07100000000000001 Q 0.41100000000000003 0.011 0.336 0.011 Q 0.268 0.011 0.23700000000000002 -0.046 Q 0.231 -0.055 0.228 -0.065 Q 0.20400000000000001 -0.017 0.162 0.002 Q 0.14300000000000002 0.011 0.123 0.011 Q 0.063 0.011 0.039 -0.024 Q 0.029 -0.037 0.029 -0.055 Q 0.029 -0.092 0.061 -0.107 Q 0.07200000000000001 -0.113 0.084 -0.113 Q 0.114 -0.113 0.12 -0.088 Q 0.121 -0.083 0.121 -0.078 Q 0.121 -0.044 0.08700000000000001 -0.028 Q 0.081 -0.025 0.074 -0.024 Q 0.095 -0.011 0.124 -0.011 Q 0.177 -0.011 0.20800000000000002 -0.082 Q 0.214 -0.097 0.219 -0.115 Q 0.273 -0.319 0.273 -0.353 Q 0.267 -0.41500000000000004 0.219 -0.42 Q 0.167 -0.42 0.124 -0.367 L 0.124 -0.366 Q 0.124 -0.365 0.123 -0.365 Q 0.108 -0.34500000000000003 0.096 -0.319 Q 0.091 -0.307 0.08700000000000001 -0.295 L 0.085 -0.289 Q 0.083 -0.278 0.07200000000000001 -0.278 Q 0.06 -0.278 0.06 -0.28800000000000003 Q 0.06 -0.313 0.092 -0.36 Q 0.146 -0.442 0.221 -0.442 Q 0.298 -0.442 0.329 -0.366 Q 0.361 -0.428 0.41400000000000003 -0.44 Q 0.424 -0.442 0.434 -0.442 Q 0.493 -0.442 0.517 -0.40900000000000003 Q 0.527 -0.395 0.527 -0.376 Q 0.527 -0.335 0.49 -0.321 Q 0.481 -0.318 0.47300000000000003 -0.318 Q 0.442 -0.318 0.436 -0.34500000000000003 Q 0.435 -0.34900000000000003 0.435 -0.353 Q 0.435 -0.383 0.464 -0.4 Q 0.47300000000000003 -0.405 0.483 -0.40700000000000003 Q 0.462 -0.42 0.433 -0.42 Q 0.365 -0.42 0.337 -0.314 Q 0.335 -0.308 0.334 -0.302 Z"/></g><g transform="translate(9.278999999999998,21.75)"><path fill="rgb(0,0,204)" stroke="none" paint-order="stroke fill markers" d=" M 0.289 -0.25 L 0.289 -0.25 Q 0.289 -0.081 0.226 0.055 Q 0.17400000000000002 0.166 0.094 0.233 Q 0.073 0.25 0.067 0.25 Q 0.057 0.25 0.057 0.24 Q 0.057 0.23500000000000001 0.07 0.223 Q 0.231 0.059000000000000004 0.231 -0.25 Q 0.231 -0.555 0.081 -0.712 L 0.076 -0.717 Q 0.057 -0.735 0.057 -0.74 Q 0.057 -0.75 0.067 -0.75 Q 0.079 -0.75 0.12 -0.709 Q 0.182 -0.647 0.223 -0.562 Q 0.289 -0.426 0.289 -0.25 Z"/></g><g transform="translate(9.945777777777776,21.75)"><path fill="rgb(0,0,204)" stroke="none" paint-order="stroke fill markers" d=" M 0.687 -0.327 L 0.09 -0.327 Q 0.058 -0.327 0.056 -0.34700000000000003 Q 0.056 -0.367 0.089 -0.367 L 0.6880000000000001 -0.367 Q 0.72 -0.367 0.721 -0.34700000000000003 Q 0.721 -0.327 0.687 -0.327 M 0.6880000000000001 -0.133 L 0.089 -0.133 Q 0.057 -0.133 0.056 -0.153 Q 0.056 -0.17300000000000001 0.09 -0.17300000000000001 L 0.687 -0.17300000000000001 Q 0.719 -0.17300000000000001 0.721 -0.153 Q 0.721 -0.133 0.6880000000000001 -0.133 Z"/></g><g transform="translate(11.001555555555555,21.75)"><path fill="rgb(0,0,204)" stroke="none" paint-order="stroke fill markers" d=" M 0.359 -0.386 Q 0.323 -0.423 0.252 -0.423 Q 0.189 -0.423 0.151 -0.363 Q 0.117 -0.309 0.117 -0.218 Q 0.117 -0.074 0.203 -0.029 Q 0.23 -0.014 0.258 -0.014 Q 0.356 -0.014 0.389 -0.11900000000000001 Q 0.392 -0.129 0.402 -0.129 Q 0.41500000000000004 -0.129 0.41500000000000004 -0.11900000000000001 Q 0.41500000000000004 -0.1 0.393 -0.065 Q 0.34400000000000003 0.011 0.249 0.011 Q 0.155 0.011 0.09 -0.063 Q 0.034 -0.128 0.034 -0.216 Q 0.034 -0.319 0.105 -0.388 Q 0.166 -0.448 0.251 -0.448 Q 0.334 -0.448 0.378 -0.403 Q 0.404 -0.376 0.404 -0.341 Q 0.404 -0.303 0.371 -0.295 Q 0.365 -0.294 0.358 -0.294 Q 0.323 -0.294 0.314 -0.326 Q 0.312 -0.332 0.312 -0.34 Q 0.312 -0.376 0.34700000000000003 -0.384 Q 0.353 -0.386 0.359 -0.386 Z"/></g><g transform="translate(11.445555555555556,21.75)"><path fill="rgb(0,0,204)" stroke="none" paint-order="stroke fill markers" d=" M 0.47100000000000003 -0.214 L 0.47100000000000003 -0.214 Q 0.47100000000000003 -0.111 0.395 -0.044 Q 0.332 0.011 0.249 0.011 Q 0.153 0.011 0.08700000000000001 -0.061 Q 0.028 -0.126 0.028 -0.214 Q 0.028 -0.316 0.101 -0.386 Q 0.164 -0.448 0.25 -0.448 Q 0.34700000000000003 -0.448 0.41300000000000003 -0.371 Q 0.47100000000000003 -0.304 0.47100000000000003 -0.214 M 0.25 -0.014 L 0.25 -0.014 Q 0.317 -0.014 0.356 -0.07 L 0.366 -0.088 Q 0.388 -0.132 0.388 -0.222 Q 0.388 -0.318 0.362 -0.361 Q 0.319 -0.423 0.249 -0.426 Q 0.187 -0.426 0.147 -0.376 Q 0.14 -0.368 0.135 -0.359 Q 0.111 -0.315 0.111 -0.222 Q 0.111 -0.125 0.136 -0.081 Q 0.178 -0.016 0.25 -0.014 Z"/></g><g transform="translate(11.945555555555556,21.75)"><path fill="rgb(0,0,204)" stroke="none" paint-order="stroke fill markers" d=" M 0.20800000000000002 -0.194 L 0.20800000000000002 -0.194 Q 0.122 -0.211 0.095 -0.227 Q 0.085 -0.232 0.076 -0.24 Q 0.033 -0.275 0.033 -0.325 Q 0.033 -0.395 0.095 -0.427 Q 0.134 -0.448 0.193 -0.448 Q 0.249 -0.448 0.28700000000000003 -0.42 Q 0.298 -0.429 0.304 -0.436 Q 0.317 -0.448 0.324 -0.448 Q 0.334 -0.439 0.335 -0.424 L 0.335 -0.323 Q 0.335 -0.302 0.329 -0.3 L 0.328 -0.3 L 0.327 -0.299 L 0.322 -0.299 Q 0.311 -0.299 0.31 -0.308 Q 0.303 -0.40900000000000003 0.227 -0.426 Q 0.211 -0.429 0.193 -0.429 Q 0.099 -0.429 0.083 -0.371 Q 0.081 -0.362 0.081 -0.353 Q 0.081 -0.302 0.158 -0.281 Q 0.17300000000000001 -0.277 0.20400000000000001 -0.271 Q 0.276 -0.257 0.307 -0.232 Q 0.313 -0.228 0.318 -0.223 Q 0.36 -0.181 0.36 -0.128 Q 0.36 -0.043000000000000003 0.29 -0.008 Q 0.252 0.011 0.199 0.011 Q 0.134 0.011 0.089 -0.032 L 0.069 -0.009000000000000001 Q 0.049 0.011 0.044 0.011 Q 0.034 0.002 0.033 -0.013000000000000001 L 0.033 -0.145 Q 0.033 -0.167 0.04 -0.169 L 0.04 -0.169 L 0.041 -0.17 L 0.046 -0.17 Q 0.056 -0.17 0.059000000000000004 -0.159 Q 0.059000000000000004 -0.157 0.06 -0.153 Q 0.08600000000000001 -0.037 0.159 -0.016 Q 0.177 -0.011 0.199 -0.011 Q 0.289 -0.011 0.308 -0.074 Q 0.312 -0.08700000000000001 0.312 -0.10200000000000001 Q 0.312 -0.17500000000000002 0.20800000000000002 -0.194 Z"/></g><g transform="translate(12.339555555555556,21.75)"><path fill="rgb(0,0,204)" stroke="none" paint-order="stroke fill markers" d=" M 0.331 0.24 L 0.331 0.24 Q 0.331 0.25 0.321 0.25 Q 0.309 0.25 0.268 0.209 Q 0.20600000000000002 0.147 0.165 0.062 Q 0.099 -0.074 0.099 -0.25 Q 0.099 -0.419 0.162 -0.555 Q 0.214 -0.666 0.294 -0.733 Q 0.315 -0.75 0.321 -0.75 Q 0.331 -0.75 0.331 -0.74 Q 0.331 -0.735 0.318 -0.723 Q 0.157 -0.559 0.157 -0.25 Q 0.157 0.058 0.314 0.218 Q 0.331 0.23500000000000001 0.331 0.24 Z"/></g><g transform="translate(12.728555555555555,21.75)"><path fill="rgb(0,0,204)" stroke="none" paint-order="stroke fill markers" d=" M 0.334 -0.302 L 0.3 -0.165 Q 0.28300000000000003 -0.097 0.28300000000000003 -0.077 Q 0.28300000000000003 -0.025 0.32 -0.014 Q 0.328 -0.011 0.338 -0.011 Q 0.388 -0.011 0.429 -0.061 Q 0.456 -0.093 0.47100000000000003 -0.14200000000000002 Q 0.47400000000000003 -0.153 0.484 -0.153 Q 0.496 -0.153 0.496 -0.14300000000000002 Q 0.496 -0.11800000000000001 0.465 -0.07100000000000001 Q 0.41100000000000003 0.011 0.336 0.011 Q 0.268 0.011 0.23700000000000002 -0.046 Q 0.231 -0.055 0.228 -0.065 Q 0.20400000000000001 -0.017 0.162 0.002 Q 0.14300000000000002 0.011 0.123 0.011 Q 0.063 0.011 0.039 -0.024 Q 0.029 -0.037 0.029 -0.055 Q 0.029 -0.092 0.061 -0.107 Q 0.07200000000000001 -0.113 0.084 -0.113 Q 0.114 -0.113 0.12 -0.088 Q 0.121 -0.083 0.121 -0.078 Q 0.121 -0.044 0.08700000000000001 -0.028 Q 0.081 -0.025 0.074 -0.024 Q 0.095 -0.011 0.124 -0.011 Q 0.177 -0.011 0.20800000000000002 -0.082 Q 0.214 -0.097 0.219 -0.115 Q 0.273 -0.319 0.273 -0.353 Q 0.267 -0.41500000000000004 0.219 -0.42 Q 0.167 -0.42 0.124 -0.367 L 0.124 -0.366 Q 0.124 -0.365 0.123 -0.365 Q 0.108 -0.34500000000000003 0.096 -0.319 Q 0.091 -0.307 0.08700000000000001 -0.295 L 0.085 -0.289 Q 0.083 -0.278 0.07200000000000001 -0.278 Q 0.06 -0.278 0.06 -0.28800000000000003 Q 0.06 -0.313 0.092 -0.36 Q 0.146 -0.442 0.221 -0.442 Q 0.298 -0.442 0.329 -0.366 Q 0.361 -0.428 0.41400000000000003 -0.44 Q 0.424 -0.442 0.434 -0.442 Q 0.493 -0.442 0.517 -0.40900000000000003 Q 0.527 -0.395 0.527 -0.376 Q 0.527 -0.335 0.49 -0.321 Q 0.481 -0.318 0.47300000000000003 -0.318 Q 0.442 -0.318 0.436 -0.34500000000000003 Q 0.435 -0.34900000000000003 0.435 -0.353 Q 0.435 -0.383 0.464 -0.4 Q 0.47300000000000003 -0.405 0.483 -0.40700000000000003 Q 0.462 -0.42 0.433 -0.42 Q 0.365 -0.42 0.337 -0.314 Q 0.335 -0.308 0.334 -0.302 Z"/></g><g transform="translate(13.300555555555555,21.75)"><path fill="rgb(0,0,204)" stroke="none" paint-order="stroke fill markers" d=" M 0.289 -0.25 L 0.289 -0.25 Q 0.289 -0.081 0.226 0.055 Q 0.17400000000000002 0.166 0.094 0.233 Q 0.073 0.25 0.067 0.25 Q 0.057 0.25 0.057 0.24 Q 0.057 0.23500000000000001 0.07 0.223 Q 0.231 0.059000000000000004 0.231 -0.25 Q 0.231 -0.555 0.081 -0.712 L 0.076 -0.717 Q 0.057 -0.735 0.057 -0.74 Q 0.057 -0.75 0.067 -0.75 Q 0.079 -0.75 0.12 -0.709 Q 0.182 -0.647 0.223 -0.562 Q 0.289 -0.426 0.289 -0.25 Z"/></g></g><g transform="scale(25,25)"><g transform="translate(8.72,5.400508)"><path fill="rgb(204,0,0)" stroke="none" paint-order="stroke fill markers" d=" M 0.47100000000000003 -0.377 L 0.47100000000000003 -0.377 L 0.36 0.067 Q 0.34500000000000003 0.127 0.28200000000000003 0.168 Q 0.224 0.20500000000000002 0.148 0.20500000000000002 Q 0.025 0.20500000000000002 0.016 0.155 Q 0.015 0.15 0.015 0.14400000000000002 Q 0.015 0.10300000000000001 0.052000000000000005 0.089 Q 0.061 0.08600000000000001 0.069 0.08600000000000001 Q 0.1 0.08600000000000001 0.106 0.113 Q 0.107 0.117 0.107 0.121 Q 0.107 0.153 0.077 0.169 Q 0.07200000000000001 0.171 0.066 0.17300000000000001 Q 0.097 0.183 0.146 0.183 Q 0.244 0.183 0.29 0.075 L 0.323 -0.057 L 0.322 -0.058 Q 0.277 -0.008 0.221 -0.001 Q 0.213 0 0.20600000000000002 0 Q 0.136 0 0.098 -0.061 Q 0.073 -0.10200000000000001 0.073 -0.158 Q 0.073 -0.265 0.149 -0.354 Q 0.219 -0.436 0.3 -0.442 L 0.311 -0.442 Q 0.365 -0.442 0.398 -0.391 L 0.404 -0.379 Q 0.41300000000000003 -0.417 0.445 -0.422 Q 0.47100000000000003 -0.422 0.47400000000000003 -0.395 L 0.47100000000000003 -0.377 M 0.341 -0.128 L 0.341 -0.128 L 0.389 -0.319 Q 0.392 -0.331 0.392 -0.334 Q 0.392 -0.354 0.375 -0.382 L 0.375 -0.382 Q 0.363 -0.402 0.34500000000000003 -0.41200000000000003 Q 0.33 -0.42 0.312 -0.42 Q 0.26 -0.42 0.213 -0.353 Q 0.20600000000000002 -0.342 0.2 -0.331 Q 0.168 -0.271 0.149 -0.164 Q 0.14400000000000002 -0.133 0.14400000000000002 -0.114 Q 0.14400000000000002 -0.048 0.182 -0.028 Q 0.193 -0.022 0.209 -0.022 Q 0.248 -0.022 0.29 -0.058 Q 0.334 -0.096 0.341 -0.128 Z"/></g><g transform="translate(9.233,5.400508)"><path fill="rgb(204,0,0)" stroke="none" paint-order="stroke fill markers" d=" M 0.331 0.24 L 0.331 0.24 Q 0.331 0.25 0.321 0.25 Q 0.309 0.25 0.268 0.209 Q 0.20600000000000002 0.147 0.165 0.062 Q 0.099 -0.074 0.099 -0.25 Q 0.099 -0.419 0.162 -0.555 Q 0.214 -0.666 0.294 -0.733 Q 0.315 -0.75 0.321 -0.75 Q 0.331 -0.75 0.331 -0.74 Q 0.331 -0.735 0.318 -0.723 Q 0.157 -0.559 0.157 -0.25 Q 0.157 0.058 0.314 0.218 Q 0.331 0.23500000000000001 0.331 0.24 Z"/></g><g transform="translate(9.622,5.400508)"><path fill="rgb(204,0,0)" stroke="none" paint-order="stroke fill markers" d=" M 0.334 -0.302 L 0.3 -0.165 Q 0.28300000000000003 -0.097 0.28300000000000003 -0.077 Q 0.28300000000000003 -0.025 0.32 -0.014 Q 0.328 -0.011 0.338 -0.011 Q 0.388 -0.011 0.429 -0.061 Q 0.456 -0.093 0.47100000000000003 -0.14200000000000002 Q 0.47400000000000003 -0.153 0.484 -0.153 Q 0.496 -0.153 0.496 -0.14300000000000002 Q 0.496 -0.11800000000000001 0.465 -0.07100000000000001 Q 0.41100000000000003 0.011 0.336 0.011 Q 0.268 0.011 0.23700000000000002 -0.046 Q 0.231 -0.055 0.228 -0.065 Q 0.20400000000000001 -0.017 0.162 0.002 Q 0.14300000000000002 0.011 0.123 0.011 Q 0.063 0.011 0.039 -0.024 Q 0.029 -0.037 0.029 -0.055 Q 0.029 -0.092 0.061 -0.107 Q 0.07200000000000001 -0.113 0.084 -0.113 Q 0.114 -0.113 0.12 -0.088 Q 0.121 -0.083 0.121 -0.078 Q 0.121 -0.044 0.08700000000000001 -0.028 Q 0.081 -0.025 0.074 -0.024 Q 0.095 -0.011 0.124 -0.011 Q 0.177 -0.011 0.20800000000000002 -0.082 Q 0.214 -0.097 0.219 -0.115 Q 0.273 -0.319 0.273 -0.353 Q 0.267 -0.41500000000000004 0.219 -0.42 Q 0.167 -0.42 0.124 -0.367 L 0.124 -0.366 Q 0.124 -0.365 0.123 -0.365 Q 0.108 -0.34500000000000003 0.096 -0.319 Q 0.091 -0.307 0.08700000000000001 -0.295 L 0.085 -0.289 Q 0.083 -0.278 0.07200000000000001 -0.278 Q 0.06 -0.278 0.06 -0.28800000000000003 Q 0.06 -0.313 0.092 -0.36 Q 0.146 -0.442 0.221 -0.442 Q 0.298 -0.442 0.329 -0.366 Q 0.361 -0.428 0.41400000000000003 -0.44 Q 0.424 -0.442 0.434 -0.442 Q 0.493 -0.442 0.517 -0.40900000000000003 Q 0.527 -0.395 0.527 -0.376 Q 0.527 -0.335 0.49 -0.321 Q 0.481 -0.318 0.47300000000000003 -0.318 Q 0.442 -0.318 0.436 -0.34500000000000003 Q 0.435 -0.34900000000000003 0.435 -0.353 Q 0.435 -0.383 0.464 -0.4 Q 0.47300000000000003 -0.405 0.483 -0.40700000000000003 Q 0.462 -0.42 0.433 -0.42 Q 0.365 -0.42 0.337 -0.314 Q 0.335 -0.308 0.334 -0.302 Z"/></g><g transform="translate(10.193999999999999,5.400508)"><path fill="rgb(204,0,0)" stroke="none" paint-order="stroke fill markers" d=" M 0.289 -0.25 L 0.289 -0.25 Q 0.289 -0.081 0.226 0.055 Q 0.17400000000000002 0.166 0.094 0.233 Q 0.073 0.25 0.067 0.25 Q 0.057 0.25 0.057 0.24 Q 0.057 0.23500000000000001 0.07 0.223 Q 0.231 0.059000000000000004 0.231 -0.25 Q 0.231 -0.555 0.081 -0.712 L 0.076 -0.717 Q 0.057 -0.735 0.057 -0.74 Q 0.057 -0.75 0.067 -0.75 Q 0.079 -0.75 0.12 -0.709 Q 0.182 -0.647 0.223 -0.562 Q 0.289 -0.426 0.289 -0.25 Z"/></g><g transform="translate(10.860777777777777,5.400508)"><path fill="rgb(204,0,0)" stroke="none" paint-order="stroke fill markers" d=" M 0.687 -0.327 L 0.09 -0.327 Q 0.058 -0.327 0.056 -0.34700000000000003 Q 0.056 -0.367 0.089 -0.367 L 0.6880000000000001 -0.367 Q 0.72 -0.367 0.721 -0.34700000000000003 Q 0.721 -0.327 0.687 -0.327 M 0.6880000000000001 -0.133 L 0.089 -0.133 Q 0.057 -0.133 0.056 -0.153 Q 0.056 -0.17300000000000001 0.09 -0.17300000000000001 L 0.687 -0.17300000000000001 Q 0.719 -0.17300000000000001 0.721 -0.153 Q 0.721 -0.133 0.6880000000000001 -0.133 Z"/></g><g transform="translate(13.058376228030756,4.724)"><path fill="rgb(204,0,0)" stroke="none" paint-order="stroke fill markers" d=" M 0.294 -0.64 L 0.294 -0.079 Q 0.294 -0.049 0.306 -0.041 Q 0.323 -0.031 0.387 -0.031 L 0.419 -0.031 L 0.419 0 Q 0.384 -0.003 0.257 -0.003 Q 0.13 -0.003 0.095 0 L 0.095 -0.031 L 0.127 -0.031 Q 0.20400000000000001 -0.031 0.215 -0.049 L 0.216 -0.05 Q 0.22 -0.058 0.22 -0.079 L 0.22 -0.597 Q 0.168 -0.5710000000000001 0.089 -0.5710000000000001 L 0.089 -0.602 Q 0.209 -0.602 0.271 -0.666 Q 0.29 -0.666 0.293 -0.659 L 0.293 -0.659 L 0.293 -0.658 Q 0.294 -0.655 0.294 -0.64 Z"/></g><rect fill="rgb(204,0,0)" stroke="none" x="11.964376228030757" y="5.1305085" width="2.6879999999999997" height="0.039999"/><g transform="translate(11.964376228030757,6.0864590000000005)"><path fill="rgb(204,0,0)" stroke="none" paint-order="stroke fill markers" d=" M 0.359 -0.386 Q 0.323 -0.423 0.252 -0.423 Q 0.189 -0.423 0.151 -0.363 Q 0.117 -0.309 0.117 -0.218 Q 0.117 -0.074 0.203 -0.029 Q 0.23 -0.014 0.258 -0.014 Q 0.356 -0.014 0.389 -0.11900000000000001 Q 0.392 -0.129 0.402 -0.129 Q 0.41500000000000004 -0.129 0.41500000000000004 -0.11900000000000001 Q 0.41500000000000004 -0.1 0.393 -0.065 Q 0.34400000000000003 0.011 0.249 0.011 Q 0.155 0.011 0.09 -0.063 Q 0.034 -0.128 0.034 -0.216 Q 0.034 -0.319 0.105 -0.388 Q 0.166 -0.448 0.251 -0.448 Q 0.334 -0.448 0.378 -0.403 Q 0.404 -0.376 0.404 -0.341 Q 0.404 -0.303 0.371 -0.295 Q 0.365 -0.294 0.358 -0.294 Q 0.323 -0.294 0.314 -0.326 Q 0.312 -0.332 0.312 -0.34 Q 0.312 -0.376 0.34700000000000003 -0.384 Q 0.353 -0.386 0.359 -0.386 Z"/></g><g transform="translate(12.408376228030757,6.0864590000000005)"><path fill="rgb(204,0,0)" stroke="none" paint-order="stroke fill markers" d=" M 0.47100000000000003 -0.214 L 0.47100000000000003 -0.214 Q 0.47100000000000003 -0.111 0.395 -0.044 Q 0.332 0.011 0.249 0.011 Q 0.153 0.011 0.08700000000000001 -0.061 Q 0.028 -0.126 0.028 -0.214 Q 0.028 -0.316 0.101 -0.386 Q 0.164 -0.448 0.25 -0.448 Q 0.34700000000000003 -0.448 0.41300000000000003 -0.371 Q 0.47100000000000003 -0.304 0.47100000000000003 -0.214 M 0.25 -0.014 L 0.25 -0.014 Q 0.317 -0.014 0.356 -0.07 L 0.366 -0.088 Q 0.388 -0.132 0.388 -0.222 Q 0.388 -0.318 0.362 -0.361 Q 0.319 -0.423 0.249 -0.426 Q 0.187 -0.426 0.147 -0.376 Q 0.14 -0.368 0.135 -0.359 Q 0.111 -0.315 0.111 -0.222 Q 0.111 -0.125 0.136 -0.081 Q 0.178 -0.016 0.25 -0.014 Z"/></g><g transform="translate(12.908376228030757,6.0864590000000005)"><path fill="rgb(204,0,0)" stroke="none" paint-order="stroke fill markers" d=" M 0.20800000000000002 -0.194 L 0.20800000000000002 -0.194 Q 0.122 -0.211 0.095 -0.227 Q 0.085 -0.232 0.076 -0.24 Q 0.033 -0.275 0.033 -0.325 Q 0.033 -0.395 0.095 -0.427 Q 0.134 -0.448 0.193 -0.448 Q 0.249 -0.448 0.28700000000000003 -0.42 Q 0.298 -0.429 0.304 -0.436 Q 0.317 -0.448 0.324 -0.448 Q 0.334 -0.439 0.335 -0.424 L 0.335 -0.323 Q 0.335 -0.302 0.329 -0.3 L 0.328 -0.3 L 0.327 -0.299 L 0.322 -0.299 Q 0.311 -0.299 0.31 -0.308 Q 0.303 -0.40900000000000003 0.227 -0.426 Q 0.211 -0.429 0.193 -0.429 Q 0.099 -0.429 0.083 -0.371 Q 0.081 -0.362 0.081 -0.353 Q 0.081 -0.302 0.158 -0.281 Q 0.17300000000000001 -0.277 0.20400000000000001 -0.271 Q 0.276 -0.257 0.307 -0.232 Q 0.313 -0.228 0.318 -0.223 Q 0.36 -0.181 0.36 -0.128 Q 0.36 -0.043000000000000003 0.29 -0.008 Q 0.252 0.011 0.199 0.011 Q 0.134 0.011 0.089 -0.032 L 0.069 -0.009000000000000001 Q 0.049 0.011 0.044 0.011 Q 0.034 0.002 0.033 -0.013000000000000001 L 0.033 -0.145 Q 0.033 -0.167 0.04 -0.169 L 0.04 -0.169 L 0.041 -0.17 L 0.046 -0.17 Q 0.056 -0.17 0.059000000000000004 -0.159 Q 0.059000000000000004 -0.157 0.06 -0.153 Q 0.08600000000000001 -0.037 0.159 -0.016 Q 0.177 -0.011 0.199 -0.011 Q 0.289 -0.011 0.308 -0.074 Q 0.312 -0.08700000000000001 0.312 -0.10200000000000001 Q 0.312 -0.17500000000000002 0.20800000000000002 -0.194 Z"/></g><g transform="translate(13.302376228030756,6.0864590000000005)"><path fill="rgb(204,0,0)" stroke="none" paint-order="stroke fill markers" d=" M 0.331 0.24 L 0.331 0.24 Q 0.331 0.25 0.321 0.25 Q 0.309 0.25 0.268 0.209 Q 0.20600000000000002 0.147 0.165 0.062 Q 0.099 -0.074 0.099 -0.25 Q 0.099 -0.419 0.162 -0.555 Q 0.214 -0.666 0.294 -0.733 Q 0.315 -0.75 0.321 -0.75 Q 0.331 -0.75 0.331 -0.74 Q 0.331 -0.735 0.318 -0.723 Q 0.157 -0.559 0.157 -0.25 Q 0.157 0.058 0.314 0.218 Q 0.331 0.23500000000000001 0.331 0.24 Z"/></g><g transform="translate(13.691376228030755,6.0864590000000005)"><path fill="rgb(204,0,0)" stroke="none" paint-order="stroke fill markers" d=" M 0.334 -0.302 L 0.3 -0.165 Q 0.28300000000000003 -0.097 0.28300000000000003 -0.077 Q 0.28300000000000003 -0.025 0.32 -0.014 Q 0.328 -0.011 0.338 -0.011 Q 0.388 -0.011 0.429 -0.061 Q 0.456 -0.093 0.47100000000000003 -0.14200000000000002 Q 0.47400000000000003 -0.153 0.484 -0.153 Q 0.496 -0.153 0.496 -0.14300000000000002 Q 0.496 -0.11800000000000001 0.465 -0.07100000000000001 Q 0.41100000000000003 0.011 0.336 0.011 Q 0.268 0.011 0.23700000000000002 -0.046 Q 0.231 -0.055 0.228 -0.065 Q 0.20400000000000001 -0.017 0.162 0.002 Q 0.14300000000000002 0.011 0.123 0.011 Q 0.063 0.011 0.039 -0.024 Q 0.029 -0.037 0.029 -0.055 Q 0.029 -0.092 0.061 -0.107 Q 0.07200000000000001 -0.113 0.084 -0.113 Q 0.114 -0.113 0.12 -0.088 Q 0.121 -0.083 0.121 -0.078 Q 0.121 -0.044 0.08700000000000001 -0.028 Q 0.081 -0.025 0.074 -0.024 Q 0.095 -0.011 0.124 -0.011 Q 0.177 -0.011 0.20800000000000002 -0.082 Q 0.214 -0.097 0.219 -0.115 Q 0.273 -0.319 0.273 -0.353 Q 0.267 -0.41500000000000004 0.219 -0.42 Q 0.167 -0.42 0.124 -0.367 L 0.124 -0.366 Q 0.124 -0.365 0.123 -0.365 Q 0.108 -0.34500000000000003 0.096 -0.319 Q 0.091 -0.307 0.08700000000000001 -0.295 L 0.085 -0.289 Q 0.083 -0.278 0.07200000000000001 -0.278 Q 0.06 -0.278 0.06 -0.28800000000000003 Q 0.06 -0.313 0.092 -0.36 Q 0.146 -0.442 0.221 -0.442 Q 0.298 -0.442 0.329 -0.366 Q 0.361 -0.428 0.41400000000000003 -0.44 Q 0.424 -0.442 0.434 -0.442 Q 0.493 -0.442 0.517 -0.40900000000000003 Q 0.527 -0.395 0.527 -0.376 Q 0.527 -0.335 0.49 -0.321 Q 0.481 -0.318 0.47300000000000003 -0.318 Q 0.442 -0.318 0.436 -0.34500000000000003 Q 0.435 -0.34900000000000003 0.435 -0.353 Q 0.435 -0.383 0.464 -0.4 Q 0.47300000000000003 -0.405 0.483 -0.40700000000000003 Q 0.462 -0.42 0.433 -0.42 Q 0.365 -0.42 0.337 -0.314 Q 0.335 -0.308 0.334 -0.302 Z"/></g><g transform="translate(14.263376228030754,6.0864590000000005)"><path fill="rgb(204,0,0)" stroke="none" paint-order="stroke fill markers" d=" M 0.289 -0.25 L 0.289 -0.25 Q 0.289 -0.081 0.226 0.055 Q 0.17400000000000002 0.166 0.094 0.233 Q 0.073 0.25 0.067 0.25 Q 0.057 0.25 0.057 0.24 Q 0.057 0.23500000000000001 0.07 0.223 Q 0.231 0.059000000000000004 0.231 -0.25 Q 0.231 -0.555 0.081 -0.712 L 0.076 -0.717 Q 0.057 -0.735 0.057 -0.74 Q 0.057 -0.75 0.067 -0.75 Q 0.079 -0.75 0.12 -0.709 Q 0.182 -0.647 0.223 -0.562 Q 0.289 -0.426 0.289 -0.25 Z"/></g></g><g transform="scale(25,25)"><g transform="translate(24.64,15.827508)"><path fill="rgb(0,100,0)" stroke="none" paint-order="stroke fill markers" d=" M 0.28700000000000003 -0.683 L 0.209 -0.365 Q 0.271 -0.442 0.357 -0.442 Q 0.446 -0.442 0.467 -0.373 L 0.467 -0.372 Q 0.47200000000000003 -0.355 0.47200000000000003 -0.335 Q 0.47200000000000003 -0.279 0.41100000000000003 -0.115 Q 0.393 -0.07100000000000001 0.393 -0.044 Q 0.393 -0.011 0.417 -0.011 Q 0.47900000000000004 -0.011 0.515 -0.121 L 0.519 -0.135 Q 0.524 -0.151 0.529 -0.152 L 0.529 -0.153 L 0.534 -0.153 Q 0.546 -0.153 0.546 -0.14300000000000002 Q 0.546 -0.126 0.525 -0.08 Q 0.482 0.011 0.41500000000000004 0.011 Q 0.364 0.011 0.342 -0.032 Q 0.333 -0.05 0.333 -0.07100000000000001 Q 0.333 -0.089 0.34600000000000003 -0.126 Q 0.40800000000000003 -0.28400000000000003 0.40800000000000003 -0.35000000000000003 Q 0.40800000000000003 -0.42 0.354 -0.42 Q 0.306 -0.42 0.258 -0.385 Q 0.221 -0.356 0.193 -0.299 L 0.19 -0.293 Q 0.186 -0.269 0.179 -0.248 Q 0.17400000000000002 -0.225 0.162 -0.181 L 0.14 -0.091 L 0.121 -0.015 Q 0.114 0.006 0.09 0.01 Q 0.08700000000000001 0.011 0.084 0.011 Q 0.06 0.011 0.056 -0.01 Q 0.055 -0.014 0.055 -0.017 Q 0.055 -0.025 0.059000000000000004 -0.039 L 0.20400000000000001 -0.615 L 0.20700000000000002 -0.635 Q 0.20700000000000002 -0.646 0.193 -0.649 L 0.193 -0.649 Q 0.181 -0.652 0.157 -0.652 Q 0.135 -0.652 0.133 -0.664 Q 0.133 -0.681 0.152 -0.684 L 0.274 -0.6940000000000001 Q 0.28700000000000003 -0.6940000000000001 0.28700000000000003 -0.683 Z"/></g><g transform="translate(25.216,15.827508)"><path fill="rgb(0,100,0)" stroke="none" paint-order="stroke fill markers" d=" M 0.331 0.24 L 0.331 0.24 Q 0.331 0.25 0.321 0.25 Q 0.309 0.25 0.268 0.209 Q 0.20600000000000002 0.147 0.165 0.062 Q 0.099 -0.074 0.099 -0.25 Q 0.099 -0.419 0.162 -0.555 Q 0.214 -0.666 0.294 -0.733 Q 0.315 -0.75 0.321 -0.75 Q 0.331 -0.75 0.331 -0.74 Q 0.331 -0.735 0.318 -0.723 Q 0.157 -0.559 0.157 -0.25 Q 0.157 0.058 0.314 0.218 Q 0.331 0.23500000000000001 0.331 0.24 Z"/></g><g transform="translate(25.605,15.827508)"><path fill="rgb(0,100,0)" stroke="none" paint-order="stroke fill markers" d=" M 0.334 -0.302 L 0.3 -0.165 Q 0.28300000000000003 -0.097 0.28300000000000003 -0.077 Q 0.28300000000000003 -0.025 0.32 -0.014 Q 0.328 -0.011 0.338 -0.011 Q 0.388 -0.011 0.429 -0.061 Q 0.456 -0.093 0.47100000000000003 -0.14200000000000002 Q 0.47400000000000003 -0.153 0.484 -0.153 Q 0.496 -0.153 0.496 -0.14300000000000002 Q 0.496 -0.11800000000000001 0.465 -0.07100000000000001 Q 0.41100000000000003 0.011 0.336 0.011 Q 0.268 0.011 0.23700000000000002 -0.046 Q 0.231 -0.055 0.228 -0.065 Q 0.20400000000000001 -0.017 0.162 0.002 Q 0.14300000000000002 0.011 0.123 0.011 Q 0.063 0.011 0.039 -0.024 Q 0.029 -0.037 0.029 -0.055 Q 0.029 -0.092 0.061 -0.107 Q 0.07200000000000001 -0.113 0.084 -0.113 Q 0.114 -0.113 0.12 -0.088 Q 0.121 -0.083 0.121 -0.078 Q 0.121 -0.044 0.08700000000000001 -0.028 Q 0.081 -0.025 0.074 -0.024 Q 0.095 -0.011 0.124 -0.011 Q 0.177 -0.011 0.20800000000000002 -0.082 Q 0.214 -0.097 0.219 -0.115 Q 0.273 -0.319 0.273 -0.353 Q 0.267 -0.41500000000000004 0.219 -0.42 Q 0.167 -0.42 0.124 -0.367 L 0.124 -0.366 Q 0.124 -0.365 0.123 -0.365 Q 0.108 -0.34500000000000003 0.096 -0.319 Q 0.091 -0.307 0.08700000000000001 -0.295 L 0.085 -0.289 Q 0.083 -0.278 0.07200000000000001 -0.278 Q 0.06 -0.278 0.06 -0.28800000000000003 Q 0.06 -0.313 0.092 -0.36 Q 0.146 -0.442 0.221 -0.442 Q 0.298 -0.442 0.329 -0.366 Q 0.361 -0.428 0.41400000000000003 -0.44 Q 0.424 -0.442 0.434 -0.442 Q 0.493 -0.442 0.517 -0.40900000000000003 Q 0.527 -0.395 0.527 -0.376 Q 0.527 -0.335 0.49 -0.321 Q 0.481 -0.318 0.47300000000000003 -0.318 Q 0.442 -0.318 0.436 -0.34500000000000003 Q 0.435 -0.34900000000000003 0.435 -0.353 Q 0.435 -0.383 0.464 -0.4 Q 0.47300000000000003 -0.405 0.483 -0.40700000000000003 Q 0.462 -0.42 0.433 -0.42 Q 0.365 -0.42 0.337 -0.314 Q 0.335 -0.308 0.334 -0.302 Z"/></g><g transform="translate(26.177,15.827508)"><path fill="rgb(0,100,0)" stroke="none" paint-order="stroke fill markers" d=" M 0.289 -0.25 L 0.289 -0.25 Q 0.289 -0.081 0.226 0.055 Q 0.17400000000000002 0.166 0.094 0.233 Q 0.073 0.25 0.067 0.25 Q 0.057 0.25 0.057 0.24 Q 0.057 0.23500000000000001 0.07 0.223 Q 0.231 0.059000000000000004 0.231 -0.25 Q 0.231 -0.555 0.081 -0.712 L 0.076 -0.717 Q 0.057 -0.735 0.057 -0.74 Q 0.057 -0.75 0.067 -0.75 Q 0.079 -0.75 0.12 -0.709 Q 0.182 -0.647 0.223 -0.562 Q 0.289 -0.426 0.289 -0.25 Z"/></g><g transform="translate(26.843777777777778,15.827508)"><path fill="rgb(0,100,0)" stroke="none" paint-order="stroke fill markers" d=" M 0.687 -0.327 L 0.09 -0.327 Q 0.058 -0.327 0.056 -0.34700000000000003 Q 0.056 -0.367 0.089 -0.367 L 0.6880000000000001 -0.367 Q 0.72 -0.367 0.721 -0.34700000000000003 Q 0.721 -0.327 0.687 -0.327 M 0.6880000000000001 -0.133 L 0.089 -0.133 Q 0.057 -0.133 0.056 -0.153 Q 0.056 -0.17300000000000001 0.09 -0.17300000000000001 L 0.687 -0.17300000000000001 Q 0.719 -0.17300000000000001 0.721 -0.153 Q 0.721 -0.133 0.6880000000000001 -0.133 Z"/></g><g transform="translate(28.950376228030755,15.151)"><path fill="rgb(0,100,0)" stroke="none" paint-order="stroke fill markers" d=" M 0.334 -0.302 L 0.3 -0.165 Q 0.28300000000000003 -0.097 0.28300000000000003 -0.077 Q 0.28300000000000003 -0.025 0.32 -0.014 Q 0.328 -0.011 0.338 -0.011 Q 0.388 -0.011 0.429 -0.061 Q 0.456 -0.093 0.47100000000000003 -0.14200000000000002 Q 0.47400000000000003 -0.153 0.484 -0.153 Q 0.496 -0.153 0.496 -0.14300000000000002 Q 0.496 -0.11800000000000001 0.465 -0.07100000000000001 Q 0.41100000000000003 0.011 0.336 0.011 Q 0.268 0.011 0.23700000000000002 -0.046 Q 0.231 -0.055 0.228 -0.065 Q 0.20400000000000001 -0.017 0.162 0.002 Q 0.14300000000000002 0.011 0.123 0.011 Q 0.063 0.011 0.039 -0.024 Q 0.029 -0.037 0.029 -0.055 Q 0.029 -0.092 0.061 -0.107 Q 0.07200000000000001 -0.113 0.084 -0.113 Q 0.114 -0.113 0.12 -0.088 Q 0.121 -0.083 0.121 -0.078 Q 0.121 -0.044 0.08700000000000001 -0.028 Q 0.081 -0.025 0.074 -0.024 Q 0.095 -0.011 0.124 -0.011 Q 0.177 -0.011 0.20800000000000002 -0.082 Q 0.214 -0.097 0.219 -0.115 Q 0.273 -0.319 0.273 -0.353 Q 0.267 -0.41500000000000004 0.219 -0.42 Q 0.167 -0.42 0.124 -0.367 L 0.124 -0.366 Q 0.124 -0.365 0.123 -0.365 Q 0.108 -0.34500000000000003 0.096 -0.319 Q 0.091 -0.307 0.08700000000000001 -0.295 L 0.085 -0.289 Q 0.083 -0.278 0.07200000000000001 -0.278 Q 0.06 -0.278 0.06 -0.28800000000000003 Q 0.06 -0.313 0.092 -0.36 Q 0.146 -0.442 0.221 -0.442 Q 0.298 -0.442 0.329 -0.366 Q 0.361 -0.428 0.41400000000000003 -0.44 Q 0.424 -0.442 0.434 -0.442 Q 0.493 -0.442 0.517 -0.40900000000000003 Q 0.527 -0.395 0.527 -0.376 Q 0.527 -0.335 0.49 -0.321 Q 0.481 -0.318 0.47300000000000003 -0.318 Q 0.442 -0.318 0.436 -0.34500000000000003 Q 0.435 -0.34900000000000003 0.435 -0.353 Q 0.435 -0.383 0.464 -0.4 Q 0.47300000000000003 -0.405 0.483 -0.40700000000000003 Q 0.462 -0.42 0.433 -0.42 Q 0.365 -0.42 0.337 -0.314 Q 0.335 -0.308 0.334 -0.302 Z"/></g><rect fill="rgb(0,100,0)" stroke="none" x="27.947376228030755" y="15.557508499999999" width="2.5780000000000003" height="0.039999"/><g transform="translate(27.947376228030755,16.513458999999997)"><path fill="rgb(0,100,0)" stroke="none" paint-order="stroke fill markers" d=" M 0.20800000000000002 -0.194 L 0.20800000000000002 -0.194 Q 0.122 -0.211 0.095 -0.227 Q 0.085 -0.232 0.076 -0.24 Q 0.033 -0.275 0.033 -0.325 Q 0.033 -0.395 0.095 -0.427 Q 0.134 -0.448 0.193 -0.448 Q 0.249 -0.448 0.28700000000000003 -0.42 Q 0.298 -0.429 0.304 -0.436 Q 0.317 -0.448 0.324 -0.448 Q 0.334 -0.439 0.335 -0.424 L 0.335 -0.323 Q 0.335 -0.302 0.329 -0.3 L 0.328 -0.3 L 0.327 -0.299 L 0.322 -0.299 Q 0.311 -0.299 0.31 -0.308 Q 0.303 -0.40900000000000003 0.227 -0.426 Q 0.211 -0.429 0.193 -0.429 Q 0.099 -0.429 0.083 -0.371 Q 0.081 -0.362 0.081 -0.353 Q 0.081 -0.302 0.158 -0.281 Q 0.17300000000000001 -0.277 0.20400000000000001 -0.271 Q 0.276 -0.257 0.307 -0.232 Q 0.313 -0.228 0.318 -0.223 Q 0.36 -0.181 0.36 -0.128 Q 0.36 -0.043000000000000003 0.29 -0.008 Q 0.252 0.011 0.199 0.011 Q 0.134 0.011 0.089 -0.032 L 0.069 -0.009000000000000001 Q 0.049 0.011 0.044 0.011 Q 0.034 0.002 0.033 -0.013000000000000001 L 0.033 -0.145 Q 0.033 -0.167 0.04 -0.169 L 0.04 -0.169 L 0.041 -0.17 L 0.046 -0.17 Q 0.056 -0.17 0.059000000000000004 -0.159 Q 0.059000000000000004 -0.157 0.06 -0.153 Q 0.08600000000000001 -0.037 0.159 -0.016 Q 0.177 -0.011 0.199 -0.011 Q 0.289 -0.011 0.308 -0.074 Q 0.312 -0.08700000000000001 0.312 -0.10200000000000001 Q 0.312 -0.17500000000000002 0.20800000000000002 -0.194 Z"/></g><g transform="translate(28.341376228030754,16.513458999999997)"><path fill="rgb(0,100,0)" stroke="none" paint-order="stroke fill markers" d=" M 0.177 -0.442 L 0.177 -0.442 L 0.177 -0.075 Q 0.177 -0.044 0.189 -0.037 L 0.189 -0.037 Q 0.201 -0.031 0.247 -0.031 L 0.247 0 Q 0.145 -0.003 0.14300000000000002 -0.003 Q 0.129 -0.003 0.033 0 L 0.033 -0.031 Q 0.092 -0.031 0.10200000000000001 -0.04 L 0.10400000000000001 -0.042 Q 0.111 -0.05 0.111 -0.076 L 0.111 -0.34500000000000003 Q 0.111 -0.385 0.095 -0.393 L 0.094 -0.393 L 0.094 -0.393 L 0.093 -0.394 L 0.093 -0.394 Q 0.08 -0.4 0.037 -0.4 L 0.037 -0.431 L 0.177 -0.442 M 0.181 -0.616 Q 0.181 -0.579 0.148 -0.5670000000000001 Q 0.138 -0.5630000000000001 0.128 -0.5630000000000001 Q 0.093 -0.5630000000000001 0.079 -0.595 L 0.079 -0.596 Q 0.075 -0.606 0.075 -0.616 Q 0.075 -0.647 0.10300000000000001 -0.662 Q 0.114 -0.669 0.128 -0.669 Q 0.162 -0.669 0.176 -0.639 Q 0.181 -0.628 0.181 -0.616 Z"/></g><g transform="translate(28.619376228030752,16.513458999999997)"><path fill="rgb(0,100,0)" stroke="none" paint-order="stroke fill markers" d=" M 0.11 -0.34400000000000003 Q 0.11 -0.383 0.095 -0.392 Q 0.083 -0.399 0.052000000000000005 -0.4 L 0.032 -0.4 L 0.032 -0.431 L 0.17300000000000001 -0.442 L 0.17300000000000001 -0.337 Q 0.22 -0.442 0.321 -0.442 Q 0.396 -0.442 0.426 -0.405 Q 0.453 -0.374 0.456 -0.32 Q 0.457 -0.301 0.457 -0.252 L 0.457 -0.061 Q 0.458 -0.037 0.486 -0.033 Q 0.498 -0.031 0.535 -0.031 L 0.535 0 Q 0.433 -0.003 0.423 -0.003 Q 0.41500000000000004 -0.003 0.31 0 L 0.31 -0.031 Q 0.369 -0.031 0.379 -0.04 L 0.381 -0.042 Q 0.388 -0.05 0.388 -0.076 L 0.388 -0.309 Q 0.388 -0.40800000000000003 0.331 -0.418 Q 0.323 -0.42 0.314 -0.42 Q 0.253 -0.42 0.212 -0.367 Q 0.179 -0.324 0.179 -0.26 L 0.179 -0.076 Q 0.179 -0.042 0.195 -0.036000000000000004 Q 0.20600000000000002 -0.031 0.257 -0.031 L 0.257 0 Q 0.155 -0.003 0.145 -0.003 Q 0.137 -0.003 0.032 0 L 0.032 -0.031 Q 0.091 -0.031 0.101 -0.04 L 0.10300000000000001 -0.042 Q 0.11 -0.05 0.11 -0.076 L 0.11 -0.34400000000000003 Z"/></g><g transform="translate(29.175376228030757,16.513458999999997)"><path fill="rgb(0,100,0)" stroke="none" paint-order="stroke fill markers" d=" M 0.331 0.24 L 0.331 0.24 Q 0.331 0.25 0.321 0.25 Q 0.309 0.25 0.268 0.209 Q 0.20600000000000002 0.147 0.165 0.062 Q 0.099 -0.074 0.099 -0.25 Q 0.099 -0.419 0.162 -0.555 Q 0.214 -0.666 0.294 -0.733 Q 0.315 -0.75 0.321 -0.75 Q 0.331 -0.75 0.331 -0.74 Q 0.331 -0.735 0.318 -0.723 Q 0.157 -0.559 0.157 -0.25 Q 0.157 0.058 0.314 0.218 Q 0.331 0.23500000000000001 0.331 0.24 Z"/></g><g transform="translate(29.564376228030756,16.513458999999997)"><path fill="rgb(0,100,0)" stroke="none" paint-order="stroke fill markers" d=" M 0.334 -0.302 L 0.3 -0.165 Q 0.28300000000000003 -0.097 0.28300000000000003 -0.077 Q 0.28300000000000003 -0.025 0.32 -0.014 Q 0.328 -0.011 0.338 -0.011 Q 0.388 -0.011 0.429 -0.061 Q 0.456 -0.093 0.47100000000000003 -0.14200000000000002 Q 0.47400000000000003 -0.153 0.484 -0.153 Q 0.496 -0.153 0.496 -0.14300000000000002 Q 0.496 -0.11800000000000001 0.465 -0.07100000000000001 Q 0.41100000000000003 0.011 0.336 0.011 Q 0.268 0.011 0.23700000000000002 -0.046 Q 0.231 -0.055 0.228 -0.065 Q 0.20400000000000001 -0.017 0.162 0.002 Q 0.14300000000000002 0.011 0.123 0.011 Q 0.063 0.011 0.039 -0.024 Q 0.029 -0.037 0.029 -0.055 Q 0.029 -0.092 0.061 -0.107 Q 0.07200000000000001 -0.113 0.084 -0.113 Q 0.114 -0.113 0.12 -0.088 Q 0.121 -0.083 0.121 -0.078 Q 0.121 -0.044 0.08700000000000001 -0.028 Q 0.081 -0.025 0.074 -0.024 Q 0.095 -0.011 0.124 -0.011 Q 0.177 -0.011 0.20800000000000002 -0.082 Q 0.214 -0.097 0.219 -0.115 Q 0.273 -0.319 0.273 -0.353 Q 0.267 -0.41500000000000004 0.219 -0.42 Q 0.167 -0.42 0.124 -0.367 L 0.124 -0.366 Q 0.124 -0.365 0.123 -0.365 Q 0.108 -0.34500000000000003 0.096 -0.319 Q 0.091 -0.307 0.08700000000000001 -0.295 L 0.085 -0.289 Q 0.083 -0.278 0.07200000000000001 -0.278 Q 0.06 -0.278 0.06 -0.28800000000000003 Q 0.06 -0.313 0.092 -0.36 Q 0.146 -0.442 0.221 -0.442 Q 0.298 -0.442 0.329 -0.366 Q 0.361 -0.428 0.41400000000000003 -0.44 Q 0.424 -0.442 0.434 -0.442 Q 0.493 -0.442 0.517 -0.40900000000000003 Q 0.527 -0.395 0.527 -0.376 Q 0.527 -0.335 0.49 -0.321 Q 0.481 -0.318 0.47300000000000003 -0.318 Q 0.442 -0.318 0.436 -0.34500000000000003 Q 0.435 -0.34900000000000003 0.435 -0.353 Q 0.435 -0.383 0.464 -0.4 Q 0.47300000000000003 -0.405 0.483 -0.40700000000000003 Q 0.462 -0.42 0.433 -0.42 Q 0.365 -0.42 0.337 -0.314 Q 0.335 -0.308 0.334 -0.302 Z"/></g><g transform="translate(30.136376228030755,16.513458999999997)"><path fill="rgb(0,100,0)" stroke="none" paint-order="stroke fill markers" d=" M 0.289 -0.25 L 0.289 -0.25 Q 0.289 -0.081 0.226 0.055 Q 0.17400000000000002 0.166 0.094 0.233 Q 0.073 0.25 0.067 0.25 Q 0.057 0.25 0.057 0.24 Q 0.057 0.23500000000000001 0.07 0.223 Q 0.231 0.059000000000000004 0.231 -0.25 Q 0.231 -0.555 0.081 -0.712 L 0.076 -0.717 Q 0.057 -0.735 0.057 -0.74 Q 0.057 -0.75 0.067 -0.75 Q 0.079 -0.75 0.12 -0.709 Q 0.182 -0.647 0.223 -0.562 Q 0.289 -0.426 0.289 -0.25 Z"/></g></g></g></g></svg>