<svg version="1.1" xmlns="http://www.w3.org/2000/svg" xmlns:xlink="http://www.w3.org/1999/xlink" width="949" height="704"><defs><clipPath id="kwzGsCbANFBi"><path fill="none" stroke="none" d=" M 0 0 L 949 0 L 949 704 L 0 704 L 0 0 Z"/></clipPath></defs><g transform="scale(1,1)" clip-path="url(#kwzGsCbANFBi)"><g><rect fill="rgb(255,255,255)" stroke="none" x="0" y="0" width="949" height="704" fill-opacity="1"/><path fill="none" stroke="rgb(37,37,37)" paint-order="fill stroke markers" d=" M 470.5 -0.5 L 470.5 704.5" stroke-opacity="1" stroke-miterlimit="10"/><path fill="none" stroke="rgb(37,37,37)" paint-order="fill stroke markers" d=" M 0.5 352.5 L 948.5 352.5" stroke-opacity="1" stroke-miterlimit="10"/><text fill="rgb(37,37,37)" stroke="none" font-family="geogebra-sans-serif, sans-serif" font-size="12px" font-style="normal" font-weight="normal" text-decoration="normal" x="229" y="368" text-anchor="start" dominant-baseline="alphabetic" fill-opacity="1">–1</text><text fill="none" stroke="rgb(255,255,255)" font-family="geogebra-sans-serif, sans-serif" font-size="12px" font-style="normal" font-weight="normal" text-decoration="normal" x="229" y="368" text-anchor="start" dominant-baseline="alphabetic" stroke-opacity="1" stroke-linejoin="bevel" stroke-miterlimit="10" stroke-width="3">–1</text><text fill="rgb(37,37,37)" stroke="none" font-family="geogebra-sans-serif, sans-serif" font-size="12px" font-style="normal" font-weight="normal" text-decoration="normal" x="229" y="368" text-anchor="start" dominant-baseline="alphabetic" fill-opacity="1">–1</text><path fill="none" stroke="rgb(37,37,37)" paint-order="fill stroke markers" d=" M 234.5 352.5 L 234.5 355.5" stroke-opacity="1" stroke-miterlimit="10"/><path fill="none" stroke="rgb(37,37,37)" paint-order="fill stroke markers" d=" M 470.5 352.5 L 470.5 355.5" stroke-opacity="1" stroke-miterlimit="10"/><text fill="rgb(37,37,37)" stroke="none" font-family="geogebra-sans-serif, sans-serif" font-size="12px" font-style="normal" font-weight="normal" text-decoration="normal" x="704" y="368" text-anchor="start" dominant-baseline="alphabetic" fill-opacity="1">1</text><text fill="none" stroke="rgb(255,255,255)" font-family="geogebra-sans-serif, sans-serif" font-size="12px" font-style="normal" font-weight="normal" text-decoration="normal" x="704" y="368" text-anchor="start" dominant-baseline="alphabetic" stroke-opacity="1" stroke-linejoin="bevel" stroke-miterlimit="10" stroke-width="3">1</text><text fill="rgb(37,37,37)" stroke="none" font-family="geogebra-sans-serif, sans-serif" font-size="12px" font-style="normal" font-weight="normal" text-decoration="normal" x="704" y="368" text-anchor="start" dominant-baseline="alphabetic" fill-opacity="1">1</text><path fill="none" stroke="rgb(37,37,37)" paint-order="fill stroke markers" d=" M 706.5 352.5 L 706.5 355.5" stroke-opacity="1" stroke-miterlimit="10"/><path fill="none" stroke="rgb(37,37,37)" paint-order="fill stroke markers" d=" M 942.5 352.5 L 942.5 355.5" stroke-opacity="1" stroke-miterlimit="10"/><path fill="none" stroke="rgb(37,37,37)" paint-order="fill stroke markers" d=" M 467.5 588.5 L 470.5 588.5" stroke-opacity="1" stroke-miterlimit="10"/><path fill="none" stroke="rgb(37,37,37)" paint-order="fill stroke markers" d=" M 467.5 115.5 L 470.5 115.5" stroke-opacity="1" stroke-miterlimit="10"/><text fill="rgb(37,37,37)" stroke="none" font-family="geogebra-sans-serif, sans-serif" font-size="12px" font-style="normal" font-weight="normal" text-decoration="normal" x="450" y="593" text-anchor="start" dominant-baseline="alphabetic" fill-opacity="1">–1</text><text fill="none" stroke="rgb(255,255,255)" font-family="geogebra-sans-serif, sans-serif" font-size="12px" font-style="normal" font-weight="normal" text-decoration="normal" x="450" y="593" text-anchor="start" dominant-baseline="alphabetic" stroke-opacity="1" stroke-linejoin="bevel" stroke-miterlimit="10" stroke-width="3">–1</text><text fill="rgb(37,37,37)" stroke="none" font-family="geogebra-sans-serif, sans-serif" font-size="12px" font-style="normal" font-weight="normal" text-decoration="normal" x="450" y="593" text-anchor="start" dominant-baseline="alphabetic" fill-opacity="1">–1</text><text fill="rgb(37,37,37)" stroke="none" font-family="geogebra-sans-serif, sans-serif" font-size="12px" font-style="normal" font-weight="normal" text-decoration="normal" x="456" y="120" text-anchor="start" dominant-baseline="alphabetic" fill-opacity="1">1</text><text fill="none" stroke="rgb(255,255,255)" font-family="geogebra-sans-serif, sans-serif" font-size="12px" font-style="normal" font-weight="normal" text-decoration="normal" x="456" y="120" text-anchor="start" dominant-baseline="alphabetic" stroke-opacity="1" stroke-linejoin="bevel" stroke-miterlimit="10" stroke-width="3">1</text><text fill="rgb(37,37,37)" stroke="none" font-family="geogebra-sans-serif, sans-serif" font-size="12px" font-style="normal" font-weight="normal" text-decoration="normal" x="456" y="120" text-anchor="start" dominant-baseline="alphabetic" fill-opacity="1">1</text><text fill="rgb(37,37,37)" stroke="none" font-family="geogebra-sans-serif, sans-serif" font-size="12px" font-style="normal" font-weight="normal" text-decoration="normal" x="456" y="368" text-anchor="start" dominant-baseline="alphabetic" fill-opacity="1">0</text><text fill="none" stroke="rgb(255,255,255)" font-family="geogebra-sans-serif, sans-serif" font-size="12px" font-style="normal" font-weight="normal" text-decoration="normal" x="456" y="368" text-anchor="start" dominant-baseline="alphabetic" stroke-opacity="1" stroke-linejoin="bevel" stroke-miterlimit="10" stroke-width="3">0</text><text fill="rgb(37,37,37)" stroke="none" font-family="geogebra-sans-serif, sans-serif" font-size="12px" font-style="normal" font-weight="normal" text-decoration="normal" x="456" y="368" text-anchor="start" dominant-baseline="alphabetic" fill-opacity="1">0</text><path fill="none" stroke="rgb(0,0,0)" paint-order="fill stroke markers" d=" M 706.7499999999998 352 C 706.7499999999998 482.4772721475248 600.9772721475248 588.2499999999999 470.49999999999994 588.2499999999999 C 340.0227278524751 588.2499999999999 234.25000000000009 482.4772721475248 234.25000000000009 352 C 234.25000000000009 221.52272785247516 340.0227278524751 115.75000000000014 470.49999999999994 115.75000000000014 C 600.9772721475248 115.75000000000014 706.7499999999998 221.52272785247516 706.7499999999998 352 Z" stroke-opacity="0.6980392156862745" stroke-linecap="round" stroke-linejoin="round" stroke-miterlimit="10" stroke-width="2"/><path fill="rgb(0,153,0)" stroke="none" paint-order="stroke fill markers" d=" M 706.7499999999998 352 C 706.7499999999998 289.3426042754078 681.8594464636699 229.2514923530264 637.5539770553216 184.94602294467828 L 470.49999999999994 352 Z" fill-opacity="0.09803921568627451"/><path fill="none" stroke="rgb(0,153,0)" paint-order="fill stroke markers" d=" M 706.7499999999998 352 C 706.7499999999998 289.3426042754078 681.8594464636699 229.2514923530264 637.5539770553216 184.94602294467828 L 470.49999999999994 352 Z" stroke-opacity="0.8" stroke-linecap="round" stroke-linejoin="round" stroke-miterlimit="10" stroke-width="2.5"/><path fill="rgb(0,0,0)" stroke="none" paint-order="stroke fill markers" d=" M 515.5 352 C 515.5 340.0652579572205 510.75894218355614 328.6193318767669 502.3198051533946 320.1801948466054 L 470.49999999999994 352 Z" fill-opacity="0.2"/><path fill="none" stroke="rgb(0,0,0)" paint-order="fill stroke markers" d=" M 515.5 352 C 515.5 340.0652579572205 510.75894218355614 328.6193318767669 502.3198051533946 320.1801948466054 L 470.49999999999994 352 Z" stroke-opacity="0.6" stroke-linecap="round" stroke-linejoin="round" stroke-miterlimit="10" stroke-width="2.5"/><text fill="rgb(0,0,0)" stroke="none" font-family="geogebra-sans-serif, sans-serif" font-size="16px" font-style="normal" font-weight="normal" text-decoration="normal" x="519" y="336" text-anchor="start" dominant-baseline="alphabetic" fill-opacity="1">x</text><text fill="none" stroke="rgb(255,255,255)" font-family="geogebra-sans-serif, sans-serif" font-size="16px" font-style="normal" font-weight="normal" text-decoration="normal" x="519" y="336" text-anchor="start" dominant-baseline="alphabetic" stroke-opacity="1" stroke-linejoin="bevel" stroke-miterlimit="10" stroke-width="3">x</text><text fill="rgb(0,0,0)" stroke="none" font-family="geogebra-sans-serif, sans-serif" font-size="16px" font-style="normal" font-weight="normal" text-decoration="normal" x="519" y="336" text-anchor="start" dominant-baseline="alphabetic" fill-opacity="1">x</text><path fill="rgb(97,97,97)" stroke="none" paint-order="stroke fill markers" d=" M 640.5539770553216 184.94602294467828 C 640.5539770553216 186.60287719417065 639.2108313048141 187.94602294467828 637.5539770553216 187.94602294467828 C 635.8971228058292 187.94602294467828 634.5539770553216 186.60287719417065 634.5539770553216 184.94602294467828 C 634.5539770553216 183.2891686951859 635.8971228058292 181.94602294467828 637.5539770553216 181.94602294467828 C 639.2108313048141 181.94602294467828 640.5539770553216 183.2891686951859 640.5539770553216 184.94602294467828 Z" fill-opacity="1"/><path fill="none" stroke="rgb(0,0,0)" paint-order="fill stroke markers" d=" M 640.5539770553216 184.94602294467828 C 640.5539770553216 186.60287719417065 639.2108313048141 187.94602294467828 637.5539770553216 187.94602294467828 C 635.8971228058292 187.94602294467828 634.5539770553216 186.60287719417065 634.5539770553216 184.94602294467828 C 634.5539770553216 183.2891686951859 635.8971228058292 181.94602294467828 637.5539770553216 181.94602294467828 C 639.2108313048141 181.94602294467828 640.5539770553216 183.2891686951859 640.5539770553216 184.94602294467828 Z" stroke-opacity="1" stroke-linecap="round" stroke-linejoin="round" stroke-miterlimit="10"/><path fill="rgb(97,97,97)" stroke="none" paint-order="stroke fill markers" d=" M 473.49999999999994 352 C 473.49999999999994 353.65685424949237 472.1568542494923 355 470.49999999999994 355 C 468.8431457505076 355 467.49999999999994 353.65685424949237 467.49999999999994 352 C 467.49999999999994 350.34314575050763 468.8431457505076 349 470.49999999999994 349 C 472.1568542494923 349 473.49999999999994 350.34314575050763 473.49999999999994 352 Z" fill-opacity="1"/><path fill="none" stroke="rgb(0,0,0)" paint-order="fill stroke markers" d=" M 473.49999999999994 352 C 473.49999999999994 353.65685424949237 472.1568542494923 355 470.49999999999994 355 C 468.8431457505076 355 467.49999999999994 353.65685424949237 467.49999999999994 352 C 467.49999999999994 350.34314575050763 468.8431457505076 349 470.49999999999994 349 C 472.1568542494923 349 473.49999999999994 350.34314575050763 473.49999999999994 352 Z" stroke-opacity="1" stroke-linecap="round" stroke-linejoin="round" stroke-miterlimit="10"/><path fill="rgb(97,97,97)" stroke="none" paint-order="stroke fill markers" d=" M 709.7499999999998 352 C 709.7499999999998 353.65685424949237 708.4068542494922 355 706.7499999999998 355 C 705.0931457505073 355 703.7499999999998 353.65685424949237 703.7499999999998 352 C 703.7499999999998 350.34314575050763 705.0931457505073 349 706.7499999999998 349 C 708.4068542494922 349 709.7499999999998 350.34314575050763 709.7499999999998 352 Z" fill-opacity="1"/><path fill="none" stroke="rgb(0,0,0)" paint-order="fill stroke markers" d=" M 709.7499999999998 352 C 709.7499999999998 353.65685424949237 708.4068542494922 355 706.7499999999998 355 C 705.0931457505073 355 703.7499999999998 353.65685424949237 703.7499999999998 352 C 703.7499999999998 350.34314575050763 705.0931457505073 349 706.7499999999998 349 C 708.4068542494922 349 709.7499999999998 350.34314575050763 709.7499999999998 352 Z" stroke-opacity="1" stroke-linecap="round" stroke-linejoin="round" stroke-miterlimit="10"/></g></g></svg>