<svg version="1.1" xmlns="http://www.w3.org/2000/svg" xmlns:xlink="http://www.w3.org/1999/xlink" width="953" height="704"><defs><clipPath id="rMweOUxCGPuT"><path fill="none" stroke="none" d=" M 0 0 L 953 0 L 953 704 L 0 704 L 0 0 Z"/></clipPath></defs><g transform="scale(1,1)" clip-path="url(#rMweOUxCGPuT)"><g><rect fill="rgb(255,255,255)" stroke="none" x="0" y="0" width="953" height="704" fill-opacity="1"/><path fill="none" stroke="rgb(37,37,37)" paint-order="fill stroke markers" d=" M 472.5 -0.5 L 472.5 704.5" stroke-opacity="1" stroke-miterlimit="10"/><path fill="none" stroke="rgb(37,37,37)" paint-order="fill stroke markers" d=" M 0.5 351.5 L 952.5 351.5" stroke-opacity="1" stroke-miterlimit="10"/><path fill="none" stroke="rgb(37,37,37)" paint-order="fill stroke markers" d=" M 0.5 351.5 L 0.5 354.5" stroke-opacity="1" stroke-miterlimit="10"/><text fill="rgb(37,37,37)" stroke="none" font-family="geogebra-sans-serif, sans-serif" font-size="12px" font-style="normal" font-weight="normal" text-decoration="normal" x="231" y="367" text-anchor="start" dominant-baseline="alphabetic" fill-opacity="1">–1</text><text fill="none" stroke="rgb(255,255,255)" font-family="geogebra-sans-serif, sans-serif" font-size="12px" font-style="normal" font-weight="normal" text-decoration="normal" x="231" y="367" text-anchor="start" dominant-baseline="alphabetic" stroke-opacity="1" stroke-linejoin="bevel" stroke-miterlimit="10" stroke-width="3">–1</text><text fill="rgb(37,37,37)" stroke="none" font-family="geogebra-sans-serif, sans-serif" font-size="12px" font-style="normal" font-weight="normal" text-decoration="normal" x="231" y="367" text-anchor="start" dominant-baseline="alphabetic" fill-opacity="1">–1</text><path fill="none" stroke="rgb(37,37,37)" paint-order="fill stroke markers" d=" M 236.5 351.5 L 236.5 354.5" stroke-opacity="1" stroke-miterlimit="10"/><path fill="none" stroke="rgb(37,37,37)" paint-order="fill stroke markers" d=" M 472.5 351.5 L 472.5 354.5" stroke-opacity="1" stroke-miterlimit="10"/><text fill="rgb(37,37,37)" stroke="none" font-family="geogebra-sans-serif, sans-serif" font-size="12px" font-style="normal" font-weight="normal" text-decoration="normal" x="706" y="367" text-anchor="start" dominant-baseline="alphabetic" fill-opacity="1">1</text><text fill="none" stroke="rgb(255,255,255)" font-family="geogebra-sans-serif, sans-serif" font-size="12px" font-style="normal" font-weight="normal" text-decoration="normal" x="706" y="367" text-anchor="start" dominant-baseline="alphabetic" stroke-opacity="1" stroke-linejoin="bevel" stroke-miterlimit="10" stroke-width="3">1</text><text fill="rgb(37,37,37)" stroke="none" font-family="geogebra-sans-serif, sans-serif" font-size="12px" font-style="normal" font-weight="normal" text-decoration="normal" x="706" y="367" text-anchor="start" dominant-baseline="alphabetic" fill-opacity="1">1</text><path fill="none" stroke="rgb(37,37,37)" paint-order="fill stroke markers" d=" M 708.5 351.5 L 708.5 354.5" stroke-opacity="1" stroke-miterlimit="10"/><path fill="none" stroke="rgb(37,37,37)" paint-order="fill stroke markers" d=" M 944.5 351.5 L 944.5 354.5" stroke-opacity="1" stroke-miterlimit="10"/><path fill="none" stroke="rgb(37,37,37)" paint-order="fill stroke markers" d=" M 469.5 588.5 L 472.5 588.5" stroke-opacity="1" stroke-miterlimit="10"/><path fill="none" stroke="rgb(37,37,37)" paint-order="fill stroke markers" d=" M 469.5 115.5 L 472.5 115.5" stroke-opacity="1" stroke-miterlimit="10"/><text fill="rgb(37,37,37)" stroke="none" font-family="geogebra-sans-serif, sans-serif" font-size="12px" font-style="normal" font-weight="normal" text-decoration="normal" x="452" y="593" text-anchor="start" dominant-baseline="alphabetic" fill-opacity="1">–1</text><text fill="none" stroke="rgb(255,255,255)" font-family="geogebra-sans-serif, sans-serif" font-size="12px" font-style="normal" font-weight="normal" text-decoration="normal" x="452" y="593" text-anchor="start" dominant-baseline="alphabetic" stroke-opacity="1" stroke-linejoin="bevel" stroke-miterlimit="10" stroke-width="3">–1</text><text fill="rgb(37,37,37)" stroke="none" font-family="geogebra-sans-serif, sans-serif" font-size="12px" font-style="normal" font-weight="normal" text-decoration="normal" x="452" y="593" text-anchor="start" dominant-baseline="alphabetic" fill-opacity="1">–1</text><text fill="rgb(37,37,37)" stroke="none" font-family="geogebra-sans-serif, sans-serif" font-size="12px" font-style="normal" font-weight="normal" text-decoration="normal" x="458" y="120" text-anchor="start" dominant-baseline="alphabetic" fill-opacity="1">1</text><text fill="none" stroke="rgb(255,255,255)" font-family="geogebra-sans-serif, sans-serif" font-size="12px" font-style="normal" font-weight="normal" text-decoration="normal" x="458" y="120" text-anchor="start" dominant-baseline="alphabetic" stroke-opacity="1" stroke-linejoin="bevel" stroke-miterlimit="10" stroke-width="3">1</text><text fill="rgb(37,37,37)" stroke="none" font-family="geogebra-sans-serif, sans-serif" font-size="12px" font-style="normal" font-weight="normal" text-decoration="normal" x="458" y="120" text-anchor="start" dominant-baseline="alphabetic" fill-opacity="1">1</text><text fill="rgb(37,37,37)" stroke="none" font-family="geogebra-sans-serif, sans-serif" font-size="12px" font-style="normal" font-weight="normal" text-decoration="normal" x="458" y="367" text-anchor="start" dominant-baseline="alphabetic" fill-opacity="1">0</text><text fill="none" stroke="rgb(255,255,255)" font-family="geogebra-sans-serif, sans-serif" font-size="12px" font-style="normal" font-weight="normal" text-decoration="normal" x="458" y="367" text-anchor="start" dominant-baseline="alphabetic" stroke-opacity="1" stroke-linejoin="bevel" stroke-miterlimit="10" stroke-width="3">0</text><text fill="rgb(37,37,37)" stroke="none" font-family="geogebra-sans-serif, sans-serif" font-size="12px" font-style="normal" font-weight="normal" text-decoration="normal" x="458" y="367" text-anchor="start" dominant-baseline="alphabetic" fill-opacity="1">0</text><path fill="rgb(204,0,0)" stroke="none" paint-order="stroke fill markers" fill-rule="evenodd" d=" M 472.4999999999999 351.99999999999994 L 708.7499999999998 351.99999999999994 L 708.7499999999998 115.75 Z" fill-opacity="0.09803921568627451"/><path fill="none" stroke="rgb(0,0,0)" paint-order="fill stroke markers" d=" M 708.7499999999998 351.99999999999994 C 708.7499999999998 482.4772721475248 602.9772721475247 588.2499999999999 472.4999999999999 588.2499999999999 C 342.022727852475 588.2499999999999 236.24999999999994 482.4772721475248 236.24999999999994 351.99999999999994 C 236.24999999999994 221.52272785247504 342.022727852475 115.74999999999997 472.4999999999999 115.74999999999997 C 602.9772721475247 115.74999999999997 708.7499999999998 221.52272785247504 708.7499999999998 351.99999999999994 Z" stroke-opacity="0.6980392156862745" stroke-linecap="round" stroke-linejoin="round" stroke-miterlimit="10" stroke-width="2"/><path fill="rgb(0,0,0)" stroke="none" paint-order="stroke fill markers" d=" M 517.4999999999999 351.99999999999994 C 517.4999999999999 340.06525795722047 512.7589421835561 328.61933187676686 504.3198051533945 320.18019484660533 L 472.4999999999999 351.99999999999994 Z" fill-opacity="0.2"/><path fill="none" stroke="rgb(0,0,0)" paint-order="fill stroke markers" d=" M 517.4999999999999 351.99999999999994 C 517.4999999999999 340.06525795722047 512.7589421835561 328.61933187676686 504.3198051533945 320.18019484660533 L 472.4999999999999 351.99999999999994 Z" stroke-opacity="0.6" stroke-linecap="round" stroke-linejoin="round" stroke-miterlimit="10" stroke-width="2.5"/><text fill="rgb(0,0,0)" stroke="none" font-family="geogebra-sans-serif, sans-serif" font-size="16px" font-style="normal" font-weight="normal" text-decoration="normal" x="521" y="336" text-anchor="start" dominant-baseline="alphabetic" fill-opacity="1">x</text><text fill="none" stroke="rgb(255,255,255)" font-family="geogebra-sans-serif, sans-serif" font-size="16px" font-style="normal" font-weight="normal" text-decoration="normal" x="521" y="336" text-anchor="start" dominant-baseline="alphabetic" stroke-opacity="1" stroke-linejoin="bevel" stroke-miterlimit="10" stroke-width="3">x</text><text fill="rgb(0,0,0)" stroke="none" font-family="geogebra-sans-serif, sans-serif" font-size="16px" font-style="normal" font-weight="normal" text-decoration="normal" x="521" y="336" text-anchor="start" dominant-baseline="alphabetic" fill-opacity="1">x</text><path fill="none" stroke="rgb(0,0,0)" paint-order="fill stroke markers" d=" M 708.7499999999998 709 L 708.7499999999998 -5" stroke-opacity="0.6980392156862745" stroke-linejoin="round" stroke-miterlimit="10" stroke-dasharray="5,4"/><path fill="none" stroke="rgb(204,0,0)" paint-order="fill stroke markers" d=" M 472.4999999999999 351.99999999999994 L 708.7499999999998 351.99999999999994" stroke-opacity="0.8" stroke-linecap="round" stroke-linejoin="round" stroke-miterlimit="10" stroke-width="2.5"/><path fill="none" stroke="rgb(204,0,0)" paint-order="fill stroke markers" d=" M 708.7499999999998 351.99999999999994 L 708.7499999999998 115.75" stroke-opacity="0.8" stroke-linecap="round" stroke-linejoin="round" stroke-miterlimit="10" stroke-width="2.5"/><path fill="none" stroke="rgb(204,0,0)" paint-order="fill stroke markers" d=" M 708.7499999999998 115.75 L 472.4999999999999 351.99999999999994" stroke-opacity="0.8" stroke-linecap="round" stroke-linejoin="round" stroke-miterlimit="10" stroke-width="2.5"/><text fill="rgb(0,0,0)" stroke="none" font-family="geogebra-sans-serif, sans-serif" font-size="16px" font-style="normal" font-weight="normal" text-decoration="normal" x="594" y="396" text-anchor="start" dominant-baseline="alphabetic" fill-opacity="1">1</text><text fill="none" stroke="rgb(255,255,255)" font-family="geogebra-sans-serif, sans-serif" font-size="16px" font-style="normal" font-weight="normal" text-decoration="normal" x="594" y="396" text-anchor="start" dominant-baseline="alphabetic" stroke-opacity="1" stroke-linejoin="bevel" stroke-miterlimit="10" stroke-width="3">1</text><text fill="rgb(0,0,0)" stroke="none" font-family="geogebra-sans-serif, sans-serif" font-size="16px" font-style="normal" font-weight="normal" text-decoration="normal" x="594" y="396" text-anchor="start" dominant-baseline="alphabetic" fill-opacity="1">1</text><path fill="rgb(0,0,0)" stroke="none" paint-order="stroke fill markers" d=" M 475.5177669529662 374.37499999999994 L 474.2677669529662 375.62499999999994 L 475.5177669529662 376.87499999999994 L 478.9999999999999 376.87499999999994 L 478.9999999999999 374.37499999999994 Z M 482.9999999999999 374.37499999999994 L 482.9999999999999 376.87499999999994 L 489.4999999999999 376.87499999999994 L 489.4999999999999 374.37499999999994 Z M 493.4999999999999 374.37499999999994 L 493.4999999999999 376.87499999999994 L 499.9999999999999 376.87499999999994 L 499.9999999999999 374.37499999999994 Z M 503.9999999999999 374.37499999999994 L 503.9999999999999 376.87499999999994 L 510.4999999999999 376.87499999999994 L 510.4999999999999 374.37499999999994 Z M 514.4999999999999 374.37499999999994 L 514.4999999999999 376.87499999999994 L 520.9999999999999 376.87499999999994 L 520.9999999999999 374.37499999999994 Z M 524.9999999999999 374.37499999999994 L 524.9999999999999 376.87499999999994 L 531.4999999999999 376.87499999999994 L 531.4999999999999 374.37499999999994 Z M 535.4999999999999 374.37499999999994 L 535.4999999999999 376.87499999999994 L 541.9999999999999 376.87499999999994 L 541.9999999999999 374.37499999999994 Z M 545.9999999999999 374.37499999999994 L 545.9999999999999 376.87499999999994 L 552.4999999999999 376.87499999999994 L 552.4999999999999 374.37499999999994 Z M 556.4999999999999 374.37499999999994 L 556.4999999999999 376.87499999999994 L 562.9999999999999 376.87499999999994 L 562.9999999999999 374.37499999999994 Z M 566.9999999999999 374.37499999999994 L 566.9999999999999 376.87499999999994 L 573.4999999999999 376.87499999999994 L 573.4999999999999 374.37499999999994 Z M 577.4999999999999 374.37499999999994 L 577.4999999999999 376.87499999999994 L 583.9999999999999 376.87499999999994 L 583.9999999999999 374.37499999999994 Z M 587.9999999999999 374.37499999999994 L 587.9999999999999 376.87499999999994 L 594.4999999999999 376.87499999999994 L 594.4999999999999 374.37499999999994 Z M 598.4999999999999 374.37499999999994 L 598.4999999999999 376.87499999999994 L 604.9999999999999 376.87499999999994 L 604.9999999999999 374.37499999999994 Z M 608.9999999999999 374.37499999999994 L 608.9999999999999 376.87499999999994 L 615.4999999999999 376.87499999999994 L 615.4999999999999 374.37499999999994 Z M 619.4999999999999 374.37499999999994 L 619.4999999999999 376.87499999999994 L 625.9999999999999 376.87499999999994 L 625.9999999999999 374.37499999999994 Z M 629.9999999999999 374.37499999999994 L 629.9999999999999 376.87499999999994 L 636.4999999999999 376.87499999999994 L 636.4999999999999 374.37499999999994 Z M 640.4999999999999 374.37499999999994 L 640.4999999999999 376.87499999999994 L 646.9999999999999 376.87499999999994 L 646.9999999999999 374.37499999999994 Z M 650.9999999999999 374.37499999999994 L 650.9999999999999 376.87499999999994 L 657.4999999999999 376.87499999999994 L 657.4999999999999 374.37499999999994 Z M 661.4999999999999 374.37499999999994 L 661.4999999999999 376.87499999999994 L 667.9999999999999 376.87499999999994 L 667.9999999999999 374.37499999999994 Z M 671.9999999999999 374.37499999999994 L 671.9999999999999 376.87499999999994 L 678.4999999999999 376.87499999999994 L 678.4999999999999 374.37499999999994 Z M 682.4999999999999 374.37499999999994 L 682.4999999999999 376.87499999999994 L 688.9999999999999 376.87499999999994 L 688.9999999999999 374.37499999999994 Z M 692.9999999999999 374.37499999999994 L 692.9999999999999 376.87499999999994 L 699.4999999999999 376.87499999999994 L 699.4999999999999 374.37499999999994 Z M 703.4999999999999 374.37499999999994 L 703.4999999999999 376.87499999999994 L 705.7322330470333 376.87499999999994 L 706.9822330470333 375.62499999999994 L 705.7322330470333 374.37499999999994 Z" fill-opacity="0.6980392156862745"/><path fill="rgb(0,0,0)" stroke="none" paint-order="stroke fill markers" d=" M 471.6161165235167 376.5088834764831 L 476.6161165235167 381.5088834764831 C 477.1042718882058 381.9970388411722 477.89572811179397 381.9970388411722 478.38388347648305 381.5088834764831 C 478.8720388411721 381.020728111794 478.8720388411721 380.22927188820586 478.38388347648305 379.7411165235168 L 473.38388347648305 374.7411165235168 C 472.89572811179397 374.2529611588277 472.1042718882058 374.2529611588277 471.6161165235167 374.7411165235168 C 471.12796115882765 375.22927188820586 471.12796115882765 376.020728111794 471.6161165235167 376.5088834764831 Z M 476.6161165235167 369.7411165235168 L 471.6161165235167 374.7411165235168 C 471.12796115882765 375.22927188820586 471.12796115882765 376.020728111794 471.6161165235167 376.5088834764831 C 472.1042718882058 376.9970388411722 472.89572811179397 376.9970388411722 473.38388347648305 376.5088834764831 L 478.38388347648305 371.5088834764831 C 478.8720388411721 371.020728111794 478.8720388411721 370.22927188820586 478.38388347648305 369.7411165235168 C 477.89572811179397 369.2529611588277 477.1042718882058 369.2529611588277 476.6161165235167 369.7411165235168 Z" fill-opacity="0.6980392156862745"/><path fill="rgb(0,0,0)" stroke="none" paint-order="stroke fill markers" d=" M 707.8661165235166 374.7411165235168 L 702.8661165235166 379.7411165235168 C 702.3779611588275 380.2292718882059 702.3779611588276 381.0207281117941 702.8661165235167 381.50888347648316 C 703.3542718882057 381.99703884117224 704.1457281117939 381.99703884117224 704.633883476483 381.5088834764831 L 709.633883476483 376.5088834764831 C 710.1220388411721 376.02072811179397 710.122038841172 375.2292718882058 709.6338834764829 374.7411165235167 C 709.1457281117938 374.25296115882765 708.3542718882056 374.25296115882765 707.8661165235166 374.7411165235168 Z M 702.8661165235166 371.5088834764831 L 707.8661165235166 376.5088834764831 C 708.3542718882056 376.99703884117224 709.1457281117938 376.99703884117224 709.6338834764829 376.50888347648316 C 710.122038841172 376.0207281117941 710.1220388411721 375.2292718882059 709.633883476483 374.7411165235168 L 704.633883476483 369.7411165235168 C 704.1457281117939 369.25296115882765 703.3542718882057 369.25296115882765 702.8661165235167 369.7411165235167 C 702.3779611588276 370.2292718882058 702.3779611588275 371.02072811179397 702.8661165235166 371.5088834764831 Z" fill-opacity="0.6980392156862745"/><text fill="rgb(0,0,0)" stroke="none" font-family="geogebra-sans-serif, sans-serif" font-size="16px" font-style="normal" font-weight="normal" text-decoration="normal" x="740" y="236" text-anchor="start" dominant-baseline="alphabetic" fill-opacity="1">Tan(x)</text><text fill="none" stroke="rgb(255,255,255)" font-family="geogebra-sans-serif, sans-serif" font-size="16px" font-style="normal" font-weight="normal" text-decoration="normal" x="740" y="236" text-anchor="start" dominant-baseline="alphabetic" stroke-opacity="1" stroke-linejoin="bevel" stroke-miterlimit="10" stroke-width="3">Tan(x)</text><text fill="rgb(0,0,0)" stroke="none" font-family="geogebra-sans-serif, sans-serif" font-size="16px" font-style="normal" font-weight="normal" text-decoration="normal" x="740" y="236" text-anchor="start" dominant-baseline="alphabetic" fill-opacity="1">Tan(x)</text><path fill="rgb(0,0,0)" stroke="none" paint-order="stroke fill markers" d=" M 732.3749999999998 117.51776695296645 L 731.1249999999998 118.76776695296644 L 731.1249999999998 120.99999999999994 L 733.6249999999998 120.99999999999994 L 733.6249999999998 118.76776695296644 L 732.3749999999998 117.51776695296645 Z M 731.1249999999998 124.99999999999994 L 731.1249999999998 131.49999999999994 L 733.6249999999998 131.49999999999994 L 733.6249999999998 124.99999999999994 Z M 731.1249999999998 135.49999999999994 L 731.1249999999998 141.99999999999994 L 733.6249999999998 141.99999999999994 L 733.6249999999998 135.49999999999994 Z M 731.1249999999998 145.99999999999994 L 731.1249999999998 152.49999999999994 L 733.6249999999998 152.49999999999994 L 733.6249999999998 145.99999999999994 Z M 731.1249999999998 156.49999999999994 L 731.1249999999998 162.99999999999994 L 733.6249999999998 162.99999999999994 L 733.6249999999998 156.49999999999994 Z M 731.1249999999998 166.99999999999994 L 731.1249999999998 173.49999999999994 L 733.6249999999998 173.49999999999994 L 733.6249999999998 166.99999999999994 Z M 731.1249999999998 177.49999999999994 L 731.1249999999998 183.99999999999994 L 733.6249999999998 183.99999999999994 L 733.6249999999998 177.49999999999994 Z M 731.1249999999998 187.99999999999994 L 731.1249999999998 194.49999999999994 L 733.6249999999998 194.49999999999994 L 733.6249999999998 187.99999999999994 Z M 731.1249999999998 198.49999999999994 L 731.1249999999998 204.99999999999994 L 733.6249999999998 204.99999999999994 L 733.6249999999998 198.49999999999994 Z M 731.1249999999998 208.99999999999994 L 731.1249999999998 215.49999999999994 L 733.6249999999998 215.49999999999994 L 733.6249999999998 208.99999999999994 Z M 731.1249999999998 219.49999999999994 L 731.1249999999998 225.99999999999994 L 733.6249999999998 225.99999999999994 L 733.6249999999998 219.49999999999994 Z M 731.1249999999998 229.99999999999994 L 731.1249999999998 236.49999999999994 L 733.6249999999998 236.49999999999994 L 733.6249999999998 229.99999999999994 Z M 731.1249999999998 240.49999999999994 L 731.1249999999998 246.99999999999994 L 733.6249999999998 246.99999999999994 L 733.6249999999998 240.49999999999994 Z M 731.1249999999998 250.99999999999994 L 731.1249999999998 257.49999999999994 L 733.6249999999998 257.49999999999994 L 733.6249999999998 250.99999999999994 Z M 731.1249999999998 261.49999999999994 L 731.1249999999998 267.99999999999994 L 733.6249999999998 267.99999999999994 L 733.6249999999998 261.49999999999994 Z M 731.1249999999998 271.99999999999994 L 731.1249999999998 278.49999999999994 L 733.6249999999998 278.49999999999994 L 733.6249999999998 271.99999999999994 Z M 731.1249999999998 282.49999999999994 L 731.1249999999998 288.99999999999994 L 733.6249999999998 288.99999999999994 L 733.6249999999998 282.49999999999994 Z M 731.1249999999998 292.99999999999994 L 731.1249999999998 299.49999999999994 L 733.6249999999998 299.49999999999994 L 733.6249999999998 292.99999999999994 Z M 731.1249999999998 303.49999999999994 L 731.1249999999998 309.99999999999994 L 733.6249999999998 309.99999999999994 L 733.6249999999998 303.49999999999994 Z M 731.1249999999998 313.99999999999994 L 731.1249999999998 320.49999999999994 L 733.6249999999998 320.49999999999994 L 733.6249999999998 313.99999999999994 Z M 731.1249999999998 324.49999999999994 L 731.1249999999998 330.99999999999994 L 733.6249999999998 330.99999999999994 L 733.6249999999998 324.49999999999994 Z M 731.1249999999998 334.99999999999994 L 731.1249999999998 341.49999999999994 L 733.6249999999998 341.49999999999994 L 733.6249999999998 334.99999999999994 Z M 731.1249999999998 345.49999999999994 L 731.1249999999998 348.9822330470337 L 732.3749999999998 350.2322330470337 L 733.6249999999998 348.9822330470337 L 733.6249999999998 345.49999999999994 Z" fill-opacity="0.6980392156862745"/><path fill="rgb(0,0,0)" stroke="none" paint-order="stroke fill markers" d=" M 733.2588834764829 352.8838834764832 L 738.2588834764829 347.8838834764832 C 738.7470388411721 347.39572811179414 738.7470388411721 346.604271888206 738.258883476483 346.1161165235169 C 737.7707281117939 345.6279611588278 736.9792718882057 345.6279611588277 736.4911165235167 346.1161165235168 L 731.4911165235167 351.1161165235168 C 731.0029611588275 351.60427188820586 731.0029611588275 352.395728111794 731.4911165235166 352.8838834764831 C 731.9792718882056 353.3720388411722 732.7707281117938 353.3720388411723 733.2588834764829 352.8838834764832 Z M 726.4911165235167 347.8838834764832 L 731.4911165235167 352.8838834764832 C 731.9792718882057 353.3720388411723 732.7707281117939 353.3720388411722 733.258883476483 352.8838834764831 C 733.7470388411721 352.395728111794 733.7470388411721 351.60427188820586 733.2588834764829 351.1161165235168 L 728.2588834764829 346.1161165235168 C 727.7707281117938 345.6279611588277 726.9792718882056 345.6279611588278 726.4911165235166 346.1161165235169 C 726.0029611588275 346.604271888206 726.0029611588275 347.39572811179414 726.4911165235167 347.8838834764832 Z" fill-opacity="0.6980392156862745"/><path fill="rgb(0,0,0)" stroke="none" paint-order="stroke fill markers" d=" M 731.4911165235166 116.63388347648322 L 736.4911165235166 121.63388347648322 C 736.9792718882057 122.1220388411723 737.7707281117939 122.1220388411723 738.258883476483 121.63388347648322 C 738.7470388411721 121.14572811179414 738.7470388411721 120.35427188820586 738.258883476483 119.86611652351678 L 733.258883476483 114.86611652351678 C 732.7707281117938 114.3779611588277 731.9792718882056 114.3779611588277 731.4911165235166 114.86611652351678 C 731.0029611588275 115.35427188820586 731.0029611588275 116.14572811179414 731.4911165235166 116.63388347648322 Z M 728.258883476483 121.63388347648322 L 733.258883476483 116.63388347648322 C 733.7470388411721 116.14572811179414 733.7470388411721 115.35427188820586 733.258883476483 114.86611652351678 C 732.7707281117939 114.3779611588277 731.9792718882057 114.3779611588277 731.4911165235166 114.86611652351678 L 726.4911165235166 119.86611652351678 C 726.0029611588275 120.35427188820586 726.0029611588275 121.14572811179414 726.4911165235166 121.63388347648322 C 726.9792718882056 122.1220388411723 727.7707281117938 122.1220388411723 728.258883476483 121.63388347648322 Z" fill-opacity="0.6980392156862745"/><path fill="rgb(97,97,97)" stroke="none" paint-order="stroke fill markers" d=" M 475.4999999999999 351.99999999999994 C 475.4999999999999 353.6568542494923 474.15685424949226 354.99999999999994 472.4999999999999 354.99999999999994 C 470.8431457505075 354.99999999999994 469.4999999999999 353.6568542494923 469.4999999999999 351.99999999999994 C 469.4999999999999 350.3431457505076 470.8431457505075 348.99999999999994 472.4999999999999 348.99999999999994 C 474.15685424949226 348.99999999999994 475.4999999999999 350.3431457505076 475.4999999999999 351.99999999999994 Z" fill-opacity="1"/><path fill="none" stroke="rgb(0,0,0)" paint-order="fill stroke markers" d=" M 475.4999999999999 351.99999999999994 C 475.4999999999999 353.6568542494923 474.15685424949226 354.99999999999994 472.4999999999999 354.99999999999994 C 470.8431457505075 354.99999999999994 469.4999999999999 353.6568542494923 469.4999999999999 351.99999999999994 C 469.4999999999999 350.3431457505076 470.8431457505075 348.99999999999994 472.4999999999999 348.99999999999994 C 474.15685424949226 348.99999999999994 475.4999999999999 350.3431457505076 475.4999999999999 351.99999999999994 Z" stroke-opacity="1" stroke-linecap="round" stroke-linejoin="round" stroke-miterlimit="10"/><path fill="rgb(97,97,97)" stroke="none" paint-order="stroke fill markers" d=" M 711.7499999999998 351.99999999999994 C 711.7499999999998 353.6568542494923 710.4068542494922 354.99999999999994 708.7499999999998 354.99999999999994 C 707.0931457505073 354.99999999999994 705.7499999999998 353.6568542494923 705.7499999999998 351.99999999999994 C 705.7499999999998 350.3431457505076 707.0931457505073 348.99999999999994 708.7499999999998 348.99999999999994 C 710.4068542494922 348.99999999999994 711.7499999999998 350.3431457505076 711.7499999999998 351.99999999999994 Z" fill-opacity="1"/><path fill="none" stroke="rgb(0,0,0)" paint-order="fill stroke markers" d=" M 711.7499999999998 351.99999999999994 C 711.7499999999998 353.6568542494923 710.4068542494922 354.99999999999994 708.7499999999998 354.99999999999994 C 707.0931457505073 354.99999999999994 705.7499999999998 353.6568542494923 705.7499999999998 351.99999999999994 C 705.7499999999998 350.3431457505076 707.0931457505073 348.99999999999994 708.7499999999998 348.99999999999994 C 710.4068542494922 348.99999999999994 711.7499999999998 350.3431457505076 711.7499999999998 351.99999999999994 Z" stroke-opacity="1" stroke-linecap="round" stroke-linejoin="round" stroke-miterlimit="10"/><path fill="rgb(97,97,97)" stroke="none" paint-order="stroke fill markers" d=" M 711.7499999999998 115.75 C 711.7499999999998 117.40685424949238 710.4068542494922 118.75 708.7499999999998 118.75 C 707.0931457505073 118.75 705.7499999999998 117.40685424949238 705.7499999999998 115.75 C 705.7499999999998 114.09314575050762 707.0931457505073 112.75 708.7499999999998 112.75 C 710.4068542494922 112.75 711.7499999999998 114.09314575050762 711.7499999999998 115.75 Z" fill-opacity="1"/><path fill="none" stroke="rgb(0,0,0)" paint-order="fill stroke markers" d=" M 711.7499999999998 115.75 C 711.7499999999998 117.40685424949238 710.4068542494922 118.75 708.7499999999998 118.75 C 707.0931457505073 118.75 705.7499999999998 117.40685424949238 705.7499999999998 115.75 C 705.7499999999998 114.09314575050762 707.0931457505073 112.75 708.7499999999998 112.75 C 710.4068542494922 112.75 711.7499999999998 114.09314575050762 711.7499999999998 115.75 Z" stroke-opacity="1" stroke-linecap="round" stroke-linejoin="round" stroke-miterlimit="10"/></g></g></svg>