<svg version="1.1" xmlns="http://www.w3.org/2000/svg" xmlns:xlink="http://www.w3.org/1999/xlink" width="949" height="704"><defs><clipPath id="cuzUcOGdItVQ"><path fill="none" stroke="none" d=" M 0 0 L 949 0 L 949 704 L 0 704 L 0 0 Z"/></clipPath></defs><g transform="scale(1,1)" clip-path="url(#cuzUcOGdItVQ)"><g><rect fill="rgb(0,0,0)" stroke="none" x="0" y="0" width="949" height="704" fill-opacity="1"/><path fill="none" stroke="rgb(255,0,51)" paint-order="fill stroke markers" d=" M 497.45701145839814 709 L -5 206.54298854160186" stroke-opacity="0.7019607843137254" stroke-linecap="round" stroke-linejoin="round" stroke-miterlimit="10" stroke-width="4.5"/><path fill="rgb(255,255,255)" stroke="none" paint-order="stroke fill markers" d=" M 616.0756673433046 426.81296666006904 L 616.0756673433045 426.81296666006904 C 616.1515277974171 426.9963405076239 616.1894580244735 427.19170807990275 616.189458024474 427.3870756521817 L 616.1894580244741 427.3870756521817 C 616.1894580244737 427.18371622574153 616.148989893891 426.98980863764194 616.0756674049122 426.81296666006904 Z M 616.1894539516218 427.3905821163119 L 616.1894539516217 427.3905821163119 C 616.1890027666815 427.58480245131074 616.151065349699 427.7789518715871 616.0756417006743 427.96124662505724 L 616.0756417047223 427.96124662505724 C 616.1485588548735 427.78540463492084 616.1889915733417 427.5926878497102 616.1894540132406 427.3905821163119 Z M 33.039958775050536 425.8870756521855 C 32.211531650304345 425.8870756521855 31.539958775050536 426.5586485274393 31.539958775050536 427.3870756521855 C 31.539958775050536 428.2155027769317 32.211531650304345 428.8870756521855 33.039958775050536 428.8870756521855 L 611.0681376809146 428.8870756521855 L 612.5681376809144 427.38707565218556 L 612.5681376809146 427.38707565218556 L 611.0681376809146 425.8870756521855 Z" fill-opacity="0.6980392156862745"/><path fill="rgb(255,255,255)" stroke="none" paint-order="stroke fill markers" d=" M 613.6287978526943 426.3264154804057 L 607.6287978526943 432.3264154804057 C 607.0430114150674 432.91220191803257 607.0430114150674 433.8619493863384 607.6287978526943 434.4477358239653 C 608.2145842903212 435.03352226159217 609.164331758627 435.0335222615922 609.7501181962539 434.44773582396533 L 615.7501181962539 428.44773582396533 C 616.3359046338808 427.86194938633844 616.3359046338808 426.9122019180326 615.7501181962539 426.32641548040573 C 615.164331758627 425.74062904277883 614.2145842903212 425.7406290427788 613.6287978526943 426.3264154804057 Z M 607.6287978526943 422.44773582396533 L 613.6287978526943 428.44773582396533 C 614.2145842903212 429.0335222615922 615.164331758627 429.03352226159217 615.7501181962539 428.4477358239653 C 616.3359046338808 427.8619493863384 616.3359046338808 426.91220191803257 615.7501181962539 426.3264154804057 L 609.7501181962539 420.3264154804057 C 609.164331758627 419.7406290427788 608.2145842903212 419.74062904277883 607.6287978526943 420.32641548040573 C 607.0430114150674 420.9122019180326 607.0430114150674 421.86194938633844 607.6287978526943 422.44773582396533 Z" fill-opacity="0.6980392156862745"/><path fill="rgb(255,255,255)" stroke="none" paint-order="stroke fill markers" d=" M 282.31831190949157 93.51593322394785 C 282.11493263700555 93.51593371309852 281.9210071044192 93.55641023132085 281.7441513260773 93.62974676427001 L 281.7441513509062 93.62974676427001 C 281.9275400620534 93.55387154429869 282.1229259624325 93.51593369752462 282.31831193769233 93.51593322394785 Z M 282.3183192897826 93.51593322394794 L 282.31831928978255 93.51593322394794 C 282.5137052533721 93.51593370205663 282.70909114136435 93.55387154883066 282.892479841558 93.62974676427001 L 282.89247986638685 93.62974676427001 C 282.71562409830585 93.55641023557573 282.5216985779611 93.51593371779529 282.3183193183718 93.51593322394794 Z M 282.3183155962321 97.13725356750307 L 280.8183155962321 98.63725356750307 L 280.8183155962321 676.665432473367 C 280.8183155962321 677.4938595981132 281.48988847148587 678.165432473367 282.3183155962321 678.165432473367 C 283.1467427209783 678.165432473367 283.8183155962321 677.4938595981132 283.8183155962321 676.665432473367 L 283.8183155962321 98.63725356750307 L 282.3183155962321 97.13725356750307 Z" fill-opacity="0.6980392156862745"/><path fill="rgb(255,255,255)" stroke="none" paint-order="stroke fill markers" d=" M 281.25765542445225 96.07659339572325 L 287.25765542445225 102.07659339572325 C 287.8434418620792 102.66237983335014 288.793189330385 102.66237983335014 289.3789757680119 102.07659339572325 C 289.9647622056388 101.49080695809636 289.9647622056388 100.54105948979048 289.3789757680119 99.95527305216359 L 283.3789757680119 93.95527305216359 C 282.79318933038496 93.3694866145367 281.84344186207915 93.3694866145367 281.25765542445225 93.95527305216359 C 280.67186898682536 94.54105948979048 280.67186898682536 95.49080695809636 281.25765542445225 96.07659339572325 Z M 277.3789757680119 102.07659339572325 L 283.3789757680119 96.07659339572325 C 283.9647622056388 95.49080695809636 283.9647622056388 94.54105948979048 283.3789757680119 93.95527305216359 C 282.793189330385 93.3694866145367 281.8434418620792 93.3694866145367 281.25765542445225 93.95527305216359 L 275.25765542445225 99.95527305216359 C 274.67186898682536 100.54105948979048 274.67186898682536 101.49080695809636 275.25765542445225 102.07659339572325 C 275.84344186207915 102.66237983335014 276.79318933038496 102.66237983335014 277.3789757680119 102.07659339572325 Z" fill-opacity="0.6980392156862745"/><path fill="rgb(0,0,0)" stroke="none" paint-order="stroke fill markers" d=" M 914.2978099173529 59.46095041322474 C 914.2978099173529 60.013235163055526 913.8500946671837 60.46095041322474 913.2978099173529 60.46095041322474 C 912.745525167522 60.46095041322474 912.2978099173529 60.013235163055526 912.2978099173529 59.46095041322474 C 912.2978099173529 58.90866566339394 912.745525167522 58.46095041322474 913.2978099173529 58.46095041322474 C 913.8500946671837 58.46095041322474 914.2978099173529 58.90866566339394 914.2978099173529 59.46095041322474 Z" fill-opacity="1"/><g transform="scale(44,44)"><g transform="translate(14.181818181818182,9.955909090909092)"><path fill="rgb(192,192,192)" stroke="none" paint-order="stroke fill markers" d=" M 0.20600000000000002 -0.4 L 0.132 -0.105 Q 0.126 -0.08 0.126 -0.057 Q 0.126 -0.011 0.157 -0.011 Q 0.223 -0.011 0.273 -0.108 L 0.28700000000000003 -0.139 Q 0.293 -0.152 0.302 -0.153 Q 0.314 -0.153 0.314 -0.14300000000000002 Q 0.314 -0.13 0.28800000000000003 -0.08600000000000001 Q 0.23 0.011 0.155 0.011 Q 0.097 0.011 0.073 -0.037 Q 0.063 -0.057 0.063 -0.081 Q 0.063 -0.1 0.124 -0.34 L 0.139 -0.4 L 0.051000000000000004 -0.4 Q 0.026000000000000002 -0.4 0.024 -0.40800000000000003 L 0.023 -0.40800000000000003 L 0.023 -0.41200000000000003 Q 0.023 -0.429 0.039 -0.431 L 0.053 -0.431 L 0.147 -0.431 L 0.186 -0.59 Q 0.195 -0.625 0.226 -0.626 Q 0.252 -0.626 0.255 -0.599 Q 0.255 -0.593 0.214 -0.431 L 0.302 -0.431 Q 0.328 -0.431 0.33 -0.42 Q 0.33 -0.402 0.314 -0.4 L 0.313 -0.4 L 0.3 -0.4 L 0.20600000000000002 -0.4 Z"/></g></g><g transform="scale(25,25)"><g transform="translate(23.64,16.871000000000002)"><path fill="rgb(192,192,192)" stroke="none" paint-order="stroke fill markers" d=" M 0.391 -0.374 L 0.391 -0.374 Q 0.37 -0.418 0.301 -0.42 Q 0.22 -0.42 0.195 -0.359 Q 0.189 -0.34400000000000003 0.189 -0.33 Q 0.189 -0.291 0.23700000000000002 -0.277 L 0.23700000000000002 -0.277 L 0.23800000000000002 -0.276 Q 0.245 -0.274 0.265 -0.27 Q 0.327 -0.257 0.34800000000000003 -0.242 Q 0.357 -0.23600000000000002 0.365 -0.228 Q 0.396 -0.197 0.396 -0.155 Q 0.396 -0.10300000000000001 0.357 -0.056 Q 0.301 0.011 0.195 0.011 Q 0.10200000000000001 0.011 0.066 -0.041 Q 0.052000000000000005 -0.061 0.052000000000000005 -0.08600000000000001 Q 0.052000000000000005 -0.135 0.09 -0.149 Q 0.099 -0.152 0.108 -0.152 Q 0.14100000000000001 -0.147 0.145 -0.117 Q 0.145 -0.08600000000000001 0.11800000000000001 -0.07100000000000001 Q 0.10200000000000001 -0.061 0.082 -0.064 Q 0.105 -0.011 0.196 -0.011 Q 0.299 -0.011 0.331 -0.08600000000000001 Q 0.339 -0.105 0.339 -0.121 Q 0.339 -0.169 0.28 -0.187 L 0.28 -0.187 L 0.279 -0.187 Q 0.264 -0.191 0.23500000000000001 -0.197 Q 0.145 -0.216 0.134 -0.277 Q 0.132 -0.28600000000000003 0.132 -0.296 Q 0.132 -0.34600000000000003 0.17 -0.389 Q 0.217 -0.442 0.301 -0.442 Q 0.38 -0.442 0.41000000000000003 -0.393 Q 0.42 -0.376 0.42 -0.356 Q 0.42 -0.311 0.386 -0.302 Q 0.38 -0.3 0.374 -0.3 Q 0.34600000000000003 -0.304 0.343 -0.329 Q 0.343 -0.356 0.37 -0.369 Q 0.38 -0.374 0.391 -0.374 Z"/></g></g><path fill="none" stroke="rgb(0,204,0)" paint-order="fill stroke markers" d=" M 64.87304687499997 -8.099909883655243 L 66.72656249999997 -1.4166074108670728 L 68.58007812499997 5.225349472806329 L 70.43359375 11.825960767364847 L 72.28710937499997 18.385226472808426 L 74.14062499999997 24.90314658913718 L 75.99414062499997 31.379721116351107 L 77.84765625 37.81495005445021 L 79.70117187499997 44.20883340343431 L 81.5546875 50.56137116330365 L 83.40820312499997 56.87256333405804 L 85.26171875 63.14240991569767 L 87.11523437499997 69.37091090822236 L 88.96875 75.55806631163222 L 90.82226562499997 81.70387612592714 L 92.67578125 87.80834035110729 L 94.52929687500003 93.87145898717262 L 96.3828125 99.89323203412295 L 98.23632812499997 105.87365949195839 L 100.08984375 111.81274136067907 L 101.943359375 117.71047764028498 L 103.796875 123.56686833077578 L 105.65039062499997 129.3819134321518 L 107.50390625 135.155612944413 L 109.357421875 140.88796686755938 L 111.2109375 146.57897520159082 L 113.06445312499997 152.22863794650732 L 114.91796875 157.8369551023091 L 116.771484375 163.403926668996 L 118.625 168.92955264656797 L 120.478515625 174.41383303502505 L 122.33203125 179.85676783436736 L 124.185546875 185.25835704459476 L 126.0390625 190.61860066570725 L 127.892578125 195.9374986977049 L 129.74609375 201.21505114058772 L 131.599609375 206.45125799435561 L 133.453125 211.64611925900877 L 135.306640625 216.7996349345469 L 137.16015625 221.91180502097023 L 139.013671875 226.9826295182787 L 140.8671875 232.01210842647234 L 144.57421874999997 241.94702947551497 L 148.28124999999997 251.7165681680981 L 151.98828125 261.32072450422186 L 155.6953125 270.75949848388603 L 159.40234375 280.0328901070908 L 163.109375 289.14089937383613 L 166.81640625 298.08352628412194 L 170.5234375 306.8607708379483 L 174.23046874999997 315.4726330353152 L 177.9375 323.9191128762227 L 181.64453125 332.2002103606707 L 185.3515625 340.3159254886592 L 189.05859375 348.2662582601883 L 192.765625 356.0512086752579 L 196.47265625 363.670776733868 L 200.1796875 371.12496243601873 L 203.88671875 378.4137657817099 L 207.59375 385.5371867709417 L 211.30078125 392.49522540371396 L 215.0078125 399.28788168002677 L 218.71484375 405.91515559988017 L 222.421875 412.3770471632741 L 226.12890625 418.67355637020853 L 229.8359375 424.8046832206835 L 233.54296875 430.770427714699 L 237.25 436.5707898522551 L 240.95703125 442.2057696333517 L 244.6640625 447.67536705798875 L 248.37109375 452.97958212616646 L 252.078125 458.11841483788464 L 255.78515625 463.0918651931434 L 259.4921875 467.8999331919427 L 263.19921875 472.5426188342825 L 266.90625 477.01992212016285 L 270.61328125 481.33184304958377 L 274.3203125 485.47838162254516 L 278.02734375 489.45953783904713 L 281.734375 493.2753116990897 L 285.44140625 496.9257032026727 L 289.1484375 500.41071234979626 L 292.85546875 503.7303391404604 L 296.5625 506.88458357466504 L 300.26953125 509.8734456524103 L 303.9765625 512.696925373696 L 307.68359375 515.3550227385223 L 311.390625 517.847737746889 L 315.09765625 520.1750703987964 L 318.8046875 522.3370206942443 L 322.51171875 524.3335886332327 L 326.21875 526.1647742157617 L 329.92578125 527.8305774418312 L 333.6328125 529.3309983114412 L 337.33984375 530.6660368245919 L 341.046875 531.8356929812829 L 344.75390625 532.8399667815146 L 348.4609375 533.6788582252867 L 352.16796875 534.3523673125994 L 355.87500000000006 534.8604940434527 L 359.58203125 535.2032384178465 L 363.28906250000006 535.3806004357808 L 366.99609375 535.3925800972557 L 370.70312500000006 535.2391774022711 L 374.41015625 534.9203923508271 L 378.11718750000006 534.4362249429236 L 381.82421875 533.7866751785606 L 385.53125000000006 532.9717430577382 L 389.23828125 531.9914285804563 L 392.94531250000006 530.8457317467149 L 396.65234375 529.5346525565141 L 400.359375 528.0581910098538 L 404.06640625 526.4163471067341 L 407.7734375 524.6091208471548 L 411.48046875 522.6365122311162 L 415.1875 520.498521258618 L 418.89453125 518.1951479296604 L 422.6015625 515.7263922442434 L 426.30859375 513.0922542023668 L 430.015625 510.29273380403083 L 433.72265625 507.32783104923544 L 437.4296875 504.19754593798046 L 441.13671875 500.9018784702661 L 444.84375 497.44082864609226 L 448.55078125 493.814396465459 L 452.2578125 490.0225819283662 L 455.96484375 486.065385034814 L 459.671875 481.9428057848023 L 463.37890625 477.6548441783312 L 467.0859375 473.20150021540053 L 470.79296875 468.5827738960105 L 474.5 463.79866522016096 L 478.20703125000006 458.84917418785193 L 481.9140625 453.7343007990835 L 485.62109375000006 448.4540450538555 L 489.328125 443.00840695216823 L 493.03515625000006 437.3973864940213 L 496.7421875 431.620983679415 L 500.44921875000006 425.6791985083492 L 504.15625 419.5720309808241 L 507.86328125000006 413.2994810968393 L 511.5703125 406.8615488563952 L 515.27734375 400.25823425949153 L 518.984375 393.4895373061285 L 522.69140625 386.5554579963059 L 526.3984375 379.45599633002394 L 530.10546875 372.19115230728244 L 533.8125 364.7609259280816 L 537.51953125 357.1653171924211 L 541.2265625 349.4043261003013 L 544.93359375 341.4779526517219 L 548.640625 333.3861968466833 L 552.34765625 325.1290586851849 L 556.0546875 316.7065381672273 L 559.76171875 308.11863529281004 L 563.46875 299.36535006193355 L 567.17578125 290.4466824745973 L 570.8828125 281.3626325308019 L 574.58984375 272.11320023054674 L 578.296875 262.69838557383235 L 582.00390625 253.11818856065833 L 585.7109375 243.37260919102502 L 589.41796875 233.46164746493207 L 591.271484375 228.44414821821326 L 593.125 223.38530338237985 L 594.978515625 218.2851129574313 L 596.83203125 213.14357694336798 L 598.685546875 207.96069534018966 L 600.5390625 202.7364681478966 L 602.392578125 197.47089536648886 L 604.24609375 192.16397699596595 L 606.099609375 186.81571303632825 L 607.953125 181.4261034875757 L 609.806640625 175.9951483497085 L 611.66015625 170.5228476227262 L 613.513671875 165.009201306629 L 615.3671875 159.45420940141702 L 617.220703125 153.85787190709027 L 619.07421875 148.22018882364853 L 620.927734375 142.5411601510919 L 622.78125 136.82078588942034 L 624.634765625 131.05906603863423 L 626.48828125 125.25600059873301 L 628.341796875 119.41158956971685 L 630.1953125 113.52583295158598 L 632.048828125 107.59873074434034 L 633.90234375 101.63028294797965 L 635.755859375 95.62048956250402 L 637.609375 89.56935058791362 L 639.462890625 83.4768660242085 L 641.31640625 77.34303587138845 L 643.169921875 71.16786012945346 L 645.0234375 64.95133879840358 L 646.876953125 58.693471878238995 L 648.73046875 52.39425936895941 L 650.583984375 46.05370127056494 L 652.4375 39.671797583055536 L 654.291015625 33.248548306431246 L 656.14453125 26.783953440692414 L 657.998046875 20.278012985838586 L 659.8515625 13.730726941869705 L 661.705078125 7.142095308786054 L 663.55859375 0.5121180865876909 L 665.4121093750001 -6.15920472472601" stroke-opacity="0.4" stroke-linejoin="round" stroke-miterlimit="10" stroke-width="3" stroke-dasharray="7,4"/><path fill="none" stroke="rgb(0,204,0)" paint-order="fill stroke markers" d=" M 282.31831476530425 493.86130330690605 L 285.44140625 496.9257032026727 M 285.44140625 496.9257032026727 L 289.1484375 500.4107123497963 M 289.1484375 500.4107123497963 L 292.85546875 503.7303391404604 L 296.5625 506.88458357466504 M 296.5625 506.88458357466504 L 300.26953125 509.8734456524103 L 303.9765625 512.696925373696 L 307.68359375 515.3550227385223 L 311.390625 517.847737746889 L 315.09765625 520.1750703987964 L 318.8046875 522.3370206942443 L 322.51171875 524.3335886332327 L 326.21875 526.1647742157617 L 329.92578125 527.8305774418312 L 333.6328125 529.3309983114412 L 337.33984375 530.6660368245919 L 341.046875 531.8356929812829 L 344.75390625 532.8399667815146 L 348.4609375 533.6788582252867 L 352.16796875 534.3523673125994 L 355.875 534.8604940434527 M 355.875 534.8604940434527 L 359.58203125 535.2032384178465 L 363.2890625 535.3806004357808 L 366.99609375 535.3925800972557 L 370.703125 535.2391774022711 L 374.41015625 534.9203923508271 L 378.1171875 534.4362249429236 L 381.82421875 533.7866751785606 L 385.53125 532.9717430577382 L 389.23828125 531.9914285804563 L 392.9453125 530.8457317467149 L 396.65234375 529.5346525565141 L 400.359375 528.0581910098538 L 404.06640625 526.4163471067341 L 407.7734375 524.6091208471548 L 411.48046875 522.6365122311162 L 415.1875 520.498521258618 L 418.89453125 518.1951479296604 L 422.6015625 515.7263922442434 L 426.30859375 513.0922542023668 L 430.015625 510.29273380403083 L 433.72265625 507.3278310492354 L 437.4296875 504.19754593798046 L 441.13671875 500.9018784702661 L 444.84375 497.44082864609226 L 448.55078125 493.81439646545897 L 452.2578125 490.0225819283662 L 455.96484375 486.06538503481397 L 459.671875 481.9428057848023 L 463.37890625 477.65484417833113 L 467.0859375 473.20150021540053 L 470.79296875 468.5827738960105 L 474.5 463.79866522016096 M 474.5 463.79866522016096 L 478.20703125 458.84917418785193 L 481.9140625 453.7343007990835 L 485.62109375 448.45404505385557 L 489.328125 443.00840695216823 L 493.03515625 437.39738649402136 L 496.7421875 431.620983679415 L 500.44921875 425.6791985083493 L 504.15625 419.5720309808241 L 507.86328125 413.2994810968394 L 511.5703125 406.8615488563952 L 515.27734375 400.2582342594916 L 518.984375 393.4895373061285 L 522.69140625 386.55545799630596 L 526.3984375 379.45599633002394 L 530.10546875 372.1911523072825 L 533.8125 364.7609259280816 M 533.8125 364.7609259280816 L 537.51953125 357.1653171924212 L 541.2265625 349.4043261003013 M 541.2265625 349.4043261003013 L 544.93359375 341.47795265172203 M 544.93359375 341.47795265172203 L 548.2152303697535 334.3231539442365" stroke-opacity="1" stroke-linecap="round" stroke-linejoin="round" stroke-miterlimit="10" stroke-width="5"/><path fill="none" stroke="rgb(192,192,192)" paint-order="fill stroke markers" d=" M 548.2152295388257 334.3231557722777 L 282.3183155962321 334.3231557722777" stroke-opacity="0.5019607843137255" stroke-linejoin="round" stroke-miterlimit="10" stroke-width="3" stroke-dasharray="7,4"/><path fill="none" stroke="rgb(192,192,192)" paint-order="fill stroke markers" d=" M 548.2152295388257 334.3231557722777 L 548.2152295388257 427.3870756521855" stroke-opacity="0.5019607843137255" stroke-linejoin="round" stroke-miterlimit="10" stroke-width="3" stroke-dasharray="7,4"/><path fill="rgb(0,204,0)" stroke="none" paint-order="stroke fill markers" d=" M 290.3183155962321 493.86130413783394 C 290.3183155962321 498.27958213648026 286.7365935948784 501.86130413783394 282.3183155962321 501.86130413783394 C 277.9000375975857 501.86130413783394 274.3183155962321 498.27958213648026 274.3183155962321 493.86130413783394 C 274.3183155962321 489.44302613918757 277.9000375975857 485.86130413783394 282.3183155962321 485.86130413783394 C 286.7365935948784 485.86130413783394 290.3183155962321 489.44302613918757 290.3183155962321 493.86130413783394 Z" fill-opacity="1"/><path fill="none" stroke="rgb(0,0,0)" paint-order="fill stroke markers" d=" M 290.3183155962321 493.86130413783394 C 290.3183155962321 498.27958213648026 286.7365935948784 501.86130413783394 282.3183155962321 501.86130413783394 C 277.9000375975857 501.86130413783394 274.3183155962321 498.27958213648026 274.3183155962321 493.86130413783394 C 274.3183155962321 489.44302613918757 277.9000375975857 485.86130413783394 282.3183155962321 485.86130413783394 C 286.7365935948784 485.86130413783394 290.3183155962321 489.44302613918757 290.3183155962321 493.86130413783394 Z" stroke-opacity="1" stroke-linecap="round" stroke-linejoin="round" stroke-miterlimit="10"/><path fill="rgb(255,255,255)" stroke="none" paint-order="stroke fill markers" d=" M 290.3183155962321 334.3231557722777 C 290.3183155962321 338.741433770924 286.7365935948784 342.3231557722777 282.3183155962321 342.3231557722777 C 277.9000375975857 342.3231557722777 274.3183155962321 338.741433770924 274.3183155962321 334.3231557722777 C 274.3183155962321 329.9048777736313 277.9000375975857 326.3231557722777 282.3183155962321 326.3231557722777 C 286.7365935948784 326.3231557722777 290.3183155962321 329.9048777736313 290.3183155962321 334.3231557722777 Z" fill-opacity="1"/><path fill="none" stroke="rgb(0,0,0)" paint-order="fill stroke markers" d=" M 290.3183155962321 334.3231557722777 C 290.3183155962321 338.741433770924 286.7365935948784 342.3231557722777 282.3183155962321 342.3231557722777 C 277.9000375975857 342.3231557722777 274.3183155962321 338.741433770924 274.3183155962321 334.3231557722777 C 274.3183155962321 329.9048777736313 277.9000375975857 326.3231557722777 282.3183155962321 326.3231557722777 C 286.7365935948784 326.3231557722777 290.3183155962321 329.9048777736313 290.3183155962321 334.3231557722777 Z" stroke-opacity="1" stroke-linecap="round" stroke-linejoin="round" stroke-miterlimit="10"/><path fill="rgb(0,204,0)" stroke="none" paint-order="stroke fill markers" d=" M 556.2152295388257 334.3231557722777 C 556.2152295388257 338.741433770924 552.633507537472 342.3231557722777 548.2152295388257 342.3231557722777 C 543.7969515401794 342.3231557722777 540.2152295388257 338.741433770924 540.2152295388257 334.3231557722777 C 540.2152295388257 329.9048777736313 543.7969515401794 326.3231557722777 548.2152295388257 326.3231557722777 C 552.633507537472 326.3231557722777 556.2152295388257 329.9048777736313 556.2152295388257 334.3231557722777 Z" fill-opacity="1"/><path fill="none" stroke="rgb(0,0,0)" paint-order="fill stroke markers" d=" M 556.2152295388257 334.3231557722777 C 556.2152295388257 338.741433770924 552.633507537472 342.3231557722777 548.2152295388257 342.3231557722777 C 543.7969515401794 342.3231557722777 540.2152295388257 338.741433770924 540.2152295388257 334.3231557722777 C 540.2152295388257 329.9048777736313 543.7969515401794 326.3231557722777 548.2152295388257 326.3231557722777 C 552.633507537472 326.3231557722777 556.2152295388257 329.9048777736313 556.2152295388257 334.3231557722777 Z" stroke-opacity="1" stroke-linecap="round" stroke-linejoin="round" stroke-miterlimit="10"/><path fill="rgb(255,255,255)" stroke="none" paint-order="stroke fill markers" d=" M 556.2152295388257 427.3870756521855 C 556.2152295388257 431.8053536508319 552.633507537472 435.3870756521855 548.2152295388257 435.3870756521855 C 543.7969515401794 435.3870756521855 540.2152295388257 431.8053536508319 540.2152295388257 427.3870756521855 C 540.2152295388257 422.9687976535391 543.7969515401794 419.3870756521855 548.2152295388257 419.3870756521855 C 552.633507537472 419.3870756521855 556.2152295388257 422.9687976535391 556.2152295388257 427.3870756521855 Z" fill-opacity="1"/><path fill="none" stroke="rgb(0,0,0)" paint-order="fill stroke markers" d=" M 556.2152295388257 427.3870756521855 C 556.2152295388257 431.8053536508319 552.633507537472 435.3870756521855 548.2152295388257 435.3870756521855 C 543.7969515401794 435.3870756521855 540.2152295388257 431.8053536508319 540.2152295388257 427.3870756521855 C 540.2152295388257 422.9687976535391 543.7969515401794 419.3870756521855 548.2152295388257 419.3870756521855 C 552.633507537472 419.3870756521855 556.2152295388257 422.9687976535391 556.2152295388257 427.3870756521855 Z" stroke-opacity="1" stroke-linecap="round" stroke-linejoin="round" stroke-miterlimit="10"/><g transform="scale(44,44)"><g transform="translate(12.25,10.705909090909092)"><path fill="rgb(255,255,255)" stroke="none" paint-order="stroke fill markers" d=" M 0.20600000000000002 -0.4 L 0.132 -0.105 Q 0.126 -0.08 0.126 -0.057 Q 0.126 -0.011 0.157 -0.011 Q 0.223 -0.011 0.273 -0.108 L 0.28700000000000003 -0.139 Q 0.293 -0.152 0.302 -0.153 Q 0.314 -0.153 0.314 -0.14300000000000002 Q 0.314 -0.13 0.28800000000000003 -0.08600000000000001 Q 0.23 0.011 0.155 0.011 Q 0.097 0.011 0.073 -0.037 Q 0.063 -0.057 0.063 -0.081 Q 0.063 -0.1 0.124 -0.34 L 0.139 -0.4 L 0.051000000000000004 -0.4 Q 0.026000000000000002 -0.4 0.024 -0.40800000000000003 L 0.023 -0.40800000000000003 L 0.023 -0.41200000000000003 Q 0.023 -0.429 0.039 -0.431 L 0.053 -0.431 L 0.147 -0.431 L 0.186 -0.59 Q 0.195 -0.625 0.226 -0.626 Q 0.252 -0.626 0.255 -0.599 Q 0.255 -0.593 0.214 -0.431 L 0.302 -0.431 Q 0.328 -0.431 0.33 -0.42 Q 0.33 -0.402 0.314 -0.4 L 0.313 -0.4 L 0.3 -0.4 L 0.20600000000000002 -0.4 Z"/></g><g transform="translate(12.611,10.855909090909092) scale(0.7,0.7)"><path fill="rgb(255,255,255)" stroke="none" paint-order="stroke fill markers" d=" M 0.294 -0.64 L 0.294 -0.079 Q 0.294 -0.049 0.306 -0.041 Q 0.323 -0.031 0.387 -0.031 L 0.419 -0.031 L 0.419 0 Q 0.384 -0.003 0.257 -0.003 Q 0.13 -0.003 0.095 0 L 0.095 -0.031 L 0.127 -0.031 Q 0.20400000000000001 -0.031 0.215 -0.049 L 0.216 -0.05 Q 0.22 -0.058 0.22 -0.079 L 0.22 -0.597 Q 0.168 -0.5710000000000001 0.089 -0.5710000000000001 L 0.089 -0.602 Q 0.209 -0.602 0.271 -0.666 Q 0.29 -0.666 0.293 -0.659 L 0.293 -0.659 L 0.293 -0.658 Q 0.294 -0.655 0.294 -0.64 Z"/></g></g><g transform="scale(44,44)"><g transform="translate(5.068181818181818,11.340090909090907)"><path fill="rgb(255,255,255)" stroke="none" paint-order="stroke fill markers" d=" M 0.334 -0.302 L 0.3 -0.165 Q 0.28300000000000003 -0.097 0.28300000000000003 -0.077 Q 0.28300000000000003 -0.025 0.32 -0.014 Q 0.328 -0.011 0.338 -0.011 Q 0.388 -0.011 0.429 -0.061 Q 0.456 -0.093 0.47100000000000003 -0.14200000000000002 Q 0.47400000000000003 -0.153 0.484 -0.153 Q 0.496 -0.153 0.496 -0.14300000000000002 Q 0.496 -0.11800000000000001 0.465 -0.07100000000000001 Q 0.41100000000000003 0.011 0.336 0.011 Q 0.268 0.011 0.23700000000000002 -0.046 Q 0.231 -0.055 0.228 -0.065 Q 0.20400000000000001 -0.017 0.162 0.002 Q 0.14300000000000002 0.011 0.123 0.011 Q 0.063 0.011 0.039 -0.024 Q 0.029 -0.037 0.029 -0.055 Q 0.029 -0.092 0.061 -0.107 Q 0.07200000000000001 -0.113 0.084 -0.113 Q 0.114 -0.113 0.12 -0.088 Q 0.121 -0.083 0.121 -0.078 Q 0.121 -0.044 0.08700000000000001 -0.028 Q 0.081 -0.025 0.074 -0.024 Q 0.095 -0.011 0.124 -0.011 Q 0.177 -0.011 0.20800000000000002 -0.082 Q 0.214 -0.097 0.219 -0.115 Q 0.273 -0.319 0.273 -0.353 Q 0.267 -0.41500000000000004 0.219 -0.42 Q 0.167 -0.42 0.124 -0.367 L 0.124 -0.366 Q 0.124 -0.365 0.123 -0.365 Q 0.108 -0.34500000000000003 0.096 -0.319 Q 0.091 -0.307 0.08700000000000001 -0.295 L 0.085 -0.289 Q 0.083 -0.278 0.07200000000000001 -0.278 Q 0.06 -0.278 0.06 -0.28800000000000003 Q 0.06 -0.313 0.092 -0.36 Q 0.146 -0.442 0.221 -0.442 Q 0.298 -0.442 0.329 -0.366 Q 0.361 -0.428 0.41400000000000003 -0.44 Q 0.424 -0.442 0.434 -0.442 Q 0.493 -0.442 0.517 -0.40900000000000003 Q 0.527 -0.395 0.527 -0.376 Q 0.527 -0.335 0.49 -0.321 Q 0.481 -0.318 0.47300000000000003 -0.318 Q 0.442 -0.318 0.436 -0.34500000000000003 Q 0.435 -0.34900000000000003 0.435 -0.353 Q 0.435 -0.383 0.464 -0.4 Q 0.47300000000000003 -0.405 0.483 -0.40700000000000003 Q 0.462 -0.42 0.433 -0.42 Q 0.365 -0.42 0.337 -0.314 Q 0.335 -0.308 0.334 -0.302 Z"/></g><g transform="translate(5.640181818181818,11.490090909090908) scale(0.7,0.7)"><path fill="rgb(255,255,255)" stroke="none" paint-order="stroke fill markers" d=" M 0.46 -0.32 Q 0.46 -0.17400000000000002 0.423 -0.094 Q 0.364 0.018000000000000002 0.249 0.022 Q 0.158 0.022 0.10300000000000001 -0.05 Q 0.092 -0.063 0.084 -0.079 Q 0.039 -0.162 0.039 -0.32 Q 0.039 -0.467 0.076 -0.547 Q 0.126 -0.659 0.23800000000000002 -0.666 L 0.25 -0.666 Q 0.339 -0.666 0.395 -0.595 L 0.395 -0.594 Q 0.40900000000000003 -0.5760000000000001 0.42 -0.554 Q 0.46 -0.46900000000000003 0.46 -0.32 M 0.249 0 L 0.249 0 Q 0.312 0 0.34600000000000003 -0.061 Q 0.36 -0.088 0.366 -0.125 Q 0.377 -0.189 0.377 -0.332 Q 0.377 -0.47100000000000003 0.367 -0.527 Q 0.34900000000000003 -0.622 0.275 -0.641 Q 0.262 -0.644 0.249 -0.644 Q 0.179 -0.644 0.147 -0.5740000000000001 Q 0.136 -0.55 0.13 -0.516 Q 0.122 -0.462 0.122 -0.332 Q 0.122 -0.181 0.133 -0.121 Q 0.151 -0.025 0.221 -0.004 Q 0.23500000000000001 0 0.249 0 Z"/></g></g><g transform="scale(44,44)"><g transform="translate(6.181818181818182,1.7037272727272728)"><path fill="rgb(192,192,192)" stroke="none" paint-order="stroke fill markers" d=" M 0.334 -0.302 L 0.3 -0.165 Q 0.28300000000000003 -0.097 0.28300000000000003 -0.077 Q 0.28300000000000003 -0.025 0.32 -0.014 Q 0.328 -0.011 0.338 -0.011 Q 0.388 -0.011 0.429 -0.061 Q 0.456 -0.093 0.47100000000000003 -0.14200000000000002 Q 0.47400000000000003 -0.153 0.484 -0.153 Q 0.496 -0.153 0.496 -0.14300000000000002 Q 0.496 -0.11800000000000001 0.465 -0.07100000000000001 Q 0.41100000000000003 0.011 0.336 0.011 Q 0.268 0.011 0.23700000000000002 -0.046 Q 0.231 -0.055 0.228 -0.065 Q 0.20400000000000001 -0.017 0.162 0.002 Q 0.14300000000000002 0.011 0.123 0.011 Q 0.063 0.011 0.039 -0.024 Q 0.029 -0.037 0.029 -0.055 Q 0.029 -0.092 0.061 -0.107 Q 0.07200000000000001 -0.113 0.084 -0.113 Q 0.114 -0.113 0.12 -0.088 Q 0.121 -0.083 0.121 -0.078 Q 0.121 -0.044 0.08700000000000001 -0.028 Q 0.081 -0.025 0.074 -0.024 Q 0.095 -0.011 0.124 -0.011 Q 0.177 -0.011 0.20800000000000002 -0.082 Q 0.214 -0.097 0.219 -0.115 Q 0.273 -0.319 0.273 -0.353 Q 0.267 -0.41500000000000004 0.219 -0.42 Q 0.167 -0.42 0.124 -0.367 L 0.124 -0.366 Q 0.124 -0.365 0.123 -0.365 Q 0.108 -0.34500000000000003 0.096 -0.319 Q 0.091 -0.307 0.08700000000000001 -0.295 L 0.085 -0.289 Q 0.083 -0.278 0.07200000000000001 -0.278 Q 0.06 -0.278 0.06 -0.28800000000000003 Q 0.06 -0.313 0.092 -0.36 Q 0.146 -0.442 0.221 -0.442 Q 0.298 -0.442 0.329 -0.366 Q 0.361 -0.428 0.41400000000000003 -0.44 Q 0.424 -0.442 0.434 -0.442 Q 0.493 -0.442 0.517 -0.40900000000000003 Q 0.527 -0.395 0.527 -0.376 Q 0.527 -0.335 0.49 -0.321 Q 0.481 -0.318 0.47300000000000003 -0.318 Q 0.442 -0.318 0.436 -0.34500000000000003 Q 0.435 -0.34900000000000003 0.435 -0.353 Q 0.435 -0.383 0.464 -0.4 Q 0.47300000000000003 -0.405 0.483 -0.40700000000000003 Q 0.462 -0.42 0.433 -0.42 Q 0.365 -0.42 0.337 -0.314 Q 0.335 -0.308 0.334 -0.302 Z"/></g></g><g transform="scale(44,44)"><g transform="translate(6.681818181818182,15.189454545454545)"><path fill="rgb(255,255,255)" stroke="none" paint-order="stroke fill markers" d=" M 0.20600000000000002 -0.4 L 0.132 -0.105 Q 0.126 -0.08 0.126 -0.057 Q 0.126 -0.011 0.157 -0.011 Q 0.223 -0.011 0.273 -0.108 L 0.28700000000000003 -0.139 Q 0.293 -0.152 0.302 -0.153 Q 0.314 -0.153 0.314 -0.14300000000000002 Q 0.314 -0.13 0.28800000000000003 -0.08600000000000001 Q 0.23 0.011 0.155 0.011 Q 0.097 0.011 0.073 -0.037 Q 0.063 -0.057 0.063 -0.081 Q 0.063 -0.1 0.124 -0.34 L 0.139 -0.4 L 0.051000000000000004 -0.4 Q 0.026000000000000002 -0.4 0.024 -0.40800000000000003 L 0.023 -0.40800000000000003 L 0.023 -0.41200000000000003 Q 0.023 -0.429 0.039 -0.431 L 0.053 -0.431 L 0.147 -0.431 L 0.186 -0.59 Q 0.195 -0.625 0.226 -0.626 Q 0.252 -0.626 0.255 -0.599 Q 0.255 -0.593 0.214 -0.431 L 0.302 -0.431 Q 0.328 -0.431 0.33 -0.42 Q 0.33 -0.402 0.314 -0.4 L 0.313 -0.4 L 0.3 -0.4 L 0.20600000000000002 -0.4 Z"/></g><g transform="translate(7.042818181818181,15.339454545454545) scale(0.7,0.7)"><path fill="rgb(255,255,255)" stroke="none" paint-order="stroke fill markers" d=" M 0.46 -0.32 Q 0.46 -0.17400000000000002 0.423 -0.094 Q 0.364 0.018000000000000002 0.249 0.022 Q 0.158 0.022 0.10300000000000001 -0.05 Q 0.092 -0.063 0.084 -0.079 Q 0.039 -0.162 0.039 -0.32 Q 0.039 -0.467 0.076 -0.547 Q 0.126 -0.659 0.23800000000000002 -0.666 L 0.25 -0.666 Q 0.339 -0.666 0.395 -0.595 L 0.395 -0.594 Q 0.40900000000000003 -0.5760000000000001 0.42 -0.554 Q 0.46 -0.46900000000000003 0.46 -0.32 M 0.249 0 L 0.249 0 Q 0.312 0 0.34600000000000003 -0.061 Q 0.36 -0.088 0.366 -0.125 Q 0.377 -0.189 0.377 -0.332 Q 0.377 -0.47100000000000003 0.367 -0.527 Q 0.34900000000000003 -0.622 0.275 -0.641 Q 0.262 -0.644 0.249 -0.644 Q 0.179 -0.644 0.147 -0.5740000000000001 Q 0.136 -0.55 0.13 -0.516 Q 0.122 -0.462 0.122 -0.332 Q 0.122 -0.181 0.133 -0.121 Q 0.151 -0.025 0.221 -0.004 Q 0.23500000000000001 0 0.249 0 Z"/></g><g transform="translate(7.67059595959596,15.189454545454545)"><path fill="rgb(255,255,255)" stroke="none" paint-order="stroke fill markers" d=" M 0.687 -0.327 L 0.09 -0.327 Q 0.058 -0.327 0.056 -0.34700000000000003 Q 0.056 -0.367 0.089 -0.367 L 0.6880000000000001 -0.367 Q 0.72 -0.367 0.721 -0.34700000000000003 Q 0.721 -0.327 0.687 -0.327 M 0.6880000000000001 -0.133 L 0.089 -0.133 Q 0.057 -0.133 0.056 -0.153 Q 0.056 -0.17300000000000001 0.09 -0.17300000000000001 L 0.687 -0.17300000000000001 Q 0.719 -0.17300000000000001 0.721 -0.153 Q 0.721 -0.133 0.6880000000000001 -0.133 Z"/></g><g transform="translate(8.726373737373738,15.189454545454545)"><path fill="rgb(255,255,255)" stroke="none" paint-order="stroke fill markers" d=" M 0.46 -0.32 Q 0.46 -0.17400000000000002 0.423 -0.094 Q 0.364 0.018000000000000002 0.249 0.022 Q 0.158 0.022 0.10300000000000001 -0.05 Q 0.092 -0.063 0.084 -0.079 Q 0.039 -0.162 0.039 -0.32 Q 0.039 -0.467 0.076 -0.547 Q 0.126 -0.659 0.23800000000000002 -0.666 L 0.25 -0.666 Q 0.339 -0.666 0.395 -0.595 L 0.395 -0.594 Q 0.40900000000000003 -0.5760000000000001 0.42 -0.554 Q 0.46 -0.46900000000000003 0.46 -0.32 M 0.249 0 L 0.249 0 Q 0.312 0 0.34600000000000003 -0.061 Q 0.36 -0.088 0.366 -0.125 Q 0.377 -0.189 0.377 -0.332 Q 0.377 -0.47100000000000003 0.367 -0.527 Q 0.34900000000000003 -0.622 0.275 -0.641 Q 0.262 -0.644 0.249 -0.644 Q 0.179 -0.644 0.147 -0.5740000000000001 Q 0.136 -0.55 0.13 -0.516 Q 0.122 -0.462 0.122 -0.332 Q 0.122 -0.181 0.133 -0.121 Q 0.151 -0.025 0.221 -0.004 Q 0.23500000000000001 0 0.249 0 Z"/></g></g><g transform="scale(44,44)"><g transform="translate(5.113636363636363,7.7037272727272725)"><path fill="rgb(255,255,255)" stroke="none" paint-order="stroke fill markers" d=" M 0.334 -0.302 L 0.3 -0.165 Q 0.28300000000000003 -0.097 0.28300000000000003 -0.077 Q 0.28300000000000003 -0.025 0.32 -0.014 Q 0.328 -0.011 0.338 -0.011 Q 0.388 -0.011 0.429 -0.061 Q 0.456 -0.093 0.47100000000000003 -0.14200000000000002 Q 0.47400000000000003 -0.153 0.484 -0.153 Q 0.496 -0.153 0.496 -0.14300000000000002 Q 0.496 -0.11800000000000001 0.465 -0.07100000000000001 Q 0.41100000000000003 0.011 0.336 0.011 Q 0.268 0.011 0.23700000000000002 -0.046 Q 0.231 -0.055 0.228 -0.065 Q 0.20400000000000001 -0.017 0.162 0.002 Q 0.14300000000000002 0.011 0.123 0.011 Q 0.063 0.011 0.039 -0.024 Q 0.029 -0.037 0.029 -0.055 Q 0.029 -0.092 0.061 -0.107 Q 0.07200000000000001 -0.113 0.084 -0.113 Q 0.114 -0.113 0.12 -0.088 Q 0.121 -0.083 0.121 -0.078 Q 0.121 -0.044 0.08700000000000001 -0.028 Q 0.081 -0.025 0.074 -0.024 Q 0.095 -0.011 0.124 -0.011 Q 0.177 -0.011 0.20800000000000002 -0.082 Q 0.214 -0.097 0.219 -0.115 Q 0.273 -0.319 0.273 -0.353 Q 0.267 -0.41500000000000004 0.219 -0.42 Q 0.167 -0.42 0.124 -0.367 L 0.124 -0.366 Q 0.124 -0.365 0.123 -0.365 Q 0.108 -0.34500000000000003 0.096 -0.319 Q 0.091 -0.307 0.08700000000000001 -0.295 L 0.085 -0.289 Q 0.083 -0.278 0.07200000000000001 -0.278 Q 0.06 -0.278 0.06 -0.28800000000000003 Q 0.06 -0.313 0.092 -0.36 Q 0.146 -0.442 0.221 -0.442 Q 0.298 -0.442 0.329 -0.366 Q 0.361 -0.428 0.41400000000000003 -0.44 Q 0.424 -0.442 0.434 -0.442 Q 0.493 -0.442 0.517 -0.40900000000000003 Q 0.527 -0.395 0.527 -0.376 Q 0.527 -0.335 0.49 -0.321 Q 0.481 -0.318 0.47300000000000003 -0.318 Q 0.442 -0.318 0.436 -0.34500000000000003 Q 0.435 -0.34900000000000003 0.435 -0.353 Q 0.435 -0.383 0.464 -0.4 Q 0.47300000000000003 -0.405 0.483 -0.40700000000000003 Q 0.462 -0.42 0.433 -0.42 Q 0.365 -0.42 0.337 -0.314 Q 0.335 -0.308 0.334 -0.302 Z"/></g><g transform="translate(5.685636363636363,7.853727272727273) scale(0.7,0.7)"><path fill="rgb(255,255,255)" stroke="none" paint-order="stroke fill markers" d=" M 0.294 -0.64 L 0.294 -0.079 Q 0.294 -0.049 0.306 -0.041 Q 0.323 -0.031 0.387 -0.031 L 0.419 -0.031 L 0.419 0 Q 0.384 -0.003 0.257 -0.003 Q 0.13 -0.003 0.095 0 L 0.095 -0.031 L 0.127 -0.031 Q 0.20400000000000001 -0.031 0.215 -0.049 L 0.216 -0.05 Q 0.22 -0.058 0.22 -0.079 L 0.22 -0.597 Q 0.168 -0.5710000000000001 0.089 -0.5710000000000001 L 0.089 -0.602 Q 0.209 -0.602 0.271 -0.666 Q 0.29 -0.666 0.293 -0.659 L 0.293 -0.659 L 0.293 -0.658 Q 0.294 -0.655 0.294 -0.64 Z"/></g></g><g transform="scale(25,25)"><g transform="translate(11.64,4.831)"><path fill="rgb(192,192,192)" stroke="none" paint-order="stroke fill markers" d=" M 0.088 -0.059000000000000004 L 0.088 -0.059000000000000004 L 0.146 -0.29 Q 0.162 -0.354 0.162 -0.374 Q 0.162 -0.42 0.131 -0.42 Q 0.09 -0.42 0.064 -0.325 Q 0.061 -0.314 0.058 -0.301 Q 0.047 -0.279 0.041 -0.278 Q 0.029 -0.278 0.029 -0.28800000000000003 Q 0.029 -0.304 0.048 -0.356 Q 0.054 -0.373 0.06 -0.385 Q 0.084 -0.434 0.12 -0.441 Q 0.127 -0.442 0.134 -0.442 Q 0.188 -0.442 0.214 -0.397 Q 0.224 -0.378 0.226 -0.355 Q 0.29 -0.442 0.382 -0.442 Q 0.433 -0.442 0.464 -0.41600000000000004 Q 0.492 -0.392 0.496 -0.34500000000000003 Q 0.5640000000000001 -0.442 0.659 -0.442 Q 0.748 -0.442 0.769 -0.373 L 0.769 -0.372 Q 0.774 -0.355 0.774 -0.335 Q 0.774 -0.28200000000000003 0.713 -0.115 Q 0.6950000000000001 -0.07100000000000001 0.6950000000000001 -0.044 Q 0.6950000000000001 -0.011 0.719 -0.011 Q 0.781 -0.011 0.8170000000000001 -0.121 L 0.8210000000000001 -0.135 Q 0.8260000000000001 -0.151 0.8310000000000001 -0.152 L 0.8310000000000001 -0.153 L 0.836 -0.153 Q 0.848 -0.153 0.848 -0.14300000000000002 Q 0.848 -0.126 0.8270000000000001 -0.08 Q 0.784 0.011 0.717 0.011 Q 0.666 0.011 0.644 -0.032 Q 0.635 -0.05 0.635 -0.07100000000000001 Q 0.635 -0.091 0.648 -0.126 Q 0.71 -0.29 0.71 -0.35000000000000003 Q 0.71 -0.42 0.656 -0.42 Q 0.5680000000000001 -0.42 0.51 -0.325 Q 0.494 -0.3 0.491 -0.28700000000000003 Q 0.488 -0.274 0.431 -0.046 Q 0.42 -0.003 0.406 0.006 L 0.405 0.007 L 0.404 0.007 Q 0.397 0.011 0.386 0.011 Q 0.361 0.006 0.357 -0.016 L 0.37 -0.075 L 0.39 -0.151 L 0.418 -0.267 Q 0.433 -0.323 0.433 -0.35000000000000003 Q 0.433 -0.42 0.379 -0.42 Q 0.289 -0.42 0.228 -0.32 Q 0.221 -0.309 0.216 -0.298 L 0.203 -0.248 Q 0.198 -0.225 0.186 -0.181 L 0.164 -0.091 Q 0.147 -0.022 0.145 -0.017 Q 0.136 0.009000000000000001 0.108 0.011 Q 0.083 0.006 0.079 -0.016 Q 0.079 -0.014 0.088 -0.059000000000000004 Z"/></g></g><path fill="rgb(255,255,255)" stroke="none" paint-order="stroke fill markers" d=" M 290.3183155962321 427.3870756521855 C 290.3183155962321 431.8053536508319 286.7365935948784 435.3870756521855 282.3183155962321 435.3870756521855 C 277.9000375975857 435.3870756521855 274.3183155962321 431.8053536508319 274.3183155962321 427.3870756521855 C 274.3183155962321 422.9687976535391 277.9000375975857 419.3870756521855 282.3183155962321 419.3870756521855 C 286.7365935948784 419.3870756521855 290.3183155962321 422.9687976535391 290.3183155962321 427.3870756521855 Z" fill-opacity="1"/><path fill="none" stroke="rgb(0,0,0)" paint-order="fill stroke markers" d=" M 290.3183155962321 427.3870756521855 C 290.3183155962321 431.8053536508319 286.7365935948784 435.3870756521855 282.3183155962321 435.3870756521855 C 277.9000375975857 435.3870756521855 274.3183155962321 431.8053536508319 274.3183155962321 427.3870756521855 C 274.3183155962321 422.9687976535391 277.9000375975857 419.3870756521855 282.3183155962321 419.3870756521855 C 286.7365935948784 419.3870756521855 290.3183155962321 422.9687976535391 290.3183155962321 427.3870756521855 Z" stroke-opacity="1" stroke-linecap="round" stroke-linejoin="round" stroke-miterlimit="10"/></g></g></svg>