<svg version="1.1" xmlns="http://www.w3.org/2000/svg" xmlns:xlink="http://www.w3.org/1999/xlink" width="949" height="704"><defs><clipPath id="hbIUxoFdAZby"><path fill="none" stroke="none" d=" M 0 0 L 949 0 L 949 704 L 0 704 L 0 0 Z"/></clipPath></defs><g transform="scale(1,1)" clip-path="url(#hbIUxoFdAZby)"><g><rect fill="rgb(0,0,0)" stroke="none" x="0" y="0" width="949" height="704" fill-opacity="1"/><path fill="rgb(255,255,255)" stroke="none" paint-order="stroke fill markers" d=" M 704.3502750646594 499.08570343867433 C 704.426132897122 499.2690745320902 704.4640618133533 499.4644387285015 704.4640618133532 499.6598029249127 L 704.4640618133533 499.6598029249127 C 704.4640618133533 499.4564471422262 704.423595132958 499.262542859171 704.3502751350945 499.08570343867433 Z M 704.4640571533735 499.66355362242217 C 704.4635747437518 499.8576928250496 704.42563739034 500.0517562368836 704.3502450931378 500.2339748558983 L 704.350245096296 500.2339748558983 C 704.4231331241959 500.058203440699 704.4635627816681 499.8655707479095 704.4640572238199 499.66355362242217 Z M 38.221776956868695 498.1598029249127 C 37.3933498321225 498.1598029249127 36.721776956868695 498.8313758001665 36.721776956868695 499.6598029249127 C 36.721776956868695 500.4882300496589 37.3933498321225 501.1598029249127 38.221776956868695 501.1598029249127 L 699.3427414697937 501.1598029249127 L 700.8427414697937 499.6598029249127 L 699.3427414697937 498.1598029249127 Z" fill-opacity="0.6980392156862745"/><path fill="rgb(255,255,255)" stroke="none" paint-order="stroke fill markers" d=" M 701.9034016415735 498.59914275313287 L 695.9034016415735 504.59914275313287 C 695.3176152039466 505.18492919075976 695.3176152039466 506.1346766590656 695.9034016415735 506.72046309669247 C 696.4891880792004 507.30624953431936 697.4389355475062 507.3062495343194 698.024721985133 506.7204630966925 L 704.024721985133 500.7204630966925 C 704.61050842276 500.13467665906563 704.61050842276 499.1849291907598 704.024721985133 498.5991427531329 C 703.4389355475062 498.01335631550603 702.4891880792004 498.013356315506 701.9034016415735 498.59914275313287 Z M 695.9034016415735 494.7204630966925 L 701.9034016415735 500.7204630966925 C 702.4891880792004 501.3062495343194 703.4389355475062 501.30624953431936 704.024721985133 500.72046309669247 C 704.61050842276 500.1346766590656 704.61050842276 499.18492919075976 704.024721985133 498.59914275313287 L 698.024721985133 492.59914275313287 C 697.4389355475062 492.013356315506 696.4891880792004 492.01335631550603 695.9034016415735 492.5991427531329 C 695.3176152039466 493.1849291907598 695.3176152039466 494.13467665906563 695.9034016415735 494.7204630966925 Z" fill-opacity="0.6980392156862745"/><path fill="rgb(255,255,255)" stroke="none" paint-order="stroke fill markers" d=" M 287.50013002685665 82.69587488961444 C 287.29675111304266 82.69587538731578 287.10282590677394 82.7363517713154 286.92597038232606 82.80968806733793 L 286.9259704091178 82.80968806733793 C 287.1093588463529 82.73381309737422 287.3047444128698 82.6958753714664 287.50013005557577 82.69587488961444 Z M 287.5001375406452 82.69587488961454 L 287.50013754064514 82.69587488961454 C 287.6955231699777 82.69587537665979 287.8909087223001 82.73381310256757 288.074297146983 82.80968806733793 L 288.0742971737747 82.80968806733793 C 287.8974416610801 82.73635177618911 287.7035164688335 82.69587539269567 287.50013756979206 82.69587488961454 Z M 287.5001337780504 86.31719523316951 L 286.0001337780504 87.8171952331695 L 286.0001337780504 709 C 286.0001337780504 709.8284271247462 286.67170665330417 710.5 287.5001337780504 710.5 C 288.3285609027966 710.5 289.0001337780504 709.8284271247462 289.0001337780504 709 L 289.0001337780504 87.8171952331695 L 287.5001337780504 86.31719523316951 Z" fill-opacity="0.6980392156862745"/><path fill="rgb(255,255,255)" stroke="none" paint-order="stroke fill markers" d=" M 286.43947360627055 83.13521471783002 L 280.43947360627055 89.13521471783002 C 279.85368716864366 89.72100115545692 279.85368716864366 90.67074862376279 280.43947360627055 91.25653506138968 C 281.02526004389745 91.84232149901658 281.9750075122033 91.84232149901658 282.5607939498302 91.25653506138968 L 288.5607939498302 85.25653506138968 C 289.1465803874571 84.67074862376279 289.1465803874571 83.72100115545692 288.5607939498302 83.13521471783002 C 287.9750075122033 82.54942828020313 287.02526004389745 82.54942828020313 286.43947360627055 83.13521471783002 Z M 294.5607939498302 89.13521471783002 L 288.5607939498302 83.13521471783002 C 287.9750075122033 82.54942828020313 287.02526004389745 82.54942828020313 286.43947360627055 83.13521471783002 C 285.85368716864366 83.72100115545692 285.85368716864366 84.67074862376279 286.43947360627055 85.25653506138968 L 292.43947360627055 91.25653506138968 C 293.02526004389745 91.84232149901658 293.9750075122033 91.84232149901658 294.5607939498302 91.25653506138968 C 295.1465803874571 90.67074862376279 295.1465803874571 89.72100115545692 294.5607939498302 89.13521471783002 Z" fill-opacity="0.6980392156862745"/><path fill="rgb(0,0,0)" stroke="none" paint-order="stroke fill markers" d=" M 919.4796280991716 131.73367768595176 C 919.4796280991716 132.28596243578255 919.0319128490024 132.73367768595176 918.4796280991716 132.73367768595176 C 917.9273433493407 132.73367768595176 917.4796280991716 132.28596243578255 917.4796280991716 131.73367768595176 C 917.4796280991716 131.18139293612097 917.9273433493407 130.73367768595176 918.4796280991716 130.73367768595176 C 919.0319128490024 130.73367768595176 919.4796280991716 131.18139293612097 919.4796280991716 131.73367768595176 Z" fill-opacity="1"/><g transform="scale(44,44)"><g transform="translate(16.181818181818183,11.592272727272727)"><path fill="rgb(192,192,192)" stroke="none" paint-order="stroke fill markers" d=" M 0.20600000000000002 -0.4 L 0.132 -0.105 Q 0.126 -0.08 0.126 -0.057 Q 0.126 -0.011 0.157 -0.011 Q 0.223 -0.011 0.273 -0.108 L 0.28700000000000003 -0.139 Q 0.293 -0.152 0.302 -0.153 Q 0.314 -0.153 0.314 -0.14300000000000002 Q 0.314 -0.13 0.28800000000000003 -0.08600000000000001 Q 0.23 0.011 0.155 0.011 Q 0.097 0.011 0.073 -0.037 Q 0.063 -0.057 0.063 -0.081 Q 0.063 -0.1 0.124 -0.34 L 0.139 -0.4 L 0.051000000000000004 -0.4 Q 0.026000000000000002 -0.4 0.024 -0.40800000000000003 L 0.023 -0.40800000000000003 L 0.023 -0.41200000000000003 Q 0.023 -0.429 0.039 -0.431 L 0.053 -0.431 L 0.147 -0.431 L 0.186 -0.59 Q 0.195 -0.625 0.226 -0.626 Q 0.252 -0.626 0.255 -0.599 Q 0.255 -0.593 0.214 -0.431 L 0.302 -0.431 Q 0.328 -0.431 0.33 -0.42 Q 0.33 -0.402 0.314 -0.4 L 0.313 -0.4 L 0.3 -0.4 L 0.20600000000000002 -0.4 Z"/></g></g><g transform="scale(25,25)"><g transform="translate(27.16,19.751)"><path fill="rgb(192,192,192)" stroke="none" paint-order="stroke fill markers" d=" M 0.391 -0.374 L 0.391 -0.374 Q 0.37 -0.418 0.301 -0.42 Q 0.22 -0.42 0.195 -0.359 Q 0.189 -0.34400000000000003 0.189 -0.33 Q 0.189 -0.291 0.23700000000000002 -0.277 L 0.23700000000000002 -0.277 L 0.23800000000000002 -0.276 Q 0.245 -0.274 0.265 -0.27 Q 0.327 -0.257 0.34800000000000003 -0.242 Q 0.357 -0.23600000000000002 0.365 -0.228 Q 0.396 -0.197 0.396 -0.155 Q 0.396 -0.10300000000000001 0.357 -0.056 Q 0.301 0.011 0.195 0.011 Q 0.10200000000000001 0.011 0.066 -0.041 Q 0.052000000000000005 -0.061 0.052000000000000005 -0.08600000000000001 Q 0.052000000000000005 -0.135 0.09 -0.149 Q 0.099 -0.152 0.108 -0.152 Q 0.14100000000000001 -0.147 0.145 -0.117 Q 0.145 -0.08600000000000001 0.11800000000000001 -0.07100000000000001 Q 0.10200000000000001 -0.061 0.082 -0.064 Q 0.105 -0.011 0.196 -0.011 Q 0.299 -0.011 0.331 -0.08600000000000001 Q 0.339 -0.105 0.339 -0.121 Q 0.339 -0.169 0.28 -0.187 L 0.28 -0.187 L 0.279 -0.187 Q 0.264 -0.191 0.23500000000000001 -0.197 Q 0.145 -0.216 0.134 -0.277 Q 0.132 -0.28600000000000003 0.132 -0.296 Q 0.132 -0.34600000000000003 0.17 -0.389 Q 0.217 -0.442 0.301 -0.442 Q 0.38 -0.442 0.41000000000000003 -0.393 Q 0.42 -0.376 0.42 -0.356 Q 0.42 -0.311 0.386 -0.302 Q 0.38 -0.3 0.374 -0.3 Q 0.34600000000000003 -0.304 0.343 -0.329 Q 0.343 -0.356 0.37 -0.369 Q 0.38 -0.374 0.391 -0.374 Z"/></g></g><path fill="none" stroke="rgb(255,102,0)" paint-order="fill stroke markers" d=" M 0.5 786.659936702963 L 0.5 787.659936702963 L 0.5 786.659936702963 L 1.5 785.659936702963 L 1.5 785.659936702963 L 2.5 784.659936702963 L 2.5 784.659936702963 L 3.499999999999943 783.6599367029631 L 3.499999999999943 783.6599367029631 L 4.499999999999943 782.6599367029631 L 4.499999999999943 782.6599367029631 L 5.499999999999943 781.6599367029631 L 5.499999999999943 781.6599367029631 L 6.499999999999943 780.6599367029631 L 6.499999999999943 780.6599367029631 L 7.5 779.659936702963 L 7.5 779.659936702963 L 8.5 778.659936702963 L 8.5 778.659936702963 L 9.5 777.659936702963 L 9.5 777.659936702963 L 10.5 776.659936702963 L 10.5 776.659936702963 L 11.5 775.659936702963 L 11.5 775.659936702963 L 12.5 774.659936702963 L 12.5 774.659936702963 L 13.5 773.659936702963 L 13.5 773.659936702963 L 14.5 772.659936702963 L 14.5 772.659936702963 L 15.5 771.659936702963 L 15.5 771.659936702963 L 16.5 770.659936702963 L 16.5 770.659936702963 L 17.5 769.659936702963 L 17.5 769.659936702963 L 18.499999999999943 768.6599367029631 L 18.499999999999943 768.6599367029631 L 19.499999999999943 767.6599367029631 L 19.499999999999943 767.6599367029631 L 20.499999999999943 766.6599367029631 L 20.499999999999943 766.6599367029631 L 21.499999999999943 765.6599367029631 L 21.499999999999943 765.6599367029631 L 22.499999999999943 764.6599367029631 L 22.499999999999943 764.6599367029631 L 23.5 763.659936702963 L 23.5 763.659936702963 L 24.5 762.659936702963 L 24.5 762.659936702963 L 25.5 761.659936702963 L 25.5 761.659936702963 L 26.5 760.659936702963 L 26.5 760.659936702963 L 27.5 759.659936702963 L 27.5 759.659936702963 L 28.5 758.659936702963 L 28.5 758.659936702963 L 29.5 757.659936702963 L 29.5 757.659936702963 L 30.5 756.659936702963 L 30.5 756.659936702963 L 31.5 755.659936702963 L 31.5 755.659936702963 L 32.5 754.659936702963 L 32.5 754.659936702963 L 33.50000000000003 753.659936702963 L 33.50000000000003 753.659936702963 L 34.50000000000003 752.659936702963 L 34.50000000000003 752.659936702963 L 35.49999999999994 751.6599367029631 L 35.49999999999994 751.6599367029631 L 36.49999999999997 750.6599367029631 L 36.49999999999997 750.6599367029631 L 37.49999999999997 749.6599367029631 L 37.49999999999997 749.6599367029631 L 38.49999999999997 748.6599367029631 L 38.49999999999997 748.6599367029631 L 39.49999999999997 747.6599367029631 L 39.49999999999997 747.6599367029631 L 40.49999999999997 746.6599367029631 L 40.49999999999997 746.6599367029631 L 41.49999999999997 745.6599367029631 L 41.49999999999997 745.6599367029631 L 42.49999999999997 744.6599367029631 L 42.49999999999997 744.6599367029631 L 43.5 743.659936702963 L 43.5 743.659936702963 L 44.5 742.659936702963 L 44.5 742.659936702963 L 45.5 741.659936702963 L 45.5 741.659936702963 L 46.5 740.659936702963 L 46.5 740.659936702963 L 47.5 739.659936702963 L 47.5 739.659936702963 L 48.5 738.659936702963 L 48.5 738.659936702963 L 49.50000000000003 737.659936702963 L 49.50000000000003 737.659936702963 L 50.49999999999994 736.6599367029631 L 50.49999999999994 736.6599367029631 L 51.49999999999994 735.6599367029631 L 51.49999999999994 735.6599367029631 L 52.49999999999994 734.6599367029631 L 52.49999999999994 734.6599367029631 L 53.49999999999997 733.6599367029631 L 53.49999999999997 733.6599367029631 L 54.49999999999997 732.6599367029631 L 54.49999999999997 732.6599367029631 L 55.49999999999997 731.6599367029631 L 55.49999999999997 731.6599367029631 L 56.49999999999997 730.6599367029631 L 56.49999999999997 730.6599367029631 L 57.49999999999997 729.6599367029631 L 57.49999999999997 729.6599367029631 L 58.49999999999997 728.6599367029631 L 58.49999999999997 728.6599367029631 L 59.5 727.659936702963 L 59.5 727.659936702963 L 60.5 726.659936702963 L 60.5 726.659936702963 L 61.5 725.659936702963 L 61.5 725.659936702963 L 62.5 724.659936702963 L 62.5 724.659936702963 L 63.5 723.659936702963 L 63.5 723.659936702963 L 64.5 722.659936702963 L 64.5 722.659936702963 L 65.50000000000003 721.659936702963 L 65.50000000000003 721.659936702963 L 66.50000000000003 720.659936702963 L 66.50000000000003 720.659936702963 L 67.49999999999994 719.6599367029631 L 67.49999999999994 719.6599367029631 L 68.49999999999994 718.6599367029631 L 68.49999999999994 718.6599367029631 L 69.49999999999997 717.6599367029631 L 69.49999999999997 717.6599367029631 L 70.49999999999997 716.6599367029631 L 70.49999999999997 716.6599367029631 L 71.49999999999997 715.6599367029631 L 71.49999999999997 715.6599367029631 L 72.49999999999997 714.6599367029631 L 72.49999999999997 714.6599367029631 L 73.49999999999997 713.6599367029631 L 73.49999999999997 713.6599367029631 L 74.49999999999997 712.6599367029631 L 74.49999999999997 712.6599367029631 L 75.5 711.659936702963 L 75.5 711.659936702963 L 76.5 710.659936702963 L 76.5 710.659936702963 L 77.5 709.659936702963 L 77.5 709.659936702963 L 78.5 708.659936702963 L 78.5 708.659936702963 L 79.5 707.659936702963 L 79.5 707.659936702963 L 80.5 706.659936702963 L 80.5 706.659936702963 L 81.50000000000003 705.659936702963 L 81.50000000000003 705.659936702963 L 82.49999999999994 704.6599367029631 L 82.49999999999994 704.6599367029631 L 83.49999999999994 703.6599367029631 L 83.49999999999994 703.6599367029631 L 84.49999999999994 702.6599367029631 L 84.49999999999994 702.6599367029631 L 85.49999999999997 701.6599367029631 L 85.49999999999997 701.6599367029631 L 86.49999999999997 700.6599367029631 L 86.49999999999997 700.6599367029631 L 87.49999999999997 699.6599367029631 L 87.49999999999997 699.6599367029631 L 88.49999999999997 698.6599367029631 L 88.49999999999997 698.6599367029631 L 89.49999999999997 697.6599367029631 L 89.49999999999997 697.6599367029631 L 90.49999999999997 696.6599367029631 L 90.49999999999997 696.6599367029631 L 91.5 695.659936702963 L 91.5 695.659936702963 L 92.5 694.659936702963 L 92.5 694.659936702963 L 93.5 693.659936702963 L 93.5 693.659936702963 L 94.5 692.659936702963 L 94.5 692.659936702963 L 95.5 691.659936702963 L 95.5 691.659936702963 L 96.5 690.659936702963 L 96.5 690.659936702963 L 97.50000000000003 689.659936702963 L 97.50000000000003 689.659936702963 L 98.50000000000003 688.659936702963 L 98.50000000000003 688.659936702963 L 99.49999999999994 687.6599367029631 L 99.49999999999994 687.6599367029631 L 100.49999999999994 686.6599367029631 L 100.49999999999994 686.6599367029631 L 101.49999999999997 685.6599367029631 L 101.49999999999997 685.6599367029631 L 102.49999999999997 684.6599367029631 L 102.49999999999997 684.6599367029631 L 103.49999999999997 683.6599367029631 L 103.49999999999997 683.6599367029631 L 104.49999999999997 682.6599367029631 L 104.49999999999997 682.6599367029631 L 105.49999999999997 681.6599367029631 L 105.49999999999997 681.6599367029631 L 106.49999999999997 680.6599367029631 L 106.49999999999997 680.6599367029631 L 107.5 679.659936702963 L 107.5 679.659936702963 L 108.5 678.659936702963 L 108.5 678.659936702963 L 109.5 677.659936702963 L 109.5 677.659936702963 L 110.5 676.659936702963 L 110.5 676.659936702963 L 111.5 675.659936702963 L 111.5 675.659936702963 L 112.5 674.659936702963 L 112.5 674.659936702963 L 113.5 673.659936702963 L 113.5 673.659936702963 L 114.49999999999994 672.6599367029631 L 114.49999999999994 672.6599367029631 L 115.49999999999994 671.6599367029631 L 115.49999999999994 671.6599367029631 L 116.49999999999994 670.6599367029631 L 116.49999999999994 670.6599367029631 L 117.49999999999997 669.6599367029631 L 117.49999999999997 669.6599367029631 L 118.49999999999997 668.6599367029631 L 118.49999999999997 668.6599367029631 L 119.49999999999997 667.6599367029631 L 119.49999999999997 667.6599367029631 L 120.49999999999997 666.6599367029631 L 120.49999999999997 666.6599367029631 L 121.49999999999997 665.6599367029631 L 121.49999999999997 665.6599367029631 L 122.49999999999997 664.6599367029631 L 122.49999999999997 664.6599367029631 L 123.49999999999997 663.6599367029631 L 123.49999999999997 663.6599367029631 L 124.5 662.659936702963 L 124.5 662.659936702963 L 125.5 661.659936702963 L 125.5 661.659936702963 L 126.5 660.659936702963 L 126.5 660.659936702963 L 127.5 659.659936702963 L 127.5 659.659936702963 L 128.5 658.659936702963 L 128.5 658.659936702963 L 129.5 657.659936702963 L 129.5 657.659936702963 L 130.50000000000003 656.659936702963 L 130.50000000000003 656.659936702963 L 131.49999999999994 655.6599367029631 L 131.49999999999994 655.6599367029631 L 132.49999999999994 654.6599367029631 L 132.49999999999994 654.6599367029631 L 133.49999999999994 653.6599367029631 L 133.49999999999994 653.6599367029631 L 134.49999999999997 652.6599367029631 L 134.49999999999997 652.6599367029631 L 135.49999999999997 651.6599367029631 L 135.49999999999997 651.6599367029631 L 136.49999999999997 650.6599367029631 L 136.49999999999997 650.6599367029631 L 137.49999999999997 649.6599367029631 L 137.49999999999997 649.6599367029631 L 138.49999999999997 648.6599367029631 L 138.49999999999997 648.6599367029631 L 139.49999999999997 647.6599367029631 L 139.49999999999997 647.6599367029631 L 140.5 646.659936702963 L 140.5 646.659936702963 L 141.5 645.659936702963 L 141.5 645.659936702963 L 142.5 644.659936702963 L 142.5 644.659936702963 L 143.49999999999997 643.6599367029631 L 143.49999999999997 643.6599367029631 L 144.49999999999997 642.6599367029631 L 144.49999999999997 642.6599367029631 L 145.49999999999997 641.6599367029631 L 145.49999999999997 641.6599367029631 L 146.49999999999997 640.6599367029631 L 146.49999999999997 640.6599367029631 L 147.49999999999997 639.6599367029631 L 147.49999999999997 639.6599367029631 L 148.5 638.659936702963 L 148.5 638.659936702963 L 149.5 637.659936702963 L 149.5 637.659936702963 L 150.49999999999997 636.6599367029631 L 150.49999999999997 636.6599367029631 L 151.49999999999997 635.6599367029631 L 151.49999999999997 635.6599367029631 L 152.49999999999997 634.6599367029631 L 152.49999999999997 634.6599367029631 L 153.49999999999997 633.6599367029631 L 153.49999999999997 633.6599367029631 L 154.49999999999997 632.6599367029631 L 154.49999999999997 632.6599367029631 L 155.49999999999997 631.6599367029631 L 155.49999999999997 631.6599367029631 L 156.5 630.659936702963 L 156.5 630.659936702963 L 157.5 629.659936702963 L 157.5 629.659936702963 L 158.5 628.659936702963 L 158.5 628.659936702963 L 159.49999999999997 627.6599367029631 L 159.49999999999997 627.6599367029631 L 160.49999999999997 626.6599367029631 L 160.49999999999997 626.6599367029631 L 161.49999999999997 625.6599367029631 L 161.49999999999997 625.6599367029631 L 162.49999999999997 624.6599367029631 L 162.49999999999997 624.6599367029631 L 163.5 623.6599367029631 L 163.5 623.6599367029631 L 164.5 622.6599367029631 L 164.5 622.6599367029631 L 165.5 621.6599367029631 L 165.5 621.6599367029631 L 166.49999999999994 620.6599367029631 L 166.49999999999994 620.6599367029631 L 167.49999999999994 619.6599367029631 L 167.49999999999994 619.6599367029631 L 168.49999999999997 618.6599367029631 L 168.49999999999997 618.6599367029631 L 169.49999999999997 617.6599367029631 L 169.49999999999997 617.6599367029631 L 170.49999999999997 616.6599367029631 L 170.49999999999997 616.6599367029631 L 171.5 615.6599367029631 L 171.5 615.6599367029631 L 172.5 614.6599367029631 L 172.5 614.6599367029631 L 173.5 613.6599367029631 L 173.5 613.6599367029631 L 174.5 612.659936702963 L 174.5 612.659936702963 L 175.49999999999994 611.6599367029631 L 175.49999999999994 611.6599367029631 L 176.49999999999997 610.6599367029631 L 176.49999999999997 610.6599367029631 L 177.49999999999997 609.6599367029631 L 177.49999999999997 609.6599367029631 L 178.49999999999997 608.6599367029631 L 178.49999999999997 608.6599367029631 L 179.5 607.6599367029631 L 179.5 607.6599367029631 L 180.5 606.6599367029631 L 180.5 606.6599367029631 L 181.5 605.6599367029631 L 181.5 605.6599367029631 L 182.49999999999994 604.6599367029631 L 182.49999999999994 604.6599367029631 L 183.49999999999994 603.6599367029631 L 183.49999999999994 603.6599367029631 L 184.49999999999997 602.6599367029631 L 184.49999999999997 602.6599367029631 L 185.49999999999997 601.6599367029631 L 185.49999999999997 601.6599367029631 L 186.49999999999997 600.6599367029631 L 186.49999999999997 600.6599367029631 L 187.5 599.6599367029631 L 187.5 599.6599367029631 L 188.5 598.6599367029631 L 188.5 598.6599367029631 L 189.5 597.6599367029631 L 189.5 597.6599367029631 L 190.5 596.659936702963 L 190.5 596.659936702963 L 191.49999999999994 595.6599367029631 L 191.49999999999994 595.6599367029631 L 192.49999999999997 594.6599367029631 L 192.49999999999997 594.6599367029631 L 193.49999999999997 593.6599367029631 L 193.49999999999997 593.6599367029631 L 194.49999999999997 592.6599367029631 L 194.49999999999997 592.6599367029631 L 195.5 591.6599367029631 L 195.5 591.6599367029631 L 196.5 590.6599367029631 L 196.5 590.6599367029631 L 197.5 589.6599367029631 L 197.5 589.6599367029631 L 198.49999999999994 588.6599367029631 L 198.49999999999994 588.6599367029631 L 199.49999999999994 587.6599367029631 L 199.49999999999994 587.6599367029631 L 200.49999999999997 586.6599367029631 L 200.49999999999997 586.6599367029631 L 201.49999999999997 585.6599367029631 L 201.49999999999997 585.6599367029631 L 202.49999999999997 584.6599367029631 L 202.49999999999997 584.6599367029631 L 203.5 583.6599367029631 L 203.5 583.6599367029631 L 204.5 582.6599367029631 L 204.5 582.6599367029631 L 205.5 581.6599367029631 L 205.5 581.6599367029631 L 206.5 580.659936702963 L 206.5 580.659936702963 L 207.49999999999994 579.6599367029631 L 207.49999999999994 579.6599367029631 L 208.49999999999997 578.6599367029631 L 208.49999999999997 578.6599367029631 L 209.49999999999997 577.6599367029631 L 209.49999999999997 577.6599367029631 L 210.49999999999997 576.6599367029631 L 210.49999999999997 576.6599367029631 L 211.5 575.6599367029631 L 211.5 575.6599367029631 L 212.5 574.6599367029631 L 212.5 574.6599367029631 L 213.5 573.6599367029631 L 213.5 573.6599367029631 L 214.49999999999994 572.6599367029631 L 214.49999999999994 572.6599367029631 L 215.49999999999994 571.6599367029631 L 215.49999999999994 571.6599367029631 L 216.49999999999997 570.6599367029631 L 216.49999999999997 570.6599367029631 L 217.49999999999997 569.6599367029631 L 217.49999999999997 569.6599367029631 L 218.49999999999997 568.6599367029631 L 218.49999999999997 568.6599367029631 L 219.5 567.6599367029631 L 219.5 567.6599367029631 L 220.5 566.6599367029631 L 220.5 566.6599367029631 L 221.5 565.6599367029631 L 221.5 565.6599367029631 L 222.5 564.659936702963 L 222.5 564.659936702963 L 223.49999999999994 563.6599367029631 L 223.49999999999994 563.6599367029631 L 224.49999999999997 562.6599367029631 L 224.49999999999997 562.6599367029631 L 225.49999999999997 561.6599367029631 L 225.49999999999997 561.6599367029631 L 226.49999999999997 560.6599367029631 L 226.49999999999997 560.6599367029631 L 227.49999999999997 559.6599367029631 L 227.49999999999997 559.6599367029631 L 228.5 558.6599367029631 L 228.5 558.6599367029631 L 229.5 557.6599367029631 L 229.5 557.6599367029631 L 230.49999999999994 556.6599367029631 L 230.49999999999994 556.6599367029631 L 231.49999999999994 555.6599367029631 L 231.49999999999994 555.6599367029631 L 232.49999999999997 554.6599367029631 L 232.49999999999997 554.6599367029631 L 233.49999999999997 553.6599367029631 L 233.49999999999997 553.6599367029631 L 234.49999999999997 552.6599367029631 L 234.49999999999997 552.6599367029631 L 235.49999999999997 551.6599367029631 L 235.49999999999997 551.6599367029631 L 236.5 550.6599367029631 L 236.5 550.6599367029631 L 237.5 549.6599367029631 L 237.5 549.6599367029631 L 238.5 548.6599367029631 L 238.5 548.6599367029631 L 239.49999999999994 547.6599367029631 L 239.49999999999994 547.6599367029631 L 240.49999999999997 546.6599367029631 L 240.49999999999997 546.6599367029631 L 241.49999999999997 545.6599367029631 L 241.49999999999997 545.6599367029631 L 242.49999999999997 544.6599367029631 L 242.49999999999997 544.6599367029631 L 243.49999999999997 543.6599367029631 L 243.49999999999997 543.6599367029631 L 244.5 542.6599367029631 L 244.5 542.6599367029631 L 245.5 541.6599367029631 L 245.5 541.6599367029631 L 246.49999999999994 540.6599367029631 L 246.49999999999994 540.6599367029631 L 247.49999999999994 539.6599367029631 L 247.49999999999994 539.6599367029631 L 248.49999999999997 538.6599367029631 L 248.49999999999997 538.6599367029631 L 249.49999999999997 537.6599367029631 L 249.49999999999997 537.6599367029631 L 250.49999999999997 536.6599367029631 L 250.49999999999997 536.6599367029631 L 251.49999999999997 535.6599367029631 L 251.49999999999997 535.6599367029631 L 252.49999999999997 534.6599367029631 L 252.49999999999997 534.6599367029631 L 253.5 533.6599367029631 L 253.5 533.6599367029631 L 254.5 532.6599367029631 L 254.5 532.6599367029631 L 255.49999999999994 531.6599367029631 L 255.49999999999994 531.6599367029631 L 256.49999999999994 530.6599367029631 L 256.49999999999994 530.6599367029631 L 257.49999999999994 529.6599367029631 L 257.49999999999994 529.6599367029631 L 258.5 528.6599367029631 L 258.5 528.6599367029631 L 259.5 527.6599367029631 L 259.5 527.6599367029631 L 260.5 526.6599367029631 L 260.5 526.6599367029631 L 261.5 525.6599367029631 L 261.5 525.6599367029631 L 262.49999999999994 524.6599367029631 L 262.49999999999994 524.6599367029631 L 263.49999999999994 523.6599367029631 L 263.49999999999994 523.6599367029631 L 264.49999999999994 522.6599367029631 L 264.49999999999994 522.6599367029631 L 265.49999999999994 521.6599367029631 L 265.49999999999994 521.6599367029631 L 266.5 520.6599367029631 L 266.5 520.6599367029631 L 267.5 519.6599367029631 L 267.5 519.6599367029631 L 268.5 518.6599367029631 L 268.5 518.6599367029631 L 269.5 517.6599367029631 L 269.5 517.6599367029631 L 270.5 516.6599367029631 L 270.5 516.6599367029631 L 271.49999999999994 515.6599367029631 L 271.49999999999994 515.6599367029631 L 272.49999999999994 514.6599367029631 L 272.49999999999994 514.6599367029631 L 273.49999999999994 513.6599367029631 L 273.49999999999994 513.6599367029631 L 274.5 512.6599367029631 L 274.5 512.6599367029631 L 275.5 511.6599367029631 L 275.5 511.6599367029631 L 276.5 510.6599367029631 L 276.5 510.6599367029631 L 277.5 509.6599367029631 L 277.5 509.6599367029631 L 278.49999999999994 508.65993670296314 L 278.49999999999994 508.65993670296314 L 279.49999999999994 507.65993670296314 L 279.49999999999994 507.65993670296314 L 280.49999999999994 506.65993670296314 L 280.49999999999994 506.65993670296314 L 281.49999999999994 505.65993670296314 L 281.49999999999994 505.65993670296314 L 282.49999999999994 504.65993670296314 L 282.49999999999994 504.65993670296314 L 283.5 503.6599367029631 L 283.5 503.6599367029631 L 284.5 502.6599367029631 L 284.5 502.6599367029631 L 285.5 501.6599367029631 L 285.5 501.6599367029631 L 286.5 500.6599367029631 L 286.5 500.6599367029631 L 287.49999999999994 499.65993670296314 L 287.49999999999994 499.65993670296314 L 288.49999999999994 498.65993670296314 L 288.49999999999994 498.65993670296314 L 289.49999999999994 497.65993670296314 L 289.49999999999994 497.65993670296314 L 290.49999999999994 496.65993670296314 L 290.49999999999994 496.65993670296314 L 291.5 495.6599367029631 L 291.5 495.6599367029631 L 292.5 494.6599367029631 L 292.5 494.6599367029631 L 293.5 493.6599367029631 L 293.5 493.6599367029631 L 294.49999999999994 492.65993670296314 L 294.49999999999994 492.65993670296314 L 295.49999999999994 491.65993670296314 L 295.49999999999994 491.65993670296314 L 296.49999999999994 490.65993670296314 L 296.49999999999994 490.65993670296314 L 297.49999999999994 489.65993670296314 L 297.49999999999994 489.65993670296314 L 298.49999999999994 488.65993670296314 L 298.49999999999994 488.65993670296314 L 299.5 487.6599367029631 L 299.5 487.6599367029631 L 300.5 486.6599367029631 L 300.5 486.6599367029631 L 301.5 485.6599367029631 L 301.5 485.6599367029631 L 302.5 484.6599367029631 L 302.5 484.6599367029631 L 303.49999999999994 483.65993670296314 L 303.49999999999994 483.65993670296314 L 304.49999999999994 482.65993670296314 L 304.49999999999994 482.65993670296314 L 305.49999999999994 481.65993670296314 L 305.49999999999994 481.65993670296314 L 306.49999999999994 480.65993670296314 L 306.49999999999994 480.65993670296314 L 307.5 479.6599367029631 L 307.5 479.6599367029631 L 308.5 478.6599367029631 L 308.5 478.6599367029631 L 309.49999999999994 477.65993670296314 L 309.49999999999994 477.65993670296314 L 310.49999999999994 476.65993670296314 L 310.49999999999994 476.65993670296314 L 311.5 475.6599367029631 L 311.5 475.6599367029631 L 312.49999999999994 474.65993670296314 L 312.49999999999994 474.65993670296314 L 313.49999999999994 473.65993670296314 L 313.49999999999994 473.65993670296314 L 314.49999999999994 472.65993670296314 L 314.49999999999994 472.65993670296314 L 315.5 471.6599367029631 L 315.5 471.6599367029631 L 316.5 470.6599367029631 L 316.5 470.6599367029631 L 317.49999999999994 469.65993670296314 L 317.49999999999994 469.65993670296314 L 318.49999999999994 468.65993670296314 L 318.49999999999994 468.65993670296314 L 319.5 467.6599367029631 L 319.5 467.6599367029631 L 320.49999999999994 466.65993670296314 L 320.49999999999994 466.65993670296314 L 321.49999999999994 465.65993670296314 L 321.49999999999994 465.65993670296314 L 322.5 464.65993670296314 L 322.5 464.65993670296314 L 323.5 463.65993670296314 L 323.5 463.65993670296314 L 324.5 462.6599367029631 L 324.5 462.6599367029631 L 325.49999999999994 461.65993670296314 L 325.49999999999994 461.65993670296314 L 326.5 460.65993670296314 L 326.5 460.65993670296314 L 327.5 459.65993670296314 L 327.5 459.65993670296314 L 328.49999999999994 458.65993670296314 L 328.49999999999994 458.65993670296314 L 329.49999999999994 457.65993670296314 L 329.49999999999994 457.65993670296314 L 330.5 456.65993670296314 L 330.5 456.65993670296314 L 331.5 455.65993670296314 L 331.5 455.65993670296314 L 332.5 454.6599367029631 L 332.5 454.6599367029631 L 333.49999999999994 453.65993670296314 L 333.49999999999994 453.65993670296314 L 334.49999999999994 452.65993670296314 L 334.49999999999994 452.65993670296314 L 335.5 451.65993670296314 L 335.5 451.65993670296314 L 336.49999999999994 450.65993670296314 L 336.49999999999994 450.65993670296314 L 337.49999999999994 449.65993670296314 L 337.49999999999994 449.65993670296314 L 338.49999999999994 448.65993670296314 L 338.49999999999994 448.65993670296314 L 339.5 447.65993670296314 L 339.5 447.65993670296314 L 340.5 446.6599367029631 L 340.5 446.6599367029631 L 341.49999999999994 445.65993670296314 L 341.49999999999994 445.65993670296314 L 342.49999999999994 444.65993670296314 L 342.49999999999994 444.65993670296314 L 343.5 443.65993670296314 L 343.5 443.65993670296314 L 344.49999999999994 442.65993670296314 L 344.49999999999994 442.65993670296314 L 345.49999999999994 441.65993670296314 L 345.49999999999994 441.65993670296314 L 346.49999999999994 440.65993670296314 L 346.49999999999994 440.65993670296314 L 347.5 439.65993670296314 L 347.5 439.65993670296314 L 348.5 438.6599367029631 L 348.5 438.6599367029631 L 349.49999999999994 437.65993670296314 L 349.49999999999994 437.65993670296314 L 350.49999999999994 436.65993670296314 L 350.49999999999994 436.65993670296314 L 351.5 435.65993670296314 L 351.5 435.65993670296314 L 352.49999999999994 434.65993670296314 L 352.49999999999994 434.65993670296314 L 353.49999999999994 433.65993670296314 L 353.49999999999994 433.65993670296314 L 354.5 432.65993670296314 L 354.5 432.65993670296314 L 355.5 431.65993670296314 L 355.5 431.65993670296314 L 356.5 430.65993670296314 L 356.5 430.65993670296314 L 357.49999999999994 429.65993670296314 L 357.49999999999994 429.65993670296314 L 358.5 428.65993670296314 L 358.5 428.65993670296314 L 359.5 427.65993670296314 L 359.5 427.65993670296314 L 360.49999999999994 426.65993670296314 L 360.49999999999994 426.65993670296314 L 361.49999999999994 425.65993670296314 L 361.49999999999994 425.65993670296314 L 362.5 424.65993670296314 L 362.5 424.65993670296314 L 363.5 423.65993670296314 L 363.5 423.65993670296314 L 364.5 422.65993670296314 L 364.5 422.65993670296314 L 365.49999999999994 421.65993670296314 L 365.49999999999994 421.65993670296314 L 366.5 420.65993670296314 L 366.5 420.65993670296314 L 367.5 419.65993670296314 L 367.5 419.65993670296314 L 368.49999999999994 418.65993670296314 L 368.49999999999994 418.65993670296314 L 369.49999999999994 417.65993670296314 L 369.49999999999994 417.65993670296314 L 370.5 416.65993670296314 L 370.5 416.65993670296314 L 371.5 415.65993670296314 L 371.5 415.65993670296314 L 372.5 414.65993670296314 L 372.5 414.65993670296314 L 373.49999999999994 413.65993670296314 L 373.49999999999994 413.65993670296314 L 374.5 412.65993670296314 L 374.5 412.65993670296314 L 375.5 411.65993670296314 L 375.5 411.65993670296314 L 376.49999999999994 410.65993670296314 L 376.49999999999994 410.65993670296314 L 377.49999999999994 409.65993670296314 L 377.49999999999994 409.65993670296314 L 378.5 408.65993670296314 L 378.5 408.65993670296314 L 379.5 407.65993670296314 L 379.5 407.65993670296314 L 380.5 406.65993670296314 L 380.5 406.65993670296314 L 381.49999999999994 405.65993670296314 L 381.49999999999994 405.65993670296314 L 382.5 404.65993670296314 L 382.5 404.65993670296314 L 383.5 403.65993670296314 L 383.5 403.65993670296314 L 384.49999999999994 402.65993670296314 L 384.49999999999994 402.65993670296314 L 385.49999999999994 401.65993670296314 L 385.49999999999994 401.65993670296314 L 386.5 400.65993670296314 L 386.5 400.65993670296314 L 387.5 399.65993670296314 L 387.5 399.65993670296314 L 388.5 398.65993670296314 L 388.5 398.65993670296314 L 389.49999999999994 397.65993670296314 L 389.49999999999994 397.65993670296314 L 390.5 396.65993670296314 L 390.5 396.65993670296314 L 391.5 395.65993670296314 L 391.5 395.65993670296314 L 392.49999999999994 394.65993670296314 L 392.49999999999994 394.65993670296314 L 393.49999999999994 393.65993670296314 L 393.49999999999994 393.65993670296314 L 394.49999999999994 392.65993670296314 L 394.49999999999994 392.65993670296314 L 395.5 391.65993670296314 L 395.5 391.65993670296314 L 396.5 390.65993670296314 L 396.5 390.65993670296314 L 397.49999999999994 389.65993670296314 L 397.49999999999994 389.65993670296314 L 398.49999999999994 388.65993670296314 L 398.49999999999994 388.65993670296314 L 399.5 387.65993670296314 L 399.5 387.65993670296314 L 400.49999999999994 386.65993670296314 L 400.49999999999994 386.65993670296314 L 401.49999999999994 385.65993670296314 L 401.49999999999994 385.65993670296314 L 402.49999999999994 384.65993670296314 L 402.49999999999994 384.65993670296314 L 403.5 383.65993670296314 L 403.5 383.65993670296314 L 404.5 382.65993670296314 L 404.5 382.65993670296314 L 405.49999999999994 381.65993670296314 L 405.49999999999994 381.65993670296314 L 406.49999999999994 380.65993670296314 L 406.49999999999994 380.65993670296314 L 407.5 379.65993670296314 L 407.5 379.65993670296314 L 408.49999999999994 378.65993670296314 L 408.49999999999994 378.65993670296314 L 409.49999999999994 377.65993670296314 L 409.49999999999994 377.65993670296314 L 410.49999999999994 376.65993670296314 L 410.49999999999994 376.65993670296314 L 411.5 375.65993670296314 L 411.5 375.65993670296314 L 412.5 374.65993670296314 L 412.5 374.65993670296314 L 413.49999999999994 373.65993670296314 L 413.49999999999994 373.65993670296314 L 414.49999999999994 372.65993670296314 L 414.49999999999994 372.65993670296314 L 415.5 371.65993670296314 L 415.5 371.65993670296314 L 416.49999999999994 370.65993670296314 L 416.49999999999994 370.65993670296314 L 417.5 369.65993670296314 L 417.5 369.65993670296314 L 418.5 368.65993670296314 L 418.5 368.65993670296314 L 419.5 367.65993670296314 L 419.5 367.65993670296314 L 420.5 366.65993670296314 L 420.5 366.65993670296314 L 421.5 365.65993670296314 L 421.5 365.65993670296314 L 422.5 364.65993670296314 L 422.5 364.65993670296314 L 423.5 363.65993670296314 L 423.5 363.65993670296314 L 424.49999999999994 362.65993670296314 L 424.49999999999994 362.65993670296314 L 425.5 361.65993670296314 L 425.5 361.65993670296314 L 426.5 360.65993670296314 L 426.5 360.65993670296314 L 427.5 359.65993670296314 L 427.5 359.65993670296314 L 428.5 358.65993670296314 L 428.5 358.65993670296314 L 429.5 357.65993670296314 L 429.5 357.65993670296314 L 430.5 356.65993670296314 L 430.5 356.65993670296314 L 431.5 355.65993670296314 L 431.5 355.65993670296314 L 432.49999999999994 354.65993670296314 L 432.49999999999994 354.65993670296314 L 433.49999999999994 353.65993670296314 L 433.49999999999994 353.65993670296314 L 434.5 352.65993670296314 L 434.5 352.65993670296314 L 435.5 351.65993670296314 L 435.5 351.65993670296314 L 436.5 350.65993670296314 L 436.5 350.65993670296314 L 437.49999999999994 349.65993670296314 L 437.49999999999994 349.65993670296314 L 438.5 348.65993670296314 L 438.5 348.65993670296314 L 439.5 347.65993670296314 L 439.5 347.65993670296314 L 440.49999999999994 346.65993670296314 L 440.49999999999994 346.65993670296314 L 441.49999999999994 345.65993670296314 L 441.49999999999994 345.65993670296314 L 442.5 344.65993670296314 L 442.5 344.65993670296314 L 443.5 343.65993670296314 L 443.5 343.65993670296314 L 444.5 342.65993670296314 L 444.5 342.65993670296314 L 445.49999999999994 341.65993670296314 L 445.49999999999994 341.65993670296314 L 446.5 340.65993670296314 L 446.5 340.65993670296314 L 447.5 339.65993670296314 L 447.5 339.65993670296314 L 448.49999999999994 338.65993670296314 L 448.49999999999994 338.65993670296314 L 449.49999999999994 337.65993670296314 L 449.49999999999994 337.65993670296314 L 450.5 336.65993670296314 L 450.5 336.65993670296314 L 451.5 335.65993670296314 L 451.5 335.65993670296314 L 452.5 334.65993670296314 L 452.5 334.65993670296314 L 453.49999999999994 333.65993670296314 L 453.49999999999994 333.65993670296314 L 454.5 332.65993670296314 L 454.5 332.65993670296314 L 455.49999999999994 331.65993670296314 L 455.49999999999994 331.65993670296314 L 456.49999999999994 330.65993670296314 L 456.49999999999994 330.65993670296314 L 457.49999999999994 329.65993670296314 L 457.49999999999994 329.65993670296314 L 458.5 328.65993670296314 L 458.5 328.65993670296314 L 459.5 327.65993670296314 L 459.5 327.65993670296314 L 460.5 326.65993670296314 L 460.5 326.65993670296314 L 461.5 325.65993670296314 L 461.5 325.65993670296314 L 462.49999999999994 324.65993670296314 L 462.49999999999994 324.65993670296314 L 463.49999999999994 323.65993670296314 L 463.49999999999994 323.65993670296314 L 464.49999999999994 322.65993670296314 L 464.49999999999994 322.65993670296314 L 465.49999999999994 321.65993670296314 L 465.49999999999994 321.65993670296314 L 466.5 320.65993670296314 L 466.5 320.65993670296314 L 467.5 319.65993670296314 L 467.5 319.65993670296314 L 468.5 318.65993670296314 L 468.5 318.65993670296314 L 469.5 317.65993670296314 L 469.5 317.65993670296314 L 470.5 316.65993670296314 L 470.5 316.65993670296314 L 471.49999999999994 315.65993670296314 L 471.49999999999994 315.65993670296314 L 472.49999999999994 314.65993670296314 L 472.49999999999994 314.65993670296314 L 473.49999999999994 313.65993670296314 L 473.49999999999994 313.65993670296314 L 474.5 312.65993670296314 L 474.5 312.65993670296314 L 475.5 311.65993670296314 L 475.5 311.65993670296314 L 476.5 310.65993670296314 L 476.5 310.65993670296314 L 477.5 309.65993670296314 L 477.5 309.65993670296314 L 478.49999999999994 308.65993670296314 L 478.49999999999994 308.65993670296314 L 479.49999999999994 307.65993670296314 L 479.49999999999994 307.65993670296314 L 480.49999999999994 306.65993670296314 L 480.49999999999994 306.65993670296314 L 481.49999999999994 305.65993670296314 L 481.49999999999994 305.65993670296314 L 482.5 304.65993670296314 L 482.5 304.65993670296314 L 483.5 303.65993670296314 L 483.5 303.65993670296314 L 484.5 302.65993670296314 L 484.5 302.65993670296314 L 485.5 301.65993670296314 L 485.5 301.65993670296314 L 486.5 300.65993670296314 L 486.5 300.65993670296314 L 487.49999999999994 299.65993670296314 L 487.49999999999994 299.65993670296314 L 488.49999999999994 298.65993670296314 L 488.49999999999994 298.65993670296314 L 489.49999999999994 297.65993670296314 L 489.49999999999994 297.65993670296314 L 490.5 296.65993670296314 L 490.5 296.65993670296314 L 491.5 295.65993670296314 L 491.5 295.65993670296314 L 492.5 294.65993670296314 L 492.5 294.65993670296314 L 493.5 293.65993670296314 L 493.5 293.65993670296314 L 494.49999999999994 292.65993670296314 L 494.49999999999994 292.65993670296314 L 495.49999999999994 291.65993670296314 L 495.49999999999994 291.65993670296314 L 496.49999999999994 290.65993670296314 L 496.49999999999994 290.65993670296314 L 497.49999999999994 289.65993670296314 L 497.49999999999994 289.65993670296314 L 498.5 288.65993670296314 L 498.5 288.65993670296314 L 499.5 287.65993670296314 L 499.5 287.65993670296314 L 500.5 286.65993670296314 L 500.5 286.65993670296314 L 501.5 285.65993670296314 L 501.5 285.65993670296314 L 502.5 284.65993670296314 L 502.5 284.65993670296314 L 503.49999999999994 283.65993670296314 L 503.49999999999994 283.65993670296314 L 504.49999999999994 282.65993670296314 L 504.49999999999994 282.65993670296314 L 505.49999999999994 281.65993670296314 L 505.49999999999994 281.65993670296314 L 506.5 280.65993670296314 L 506.5 280.65993670296314 L 507.5 279.65993670296314 L 507.5 279.65993670296314 L 508.5 278.65993670296314 L 508.5 278.65993670296314 L 509.5 277.65993670296314 L 509.5 277.65993670296314 L 510.49999999999994 276.65993670296314 L 510.49999999999994 276.65993670296314 L 511.49999999999994 275.65993670296314 L 511.49999999999994 275.65993670296314 L 512.5 274.65993670296314 L 512.5 274.65993670296314 L 513.5 273.65993670296314 L 513.5 273.65993670296314 L 514.5 272.65993670296314 L 514.5 272.65993670296314 L 515.5 271.65993670296314 L 515.5 271.65993670296314 L 516.5 270.65993670296314 L 516.5 270.65993670296314 L 517.5 269.65993670296314 L 517.5 269.65993670296314 L 518.5 268.65993670296314 L 518.5 268.65993670296314 L 519.5 267.65993670296314 L 519.5 267.65993670296314 L 520.5 266.65993670296314 L 520.5 266.65993670296314 L 521.5 265.65993670296314 L 521.5 265.65993670296314 L 522.5 264.65993670296314 L 522.5 264.65993670296314 L 523.5 263.65993670296314 L 523.5 263.65993670296314 L 524.5 262.65993670296314 L 524.5 262.65993670296314 L 525.5 261.65993670296314 L 525.5 261.65993670296314 L 526.5 260.65993670296314 L 526.5 260.65993670296314 L 527.5 259.65993670296314 L 527.5 259.65993670296314 L 528.5 258.65993670296314 L 528.5 258.65993670296314 L 529.5 257.65993670296314 L 529.5 257.65993670296314 L 530.5 256.65993670296314 L 530.5 256.65993670296314 L 531.5 255.6599367029631 L 531.5 255.6599367029631 L 532.5 254.6599367029631 L 532.5 254.6599367029631 L 533.5 253.6599367029631 L 533.5 253.6599367029631 L 534.5 252.6599367029631 L 534.5 252.6599367029631 L 535.5 251.6599367029631 L 535.5 251.6599367029631 L 536.5 250.65993670296314 L 536.5 250.65993670296314 L 537.5 249.65993670296314 L 537.5 249.65993670296314 L 538.5 248.65993670296314 L 538.5 248.65993670296314 L 539.5 247.6599367029631 L 539.5 247.6599367029631 L 540.5 246.6599367029631 L 540.5 246.6599367029631 L 541.5 245.65993670296314 L 541.5 245.65993670296314 L 542.5 244.65993670296314 L 542.5 244.65993670296314 L 543.5 243.65993670296314 L 543.5 243.65993670296314 L 544.5 242.65993670296314 L 544.5 242.65993670296314 L 545.5 241.65993670296314 L 545.5 241.65993670296314 L 546.5 240.65993670296314 L 546.5 240.65993670296314 L 547.5 239.65993670296314 L 547.5 239.65993670296314 L 548.5 238.65993670296314 L 548.5 238.65993670296314 L 549.5 237.65993670296314 L 549.5 237.65993670296314 L 550.5 236.65993670296308 L 550.5 236.65993670296308 L 551.5 235.65993670296308 L 551.5 235.65993670296308 L 552.5 234.65993670296314 L 552.5 234.65993670296314 L 553.5 233.65993670296314 L 553.5 233.65993670296314 L 554.5 232.65993670296314 L 554.5 232.65993670296314 L 555.5 231.65993670296314 L 555.5 231.65993670296314 L 556.5 230.65993670296314 L 556.5 230.65993670296314 L 557.5 229.65993670296314 L 557.5 229.65993670296314 L 558.5 228.65993670296314 L 558.5 228.65993670296314 L 559.5 227.65993670296314 L 559.5 227.65993670296314 L 560.5 226.65993670296314 L 560.5 226.65993670296314 L 561.5 225.65993670296314 L 561.5 225.65993670296314 L 562.5 224.65993670296314 L 562.5 224.65993670296314 L 563.5 223.65993670296314 L 563.5 223.65993670296314 L 564.5 222.65993670296314 L 564.5 222.65993670296314 L 565.5 221.65993670296314 L 565.5 221.65993670296314 L 566.5 220.65993670296308 L 566.5 220.65993670296308 L 567.5 219.65993670296308 L 567.5 219.65993670296308 L 568.5 218.65993670296314 L 568.5 218.65993670296314 L 569.5 217.65993670296314 L 569.5 217.65993670296314 L 570.5 216.65993670296314 L 570.5 216.65993670296314 L 571.5 215.65993670296314 L 571.5 215.65993670296314 L 572.5 214.65993670296314 L 572.5 214.65993670296314 L 573.5 213.65993670296314 L 573.5 213.65993670296314 L 574.5 212.65993670296314 L 574.5 212.65993670296314 L 575.5 211.65993670296314 L 575.5 211.65993670296314 L 576.5 210.65993670296314 L 576.5 210.65993670296314 L 577.5 209.65993670296314 L 577.5 209.65993670296314 L 578.5 208.65993670296314 L 578.5 208.65993670296314 L 579.5 207.65993670296314 L 579.5 207.65993670296314 L 580.5 206.65993670296314 L 580.5 206.65993670296314 L 581.5 205.65993670296314 L 581.5 205.65993670296314 L 582.5 204.65993670296314 L 582.5 204.65993670296314 L 583.5 203.65993670296308 L 583.5 203.65993670296308 L 584.5 202.65993670296314 L 584.5 202.65993670296314 L 585.5 201.65993670296314 L 585.5 201.65993670296314 L 586.5 200.65993670296314 L 586.5 200.65993670296314 L 587.5 199.65993670296314 L 587.5 199.65993670296314 L 588.5 198.65993670296314 L 588.5 198.65993670296314 L 589.5 197.65993670296314 L 589.5 197.65993670296314 L 590.5 196.65993670296314 L 590.5 196.65993670296314 L 591.5 195.65993670296314 L 591.5 195.65993670296314 L 592.5 194.65993670296314 L 592.5 194.65993670296314 L 593.5 193.65993670296314 L 593.5 193.65993670296314 L 594.5 192.65993670296314 L 594.5 192.65993670296314 L 595.5 191.65993670296314 L 595.5 191.65993670296314 L 596.5 190.65993670296314 L 596.5 190.65993670296314 L 597.5 189.65993670296314 L 597.5 189.65993670296314 L 598.5 188.65993670296314 L 598.5 188.65993670296314 L 599.5 187.65993670296308 L 599.5 187.65993670296308 L 600.5 186.65993670296314 L 600.5 186.65993670296314 L 601.5 185.65993670296314 L 601.5 185.65993670296314 L 602.5 184.65993670296314 L 602.5 184.65993670296314 L 603.5 183.65993670296314 L 603.5 183.65993670296314 L 604.5 182.65993670296314 L 604.5 182.65993670296314 L 605.5 181.65993670296314 L 605.5 181.65993670296314 L 606.5 180.65993670296314 L 606.5 180.65993670296314 L 607.5 179.65993670296314 L 607.5 179.65993670296314 L 608.5 178.65993670296314 L 608.5 178.65993670296314 L 609.5 177.65993670296314 L 609.5 177.65993670296314 L 610.5 176.65993670296314 L 610.5 176.65993670296314 L 611.5 175.65993670296314 L 611.5 175.65993670296314 L 612.5 174.65993670296314 L 612.5 174.65993670296314 L 613.5 173.65993670296314 L 613.5 173.65993670296314 L 614.5 172.65993670296314 L 614.5 172.65993670296314 L 615.5 171.65993670296308 L 615.5 171.65993670296308 L 616.5 170.65993670296314 L 616.5 170.65993670296314 L 617.5 169.65993670296314 L 617.5 169.65993670296314 L 618.5 168.65993670296314 L 618.5 168.65993670296314 L 619.5 167.65993670296314 L 619.5 167.65993670296314 L 620.5 166.65993670296308 L 620.5 166.65993670296308 L 621.5 165.65993670296314 L 621.5 165.65993670296314 L 622.5 164.65993670296314 L 622.5 164.65993670296314 L 623.5 163.65993670296314 L 623.5 163.65993670296314 L 624.5 162.65993670296314 L 624.5 162.65993670296314 L 625.5 161.65993670296314 L 625.5 161.65993670296314 L 626.5 160.65993670296314 L 626.5 160.65993670296314 L 627.5 159.65993670296314 L 627.5 159.65993670296314 L 628.5 158.65993670296314 L 628.5 158.65993670296314 L 629.5 157.65993670296314 L 629.5 157.65993670296314 L 630.5 156.65993670296314 L 630.5 156.65993670296314 L 631.5 155.65993670296308 L 631.5 155.65993670296308 L 632.4999999999999 154.6599367029632 L 632.4999999999999 154.6599367029632 L 633.5 153.65993670296308 L 633.5 153.65993670296308 L 634.4999999999999 152.6599367029632 L 634.4999999999999 152.6599367029632 L 635.5 151.65993670296308 L 635.5 151.65993670296308 L 636.5 150.65993670296314 L 636.5 150.65993670296314 L 637.5 149.65993670296314 L 637.5 149.65993670296314 L 638.5 148.65993670296314 L 638.5 148.65993670296314 L 639.5 147.65993670296314 L 639.5 147.65993670296314 L 640.5 146.65993670296314 L 640.5 146.65993670296314 L 641.5 145.65993670296314 L 641.5 145.65993670296314 L 642.5 144.65993670296314 L 642.5 144.65993670296314 L 643.5 143.65993670296314 L 643.5 143.65993670296314 L 644.5 142.65993670296314 L 644.5 142.65993670296314 L 645.5 141.65993670296314 L 645.5 141.65993670296314 L 646.5 140.65993670296314 L 646.5 140.65993670296314 L 647.4999999999999 139.6599367029632 L 647.4999999999999 139.6599367029632 L 648.5 138.65993670296308 L 648.5 138.65993670296308 L 649.4999999999999 137.6599367029632 L 649.4999999999999 137.6599367029632 L 650.5 136.65993670296308 L 650.5 136.65993670296308 L 651.5 135.65993670296314 L 651.5 135.65993670296314 L 652.5 134.65993670296308 L 652.5 134.65993670296308 L 653.5 133.65993670296314 L 653.5 133.65993670296314 L 654.5 132.65993670296308 L 654.5 132.65993670296308 L 655.5 131.65993670296314 L 655.5 131.65993670296314 L 656.5 130.65993670296314 L 656.5 130.65993670296314 L 657.5 129.65993670296314 L 657.5 129.65993670296314 L 658.5 128.65993670296314 L 658.5 128.65993670296314 L 659.5 127.65993670296314 L 659.5 127.65993670296314 L 660.5 126.65993670296314 L 660.5 126.65993670296314 L 661.5 125.65993670296314 L 661.5 125.65993670296314 L 662.4999999999999 124.6599367029632 L 662.4999999999999 124.6599367029632 L 663.5 123.65993670296314 L 663.5 123.65993670296314 L 664.4999999999999 122.6599367029632 L 664.4999999999999 122.6599367029632 L 665.5 121.65993670296308 L 665.5 121.65993670296308 L 666.4999999999999 120.6599367029632 L 666.4999999999999 120.6599367029632 L 667.5 119.65993670296308 L 667.5 119.65993670296308 L 668.5 118.65993670296314 L 668.5 118.65993670296314 L 669.5 117.65993670296308 L 669.5 117.65993670296308 L 670.5 116.65993670296314 L 670.5 116.65993670296314 L 671.5 115.65993670296314 L 671.5 115.65993670296314 L 672.5 114.65993670296314 L 672.5 114.65993670296314 L 673.5 113.65993670296314 L 673.5 113.65993670296314 L 674.5 112.65993670296314 L 674.5 112.65993670296314 L 675.5 111.65993670296314 L 675.5 111.65993670296314 L 676.5 110.65993670296314 L 676.5 110.65993670296314 L 677.5 109.65993670296314 L 677.5 109.65993670296314 L 678.5 108.65993670296314 L 678.5 108.65993670296314 L 679.4999999999999 107.6599367029632 L 679.4999999999999 107.6599367029632 L 680.5 106.65993670296308 L 680.5 106.65993670296308 L 681.4999999999999 105.6599367029632 L 681.4999999999999 105.6599367029632 L 682.5 104.65993670296308 L 682.5 104.65993670296308 L 683.4999999999999 103.6599367029632 L 683.4999999999999 103.6599367029632 L 684.5 102.65993670296308 L 684.5 102.65993670296308 L 685.5 101.65993670296314 L 685.5 101.65993670296314 L 686.5 100.65993670296308 L 686.5 100.65993670296308 L 687.5 99.65993670296314 L 687.5 99.65993670296314 L 688.5 98.65993670296314 L 688.5 98.65993670296314 L 689.5 97.65993670296314 L 689.5 97.65993670296314 L 690.5 96.65993670296314 L 690.5 96.65993670296314 L 691.5 95.65993670296314 L 691.5 95.65993670296314 L 692.5 94.65993670296314 L 692.5 94.65993670296314 L 693.5 93.65993670296314 L 693.5 93.65993670296314 L 694.4999999999999 92.6599367029632 L 694.4999999999999 92.6599367029632 L 695.5 91.65993670296314 L 695.5 91.65993670296314 L 696.4999999999999 90.6599367029632 L 696.4999999999999 90.6599367029632 L 697.5 89.65993670296308 L 697.5 89.65993670296308 L 698.4999999999999 88.6599367029632 L 698.4999999999999 88.6599367029632 L 699.5 87.65993670296308 L 699.5 87.65993670296308 L 700.5 86.65993670296314 L 700.5 86.65993670296314 L 701.5 85.65993670296308 L 701.5 85.65993670296308 L 702.5 84.65993670296314 L 702.5 84.65993670296314 L 703.5 83.65993670296314 L 703.5 83.65993670296314 L 704.5 82.65993670296314 L 704.5 82.65993670296314 L 705.5 81.65993670296314 L 705.5 81.65993670296314 L 706.5 80.65993670296314 L 706.5 80.65993670296314 L 707.5 79.65993670296314 L 707.5 79.65993670296314 L 708.5 78.65993670296314 L 708.5 78.65993670296314 L 709.5 77.65993670296314 L 709.5 77.65993670296314 L 710.5 76.65993670296314 L 710.5 76.65993670296314 L 711.4999999999999 75.6599367029632 L 711.4999999999999 75.6599367029632 L 712.5 74.65993670296308 L 712.5 74.65993670296308 L 713.4999999999999 73.6599367029632 L 713.4999999999999 73.6599367029632 L 714.5 72.65993670296308 L 714.5 72.65993670296308 L 715.4999999999999 71.6599367029632 L 715.4999999999999 71.6599367029632 L 716.5 70.65993670296308 L 716.5 70.65993670296308 L 717.5 69.65993670296314 L 717.5 69.65993670296314 L 718.5 68.65993670296308 L 718.5 68.65993670296308 L 719.5 67.65993670296314 L 719.5 67.65993670296314 L 720.5 66.65993670296314 L 720.5 66.65993670296314 L 721.5 65.65993670296314 L 721.5 65.65993670296314 L 722.5 64.65993670296314 L 722.5 64.65993670296314 L 723.5 63.65993670296314 L 723.5 63.65993670296314 L 724.5 62.65993670296314 L 724.5 62.65993670296314 L 725.5 61.65993670296314 L 725.5 61.65993670296314 L 726.4999999999999 60.65993670296319 L 726.4999999999999 60.65993670296319 L 727.5 59.65993670296314 L 727.5 59.65993670296314 L 728.4999999999999 58.65993670296319 L 728.4999999999999 58.65993670296319 L 729.5 57.65993670296308 L 729.5 57.65993670296308 L 730.4999999999999 56.65993670296319 L 730.4999999999999 56.65993670296319 L 731.5 55.65993670296308 L 731.5 55.65993670296308 L 732.5 54.65993670296314 L 732.5 54.65993670296314 L 733.5 53.65993670296308 L 733.5 53.65993670296308 L 734.5 52.65993670296314 L 734.5 52.65993670296314 L 735.5 51.65993670296314 L 735.5 51.65993670296314 L 736.5 50.65993670296314 L 736.5 50.65993670296314 L 737.5 49.65993670296314 L 737.5 49.65993670296314 L 738.5 48.65993670296314 L 738.5 48.65993670296314 L 739.5 47.65993670296314 L 739.5 47.65993670296314 L 740.5 46.65993670296314 L 740.5 46.65993670296314 L 741.5 45.65993670296314 L 741.5 45.65993670296314 L 742.5 44.65993670296314 L 742.5 44.65993670296314 L 743.4999999999999 43.65993670296319 L 743.4999999999999 43.65993670296319 L 744.5 42.65993670296314 L 744.5 42.65993670296314 L 745.4999999999999 41.65993670296319 L 745.4999999999999 41.65993670296319 L 746.5 40.65993670296308 L 746.5 40.65993670296308 L 747.4999999999999 39.65993670296319 L 747.4999999999999 39.65993670296319 L 748.5 38.65993670296308 L 748.5 38.65993670296308 L 749.5 37.65993670296314 L 749.5 37.65993670296314 L 750.5 36.65993670296308 L 750.5 36.65993670296308 L 751.5 35.65993670296314 L 751.5 35.65993670296314 L 752.5 34.65993670296314 L 752.5 34.65993670296314 L 753.5 33.65993670296314 L 753.5 33.65993670296314 L 754.5 32.65993670296314 L 754.5 32.65993670296314 L 755.5 31.659936702963137 L 755.5 31.659936702963137 L 756.5 30.659936702963137 L 756.5 30.659936702963137 L 757.5 29.659936702963137 L 757.5 29.659936702963137 L 758.4999999999999 28.659936702963194 L 758.4999999999999 28.659936702963194 L 759.5 27.659936702963137 L 759.5 27.659936702963137 L 760.4999999999999 26.659936702963194 L 760.4999999999999 26.659936702963194 L 761.5 25.65993670296308 L 761.5 25.65993670296308 L 762.4999999999999 24.659936702963194 L 762.4999999999999 24.659936702963194 L 763.5 23.65993670296308 L 763.5 23.65993670296308 L 764.4999999999999 22.659936702963194 L 764.4999999999999 22.659936702963194 L 765.5 21.65993670296308 L 765.5 21.65993670296308 L 766.5 20.659936702963137 L 766.5 20.659936702963137 L 767.5 19.659936702963137 L 767.5 19.659936702963137 L 768.5 18.659936702963137 L 768.5 18.659936702963137 L 769.5 17.659936702963137 L 769.5 17.659936702963137 L 770.5 16.659936702963137 L 770.5 16.659936702963137 L 771.5 15.659936702963137 L 771.5 15.659936702963137 L 772.5 14.659936702963137 L 772.5 14.659936702963137 L 773.5 13.659936702963137 L 773.5 13.659936702963137 L 774.5 12.659936702963137 L 774.5 12.659936702963137 L 775.4999999999999 11.659936702963194 L 775.4999999999999 11.659936702963194 L 776.5 10.659936702963137 L 776.5 10.659936702963137 L 777.4999999999999 9.659936702963194 L 777.4999999999999 9.659936702963194 L 778.5 8.65993670296308 L 778.5 8.65993670296308 L 779.4999999999999 7.6599367029631935 L 779.4999999999999 7.6599367029631935 L 780.5 6.65993670296308 L 780.5 6.65993670296308 L 781.5 5.659936702963137 L 781.5 5.659936702963137 L 782.5 4.65993670296308 L 782.5 4.65993670296308 L 783.5 3.6599367029631367 L 783.5 3.6599367029631367 L 784.5 2.6599367029631367 L 784.5 2.6599367029631367 L 785.5 1.6599367029631367 L 785.5 1.6599367029631367 L 786.5 0.6599367029631367 L 786.5 0.6599367029631367 L 787.5 -0.34006329703686333 L 787.5 -0.34006329703686333 L 788.5 -1.3400632970368633 L 788.5 -1.3400632970368633 L 789.5 -2.3400632970368633 L 789.5 -2.3400632970368633 L 790.4999999999999 -3.3400632970368065 L 790.4999999999999 -3.3400632970368065 L 791.5 -4.340063297036863 L 791.5 -4.340063297036863 L 792.4999999999999 -5.3400632970368065 L 792.4999999999999 -5.3400632970368065 L 793.5 -6.34006329703692 L 793.5 -6.34006329703692 L 794.4999999999999 -7.3400632970368065 L 794.4999999999999 -7.3400632970368065 L 795.5 -8.34006329703692 L 795.5 -8.34006329703692 L 796.4999999999999 -9.340063297036806 L 796.4999999999999 -9.340063297036806 L 797.5 -10.34006329703692 L 797.5 -10.34006329703692 L 798.5 -11.340063297036863 L 798.5 -11.340063297036863 L 799.5 -12.340063297036863 L 799.5 -12.340063297036863 L 800.5 -13.340063297036863 L 800.5 -13.340063297036863 L 801.5 -14.340063297036863 L 801.5 -14.340063297036863 L 802.5 -15.340063297036863 L 802.5 -15.340063297036863 L 803.5 -16.340063297036863 L 803.5 -16.340063297036863 L 804.5 -17.340063297036863 L 804.5 -17.340063297036863 L 805.5 -18.340063297036863 L 805.5 -18.340063297036863 L 806.5 -19.340063297036863 L 806.5 -19.340063297036863 L 807.5 -20.340063297036863 L 807.5 -20.340063297036863 L 808.5 -21.340063297036863 L 808.5 -21.340063297036863 L 809.5 -22.340063297036863 L 809.5 -22.340063297036863 L 810.5 -23.340063297036863 L 810.5 -23.340063297036863 L 811.5 -24.340063297036863 L 811.5 -24.340063297036863 L 812.5 -25.340063297036863 L 812.5 -25.340063297036863 L 813.5 -26.340063297036863 L 813.5 -26.340063297036863 L 814.5 -27.340063297036863 L 814.5 -27.340063297036863 L 815.5 -28.340063297036863 L 815.5 -28.340063297036863 L 816.5 -29.340063297036977 L 816.5 -29.340063297036977 L 817.5 -30.340063297036863 L 817.5 -30.340063297036863 L 818.4999999999998 -31.34006329703675 L 818.4999999999998 -31.34006329703675 L 819.5 -32.34006329703686 L 819.5 -32.34006329703686 L 820.4999999999998 -33.34006329703675 L 820.4999999999998 -33.34006329703675 L 821.5 -34.34006329703686 L 821.5 -34.34006329703686 L 822.4999999999998 -35.34006329703675 L 822.4999999999998 -35.34006329703675 L 823.5 -36.34006329703686 L 823.5 -36.34006329703686 L 824.5 -37.34006329703686 L 824.5 -37.34006329703686 L 825.5 -38.34006329703686 L 825.5 -38.34006329703686 L 826.5 -39.34006329703686 L 826.5 -39.34006329703686 L 827.5 -40.34006329703686 L 827.5 -40.34006329703686 L 828.5 -41.34006329703686 L 828.5 -41.34006329703686 L 829.5 -42.34006329703686 L 829.5 -42.34006329703686 L 830.5 -43.34006329703686 L 830.5 -43.34006329703686 L 831.5 -44.34006329703686 L 831.5 -44.34006329703686 L 832.5 -45.34006329703686 L 832.5 -45.34006329703686 L 833.5 -46.34006329703698 L 833.5 -46.34006329703698 L 834.5 -47.34006329703686 L 834.5 -47.34006329703686 L 835.4999999999998 -48.34006329703675 L 835.4999999999998 -48.34006329703675 L 836.5 -49.34006329703686 L 836.5 -49.34006329703686 L 837.4999999999998 -50.34006329703675 L 837.4999999999998 -50.34006329703675 L 838.5 -51.34006329703686 L 838.5 -51.34006329703686 L 839.5 -52.34006329703686 L 839.5 -52.34006329703686 L 840.5 -53.34006329703686 L 840.5 -53.34006329703686 L 841.5 -54.34006329703686 L 841.5 -54.34006329703686 L 842.5 -55.34006329703686 L 842.5 -55.34006329703686 L 843.5 -56.34006329703686 L 843.5 -56.34006329703686 L 844.5 -57.34006329703686 L 844.5 -57.34006329703686 L 845.5 -58.34006329703686 L 845.5 -58.34006329703686 L 846.5 -59.34006329703686 L 846.5 -59.34006329703686 L 847.5 -60.34006329703686 L 847.5 -60.34006329703686 L 848.5 -61.34006329703698 L 848.5 -61.34006329703698 L 849.5 -62.34006329703686 L 849.5 -62.34006329703686 L 850.4999999999998 -63.34006329703675 L 850.4999999999998 -63.34006329703675 L 851.5 -64.34006329703686 L 851.5 -64.34006329703686 L 852.4999999999998 -65.34006329703675 L 852.4999999999998 -65.34006329703675 L 853.5 -66.34006329703686 L 853.5 -66.34006329703686 L 854.4999999999998 -67.34006329703675 L 854.4999999999998 -67.34006329703675 L 855.5 -68.34006329703686 L 855.5 -68.34006329703686 L 856.5 -69.34006329703686 L 856.5 -69.34006329703686 L 857.5 -70.34006329703686 L 857.5 -70.34006329703686 L 858.5 -71.34006329703686 L 858.5 -71.34006329703686 L 859.5 -72.34006329703686 L 859.5 -72.34006329703686 L 860.5 -73.34006329703686 L 860.5 -73.34006329703686 L 861.5 -74.34006329703686 L 861.5 -74.34006329703686 L 862.5 -75.34006329703686 L 862.5 -75.34006329703686 L 863.5 -76.34006329703686 L 863.5 -76.34006329703686 L 864.5 -77.34006329703686 L 864.5 -77.34006329703686 L 865.5 -78.34006329703698 L 865.5 -78.34006329703698 L 866.5 -79.34006329703686 L 866.5 -79.34006329703686 L 867.4999999999998 -80.34006329703675 L 867.4999999999998 -80.34006329703675 L 868.5 -81.34006329703686 L 868.5 -81.34006329703686 L 869.4999999999998 -82.34006329703675 L 869.4999999999998 -82.34006329703675 L 870.5 -83.34006329703686 L 870.5 -83.34006329703686 L 871.4999999999998 -84.34006329703675 L 871.4999999999998 -84.34006329703675 L 872.5 -85.34006329703686 L 872.5 -85.34006329703686 L 873.5 -86.34006329703686 L 873.5 -86.34006329703686 L 874.5 -87.34006329703686 L 874.5 -87.34006329703686 L 875.5 -88.34006329703686 L 875.5 -88.34006329703686 L 876.5 -89.34006329703686 L 876.5 -89.34006329703686 L 877.5 -90.34006329703686 L 877.5 -90.34006329703686 L 878.5 -91.34006329703686 L 878.5 -91.34006329703686 L 879.5 -92.34006329703686 L 879.5 -92.34006329703686 L 880.5 -93.34006329703686 L 880.5 -93.34006329703686 L 881.5 -94.34006329703686 L 881.5 -94.34006329703686 L 882.4999999999998 -95.34006329703675 L 882.4999999999998 -95.34006329703675 L 883.5 -96.34006329703686 L 883.5 -96.34006329703686 L 884.4999999999998 -97.34006329703675 L 884.4999999999998 -97.34006329703675 L 885.5 -98.34006329703686 L 885.5 -98.34006329703686 L 886.4999999999998 -99.34006329703675 L 886.4999999999998 -99.34006329703675 L 887.5 -100.34006329703686 L 887.5 -100.34006329703686 L 888.5 -101.34006329703686 L 888.5 -101.34006329703686 L 889.5 -102.34006329703686 L 889.5 -102.34006329703686 L 890.5 -103.34006329703686 L 890.5 -103.34006329703686 L 891.5 -104.34006329703686 L 891.5 -104.34006329703686 L 892.5 -105.34006329703686 L 892.5 -105.34006329703686 L 893.5 -106.34006329703686 L 893.5 -106.34006329703686 L 894.5 -107.34006329703686 L 894.5 -107.34006329703686 L 895.5 -108.34006329703686 L 895.5 -108.34006329703686 L 896.5 -109.34006329703686 L 896.5 -109.34006329703686 L 897.5 -110.34006329703698 L 897.5 -110.34006329703698 L 898.5 -111.34006329703686 L 898.5 -111.34006329703686 L 899.4999999999998 -112.34006329703675 L 899.4999999999998 -112.34006329703675 L 900.5 -113.34006329703686 L 900.5 -113.34006329703686 L 901.4999999999998 -114.34006329703675 L 901.4999999999998 -114.34006329703675 L 902.5 -115.34006329703686 L 902.5 -115.34006329703686 L 903.4999999999998 -116.34006329703675 L 903.4999999999998 -116.34006329703675 L 904.5 -117.34006329703686 L 904.5 -117.34006329703686 L 905.5 -118.34006329703686 L 905.5 -118.34006329703686 L 906.5 -119.34006329703686 L 906.5 -119.34006329703686 L 907.5 -120.34006329703686 L 907.5 -120.34006329703686 L 908.5 -121.34006329703686 L 908.5 -121.34006329703686 L 909.5 -122.34006329703686 L 909.5 -122.34006329703686 L 910.5 -123.34006329703686 L 910.5 -123.34006329703686 L 911.5 -124.34006329703686 L 911.5 -124.34006329703686 L 912.5 -125.34006329703686 L 912.5 -125.34006329703686 L 913.5 -126.34006329703686 L 913.5 -126.34006329703686 L 914.4999999999998 -127.34006329703675 L 914.4999999999998 -127.34006329703675 L 915.5 -128.34006329703686 L 915.5 -128.34006329703686 L 916.4999999999998 -129.34006329703675 L 916.4999999999998 -129.34006329703675 L 917.5 -130.34006329703686 L 917.5 -130.34006329703686 L 918.4999999999998 -131.34006329703675 L 918.4999999999998 -131.34006329703675 L 919.5 -132.34006329703686 L 919.5 -132.34006329703686 L 920.5 -133.34006329703686 L 920.5 -133.34006329703686 L 921.5 -134.34006329703686 L 921.5 -134.34006329703686 L 922.5 -135.34006329703686 L 922.5 -135.34006329703686 L 923.5 -136.34006329703686 L 923.5 -136.34006329703686 L 924.5 -137.34006329703686 L 924.5 -137.34006329703686 L 925.5 -138.34006329703686 L 925.5 -138.34006329703686 L 926.5 -139.34006329703686 L 926.5 -139.34006329703686 L 927.5 -140.34006329703686 L 927.5 -140.34006329703686 L 928.5 -141.34006329703686 L 928.5 -141.34006329703686 L 929.5 -142.34006329703698 L 929.5 -142.34006329703698 L 930.5 -143.34006329703686 L 930.5 -143.34006329703686 L 931.4999999999998 -144.34006329703675 L 931.4999999999998 -144.34006329703675 L 932.5 -145.34006329703686 L 932.5 -145.34006329703686 L 933.4999999999998 -146.34006329703675 L 933.4999999999998 -146.34006329703675 L 934.5 -147.34006329703686 L 934.5 -147.34006329703686 L 935.4999999999998 -148.34006329703675 L 935.4999999999998 -148.34006329703675 L 936.5 -149.34006329703686 L 936.5 -149.34006329703686 L 937.5 -150.34006329703686 L 937.5 -150.34006329703686 L 938.5 -151.34006329703686 L 938.5 -151.34006329703686 L 939.5 -152.34006329703686 L 939.5 -152.34006329703686 L 940.5 -153.34006329703686 L 940.5 -153.34006329703686 L 941.5 -154.34006329703686 L 941.5 -154.34006329703686 L 942.5 -155.34006329703686 L 942.5 -155.34006329703686 L 943.5 -156.34006329703686 L 943.5 -156.34006329703686 L 944.5 -157.34006329703686 L 944.5 -157.34006329703686 L 945.5 -158.34006329703686 L 945.5 -158.34006329703686 L 946.4999999999998 -159.34006329703675 L 946.4999999999998 -159.34006329703675 L 947.5 -160.34006329703686 L 947.5 -160.34006329703686 L 948.4999999999998 -161.34006329703675 L 948.4999999999998 -161.34006329703675 L 949.5 -162.34006329703686" stroke-opacity="0.5019607843137255" stroke-linejoin="round" stroke-miterlimit="10" stroke-width="3" stroke-dasharray="7,4"/><path fill="none" stroke="rgb(255,102,0)" paint-order="fill stroke markers" d=" M 287.50013294712255 499.6598037558405 L 289.14843749999994 498.01149920296314 M 289.14843749999994 498.01149920296314 L 292.85546874999994 494.30446795296314 L 296.56249999999994 490.59743670296314 M 296.56249999999994 490.59743670296314 L 300.26953124999994 486.89040545296314 L 303.97656249999994 483.18337420296314 L 307.68359374999994 479.47634295296314 L 311.39062499999994 475.76931170296314 L 315.09765624999994 472.06228045296314 L 318.80468749999994 468.35524920296314 L 322.51171874999994 464.64821795296314 L 326.21874999999994 460.94118670296314 L 329.92578124999994 457.23415545296314 L 333.63281249999994 453.52712420296314 L 337.33984374999994 449.82009295296314 L 341.04687499999994 446.11306170296314 L 344.75390624999994 442.40603045296314 L 348.46093749999994 438.69899920296314 L 352.16796874999994 434.99196795296314 L 355.87499999999994 431.28493670296314 M 355.87499999999994 431.28493670296314 L 359.58203124999994 427.57790545296314 L 363.28906249999994 423.87087420296314 L 366.99609374999994 420.16384295296314 L 370.70312499999994 416.45681170296314 L 374.41015624999994 412.74978045296314 L 378.11718749999994 409.04274920296314 L 381.82421874999994 405.33571795296314 L 385.53124999999994 401.62868670296314 L 389.23828124999994 397.92165545296314 L 392.94531249999994 394.21462420296314 L 396.65234374999994 390.50759295296314 L 400.35937499999994 386.80056170296314 L 404.06640624999994 383.09353045296314 L 407.77343749999994 379.38649920296314 L 411.48046874999994 375.67946795296314 L 415.18749999999994 371.97243670296314 M 415.18749999999994 371.97243670296314 L 418.8945312499999 368.26540545296314 L 422.6015624999999 364.55837420296314 L 426.3085937499999 360.85134295296314 L 430.0156249999999 357.14431170296314 L 433.7226562499999 353.43728045296314 L 437.4296874999999 349.73024920296314 L 441.1367187499999 346.02321795296314 L 444.8437499999999 342.31618670296314 M 444.8437499999999 342.31618670296314 L 448.5507812499999 338.60915545296314 L 452.2578124999999 334.90212420296314 L 455.9648437499999 331.19509295296314 L 459.6718749999999 327.48806170296314 M 459.6718749999999 327.48806170296314 L 463.3789062499999 323.78103045296314 L 467.0859374999999 320.07399920296314 M 467.0859374999999 320.07399920296314 L 470.3042629445115 316.85567375845164" stroke-opacity="1" stroke-linecap="round" stroke-linejoin="round" stroke-miterlimit="10" stroke-width="5"/><path fill="none" stroke="rgb(192,192,192)" paint-order="fill stroke markers" d=" M 470.3042621135836 316.8556745893794 L 287.5001337780504 316.8556745893794" stroke-opacity="0.5019607843137255" stroke-linejoin="round" stroke-miterlimit="10" stroke-width="3" stroke-dasharray="7,4"/><path fill="none" stroke="rgb(192,192,192)" paint-order="fill stroke markers" d=" M 470.3042621135836 316.8556745893794 L 470.3042621135836 499.6598029249127" stroke-opacity="0.5019607843137255" stroke-linejoin="round" stroke-miterlimit="10" stroke-width="3" stroke-dasharray="7,4"/><path fill="rgb(255,102,0)" stroke="none" paint-order="stroke fill markers" d=" M 478.3042621135836 316.8556745893794 C 478.3042621135836 321.27395258802574 474.7225401122299 324.8556745893794 470.3042621135836 324.8556745893794 C 465.88598411493723 324.8556745893794 462.3042621135836 321.27395258802574 462.3042621135836 316.8556745893794 C 462.3042621135836 312.43739659073304 465.88598411493723 308.8556745893794 470.3042621135836 308.8556745893794 C 474.7225401122299 308.8556745893794 478.3042621135836 312.43739659073304 478.3042621135836 316.8556745893794 Z" fill-opacity="1"/><path fill="none" stroke="rgb(0,0,0)" paint-order="fill stroke markers" d=" M 478.3042621135836 316.8556745893794 C 478.3042621135836 321.27395258802574 474.7225401122299 324.8556745893794 470.3042621135836 324.8556745893794 C 465.88598411493723 324.8556745893794 462.3042621135836 321.27395258802574 462.3042621135836 316.8556745893794 C 462.3042621135836 312.43739659073304 465.88598411493723 308.8556745893794 470.3042621135836 308.8556745893794 C 474.7225401122299 308.8556745893794 478.3042621135836 312.43739659073304 478.3042621135836 316.8556745893794 Z" stroke-opacity="1" stroke-linecap="round" stroke-linejoin="round" stroke-miterlimit="10"/><path fill="rgb(255,102,0)" stroke="none" paint-order="stroke fill markers" d=" M 295.5001337780504 499.6598029249127 C 295.5001337780504 504.078080923559 291.91841177669676 507.6598029249127 287.5001337780504 507.6598029249127 C 283.081855779404 507.6598029249127 279.5001337780504 504.078080923559 279.5001337780504 499.6598029249127 C 279.5001337780504 495.2415249262663 283.081855779404 491.6598029249127 287.5001337780504 491.6598029249127 C 291.91841177669676 491.6598029249127 295.5001337780504 495.2415249262663 295.5001337780504 499.6598029249127 Z" fill-opacity="1"/><path fill="none" stroke="rgb(0,0,0)" paint-order="fill stroke markers" d=" M 295.5001337780504 499.6598029249127 C 295.5001337780504 504.078080923559 291.91841177669676 507.6598029249127 287.5001337780504 507.6598029249127 C 283.081855779404 507.6598029249127 279.5001337780504 504.078080923559 279.5001337780504 499.6598029249127 C 279.5001337780504 495.2415249262663 283.081855779404 491.6598029249127 287.5001337780504 491.6598029249127 C 291.91841177669676 491.6598029249127 295.5001337780504 495.2415249262663 295.5001337780504 499.6598029249127 Z" stroke-opacity="1" stroke-linecap="round" stroke-linejoin="round" stroke-miterlimit="10"/><path fill="rgb(255,255,255)" stroke="none" paint-order="stroke fill markers" d=" M 295.5001337780504 316.8556745893794 C 295.5001337780504 321.27395258802574 291.91841177669676 324.8556745893794 287.5001337780504 324.8556745893794 C 283.081855779404 324.8556745893794 279.5001337780504 321.27395258802574 279.5001337780504 316.8556745893794 C 279.5001337780504 312.43739659073304 283.081855779404 308.8556745893794 287.5001337780504 308.8556745893794 C 291.91841177669676 308.8556745893794 295.5001337780504 312.43739659073304 295.5001337780504 316.8556745893794 Z" fill-opacity="1"/><path fill="none" stroke="rgb(0,0,0)" paint-order="fill stroke markers" d=" M 295.5001337780504 316.8556745893794 C 295.5001337780504 321.27395258802574 291.91841177669676 324.8556745893794 287.5001337780504 324.8556745893794 C 283.081855779404 324.8556745893794 279.5001337780504 321.27395258802574 279.5001337780504 316.8556745893794 C 279.5001337780504 312.43739659073304 283.081855779404 308.8556745893794 287.5001337780504 308.8556745893794 C 291.91841177669676 308.8556745893794 295.5001337780504 312.43739659073304 295.5001337780504 316.8556745893794 Z" stroke-opacity="1" stroke-linecap="round" stroke-linejoin="round" stroke-miterlimit="10"/><path fill="rgb(255,255,255)" stroke="none" paint-order="stroke fill markers" d=" M 478.3042621135836 499.6598029249127 C 478.3042621135836 504.078080923559 474.7225401122299 507.6598029249127 470.3042621135836 507.6598029249127 C 465.88598411493723 507.6598029249127 462.3042621135836 504.078080923559 462.3042621135836 499.6598029249127 C 462.3042621135836 495.2415249262663 465.88598411493723 491.6598029249127 470.3042621135836 491.6598029249127 C 474.7225401122299 491.6598029249127 478.3042621135836 495.2415249262663 478.3042621135836 499.6598029249127 Z" fill-opacity="1"/><path fill="none" stroke="rgb(0,0,0)" paint-order="fill stroke markers" d=" M 478.3042621135836 499.6598029249127 C 478.3042621135836 504.078080923559 474.7225401122299 507.6598029249127 470.3042621135836 507.6598029249127 C 465.88598411493723 507.6598029249127 462.3042621135836 504.078080923559 462.3042621135836 499.6598029249127 C 462.3042621135836 495.2415249262663 465.88598411493723 491.6598029249127 470.3042621135836 491.6598029249127 C 474.7225401122299 491.6598029249127 478.3042621135836 495.2415249262663 478.3042621135836 499.6598029249127 Z" stroke-opacity="1" stroke-linecap="round" stroke-linejoin="round" stroke-miterlimit="10"/><g transform="scale(44,44)"><g transform="translate(6.318181818181818,1.6582727272727273)"><path fill="rgb(192,192,192)" stroke="none" paint-order="stroke fill markers" d=" M 0.468 -0.372 Q 0.468 -0.317 0.438 -0.218 Q 0.38 -0.024 0.277 0.006 Q 0.261 0.011 0.243 0.011 Q 0.152 0.011 0.122 -0.052000000000000005 Q 0.109 -0.078 0.109 -0.113 Q 0.109 -0.165 0.155 -0.289 L 0.166 -0.318 Q 0.183 -0.362 0.183 -0.388 Q 0.183 -0.42 0.158 -0.42 Q 0.10400000000000001 -0.42 0.069 -0.331 Q 0.062 -0.315 0.057 -0.296 Q 0.046 -0.279 0.041 -0.278 Q 0.029 -0.278 0.029 -0.28800000000000003 Q 0.029 -0.306 0.051000000000000004 -0.35100000000000003 Q 0.094 -0.442 0.161 -0.442 Q 0.214 -0.442 0.23500000000000001 -0.397 Q 0.243 -0.38 0.243 -0.36 Q 0.243 -0.339 0.231 -0.31 Q 0.177 -0.166 0.17300000000000001 -0.111 L 0.17300000000000001 -0.098 Q 0.17300000000000001 -0.018000000000000002 0.23700000000000002 -0.011 L 0.247 -0.011 Q 0.328 -0.011 0.387 -0.147 Q 0.422 -0.227 0.425 -0.28200000000000003 Q 0.425 -0.332 0.391 -0.364 Q 0.375 -0.38 0.375 -0.394 Q 0.375 -0.419 0.401 -0.435 Q 0.41200000000000003 -0.442 0.424 -0.442 Q 0.453 -0.442 0.464 -0.405 Q 0.468 -0.391 0.468 -0.372 Z"/></g></g><g transform="scale(44,44)"><g transform="translate(10.5,12.296818181818182)"><path fill="rgb(255,255,255)" stroke="none" paint-order="stroke fill markers" d=" M 0.20600000000000002 -0.4 L 0.132 -0.105 Q 0.126 -0.08 0.126 -0.057 Q 0.126 -0.011 0.157 -0.011 Q 0.223 -0.011 0.273 -0.108 L 0.28700000000000003 -0.139 Q 0.293 -0.152 0.302 -0.153 Q 0.314 -0.153 0.314 -0.14300000000000002 Q 0.314 -0.13 0.28800000000000003 -0.08600000000000001 Q 0.23 0.011 0.155 0.011 Q 0.097 0.011 0.073 -0.037 Q 0.063 -0.057 0.063 -0.081 Q 0.063 -0.1 0.124 -0.34 L 0.139 -0.4 L 0.051000000000000004 -0.4 Q 0.026000000000000002 -0.4 0.024 -0.40800000000000003 L 0.023 -0.40800000000000003 L 0.023 -0.41200000000000003 Q 0.023 -0.429 0.039 -0.431 L 0.053 -0.431 L 0.147 -0.431 L 0.186 -0.59 Q 0.195 -0.625 0.226 -0.626 Q 0.252 -0.626 0.255 -0.599 Q 0.255 -0.593 0.214 -0.431 L 0.302 -0.431 Q 0.328 -0.431 0.33 -0.42 Q 0.33 -0.402 0.314 -0.4 L 0.313 -0.4 L 0.3 -0.4 L 0.20600000000000002 -0.4 Z"/></g><g transform="translate(10.861,12.446818181818182) scale(0.7,0.7)"><path fill="rgb(255,255,255)" stroke="none" paint-order="stroke fill markers" d=" M 0.294 -0.64 L 0.294 -0.079 Q 0.294 -0.049 0.306 -0.041 Q 0.323 -0.031 0.387 -0.031 L 0.419 -0.031 L 0.419 0 Q 0.384 -0.003 0.257 -0.003 Q 0.13 -0.003 0.095 0 L 0.095 -0.031 L 0.127 -0.031 Q 0.20400000000000001 -0.031 0.215 -0.049 L 0.216 -0.05 Q 0.22 -0.058 0.22 -0.079 L 0.22 -0.597 Q 0.168 -0.5710000000000001 0.089 -0.5710000000000001 L 0.089 -0.602 Q 0.209 -0.602 0.271 -0.666 Q 0.29 -0.666 0.293 -0.659 L 0.293 -0.659 L 0.293 -0.658 Q 0.294 -0.655 0.294 -0.64 Z"/></g></g><g transform="scale(44,44)"><g transform="translate(6.7272727272727275,14.871272727272727)"><path fill="rgb(255,255,255)" stroke="none" paint-order="stroke fill markers" d=" M 0.20600000000000002 -0.4 L 0.132 -0.105 Q 0.126 -0.08 0.126 -0.057 Q 0.126 -0.011 0.157 -0.011 Q 0.223 -0.011 0.273 -0.108 L 0.28700000000000003 -0.139 Q 0.293 -0.152 0.302 -0.153 Q 0.314 -0.153 0.314 -0.14300000000000002 Q 0.314 -0.13 0.28800000000000003 -0.08600000000000001 Q 0.23 0.011 0.155 0.011 Q 0.097 0.011 0.073 -0.037 Q 0.063 -0.057 0.063 -0.081 Q 0.063 -0.1 0.124 -0.34 L 0.139 -0.4 L 0.051000000000000004 -0.4 Q 0.026000000000000002 -0.4 0.024 -0.40800000000000003 L 0.023 -0.40800000000000003 L 0.023 -0.41200000000000003 Q 0.023 -0.429 0.039 -0.431 L 0.053 -0.431 L 0.147 -0.431 L 0.186 -0.59 Q 0.195 -0.625 0.226 -0.626 Q 0.252 -0.626 0.255 -0.599 Q 0.255 -0.593 0.214 -0.431 L 0.302 -0.431 Q 0.328 -0.431 0.33 -0.42 Q 0.33 -0.402 0.314 -0.4 L 0.313 -0.4 L 0.3 -0.4 L 0.20600000000000002 -0.4 Z"/></g><g transform="translate(7.088272727272727,15.021272727272727) scale(0.7,0.7)"><path fill="rgb(255,255,255)" stroke="none" paint-order="stroke fill markers" d=" M 0.46 -0.32 Q 0.46 -0.17400000000000002 0.423 -0.094 Q 0.364 0.018000000000000002 0.249 0.022 Q 0.158 0.022 0.10300000000000001 -0.05 Q 0.092 -0.063 0.084 -0.079 Q 0.039 -0.162 0.039 -0.32 Q 0.039 -0.467 0.076 -0.547 Q 0.126 -0.659 0.23800000000000002 -0.666 L 0.25 -0.666 Q 0.339 -0.666 0.395 -0.595 L 0.395 -0.594 Q 0.40900000000000003 -0.5760000000000001 0.42 -0.554 Q 0.46 -0.46900000000000003 0.46 -0.32 M 0.249 0 L 0.249 0 Q 0.312 0 0.34600000000000003 -0.061 Q 0.36 -0.088 0.366 -0.125 Q 0.377 -0.189 0.377 -0.332 Q 0.377 -0.47100000000000003 0.367 -0.527 Q 0.34900000000000003 -0.622 0.275 -0.641 Q 0.262 -0.644 0.249 -0.644 Q 0.179 -0.644 0.147 -0.5740000000000001 Q 0.136 -0.55 0.13 -0.516 Q 0.122 -0.462 0.122 -0.332 Q 0.122 -0.181 0.133 -0.121 Q 0.151 -0.025 0.221 -0.004 Q 0.23500000000000001 0 0.249 0 Z"/></g><g transform="translate(7.7160505050505055,14.871272727272727)"><path fill="rgb(255,255,255)" stroke="none" paint-order="stroke fill markers" d=" M 0.687 -0.327 L 0.09 -0.327 Q 0.058 -0.327 0.056 -0.34700000000000003 Q 0.056 -0.367 0.089 -0.367 L 0.6880000000000001 -0.367 Q 0.72 -0.367 0.721 -0.34700000000000003 Q 0.721 -0.327 0.687 -0.327 M 0.6880000000000001 -0.133 L 0.089 -0.133 Q 0.057 -0.133 0.056 -0.153 Q 0.056 -0.17300000000000001 0.09 -0.17300000000000001 L 0.687 -0.17300000000000001 Q 0.719 -0.17300000000000001 0.721 -0.153 Q 0.721 -0.133 0.6880000000000001 -0.133 Z"/></g><g transform="translate(8.771828282828285,14.871272727272727)"><path fill="rgb(255,255,255)" stroke="none" paint-order="stroke fill markers" d=" M 0.46 -0.32 Q 0.46 -0.17400000000000002 0.423 -0.094 Q 0.364 0.018000000000000002 0.249 0.022 Q 0.158 0.022 0.10300000000000001 -0.05 Q 0.092 -0.063 0.084 -0.079 Q 0.039 -0.162 0.039 -0.32 Q 0.039 -0.467 0.076 -0.547 Q 0.126 -0.659 0.23800000000000002 -0.666 L 0.25 -0.666 Q 0.339 -0.666 0.395 -0.595 L 0.395 -0.594 Q 0.40900000000000003 -0.5760000000000001 0.42 -0.554 Q 0.46 -0.46900000000000003 0.46 -0.32 M 0.249 0 L 0.249 0 Q 0.312 0 0.34600000000000003 -0.061 Q 0.36 -0.088 0.366 -0.125 Q 0.377 -0.189 0.377 -0.332 Q 0.377 -0.47100000000000003 0.367 -0.527 Q 0.34900000000000003 -0.622 0.275 -0.641 Q 0.262 -0.644 0.249 -0.644 Q 0.179 -0.644 0.147 -0.5740000000000001 Q 0.136 -0.55 0.13 -0.516 Q 0.122 -0.462 0.122 -0.332 Q 0.122 -0.181 0.133 -0.121 Q 0.151 -0.025 0.221 -0.004 Q 0.23500000000000001 0 0.249 0 Z"/></g></g><g transform="scale(44,44)"><g transform="translate(5.4772727272727275,11.02190909090909)"><path fill="rgb(255,255,255)" stroke="none" paint-order="stroke fill markers" d=" M 0.468 -0.372 Q 0.468 -0.317 0.438 -0.218 Q 0.38 -0.024 0.277 0.006 Q 0.261 0.011 0.243 0.011 Q 0.152 0.011 0.122 -0.052000000000000005 Q 0.109 -0.078 0.109 -0.113 Q 0.109 -0.165 0.155 -0.289 L 0.166 -0.318 Q 0.183 -0.362 0.183 -0.388 Q 0.183 -0.42 0.158 -0.42 Q 0.10400000000000001 -0.42 0.069 -0.331 Q 0.062 -0.315 0.057 -0.296 Q 0.046 -0.279 0.041 -0.278 Q 0.029 -0.278 0.029 -0.28800000000000003 Q 0.029 -0.306 0.051000000000000004 -0.35100000000000003 Q 0.094 -0.442 0.161 -0.442 Q 0.214 -0.442 0.23500000000000001 -0.397 Q 0.243 -0.38 0.243 -0.36 Q 0.243 -0.339 0.231 -0.31 Q 0.177 -0.166 0.17300000000000001 -0.111 L 0.17300000000000001 -0.098 Q 0.17300000000000001 -0.018000000000000002 0.23700000000000002 -0.011 L 0.247 -0.011 Q 0.328 -0.011 0.387 -0.147 Q 0.422 -0.227 0.425 -0.28200000000000003 Q 0.425 -0.332 0.391 -0.364 Q 0.375 -0.38 0.375 -0.394 Q 0.375 -0.419 0.401 -0.435 Q 0.41200000000000003 -0.442 0.424 -0.442 Q 0.453 -0.442 0.464 -0.405 Q 0.468 -0.391 0.468 -0.372 Z"/></g><g transform="translate(5.962272727272728,11.171909090909091) scale(0.7,0.7)"><path fill="rgb(255,255,255)" stroke="none" paint-order="stroke fill markers" d=" M 0.46 -0.32 Q 0.46 -0.17400000000000002 0.423 -0.094 Q 0.364 0.018000000000000002 0.249 0.022 Q 0.158 0.022 0.10300000000000001 -0.05 Q 0.092 -0.063 0.084 -0.079 Q 0.039 -0.162 0.039 -0.32 Q 0.039 -0.467 0.076 -0.547 Q 0.126 -0.659 0.23800000000000002 -0.666 L 0.25 -0.666 Q 0.339 -0.666 0.395 -0.595 L 0.395 -0.594 Q 0.40900000000000003 -0.5760000000000001 0.42 -0.554 Q 0.46 -0.46900000000000003 0.46 -0.32 M 0.249 0 L 0.249 0 Q 0.312 0 0.34600000000000003 -0.061 Q 0.36 -0.088 0.366 -0.125 Q 0.377 -0.189 0.377 -0.332 Q 0.377 -0.47100000000000003 0.367 -0.527 Q 0.34900000000000003 -0.622 0.275 -0.641 Q 0.262 -0.644 0.249 -0.644 Q 0.179 -0.644 0.147 -0.5740000000000001 Q 0.136 -0.55 0.13 -0.516 Q 0.122 -0.462 0.122 -0.332 Q 0.122 -0.181 0.133 -0.121 Q 0.151 -0.025 0.221 -0.004 Q 0.23500000000000001 0 0.249 0 Z"/></g></g><g transform="scale(44,44)"><g transform="translate(5.4772727272727275,7.317363636363637)"><path fill="rgb(255,255,255)" stroke="none" paint-order="stroke fill markers" d=" M 0.468 -0.372 Q 0.468 -0.317 0.438 -0.218 Q 0.38 -0.024 0.277 0.006 Q 0.261 0.011 0.243 0.011 Q 0.152 0.011 0.122 -0.052000000000000005 Q 0.109 -0.078 0.109 -0.113 Q 0.109 -0.165 0.155 -0.289 L 0.166 -0.318 Q 0.183 -0.362 0.183 -0.388 Q 0.183 -0.42 0.158 -0.42 Q 0.10400000000000001 -0.42 0.069 -0.331 Q 0.062 -0.315 0.057 -0.296 Q 0.046 -0.279 0.041 -0.278 Q 0.029 -0.278 0.029 -0.28800000000000003 Q 0.029 -0.306 0.051000000000000004 -0.35100000000000003 Q 0.094 -0.442 0.161 -0.442 Q 0.214 -0.442 0.23500000000000001 -0.397 Q 0.243 -0.38 0.243 -0.36 Q 0.243 -0.339 0.231 -0.31 Q 0.177 -0.166 0.17300000000000001 -0.111 L 0.17300000000000001 -0.098 Q 0.17300000000000001 -0.018000000000000002 0.23700000000000002 -0.011 L 0.247 -0.011 Q 0.328 -0.011 0.387 -0.147 Q 0.422 -0.227 0.425 -0.28200000000000003 Q 0.425 -0.332 0.391 -0.364 Q 0.375 -0.38 0.375 -0.394 Q 0.375 -0.419 0.401 -0.435 Q 0.41200000000000003 -0.442 0.424 -0.442 Q 0.453 -0.442 0.464 -0.405 Q 0.468 -0.391 0.468 -0.372 Z"/></g><g transform="translate(5.962272727272728,7.467363636363637) scale(0.7,0.7)"><path fill="rgb(255,255,255)" stroke="none" paint-order="stroke fill markers" d=" M 0.294 -0.64 L 0.294 -0.079 Q 0.294 -0.049 0.306 -0.041 Q 0.323 -0.031 0.387 -0.031 L 0.419 -0.031 L 0.419 0 Q 0.384 -0.003 0.257 -0.003 Q 0.13 -0.003 0.095 0 L 0.095 -0.031 L 0.127 -0.031 Q 0.20400000000000001 -0.031 0.215 -0.049 L 0.216 -0.05 Q 0.22 -0.058 0.22 -0.079 L 0.22 -0.597 Q 0.168 -0.5710000000000001 0.089 -0.5710000000000001 L 0.089 -0.602 Q 0.209 -0.602 0.271 -0.666 Q 0.29 -0.666 0.293 -0.659 L 0.293 -0.659 L 0.293 -0.658 Q 0.294 -0.655 0.294 -0.64 Z"/></g></g><g transform="scale(25,25)"><g transform="translate(11.847820672475201,4.431)"><path fill="rgb(192,192,192)" stroke="none" paint-order="stroke fill markers" d=" M 0.088 -0.059000000000000004 L 0.088 -0.059000000000000004 L 0.146 -0.29 Q 0.162 -0.354 0.162 -0.374 Q 0.162 -0.42 0.131 -0.42 Q 0.09 -0.42 0.064 -0.325 Q 0.061 -0.314 0.058 -0.301 Q 0.047 -0.279 0.041 -0.278 Q 0.029 -0.278 0.029 -0.28800000000000003 Q 0.029 -0.304 0.048 -0.356 Q 0.054 -0.373 0.06 -0.385 Q 0.084 -0.434 0.12 -0.441 Q 0.127 -0.442 0.134 -0.442 Q 0.188 -0.442 0.214 -0.397 Q 0.224 -0.378 0.226 -0.355 Q 0.29 -0.442 0.382 -0.442 Q 0.433 -0.442 0.464 -0.41600000000000004 Q 0.492 -0.392 0.496 -0.34500000000000003 Q 0.5640000000000001 -0.442 0.659 -0.442 Q 0.748 -0.442 0.769 -0.373 L 0.769 -0.372 Q 0.774 -0.355 0.774 -0.335 Q 0.774 -0.28200000000000003 0.713 -0.115 Q 0.6950000000000001 -0.07100000000000001 0.6950000000000001 -0.044 Q 0.6950000000000001 -0.011 0.719 -0.011 Q 0.781 -0.011 0.8170000000000001 -0.121 L 0.8210000000000001 -0.135 Q 0.8260000000000001 -0.151 0.8310000000000001 -0.152 L 0.8310000000000001 -0.153 L 0.836 -0.153 Q 0.848 -0.153 0.848 -0.14300000000000002 Q 0.848 -0.126 0.8270000000000001 -0.08 Q 0.784 0.011 0.717 0.011 Q 0.666 0.011 0.644 -0.032 Q 0.635 -0.05 0.635 -0.07100000000000001 Q 0.635 -0.091 0.648 -0.126 Q 0.71 -0.29 0.71 -0.35000000000000003 Q 0.71 -0.42 0.656 -0.42 Q 0.5680000000000001 -0.42 0.51 -0.325 Q 0.494 -0.3 0.491 -0.28700000000000003 Q 0.488 -0.274 0.431 -0.046 Q 0.42 -0.003 0.406 0.006 L 0.405 0.007 L 0.404 0.007 Q 0.397 0.011 0.386 0.011 Q 0.361 0.006 0.357 -0.016 L 0.37 -0.075 L 0.39 -0.151 L 0.418 -0.267 Q 0.433 -0.323 0.433 -0.35000000000000003 Q 0.433 -0.42 0.379 -0.42 Q 0.289 -0.42 0.228 -0.32 Q 0.221 -0.309 0.216 -0.298 L 0.203 -0.248 Q 0.198 -0.225 0.186 -0.181 L 0.164 -0.091 Q 0.147 -0.022 0.145 -0.017 Q 0.136 0.009000000000000001 0.108 0.011 Q 0.083 0.006 0.079 -0.016 Q 0.079 -0.014 0.088 -0.059000000000000004 Z"/></g><rect fill="rgb(192,192,192)" stroke="none" x="11.847820672475201" y="4.8375085" width="0.878" height="0.039999"/><g transform="translate(12.0523206724752,5.793459)"><path fill="rgb(192,192,192)" stroke="none" paint-order="stroke fill markers" d=" M 0.391 -0.374 L 0.391 -0.374 Q 0.37 -0.418 0.301 -0.42 Q 0.22 -0.42 0.195 -0.359 Q 0.189 -0.34400000000000003 0.189 -0.33 Q 0.189 -0.291 0.23700000000000002 -0.277 L 0.23700000000000002 -0.277 L 0.23800000000000002 -0.276 Q 0.245 -0.274 0.265 -0.27 Q 0.327 -0.257 0.34800000000000003 -0.242 Q 0.357 -0.23600000000000002 0.365 -0.228 Q 0.396 -0.197 0.396 -0.155 Q 0.396 -0.10300000000000001 0.357 -0.056 Q 0.301 0.011 0.195 0.011 Q 0.10200000000000001 0.011 0.066 -0.041 Q 0.052000000000000005 -0.061 0.052000000000000005 -0.08600000000000001 Q 0.052000000000000005 -0.135 0.09 -0.149 Q 0.099 -0.152 0.108 -0.152 Q 0.14100000000000001 -0.147 0.145 -0.117 Q 0.145 -0.08600000000000001 0.11800000000000001 -0.07100000000000001 Q 0.10200000000000001 -0.061 0.082 -0.064 Q 0.105 -0.011 0.196 -0.011 Q 0.299 -0.011 0.331 -0.08600000000000001 Q 0.339 -0.105 0.339 -0.121 Q 0.339 -0.169 0.28 -0.187 L 0.28 -0.187 L 0.279 -0.187 Q 0.264 -0.191 0.23500000000000001 -0.197 Q 0.145 -0.216 0.134 -0.277 Q 0.132 -0.28600000000000003 0.132 -0.296 Q 0.132 -0.34600000000000003 0.17 -0.389 Q 0.217 -0.442 0.301 -0.442 Q 0.38 -0.442 0.41000000000000003 -0.393 Q 0.42 -0.376 0.42 -0.356 Q 0.42 -0.311 0.386 -0.302 Q 0.38 -0.3 0.374 -0.3 Q 0.34600000000000003 -0.304 0.343 -0.329 Q 0.343 -0.356 0.37 -0.369 Q 0.38 -0.374 0.391 -0.374 Z"/></g></g><path fill="rgb(255,255,255)" stroke="none" paint-order="stroke fill markers" d=" M 295.5001337780504 499.6598029249127 C 295.5001337780504 504.078080923559 291.91841177669676 507.6598029249127 287.5001337780504 507.6598029249127 C 283.081855779404 507.6598029249127 279.5001337780504 504.078080923559 279.5001337780504 499.6598029249127 C 279.5001337780504 495.2415249262663 283.081855779404 491.6598029249127 287.5001337780504 491.6598029249127 C 291.91841177669676 491.6598029249127 295.5001337780504 495.2415249262663 295.5001337780504 499.6598029249127 Z" fill-opacity="1"/><path fill="none" stroke="rgb(0,0,0)" paint-order="fill stroke markers" d=" M 295.5001337780504 499.6598029249127 C 295.5001337780504 504.078080923559 291.91841177669676 507.6598029249127 287.5001337780504 507.6598029249127 C 283.081855779404 507.6598029249127 279.5001337780504 504.078080923559 279.5001337780504 499.6598029249127 C 279.5001337780504 495.2415249262663 283.081855779404 491.6598029249127 287.5001337780504 491.6598029249127 C 291.91841177669676 491.6598029249127 295.5001337780504 495.2415249262663 295.5001337780504 499.6598029249127 Z" stroke-opacity="1" stroke-linecap="round" stroke-linejoin="round" stroke-miterlimit="10"/></g></g></svg>