<svg version="1.1" xmlns="http://www.w3.org/2000/svg" xmlns:xlink="http://www.w3.org/1999/xlink" width="949" height="704"><defs><clipPath id="bKTxVGrbmTWC"><path fill="none" stroke="none" d=" M 0 0 L 949 0 L 949 704 L 0 704 L 0 0 Z"/></clipPath></defs><g transform="scale(1,1)" clip-path="url(#bKTxVGrbmTWC)"><g><rect fill="rgb(0,0,0)" stroke="none" x="0" y="0" width="949" height="704" fill-opacity="1"/><path fill="none" stroke="rgb(255,0,51)" paint-order="fill stroke markers" d=" M -5 566.1340314105612 L 954 566.1340314105612" stroke-opacity="0.7019607843137254" stroke-linecap="round" stroke-linejoin="round" stroke-miterlimit="10" stroke-width="4.5"/><path fill="rgb(255,255,255)" stroke="none" paint-order="stroke fill markers" d=" M 704.3502750646594 499.08570343867433 C 704.426132897122 499.2690745320902 704.4640618133533 499.4644387285015 704.4640618133532 499.6598029249127 L 704.4640618133533 499.6598029249127 C 704.4640618133533 499.4564471422262 704.423595132958 499.262542859171 704.3502751350945 499.08570343867433 Z M 704.4640571533735 499.66355362242217 C 704.4635747437518 499.8576928250496 704.42563739034 500.0517562368836 704.3502450931378 500.2339748558983 L 704.350245096296 500.2339748558983 C 704.4231331241959 500.058203440699 704.4635627816681 499.8655707479095 704.4640572238199 499.66355362242217 Z M 38.221776956868695 498.1598029249127 C 37.3933498321225 498.1598029249127 36.721776956868695 498.8313758001665 36.721776956868695 499.6598029249127 C 36.721776956868695 500.4882300496589 37.3933498321225 501.1598029249127 38.221776956868695 501.1598029249127 L 699.3427414697937 501.1598029249127 L 700.8427414697937 499.6598029249127 L 699.3427414697937 498.1598029249127 Z" fill-opacity="0.6980392156862745"/><path fill="rgb(255,255,255)" stroke="none" paint-order="stroke fill markers" d=" M 701.9034016415735 498.59914275313287 L 695.9034016415735 504.59914275313287 C 695.3176152039466 505.18492919075976 695.3176152039466 506.1346766590656 695.9034016415735 506.72046309669247 C 696.4891880792004 507.30624953431936 697.4389355475062 507.3062495343194 698.024721985133 506.7204630966925 L 704.024721985133 500.7204630966925 C 704.61050842276 500.13467665906563 704.61050842276 499.1849291907598 704.024721985133 498.5991427531329 C 703.4389355475062 498.01335631550603 702.4891880792004 498.013356315506 701.9034016415735 498.59914275313287 Z M 695.9034016415735 494.7204630966925 L 701.9034016415735 500.7204630966925 C 702.4891880792004 501.3062495343194 703.4389355475062 501.30624953431936 704.024721985133 500.72046309669247 C 704.61050842276 500.1346766590656 704.61050842276 499.18492919075976 704.024721985133 498.59914275313287 L 698.024721985133 492.59914275313287 C 697.4389355475062 492.013356315506 696.4891880792004 492.01335631550603 695.9034016415735 492.5991427531329 C 695.3176152039466 493.1849291907598 695.3176152039466 494.13467665906563 695.9034016415735 494.7204630966925 Z" fill-opacity="0.6980392156862745"/><path fill="rgb(255,255,255)" stroke="none" paint-order="stroke fill markers" d=" M 287.50013002685665 82.69587488961444 C 287.29675111304266 82.69587538731578 287.10282590677394 82.7363517713154 286.92597038232606 82.80968806733793 L 286.9259704091178 82.80968806733793 C 287.1093588463529 82.73381309737422 287.3047444128698 82.6958753714664 287.50013005557577 82.69587488961444 Z M 287.5001375406452 82.69587488961454 L 287.50013754064514 82.69587488961454 C 287.6955231699777 82.69587537665979 287.8909087223001 82.73381310256757 288.074297146983 82.80968806733793 L 288.0742971737747 82.80968806733793 C 287.8974416610801 82.73635177618911 287.7035164688335 82.69587539269567 287.50013756979206 82.69587488961454 Z M 287.5001337780504 86.31719523316951 L 286.0001337780504 87.8171952331695 L 286.0001337780504 709 C 286.0001337780504 709.8284271247462 286.67170665330417 710.5 287.5001337780504 710.5 C 288.3285609027966 710.5 289.0001337780504 709.8284271247462 289.0001337780504 709 L 289.0001337780504 87.8171952331695 L 287.5001337780504 86.31719523316951 Z" fill-opacity="0.6980392156862745"/><path fill="rgb(255,255,255)" stroke="none" paint-order="stroke fill markers" d=" M 286.43947360627055 83.13521471783002 L 280.43947360627055 89.13521471783002 C 279.85368716864366 89.72100115545692 279.85368716864366 90.67074862376279 280.43947360627055 91.25653506138968 C 281.02526004389745 91.84232149901658 281.9750075122033 91.84232149901658 282.5607939498302 91.25653506138968 L 288.5607939498302 85.25653506138968 C 289.1465803874571 84.67074862376279 289.1465803874571 83.72100115545692 288.5607939498302 83.13521471783002 C 287.9750075122033 82.54942828020313 287.02526004389745 82.54942828020313 286.43947360627055 83.13521471783002 Z M 294.5607939498302 89.13521471783002 L 288.5607939498302 83.13521471783002 C 287.9750075122033 82.54942828020313 287.02526004389745 82.54942828020313 286.43947360627055 83.13521471783002 C 285.85368716864366 83.72100115545692 285.85368716864366 84.67074862376279 286.43947360627055 85.25653506138968 L 292.43947360627055 91.25653506138968 C 293.02526004389745 91.84232149901658 293.9750075122033 91.84232149901658 294.5607939498302 91.25653506138968 C 295.1465803874571 90.67074862376279 295.1465803874571 89.72100115545692 294.5607939498302 89.13521471783002 Z" fill-opacity="0.6980392156862745"/><path fill="rgb(0,0,0)" stroke="none" paint-order="stroke fill markers" d=" M 919.4796280991716 131.73367768595176 C 919.4796280991716 132.28596243578255 919.0319128490024 132.73367768595176 918.4796280991716 132.73367768595176 C 917.9273433493407 132.73367768595176 917.4796280991716 132.28596243578255 917.4796280991716 131.73367768595176 C 917.4796280991716 131.18139293612097 917.9273433493407 130.73367768595176 918.4796280991716 130.73367768595176 C 919.0319128490024 130.73367768595176 919.4796280991716 131.18139293612097 919.4796280991716 131.73367768595176 Z" fill-opacity="1"/><g transform="scale(44,44)"><g transform="translate(16.181818181818183,11.592272727272727)"><path fill="rgb(192,192,192)" stroke="none" paint-order="stroke fill markers" d=" M 0.20600000000000002 -0.4 L 0.132 -0.105 Q 0.126 -0.08 0.126 -0.057 Q 0.126 -0.011 0.157 -0.011 Q 0.223 -0.011 0.273 -0.108 L 0.28700000000000003 -0.139 Q 0.293 -0.152 0.302 -0.153 Q 0.314 -0.153 0.314 -0.14300000000000002 Q 0.314 -0.13 0.28800000000000003 -0.08600000000000001 Q 0.23 0.011 0.155 0.011 Q 0.097 0.011 0.073 -0.037 Q 0.063 -0.057 0.063 -0.081 Q 0.063 -0.1 0.124 -0.34 L 0.139 -0.4 L 0.051000000000000004 -0.4 Q 0.026000000000000002 -0.4 0.024 -0.40800000000000003 L 0.023 -0.40800000000000003 L 0.023 -0.41200000000000003 Q 0.023 -0.429 0.039 -0.431 L 0.053 -0.431 L 0.147 -0.431 L 0.186 -0.59 Q 0.195 -0.625 0.226 -0.626 Q 0.252 -0.626 0.255 -0.599 Q 0.255 -0.593 0.214 -0.431 L 0.302 -0.431 Q 0.328 -0.431 0.33 -0.42 Q 0.33 -0.402 0.314 -0.4 L 0.313 -0.4 L 0.3 -0.4 L 0.20600000000000002 -0.4 Z"/></g></g><g transform="scale(25,25)"><g transform="translate(27.16,19.751)"><path fill="rgb(192,192,192)" stroke="none" paint-order="stroke fill markers" d=" M 0.391 -0.374 L 0.391 -0.374 Q 0.37 -0.418 0.301 -0.42 Q 0.22 -0.42 0.195 -0.359 Q 0.189 -0.34400000000000003 0.189 -0.33 Q 0.189 -0.291 0.23700000000000002 -0.277 L 0.23700000000000002 -0.277 L 0.23800000000000002 -0.276 Q 0.245 -0.274 0.265 -0.27 Q 0.327 -0.257 0.34800000000000003 -0.242 Q 0.357 -0.23600000000000002 0.365 -0.228 Q 0.396 -0.197 0.396 -0.155 Q 0.396 -0.10300000000000001 0.357 -0.056 Q 0.301 0.011 0.195 0.011 Q 0.10200000000000001 0.011 0.066 -0.041 Q 0.052000000000000005 -0.061 0.052000000000000005 -0.08600000000000001 Q 0.052000000000000005 -0.135 0.09 -0.149 Q 0.099 -0.152 0.108 -0.152 Q 0.14100000000000001 -0.147 0.145 -0.117 Q 0.145 -0.08600000000000001 0.11800000000000001 -0.07100000000000001 Q 0.10200000000000001 -0.061 0.082 -0.064 Q 0.105 -0.011 0.196 -0.011 Q 0.299 -0.011 0.331 -0.08600000000000001 Q 0.339 -0.105 0.339 -0.121 Q 0.339 -0.169 0.28 -0.187 L 0.28 -0.187 L 0.279 -0.187 Q 0.264 -0.191 0.23500000000000001 -0.197 Q 0.145 -0.216 0.134 -0.277 Q 0.132 -0.28600000000000003 0.132 -0.296 Q 0.132 -0.34600000000000003 0.17 -0.389 Q 0.217 -0.442 0.301 -0.442 Q 0.38 -0.442 0.41000000000000003 -0.393 Q 0.42 -0.376 0.42 -0.356 Q 0.42 -0.311 0.386 -0.302 Q 0.38 -0.3 0.374 -0.3 Q 0.34600000000000003 -0.304 0.343 -0.329 Q 0.343 -0.356 0.37 -0.369 Q 0.38 -0.374 0.391 -0.374 Z"/></g></g><path fill="none" stroke="rgb(0,204,0)" paint-order="fill stroke markers" d=" M 0 68.76036462032789 L 1.853515625 75.15283571370293 L 3.70703125 81.50396121796314 L 5.560546875 87.81374113310841 L 7.4140625 94.08217545913902 L 9.267578125 100.30926419605453 L 11.12109375 106.49500734385538 L 12.974609375 112.63940490254112 L 14.828125 118.7424568721122 L 16.681640625 124.80416325256834 L 18.53515625 130.82452404390966 L 20.388671875 136.8035392461361 L 22.2421875 142.74120885924765 L 24.095703125 148.63753288324426 L 25.94921875 154.49251131812616 L 27.802734375 160.30614416389307 L 29.65625 166.0784314205452 L 31.509765625 171.8093730880824 L 33.36328125000003 177.49896916650482 L 35.216796875 183.14721965581225 L 37.07031250000003 188.7541245560049 L 38.923828125 194.3196838670827 L 40.77734375000003 199.84389758904558 L 42.630859375 205.3267657218936 L 44.48437500000003 210.76828826562684 L 46.337890625 216.16846522024503 L 48.19140625 221.52729658574845 L 50.044921875 226.84478236213704 L 51.89843750000003 232.1209225494108 L 53.751953125 237.35571714756964 L 55.60546875 242.54916615661358 L 57.458984375 247.70126957654273 L 59.31250000000003 252.81202740735696 L 61.166015625 257.88143964905635 L 63.01953125 262.9095063016408 L 66.72656250000003 272.8416028394653 L 70.43359375 282.6083170208302 L 74.14062500000003 292.2096488457357 L 77.84765625 301.64559831418177 L 81.5546875 310.9161654261684 L 85.26171875 320.0213501816954 L 88.96875 328.9611525807631 L 92.67578125 337.7355726233713 L 96.3828125 346.34461030952 L 100.08984375 354.78826563920927 L 103.796875 363.0665386124391 L 107.50390625 371.1794292292094 L 111.2109375 379.1269374895203 L 114.91796875 386.9090633933717 L 118.625 394.5258069407637 L 122.33203125 401.9771681316962 L 126.0390625 409.2631469661692 L 129.74609375 416.38374344418276 L 133.453125 423.3389575657369 L 137.16015625000003 430.1287893308315 L 140.86718750000003 436.7532387394667 L 144.57421875000003 443.21230579164245 L 148.28125000000003 449.5059904873587 L 151.98828125 455.6342928266155 L 155.6953125 461.5972128094128 L 159.40234375 467.39475043575067 L 163.109375 473.0269057056291 L 166.81640625000003 478.493678619048 L 170.52343750000003 483.79506917600753 L 174.23046875000003 488.9310773765076 L 177.9375 493.9017032205481 L 181.64453125 498.7069467081292 L 185.3515625 503.3468078392508 L 189.05859375 507.82128661391295 L 192.765625 512.1303830321157 L 196.47265625 516.2740970938589 L 200.1796875 520.2524287991428 L 203.88671875 524.0653781479671 L 207.59375 527.712945140332 L 211.30078125 531.1951297762373 L 215.0078125 534.5119320556832 L 218.71484375 537.6633519786698 L 222.421875 540.6493895451968 L 226.12890625 543.4700447552643 L 229.8359375 546.1253176088724 L 233.54296875 548.615208106021 L 237.25 550.9397162467102 L 240.95703125 553.0988420309399 L 244.6640625 555.0925854587101 L 248.37109375 556.9209465300208 L 252.078125 558.5839252448721 L 255.78515625 560.081521603264 L 259.4921875 561.4137356051964 L 263.19921875 562.5805672506693 L 266.90625 563.5820165396829 L 270.61328125 564.4180834722368 L 274.3203125 565.0887680483314 L 278.02734375 565.5940702679665 L 281.734375 565.9339901311421 L 285.44140625 566.1085276378582 L 289.1484375 566.117682788115 L 292.85546875 565.9614555819121 L 296.5625 565.63984601925 L 300.26953125 565.1528541001283 L 303.9765625 564.500479824547 L 307.68359375 563.6827231925065 L 311.390625 562.6995842040063 L 315.09765625 561.5510628590469 L 318.8046875 560.2371591576278 L 322.51171875 558.7578730997493 L 326.21875 557.1132046854115 L 329.92578125 555.303153914614 L 333.6328125 553.3277207873572 L 337.33984375 551.1869053036409 L 341.04687500000006 548.880707463465 L 344.75390625 546.4091272668298 L 348.46093750000006 543.772164713735 L 352.16796875 540.9698198041809 L 355.87499999999994 538.0020925381674 L 359.58203125 534.8689829156942 L 363.2890625 531.5704909367618 L 366.99609375 528.1066166013696 L 370.703125 524.4773599095182 L 374.41015625 520.6827208612073 L 378.1171875 516.7226994564369 L 381.82421875 512.597295695207 L 385.53125 508.3065095775177 L 389.23828125 503.85034110336886 L 392.9453125 499.22879027276065 L 396.65234375 494.4418570856929 L 400.359375 489.48954154216574 L 404.06640625 484.3718436421791 L 407.7734375 479.08876338573305 L 411.48046875 473.6403007728274 L 415.1875 468.02645580346245 L 418.89453125 462.2472284776379 L 422.6015625 456.302618795354 L 426.30859375 450.19262675661054 L 430.015625 443.9172523614077 L 433.72265625 437.4764956097453 L 437.4296875 430.8703565016236 L 441.13671875 424.09883503704225 L 444.84375 417.1619312160016 L 448.55078125 410.05964503850134 L 452.2578125 402.79197650454176 L 455.96484375 395.3589256141226 L 459.671875 387.76049236724407 L 463.37890625 379.99667676390595 L 467.0859375 372.06747880410853 L 470.79296875 363.9728984878515 L 474.5 355.7129358151352 L 478.20703125 347.28759078595937 L 481.9140625 338.696863400324 L 485.62109375 329.94075365822926 L 489.328125 321.0192615596749 L 493.03515625 311.9323871046612 L 496.7421875 302.680130293188 L 500.44921875 293.26249112525534 L 504.15625 283.6794696008632 L 507.86328125 273.9310657200117 L 511.5703125 264.01727948270053 L 513.423828125 258.9983679803727 L 515.27734375 253.93811088893017 L 517.130859375 248.83650820837255 L 518.984375 243.69355993870008 L 520.837890625 238.50926607991272 L 522.69140625 233.28362663201074 L 524.544921875 228.0166415949937 L 526.3984375 222.70831096886172 L 528.251953125 217.35863475361492 L 530.10546875 211.96761294925346 L 531.958984375 206.5352455557769 L 533.8125 201.06153257318556 L 535.666015625 195.54647400147945 L 537.51953125 189.99006984065835 L 539.373046875 184.39232009072236 L 541.2265625 178.7532247516715 L 543.080078125 173.07278382350603 L 544.93359375 167.3509973062254 L 546.787109375 161.58786519982993 L 548.640625 155.78338750431965 L 550.494140625 149.9375642196947 L 552.34765625 144.0503953459546 L 554.201171875 138.12188088309972 L 556.0546875 132.15202083112996 L 557.908203125 126.14081519004554 L 559.76171875 120.08826395984596 L 561.615234375 113.99436714053161 L 563.46875 107.85912473210237 L 565.322265625 101.68253673455848 L 567.17578125 95.46460314789954 L 569.029296875 89.20532397212565 L 570.8828125 82.90469920723694 L 572.736328125 76.56272885323358 L 574.58984375 70.17941291011516 L 576.443359375 63.75475137788186 L 578.296875 57.28874425653362 L 580.150390625 50.78139154607089 L 582.00390625 44.23269324649294 L 583.857421875 37.642649357800224 L 585.7109375 31.011259879992508 L 587.564453125 24.338524813070308 L 589.41796875 17.62444415703294 L 591.271484375 10.86901791188069 L 593.125 4.072246077613556 L 594.978515625 -2.7658713457681188 L 596.83203125 -9.64533435826496" stroke-opacity="0.4" stroke-linejoin="round" stroke-miterlimit="10" stroke-width="3" stroke-dasharray="7,4"/><path fill="none" stroke="rgb(0,204,0)" paint-order="fill stroke markers" d=" M 287.50013294712255 566.1340314105612 L 289.1484375 566.117682788115 M 289.1484375 566.117682788115 L 292.85546875 565.9614555819121 L 296.5625 565.63984601925 M 296.5625 565.63984601925 L 300.26953125 565.1528541001283 L 303.9765625 564.500479824547 L 307.68359375 563.6827231925065 L 311.390625 562.6995842040063 L 315.09765625 561.5510628590469 L 318.8046875 560.2371591576278 L 322.51171875 558.7578730997493 L 326.21875 557.1132046854115 L 329.92578125 555.3031539146141 L 333.6328125 553.3277207873572 L 337.33984375 551.1869053036409 L 341.046875 548.8807074634651 L 344.75390625 546.4091272668298 L 348.4609375 543.7721647137352 L 352.16796875 540.9698198041809 L 355.875 538.0020925381673 M 355.875 538.0020925381673 L 359.58203125 534.8689829156942 L 363.2890625 531.5704909367618 L 366.99609375 528.1066166013698 L 370.703125 524.4773599095182 L 374.41015625 520.6827208612073 L 378.1171875 516.7226994564369 L 381.82421875 512.597295695207 L 385.53125 508.3065095775177 L 389.23828125 503.8503411033689 L 392.9453125 499.22879027276065 L 396.65234375 494.44185708569296 L 400.359375 489.48954154216574 L 404.06640625 484.3718436421791 L 407.77343749999994 479.08876338573305 L 411.48046874999994 473.6403007728275 L 415.18749999999994 468.02645580346245 M 415.18749999999994 468.02645580346245 L 418.89453125 462.247228477638 L 422.6015625 456.302618795354 L 426.30859375 450.1926267566106 L 430.01562499999994 443.9172523614078 L 433.72265624999994 437.4764956097454 L 437.42968749999994 430.87035650162363 L 441.13671874999994 424.09883503704236 L 444.84374999999994 417.1619312160017 M 444.84374999999994 417.1619312160017 L 448.55078124999994 410.05964503850146 L 452.25781249999994 402.7919765045418 L 455.96484374999994 395.35892561412277 L 459.67187499999994 387.7604923672442 M 459.67187499999994 387.7604923672442 L 463.37890624999994 379.9966767639061 L 467.0859375 372.06747880410865 M 467.0859375 372.06747880410865 L 470.3042629445115 365.0494884134333" stroke-opacity="1" stroke-linecap="round" stroke-linejoin="round" stroke-miterlimit="10" stroke-width="5"/><path fill="none" stroke="rgb(192,192,192)" paint-order="fill stroke markers" d=" M 470.3042621135836 365.0494902414746 L 287.5001337780504 365.0494902414746" stroke-opacity="0.5019607843137255" stroke-linejoin="round" stroke-miterlimit="10" stroke-width="3" stroke-dasharray="7,4"/><path fill="none" stroke="rgb(192,192,192)" paint-order="fill stroke markers" d=" M 470.3042621135836 365.0494902414746 L 470.3042621135836 499.6598029249127" stroke-opacity="0.5019607843137255" stroke-linejoin="round" stroke-miterlimit="10" stroke-width="3" stroke-dasharray="7,4"/><path fill="rgb(0,204,0)" stroke="none" paint-order="stroke fill markers" d=" M 295.5001337780504 566.1340314105612 C 295.5001337780504 570.5523094092075 291.91841177669676 574.1340314105612 287.5001337780504 574.1340314105612 C 283.081855779404 574.1340314105612 279.5001337780504 570.5523094092075 279.5001337780504 566.1340314105612 C 279.5001337780504 561.7157534119149 283.081855779404 558.1340314105612 287.5001337780504 558.1340314105612 C 291.91841177669676 558.1340314105612 295.5001337780504 561.7157534119149 295.5001337780504 566.1340314105612 Z" fill-opacity="1"/><path fill="none" stroke="rgb(0,0,0)" paint-order="fill stroke markers" d=" M 295.5001337780504 566.1340314105612 C 295.5001337780504 570.5523094092075 291.91841177669676 574.1340314105612 287.5001337780504 574.1340314105612 C 283.081855779404 574.1340314105612 279.5001337780504 570.5523094092075 279.5001337780504 566.1340314105612 C 279.5001337780504 561.7157534119149 283.081855779404 558.1340314105612 287.5001337780504 558.1340314105612 C 291.91841177669676 558.1340314105612 295.5001337780504 561.7157534119149 295.5001337780504 566.1340314105612 Z" stroke-opacity="1" stroke-linecap="round" stroke-linejoin="round" stroke-miterlimit="10"/><path fill="rgb(255,255,255)" stroke="none" paint-order="stroke fill markers" d=" M 295.5001337780504 365.0494902414746 C 295.5001337780504 369.4677682401209 291.91841177669676 373.0494902414746 287.5001337780504 373.0494902414746 C 283.081855779404 373.0494902414746 279.5001337780504 369.4677682401209 279.5001337780504 365.0494902414746 C 279.5001337780504 360.6312122428282 283.081855779404 357.0494902414746 287.5001337780504 357.0494902414746 C 291.91841177669676 357.0494902414746 295.5001337780504 360.6312122428282 295.5001337780504 365.0494902414746 Z" fill-opacity="1"/><path fill="none" stroke="rgb(0,0,0)" paint-order="fill stroke markers" d=" M 295.5001337780504 365.0494902414746 C 295.5001337780504 369.4677682401209 291.91841177669676 373.0494902414746 287.5001337780504 373.0494902414746 C 283.081855779404 373.0494902414746 279.5001337780504 369.4677682401209 279.5001337780504 365.0494902414746 C 279.5001337780504 360.6312122428282 283.081855779404 357.0494902414746 287.5001337780504 357.0494902414746 C 291.91841177669676 357.0494902414746 295.5001337780504 360.6312122428282 295.5001337780504 365.0494902414746 Z" stroke-opacity="1" stroke-linecap="round" stroke-linejoin="round" stroke-miterlimit="10"/><path fill="rgb(0,204,0)" stroke="none" paint-order="stroke fill markers" d=" M 478.3042621135836 365.0494902414746 C 478.3042621135836 369.4677682401209 474.7225401122299 373.0494902414746 470.3042621135836 373.0494902414746 C 465.88598411493723 373.0494902414746 462.3042621135836 369.4677682401209 462.3042621135836 365.0494902414746 C 462.3042621135836 360.6312122428282 465.88598411493723 357.0494902414746 470.3042621135836 357.0494902414746 C 474.7225401122299 357.0494902414746 478.3042621135836 360.6312122428282 478.3042621135836 365.0494902414746 Z" fill-opacity="1"/><path fill="none" stroke="rgb(0,0,0)" paint-order="fill stroke markers" d=" M 478.3042621135836 365.0494902414746 C 478.3042621135836 369.4677682401209 474.7225401122299 373.0494902414746 470.3042621135836 373.0494902414746 C 465.88598411493723 373.0494902414746 462.3042621135836 369.4677682401209 462.3042621135836 365.0494902414746 C 462.3042621135836 360.6312122428282 465.88598411493723 357.0494902414746 470.3042621135836 357.0494902414746 C 474.7225401122299 357.0494902414746 478.3042621135836 360.6312122428282 478.3042621135836 365.0494902414746 Z" stroke-opacity="1" stroke-linecap="round" stroke-linejoin="round" stroke-miterlimit="10"/><path fill="rgb(255,255,255)" stroke="none" paint-order="stroke fill markers" d=" M 478.3042621135836 499.6598029249127 C 478.3042621135836 504.078080923559 474.7225401122299 507.6598029249127 470.3042621135836 507.6598029249127 C 465.88598411493723 507.6598029249127 462.3042621135836 504.078080923559 462.3042621135836 499.6598029249127 C 462.3042621135836 495.2415249262663 465.88598411493723 491.6598029249127 470.3042621135836 491.6598029249127 C 474.7225401122299 491.6598029249127 478.3042621135836 495.2415249262663 478.3042621135836 499.6598029249127 Z" fill-opacity="1"/><path fill="none" stroke="rgb(0,0,0)" paint-order="fill stroke markers" d=" M 478.3042621135836 499.6598029249127 C 478.3042621135836 504.078080923559 474.7225401122299 507.6598029249127 470.3042621135836 507.6598029249127 C 465.88598411493723 507.6598029249127 462.3042621135836 504.078080923559 462.3042621135836 499.6598029249127 C 462.3042621135836 495.2415249262663 465.88598411493723 491.6598029249127 470.3042621135836 491.6598029249127 C 474.7225401122299 491.6598029249127 478.3042621135836 495.2415249262663 478.3042621135836 499.6598029249127 Z" stroke-opacity="1" stroke-linecap="round" stroke-linejoin="round" stroke-miterlimit="10"/><g transform="scale(44,44)"><g transform="translate(10.5,12.296818181818182)"><path fill="rgb(255,255,255)" stroke="none" paint-order="stroke fill markers" d=" M 0.20600000000000002 -0.4 L 0.132 -0.105 Q 0.126 -0.08 0.126 -0.057 Q 0.126 -0.011 0.157 -0.011 Q 0.223 -0.011 0.273 -0.108 L 0.28700000000000003 -0.139 Q 0.293 -0.152 0.302 -0.153 Q 0.314 -0.153 0.314 -0.14300000000000002 Q 0.314 -0.13 0.28800000000000003 -0.08600000000000001 Q 0.23 0.011 0.155 0.011 Q 0.097 0.011 0.073 -0.037 Q 0.063 -0.057 0.063 -0.081 Q 0.063 -0.1 0.124 -0.34 L 0.139 -0.4 L 0.051000000000000004 -0.4 Q 0.026000000000000002 -0.4 0.024 -0.40800000000000003 L 0.023 -0.40800000000000003 L 0.023 -0.41200000000000003 Q 0.023 -0.429 0.039 -0.431 L 0.053 -0.431 L 0.147 -0.431 L 0.186 -0.59 Q 0.195 -0.625 0.226 -0.626 Q 0.252 -0.626 0.255 -0.599 Q 0.255 -0.593 0.214 -0.431 L 0.302 -0.431 Q 0.328 -0.431 0.33 -0.42 Q 0.33 -0.402 0.314 -0.4 L 0.313 -0.4 L 0.3 -0.4 L 0.20600000000000002 -0.4 Z"/></g><g transform="translate(10.861,12.446818181818182) scale(0.7,0.7)"><path fill="rgb(255,255,255)" stroke="none" paint-order="stroke fill markers" d=" M 0.294 -0.64 L 0.294 -0.079 Q 0.294 -0.049 0.306 -0.041 Q 0.323 -0.031 0.387 -0.031 L 0.419 -0.031 L 0.419 0 Q 0.384 -0.003 0.257 -0.003 Q 0.13 -0.003 0.095 0 L 0.095 -0.031 L 0.127 -0.031 Q 0.20400000000000001 -0.031 0.215 -0.049 L 0.216 -0.05 Q 0.22 -0.058 0.22 -0.079 L 0.22 -0.597 Q 0.168 -0.5710000000000001 0.089 -0.5710000000000001 L 0.089 -0.602 Q 0.209 -0.602 0.271 -0.666 Q 0.29 -0.666 0.293 -0.659 L 0.293 -0.659 L 0.293 -0.658 Q 0.294 -0.655 0.294 -0.64 Z"/></g></g><g transform="scale(44,44)"><g transform="translate(5.5,12.408272727272726)"><path fill="rgb(255,255,255)" stroke="none" paint-order="stroke fill markers" d=" M 0.334 -0.302 L 0.3 -0.165 Q 0.28300000000000003 -0.097 0.28300000000000003 -0.077 Q 0.28300000000000003 -0.025 0.32 -0.014 Q 0.328 -0.011 0.338 -0.011 Q 0.388 -0.011 0.429 -0.061 Q 0.456 -0.093 0.47100000000000003 -0.14200000000000002 Q 0.47400000000000003 -0.153 0.484 -0.153 Q 0.496 -0.153 0.496 -0.14300000000000002 Q 0.496 -0.11800000000000001 0.465 -0.07100000000000001 Q 0.41100000000000003 0.011 0.336 0.011 Q 0.268 0.011 0.23700000000000002 -0.046 Q 0.231 -0.055 0.228 -0.065 Q 0.20400000000000001 -0.017 0.162 0.002 Q 0.14300000000000002 0.011 0.123 0.011 Q 0.063 0.011 0.039 -0.024 Q 0.029 -0.037 0.029 -0.055 Q 0.029 -0.092 0.061 -0.107 Q 0.07200000000000001 -0.113 0.084 -0.113 Q 0.114 -0.113 0.12 -0.088 Q 0.121 -0.083 0.121 -0.078 Q 0.121 -0.044 0.08700000000000001 -0.028 Q 0.081 -0.025 0.074 -0.024 Q 0.095 -0.011 0.124 -0.011 Q 0.177 -0.011 0.20800000000000002 -0.082 Q 0.214 -0.097 0.219 -0.115 Q 0.273 -0.319 0.273 -0.353 Q 0.267 -0.41500000000000004 0.219 -0.42 Q 0.167 -0.42 0.124 -0.367 L 0.124 -0.366 Q 0.124 -0.365 0.123 -0.365 Q 0.108 -0.34500000000000003 0.096 -0.319 Q 0.091 -0.307 0.08700000000000001 -0.295 L 0.085 -0.289 Q 0.083 -0.278 0.07200000000000001 -0.278 Q 0.06 -0.278 0.06 -0.28800000000000003 Q 0.06 -0.313 0.092 -0.36 Q 0.146 -0.442 0.221 -0.442 Q 0.298 -0.442 0.329 -0.366 Q 0.361 -0.428 0.41400000000000003 -0.44 Q 0.424 -0.442 0.434 -0.442 Q 0.493 -0.442 0.517 -0.40900000000000003 Q 0.527 -0.395 0.527 -0.376 Q 0.527 -0.335 0.49 -0.321 Q 0.481 -0.318 0.47300000000000003 -0.318 Q 0.442 -0.318 0.436 -0.34500000000000003 Q 0.435 -0.34900000000000003 0.435 -0.353 Q 0.435 -0.383 0.464 -0.4 Q 0.47300000000000003 -0.405 0.483 -0.40700000000000003 Q 0.462 -0.42 0.433 -0.42 Q 0.365 -0.42 0.337 -0.314 Q 0.335 -0.308 0.334 -0.302 Z"/></g><g transform="translate(6.072,12.558272727272726) scale(0.7,0.7)"><path fill="rgb(255,255,255)" stroke="none" paint-order="stroke fill markers" d=" M 0.46 -0.32 Q 0.46 -0.17400000000000002 0.423 -0.094 Q 0.364 0.018000000000000002 0.249 0.022 Q 0.158 0.022 0.10300000000000001 -0.05 Q 0.092 -0.063 0.084 -0.079 Q 0.039 -0.162 0.039 -0.32 Q 0.039 -0.467 0.076 -0.547 Q 0.126 -0.659 0.23800000000000002 -0.666 L 0.25 -0.666 Q 0.339 -0.666 0.395 -0.595 L 0.395 -0.594 Q 0.40900000000000003 -0.5760000000000001 0.42 -0.554 Q 0.46 -0.46900000000000003 0.46 -0.32 M 0.249 0 L 0.249 0 Q 0.312 0 0.34600000000000003 -0.061 Q 0.36 -0.088 0.366 -0.125 Q 0.377 -0.189 0.377 -0.332 Q 0.377 -0.47100000000000003 0.367 -0.527 Q 0.34900000000000003 -0.622 0.275 -0.641 Q 0.262 -0.644 0.249 -0.644 Q 0.179 -0.644 0.147 -0.5740000000000001 Q 0.136 -0.55 0.13 -0.516 Q 0.122 -0.462 0.122 -0.332 Q 0.122 -0.181 0.133 -0.121 Q 0.151 -0.025 0.221 -0.004 Q 0.23500000000000001 0 0.249 0 Z"/></g></g><g transform="scale(44,44)"><g transform="translate(6.295454545454546,1.6355454545454546)"><path fill="rgb(192,192,192)" stroke="none" paint-order="stroke fill markers" d=" M 0.334 -0.302 L 0.3 -0.165 Q 0.28300000000000003 -0.097 0.28300000000000003 -0.077 Q 0.28300000000000003 -0.025 0.32 -0.014 Q 0.328 -0.011 0.338 -0.011 Q 0.388 -0.011 0.429 -0.061 Q 0.456 -0.093 0.47100000000000003 -0.14200000000000002 Q 0.47400000000000003 -0.153 0.484 -0.153 Q 0.496 -0.153 0.496 -0.14300000000000002 Q 0.496 -0.11800000000000001 0.465 -0.07100000000000001 Q 0.41100000000000003 0.011 0.336 0.011 Q 0.268 0.011 0.23700000000000002 -0.046 Q 0.231 -0.055 0.228 -0.065 Q 0.20400000000000001 -0.017 0.162 0.002 Q 0.14300000000000002 0.011 0.123 0.011 Q 0.063 0.011 0.039 -0.024 Q 0.029 -0.037 0.029 -0.055 Q 0.029 -0.092 0.061 -0.107 Q 0.07200000000000001 -0.113 0.084 -0.113 Q 0.114 -0.113 0.12 -0.088 Q 0.121 -0.083 0.121 -0.078 Q 0.121 -0.044 0.08700000000000001 -0.028 Q 0.081 -0.025 0.074 -0.024 Q 0.095 -0.011 0.124 -0.011 Q 0.177 -0.011 0.20800000000000002 -0.082 Q 0.214 -0.097 0.219 -0.115 Q 0.273 -0.319 0.273 -0.353 Q 0.267 -0.41500000000000004 0.219 -0.42 Q 0.167 -0.42 0.124 -0.367 L 0.124 -0.366 Q 0.124 -0.365 0.123 -0.365 Q 0.108 -0.34500000000000003 0.096 -0.319 Q 0.091 -0.307 0.08700000000000001 -0.295 L 0.085 -0.289 Q 0.083 -0.278 0.07200000000000001 -0.278 Q 0.06 -0.278 0.06 -0.28800000000000003 Q 0.06 -0.313 0.092 -0.36 Q 0.146 -0.442 0.221 -0.442 Q 0.298 -0.442 0.329 -0.366 Q 0.361 -0.428 0.41400000000000003 -0.44 Q 0.424 -0.442 0.434 -0.442 Q 0.493 -0.442 0.517 -0.40900000000000003 Q 0.527 -0.395 0.527 -0.376 Q 0.527 -0.335 0.49 -0.321 Q 0.481 -0.318 0.47300000000000003 -0.318 Q 0.442 -0.318 0.436 -0.34500000000000003 Q 0.435 -0.34900000000000003 0.435 -0.353 Q 0.435 -0.383 0.464 -0.4 Q 0.47300000000000003 -0.405 0.483 -0.40700000000000003 Q 0.462 -0.42 0.433 -0.42 Q 0.365 -0.42 0.337 -0.314 Q 0.335 -0.308 0.334 -0.302 Z"/></g></g><g transform="scale(44,44)"><g transform="translate(6.7272727272727275,14.871272727272727)"><path fill="rgb(255,255,255)" stroke="none" paint-order="stroke fill markers" d=" M 0.20600000000000002 -0.4 L 0.132 -0.105 Q 0.126 -0.08 0.126 -0.057 Q 0.126 -0.011 0.157 -0.011 Q 0.223 -0.011 0.273 -0.108 L 0.28700000000000003 -0.139 Q 0.293 -0.152 0.302 -0.153 Q 0.314 -0.153 0.314 -0.14300000000000002 Q 0.314 -0.13 0.28800000000000003 -0.08600000000000001 Q 0.23 0.011 0.155 0.011 Q 0.097 0.011 0.073 -0.037 Q 0.063 -0.057 0.063 -0.081 Q 0.063 -0.1 0.124 -0.34 L 0.139 -0.4 L 0.051000000000000004 -0.4 Q 0.026000000000000002 -0.4 0.024 -0.40800000000000003 L 0.023 -0.40800000000000003 L 0.023 -0.41200000000000003 Q 0.023 -0.429 0.039 -0.431 L 0.053 -0.431 L 0.147 -0.431 L 0.186 -0.59 Q 0.195 -0.625 0.226 -0.626 Q 0.252 -0.626 0.255 -0.599 Q 0.255 -0.593 0.214 -0.431 L 0.302 -0.431 Q 0.328 -0.431 0.33 -0.42 Q 0.33 -0.402 0.314 -0.4 L 0.313 -0.4 L 0.3 -0.4 L 0.20600000000000002 -0.4 Z"/></g><g transform="translate(7.088272727272727,15.021272727272727) scale(0.7,0.7)"><path fill="rgb(255,255,255)" stroke="none" paint-order="stroke fill markers" d=" M 0.46 -0.32 Q 0.46 -0.17400000000000002 0.423 -0.094 Q 0.364 0.018000000000000002 0.249 0.022 Q 0.158 0.022 0.10300000000000001 -0.05 Q 0.092 -0.063 0.084 -0.079 Q 0.039 -0.162 0.039 -0.32 Q 0.039 -0.467 0.076 -0.547 Q 0.126 -0.659 0.23800000000000002 -0.666 L 0.25 -0.666 Q 0.339 -0.666 0.395 -0.595 L 0.395 -0.594 Q 0.40900000000000003 -0.5760000000000001 0.42 -0.554 Q 0.46 -0.46900000000000003 0.46 -0.32 M 0.249 0 L 0.249 0 Q 0.312 0 0.34600000000000003 -0.061 Q 0.36 -0.088 0.366 -0.125 Q 0.377 -0.189 0.377 -0.332 Q 0.377 -0.47100000000000003 0.367 -0.527 Q 0.34900000000000003 -0.622 0.275 -0.641 Q 0.262 -0.644 0.249 -0.644 Q 0.179 -0.644 0.147 -0.5740000000000001 Q 0.136 -0.55 0.13 -0.516 Q 0.122 -0.462 0.122 -0.332 Q 0.122 -0.181 0.133 -0.121 Q 0.151 -0.025 0.221 -0.004 Q 0.23500000000000001 0 0.249 0 Z"/></g><g transform="translate(7.7160505050505055,14.871272727272727)"><path fill="rgb(255,255,255)" stroke="none" paint-order="stroke fill markers" d=" M 0.687 -0.327 L 0.09 -0.327 Q 0.058 -0.327 0.056 -0.34700000000000003 Q 0.056 -0.367 0.089 -0.367 L 0.6880000000000001 -0.367 Q 0.72 -0.367 0.721 -0.34700000000000003 Q 0.721 -0.327 0.687 -0.327 M 0.6880000000000001 -0.133 L 0.089 -0.133 Q 0.057 -0.133 0.056 -0.153 Q 0.056 -0.17300000000000001 0.09 -0.17300000000000001 L 0.687 -0.17300000000000001 Q 0.719 -0.17300000000000001 0.721 -0.153 Q 0.721 -0.133 0.6880000000000001 -0.133 Z"/></g><g transform="translate(8.771828282828285,14.871272727272727)"><path fill="rgb(255,255,255)" stroke="none" paint-order="stroke fill markers" d=" M 0.46 -0.32 Q 0.46 -0.17400000000000002 0.423 -0.094 Q 0.364 0.018000000000000002 0.249 0.022 Q 0.158 0.022 0.10300000000000001 -0.05 Q 0.092 -0.063 0.084 -0.079 Q 0.039 -0.162 0.039 -0.32 Q 0.039 -0.467 0.076 -0.547 Q 0.126 -0.659 0.23800000000000002 -0.666 L 0.25 -0.666 Q 0.339 -0.666 0.395 -0.595 L 0.395 -0.594 Q 0.40900000000000003 -0.5760000000000001 0.42 -0.554 Q 0.46 -0.46900000000000003 0.46 -0.32 M 0.249 0 L 0.249 0 Q 0.312 0 0.34600000000000003 -0.061 Q 0.36 -0.088 0.366 -0.125 Q 0.377 -0.189 0.377 -0.332 Q 0.377 -0.47100000000000003 0.367 -0.527 Q 0.34900000000000003 -0.622 0.275 -0.641 Q 0.262 -0.644 0.249 -0.644 Q 0.179 -0.644 0.147 -0.5740000000000001 Q 0.136 -0.55 0.13 -0.516 Q 0.122 -0.462 0.122 -0.332 Q 0.122 -0.181 0.133 -0.121 Q 0.151 -0.025 0.221 -0.004 Q 0.23500000000000001 0 0.249 0 Z"/></g></g><g transform="scale(44,44)"><g transform="translate(5.386363636363637,8.408272727272728)"><path fill="rgb(255,255,255)" stroke="none" paint-order="stroke fill markers" d=" M 0.334 -0.302 L 0.3 -0.165 Q 0.28300000000000003 -0.097 0.28300000000000003 -0.077 Q 0.28300000000000003 -0.025 0.32 -0.014 Q 0.328 -0.011 0.338 -0.011 Q 0.388 -0.011 0.429 -0.061 Q 0.456 -0.093 0.47100000000000003 -0.14200000000000002 Q 0.47400000000000003 -0.153 0.484 -0.153 Q 0.496 -0.153 0.496 -0.14300000000000002 Q 0.496 -0.11800000000000001 0.465 -0.07100000000000001 Q 0.41100000000000003 0.011 0.336 0.011 Q 0.268 0.011 0.23700000000000002 -0.046 Q 0.231 -0.055 0.228 -0.065 Q 0.20400000000000001 -0.017 0.162 0.002 Q 0.14300000000000002 0.011 0.123 0.011 Q 0.063 0.011 0.039 -0.024 Q 0.029 -0.037 0.029 -0.055 Q 0.029 -0.092 0.061 -0.107 Q 0.07200000000000001 -0.113 0.084 -0.113 Q 0.114 -0.113 0.12 -0.088 Q 0.121 -0.083 0.121 -0.078 Q 0.121 -0.044 0.08700000000000001 -0.028 Q 0.081 -0.025 0.074 -0.024 Q 0.095 -0.011 0.124 -0.011 Q 0.177 -0.011 0.20800000000000002 -0.082 Q 0.214 -0.097 0.219 -0.115 Q 0.273 -0.319 0.273 -0.353 Q 0.267 -0.41500000000000004 0.219 -0.42 Q 0.167 -0.42 0.124 -0.367 L 0.124 -0.366 Q 0.124 -0.365 0.123 -0.365 Q 0.108 -0.34500000000000003 0.096 -0.319 Q 0.091 -0.307 0.08700000000000001 -0.295 L 0.085 -0.289 Q 0.083 -0.278 0.07200000000000001 -0.278 Q 0.06 -0.278 0.06 -0.28800000000000003 Q 0.06 -0.313 0.092 -0.36 Q 0.146 -0.442 0.221 -0.442 Q 0.298 -0.442 0.329 -0.366 Q 0.361 -0.428 0.41400000000000003 -0.44 Q 0.424 -0.442 0.434 -0.442 Q 0.493 -0.442 0.517 -0.40900000000000003 Q 0.527 -0.395 0.527 -0.376 Q 0.527 -0.335 0.49 -0.321 Q 0.481 -0.318 0.47300000000000003 -0.318 Q 0.442 -0.318 0.436 -0.34500000000000003 Q 0.435 -0.34900000000000003 0.435 -0.353 Q 0.435 -0.383 0.464 -0.4 Q 0.47300000000000003 -0.405 0.483 -0.40700000000000003 Q 0.462 -0.42 0.433 -0.42 Q 0.365 -0.42 0.337 -0.314 Q 0.335 -0.308 0.334 -0.302 Z"/></g><g transform="translate(5.958363636363637,8.558272727272728) scale(0.7,0.7)"><path fill="rgb(255,255,255)" stroke="none" paint-order="stroke fill markers" d=" M 0.294 -0.64 L 0.294 -0.079 Q 0.294 -0.049 0.306 -0.041 Q 0.323 -0.031 0.387 -0.031 L 0.419 -0.031 L 0.419 0 Q 0.384 -0.003 0.257 -0.003 Q 0.13 -0.003 0.095 0 L 0.095 -0.031 L 0.127 -0.031 Q 0.20400000000000001 -0.031 0.215 -0.049 L 0.216 -0.05 Q 0.22 -0.058 0.22 -0.079 L 0.22 -0.597 Q 0.168 -0.5710000000000001 0.089 -0.5710000000000001 L 0.089 -0.602 Q 0.209 -0.602 0.271 -0.666 Q 0.29 -0.666 0.293 -0.659 L 0.293 -0.659 L 0.293 -0.658 Q 0.294 -0.655 0.294 -0.64 Z"/></g></g><g transform="scale(25,25)"><g transform="translate(11.84,4.471)"><path fill="rgb(192,192,192)" stroke="none" paint-order="stroke fill markers" d=" M 0.088 -0.059000000000000004 L 0.088 -0.059000000000000004 L 0.146 -0.29 Q 0.162 -0.354 0.162 -0.374 Q 0.162 -0.42 0.131 -0.42 Q 0.09 -0.42 0.064 -0.325 Q 0.061 -0.314 0.058 -0.301 Q 0.047 -0.279 0.041 -0.278 Q 0.029 -0.278 0.029 -0.28800000000000003 Q 0.029 -0.304 0.048 -0.356 Q 0.054 -0.373 0.06 -0.385 Q 0.084 -0.434 0.12 -0.441 Q 0.127 -0.442 0.134 -0.442 Q 0.188 -0.442 0.214 -0.397 Q 0.224 -0.378 0.226 -0.355 Q 0.29 -0.442 0.382 -0.442 Q 0.433 -0.442 0.464 -0.41600000000000004 Q 0.492 -0.392 0.496 -0.34500000000000003 Q 0.5640000000000001 -0.442 0.659 -0.442 Q 0.748 -0.442 0.769 -0.373 L 0.769 -0.372 Q 0.774 -0.355 0.774 -0.335 Q 0.774 -0.28200000000000003 0.713 -0.115 Q 0.6950000000000001 -0.07100000000000001 0.6950000000000001 -0.044 Q 0.6950000000000001 -0.011 0.719 -0.011 Q 0.781 -0.011 0.8170000000000001 -0.121 L 0.8210000000000001 -0.135 Q 0.8260000000000001 -0.151 0.8310000000000001 -0.152 L 0.8310000000000001 -0.153 L 0.836 -0.153 Q 0.848 -0.153 0.848 -0.14300000000000002 Q 0.848 -0.126 0.8270000000000001 -0.08 Q 0.784 0.011 0.717 0.011 Q 0.666 0.011 0.644 -0.032 Q 0.635 -0.05 0.635 -0.07100000000000001 Q 0.635 -0.091 0.648 -0.126 Q 0.71 -0.29 0.71 -0.35000000000000003 Q 0.71 -0.42 0.656 -0.42 Q 0.5680000000000001 -0.42 0.51 -0.325 Q 0.494 -0.3 0.491 -0.28700000000000003 Q 0.488 -0.274 0.431 -0.046 Q 0.42 -0.003 0.406 0.006 L 0.405 0.007 L 0.404 0.007 Q 0.397 0.011 0.386 0.011 Q 0.361 0.006 0.357 -0.016 L 0.37 -0.075 L 0.39 -0.151 L 0.418 -0.267 Q 0.433 -0.323 0.433 -0.35000000000000003 Q 0.433 -0.42 0.379 -0.42 Q 0.289 -0.42 0.228 -0.32 Q 0.221 -0.309 0.216 -0.298 L 0.203 -0.248 Q 0.198 -0.225 0.186 -0.181 L 0.164 -0.091 Q 0.147 -0.022 0.145 -0.017 Q 0.136 0.009000000000000001 0.108 0.011 Q 0.083 0.006 0.079 -0.016 Q 0.079 -0.014 0.088 -0.059000000000000004 Z"/></g></g><path fill="rgb(255,255,255)" stroke="none" paint-order="stroke fill markers" d=" M 295.5001337780504 499.6598029249127 C 295.5001337780504 504.078080923559 291.91841177669676 507.6598029249127 287.5001337780504 507.6598029249127 C 283.081855779404 507.6598029249127 279.5001337780504 504.078080923559 279.5001337780504 499.6598029249127 C 279.5001337780504 495.2415249262663 283.081855779404 491.6598029249127 287.5001337780504 491.6598029249127 C 291.91841177669676 491.6598029249127 295.5001337780504 495.2415249262663 295.5001337780504 499.6598029249127 Z" fill-opacity="1"/><path fill="none" stroke="rgb(0,0,0)" paint-order="fill stroke markers" d=" M 295.5001337780504 499.6598029249127 C 295.5001337780504 504.078080923559 291.91841177669676 507.6598029249127 287.5001337780504 507.6598029249127 C 283.081855779404 507.6598029249127 279.5001337780504 504.078080923559 279.5001337780504 499.6598029249127 C 279.5001337780504 495.2415249262663 283.081855779404 491.6598029249127 287.5001337780504 491.6598029249127 C 291.91841177669676 491.6598029249127 295.5001337780504 495.2415249262663 295.5001337780504 499.6598029249127 Z" stroke-opacity="1" stroke-linecap="round" stroke-linejoin="round" stroke-miterlimit="10"/></g></g></svg>