<svg version="1.1" xmlns="http://www.w3.org/2000/svg" xmlns:xlink="http://www.w3.org/1999/xlink" width="949" height="704"><defs><clipPath id="OoLsQdVhWvqZ"><path fill="none" stroke="none" d=" M 0 0 L 949 0 L 949 704 L 0 704 L 0 0 Z"/></clipPath></defs><g transform="scale(1,1)" clip-path="url(#OoLsQdVhWvqZ)"><g><rect fill="rgb(0,0,0)" stroke="none" x="0" y="0" width="949" height="704" fill-opacity="1"/><path fill="rgb(255,255,255)" stroke="none" paint-order="stroke fill markers" d=" M 704.3502750646594 499.08570343867433 C 704.426132897122 499.2690745320902 704.4640618133533 499.4644387285015 704.4640618133532 499.6598029249127 L 704.4640618133533 499.6598029249127 C 704.4640618133533 499.4564471422262 704.423595132958 499.262542859171 704.3502751350945 499.08570343867433 Z M 704.4640571533735 499.66355362242217 C 704.4635747437518 499.8576928250496 704.42563739034 500.0517562368836 704.3502450931378 500.2339748558983 L 704.350245096296 500.2339748558983 C 704.4231331241959 500.058203440699 704.4635627816681 499.8655707479095 704.4640572238199 499.66355362242217 Z M 38.221776956868695 498.1598029249127 C 37.3933498321225 498.1598029249127 36.721776956868695 498.8313758001665 36.721776956868695 499.6598029249127 C 36.721776956868695 500.4882300496589 37.3933498321225 501.1598029249127 38.221776956868695 501.1598029249127 L 699.3427414697937 501.1598029249127 L 700.8427414697937 499.6598029249127 L 699.3427414697937 498.1598029249127 Z" fill-opacity="0.6980392156862745"/><path fill="rgb(255,255,255)" stroke="none" paint-order="stroke fill markers" d=" M 701.9034016415735 498.59914275313287 L 695.9034016415735 504.59914275313287 C 695.3176152039466 505.18492919075976 695.3176152039466 506.1346766590656 695.9034016415735 506.72046309669247 C 696.4891880792004 507.30624953431936 697.4389355475062 507.3062495343194 698.024721985133 506.7204630966925 L 704.024721985133 500.7204630966925 C 704.61050842276 500.13467665906563 704.61050842276 499.1849291907598 704.024721985133 498.5991427531329 C 703.4389355475062 498.01335631550603 702.4891880792004 498.013356315506 701.9034016415735 498.59914275313287 Z M 695.9034016415735 494.7204630966925 L 701.9034016415735 500.7204630966925 C 702.4891880792004 501.3062495343194 703.4389355475062 501.30624953431936 704.024721985133 500.72046309669247 C 704.61050842276 500.1346766590656 704.61050842276 499.18492919075976 704.024721985133 498.59914275313287 L 698.024721985133 492.59914275313287 C 697.4389355475062 492.013356315506 696.4891880792004 492.01335631550603 695.9034016415735 492.5991427531329 C 695.3176152039466 493.1849291907598 695.3176152039466 494.13467665906563 695.9034016415735 494.7204630966925 Z" fill-opacity="0.6980392156862745"/><path fill="rgb(255,255,255)" stroke="none" paint-order="stroke fill markers" d=" M 287.50013002685665 82.69587488961444 C 287.29675111304266 82.69587538731578 287.10282590677394 82.7363517713154 286.92597038232606 82.80968806733793 L 286.9259704091178 82.80968806733793 C 287.1093588463529 82.73381309737422 287.3047444128698 82.6958753714664 287.50013005557577 82.69587488961444 Z M 287.5001375406452 82.69587488961454 L 287.50013754064514 82.69587488961454 C 287.6955231699777 82.69587537665979 287.8909087223001 82.73381310256757 288.074297146983 82.80968806733793 L 288.0742971737747 82.80968806733793 C 287.8974416610801 82.73635177618911 287.7035164688335 82.69587539269567 287.50013756979206 82.69587488961454 Z M 287.5001337780504 86.31719523316951 L 286.0001337780504 87.8171952331695 L 286.0001337780504 709 C 286.0001337780504 709.8284271247462 286.67170665330417 710.5 287.5001337780504 710.5 C 288.3285609027966 710.5 289.0001337780504 709.8284271247462 289.0001337780504 709 L 289.0001337780504 87.8171952331695 L 287.5001337780504 86.31719523316951 Z" fill-opacity="0.6980392156862745"/><path fill="rgb(255,255,255)" stroke="none" paint-order="stroke fill markers" d=" M 286.43947360627055 83.13521471783002 L 280.43947360627055 89.13521471783002 C 279.85368716864366 89.72100115545692 279.85368716864366 90.67074862376279 280.43947360627055 91.25653506138968 C 281.02526004389745 91.84232149901658 281.9750075122033 91.84232149901658 282.5607939498302 91.25653506138968 L 288.5607939498302 85.25653506138968 C 289.1465803874571 84.67074862376279 289.1465803874571 83.72100115545692 288.5607939498302 83.13521471783002 C 287.9750075122033 82.54942828020313 287.02526004389745 82.54942828020313 286.43947360627055 83.13521471783002 Z M 294.5607939498302 89.13521471783002 L 288.5607939498302 83.13521471783002 C 287.9750075122033 82.54942828020313 287.02526004389745 82.54942828020313 286.43947360627055 83.13521471783002 C 285.85368716864366 83.72100115545692 285.85368716864366 84.67074862376279 286.43947360627055 85.25653506138968 L 292.43947360627055 91.25653506138968 C 293.02526004389745 91.84232149901658 293.9750075122033 91.84232149901658 294.5607939498302 91.25653506138968 C 295.1465803874571 90.67074862376279 295.1465803874571 89.72100115545692 294.5607939498302 89.13521471783002 Z" fill-opacity="0.6980392156862745"/><path fill="rgb(0,0,0)" stroke="none" paint-order="stroke fill markers" d=" M 919.4796280991716 131.73367768595176 C 919.4796280991716 132.28596243578255 919.0319128490024 132.73367768595176 918.4796280991716 132.73367768595176 C 917.9273433493407 132.73367768595176 917.4796280991716 132.28596243578255 917.4796280991716 131.73367768595176 C 917.4796280991716 131.18139293612097 917.9273433493407 130.73367768595176 918.4796280991716 130.73367768595176 C 919.0319128490024 130.73367768595176 919.4796280991716 131.18139293612097 919.4796280991716 131.73367768595176 Z" fill-opacity="1"/><g transform="scale(44,44)"><g transform="translate(16.181818181818183,11.592272727272727)"><path fill="rgb(192,192,192)" stroke="none" paint-order="stroke fill markers" d=" M 0.20600000000000002 -0.4 L 0.132 -0.105 Q 0.126 -0.08 0.126 -0.057 Q 0.126 -0.011 0.157 -0.011 Q 0.223 -0.011 0.273 -0.108 L 0.28700000000000003 -0.139 Q 0.293 -0.152 0.302 -0.153 Q 0.314 -0.153 0.314 -0.14300000000000002 Q 0.314 -0.13 0.28800000000000003 -0.08600000000000001 Q 0.23 0.011 0.155 0.011 Q 0.097 0.011 0.073 -0.037 Q 0.063 -0.057 0.063 -0.081 Q 0.063 -0.1 0.124 -0.34 L 0.139 -0.4 L 0.051000000000000004 -0.4 Q 0.026000000000000002 -0.4 0.024 -0.40800000000000003 L 0.023 -0.40800000000000003 L 0.023 -0.41200000000000003 Q 0.023 -0.429 0.039 -0.431 L 0.053 -0.431 L 0.147 -0.431 L 0.186 -0.59 Q 0.195 -0.625 0.226 -0.626 Q 0.252 -0.626 0.255 -0.599 Q 0.255 -0.593 0.214 -0.431 L 0.302 -0.431 Q 0.328 -0.431 0.33 -0.42 Q 0.33 -0.402 0.314 -0.4 L 0.313 -0.4 L 0.3 -0.4 L 0.20600000000000002 -0.4 Z"/></g></g><g transform="scale(25,25)"><g transform="translate(27.16,19.751)"><path fill="rgb(192,192,192)" stroke="none" paint-order="stroke fill markers" d=" M 0.391 -0.374 L 0.391 -0.374 Q 0.37 -0.418 0.301 -0.42 Q 0.22 -0.42 0.195 -0.359 Q 0.189 -0.34400000000000003 0.189 -0.33 Q 0.189 -0.291 0.23700000000000002 -0.277 L 0.23700000000000002 -0.277 L 0.23800000000000002 -0.276 Q 0.245 -0.274 0.265 -0.27 Q 0.327 -0.257 0.34800000000000003 -0.242 Q 0.357 -0.23600000000000002 0.365 -0.228 Q 0.396 -0.197 0.396 -0.155 Q 0.396 -0.10300000000000001 0.357 -0.056 Q 0.301 0.011 0.195 0.011 Q 0.10200000000000001 0.011 0.066 -0.041 Q 0.052000000000000005 -0.061 0.052000000000000005 -0.08600000000000001 Q 0.052000000000000005 -0.135 0.09 -0.149 Q 0.099 -0.152 0.108 -0.152 Q 0.14100000000000001 -0.147 0.145 -0.117 Q 0.145 -0.08600000000000001 0.11800000000000001 -0.07100000000000001 Q 0.10200000000000001 -0.061 0.082 -0.064 Q 0.105 -0.011 0.196 -0.011 Q 0.299 -0.011 0.331 -0.08600000000000001 Q 0.339 -0.105 0.339 -0.121 Q 0.339 -0.169 0.28 -0.187 L 0.28 -0.187 L 0.279 -0.187 Q 0.264 -0.191 0.23500000000000001 -0.197 Q 0.145 -0.216 0.134 -0.277 Q 0.132 -0.28600000000000003 0.132 -0.296 Q 0.132 -0.34600000000000003 0.17 -0.389 Q 0.217 -0.442 0.301 -0.442 Q 0.38 -0.442 0.41000000000000003 -0.393 Q 0.42 -0.376 0.42 -0.356 Q 0.42 -0.311 0.386 -0.302 Q 0.38 -0.3 0.374 -0.3 Q 0.34600000000000003 -0.304 0.343 -0.329 Q 0.343 -0.356 0.37 -0.369 Q 0.38 -0.374 0.391 -0.374 Z"/></g></g><path fill="none" stroke="rgb(255,102,0)" paint-order="fill stroke markers" d=" M 0.5 686.9485939744904 L 0.5 687.9485939744904 L 0.5 686.9485939744904 L 1.5 685.9485939744904 L 1.5 685.9485939744904 L 2.5 684.9485939744904 L 2.5 684.9485939744904 L 3.499999999999943 683.9485939744904 L 3.499999999999943 683.9485939744904 L 4.499999999999943 682.9485939744904 L 4.499999999999943 682.9485939744904 L 5.499999999999943 681.9485939744904 L 5.499999999999943 681.9485939744904 L 6.499999999999943 680.9485939744904 L 6.499999999999943 680.9485939744904 L 7.5 679.9485939744904 L 7.5 679.9485939744904 L 8.5 678.9485939744904 L 8.5 678.9485939744904 L 9.5 677.9485939744904 L 9.5 677.9485939744904 L 10.5 676.9485939744904 L 10.5 676.9485939744904 L 11.5 675.9485939744904 L 11.5 675.9485939744904 L 12.5 674.9485939744904 L 12.5 674.9485939744904 L 13.5 673.9485939744904 L 13.5 673.9485939744904 L 14.5 672.9485939744904 L 14.5 672.9485939744904 L 15.5 671.9485939744904 L 15.5 671.9485939744904 L 16.5 670.9485939744904 L 16.5 670.9485939744904 L 17.5 669.9485939744904 L 17.5 669.9485939744904 L 18.499999999999943 668.9485939744904 L 18.499999999999943 668.9485939744904 L 19.499999999999943 667.9485939744904 L 19.499999999999943 667.9485939744904 L 20.499999999999943 666.9485939744904 L 20.499999999999943 666.9485939744904 L 21.499999999999943 665.9485939744904 L 21.499999999999943 665.9485939744904 L 22.499999999999943 664.9485939744904 L 22.499999999999943 664.9485939744904 L 23.5 663.9485939744904 L 23.5 663.9485939744904 L 24.5 662.9485939744904 L 24.5 662.9485939744904 L 25.5 661.9485939744904 L 25.5 661.9485939744904 L 26.5 660.9485939744904 L 26.5 660.9485939744904 L 27.5 659.9485939744904 L 27.5 659.9485939744904 L 28.5 658.9485939744904 L 28.5 658.9485939744904 L 29.5 657.9485939744904 L 29.5 657.9485939744904 L 30.5 656.9485939744904 L 30.5 656.9485939744904 L 31.5 655.9485939744904 L 31.5 655.9485939744904 L 32.5 654.9485939744904 L 32.5 654.9485939744904 L 33.50000000000003 653.9485939744904 L 33.50000000000003 653.9485939744904 L 34.50000000000003 652.9485939744904 L 34.50000000000003 652.9485939744904 L 35.49999999999994 651.9485939744904 L 35.49999999999994 651.9485939744904 L 36.49999999999997 650.9485939744904 L 36.49999999999997 650.9485939744904 L 37.49999999999997 649.9485939744904 L 37.49999999999997 649.9485939744904 L 38.49999999999997 648.9485939744904 L 38.49999999999997 648.9485939744904 L 39.49999999999997 647.9485939744904 L 39.49999999999997 647.9485939744904 L 40.49999999999997 646.9485939744904 L 40.49999999999997 646.9485939744904 L 41.49999999999997 645.9485939744904 L 41.49999999999997 645.9485939744904 L 42.49999999999997 644.9485939744904 L 42.49999999999997 644.9485939744904 L 43.5 643.9485939744904 L 43.5 643.9485939744904 L 44.5 642.9485939744904 L 44.5 642.9485939744904 L 45.5 641.9485939744904 L 45.5 641.9485939744904 L 46.5 640.9485939744904 L 46.5 640.9485939744904 L 47.5 639.9485939744904 L 47.5 639.9485939744904 L 48.5 638.9485939744904 L 48.5 638.9485939744904 L 49.50000000000003 637.9485939744904 L 49.50000000000003 637.9485939744904 L 50.49999999999994 636.9485939744904 L 50.49999999999994 636.9485939744904 L 51.49999999999994 635.9485939744904 L 51.49999999999994 635.9485939744904 L 52.49999999999994 634.9485939744904 L 52.49999999999994 634.9485939744904 L 53.49999999999997 633.9485939744904 L 53.49999999999997 633.9485939744904 L 54.49999999999997 632.9485939744904 L 54.49999999999997 632.9485939744904 L 55.49999999999997 631.9485939744904 L 55.49999999999997 631.9485939744904 L 56.49999999999997 630.9485939744904 L 56.49999999999997 630.9485939744904 L 57.49999999999997 629.9485939744904 L 57.49999999999997 629.9485939744904 L 58.49999999999997 628.9485939744904 L 58.49999999999997 628.9485939744904 L 59.5 627.9485939744904 L 59.5 627.9485939744904 L 60.5 626.9485939744904 L 60.5 626.9485939744904 L 61.5 625.9485939744904 L 61.5 625.9485939744904 L 62.5 624.9485939744904 L 62.5 624.9485939744904 L 63.5 623.9485939744904 L 63.5 623.9485939744904 L 64.5 622.9485939744904 L 64.5 622.9485939744904 L 65.50000000000003 621.9485939744904 L 65.50000000000003 621.9485939744904 L 66.50000000000003 620.9485939744904 L 66.50000000000003 620.9485939744904 L 67.49999999999994 619.9485939744904 L 67.49999999999994 619.9485939744904 L 68.49999999999994 618.9485939744904 L 68.49999999999994 618.9485939744904 L 69.49999999999997 617.9485939744904 L 69.49999999999997 617.9485939744904 L 70.49999999999997 616.9485939744904 L 70.49999999999997 616.9485939744904 L 71.49999999999997 615.9485939744904 L 71.49999999999997 615.9485939744904 L 72.49999999999997 614.9485939744904 L 72.49999999999997 614.9485939744904 L 73.49999999999997 613.9485939744904 L 73.49999999999997 613.9485939744904 L 74.49999999999997 612.9485939744904 L 74.49999999999997 612.9485939744904 L 75.5 611.9485939744904 L 75.5 611.9485939744904 L 76.5 610.9485939744904 L 76.5 610.9485939744904 L 77.5 609.9485939744904 L 77.5 609.9485939744904 L 78.5 608.9485939744904 L 78.5 608.9485939744904 L 79.5 607.9485939744904 L 79.5 607.9485939744904 L 80.5 606.9485939744904 L 80.5 606.9485939744904 L 81.50000000000003 605.9485939744904 L 81.50000000000003 605.9485939744904 L 82.49999999999994 604.9485939744904 L 82.49999999999994 604.9485939744904 L 83.49999999999994 603.9485939744904 L 83.49999999999994 603.9485939744904 L 84.49999999999994 602.9485939744904 L 84.49999999999994 602.9485939744904 L 85.49999999999997 601.9485939744904 L 85.49999999999997 601.9485939744904 L 86.49999999999997 600.9485939744904 L 86.49999999999997 600.9485939744904 L 87.49999999999997 599.9485939744904 L 87.49999999999997 599.9485939744904 L 88.49999999999997 598.9485939744904 L 88.49999999999997 598.9485939744904 L 89.49999999999997 597.9485939744904 L 89.49999999999997 597.9485939744904 L 90.49999999999997 596.9485939744904 L 90.49999999999997 596.9485939744904 L 91.5 595.9485939744904 L 91.5 595.9485939744904 L 92.5 594.9485939744904 L 92.5 594.9485939744904 L 93.5 593.9485939744904 L 93.5 593.9485939744904 L 94.5 592.9485939744904 L 94.5 592.9485939744904 L 95.5 591.9485939744904 L 95.5 591.9485939744904 L 96.5 590.9485939744904 L 96.5 590.9485939744904 L 97.50000000000003 589.9485939744904 L 97.50000000000003 589.9485939744904 L 98.50000000000003 588.9485939744904 L 98.50000000000003 588.9485939744904 L 99.49999999999994 587.9485939744904 L 99.49999999999994 587.9485939744904 L 100.49999999999994 586.9485939744904 L 100.49999999999994 586.9485939744904 L 101.49999999999997 585.9485939744904 L 101.49999999999997 585.9485939744904 L 102.49999999999997 584.9485939744904 L 102.49999999999997 584.9485939744904 L 103.49999999999997 583.9485939744904 L 103.49999999999997 583.9485939744904 L 104.49999999999997 582.9485939744904 L 104.49999999999997 582.9485939744904 L 105.49999999999997 581.9485939744904 L 105.49999999999997 581.9485939744904 L 106.49999999999997 580.9485939744904 L 106.49999999999997 580.9485939744904 L 107.5 579.9485939744904 L 107.5 579.9485939744904 L 108.5 578.9485939744904 L 108.5 578.9485939744904 L 109.5 577.9485939744904 L 109.5 577.9485939744904 L 110.5 576.9485939744904 L 110.5 576.9485939744904 L 111.5 575.9485939744904 L 111.5 575.9485939744904 L 112.5 574.9485939744904 L 112.5 574.9485939744904 L 113.5 573.9485939744904 L 113.5 573.9485939744904 L 114.49999999999994 572.9485939744904 L 114.49999999999994 572.9485939744904 L 115.49999999999994 571.9485939744904 L 115.49999999999994 571.9485939744904 L 116.49999999999994 570.9485939744904 L 116.49999999999994 570.9485939744904 L 117.49999999999997 569.9485939744904 L 117.49999999999997 569.9485939744904 L 118.49999999999997 568.9485939744904 L 118.49999999999997 568.9485939744904 L 119.49999999999997 567.9485939744904 L 119.49999999999997 567.9485939744904 L 120.49999999999997 566.9485939744904 L 120.49999999999997 566.9485939744904 L 121.49999999999997 565.9485939744904 L 121.49999999999997 565.9485939744904 L 122.49999999999997 564.9485939744904 L 122.49999999999997 564.9485939744904 L 123.49999999999997 563.9485939744904 L 123.49999999999997 563.9485939744904 L 124.5 562.9485939744904 L 124.5 562.9485939744904 L 125.5 561.9485939744904 L 125.5 561.9485939744904 L 126.5 560.9485939744904 L 126.5 560.9485939744904 L 127.5 559.9485939744904 L 127.5 559.9485939744904 L 128.5 558.9485939744904 L 128.5 558.9485939744904 L 129.5 557.9485939744904 L 129.5 557.9485939744904 L 130.50000000000003 556.9485939744904 L 130.50000000000003 556.9485939744904 L 131.49999999999994 555.9485939744904 L 131.49999999999994 555.9485939744904 L 132.49999999999994 554.9485939744904 L 132.49999999999994 554.9485939744904 L 133.49999999999994 553.9485939744904 L 133.49999999999994 553.9485939744904 L 134.49999999999997 552.9485939744904 L 134.49999999999997 552.9485939744904 L 135.49999999999997 551.9485939744904 L 135.49999999999997 551.9485939744904 L 136.49999999999997 550.9485939744904 L 136.49999999999997 550.9485939744904 L 137.49999999999997 549.9485939744904 L 137.49999999999997 549.9485939744904 L 138.49999999999997 548.9485939744904 L 138.49999999999997 548.9485939744904 L 139.49999999999997 547.9485939744904 L 139.49999999999997 547.9485939744904 L 140.5 546.9485939744904 L 140.5 546.9485939744904 L 141.5 545.9485939744904 L 141.5 545.9485939744904 L 142.5 544.9485939744904 L 142.5 544.9485939744904 L 143.49999999999997 543.9485939744904 L 143.49999999999997 543.9485939744904 L 144.49999999999997 542.9485939744904 L 144.49999999999997 542.9485939744904 L 145.49999999999997 541.9485939744904 L 145.49999999999997 541.9485939744904 L 146.49999999999997 540.9485939744904 L 146.49999999999997 540.9485939744904 L 147.49999999999997 539.9485939744904 L 147.49999999999997 539.9485939744904 L 148.5 538.9485939744904 L 148.5 538.9485939744904 L 149.5 537.9485939744904 L 149.5 537.9485939744904 L 150.49999999999997 536.9485939744904 L 150.49999999999997 536.9485939744904 L 151.49999999999997 535.9485939744904 L 151.49999999999997 535.9485939744904 L 152.49999999999997 534.9485939744904 L 152.49999999999997 534.9485939744904 L 153.49999999999997 533.9485939744904 L 153.49999999999997 533.9485939744904 L 154.49999999999997 532.9485939744904 L 154.49999999999997 532.9485939744904 L 155.49999999999997 531.9485939744904 L 155.49999999999997 531.9485939744904 L 156.5 530.9485939744904 L 156.5 530.9485939744904 L 157.5 529.9485939744904 L 157.5 529.9485939744904 L 158.5 528.9485939744904 L 158.5 528.9485939744904 L 159.49999999999997 527.9485939744904 L 159.49999999999997 527.9485939744904 L 160.49999999999997 526.9485939744904 L 160.49999999999997 526.9485939744904 L 161.49999999999997 525.9485939744904 L 161.49999999999997 525.9485939744904 L 162.49999999999997 524.9485939744904 L 162.49999999999997 524.9485939744904 L 163.5 523.9485939744904 L 163.5 523.9485939744904 L 164.5 522.9485939744904 L 164.5 522.9485939744904 L 165.5 521.9485939744904 L 165.5 521.9485939744904 L 166.49999999999994 520.9485939744904 L 166.49999999999994 520.9485939744904 L 167.49999999999994 519.9485939744904 L 167.49999999999994 519.9485939744904 L 168.49999999999997 518.9485939744904 L 168.49999999999997 518.9485939744904 L 169.49999999999997 517.9485939744904 L 169.49999999999997 517.9485939744904 L 170.49999999999997 516.9485939744904 L 170.49999999999997 516.9485939744904 L 171.5 515.9485939744904 L 171.5 515.9485939744904 L 172.5 514.9485939744904 L 172.5 514.9485939744904 L 173.5 513.9485939744904 L 173.5 513.9485939744904 L 174.5 512.9485939744904 L 174.5 512.9485939744904 L 175.49999999999994 511.94859397449045 L 175.49999999999994 511.94859397449045 L 176.49999999999997 510.94859397449045 L 176.49999999999997 510.94859397449045 L 177.49999999999997 509.94859397449045 L 177.49999999999997 509.94859397449045 L 178.49999999999997 508.94859397449045 L 178.49999999999997 508.94859397449045 L 179.5 507.94859397449045 L 179.5 507.94859397449045 L 180.5 506.94859397449045 L 180.5 506.94859397449045 L 181.5 505.9485939744904 L 181.5 505.9485939744904 L 182.49999999999994 504.94859397449045 L 182.49999999999994 504.94859397449045 L 183.49999999999994 503.94859397449045 L 183.49999999999994 503.94859397449045 L 184.49999999999997 502.94859397449045 L 184.49999999999997 502.94859397449045 L 185.49999999999997 501.94859397449045 L 185.49999999999997 501.94859397449045 L 186.49999999999997 500.94859397449045 L 186.49999999999997 500.94859397449045 L 187.5 499.94859397449045 L 187.5 499.94859397449045 L 188.5 498.94859397449045 L 188.5 498.94859397449045 L 189.5 497.9485939744904 L 189.5 497.9485939744904 L 190.5 496.9485939744904 L 190.5 496.9485939744904 L 191.49999999999994 495.94859397449045 L 191.49999999999994 495.94859397449045 L 192.49999999999997 494.94859397449045 L 192.49999999999997 494.94859397449045 L 193.49999999999997 493.94859397449045 L 193.49999999999997 493.94859397449045 L 194.49999999999997 492.94859397449045 L 194.49999999999997 492.94859397449045 L 195.5 491.94859397449045 L 195.5 491.94859397449045 L 196.5 490.94859397449045 L 196.5 490.94859397449045 L 197.5 489.9485939744904 L 197.5 489.9485939744904 L 198.49999999999994 488.94859397449045 L 198.49999999999994 488.94859397449045 L 199.49999999999994 487.94859397449045 L 199.49999999999994 487.94859397449045 L 200.49999999999997 486.94859397449045 L 200.49999999999997 486.94859397449045 L 201.49999999999997 485.94859397449045 L 201.49999999999997 485.94859397449045 L 202.49999999999997 484.94859397449045 L 202.49999999999997 484.94859397449045 L 203.5 483.94859397449045 L 203.5 483.94859397449045 L 204.5 482.94859397449045 L 204.5 482.94859397449045 L 205.5 481.9485939744904 L 205.5 481.9485939744904 L 206.5 480.9485939744904 L 206.5 480.9485939744904 L 207.49999999999994 479.94859397449045 L 207.49999999999994 479.94859397449045 L 208.49999999999997 478.94859397449045 L 208.49999999999997 478.94859397449045 L 209.49999999999997 477.94859397449045 L 209.49999999999997 477.94859397449045 L 210.49999999999997 476.94859397449045 L 210.49999999999997 476.94859397449045 L 211.5 475.94859397449045 L 211.5 475.94859397449045 L 212.5 474.94859397449045 L 212.5 474.94859397449045 L 213.5 473.9485939744904 L 213.5 473.9485939744904 L 214.49999999999994 472.94859397449045 L 214.49999999999994 472.94859397449045 L 215.49999999999994 471.94859397449045 L 215.49999999999994 471.94859397449045 L 216.49999999999997 470.94859397449045 L 216.49999999999997 470.94859397449045 L 217.49999999999997 469.94859397449045 L 217.49999999999997 469.94859397449045 L 218.49999999999997 468.94859397449045 L 218.49999999999997 468.94859397449045 L 219.5 467.94859397449045 L 219.5 467.94859397449045 L 220.5 466.94859397449045 L 220.5 466.94859397449045 L 221.5 465.94859397449045 L 221.5 465.94859397449045 L 222.5 464.9485939744904 L 222.5 464.9485939744904 L 223.49999999999994 463.94859397449045 L 223.49999999999994 463.94859397449045 L 224.49999999999997 462.94859397449045 L 224.49999999999997 462.94859397449045 L 225.49999999999997 461.94859397449045 L 225.49999999999997 461.94859397449045 L 226.49999999999997 460.94859397449045 L 226.49999999999997 460.94859397449045 L 227.49999999999997 459.94859397449045 L 227.49999999999997 459.94859397449045 L 228.5 458.94859397449045 L 228.5 458.94859397449045 L 229.5 457.94859397449045 L 229.5 457.94859397449045 L 230.49999999999994 456.94859397449045 L 230.49999999999994 456.94859397449045 L 231.49999999999994 455.94859397449045 L 231.49999999999994 455.94859397449045 L 232.49999999999997 454.94859397449045 L 232.49999999999997 454.94859397449045 L 233.49999999999997 453.94859397449045 L 233.49999999999997 453.94859397449045 L 234.49999999999997 452.94859397449045 L 234.49999999999997 452.94859397449045 L 235.49999999999997 451.94859397449045 L 235.49999999999997 451.94859397449045 L 236.5 450.94859397449045 L 236.5 450.94859397449045 L 237.5 449.94859397449045 L 237.5 449.94859397449045 L 238.5 448.9485939744904 L 238.5 448.9485939744904 L 239.49999999999994 447.94859397449045 L 239.49999999999994 447.94859397449045 L 240.49999999999997 446.94859397449045 L 240.49999999999997 446.94859397449045 L 241.49999999999997 445.94859397449045 L 241.49999999999997 445.94859397449045 L 242.49999999999997 444.94859397449045 L 242.49999999999997 444.94859397449045 L 243.49999999999997 443.94859397449045 L 243.49999999999997 443.94859397449045 L 244.5 442.94859397449045 L 244.5 442.94859397449045 L 245.5 441.94859397449045 L 245.5 441.94859397449045 L 246.49999999999994 440.94859397449045 L 246.49999999999994 440.94859397449045 L 247.49999999999994 439.94859397449045 L 247.49999999999994 439.94859397449045 L 248.49999999999997 438.94859397449045 L 248.49999999999997 438.94859397449045 L 249.49999999999997 437.94859397449045 L 249.49999999999997 437.94859397449045 L 250.49999999999997 436.94859397449045 L 250.49999999999997 436.94859397449045 L 251.49999999999997 435.94859397449045 L 251.49999999999997 435.94859397449045 L 252.49999999999997 434.94859397449045 L 252.49999999999997 434.94859397449045 L 253.5 433.94859397449045 L 253.5 433.94859397449045 L 254.5 432.94859397449045 L 254.5 432.94859397449045 L 255.49999999999994 431.94859397449045 L 255.49999999999994 431.94859397449045 L 256.49999999999994 430.94859397449045 L 256.49999999999994 430.94859397449045 L 257.49999999999994 429.94859397449045 L 257.49999999999994 429.94859397449045 L 258.5 428.94859397449045 L 258.5 428.94859397449045 L 259.5 427.94859397449045 L 259.5 427.94859397449045 L 260.5 426.94859397449045 L 260.5 426.94859397449045 L 261.5 425.94859397449045 L 261.5 425.94859397449045 L 262.49999999999994 424.94859397449045 L 262.49999999999994 424.94859397449045 L 263.49999999999994 423.94859397449045 L 263.49999999999994 423.94859397449045 L 264.49999999999994 422.94859397449045 L 264.49999999999994 422.94859397449045 L 265.49999999999994 421.94859397449045 L 265.49999999999994 421.94859397449045 L 266.5 420.94859397449045 L 266.5 420.94859397449045 L 267.5 419.94859397449045 L 267.5 419.94859397449045 L 268.5 418.94859397449045 L 268.5 418.94859397449045 L 269.5 417.94859397449045 L 269.5 417.94859397449045 L 270.5 416.94859397449045 L 270.5 416.94859397449045 L 271.49999999999994 415.94859397449045 L 271.49999999999994 415.94859397449045 L 272.49999999999994 414.94859397449045 L 272.49999999999994 414.94859397449045 L 273.49999999999994 413.94859397449045 L 273.49999999999994 413.94859397449045 L 274.5 412.94859397449045 L 274.5 412.94859397449045 L 275.5 411.94859397449045 L 275.5 411.94859397449045 L 276.5 410.94859397449045 L 276.5 410.94859397449045 L 277.5 409.94859397449045 L 277.5 409.94859397449045 L 278.49999999999994 408.94859397449045 L 278.49999999999994 408.94859397449045 L 279.49999999999994 407.94859397449045 L 279.49999999999994 407.94859397449045 L 280.49999999999994 406.94859397449045 L 280.49999999999994 406.94859397449045 L 281.49999999999994 405.94859397449045 L 281.49999999999994 405.94859397449045 L 282.49999999999994 404.94859397449045 L 282.49999999999994 404.94859397449045 L 283.5 403.94859397449045 L 283.5 403.94859397449045 L 284.5 402.94859397449045 L 284.5 402.94859397449045 L 285.5 401.94859397449045 L 285.5 401.94859397449045 L 286.5 400.94859397449045 L 286.5 400.94859397449045 L 287.49999999999994 399.94859397449045 L 287.49999999999994 399.94859397449045 L 288.49999999999994 398.94859397449045 L 288.49999999999994 398.94859397449045 L 289.49999999999994 397.94859397449045 L 289.49999999999994 397.94859397449045 L 290.49999999999994 396.94859397449045 L 290.49999999999994 396.94859397449045 L 291.5 395.94859397449045 L 291.5 395.94859397449045 L 292.5 394.94859397449045 L 292.5 394.94859397449045 L 293.5 393.94859397449045 L 293.5 393.94859397449045 L 294.49999999999994 392.94859397449045 L 294.49999999999994 392.94859397449045 L 295.49999999999994 391.94859397449045 L 295.49999999999994 391.94859397449045 L 296.49999999999994 390.94859397449045 L 296.49999999999994 390.94859397449045 L 297.49999999999994 389.94859397449045 L 297.49999999999994 389.94859397449045 L 298.49999999999994 388.94859397449045 L 298.49999999999994 388.94859397449045 L 299.5 387.94859397449045 L 299.5 387.94859397449045 L 300.5 386.94859397449045 L 300.5 386.94859397449045 L 301.5 385.94859397449045 L 301.5 385.94859397449045 L 302.5 384.94859397449045 L 302.5 384.94859397449045 L 303.49999999999994 383.94859397449045 L 303.49999999999994 383.94859397449045 L 304.49999999999994 382.94859397449045 L 304.49999999999994 382.94859397449045 L 305.49999999999994 381.94859397449045 L 305.49999999999994 381.94859397449045 L 306.49999999999994 380.94859397449045 L 306.49999999999994 380.94859397449045 L 307.5 379.94859397449045 L 307.5 379.94859397449045 L 308.5 378.94859397449045 L 308.5 378.94859397449045 L 309.49999999999994 377.94859397449045 L 309.49999999999994 377.94859397449045 L 310.49999999999994 376.94859397449045 L 310.49999999999994 376.94859397449045 L 311.5 375.94859397449045 L 311.5 375.94859397449045 L 312.49999999999994 374.94859397449045 L 312.49999999999994 374.94859397449045 L 313.49999999999994 373.94859397449045 L 313.49999999999994 373.94859397449045 L 314.49999999999994 372.94859397449045 L 314.49999999999994 372.94859397449045 L 315.5 371.94859397449045 L 315.5 371.94859397449045 L 316.5 370.94859397449045 L 316.5 370.94859397449045 L 317.49999999999994 369.94859397449045 L 317.49999999999994 369.94859397449045 L 318.49999999999994 368.94859397449045 L 318.49999999999994 368.94859397449045 L 319.5 367.94859397449045 L 319.5 367.94859397449045 L 320.49999999999994 366.94859397449045 L 320.49999999999994 366.94859397449045 L 321.49999999999994 365.94859397449045 L 321.49999999999994 365.94859397449045 L 322.5 364.94859397449045 L 322.5 364.94859397449045 L 323.5 363.94859397449045 L 323.5 363.94859397449045 L 324.5 362.94859397449045 L 324.5 362.94859397449045 L 325.49999999999994 361.94859397449045 L 325.49999999999994 361.94859397449045 L 326.5 360.94859397449045 L 326.5 360.94859397449045 L 327.5 359.94859397449045 L 327.5 359.94859397449045 L 328.49999999999994 358.94859397449045 L 328.49999999999994 358.94859397449045 L 329.49999999999994 357.94859397449045 L 329.49999999999994 357.94859397449045 L 330.5 356.94859397449045 L 330.5 356.94859397449045 L 331.5 355.94859397449045 L 331.5 355.94859397449045 L 332.5 354.94859397449045 L 332.5 354.94859397449045 L 333.49999999999994 353.94859397449045 L 333.49999999999994 353.94859397449045 L 334.49999999999994 352.94859397449045 L 334.49999999999994 352.94859397449045 L 335.5 351.94859397449045 L 335.5 351.94859397449045 L 336.49999999999994 350.94859397449045 L 336.49999999999994 350.94859397449045 L 337.49999999999994 349.94859397449045 L 337.49999999999994 349.94859397449045 L 338.49999999999994 348.94859397449045 L 338.49999999999994 348.94859397449045 L 339.5 347.94859397449045 L 339.5 347.94859397449045 L 340.5 346.94859397449045 L 340.5 346.94859397449045 L 341.49999999999994 345.94859397449045 L 341.49999999999994 345.94859397449045 L 342.49999999999994 344.94859397449045 L 342.49999999999994 344.94859397449045 L 343.5 343.94859397449045 L 343.5 343.94859397449045 L 344.49999999999994 342.94859397449045 L 344.49999999999994 342.94859397449045 L 345.49999999999994 341.94859397449045 L 345.49999999999994 341.94859397449045 L 346.49999999999994 340.94859397449045 L 346.49999999999994 340.94859397449045 L 347.5 339.94859397449045 L 347.5 339.94859397449045 L 348.5 338.94859397449045 L 348.5 338.94859397449045 L 349.49999999999994 337.94859397449045 L 349.49999999999994 337.94859397449045 L 350.49999999999994 336.94859397449045 L 350.49999999999994 336.94859397449045 L 351.5 335.94859397449045 L 351.5 335.94859397449045 L 352.49999999999994 334.94859397449045 L 352.49999999999994 334.94859397449045 L 353.49999999999994 333.94859397449045 L 353.49999999999994 333.94859397449045 L 354.5 332.94859397449045 L 354.5 332.94859397449045 L 355.5 331.94859397449045 L 355.5 331.94859397449045 L 356.5 330.94859397449045 L 356.5 330.94859397449045 L 357.49999999999994 329.94859397449045 L 357.49999999999994 329.94859397449045 L 358.5 328.94859397449045 L 358.5 328.94859397449045 L 359.5 327.94859397449045 L 359.5 327.94859397449045 L 360.49999999999994 326.94859397449045 L 360.49999999999994 326.94859397449045 L 361.49999999999994 325.94859397449045 L 361.49999999999994 325.94859397449045 L 362.5 324.94859397449045 L 362.5 324.94859397449045 L 363.5 323.94859397449045 L 363.5 323.94859397449045 L 364.5 322.94859397449045 L 364.5 322.94859397449045 L 365.49999999999994 321.94859397449045 L 365.49999999999994 321.94859397449045 L 366.5 320.94859397449045 L 366.5 320.94859397449045 L 367.5 319.94859397449045 L 367.5 319.94859397449045 L 368.49999999999994 318.94859397449045 L 368.49999999999994 318.94859397449045 L 369.49999999999994 317.94859397449045 L 369.49999999999994 317.94859397449045 L 370.5 316.94859397449045 L 370.5 316.94859397449045 L 371.5 315.94859397449045 L 371.5 315.94859397449045 L 372.5 314.94859397449045 L 372.5 314.94859397449045 L 373.49999999999994 313.94859397449045 L 373.49999999999994 313.94859397449045 L 374.5 312.94859397449045 L 374.5 312.94859397449045 L 375.5 311.94859397449045 L 375.5 311.94859397449045 L 376.49999999999994 310.94859397449045 L 376.49999999999994 310.94859397449045 L 377.49999999999994 309.94859397449045 L 377.49999999999994 309.94859397449045 L 378.5 308.94859397449045 L 378.5 308.94859397449045 L 379.5 307.94859397449045 L 379.5 307.94859397449045 L 380.5 306.94859397449045 L 380.5 306.94859397449045 L 381.49999999999994 305.94859397449045 L 381.49999999999994 305.94859397449045 L 382.5 304.94859397449045 L 382.5 304.94859397449045 L 383.5 303.94859397449045 L 383.5 303.94859397449045 L 384.49999999999994 302.94859397449045 L 384.49999999999994 302.94859397449045 L 385.49999999999994 301.94859397449045 L 385.49999999999994 301.94859397449045 L 386.5 300.94859397449045 L 386.5 300.94859397449045 L 387.5 299.94859397449045 L 387.5 299.94859397449045 L 388.5 298.94859397449045 L 388.5 298.94859397449045 L 389.49999999999994 297.94859397449045 L 389.49999999999994 297.94859397449045 L 390.5 296.94859397449045 L 390.5 296.94859397449045 L 391.5 295.94859397449045 L 391.5 295.94859397449045 L 392.49999999999994 294.94859397449045 L 392.49999999999994 294.94859397449045 L 393.49999999999994 293.94859397449045 L 393.49999999999994 293.94859397449045 L 394.49999999999994 292.94859397449045 L 394.49999999999994 292.94859397449045 L 395.5 291.94859397449045 L 395.5 291.94859397449045 L 396.5 290.94859397449045 L 396.5 290.94859397449045 L 397.49999999999994 289.94859397449045 L 397.49999999999994 289.94859397449045 L 398.49999999999994 288.94859397449045 L 398.49999999999994 288.94859397449045 L 399.5 287.94859397449045 L 399.5 287.94859397449045 L 400.49999999999994 286.94859397449045 L 400.49999999999994 286.94859397449045 L 401.49999999999994 285.94859397449045 L 401.49999999999994 285.94859397449045 L 402.49999999999994 284.94859397449045 L 402.49999999999994 284.94859397449045 L 403.5 283.94859397449045 L 403.5 283.94859397449045 L 404.5 282.94859397449045 L 404.5 282.94859397449045 L 405.49999999999994 281.94859397449045 L 405.49999999999994 281.94859397449045 L 406.49999999999994 280.94859397449045 L 406.49999999999994 280.94859397449045 L 407.5 279.94859397449045 L 407.5 279.94859397449045 L 408.49999999999994 278.94859397449045 L 408.49999999999994 278.94859397449045 L 409.49999999999994 277.94859397449045 L 409.49999999999994 277.94859397449045 L 410.49999999999994 276.94859397449045 L 410.49999999999994 276.94859397449045 L 411.5 275.94859397449045 L 411.5 275.94859397449045 L 412.5 274.94859397449045 L 412.5 274.94859397449045 L 413.49999999999994 273.94859397449045 L 413.49999999999994 273.94859397449045 L 414.49999999999994 272.94859397449045 L 414.49999999999994 272.94859397449045 L 415.5 271.94859397449045 L 415.5 271.94859397449045 L 416.49999999999994 270.94859397449045 L 416.49999999999994 270.94859397449045 L 417.5 269.94859397449045 L 417.5 269.94859397449045 L 418.5 268.94859397449045 L 418.5 268.94859397449045 L 419.5 267.94859397449045 L 419.5 267.94859397449045 L 420.5 266.94859397449045 L 420.5 266.94859397449045 L 421.5 265.94859397449045 L 421.5 265.94859397449045 L 422.5 264.94859397449045 L 422.5 264.94859397449045 L 423.5 263.94859397449045 L 423.5 263.94859397449045 L 424.49999999999994 262.94859397449045 L 424.49999999999994 262.94859397449045 L 425.5 261.94859397449045 L 425.5 261.94859397449045 L 426.5 260.94859397449045 L 426.5 260.94859397449045 L 427.5 259.94859397449045 L 427.5 259.94859397449045 L 428.5 258.94859397449045 L 428.5 258.94859397449045 L 429.5 257.94859397449045 L 429.5 257.94859397449045 L 430.5 256.94859397449045 L 430.5 256.94859397449045 L 431.5 255.94859397449045 L 431.5 255.94859397449045 L 432.49999999999994 254.94859397449045 L 432.49999999999994 254.94859397449045 L 433.49999999999994 253.94859397449042 L 433.49999999999994 253.94859397449042 L 434.5 252.94859397449042 L 434.5 252.94859397449042 L 435.5 251.94859397449042 L 435.5 251.94859397449042 L 436.5 250.94859397449042 L 436.5 250.94859397449042 L 437.49999999999994 249.94859397449045 L 437.49999999999994 249.94859397449045 L 438.5 248.94859397449045 L 438.5 248.94859397449045 L 439.5 247.94859397449045 L 439.5 247.94859397449045 L 440.49999999999994 246.94859397449048 L 440.49999999999994 246.94859397449048 L 441.49999999999994 245.94859397449048 L 441.49999999999994 245.94859397449048 L 442.5 244.94859397449048 L 442.5 244.94859397449048 L 443.5 243.94859397449045 L 443.5 243.94859397449045 L 444.5 242.94859397449045 L 444.5 242.94859397449045 L 445.49999999999994 241.94859397449045 L 445.49999999999994 241.94859397449045 L 446.5 240.94859397449045 L 446.5 240.94859397449045 L 447.5 239.94859397449045 L 447.5 239.94859397449045 L 448.49999999999994 238.94859397449045 L 448.49999999999994 238.94859397449045 L 449.49999999999994 237.94859397449045 L 449.49999999999994 237.94859397449045 L 450.5 236.94859397449045 L 450.5 236.94859397449045 L 451.5 235.94859397449045 L 451.5 235.94859397449045 L 452.5 234.9485939744904 L 452.5 234.9485939744904 L 453.49999999999994 233.94859397449045 L 453.49999999999994 233.94859397449045 L 454.5 232.9485939744904 L 454.5 232.9485939744904 L 455.49999999999994 231.9485939744905 L 455.49999999999994 231.9485939744905 L 456.49999999999994 230.94859397449045 L 456.49999999999994 230.94859397449045 L 457.49999999999994 229.94859397449045 L 457.49999999999994 229.94859397449045 L 458.5 228.94859397449045 L 458.5 228.94859397449045 L 459.5 227.94859397449045 L 459.5 227.94859397449045 L 460.5 226.94859397449045 L 460.5 226.94859397449045 L 461.5 225.94859397449045 L 461.5 225.94859397449045 L 462.49999999999994 224.94859397449045 L 462.49999999999994 224.94859397449045 L 463.49999999999994 223.94859397449045 L 463.49999999999994 223.94859397449045 L 464.49999999999994 222.94859397449045 L 464.49999999999994 222.94859397449045 L 465.49999999999994 221.94859397449045 L 465.49999999999994 221.94859397449045 L 466.5 220.94859397449045 L 466.5 220.94859397449045 L 467.5 219.94859397449045 L 467.5 219.94859397449045 L 468.5 218.9485939744904 L 468.5 218.9485939744904 L 469.5 217.9485939744904 L 469.5 217.9485939744904 L 470.5 216.9485939744904 L 470.5 216.9485939744904 L 471.49999999999994 215.9485939744905 L 471.49999999999994 215.9485939744905 L 472.49999999999994 214.94859397449045 L 472.49999999999994 214.94859397449045 L 473.49999999999994 213.94859397449045 L 473.49999999999994 213.94859397449045 L 474.5 212.94859397449045 L 474.5 212.94859397449045 L 475.5 211.94859397449045 L 475.5 211.94859397449045 L 476.5 210.94859397449045 L 476.5 210.94859397449045 L 477.5 209.94859397449045 L 477.5 209.94859397449045 L 478.49999999999994 208.94859397449045 L 478.49999999999994 208.94859397449045 L 479.49999999999994 207.94859397449045 L 479.49999999999994 207.94859397449045 L 480.49999999999994 206.94859397449045 L 480.49999999999994 206.94859397449045 L 481.49999999999994 205.94859397449045 L 481.49999999999994 205.94859397449045 L 482.5 204.94859397449045 L 482.5 204.94859397449045 L 483.5 203.94859397449045 L 483.5 203.94859397449045 L 484.5 202.94859397449045 L 484.5 202.94859397449045 L 485.5 201.9485939744904 L 485.5 201.9485939744904 L 486.5 200.9485939744904 L 486.5 200.9485939744904 L 487.49999999999994 199.9485939744905 L 487.49999999999994 199.9485939744905 L 488.49999999999994 198.94859397449045 L 488.49999999999994 198.94859397449045 L 489.49999999999994 197.94859397449045 L 489.49999999999994 197.94859397449045 L 490.5 196.94859397449045 L 490.5 196.94859397449045 L 491.5 195.94859397449045 L 491.5 195.94859397449045 L 492.5 194.94859397449045 L 492.5 194.94859397449045 L 493.5 193.94859397449045 L 493.5 193.94859397449045 L 494.49999999999994 192.94859397449045 L 494.49999999999994 192.94859397449045 L 495.49999999999994 191.94859397449045 L 495.49999999999994 191.94859397449045 L 496.49999999999994 190.94859397449045 L 496.49999999999994 190.94859397449045 L 497.49999999999994 189.94859397449045 L 497.49999999999994 189.94859397449045 L 498.5 188.94859397449045 L 498.5 188.94859397449045 L 499.5 187.94859397449045 L 499.5 187.94859397449045 L 500.5 186.94859397449045 L 500.5 186.94859397449045 L 501.5 185.9485939744904 L 501.5 185.9485939744904 L 502.5 184.9485939744904 L 502.5 184.9485939744904 L 503.49999999999994 183.9485939744905 L 503.49999999999994 183.9485939744905 L 504.49999999999994 182.94859397449045 L 504.49999999999994 182.94859397449045 L 505.49999999999994 181.94859397449045 L 505.49999999999994 181.94859397449045 L 506.5 180.94859397449045 L 506.5 180.94859397449045 L 507.5 179.94859397449045 L 507.5 179.94859397449045 L 508.5 178.94859397449045 L 508.5 178.94859397449045 L 509.5 177.94859397449045 L 509.5 177.94859397449045 L 510.49999999999994 176.94859397449045 L 510.49999999999994 176.94859397449045 L 511.49999999999994 175.94859397449045 L 511.49999999999994 175.94859397449045 L 512.5 174.94859397449045 L 512.5 174.94859397449045 L 513.5 173.94859397449045 L 513.5 173.94859397449045 L 514.5 172.94859397449045 L 514.5 172.94859397449045 L 515.5 171.94859397449045 L 515.5 171.94859397449045 L 516.5 170.94859397449045 L 516.5 170.94859397449045 L 517.5 169.9485939744904 L 517.5 169.9485939744904 L 518.5 168.9485939744904 L 518.5 168.9485939744904 L 519.5 167.9485939744904 L 519.5 167.9485939744904 L 520.5 166.9485939744905 L 520.5 166.9485939744905 L 521.5 165.94859397449045 L 521.5 165.94859397449045 L 522.5 164.94859397449045 L 522.5 164.94859397449045 L 523.5 163.94859397449045 L 523.5 163.94859397449045 L 524.5 162.94859397449045 L 524.5 162.94859397449045 L 525.5 161.94859397449045 L 525.5 161.94859397449045 L 526.5 160.94859397449045 L 526.5 160.94859397449045 L 527.5 159.94859397449045 L 527.5 159.94859397449045 L 528.5 158.94859397449045 L 528.5 158.94859397449045 L 529.5 157.94859397449045 L 529.5 157.94859397449045 L 530.5 156.94859397449045 L 530.5 156.94859397449045 L 531.5 155.94859397449045 L 531.5 155.94859397449045 L 532.5 154.94859397449045 L 532.5 154.94859397449045 L 533.5 153.9485939744904 L 533.5 153.9485939744904 L 534.5 152.9485939744904 L 534.5 152.9485939744904 L 535.5 151.9485939744904 L 535.5 151.9485939744904 L 536.5 150.9485939744905 L 536.5 150.9485939744905 L 537.5 149.94859397449045 L 537.5 149.94859397449045 L 538.5 148.94859397449045 L 538.5 148.94859397449045 L 539.5 147.94859397449045 L 539.5 147.94859397449045 L 540.5 146.94859397449045 L 540.5 146.94859397449045 L 541.5 145.94859397449045 L 541.5 145.94859397449045 L 542.5 144.94859397449045 L 542.5 144.94859397449045 L 543.5 143.94859397449045 L 543.5 143.94859397449045 L 544.5 142.94859397449045 L 544.5 142.94859397449045 L 545.5 141.94859397449045 L 545.5 141.94859397449045 L 546.5 140.94859397449045 L 546.5 140.94859397449045 L 547.5 139.94859397449045 L 547.5 139.94859397449045 L 548.5 138.94859397449045 L 548.5 138.94859397449045 L 549.5 137.9485939744904 L 549.5 137.9485939744904 L 550.5 136.9485939744904 L 550.5 136.9485939744904 L 551.5 135.9485939744904 L 551.5 135.9485939744904 L 552.5 134.9485939744905 L 552.5 134.9485939744905 L 553.5 133.94859397449045 L 553.5 133.94859397449045 L 554.5 132.94859397449045 L 554.5 132.94859397449045 L 555.5 131.94859397449045 L 555.5 131.94859397449045 L 556.5 130.94859397449045 L 556.5 130.94859397449045 L 557.5 129.94859397449045 L 557.5 129.94859397449045 L 558.5 128.94859397449045 L 558.5 128.94859397449045 L 559.5 127.94859397449045 L 559.5 127.94859397449045 L 560.5 126.94859397449045 L 560.5 126.94859397449045 L 561.5 125.94859397449045 L 561.5 125.94859397449045 L 562.5 124.94859397449045 L 562.5 124.94859397449045 L 563.5 123.94859397449045 L 563.5 123.94859397449045 L 564.5 122.94859397449045 L 564.5 122.94859397449045 L 565.5 121.94859397449045 L 565.5 121.94859397449045 L 566.5 120.9485939744904 L 566.5 120.9485939744904 L 567.5 119.9485939744904 L 567.5 119.9485939744904 L 568.5 118.9485939744905 L 568.5 118.9485939744905 L 569.5 117.94859397449045 L 569.5 117.94859397449045 L 570.5 116.94859397449045 L 570.5 116.94859397449045 L 571.5 115.94859397449045 L 571.5 115.94859397449045 L 572.5 114.94859397449045 L 572.5 114.94859397449045 L 573.5 113.94859397449045 L 573.5 113.94859397449045 L 574.5 112.94859397449045 L 574.5 112.94859397449045 L 575.5 111.94859397449045 L 575.5 111.94859397449045 L 576.5 110.94859397449045 L 576.5 110.94859397449045 L 577.5 109.94859397449045 L 577.5 109.94859397449045 L 578.5 108.94859397449045 L 578.5 108.94859397449045 L 579.5 107.94859397449045 L 579.5 107.94859397449045 L 580.5 106.94859397449045 L 580.5 106.94859397449045 L 581.5 105.94859397449045 L 581.5 105.94859397449045 L 582.5 104.9485939744904 L 582.5 104.9485939744904 L 583.5 103.9485939744904 L 583.5 103.9485939744904 L 584.5 102.9485939744905 L 584.5 102.9485939744905 L 585.5 101.9485939744905 L 585.5 101.9485939744905 L 586.5 100.94859397449045 L 586.5 100.94859397449045 L 587.5 99.94859397449045 L 587.5 99.94859397449045 L 588.5 98.94859397449045 L 588.5 98.94859397449045 L 589.5 97.94859397449045 L 589.5 97.94859397449045 L 590.5 96.94859397449045 L 590.5 96.94859397449045 L 591.5 95.94859397449045 L 591.5 95.94859397449045 L 592.5 94.94859397449045 L 592.5 94.94859397449045 L 593.5 93.94859397449045 L 593.5 93.94859397449045 L 594.5 92.94859397449045 L 594.5 92.94859397449045 L 595.5 91.94859397449045 L 595.5 91.94859397449045 L 596.5 90.94859397449045 L 596.5 90.94859397449045 L 597.5 89.94859397449045 L 597.5 89.94859397449045 L 598.5 88.9485939744904 L 598.5 88.9485939744904 L 599.5 87.9485939744904 L 599.5 87.9485939744904 L 600.5 86.9485939744905 L 600.5 86.9485939744905 L 601.5 85.9485939744905 L 601.5 85.9485939744905 L 602.5 84.94859397449045 L 602.5 84.94859397449045 L 603.5 83.94859397449045 L 603.5 83.94859397449045 L 604.5 82.94859397449045 L 604.5 82.94859397449045 L 605.5 81.94859397449045 L 605.5 81.94859397449045 L 606.5 80.94859397449045 L 606.5 80.94859397449045 L 607.5 79.94859397449045 L 607.5 79.94859397449045 L 608.5 78.94859397449045 L 608.5 78.94859397449045 L 609.5 77.94859397449045 L 609.5 77.94859397449045 L 610.5 76.94859397449045 L 610.5 76.94859397449045 L 611.5 75.94859397449045 L 611.5 75.94859397449045 L 612.5 74.94859397449045 L 612.5 74.94859397449045 L 613.5 73.94859397449045 L 613.5 73.94859397449045 L 614.5 72.9485939744904 L 614.5 72.9485939744904 L 615.5 71.9485939744904 L 615.5 71.9485939744904 L 616.5 70.9485939744905 L 616.5 70.9485939744905 L 617.5 69.9485939744905 L 617.5 69.9485939744905 L 618.5 68.94859397449045 L 618.5 68.94859397449045 L 619.5 67.94859397449045 L 619.5 67.94859397449045 L 620.5 66.9485939744904 L 620.5 66.9485939744904 L 621.5 65.94859397449045 L 621.5 65.94859397449045 L 622.5 64.94859397449045 L 622.5 64.94859397449045 L 623.5 63.94859397449045 L 623.5 63.94859397449045 L 624.5 62.94859397449045 L 624.5 62.94859397449045 L 625.5 61.94859397449045 L 625.5 61.94859397449045 L 626.5 60.94859397449045 L 626.5 60.94859397449045 L 627.5 59.94859397449045 L 627.5 59.94859397449045 L 628.5 58.94859397449045 L 628.5 58.94859397449045 L 629.5 57.94859397449045 L 629.5 57.94859397449045 L 630.5 56.94859397449039 L 630.5 56.94859397449039 L 631.5 55.94859397449039 L 631.5 55.94859397449039 L 632.4999999999999 54.94859397449051 L 632.4999999999999 54.94859397449051 L 633.5 53.94859397449039 L 633.5 53.94859397449039 L 634.4999999999999 52.94859397449045 L 634.4999999999999 52.94859397449045 L 635.5 51.94859397449039 L 635.5 51.94859397449039 L 636.5 50.94859397449045 L 636.5 50.94859397449045 L 637.5 49.94859397449045 L 637.5 49.94859397449045 L 638.5 48.94859397449045 L 638.5 48.94859397449045 L 639.5 47.94859397449045 L 639.5 47.94859397449045 L 640.5 46.94859397449045 L 640.5 46.94859397449045 L 641.5 45.94859397449045 L 641.5 45.94859397449045 L 642.5 44.94859397449045 L 642.5 44.94859397449045 L 643.5 43.94859397449045 L 643.5 43.94859397449045 L 644.5 42.94859397449045 L 644.5 42.94859397449045 L 645.5 41.94859397449045 L 645.5 41.94859397449045 L 646.5 40.94859397449045 L 646.5 40.94859397449045 L 647.4999999999999 39.94859397449051 L 647.4999999999999 39.94859397449051 L 648.5 38.94859397449039 L 648.5 38.94859397449039 L 649.4999999999999 37.94859397449051 L 649.4999999999999 37.94859397449051 L 650.5 36.94859397449039 L 650.5 36.94859397449039 L 651.5 35.94859397449045 L 651.5 35.94859397449045 L 652.5 34.94859397449039 L 652.5 34.94859397449039 L 653.5 33.94859397449045 L 653.5 33.94859397449045 L 654.5 32.94859397449039 L 654.5 32.94859397449039 L 655.5 31.94859397449045 L 655.5 31.94859397449045 L 656.5 30.94859397449045 L 656.5 30.94859397449045 L 657.5 29.94859397449045 L 657.5 29.94859397449045 L 658.5 28.94859397449045 L 658.5 28.94859397449045 L 659.5 27.94859397449045 L 659.5 27.94859397449045 L 660.5 26.94859397449045 L 660.5 26.94859397449045 L 661.5 25.94859397449045 L 661.5 25.94859397449045 L 662.4999999999999 24.948593974490507 L 662.4999999999999 24.948593974490507 L 663.5 23.948593974490393 L 663.5 23.948593974490393 L 664.4999999999999 22.948593974490507 L 664.4999999999999 22.948593974490507 L 665.5 21.948593974490393 L 665.5 21.948593974490393 L 666.4999999999999 20.948593974490507 L 666.4999999999999 20.948593974490507 L 667.5 19.948593974490393 L 667.5 19.948593974490393 L 668.5 18.94859397449045 L 668.5 18.94859397449045 L 669.5 17.948593974490393 L 669.5 17.948593974490393 L 670.5 16.94859397449045 L 670.5 16.94859397449045 L 671.5 15.94859397449045 L 671.5 15.94859397449045 L 672.5 14.94859397449045 L 672.5 14.94859397449045 L 673.5 13.94859397449045 L 673.5 13.94859397449045 L 674.5 12.94859397449045 L 674.5 12.94859397449045 L 675.5 11.94859397449045 L 675.5 11.94859397449045 L 676.5 10.94859397449045 L 676.5 10.94859397449045 L 677.5 9.94859397449045 L 677.5 9.94859397449045 L 678.5 8.94859397449045 L 678.5 8.94859397449045 L 679.4999999999999 7.948593974490507 L 679.4999999999999 7.948593974490507 L 680.5 6.948593974490393 L 680.5 6.948593974490393 L 681.4999999999999 5.948593974490507 L 681.4999999999999 5.948593974490507 L 682.5 4.948593974490393 L 682.5 4.948593974490393 L 683.4999999999999 3.94859397449045 L 683.4999999999999 3.94859397449045 L 684.5 2.948593974490393 L 684.5 2.948593974490393 L 685.5 1.94859397449045 L 685.5 1.94859397449045 L 686.5 0.9485939744903931 L 686.5 0.9485939744903931 L 687.5 -0.05140602550955009 L 687.5 -0.05140602550955009 L 688.5 -1.05140602550955 L 688.5 -1.05140602550955 L 689.5 -2.05140602550955 L 689.5 -2.05140602550955 L 690.5 -3.05140602550955 L 690.5 -3.05140602550955 L 691.5 -4.05140602550955 L 691.5 -4.05140602550955 L 692.5 -5.05140602550955 L 692.5 -5.05140602550955 L 693.5 -6.05140602550955 L 693.5 -6.05140602550955 L 694.4999999999999 -7.051406025509493 L 694.4999999999999 -7.051406025509493 L 695.5 -8.051406025509607 L 695.5 -8.051406025509607 L 696.4999999999999 -9.051406025509493 L 696.4999999999999 -9.051406025509493 L 697.5 -10.051406025509607 L 697.5 -10.051406025509607 L 698.4999999999999 -11.051406025509493 L 698.4999999999999 -11.051406025509493 L 699.5 -12.051406025509607 L 699.5 -12.051406025509607 L 700.5 -13.05140602550955 L 700.5 -13.05140602550955 L 701.5 -14.05140602550955 L 701.5 -14.05140602550955 L 702.5 -15.05140602550955 L 702.5 -15.05140602550955 L 703.5 -16.05140602550955 L 703.5 -16.05140602550955 L 704.5 -17.05140602550955 L 704.5 -17.05140602550955 L 705.5 -18.05140602550955 L 705.5 -18.05140602550955 L 706.5 -19.05140602550955 L 706.5 -19.05140602550955 L 707.5 -20.05140602550955 L 707.5 -20.05140602550955 L 708.5 -21.05140602550955 L 708.5 -21.05140602550955 L 709.5 -22.05140602550955 L 709.5 -22.05140602550955 L 710.5 -23.05140602550955 L 710.5 -23.05140602550955 L 711.4999999999999 -24.05140602550955 L 711.4999999999999 -24.05140602550955 L 712.5 -25.05140602550955 L 712.5 -25.05140602550955 L 713.4999999999999 -26.05140602550955 L 713.4999999999999 -26.05140602550955 L 714.5 -27.05140602550955 L 714.5 -27.05140602550955 L 715.4999999999999 -28.05140602550955 L 715.4999999999999 -28.05140602550955 L 716.5 -29.05140602550955 L 716.5 -29.05140602550955 L 717.5 -30.05140602550955 L 717.5 -30.05140602550955 L 718.5 -31.051406025509664 L 718.5 -31.051406025509664 L 719.5 -32.05140602550955 L 719.5 -32.05140602550955 L 720.5 -33.05140602550955 L 720.5 -33.05140602550955 L 721.5 -34.05140602550955 L 721.5 -34.05140602550955 L 722.5 -35.05140602550955 L 722.5 -35.05140602550955 L 723.5 -36.05140602550955 L 723.5 -36.05140602550955 L 724.5 -37.05140602550955 L 724.5 -37.05140602550955 L 725.5 -38.05140602550955 L 725.5 -38.05140602550955 L 726.4999999999999 -39.05140602550955 L 726.4999999999999 -39.05140602550955 L 727.5 -40.05140602550955 L 727.5 -40.05140602550955 L 728.4999999999999 -41.05140602550955 L 728.4999999999999 -41.05140602550955 L 729.5 -42.05140602550955 L 729.5 -42.05140602550955 L 730.4999999999999 -43.05140602550955 L 730.4999999999999 -43.05140602550955 L 731.5 -44.05140602550955 L 731.5 -44.05140602550955 L 732.5 -45.05140602550955 L 732.5 -45.05140602550955 L 733.5 -46.05140602550955 L 733.5 -46.05140602550955 L 734.5 -47.05140602550955 L 734.5 -47.05140602550955 L 735.5 -48.05140602550955 L 735.5 -48.05140602550955 L 736.5 -49.05140602550955 L 736.5 -49.05140602550955 L 737.5 -50.05140602550955 L 737.5 -50.05140602550955 L 738.5 -51.05140602550955 L 738.5 -51.05140602550955 L 739.5 -52.05140602550955 L 739.5 -52.05140602550955 L 740.5 -53.05140602550955 L 740.5 -53.05140602550955 L 741.5 -54.05140602550955 L 741.5 -54.05140602550955 L 742.5 -55.05140602550955 L 742.5 -55.05140602550955 L 743.4999999999999 -56.05140602550955 L 743.4999999999999 -56.05140602550955 L 744.5 -57.05140602550955 L 744.5 -57.05140602550955 L 745.4999999999999 -58.05140602550955 L 745.4999999999999 -58.05140602550955 L 746.5 -59.05140602550955 L 746.5 -59.05140602550955 L 747.4999999999999 -60.05140602550955 L 747.4999999999999 -60.05140602550955 L 748.5 -61.05140602550955 L 748.5 -61.05140602550955 L 749.5 -62.05140602550955 L 749.5 -62.05140602550955 L 750.5 -63.051406025509664 L 750.5 -63.051406025509664 L 751.5 -64.05140602550955 L 751.5 -64.05140602550955 L 752.5 -65.05140602550955 L 752.5 -65.05140602550955 L 753.5 -66.05140602550955 L 753.5 -66.05140602550955 L 754.5 -67.05140602550955 L 754.5 -67.05140602550955 L 755.5 -68.05140602550955 L 755.5 -68.05140602550955 L 756.5 -69.05140602550955 L 756.5 -69.05140602550955 L 757.5 -70.05140602550955 L 757.5 -70.05140602550955 L 758.4999999999999 -71.05140602550955 L 758.4999999999999 -71.05140602550955 L 759.5 -72.05140602550955 L 759.5 -72.05140602550955 L 760.4999999999999 -73.05140602550955 L 760.4999999999999 -73.05140602550955 L 761.5 -74.05140602550955 L 761.5 -74.05140602550955 L 762.4999999999999 -75.05140602550955 L 762.4999999999999 -75.05140602550955 L 763.5 -76.05140602550955 L 763.5 -76.05140602550955 L 764.4999999999999 -77.05140602550955 L 764.4999999999999 -77.05140602550955 L 765.5 -78.05140602550955 L 765.5 -78.05140602550955 L 766.5 -79.05140602550955 L 766.5 -79.05140602550955 L 767.5 -80.05140602550955 L 767.5 -80.05140602550955 L 768.5 -81.05140602550955 L 768.5 -81.05140602550955 L 769.5 -82.05140602550955 L 769.5 -82.05140602550955 L 770.5 -83.05140602550955 L 770.5 -83.05140602550955 L 771.5 -84.05140602550955 L 771.5 -84.05140602550955 L 772.5 -85.05140602550955 L 772.5 -85.05140602550955 L 773.5 -86.05140602550955 L 773.5 -86.05140602550955 L 774.5 -87.05140602550955 L 774.5 -87.05140602550955 L 775.4999999999999 -88.05140602550955 L 775.4999999999999 -88.05140602550955 L 776.5 -89.05140602550955 L 776.5 -89.05140602550955 L 777.4999999999999 -90.05140602550955 L 777.4999999999999 -90.05140602550955 L 778.5 -91.05140602550955 L 778.5 -91.05140602550955 L 779.4999999999999 -92.05140602550955 L 779.4999999999999 -92.05140602550955 L 780.5 -93.05140602550955 L 780.5 -93.05140602550955 L 781.5 -94.05140602550955 L 781.5 -94.05140602550955 L 782.5 -95.05140602550955 L 782.5 -95.05140602550955 L 783.5 -96.05140602550955 L 783.5 -96.05140602550955 L 784.5 -97.05140602550955 L 784.5 -97.05140602550955 L 785.5 -98.05140602550955 L 785.5 -98.05140602550955 L 786.5 -99.05140602550955 L 786.5 -99.05140602550955 L 787.5 -100.05140602550955 L 787.5 -100.05140602550955 L 788.5 -101.05140602550955 L 788.5 -101.05140602550955 L 789.5 -102.05140602550955 L 789.5 -102.05140602550955 L 790.4999999999999 -103.05140602550955 L 790.4999999999999 -103.05140602550955 L 791.5 -104.05140602550955 L 791.5 -104.05140602550955 L 792.4999999999999 -105.05140602550955 L 792.4999999999999 -105.05140602550955 L 793.5 -106.05140602550955 L 793.5 -106.05140602550955 L 794.4999999999999 -107.05140602550955 L 794.4999999999999 -107.05140602550955 L 795.5 -108.05140602550955 L 795.5 -108.05140602550955 L 796.4999999999999 -109.05140602550955 L 796.4999999999999 -109.05140602550955 L 797.5 -110.05140602550955 L 797.5 -110.05140602550955 L 798.5 -111.05140602550955 L 798.5 -111.05140602550955 L 799.5 -112.05140602550955 L 799.5 -112.05140602550955 L 800.5 -113.05140602550955 L 800.5 -113.05140602550955 L 801.5 -114.05140602550955 L 801.5 -114.05140602550955 L 802.5 -115.05140602550955 L 802.5 -115.05140602550955 L 803.5 -116.05140602550955 L 803.5 -116.05140602550955 L 804.5 -117.05140602550955 L 804.5 -117.05140602550955 L 805.5 -118.05140602550955 L 805.5 -118.05140602550955 L 806.5 -119.05140602550955 L 806.5 -119.05140602550955 L 807.5 -120.05140602550955 L 807.5 -120.05140602550955 L 808.5 -121.05140602550955 L 808.5 -121.05140602550955 L 809.5 -122.05140602550955 L 809.5 -122.05140602550955 L 810.5 -123.05140602550955 L 810.5 -123.05140602550955 L 811.5 -124.05140602550955 L 811.5 -124.05140602550955 L 812.5 -125.05140602550955 L 812.5 -125.05140602550955 L 813.5 -126.05140602550955 L 813.5 -126.05140602550955 L 814.5 -127.05140602550955 L 814.5 -127.05140602550955 L 815.5 -128.05140602550955 L 815.5 -128.05140602550955 L 816.5 -129.05140602550966 L 816.5 -129.05140602550966 L 817.5 -130.05140602550955 L 817.5 -130.05140602550955 L 818.4999999999998 -131.05140602550944 L 818.4999999999998 -131.05140602550944 L 819.5 -132.05140602550955 L 819.5 -132.05140602550955 L 820.4999999999998 -133.05140602550944 L 820.4999999999998 -133.05140602550944 L 821.5 -134.05140602550955 L 821.5 -134.05140602550955 L 822.4999999999998 -135.05140602550955 L 822.4999999999998 -135.05140602550955 L 823.5 -136.05140602550955 L 823.5 -136.05140602550955 L 824.5 -137.05140602550955 L 824.5 -137.05140602550955 L 825.5 -138.05140602550955 L 825.5 -138.05140602550955 L 826.5 -139.05140602550955 L 826.5 -139.05140602550955 L 827.5 -140.05140602550955 L 827.5 -140.05140602550955 L 828.5 -141.05140602550955 L 828.5 -141.05140602550955 L 829.5 -142.05140602550955 L 829.5 -142.05140602550955 L 830.5 -143.05140602550955 L 830.5 -143.05140602550955 L 831.5 -144.05140602550966 L 831.5 -144.05140602550966 L 832.5 -145.05140602550955 L 832.5 -145.05140602550955 L 833.5 -146.05140602550966 L 833.5 -146.05140602550966 L 834.5 -147.05140602550955 L 834.5 -147.05140602550955 L 835.4999999999998 -148.05140602550944 L 835.4999999999998 -148.05140602550944 L 836.5 -149.05140602550955 L 836.5 -149.05140602550955 L 837.4999999999998 -150.05140602550944 L 837.4999999999998 -150.05140602550944 L 838.5 -151.05140602550955 L 838.5 -151.05140602550955 L 839.5 -152.05140602550955 L 839.5 -152.05140602550955 L 840.5 -153.05140602550955 L 840.5 -153.05140602550955 L 841.5 -154.05140602550955 L 841.5 -154.05140602550955 L 842.5 -155.05140602550955 L 842.5 -155.05140602550955 L 843.5 -156.05140602550955 L 843.5 -156.05140602550955 L 844.5 -157.05140602550955 L 844.5 -157.05140602550955 L 845.5 -158.05140602550955 L 845.5 -158.05140602550955 L 846.5 -159.05140602550955 L 846.5 -159.05140602550955 L 847.5 -160.05140602550955 L 847.5 -160.05140602550955 L 848.5 -161.05140602550966 L 848.5 -161.05140602550966 L 849.5 -162.05140602550955 L 849.5 -162.05140602550955 L 850.4999999999998 -163.05140602550944 L 850.4999999999998 -163.05140602550944 L 851.5 -164.05140602550955 L 851.5 -164.05140602550955 L 852.4999999999998 -165.05140602550944 L 852.4999999999998 -165.05140602550944 L 853.5 -166.05140602550944 L 853.5 -166.05140602550944 L 854.4999999999998 -167.05140602550944 L 854.4999999999998 -167.05140602550944 L 855.5 -168.05140602550955 L 855.5 -168.05140602550955 L 856.5 -169.05140602550944 L 856.5 -169.05140602550944 L 857.5 -170.05140602550955 L 857.5 -170.05140602550955 L 858.5 -171.05140602550944 L 858.5 -171.05140602550944 L 859.5 -172.05140602550955 L 859.5 -172.05140602550955 L 860.5 -173.05140602550944 L 860.5 -173.05140602550944 L 861.5 -174.05140602550955 L 861.5 -174.05140602550955 L 862.5 -175.05140602550944 L 862.5 -175.05140602550944 L 863.5 -176.05140602550955 L 863.5 -176.05140602550955 L 864.5 -177.05140602550944 L 864.5 -177.05140602550944 L 865.5 -178.05140602550955 L 865.5 -178.05140602550955 L 866.5 -179.05140602550944 L 866.5 -179.05140602550944 L 867.4999999999998 -180.05140602550944 L 867.4999999999998 -180.05140602550944 L 868.5 -181.05140602550944 L 868.5 -181.05140602550944 L 869.4999999999998 -182.05140602550944 L 869.4999999999998 -182.05140602550944 L 870.5 -183.05140602550944 L 870.5 -183.05140602550944 L 871.4999999999998 -184.05140602550944 L 871.4999999999998 -184.05140602550944 L 872.5 -185.05140602550955 L 872.5 -185.05140602550955 L 873.5 -186.05140602550944 L 873.5 -186.05140602550944 L 874.5 -187.05140602550955 L 874.5 -187.05140602550955 L 875.5 -188.05140602550944 L 875.5 -188.05140602550944 L 876.5 -189.05140602550955 L 876.5 -189.05140602550955 L 877.5 -190.05140602550944 L 877.5 -190.05140602550944 L 878.5 -191.05140602550955 L 878.5 -191.05140602550955 L 879.5 -192.05140602550944 L 879.5 -192.05140602550944 L 880.5 -193.05140602550955 L 880.5 -193.05140602550955 L 881.5 -194.05140602550944 L 881.5 -194.05140602550944 L 882.4999999999998 -195.05140602550944 L 882.4999999999998 -195.05140602550944 L 883.5 -196.05140602550944 L 883.5 -196.05140602550944 L 884.4999999999998 -197.05140602550944 L 884.4999999999998 -197.05140602550944 L 885.5 -198.05140602550944 L 885.5 -198.05140602550944 L 886.4999999999998 -199.05140602550944 L 886.4999999999998 -199.05140602550944 L 887.5 -200.05140602550955 L 887.5 -200.05140602550955 L 888.5 -201.05140602550944 L 888.5 -201.05140602550944 L 889.5 -202.05140602550955 L 889.5 -202.05140602550955 L 890.5 -203.05140602550944 L 890.5 -203.05140602550944 L 891.5 -204.05140602550955 L 891.5 -204.05140602550955 L 892.5 -205.05140602550944 L 892.5 -205.05140602550944 L 893.5 -206.05140602550955 L 893.5 -206.05140602550955 L 894.5 -207.05140602550944 L 894.5 -207.05140602550944 L 895.5 -208.05140602550955 L 895.5 -208.05140602550955 L 896.5 -209.05140602550944 L 896.5 -209.05140602550944 L 897.5 -210.05140602550955 L 897.5 -210.05140602550955 L 898.5 -211.05140602550944 L 898.5 -211.05140602550944 L 899.4999999999998 -212.05140602550944 L 899.4999999999998 -212.05140602550944 L 900.5 -213.05140602550944 L 900.5 -213.05140602550944 L 901.4999999999998 -214.05140602550944 L 901.4999999999998 -214.05140602550944 L 902.5 -215.05140602550944 L 902.5 -215.05140602550944 L 903.4999999999998 -216.05140602550944 L 903.4999999999998 -216.05140602550944 L 904.5 -217.05140602550955 L 904.5 -217.05140602550955 L 905.5 -218.05140602550944 L 905.5 -218.05140602550944 L 906.5 -219.05140602550955 L 906.5 -219.05140602550955 L 907.5 -220.05140602550944 L 907.5 -220.05140602550944 L 908.5 -221.05140602550955 L 908.5 -221.05140602550955 L 909.5 -222.05140602550944 L 909.5 -222.05140602550944 L 910.5 -223.05140602550955 L 910.5 -223.05140602550955 L 911.5 -224.05140602550944 L 911.5 -224.05140602550944 L 912.5 -225.05140602550955 L 912.5 -225.05140602550955 L 913.5 -226.05140602550944 L 913.5 -226.05140602550944 L 914.4999999999998 -227.05140602550944 L 914.4999999999998 -227.05140602550944 L 915.5 -228.05140602550944 L 915.5 -228.05140602550944 L 916.4999999999998 -229.05140602550944 L 916.4999999999998 -229.05140602550944 L 917.5 -230.05140602550944 L 917.5 -230.05140602550944 L 918.4999999999998 -231.05140602550944 L 918.4999999999998 -231.05140602550944 L 919.5 -232.05140602550944 L 919.5 -232.05140602550944 L 920.5 -233.05140602550944 L 920.5 -233.05140602550944 L 921.5 -234.05140602550955 L 921.5 -234.05140602550955 L 922.5 -235.05140602550944 L 922.5 -235.05140602550944 L 923.5 -236.05140602550955 L 923.5 -236.05140602550955 L 924.5 -237.05140602550944 L 924.5 -237.05140602550944 L 925.5 -238.05140602550955 L 925.5 -238.05140602550955 L 926.5 -239.05140602550944 L 926.5 -239.05140602550944 L 927.5 -240.05140602550955 L 927.5 -240.05140602550955 L 928.5 -241.05140602550944 L 928.5 -241.05140602550944 L 929.5 -242.05140602550955 L 929.5 -242.05140602550955 L 930.5 -243.05140602550944 L 930.5 -243.05140602550944 L 931.4999999999998 -244.05140602550944 L 931.4999999999998 -244.05140602550944 L 932.5 -245.05140602550944 L 932.5 -245.05140602550944 L 933.4999999999998 -246.05140602550944 L 933.4999999999998 -246.05140602550944 L 934.5 -247.05140602550944 L 934.5 -247.05140602550944 L 935.4999999999998 -248.05140602550944 L 935.4999999999998 -248.05140602550944 L 936.5 -249.05140602550955 L 936.5 -249.05140602550955 L 937.5 -250.05140602550944 L 937.5 -250.05140602550944 L 938.5 -251.05140602550955 L 938.5 -251.05140602550955 L 939.5 -252.05140602550944 L 939.5 -252.05140602550944 L 940.5 -253.05140602550955 L 940.5 -253.05140602550955 L 941.5 -254.05140602550944 L 941.5 -254.05140602550944 L 942.5 -255.05140602550955 L 942.5 -255.05140602550955 L 943.5 -256.05140602550944 L 943.5 -256.05140602550944 L 944.5 -257.05140602550955 L 944.5 -257.05140602550955 L 945.5 -258.05140602550944 L 945.5 -258.05140602550944 L 946.4999999999998 -259.05140602550944 L 946.4999999999998 -259.05140602550944 L 947.5 -260.05140602550944 L 947.5 -260.05140602550944 L 948.4999999999998 -261.05140602550944 L 948.4999999999998 -261.05140602550944 L 949.5 -262.05140602550944" stroke-opacity="0.5019607843137255" stroke-linejoin="round" stroke-miterlimit="10" stroke-width="3" stroke-dasharray="7,4"/><path fill="none" stroke="rgb(255,102,0)" paint-order="fill stroke markers" d=" M 287.50013294712255 399.9484610273679 L 289.14843749999994 398.30015647449045 M 289.14843749999994 398.30015647449045 L 292.85546874999994 394.59312522449045 L 296.56249999999994 390.88609397449045 M 296.56249999999994 390.88609397449045 L 300.26953124999994 387.17906272449045 L 303.97656249999994 383.47203147449045 L 307.68359374999994 379.76500022449045 L 311.39062499999994 376.05796897449045 L 315.09765624999994 372.35093772449045 L 318.80468749999994 368.64390647449045 L 322.51171874999994 364.93687522449045 L 326.21874999999994 361.22984397449045 L 329.92578124999994 357.52281272449045 L 333.63281249999994 353.81578147449045 L 337.33984374999994 350.10875022449045 L 341.04687499999994 346.40171897449045 L 344.75390624999994 342.69468772449045 L 348.46093749999994 338.98765647449045 L 352.16796874999994 335.28062522449045 L 355.87499999999994 331.57359397449045 M 355.87499999999994 331.57359397449045 L 359.58203124999994 327.86656272449045 L 363.28906249999994 324.15953147449045 L 366.99609374999994 320.45250022449045 L 370.70312499999994 316.7454689744905 L 374.41015624999994 313.03843772449045 L 378.11718749999994 309.3314064744905 L 381.82421874999994 305.62437522449045 L 385.53124999999994 301.91734397449045 L 389.23828124999994 298.21031272449045 L 392.94531249999994 294.50328147449045 L 396.65234374999994 290.79625022449045 L 400.35937499999994 287.08921897449045 L 404.06640624999994 283.38218772449045 L 407.77343749999994 279.67515647449045 L 411.48046874999994 275.96812522449045 L 415.18749999999994 272.26109397449045 M 415.18749999999994 272.26109397449045 L 418.8945312499999 268.55406272449045 L 422.6015624999999 264.84703147449045 L 426.3085937499999 261.14000022449045 L 430.0156249999999 257.43296897449045 L 433.7226562499999 253.7259377244905 L 437.4296874999999 250.01890647449048 L 441.1367187499999 246.3118752244905 L 444.8437499999999 242.60484397449045 M 444.8437499999999 242.60484397449045 L 448.5507812499999 238.8978127244905 L 452.2578124999999 235.19078147449045 L 455.9648437499999 231.4837502244905 L 459.6718749999999 227.77671897449045 M 459.6718749999999 227.77671897449045 L 463.3789062499999 224.0696877244905 L 467.0859374999999 220.36265647449045 M 467.0859374999999 220.36265647449045 L 470.3042629445115 217.14433102997896" stroke-opacity="1" stroke-linecap="round" stroke-linejoin="round" stroke-miterlimit="10" stroke-width="5"/><path fill="none" stroke="rgb(192,192,192)" paint-order="fill stroke markers" d=" M 470.3042621135836 217.14433186090673 L 287.5001337780504 217.14433186090673" stroke-opacity="0.5019607843137255" stroke-linejoin="round" stroke-miterlimit="10" stroke-width="3" stroke-dasharray="7,4"/><path fill="none" stroke="rgb(192,192,192)" paint-order="fill stroke markers" d=" M 470.3042621135836 217.14433186090673 L 470.3042621135836 499.6598029249127" stroke-opacity="0.5019607843137255" stroke-linejoin="round" stroke-miterlimit="10" stroke-width="3" stroke-dasharray="7,4"/><path fill="rgb(255,102,0)" stroke="none" paint-order="stroke fill markers" d=" M 478.3042621135836 217.14433186090673 C 478.3042621135836 221.56260985955308 474.7225401122299 225.14433186090673 470.3042621135836 225.14433186090673 C 465.88598411493723 225.14433186090673 462.3042621135836 221.56260985955308 462.3042621135836 217.14433186090673 C 462.3042621135836 212.7260538622604 465.88598411493723 209.14433186090673 470.3042621135836 209.14433186090673 C 474.7225401122299 209.14433186090673 478.3042621135836 212.7260538622604 478.3042621135836 217.14433186090673 Z" fill-opacity="1"/><path fill="none" stroke="rgb(0,0,0)" paint-order="fill stroke markers" d=" M 478.3042621135836 217.14433186090673 C 478.3042621135836 221.56260985955308 474.7225401122299 225.14433186090673 470.3042621135836 225.14433186090673 C 465.88598411493723 225.14433186090673 462.3042621135836 221.56260985955308 462.3042621135836 217.14433186090673 C 462.3042621135836 212.7260538622604 465.88598411493723 209.14433186090673 470.3042621135836 209.14433186090673 C 474.7225401122299 209.14433186090673 478.3042621135836 212.7260538622604 478.3042621135836 217.14433186090673 Z" stroke-opacity="1" stroke-linecap="round" stroke-linejoin="round" stroke-miterlimit="10"/><path fill="rgb(255,102,0)" stroke="none" paint-order="stroke fill markers" d=" M 295.5001337780504 399.94846019644 C 295.5001337780504 404.3667381950863 291.91841177669676 407.94846019644 287.5001337780504 407.94846019644 C 283.081855779404 407.94846019644 279.5001337780504 404.3667381950863 279.5001337780504 399.94846019644 C 279.5001337780504 395.53018219779364 283.081855779404 391.94846019644 287.5001337780504 391.94846019644 C 291.91841177669676 391.94846019644 295.5001337780504 395.53018219779364 295.5001337780504 399.94846019644 Z" fill-opacity="1"/><path fill="none" stroke="rgb(0,0,0)" paint-order="fill stroke markers" d=" M 295.5001337780504 399.94846019644 C 295.5001337780504 404.3667381950863 291.91841177669676 407.94846019644 287.5001337780504 407.94846019644 C 283.081855779404 407.94846019644 279.5001337780504 404.3667381950863 279.5001337780504 399.94846019644 C 279.5001337780504 395.53018219779364 283.081855779404 391.94846019644 287.5001337780504 391.94846019644 C 291.91841177669676 391.94846019644 295.5001337780504 395.53018219779364 295.5001337780504 399.94846019644 Z" stroke-opacity="1" stroke-linecap="round" stroke-linejoin="round" stroke-miterlimit="10"/><path fill="rgb(255,255,255)" stroke="none" paint-order="stroke fill markers" d=" M 295.5001337780504 217.14433186090673 C 295.5001337780504 221.56260985955308 291.91841177669676 225.14433186090673 287.5001337780504 225.14433186090673 C 283.081855779404 225.14433186090673 279.5001337780504 221.56260985955308 279.5001337780504 217.14433186090673 C 279.5001337780504 212.7260538622604 283.081855779404 209.14433186090673 287.5001337780504 209.14433186090673 C 291.91841177669676 209.14433186090673 295.5001337780504 212.7260538622604 295.5001337780504 217.14433186090673 Z" fill-opacity="1"/><path fill="none" stroke="rgb(0,0,0)" paint-order="fill stroke markers" d=" M 295.5001337780504 217.14433186090673 C 295.5001337780504 221.56260985955308 291.91841177669676 225.14433186090673 287.5001337780504 225.14433186090673 C 283.081855779404 225.14433186090673 279.5001337780504 221.56260985955308 279.5001337780504 217.14433186090673 C 279.5001337780504 212.7260538622604 283.081855779404 209.14433186090673 287.5001337780504 209.14433186090673 C 291.91841177669676 209.14433186090673 295.5001337780504 212.7260538622604 295.5001337780504 217.14433186090673 Z" stroke-opacity="1" stroke-linecap="round" stroke-linejoin="round" stroke-miterlimit="10"/><path fill="rgb(255,255,255)" stroke="none" paint-order="stroke fill markers" d=" M 478.3042621135836 499.6598029249127 C 478.3042621135836 504.078080923559 474.7225401122299 507.6598029249127 470.3042621135836 507.6598029249127 C 465.88598411493723 507.6598029249127 462.3042621135836 504.078080923559 462.3042621135836 499.6598029249127 C 462.3042621135836 495.2415249262663 465.88598411493723 491.6598029249127 470.3042621135836 491.6598029249127 C 474.7225401122299 491.6598029249127 478.3042621135836 495.2415249262663 478.3042621135836 499.6598029249127 Z" fill-opacity="1"/><path fill="none" stroke="rgb(0,0,0)" paint-order="fill stroke markers" d=" M 478.3042621135836 499.6598029249127 C 478.3042621135836 504.078080923559 474.7225401122299 507.6598029249127 470.3042621135836 507.6598029249127 C 465.88598411493723 507.6598029249127 462.3042621135836 504.078080923559 462.3042621135836 499.6598029249127 C 462.3042621135836 495.2415249262663 465.88598411493723 491.6598029249127 470.3042621135836 491.6598029249127 C 474.7225401122299 491.6598029249127 478.3042621135836 495.2415249262663 478.3042621135836 499.6598029249127 Z" stroke-opacity="1" stroke-linecap="round" stroke-linejoin="round" stroke-miterlimit="10"/><g transform="scale(44,44)"><g transform="translate(6.318181818181818,1.6582727272727273)"><path fill="rgb(192,192,192)" stroke="none" paint-order="stroke fill markers" d=" M 0.468 -0.372 Q 0.468 -0.317 0.438 -0.218 Q 0.38 -0.024 0.277 0.006 Q 0.261 0.011 0.243 0.011 Q 0.152 0.011 0.122 -0.052000000000000005 Q 0.109 -0.078 0.109 -0.113 Q 0.109 -0.165 0.155 -0.289 L 0.166 -0.318 Q 0.183 -0.362 0.183 -0.388 Q 0.183 -0.42 0.158 -0.42 Q 0.10400000000000001 -0.42 0.069 -0.331 Q 0.062 -0.315 0.057 -0.296 Q 0.046 -0.279 0.041 -0.278 Q 0.029 -0.278 0.029 -0.28800000000000003 Q 0.029 -0.306 0.051000000000000004 -0.35100000000000003 Q 0.094 -0.442 0.161 -0.442 Q 0.214 -0.442 0.23500000000000001 -0.397 Q 0.243 -0.38 0.243 -0.36 Q 0.243 -0.339 0.231 -0.31 Q 0.177 -0.166 0.17300000000000001 -0.111 L 0.17300000000000001 -0.098 Q 0.17300000000000001 -0.018000000000000002 0.23700000000000002 -0.011 L 0.247 -0.011 Q 0.328 -0.011 0.387 -0.147 Q 0.422 -0.227 0.425 -0.28200000000000003 Q 0.425 -0.332 0.391 -0.364 Q 0.375 -0.38 0.375 -0.394 Q 0.375 -0.419 0.401 -0.435 Q 0.41200000000000003 -0.442 0.424 -0.442 Q 0.453 -0.442 0.464 -0.405 Q 0.468 -0.391 0.468 -0.372 Z"/></g></g><g transform="scale(44,44)"><g transform="translate(10.5,12.296818181818182)"><path fill="rgb(255,255,255)" stroke="none" paint-order="stroke fill markers" d=" M 0.20600000000000002 -0.4 L 0.132 -0.105 Q 0.126 -0.08 0.126 -0.057 Q 0.126 -0.011 0.157 -0.011 Q 0.223 -0.011 0.273 -0.108 L 0.28700000000000003 -0.139 Q 0.293 -0.152 0.302 -0.153 Q 0.314 -0.153 0.314 -0.14300000000000002 Q 0.314 -0.13 0.28800000000000003 -0.08600000000000001 Q 0.23 0.011 0.155 0.011 Q 0.097 0.011 0.073 -0.037 Q 0.063 -0.057 0.063 -0.081 Q 0.063 -0.1 0.124 -0.34 L 0.139 -0.4 L 0.051000000000000004 -0.4 Q 0.026000000000000002 -0.4 0.024 -0.40800000000000003 L 0.023 -0.40800000000000003 L 0.023 -0.41200000000000003 Q 0.023 -0.429 0.039 -0.431 L 0.053 -0.431 L 0.147 -0.431 L 0.186 -0.59 Q 0.195 -0.625 0.226 -0.626 Q 0.252 -0.626 0.255 -0.599 Q 0.255 -0.593 0.214 -0.431 L 0.302 -0.431 Q 0.328 -0.431 0.33 -0.42 Q 0.33 -0.402 0.314 -0.4 L 0.313 -0.4 L 0.3 -0.4 L 0.20600000000000002 -0.4 Z"/></g><g transform="translate(10.861,12.446818181818182) scale(0.7,0.7)"><path fill="rgb(255,255,255)" stroke="none" paint-order="stroke fill markers" d=" M 0.294 -0.64 L 0.294 -0.079 Q 0.294 -0.049 0.306 -0.041 Q 0.323 -0.031 0.387 -0.031 L 0.419 -0.031 L 0.419 0 Q 0.384 -0.003 0.257 -0.003 Q 0.13 -0.003 0.095 0 L 0.095 -0.031 L 0.127 -0.031 Q 0.20400000000000001 -0.031 0.215 -0.049 L 0.216 -0.05 Q 0.22 -0.058 0.22 -0.079 L 0.22 -0.597 Q 0.168 -0.5710000000000001 0.089 -0.5710000000000001 L 0.089 -0.602 Q 0.209 -0.602 0.271 -0.666 Q 0.29 -0.666 0.293 -0.659 L 0.293 -0.659 L 0.293 -0.658 Q 0.294 -0.655 0.294 -0.64 Z"/></g></g><g transform="scale(44,44)"><g transform="translate(6.7272727272727275,14.871272727272727)"><path fill="rgb(255,255,255)" stroke="none" paint-order="stroke fill markers" d=" M 0.20600000000000002 -0.4 L 0.132 -0.105 Q 0.126 -0.08 0.126 -0.057 Q 0.126 -0.011 0.157 -0.011 Q 0.223 -0.011 0.273 -0.108 L 0.28700000000000003 -0.139 Q 0.293 -0.152 0.302 -0.153 Q 0.314 -0.153 0.314 -0.14300000000000002 Q 0.314 -0.13 0.28800000000000003 -0.08600000000000001 Q 0.23 0.011 0.155 0.011 Q 0.097 0.011 0.073 -0.037 Q 0.063 -0.057 0.063 -0.081 Q 0.063 -0.1 0.124 -0.34 L 0.139 -0.4 L 0.051000000000000004 -0.4 Q 0.026000000000000002 -0.4 0.024 -0.40800000000000003 L 0.023 -0.40800000000000003 L 0.023 -0.41200000000000003 Q 0.023 -0.429 0.039 -0.431 L 0.053 -0.431 L 0.147 -0.431 L 0.186 -0.59 Q 0.195 -0.625 0.226 -0.626 Q 0.252 -0.626 0.255 -0.599 Q 0.255 -0.593 0.214 -0.431 L 0.302 -0.431 Q 0.328 -0.431 0.33 -0.42 Q 0.33 -0.402 0.314 -0.4 L 0.313 -0.4 L 0.3 -0.4 L 0.20600000000000002 -0.4 Z"/></g><g transform="translate(7.088272727272727,15.021272727272727) scale(0.7,0.7)"><path fill="rgb(255,255,255)" stroke="none" paint-order="stroke fill markers" d=" M 0.46 -0.32 Q 0.46 -0.17400000000000002 0.423 -0.094 Q 0.364 0.018000000000000002 0.249 0.022 Q 0.158 0.022 0.10300000000000001 -0.05 Q 0.092 -0.063 0.084 -0.079 Q 0.039 -0.162 0.039 -0.32 Q 0.039 -0.467 0.076 -0.547 Q 0.126 -0.659 0.23800000000000002 -0.666 L 0.25 -0.666 Q 0.339 -0.666 0.395 -0.595 L 0.395 -0.594 Q 0.40900000000000003 -0.5760000000000001 0.42 -0.554 Q 0.46 -0.46900000000000003 0.46 -0.32 M 0.249 0 L 0.249 0 Q 0.312 0 0.34600000000000003 -0.061 Q 0.36 -0.088 0.366 -0.125 Q 0.377 -0.189 0.377 -0.332 Q 0.377 -0.47100000000000003 0.367 -0.527 Q 0.34900000000000003 -0.622 0.275 -0.641 Q 0.262 -0.644 0.249 -0.644 Q 0.179 -0.644 0.147 -0.5740000000000001 Q 0.136 -0.55 0.13 -0.516 Q 0.122 -0.462 0.122 -0.332 Q 0.122 -0.181 0.133 -0.121 Q 0.151 -0.025 0.221 -0.004 Q 0.23500000000000001 0 0.249 0 Z"/></g><g transform="translate(7.7160505050505055,14.871272727272727)"><path fill="rgb(255,255,255)" stroke="none" paint-order="stroke fill markers" d=" M 0.687 -0.327 L 0.09 -0.327 Q 0.058 -0.327 0.056 -0.34700000000000003 Q 0.056 -0.367 0.089 -0.367 L 0.6880000000000001 -0.367 Q 0.72 -0.367 0.721 -0.34700000000000003 Q 0.721 -0.327 0.687 -0.327 M 0.6880000000000001 -0.133 L 0.089 -0.133 Q 0.057 -0.133 0.056 -0.153 Q 0.056 -0.17300000000000001 0.09 -0.17300000000000001 L 0.687 -0.17300000000000001 Q 0.719 -0.17300000000000001 0.721 -0.153 Q 0.721 -0.133 0.6880000000000001 -0.133 Z"/></g><g transform="translate(8.771828282828285,14.871272727272727)"><path fill="rgb(255,255,255)" stroke="none" paint-order="stroke fill markers" d=" M 0.46 -0.32 Q 0.46 -0.17400000000000002 0.423 -0.094 Q 0.364 0.018000000000000002 0.249 0.022 Q 0.158 0.022 0.10300000000000001 -0.05 Q 0.092 -0.063 0.084 -0.079 Q 0.039 -0.162 0.039 -0.32 Q 0.039 -0.467 0.076 -0.547 Q 0.126 -0.659 0.23800000000000002 -0.666 L 0.25 -0.666 Q 0.339 -0.666 0.395 -0.595 L 0.395 -0.594 Q 0.40900000000000003 -0.5760000000000001 0.42 -0.554 Q 0.46 -0.46900000000000003 0.46 -0.32 M 0.249 0 L 0.249 0 Q 0.312 0 0.34600000000000003 -0.061 Q 0.36 -0.088 0.366 -0.125 Q 0.377 -0.189 0.377 -0.332 Q 0.377 -0.47100000000000003 0.367 -0.527 Q 0.34900000000000003 -0.622 0.275 -0.641 Q 0.262 -0.644 0.249 -0.644 Q 0.179 -0.644 0.147 -0.5740000000000001 Q 0.136 -0.55 0.13 -0.516 Q 0.122 -0.462 0.122 -0.332 Q 0.122 -0.181 0.133 -0.121 Q 0.151 -0.025 0.221 -0.004 Q 0.23500000000000001 0 0.249 0 Z"/></g></g><g transform="scale(44,44)"><g transform="translate(5.340909090909091,9.158272727272726)"><path fill="rgb(255,255,255)" stroke="none" paint-order="stroke fill markers" d=" M 0.468 -0.372 Q 0.468 -0.317 0.438 -0.218 Q 0.38 -0.024 0.277 0.006 Q 0.261 0.011 0.243 0.011 Q 0.152 0.011 0.122 -0.052000000000000005 Q 0.109 -0.078 0.109 -0.113 Q 0.109 -0.165 0.155 -0.289 L 0.166 -0.318 Q 0.183 -0.362 0.183 -0.388 Q 0.183 -0.42 0.158 -0.42 Q 0.10400000000000001 -0.42 0.069 -0.331 Q 0.062 -0.315 0.057 -0.296 Q 0.046 -0.279 0.041 -0.278 Q 0.029 -0.278 0.029 -0.28800000000000003 Q 0.029 -0.306 0.051000000000000004 -0.35100000000000003 Q 0.094 -0.442 0.161 -0.442 Q 0.214 -0.442 0.23500000000000001 -0.397 Q 0.243 -0.38 0.243 -0.36 Q 0.243 -0.339 0.231 -0.31 Q 0.177 -0.166 0.17300000000000001 -0.111 L 0.17300000000000001 -0.098 Q 0.17300000000000001 -0.018000000000000002 0.23700000000000002 -0.011 L 0.247 -0.011 Q 0.328 -0.011 0.387 -0.147 Q 0.422 -0.227 0.425 -0.28200000000000003 Q 0.425 -0.332 0.391 -0.364 Q 0.375 -0.38 0.375 -0.394 Q 0.375 -0.419 0.401 -0.435 Q 0.41200000000000003 -0.442 0.424 -0.442 Q 0.453 -0.442 0.464 -0.405 Q 0.468 -0.391 0.468 -0.372 Z"/></g><g transform="translate(5.825909090909091,9.308272727272726) scale(0.7,0.7)"><path fill="rgb(255,255,255)" stroke="none" paint-order="stroke fill markers" d=" M 0.46 -0.32 Q 0.46 -0.17400000000000002 0.423 -0.094 Q 0.364 0.018000000000000002 0.249 0.022 Q 0.158 0.022 0.10300000000000001 -0.05 Q 0.092 -0.063 0.084 -0.079 Q 0.039 -0.162 0.039 -0.32 Q 0.039 -0.467 0.076 -0.547 Q 0.126 -0.659 0.23800000000000002 -0.666 L 0.25 -0.666 Q 0.339 -0.666 0.395 -0.595 L 0.395 -0.594 Q 0.40900000000000003 -0.5760000000000001 0.42 -0.554 Q 0.46 -0.46900000000000003 0.46 -0.32 M 0.249 0 L 0.249 0 Q 0.312 0 0.34600000000000003 -0.061 Q 0.36 -0.088 0.366 -0.125 Q 0.377 -0.189 0.377 -0.332 Q 0.377 -0.47100000000000003 0.367 -0.527 Q 0.34900000000000003 -0.622 0.275 -0.641 Q 0.262 -0.644 0.249 -0.644 Q 0.179 -0.644 0.147 -0.5740000000000001 Q 0.136 -0.55 0.13 -0.516 Q 0.122 -0.462 0.122 -0.332 Q 0.122 -0.181 0.133 -0.121 Q 0.151 -0.025 0.221 -0.004 Q 0.23500000000000001 0 0.249 0 Z"/></g></g><g transform="scale(44,44)"><g transform="translate(5.409090909090909,5.090090909090909)"><path fill="rgb(255,255,255)" stroke="none" paint-order="stroke fill markers" d=" M 0.468 -0.372 Q 0.468 -0.317 0.438 -0.218 Q 0.38 -0.024 0.277 0.006 Q 0.261 0.011 0.243 0.011 Q 0.152 0.011 0.122 -0.052000000000000005 Q 0.109 -0.078 0.109 -0.113 Q 0.109 -0.165 0.155 -0.289 L 0.166 -0.318 Q 0.183 -0.362 0.183 -0.388 Q 0.183 -0.42 0.158 -0.42 Q 0.10400000000000001 -0.42 0.069 -0.331 Q 0.062 -0.315 0.057 -0.296 Q 0.046 -0.279 0.041 -0.278 Q 0.029 -0.278 0.029 -0.28800000000000003 Q 0.029 -0.306 0.051000000000000004 -0.35100000000000003 Q 0.094 -0.442 0.161 -0.442 Q 0.214 -0.442 0.23500000000000001 -0.397 Q 0.243 -0.38 0.243 -0.36 Q 0.243 -0.339 0.231 -0.31 Q 0.177 -0.166 0.17300000000000001 -0.111 L 0.17300000000000001 -0.098 Q 0.17300000000000001 -0.018000000000000002 0.23700000000000002 -0.011 L 0.247 -0.011 Q 0.328 -0.011 0.387 -0.147 Q 0.422 -0.227 0.425 -0.28200000000000003 Q 0.425 -0.332 0.391 -0.364 Q 0.375 -0.38 0.375 -0.394 Q 0.375 -0.419 0.401 -0.435 Q 0.41200000000000003 -0.442 0.424 -0.442 Q 0.453 -0.442 0.464 -0.405 Q 0.468 -0.391 0.468 -0.372 Z"/></g><g transform="translate(5.8940909090909095,5.24009090909091) scale(0.7,0.7)"><path fill="rgb(255,255,255)" stroke="none" paint-order="stroke fill markers" d=" M 0.294 -0.64 L 0.294 -0.079 Q 0.294 -0.049 0.306 -0.041 Q 0.323 -0.031 0.387 -0.031 L 0.419 -0.031 L 0.419 0 Q 0.384 -0.003 0.257 -0.003 Q 0.13 -0.003 0.095 0 L 0.095 -0.031 L 0.127 -0.031 Q 0.20400000000000001 -0.031 0.215 -0.049 L 0.216 -0.05 Q 0.22 -0.058 0.22 -0.079 L 0.22 -0.597 Q 0.168 -0.5710000000000001 0.089 -0.5710000000000001 L 0.089 -0.602 Q 0.209 -0.602 0.271 -0.666 Q 0.29 -0.666 0.293 -0.659 L 0.293 -0.659 L 0.293 -0.658 Q 0.294 -0.655 0.294 -0.64 Z"/></g></g><g transform="scale(25,25)"><g transform="translate(11.847820672475201,4.431)"><path fill="rgb(192,192,192)" stroke="none" paint-order="stroke fill markers" d=" M 0.088 -0.059000000000000004 L 0.088 -0.059000000000000004 L 0.146 -0.29 Q 0.162 -0.354 0.162 -0.374 Q 0.162 -0.42 0.131 -0.42 Q 0.09 -0.42 0.064 -0.325 Q 0.061 -0.314 0.058 -0.301 Q 0.047 -0.279 0.041 -0.278 Q 0.029 -0.278 0.029 -0.28800000000000003 Q 0.029 -0.304 0.048 -0.356 Q 0.054 -0.373 0.06 -0.385 Q 0.084 -0.434 0.12 -0.441 Q 0.127 -0.442 0.134 -0.442 Q 0.188 -0.442 0.214 -0.397 Q 0.224 -0.378 0.226 -0.355 Q 0.29 -0.442 0.382 -0.442 Q 0.433 -0.442 0.464 -0.41600000000000004 Q 0.492 -0.392 0.496 -0.34500000000000003 Q 0.5640000000000001 -0.442 0.659 -0.442 Q 0.748 -0.442 0.769 -0.373 L 0.769 -0.372 Q 0.774 -0.355 0.774 -0.335 Q 0.774 -0.28200000000000003 0.713 -0.115 Q 0.6950000000000001 -0.07100000000000001 0.6950000000000001 -0.044 Q 0.6950000000000001 -0.011 0.719 -0.011 Q 0.781 -0.011 0.8170000000000001 -0.121 L 0.8210000000000001 -0.135 Q 0.8260000000000001 -0.151 0.8310000000000001 -0.152 L 0.8310000000000001 -0.153 L 0.836 -0.153 Q 0.848 -0.153 0.848 -0.14300000000000002 Q 0.848 -0.126 0.8270000000000001 -0.08 Q 0.784 0.011 0.717 0.011 Q 0.666 0.011 0.644 -0.032 Q 0.635 -0.05 0.635 -0.07100000000000001 Q 0.635 -0.091 0.648 -0.126 Q 0.71 -0.29 0.71 -0.35000000000000003 Q 0.71 -0.42 0.656 -0.42 Q 0.5680000000000001 -0.42 0.51 -0.325 Q 0.494 -0.3 0.491 -0.28700000000000003 Q 0.488 -0.274 0.431 -0.046 Q 0.42 -0.003 0.406 0.006 L 0.405 0.007 L 0.404 0.007 Q 0.397 0.011 0.386 0.011 Q 0.361 0.006 0.357 -0.016 L 0.37 -0.075 L 0.39 -0.151 L 0.418 -0.267 Q 0.433 -0.323 0.433 -0.35000000000000003 Q 0.433 -0.42 0.379 -0.42 Q 0.289 -0.42 0.228 -0.32 Q 0.221 -0.309 0.216 -0.298 L 0.203 -0.248 Q 0.198 -0.225 0.186 -0.181 L 0.164 -0.091 Q 0.147 -0.022 0.145 -0.017 Q 0.136 0.009000000000000001 0.108 0.011 Q 0.083 0.006 0.079 -0.016 Q 0.079 -0.014 0.088 -0.059000000000000004 Z"/></g><rect fill="rgb(192,192,192)" stroke="none" x="11.847820672475201" y="4.8375085" width="0.878" height="0.039999"/><g transform="translate(12.0523206724752,5.793459)"><path fill="rgb(192,192,192)" stroke="none" paint-order="stroke fill markers" d=" M 0.391 -0.374 L 0.391 -0.374 Q 0.37 -0.418 0.301 -0.42 Q 0.22 -0.42 0.195 -0.359 Q 0.189 -0.34400000000000003 0.189 -0.33 Q 0.189 -0.291 0.23700000000000002 -0.277 L 0.23700000000000002 -0.277 L 0.23800000000000002 -0.276 Q 0.245 -0.274 0.265 -0.27 Q 0.327 -0.257 0.34800000000000003 -0.242 Q 0.357 -0.23600000000000002 0.365 -0.228 Q 0.396 -0.197 0.396 -0.155 Q 0.396 -0.10300000000000001 0.357 -0.056 Q 0.301 0.011 0.195 0.011 Q 0.10200000000000001 0.011 0.066 -0.041 Q 0.052000000000000005 -0.061 0.052000000000000005 -0.08600000000000001 Q 0.052000000000000005 -0.135 0.09 -0.149 Q 0.099 -0.152 0.108 -0.152 Q 0.14100000000000001 -0.147 0.145 -0.117 Q 0.145 -0.08600000000000001 0.11800000000000001 -0.07100000000000001 Q 0.10200000000000001 -0.061 0.082 -0.064 Q 0.105 -0.011 0.196 -0.011 Q 0.299 -0.011 0.331 -0.08600000000000001 Q 0.339 -0.105 0.339 -0.121 Q 0.339 -0.169 0.28 -0.187 L 0.28 -0.187 L 0.279 -0.187 Q 0.264 -0.191 0.23500000000000001 -0.197 Q 0.145 -0.216 0.134 -0.277 Q 0.132 -0.28600000000000003 0.132 -0.296 Q 0.132 -0.34600000000000003 0.17 -0.389 Q 0.217 -0.442 0.301 -0.442 Q 0.38 -0.442 0.41000000000000003 -0.393 Q 0.42 -0.376 0.42 -0.356 Q 0.42 -0.311 0.386 -0.302 Q 0.38 -0.3 0.374 -0.3 Q 0.34600000000000003 -0.304 0.343 -0.329 Q 0.343 -0.356 0.37 -0.369 Q 0.38 -0.374 0.391 -0.374 Z"/></g></g><path fill="rgb(255,255,255)" stroke="none" paint-order="stroke fill markers" d=" M 295.5001337780504 499.6598029249127 C 295.5001337780504 504.078080923559 291.91841177669676 507.6598029249127 287.5001337780504 507.6598029249127 C 283.081855779404 507.6598029249127 279.5001337780504 504.078080923559 279.5001337780504 499.6598029249127 C 279.5001337780504 495.2415249262663 283.081855779404 491.6598029249127 287.5001337780504 491.6598029249127 C 291.91841177669676 491.6598029249127 295.5001337780504 495.2415249262663 295.5001337780504 499.6598029249127 Z" fill-opacity="1"/><path fill="none" stroke="rgb(0,0,0)" paint-order="fill stroke markers" d=" M 295.5001337780504 499.6598029249127 C 295.5001337780504 504.078080923559 291.91841177669676 507.6598029249127 287.5001337780504 507.6598029249127 C 283.081855779404 507.6598029249127 279.5001337780504 504.078080923559 279.5001337780504 499.6598029249127 C 279.5001337780504 495.2415249262663 283.081855779404 491.6598029249127 287.5001337780504 491.6598029249127 C 291.91841177669676 491.6598029249127 295.5001337780504 495.2415249262663 295.5001337780504 499.6598029249127 Z" stroke-opacity="1" stroke-linecap="round" stroke-linejoin="round" stroke-miterlimit="10"/></g></g></svg>