<svg version="1.1" xmlns="http://www.w3.org/2000/svg" xmlns:xlink="http://www.w3.org/1999/xlink" width="949" height="704"><defs><clipPath id="svMbKumHgPeg"><path fill="none" stroke="none" d=" M 0 0 L 949 0 L 949 704 L 0 704 L 0 0 Z"/></clipPath></defs><g transform="scale(1,1)" clip-path="url(#svMbKumHgPeg)"><g><rect fill="rgb(0,0,0)" stroke="none" x="0" y="0" width="949" height="704" fill-opacity="1"/><path fill="rgb(255,255,255)" stroke="none" paint-order="stroke fill markers" d=" M 616.0756673433046 426.81296666006904 L 616.0756673433045 426.81296666006904 C 616.1515277974171 426.9963405076239 616.1894580244735 427.19170807990275 616.189458024474 427.3870756521817 L 616.1894580244741 427.3870756521817 C 616.1894580244737 427.18371622574153 616.148989893891 426.98980863764194 616.0756674049122 426.81296666006904 Z M 616.1894539516218 427.3905821163119 L 616.1894539516217 427.3905821163119 C 616.1890027666815 427.58480245131074 616.151065349699 427.7789518715871 616.0756417006743 427.96124662505724 L 616.0756417047223 427.96124662505724 C 616.1485588548735 427.78540463492084 616.1889915733417 427.5926878497102 616.1894540132406 427.3905821163119 Z M 33.03995877505088 425.8870756521855 C 32.211531650304686 425.8870756521855 31.539958775050877 426.5586485274393 31.539958775050877 427.3870756521855 C 31.539958775050877 428.2155027769317 32.211531650304686 428.8870756521855 33.03995877505088 428.8870756521855 L 611.0681376809146 428.8870756521855 L 612.5681376809144 427.38707565218556 L 612.5681376809146 427.38707565218556 L 611.0681376809146 425.8870756521855 Z" fill-opacity="0.6980392156862745"/><path fill="rgb(255,255,255)" stroke="none" paint-order="stroke fill markers" d=" M 613.6287978526943 426.3264154804057 L 607.6287978526943 432.3264154804057 C 607.0430114150674 432.91220191803257 607.0430114150674 433.8619493863384 607.6287978526943 434.4477358239653 C 608.2145842903212 435.03352226159217 609.164331758627 435.0335222615922 609.7501181962539 434.44773582396533 L 615.7501181962539 428.44773582396533 C 616.3359046338808 427.86194938633844 616.3359046338808 426.9122019180326 615.7501181962539 426.32641548040573 C 615.164331758627 425.74062904277883 614.2145842903212 425.7406290427788 613.6287978526943 426.3264154804057 Z M 607.6287978526943 422.44773582396533 L 613.6287978526943 428.44773582396533 C 614.2145842903212 429.0335222615922 615.164331758627 429.03352226159217 615.7501181962539 428.4477358239653 C 616.3359046338808 427.8619493863384 616.3359046338808 426.91220191803257 615.7501181962539 426.3264154804057 L 609.7501181962539 420.3264154804057 C 609.164331758627 419.7406290427788 608.2145842903212 419.74062904277883 607.6287978526943 420.32641548040573 C 607.0430114150674 420.9122019180326 607.0430114150674 421.86194938633844 607.6287978526943 422.44773582396533 Z" fill-opacity="0.6980392156862745"/><path fill="rgb(255,255,255)" stroke="none" paint-order="stroke fill markers" d=" M 282.31831190949174 93.51593322394808 C 282.11493263700635 93.51593371309875 281.92100710442054 93.55641023132083 281.7441513260791 93.62974676426956 L 281.744151350908 93.62974676426956 C 281.9275400620548 93.55387154429867 282.12292596243327 93.51593369752484 282.3183119376925 93.51593322394808 Z M 282.3183192897828 93.51593322394817 L 282.3183192897827 93.51593322394817 C 282.5137052533717 93.51593370205686 282.7090911413634 93.55387154883064 282.8924798415565 93.62974676426956 L 282.89247986638543 93.62974676426956 C 282.71562409830483 93.5564102355757 282.52169857796065 93.51593371779552 282.31831931837195 93.51593322394817 Z M 282.31831559623225 97.1372535675033 L 280.81831559623225 98.6372535675033 L 280.81831559623225 676.6654324733669 C 280.81831559623225 677.4938595981131 281.48988847148604 678.1654324733669 282.31831559623225 678.1654324733669 C 283.14674272097847 678.1654324733669 283.81831559623225 677.4938595981131 283.81831559623225 676.6654324733669 L 283.81831559623225 98.6372535675033 L 282.31831559623225 97.1372535675033 Z" fill-opacity="0.6980392156862745"/><path fill="rgb(255,255,255)" stroke="none" paint-order="stroke fill markers" d=" M 281.2576554244524 96.07659339572348 L 287.2576554244524 102.07659339572348 C 287.8434418620793 102.66237983335037 288.7931893303852 102.66237983335037 289.3789757680121 102.07659339572348 C 289.964762205639 101.49080695809658 289.964762205639 100.54105948979071 289.3789757680121 99.95527305216382 L 283.3789757680121 93.95527305216382 C 282.7931893303852 93.36948661453692 281.8434418620793 93.36948661453692 281.2576554244524 93.95527305216382 C 280.67186898682553 94.54105948979071 280.67186898682553 95.49080695809658 281.2576554244524 96.07659339572348 Z M 277.3789757680121 102.07659339572348 L 283.3789757680121 96.07659339572348 C 283.964762205639 95.49080695809658 283.964762205639 94.54105948979071 283.3789757680121 93.95527305216382 C 282.7931893303852 93.36948661453692 281.8434418620793 93.36948661453692 281.2576554244524 93.95527305216382 L 275.2576554244524 99.95527305216382 C 274.67186898682553 100.54105948979071 274.67186898682553 101.49080695809658 275.2576554244524 102.07659339572348 C 275.8434418620793 102.66237983335037 276.7931893303852 102.66237983335037 277.3789757680121 102.07659339572348 Z" fill-opacity="0.6980392156862745"/><path fill="rgb(0,0,0)" stroke="none" paint-order="stroke fill markers" d=" M 914.2978099173527 59.46095041322502 C 914.2978099173527 60.01323516305581 913.8500946671835 60.46095041322502 913.2978099173527 60.46095041322502 C 912.7455251675218 60.46095041322502 912.2978099173527 60.01323516305581 912.2978099173527 59.46095041322502 C 912.2978099173527 58.908665663394224 912.7455251675218 58.46095041322502 913.2978099173527 58.46095041322502 C 913.8500946671835 58.46095041322502 914.2978099173527 58.908665663394224 914.2978099173527 59.46095041322502 Z" fill-opacity="1"/><g transform="scale(44,44)"><g transform="translate(14.181818181818182,9.955909090909092)"><path fill="rgb(192,192,192)" stroke="none" paint-order="stroke fill markers" d=" M 0.20600000000000002 -0.4 L 0.132 -0.105 Q 0.126 -0.08 0.126 -0.057 Q 0.126 -0.011 0.157 -0.011 Q 0.223 -0.011 0.273 -0.108 L 0.28700000000000003 -0.139 Q 0.293 -0.152 0.302 -0.153 Q 0.314 -0.153 0.314 -0.14300000000000002 Q 0.314 -0.13 0.28800000000000003 -0.08600000000000001 Q 0.23 0.011 0.155 0.011 Q 0.097 0.011 0.073 -0.037 Q 0.063 -0.057 0.063 -0.081 Q 0.063 -0.1 0.124 -0.34 L 0.139 -0.4 L 0.051000000000000004 -0.4 Q 0.026000000000000002 -0.4 0.024 -0.40800000000000003 L 0.023 -0.40800000000000003 L 0.023 -0.41200000000000003 Q 0.023 -0.429 0.039 -0.431 L 0.053 -0.431 L 0.147 -0.431 L 0.186 -0.59 Q 0.195 -0.625 0.226 -0.626 Q 0.252 -0.626 0.255 -0.599 Q 0.255 -0.593 0.214 -0.431 L 0.302 -0.431 Q 0.328 -0.431 0.33 -0.42 Q 0.33 -0.402 0.314 -0.4 L 0.313 -0.4 L 0.3 -0.4 L 0.20600000000000002 -0.4 Z"/></g></g><g transform="scale(25,25)"><g transform="translate(23.64,16.871000000000002)"><path fill="rgb(192,192,192)" stroke="none" paint-order="stroke fill markers" d=" M 0.391 -0.374 L 0.391 -0.374 Q 0.37 -0.418 0.301 -0.42 Q 0.22 -0.42 0.195 -0.359 Q 0.189 -0.34400000000000003 0.189 -0.33 Q 0.189 -0.291 0.23700000000000002 -0.277 L 0.23700000000000002 -0.277 L 0.23800000000000002 -0.276 Q 0.245 -0.274 0.265 -0.27 Q 0.327 -0.257 0.34800000000000003 -0.242 Q 0.357 -0.23600000000000002 0.365 -0.228 Q 0.396 -0.197 0.396 -0.155 Q 0.396 -0.10300000000000001 0.357 -0.056 Q 0.301 0.011 0.195 0.011 Q 0.10200000000000001 0.011 0.066 -0.041 Q 0.052000000000000005 -0.061 0.052000000000000005 -0.08600000000000001 Q 0.052000000000000005 -0.135 0.09 -0.149 Q 0.099 -0.152 0.108 -0.152 Q 0.14100000000000001 -0.147 0.145 -0.117 Q 0.145 -0.08600000000000001 0.11800000000000001 -0.07100000000000001 Q 0.10200000000000001 -0.061 0.082 -0.064 Q 0.105 -0.011 0.196 -0.011 Q 0.299 -0.011 0.331 -0.08600000000000001 Q 0.339 -0.105 0.339 -0.121 Q 0.339 -0.169 0.28 -0.187 L 0.28 -0.187 L 0.279 -0.187 Q 0.264 -0.191 0.23500000000000001 -0.197 Q 0.145 -0.216 0.134 -0.277 Q 0.132 -0.28600000000000003 0.132 -0.296 Q 0.132 -0.34600000000000003 0.17 -0.389 Q 0.217 -0.442 0.301 -0.442 Q 0.38 -0.442 0.41000000000000003 -0.393 Q 0.42 -0.376 0.42 -0.356 Q 0.42 -0.311 0.386 -0.302 Q 0.38 -0.3 0.374 -0.3 Q 0.34600000000000003 -0.304 0.343 -0.329 Q 0.343 -0.356 0.37 -0.369 Q 0.38 -0.374 0.391 -0.374 Z"/></g></g><path fill="none" stroke="rgb(255,102,0)" paint-order="fill stroke markers" d=" M 0.49999999999994316 792.2981768554782 L 0.49999999999994316 793.2981768554782 L 0.49999999999994316 792.2981768554782 L 1.4999999999999432 791.2981768554782 L 1.4999999999999432 791.2981768554782 L 2.499999999999943 790.2981768554782 L 2.499999999999943 790.2981768554782 L 3.499999999999943 789.2981768554782 L 3.499999999999943 789.2981768554782 L 4.499999999999943 788.2981768554782 L 4.499999999999943 788.2981768554782 L 5.499999999999943 787.2981768554782 L 5.499999999999943 787.2981768554782 L 6.499999999999943 786.2981768554782 L 6.499999999999943 786.2981768554782 L 7.499999999999943 785.2981768554782 L 7.499999999999943 785.2981768554782 L 8.499999999999943 784.2981768554782 L 8.499999999999943 784.2981768554782 L 9.5 783.2981768554782 L 9.5 783.2981768554782 L 10.5 782.2981768554782 L 10.5 782.2981768554782 L 11.5 781.2981768554782 L 11.5 781.2981768554782 L 12.5 780.2981768554782 L 12.5 780.2981768554782 L 13.5 779.2981768554782 L 13.5 779.2981768554782 L 14.5 778.2981768554782 L 14.5 778.2981768554782 L 15.5 777.2981768554782 L 15.5 777.2981768554782 L 16.5 776.2981768554782 L 16.5 776.2981768554782 L 17.5 775.2981768554782 L 17.5 775.2981768554782 L 18.499999999999943 774.2981768554782 L 18.499999999999943 774.2981768554782 L 19.499999999999943 773.2981768554782 L 19.499999999999943 773.2981768554782 L 20.499999999999943 772.2981768554782 L 20.499999999999943 772.2981768554782 L 21.499999999999943 771.2981768554782 L 21.499999999999943 771.2981768554782 L 22.499999999999943 770.2981768554782 L 22.499999999999943 770.2981768554782 L 23.499999999999943 769.2981768554782 L 23.499999999999943 769.2981768554782 L 24.499999999999943 768.2981768554782 L 24.499999999999943 768.2981768554782 L 25.499999999999943 767.2981768554782 L 25.499999999999943 767.2981768554782 L 26.499999999999943 766.2981768554782 L 26.499999999999943 766.2981768554782 L 27.49999999999997 765.2981768554782 L 27.49999999999997 765.2981768554782 L 28.49999999999997 764.2981768554782 L 28.49999999999997 764.2981768554782 L 29.49999999999997 763.2981768554782 L 29.49999999999997 763.2981768554782 L 30.49999999999997 762.2981768554782 L 30.49999999999997 762.2981768554782 L 31.49999999999997 761.2981768554782 L 31.49999999999997 761.2981768554782 L 32.49999999999997 760.2981768554782 L 32.49999999999997 760.2981768554782 L 33.49999999999997 759.2981768554782 L 33.49999999999997 759.2981768554782 L 34.49999999999997 758.2981768554782 L 34.49999999999997 758.2981768554782 L 35.49999999999997 757.2981768554782 L 35.49999999999997 757.2981768554782 L 36.5 756.2981768554782 L 36.5 756.2981768554782 L 37.5 755.2981768554782 L 37.5 755.2981768554782 L 38.5 754.2981768554782 L 38.5 754.2981768554782 L 39.5 753.2981768554782 L 39.5 753.2981768554782 L 40.499999999999915 752.2981768554782 L 40.499999999999915 752.2981768554782 L 41.49999999999994 751.2981768554782 L 41.49999999999994 751.2981768554782 L 42.49999999999994 750.2981768554782 L 42.49999999999994 750.2981768554782 L 43.49999999999994 749.2981768554782 L 43.49999999999994 749.2981768554782 L 44.49999999999994 748.2981768554782 L 44.49999999999994 748.2981768554782 L 45.49999999999994 747.2981768554782 L 45.49999999999994 747.2981768554782 L 46.49999999999994 746.2981768554782 L 46.49999999999994 746.2981768554782 L 47.49999999999994 745.2981768554782 L 47.49999999999994 745.2981768554782 L 48.49999999999994 744.2981768554782 L 48.49999999999994 744.2981768554782 L 49.49999999999997 743.2981768554782 L 49.49999999999997 743.2981768554782 L 50.49999999999997 742.2981768554782 L 50.49999999999997 742.2981768554782 L 51.49999999999997 741.2981768554782 L 51.49999999999997 741.2981768554782 L 52.49999999999997 740.2981768554782 L 52.49999999999997 740.2981768554782 L 53.49999999999997 739.2981768554782 L 53.49999999999997 739.2981768554782 L 54.49999999999997 738.2981768554782 L 54.49999999999997 738.2981768554782 L 55.49999999999997 737.2981768554782 L 55.49999999999997 737.2981768554782 L 56.49999999999997 736.2981768554782 L 56.49999999999997 736.2981768554782 L 57.49999999999997 735.2981768554782 L 57.49999999999997 735.2981768554782 L 58.5 734.2981768554782 L 58.5 734.2981768554782 L 59.5 733.2981768554782 L 59.5 733.2981768554782 L 60.5 732.2981768554782 L 60.5 732.2981768554782 L 61.5 731.2981768554782 L 61.5 731.2981768554782 L 62.5 730.2981768554782 L 62.5 730.2981768554782 L 63.49999999999994 729.2981768554782 L 63.49999999999994 729.2981768554782 L 64.49999999999994 728.2981768554782 L 64.49999999999994 728.2981768554782 L 65.49999999999994 727.2981768554782 L 65.49999999999994 727.2981768554782 L 66.49999999999994 726.2981768554782 L 66.49999999999994 726.2981768554782 L 67.49999999999994 725.2981768554782 L 67.49999999999994 725.2981768554782 L 68.49999999999994 724.2981768554782 L 68.49999999999994 724.2981768554782 L 69.49999999999994 723.2981768554782 L 69.49999999999994 723.2981768554782 L 70.49999999999994 722.2981768554782 L 70.49999999999994 722.2981768554782 L 71.49999999999997 721.2981768554782 L 71.49999999999997 721.2981768554782 L 72.49999999999997 720.2981768554782 L 72.49999999999997 720.2981768554782 L 73.49999999999997 719.2981768554782 L 73.49999999999997 719.2981768554782 L 74.49999999999997 718.2981768554782 L 74.49999999999997 718.2981768554782 L 75.49999999999997 717.2981768554782 L 75.49999999999997 717.2981768554782 L 76.49999999999997 716.2981768554782 L 76.49999999999997 716.2981768554782 L 77.49999999999997 715.2981768554782 L 77.49999999999997 715.2981768554782 L 78.49999999999997 714.2981768554782 L 78.49999999999997 714.2981768554782 L 79.49999999999997 713.2981768554782 L 79.49999999999997 713.2981768554782 L 80.5 712.2981768554782 L 80.5 712.2981768554782 L 81.5 711.2981768554782 L 81.5 711.2981768554782 L 82.5 710.2981768554782 L 82.5 710.2981768554782 L 83.5 709.2981768554782 L 83.5 709.2981768554782 L 84.5 708.2981768554782 L 84.5 708.2981768554782 L 85.49999999999994 707.2981768554782 L 85.49999999999994 707.2981768554782 L 86.49999999999994 706.2981768554782 L 86.49999999999994 706.2981768554782 L 87.49999999999994 705.2981768554782 L 87.49999999999994 705.2981768554782 L 88.49999999999994 704.2981768554782 L 88.49999999999994 704.2981768554782 L 89.49999999999994 703.2981768554782 L 89.49999999999994 703.2981768554782 L 90.49999999999994 702.2981768554782 L 90.49999999999994 702.2981768554782 L 91.49999999999994 701.2981768554782 L 91.49999999999994 701.2981768554782 L 92.49999999999994 700.2981768554782 L 92.49999999999994 700.2981768554782 L 93.49999999999997 699.2981768554782 L 93.49999999999997 699.2981768554782 L 94.49999999999997 698.2981768554782 L 94.49999999999997 698.2981768554782 L 95.49999999999997 697.2981768554782 L 95.49999999999997 697.2981768554782 L 96.49999999999997 696.2981768554782 L 96.49999999999997 696.2981768554782 L 97.49999999999997 695.2981768554782 L 97.49999999999997 695.2981768554782 L 98.49999999999997 694.2981768554782 L 98.49999999999997 694.2981768554782 L 99.49999999999997 693.2981768554782 L 99.49999999999997 693.2981768554782 L 100.49999999999997 692.2981768554782 L 100.49999999999997 692.2981768554782 L 101.49999999999997 691.2981768554782 L 101.49999999999997 691.2981768554782 L 102.5 690.2981768554782 L 102.5 690.2981768554782 L 103.5 689.2981768554782 L 103.5 689.2981768554782 L 104.5 688.2981768554782 L 104.5 688.2981768554782 L 105.5 687.2981768554782 L 105.5 687.2981768554782 L 106.5 686.2981768554782 L 106.5 686.2981768554782 L 107.49999999999994 685.2981768554782 L 107.49999999999994 685.2981768554782 L 108.49999999999994 684.2981768554782 L 108.49999999999994 684.2981768554782 L 109.49999999999994 683.2981768554782 L 109.49999999999994 683.2981768554782 L 110.49999999999994 682.2981768554782 L 110.49999999999994 682.2981768554782 L 111.49999999999994 681.2981768554782 L 111.49999999999994 681.2981768554782 L 112.49999999999994 680.2981768554782 L 112.49999999999994 680.2981768554782 L 113.49999999999994 679.2981768554782 L 113.49999999999994 679.2981768554782 L 114.49999999999994 678.2981768554782 L 114.49999999999994 678.2981768554782 L 115.49999999999997 677.2981768554782 L 115.49999999999997 677.2981768554782 L 116.49999999999997 676.2981768554782 L 116.49999999999997 676.2981768554782 L 117.49999999999997 675.2981768554782 L 117.49999999999997 675.2981768554782 L 118.49999999999997 674.2981768554782 L 118.49999999999997 674.2981768554782 L 119.49999999999997 673.2981768554782 L 119.49999999999997 673.2981768554782 L 120.49999999999997 672.2981768554782 L 120.49999999999997 672.2981768554782 L 121.49999999999997 671.2981768554782 L 121.49999999999997 671.2981768554782 L 122.49999999999997 670.2981768554782 L 122.49999999999997 670.2981768554782 L 123.49999999999997 669.2981768554782 L 123.49999999999997 669.2981768554782 L 124.5 668.2981768554782 L 124.5 668.2981768554782 L 125.5 667.2981768554782 L 125.5 667.2981768554782 L 126.5 666.2981768554782 L 126.5 666.2981768554782 L 127.5 665.2981768554782 L 127.5 665.2981768554782 L 128.5 664.2981768554782 L 128.5 664.2981768554782 L 129.49999999999994 663.2981768554782 L 129.49999999999994 663.2981768554782 L 130.49999999999994 662.2981768554782 L 130.49999999999994 662.2981768554782 L 131.49999999999994 661.2981768554782 L 131.49999999999994 661.2981768554782 L 132.49999999999994 660.2981768554782 L 132.49999999999994 660.2981768554782 L 133.49999999999994 659.2981768554782 L 133.49999999999994 659.2981768554782 L 134.49999999999994 658.2981768554782 L 134.49999999999994 658.2981768554782 L 135.49999999999994 657.2981768554782 L 135.49999999999994 657.2981768554782 L 136.49999999999994 656.2981768554782 L 136.49999999999994 656.2981768554782 L 137.49999999999997 655.2981768554782 L 137.49999999999997 655.2981768554782 L 138.49999999999997 654.2981768554782 L 138.49999999999997 654.2981768554782 L 139.49999999999997 653.2981768554782 L 139.49999999999997 653.2981768554782 L 140.49999999999997 652.2981768554782 L 140.49999999999997 652.2981768554782 L 141.49999999999997 651.2981768554782 L 141.49999999999997 651.2981768554782 L 142.49999999999997 650.2981768554782 L 142.49999999999997 650.2981768554782 L 143.49999999999997 649.2981768554782 L 143.49999999999997 649.2981768554782 L 144.49999999999997 648.2981768554782 L 144.49999999999997 648.2981768554782 L 145.49999999999997 647.2981768554782 L 145.49999999999997 647.2981768554782 L 146.49999999999994 646.2981768554782 L 146.49999999999994 646.2981768554782 L 147.49999999999994 645.2981768554782 L 147.49999999999994 645.2981768554782 L 148.49999999999997 644.2981768554782 L 148.49999999999997 644.2981768554782 L 149.49999999999997 643.2981768554782 L 149.49999999999997 643.2981768554782 L 150.49999999999997 642.2981768554782 L 150.49999999999997 642.2981768554782 L 151.49999999999997 641.2981768554782 L 151.49999999999997 641.2981768554782 L 152.49999999999997 640.2981768554782 L 152.49999999999997 640.2981768554782 L 153.49999999999997 639.2981768554782 L 153.49999999999997 639.2981768554782 L 154.5 638.2981768554782 L 154.5 638.2981768554782 L 155.5 637.2981768554782 L 155.5 637.2981768554782 L 156.5 636.2981768554782 L 156.5 636.2981768554782 L 157.49999999999994 635.2981768554782 L 157.49999999999994 635.2981768554782 L 158.49999999999994 634.2981768554782 L 158.49999999999994 634.2981768554782 L 159.49999999999994 633.2981768554782 L 159.49999999999994 633.2981768554782 L 160.49999999999994 632.2981768554782 L 160.49999999999994 632.2981768554782 L 161.49999999999997 631.2981768554782 L 161.49999999999997 631.2981768554782 L 162.49999999999997 630.2981768554782 L 162.49999999999997 630.2981768554782 L 163.49999999999997 629.2981768554782 L 163.49999999999997 629.2981768554782 L 164.49999999999997 628.2981768554782 L 164.49999999999997 628.2981768554782 L 165.5 627.2981768554782 L 165.5 627.2981768554782 L 166.5 626.2981768554782 L 166.5 626.2981768554782 L 167.5 625.2981768554782 L 167.5 625.2981768554782 L 168.49999999999994 624.2981768554782 L 168.49999999999994 624.2981768554782 L 169.49999999999994 623.2981768554782 L 169.49999999999994 623.2981768554782 L 170.49999999999994 622.2981768554782 L 170.49999999999994 622.2981768554782 L 171.49999999999994 621.2981768554782 L 171.49999999999994 621.2981768554782 L 172.49999999999997 620.2981768554782 L 172.49999999999997 620.2981768554782 L 173.49999999999997 619.2981768554782 L 173.49999999999997 619.2981768554782 L 174.49999999999997 618.2981768554782 L 174.49999999999997 618.2981768554782 L 175.49999999999997 617.2981768554782 L 175.49999999999997 617.2981768554782 L 176.5 616.2981768554782 L 176.5 616.2981768554782 L 177.5 615.2981768554782 L 177.5 615.2981768554782 L 178.5 614.2981768554782 L 178.5 614.2981768554782 L 179.5 613.2981768554782 L 179.5 613.2981768554782 L 180.49999999999994 612.2981768554782 L 180.49999999999994 612.2981768554782 L 181.49999999999994 611.2981768554782 L 181.49999999999994 611.2981768554782 L 182.49999999999994 610.2981768554782 L 182.49999999999994 610.2981768554782 L 183.49999999999997 609.2981768554782 L 183.49999999999997 609.2981768554782 L 184.49999999999997 608.2981768554782 L 184.49999999999997 608.2981768554782 L 185.49999999999997 607.2981768554782 L 185.49999999999997 607.2981768554782 L 186.49999999999997 606.2981768554782 L 186.49999999999997 606.2981768554782 L 187.5 605.2981768554782 L 187.5 605.2981768554782 L 188.5 604.2981768554782 L 188.5 604.2981768554782 L 189.5 603.2981768554782 L 189.5 603.2981768554782 L 190.5 602.2981768554782 L 190.5 602.2981768554782 L 191.49999999999994 601.2981768554782 L 191.49999999999994 601.2981768554782 L 192.49999999999994 600.2981768554782 L 192.49999999999994 600.2981768554782 L 193.49999999999994 599.2981768554782 L 193.49999999999994 599.2981768554782 L 194.49999999999997 598.2981768554782 L 194.49999999999997 598.2981768554782 L 195.49999999999997 597.2981768554782 L 195.49999999999997 597.2981768554782 L 196.49999999999997 596.2981768554782 L 196.49999999999997 596.2981768554782 L 197.49999999999997 595.2981768554782 L 197.49999999999997 595.2981768554782 L 198.5 594.2981768554782 L 198.5 594.2981768554782 L 199.5 593.2981768554782 L 199.5 593.2981768554782 L 200.5 592.2981768554782 L 200.5 592.2981768554782 L 201.5 591.2981768554782 L 201.5 591.2981768554782 L 202.49999999999994 590.2981768554782 L 202.49999999999994 590.2981768554782 L 203.49999999999994 589.2981768554782 L 203.49999999999994 589.2981768554782 L 204.49999999999994 588.2981768554782 L 204.49999999999994 588.2981768554782 L 205.49999999999997 587.2981768554782 L 205.49999999999997 587.2981768554782 L 206.49999999999997 586.2981768554782 L 206.49999999999997 586.2981768554782 L 207.49999999999997 585.2981768554782 L 207.49999999999997 585.2981768554782 L 208.49999999999997 584.2981768554782 L 208.49999999999997 584.2981768554782 L 209.5 583.2981768554782 L 209.5 583.2981768554782 L 210.5 582.2981768554782 L 210.5 582.2981768554782 L 211.5 581.2981768554782 L 211.5 581.2981768554782 L 212.5 580.2981768554782 L 212.5 580.2981768554782 L 213.49999999999994 579.2981768554782 L 213.49999999999994 579.2981768554782 L 214.49999999999994 578.2981768554782 L 214.49999999999994 578.2981768554782 L 215.49999999999994 577.2981768554782 L 215.49999999999994 577.2981768554782 L 216.49999999999997 576.2981768554782 L 216.49999999999997 576.2981768554782 L 217.49999999999997 575.2981768554782 L 217.49999999999997 575.2981768554782 L 218.49999999999997 574.2981768554782 L 218.49999999999997 574.2981768554782 L 219.49999999999997 573.2981768554782 L 219.49999999999997 573.2981768554782 L 220.49999999999997 572.2981768554782 L 220.49999999999997 572.2981768554782 L 221.5 571.2981768554782 L 221.5 571.2981768554782 L 222.5 570.2981768554782 L 222.5 570.2981768554782 L 223.5 569.2981768554782 L 223.5 569.2981768554782 L 224.49999999999994 568.2981768554782 L 224.49999999999994 568.2981768554782 L 225.49999999999994 567.2981768554782 L 225.49999999999994 567.2981768554782 L 226.49999999999997 566.2981768554782 L 226.49999999999997 566.2981768554782 L 227.49999999999997 565.2981768554782 L 227.49999999999997 565.2981768554782 L 228.49999999999997 564.2981768554782 L 228.49999999999997 564.2981768554782 L 229.49999999999997 563.2981768554782 L 229.49999999999997 563.2981768554782 L 230.49999999999997 562.2981768554782 L 230.49999999999997 562.2981768554782 L 231.49999999999997 561.2981768554782 L 231.49999999999997 561.2981768554782 L 232.5 560.2981768554782 L 232.5 560.2981768554782 L 233.5 559.2981768554782 L 233.5 559.2981768554782 L 234.5 558.2981768554782 L 234.5 558.2981768554782 L 235.49999999999994 557.2981768554782 L 235.49999999999994 557.2981768554782 L 236.49999999999994 556.2981768554782 L 236.49999999999994 556.2981768554782 L 237.49999999999997 555.2981768554782 L 237.49999999999997 555.2981768554782 L 238.49999999999997 554.2981768554782 L 238.49999999999997 554.2981768554782 L 239.49999999999997 553.2981768554782 L 239.49999999999997 553.2981768554782 L 240.49999999999997 552.2981768554782 L 240.49999999999997 552.2981768554782 L 241.49999999999997 551.2981768554782 L 241.49999999999997 551.2981768554782 L 242.49999999999997 550.2981768554782 L 242.49999999999997 550.2981768554782 L 243.5 549.2981768554782 L 243.5 549.2981768554782 L 244.5 548.2981768554782 L 244.5 548.2981768554782 L 245.5 547.2981768554782 L 245.5 547.2981768554782 L 246.49999999999994 546.2981768554782 L 246.49999999999994 546.2981768554782 L 247.49999999999994 545.2981768554782 L 247.49999999999994 545.2981768554782 L 248.49999999999997 544.2981768554782 L 248.49999999999997 544.2981768554782 L 249.49999999999997 543.2981768554782 L 249.49999999999997 543.2981768554782 L 250.49999999999997 542.2981768554782 L 250.49999999999997 542.2981768554782 L 251.49999999999997 541.2981768554782 L 251.49999999999997 541.2981768554782 L 252.49999999999997 540.2981768554782 L 252.49999999999997 540.2981768554782 L 253.49999999999997 539.2981768554782 L 253.49999999999997 539.2981768554782 L 254.49999999999997 538.2981768554782 L 254.49999999999997 538.2981768554782 L 255.5 537.2981768554782 L 255.5 537.2981768554782 L 256.5 536.2981768554782 L 256.5 536.2981768554782 L 257.49999999999994 535.2981768554782 L 257.49999999999994 535.2981768554782 L 258.49999999999994 534.2981768554782 L 258.49999999999994 534.2981768554782 L 259.49999999999994 533.2981768554782 L 259.49999999999994 533.2981768554782 L 260.49999999999994 532.2981768554782 L 260.49999999999994 532.2981768554782 L 261.49999999999994 531.2981768554782 L 261.49999999999994 531.2981768554782 L 262.5 530.2981768554782 L 262.5 530.2981768554782 L 263.5 529.2981768554782 L 263.5 529.2981768554782 L 264.5 528.2981768554782 L 264.5 528.2981768554782 L 265.5 527.2981768554782 L 265.5 527.2981768554782 L 266.5 526.2981768554782 L 266.5 526.2981768554782 L 267.5 525.2981768554782 L 267.5 525.2981768554782 L 268.5 524.2981768554782 L 268.5 524.2981768554782 L 269.49999999999994 523.2981768554782 L 269.49999999999994 523.2981768554782 L 270.49999999999994 522.2981768554782 L 270.49999999999994 522.2981768554782 L 271.49999999999994 521.2981768554782 L 271.49999999999994 521.2981768554782 L 272.49999999999994 520.2981768554782 L 272.49999999999994 520.2981768554782 L 273.5 519.2981768554782 L 273.5 519.2981768554782 L 274.5 518.2981768554782 L 274.5 518.2981768554782 L 275.5 517.2981768554782 L 275.5 517.2981768554782 L 276.5 516.2981768554782 L 276.5 516.2981768554782 L 277.5 515.2981768554782 L 277.5 515.2981768554782 L 278.5 514.2981768554782 L 278.5 514.2981768554782 L 279.5 513.2981768554782 L 279.5 513.2981768554782 L 280.49999999999994 512.2981768554782 L 280.49999999999994 512.2981768554782 L 281.49999999999994 511.29817685547823 L 281.49999999999994 511.29817685547823 L 282.49999999999994 510.29817685547823 L 282.49999999999994 510.29817685547823 L 283.49999999999994 509.29817685547823 L 283.49999999999994 509.29817685547823 L 284.5 508.29817685547823 L 284.5 508.29817685547823 L 285.5 507.29817685547823 L 285.5 507.29817685547823 L 286.5 506.29817685547823 L 286.5 506.29817685547823 L 287.5 505.29817685547823 L 287.5 505.29817685547823 L 288.5 504.29817685547823 L 288.5 504.29817685547823 L 289.5 503.29817685547823 L 289.5 503.29817685547823 L 290.5 502.29817685547823 L 290.5 502.29817685547823 L 291.49999999999994 501.29817685547823 L 291.49999999999994 501.29817685547823 L 292.49999999999994 500.29817685547823 L 292.49999999999994 500.29817685547823 L 293.49999999999994 499.29817685547823 L 293.49999999999994 499.29817685547823 L 294.49999999999994 498.29817685547823 L 294.49999999999994 498.29817685547823 L 295.5 497.29817685547823 L 295.5 497.29817685547823 L 296.5 496.29817685547823 L 296.5 496.29817685547823 L 297.5 495.29817685547823 L 297.5 495.29817685547823 L 298.5 494.29817685547823 L 298.5 494.29817685547823 L 299.5 493.29817685547823 L 299.5 493.29817685547823 L 300.5 492.29817685547823 L 300.5 492.29817685547823 L 301.5 491.29817685547823 L 301.5 491.29817685547823 L 302.49999999999994 490.29817685547823 L 302.49999999999994 490.29817685547823 L 303.49999999999994 489.29817685547823 L 303.49999999999994 489.29817685547823 L 304.49999999999994 488.29817685547823 L 304.49999999999994 488.29817685547823 L 305.49999999999994 487.29817685547823 L 305.49999999999994 487.29817685547823 L 306.5 486.29817685547823 L 306.5 486.29817685547823 L 307.5 485.29817685547823 L 307.5 485.29817685547823 L 308.5 484.29817685547823 L 308.5 484.29817685547823 L 309.5 483.29817685547823 L 309.5 483.29817685547823 L 310.49999999999994 482.29817685547823 L 310.49999999999994 482.29817685547823 L 311.5 481.29817685547823 L 311.5 481.29817685547823 L 312.5 480.29817685547823 L 312.5 480.29817685547823 L 313.5 479.29817685547823 L 313.5 479.29817685547823 L 314.5 478.29817685547823 L 314.5 478.29817685547823 L 315.5 477.29817685547823 L 315.5 477.29817685547823 L 316.5 476.29817685547823 L 316.5 476.29817685547823 L 317.5 475.29817685547823 L 317.5 475.29817685547823 L 318.5 474.29817685547823 L 318.5 474.29817685547823 L 319.5 473.29817685547823 L 319.5 473.29817685547823 L 320.5 472.29817685547823 L 320.5 472.29817685547823 L 321.49999999999994 471.29817685547823 L 321.49999999999994 471.29817685547823 L 322.5 470.29817685547823 L 322.5 470.29817685547823 L 323.5 469.29817685547823 L 323.5 469.29817685547823 L 324.5 468.29817685547823 L 324.5 468.29817685547823 L 325.5 467.29817685547823 L 325.5 467.29817685547823 L 326.5 466.29817685547823 L 326.5 466.29817685547823 L 327.5 465.29817685547823 L 327.5 465.29817685547823 L 328.5 464.29817685547823 L 328.5 464.29817685547823 L 329.5 463.29817685547823 L 329.5 463.29817685547823 L 330.5 462.29817685547823 L 330.5 462.29817685547823 L 331.5 461.29817685547823 L 331.5 461.29817685547823 L 332.5 460.29817685547823 L 332.5 460.29817685547823 L 333.5 459.29817685547823 L 333.5 459.29817685547823 L 334.5 458.29817685547823 L 334.5 458.29817685547823 L 335.5 457.29817685547823 L 335.5 457.29817685547823 L 336.5 456.29817685547823 L 336.5 456.29817685547823 L 337.5 455.29817685547823 L 337.5 455.29817685547823 L 338.5 454.29817685547823 L 338.5 454.29817685547823 L 339.5 453.29817685547823 L 339.5 453.29817685547823 L 340.5 452.29817685547823 L 340.5 452.29817685547823 L 341.5 451.29817685547823 L 341.5 451.29817685547823 L 342.5 450.29817685547823 L 342.5 450.29817685547823 L 343.5 449.29817685547823 L 343.5 449.29817685547823 L 344.5 448.29817685547823 L 344.5 448.29817685547823 L 345.5 447.29817685547823 L 345.5 447.29817685547823 L 346.5 446.29817685547823 L 346.5 446.29817685547823 L 347.5 445.29817685547823 L 347.5 445.29817685547823 L 348.5 444.29817685547823 L 348.5 444.29817685547823 L 349.5 443.29817685547823 L 349.5 443.29817685547823 L 350.5 442.29817685547823 L 350.5 442.29817685547823 L 351.5 441.29817685547823 L 351.5 441.29817685547823 L 352.5 440.29817685547823 L 352.5 440.29817685547823 L 353.5 439.29817685547823 L 353.5 439.29817685547823 L 354.5 438.29817685547823 L 354.5 438.29817685547823 L 355.5 437.29817685547823 L 355.5 437.29817685547823 L 356.5 436.29817685547823 L 356.5 436.29817685547823 L 357.5 435.29817685547823 L 357.5 435.29817685547823 L 358.5 434.29817685547823 L 358.5 434.29817685547823 L 359.5 433.29817685547823 L 359.5 433.29817685547823 L 360.5 432.29817685547823 L 360.5 432.29817685547823 L 361.5 431.29817685547823 L 361.5 431.29817685547823 L 362.5 430.29817685547823 L 362.5 430.29817685547823 L 363.5 429.29817685547823 L 363.5 429.29817685547823 L 364.5 428.29817685547823 L 364.5 428.29817685547823 L 365.5 427.29817685547823 L 365.5 427.29817685547823 L 366.5 426.29817685547823 L 366.5 426.29817685547823 L 367.5 425.29817685547823 L 367.5 425.29817685547823 L 368.5 424.29817685547823 L 368.5 424.29817685547823 L 369.5 423.29817685547823 L 369.5 423.29817685547823 L 370.5 422.29817685547823 L 370.5 422.29817685547823 L 371.5 421.29817685547823 L 371.5 421.29817685547823 L 372.5 420.29817685547823 L 372.5 420.29817685547823 L 373.5 419.29817685547823 L 373.5 419.29817685547823 L 374.5 418.29817685547823 L 374.5 418.29817685547823 L 375.5 417.29817685547823 L 375.5 417.29817685547823 L 376.5 416.29817685547823 L 376.5 416.29817685547823 L 377.5 415.29817685547823 L 377.5 415.29817685547823 L 378.5 414.29817685547823 L 378.5 414.29817685547823 L 379.5 413.29817685547823 L 379.5 413.29817685547823 L 380.5 412.29817685547823 L 380.5 412.29817685547823 L 381.5 411.29817685547823 L 381.5 411.29817685547823 L 382.5 410.29817685547823 L 382.5 410.29817685547823 L 383.5 409.29817685547823 L 383.5 409.29817685547823 L 384.5 408.29817685547823 L 384.5 408.29817685547823 L 385.5 407.29817685547823 L 385.5 407.29817685547823 L 386.5 406.29817685547823 L 386.5 406.29817685547823 L 387.5 405.29817685547823 L 387.5 405.29817685547823 L 388.5 404.29817685547823 L 388.5 404.29817685547823 L 389.5 403.29817685547823 L 389.5 403.29817685547823 L 390.5 402.29817685547823 L 390.5 402.29817685547823 L 391.5 401.29817685547823 L 391.5 401.29817685547823 L 392.5 400.29817685547823 L 392.5 400.29817685547823 L 393.5 399.29817685547823 L 393.5 399.29817685547823 L 394.5 398.29817685547823 L 394.5 398.29817685547823 L 395.5 397.29817685547823 L 395.5 397.29817685547823 L 396.5 396.29817685547823 L 396.5 396.29817685547823 L 397.5 395.29817685547823 L 397.5 395.29817685547823 L 398.5 394.29817685547823 L 398.5 394.29817685547823 L 399.5 393.29817685547823 L 399.5 393.29817685547823 L 400.5 392.29817685547823 L 400.5 392.29817685547823 L 401.5 391.29817685547823 L 401.5 391.29817685547823 L 402.5 390.29817685547823 L 402.5 390.29817685547823 L 403.5 389.29817685547823 L 403.5 389.29817685547823 L 404.5 388.29817685547823 L 404.5 388.29817685547823 L 405.5 387.29817685547823 L 405.5 387.29817685547823 L 406.5 386.29817685547823 L 406.5 386.29817685547823 L 407.5 385.29817685547823 L 407.5 385.29817685547823 L 408.5 384.29817685547823 L 408.5 384.29817685547823 L 409.5 383.29817685547823 L 409.5 383.29817685547823 L 410.5 382.29817685547823 L 410.5 382.29817685547823 L 411.5 381.29817685547823 L 411.5 381.29817685547823 L 412.5 380.29817685547823 L 412.5 380.29817685547823 L 413.5 379.29817685547823 L 413.5 379.29817685547823 L 414.5 378.29817685547823 L 414.5 378.29817685547823 L 415.5 377.29817685547823 L 415.5 377.29817685547823 L 416.5 376.29817685547823 L 416.5 376.29817685547823 L 417.5 375.29817685547823 L 417.5 375.29817685547823 L 418.5 374.29817685547823 L 418.5 374.29817685547823 L 419.5 373.29817685547823 L 419.5 373.29817685547823 L 420.5 372.29817685547823 L 420.5 372.29817685547823 L 421.5 371.29817685547823 L 421.5 371.29817685547823 L 422.5 370.29817685547823 L 422.5 370.29817685547823 L 423.5 369.29817685547823 L 423.5 369.29817685547823 L 424.5 368.29817685547823 L 424.5 368.29817685547823 L 425.5 367.29817685547823 L 425.5 367.29817685547823 L 426.5 366.29817685547823 L 426.5 366.29817685547823 L 427.5 365.29817685547823 L 427.5 365.29817685547823 L 428.5 364.29817685547823 L 428.5 364.29817685547823 L 429.5 363.29817685547823 L 429.5 363.29817685547823 L 430.5 362.29817685547823 L 430.5 362.29817685547823 L 431.5 361.29817685547823 L 431.5 361.29817685547823 L 432.5 360.29817685547823 L 432.5 360.29817685547823 L 433.5 359.29817685547823 L 433.5 359.29817685547823 L 434.5 358.29817685547823 L 434.5 358.29817685547823 L 435.5 357.29817685547823 L 435.5 357.29817685547823 L 436.5 356.29817685547823 L 436.5 356.29817685547823 L 437.5 355.29817685547823 L 437.5 355.29817685547823 L 438.5 354.29817685547823 L 438.5 354.29817685547823 L 439.5 353.29817685547823 L 439.5 353.29817685547823 L 440.5 352.29817685547823 L 440.5 352.29817685547823 L 441.5 351.29817685547823 L 441.5 351.29817685547823 L 442.5 350.29817685547823 L 442.5 350.29817685547823 L 443.5 349.29817685547823 L 443.5 349.29817685547823 L 444.5 348.29817685547823 L 444.5 348.29817685547823 L 445.5 347.29817685547823 L 445.5 347.29817685547823 L 446.5 346.29817685547823 L 446.5 346.29817685547823 L 447.5 345.29817685547823 L 447.5 345.29817685547823 L 448.5 344.29817685547823 L 448.5 344.29817685547823 L 449.5 343.29817685547823 L 449.5 343.29817685547823 L 450.5 342.29817685547823 L 450.5 342.29817685547823 L 451.5 341.29817685547823 L 451.5 341.29817685547823 L 452.5 340.29817685547823 L 452.5 340.29817685547823 L 453.5 339.29817685547823 L 453.5 339.29817685547823 L 454.5 338.29817685547823 L 454.5 338.29817685547823 L 455.5 337.29817685547823 L 455.5 337.29817685547823 L 456.5 336.29817685547823 L 456.5 336.29817685547823 L 457.5 335.29817685547823 L 457.5 335.29817685547823 L 458.5 334.29817685547823 L 458.5 334.29817685547823 L 459.5 333.29817685547823 L 459.5 333.29817685547823 L 460.5 332.29817685547823 L 460.5 332.29817685547823 L 461.5 331.29817685547823 L 461.5 331.29817685547823 L 462.5 330.29817685547823 L 462.5 330.29817685547823 L 463.5 329.29817685547823 L 463.5 329.29817685547823 L 464.5 328.29817685547823 L 464.5 328.29817685547823 L 465.5 327.29817685547823 L 465.5 327.29817685547823 L 466.5 326.29817685547823 L 466.5 326.29817685547823 L 467.5 325.29817685547823 L 467.5 325.29817685547823 L 468.5 324.29817685547823 L 468.5 324.29817685547823 L 469.5 323.29817685547823 L 469.5 323.29817685547823 L 470.5 322.29817685547823 L 470.5 322.29817685547823 L 471.5 321.29817685547823 L 471.5 321.29817685547823 L 472.5 320.29817685547823 L 472.5 320.29817685547823 L 473.5 319.29817685547823 L 473.5 319.29817685547823 L 474.5 318.29817685547823 L 474.5 318.29817685547823 L 475.5 317.29817685547823 L 475.5 317.29817685547823 L 476.5 316.29817685547823 L 476.5 316.29817685547823 L 477.5 315.29817685547823 L 477.5 315.29817685547823 L 478.5 314.29817685547823 L 478.5 314.29817685547823 L 479.5 313.29817685547823 L 479.5 313.29817685547823 L 480.5 312.29817685547823 L 480.5 312.29817685547823 L 481.5 311.29817685547823 L 481.5 311.29817685547823 L 482.5 310.29817685547823 L 482.5 310.29817685547823 L 483.5 309.29817685547823 L 483.5 309.29817685547823 L 484.5 308.29817685547823 L 484.5 308.29817685547823 L 485.5 307.29817685547823 L 485.5 307.29817685547823 L 486.5 306.29817685547823 L 486.5 306.29817685547823 L 487.5 305.29817685547823 L 487.5 305.29817685547823 L 488.5 304.29817685547823 L 488.5 304.29817685547823 L 489.5 303.29817685547823 L 489.5 303.29817685547823 L 490.5 302.29817685547823 L 490.5 302.29817685547823 L 491.5 301.29817685547823 L 491.5 301.29817685547823 L 492.5 300.29817685547823 L 492.5 300.29817685547823 L 493.5 299.29817685547823 L 493.5 299.29817685547823 L 494.5 298.29817685547823 L 494.5 298.29817685547823 L 495.5 297.29817685547823 L 495.5 297.29817685547823 L 496.5 296.29817685547823 L 496.5 296.29817685547823 L 497.5 295.29817685547823 L 497.5 295.29817685547823 L 498.5 294.29817685547823 L 498.5 294.29817685547823 L 499.5 293.29817685547823 L 499.5 293.29817685547823 L 500.5 292.29817685547823 L 500.5 292.29817685547823 L 501.5 291.29817685547823 L 501.5 291.29817685547823 L 502.5 290.29817685547823 L 502.5 290.29817685547823 L 503.5 289.29817685547823 L 503.5 289.29817685547823 L 504.5 288.29817685547823 L 504.5 288.29817685547823 L 505.5 287.29817685547823 L 505.5 287.29817685547823 L 506.5 286.29817685547823 L 506.5 286.29817685547823 L 507.5 285.29817685547823 L 507.5 285.29817685547823 L 508.5 284.29817685547823 L 508.5 284.29817685547823 L 509.5 283.29817685547823 L 509.5 283.29817685547823 L 510.5 282.29817685547823 L 510.5 282.29817685547823 L 511.5 281.29817685547823 L 511.5 281.29817685547823 L 512.5 280.29817685547823 L 512.5 280.29817685547823 L 513.5 279.29817685547823 L 513.5 279.29817685547823 L 514.5 278.29817685547823 L 514.5 278.29817685547823 L 515.5 277.29817685547823 L 515.5 277.29817685547823 L 516.5 276.29817685547823 L 516.5 276.29817685547823 L 517.5 275.29817685547823 L 517.5 275.29817685547823 L 518.5 274.29817685547823 L 518.5 274.29817685547823 L 519.5 273.29817685547823 L 519.5 273.29817685547823 L 520.5 272.29817685547823 L 520.5 272.29817685547823 L 521.5 271.29817685547823 L 521.5 271.29817685547823 L 522.5 270.29817685547823 L 522.5 270.29817685547823 L 523.5 269.29817685547823 L 523.5 269.29817685547823 L 524.5 268.29817685547823 L 524.5 268.29817685547823 L 525.5 267.29817685547823 L 525.5 267.29817685547823 L 526.5 266.29817685547823 L 526.5 266.29817685547823 L 527.5 265.29817685547823 L 527.5 265.29817685547823 L 528.5 264.29817685547823 L 528.5 264.29817685547823 L 529.5 263.29817685547823 L 529.5 263.29817685547823 L 530.5 262.29817685547823 L 530.5 262.29817685547823 L 531.5 261.29817685547823 L 531.5 261.29817685547823 L 532.5 260.29817685547823 L 532.5 260.29817685547823 L 533.5 259.29817685547823 L 533.5 259.29817685547823 L 534.5 258.29817685547823 L 534.5 258.29817685547823 L 535.5 257.29817685547823 L 535.5 257.29817685547823 L 536.5 256.29817685547823 L 536.5 256.29817685547823 L 537.5 255.29817685547823 L 537.5 255.29817685547823 L 538.5 254.29817685547823 L 538.5 254.29817685547823 L 539.5 253.29817685547823 L 539.5 253.29817685547823 L 540.5 252.29817685547823 L 540.5 252.29817685547823 L 541.5 251.29817685547823 L 541.5 251.29817685547823 L 542.5 250.29817685547823 L 542.5 250.29817685547823 L 543.5 249.29817685547823 L 543.5 249.29817685547823 L 544.5 248.29817685547823 L 544.5 248.29817685547823 L 545.5 247.29817685547823 L 545.5 247.29817685547823 L 546.5 246.2981768554782 L 546.5 246.2981768554782 L 547.5 245.2981768554782 L 547.5 245.2981768554782 L 548.5 244.29817685547823 L 548.5 244.29817685547823 L 549.5 243.29817685547823 L 549.5 243.29817685547823 L 550.5 242.29817685547823 L 550.5 242.29817685547823 L 551.5 241.29817685547823 L 551.5 241.29817685547823 L 552.5 240.29817685547823 L 552.5 240.29817685547823 L 553.5 239.29817685547823 L 553.5 239.29817685547823 L 554.5 238.29817685547823 L 554.5 238.29817685547823 L 555.5 237.29817685547823 L 555.5 237.29817685547823 L 556.5 236.29817685547823 L 556.5 236.29817685547823 L 557.5 235.29817685547826 L 557.5 235.29817685547826 L 558.5 234.29817685547826 L 558.5 234.29817685547826 L 559.5 233.29817685547823 L 559.5 233.29817685547823 L 560.5 232.29817685547823 L 560.5 232.29817685547823 L 561.5 231.29817685547823 L 561.5 231.29817685547823 L 562.5 230.29817685547823 L 562.5 230.29817685547823 L 563.5 229.29817685547823 L 563.5 229.29817685547823 L 564.5 228.29817685547823 L 564.5 228.29817685547823 L 565.5 227.29817685547823 L 565.5 227.29817685547823 L 566.5 226.29817685547823 L 566.5 226.29817685547823 L 567.5 225.29817685547823 L 567.5 225.29817685547823 L 568.5 224.2981768554782 L 568.5 224.2981768554782 L 569.5 223.2981768554782 L 569.5 223.2981768554782 L 570.5 222.2981768554782 L 570.5 222.2981768554782 L 571.5 221.2981768554782 L 571.5 221.2981768554782 L 572.5 220.29817685547823 L 572.5 220.29817685547823 L 573.5 219.29817685547823 L 573.5 219.29817685547823 L 574.5 218.29817685547823 L 574.5 218.29817685547823 L 575.5 217.29817685547823 L 575.5 217.29817685547823 L 576.5 216.29817685547823 L 576.5 216.29817685547823 L 577.5 215.29817685547826 L 577.5 215.29817685547826 L 578.5 214.29817685547826 L 578.5 214.29817685547826 L 579.5 213.29817685547826 L 579.5 213.29817685547826 L 580.5 212.29817685547826 L 580.5 212.29817685547826 L 581.5 211.29817685547823 L 581.5 211.29817685547823 L 582.5 210.29817685547823 L 582.5 210.29817685547823 L 583.5 209.29817685547823 L 583.5 209.29817685547823 L 584.5 208.29817685547823 L 584.5 208.29817685547823 L 585.5 207.29817685547823 L 585.5 207.29817685547823 L 586.5 206.29817685547823 L 586.5 206.29817685547823 L 587.5 205.29817685547823 L 587.5 205.29817685547823 L 588.5 204.29817685547823 L 588.5 204.29817685547823 L 589.5 203.29817685547823 L 589.5 203.29817685547823 L 590.5 202.2981768554782 L 590.5 202.2981768554782 L 591.5 201.2981768554782 L 591.5 201.2981768554782 L 592.5 200.2981768554782 L 592.5 200.2981768554782 L 593.5 199.2981768554782 L 593.5 199.2981768554782 L 594.5 198.29817685547823 L 594.5 198.29817685547823 L 595.5 197.29817685547823 L 595.5 197.29817685547823 L 596.5 196.29817685547823 L 596.5 196.29817685547823 L 597.5 195.29817685547823 L 597.5 195.29817685547823 L 598.5 194.29817685547823 L 598.5 194.29817685547823 L 599.5 193.29817685547823 L 599.5 193.29817685547823 L 600.5 192.29817685547826 L 600.5 192.29817685547826 L 601.5 191.29817685547826 L 601.5 191.29817685547826 L 602.5 190.29817685547826 L 602.5 190.29817685547826 L 603.5 189.29817685547823 L 603.5 189.29817685547823 L 604.5 188.29817685547823 L 604.5 188.29817685547823 L 605.5 187.29817685547823 L 605.5 187.29817685547823 L 606.5 186.29817685547823 L 606.5 186.29817685547823 L 607.5 185.29817685547823 L 607.5 185.29817685547823 L 608.5 184.29817685547823 L 608.5 184.29817685547823 L 609.5 183.29817685547823 L 609.5 183.29817685547823 L 610.5 182.29817685547823 L 610.5 182.29817685547823 L 611.5 181.29817685547823 L 611.5 181.29817685547823 L 612.5 180.2981768554782 L 612.5 180.2981768554782 L 613.5 179.2981768554782 L 613.5 179.2981768554782 L 614.5 178.2981768554782 L 614.5 178.2981768554782 L 615.5 177.2981768554782 L 615.5 177.2981768554782 L 616.5 176.2981768554783 L 616.5 176.2981768554783 L 617.5 175.2981768554782 L 617.5 175.2981768554782 L 618.5 174.29817685547826 L 618.5 174.29817685547826 L 619.5 173.2981768554782 L 619.5 173.2981768554782 L 620.5 172.29817685547826 L 620.5 172.29817685547826 L 621.5 171.29817685547818 L 621.5 171.29817685547818 L 622.5 170.29817685547823 L 622.5 170.29817685547823 L 623.5 169.29817685547823 L 623.5 169.29817685547823 L 624.5 168.29817685547823 L 624.5 168.29817685547823 L 625.5 167.29817685547823 L 625.5 167.29817685547823 L 626.5 166.29817685547823 L 626.5 166.29817685547823 L 627.5 165.29817685547823 L 627.5 165.29817685547823 L 628.5 164.29817685547823 L 628.5 164.29817685547823 L 629.5 163.29817685547823 L 629.5 163.29817685547823 L 630.5 162.29817685547823 L 630.5 162.29817685547823 L 631.5 161.29817685547823 L 631.5 161.29817685547823 L 632.5 160.29817685547823 L 632.5 160.29817685547823 L 633.5 159.29817685547823 L 633.5 159.29817685547823 L 634.5 158.29817685547823 L 634.5 158.29817685547823 L 635.5 157.29817685547823 L 635.5 157.29817685547823 L 636.5 156.29817685547823 L 636.5 156.29817685547823 L 637.5 155.29817685547823 L 637.5 155.29817685547823 L 638.5 154.29817685547818 L 638.5 154.29817685547818 L 639.5 153.2981768554783 L 639.5 153.2981768554783 L 640.5 152.29817685547818 L 640.5 152.29817685547818 L 641.5 151.2981768554783 L 641.5 151.2981768554783 L 642.5 150.29817685547818 L 642.5 150.29817685547818 L 643.5 149.29817685547823 L 643.5 149.29817685547823 L 644.5 148.29817685547818 L 644.5 148.29817685547818 L 645.5 147.29817685547823 L 645.5 147.29817685547823 L 646.5 146.29817685547818 L 646.5 146.29817685547818 L 647.5 145.29817685547823 L 647.5 145.29817685547823 L 648.5 144.29817685547823 L 648.5 144.29817685547823 L 649.5 143.29817685547823 L 649.5 143.29817685547823 L 650.5 142.29817685547823 L 650.5 142.29817685547823 L 651.5 141.29817685547823 L 651.5 141.29817685547823 L 652.5 140.29817685547823 L 652.5 140.29817685547823 L 653.5 139.29817685547823 L 653.5 139.29817685547823 L 654.5 138.29817685547823 L 654.5 138.29817685547823 L 655.5 137.29817685547823 L 655.5 137.29817685547823 L 656.5 136.29817685547823 L 656.5 136.29817685547823 L 657.5 135.29817685547823 L 657.5 135.29817685547823 L 658.5 134.2981768554783 L 658.5 134.2981768554783 L 659.5 133.29817685547823 L 659.5 133.29817685547823 L 660.5 132.2981768554783 L 660.5 132.2981768554783 L 661.5 131.29817685547818 L 661.5 131.29817685547818 L 662.5 130.2981768554783 L 662.5 130.2981768554783 L 663.5 129.29817685547818 L 663.5 129.29817685547818 L 664.5 128.2981768554783 L 664.5 128.2981768554783 L 665.5 127.29817685547818 L 665.5 127.29817685547818 L 666.5 126.29817685547823 L 666.5 126.29817685547823 L 667.5 125.29817685547818 L 667.5 125.29817685547818 L 668.5 124.29817685547823 L 668.5 124.29817685547823 L 669.5 123.29817685547823 L 669.5 123.29817685547823 L 670.5 122.29817685547823 L 670.5 122.29817685547823 L 671.5 121.29817685547823 L 671.5 121.29817685547823 L 672.5 120.29817685547823 L 672.5 120.29817685547823 L 673.5 119.29817685547823 L 673.5 119.29817685547823 L 674.5 118.29817685547823 L 674.5 118.29817685547823 L 675.5 117.29817685547823 L 675.5 117.29817685547823 L 676.5 116.29817685547823 L 676.5 116.29817685547823 L 677.5 115.29817685547823 L 677.5 115.29817685547823 L 678.5 114.29817685547823 L 678.5 114.29817685547823 L 679.5 113.29817685547823 L 679.5 113.29817685547823 L 680.5 112.29817685547823 L 680.5 112.29817685547823 L 681.5 111.29817685547829 L 681.5 111.29817685547829 L 682.5 110.29817685547818 L 682.5 110.29817685547818 L 683.5 109.29817685547829 L 683.5 109.29817685547829 L 684.5 108.29817685547818 L 684.5 108.29817685547818 L 685.5 107.29817685547829 L 685.5 107.29817685547829 L 686.5 106.29817685547818 L 686.5 106.29817685547818 L 687.5 105.29817685547823 L 687.5 105.29817685547823 L 688.5 104.29817685547818 L 688.5 104.29817685547818 L 689.5 103.29817685547823 L 689.5 103.29817685547823 L 690.5 102.29817685547818 L 690.5 102.29817685547818 L 691.5 101.29817685547823 L 691.5 101.29817685547823 L 692.5 100.29817685547823 L 692.5 100.29817685547823 L 693.5 99.29817685547823 L 693.5 99.29817685547823 L 694.5 98.29817685547823 L 694.5 98.29817685547823 L 695.5 97.29817685547823 L 695.5 97.29817685547823 L 696.5 96.29817685547823 L 696.5 96.29817685547823 L 697.5 95.29817685547823 L 697.5 95.29817685547823 L 698.5 94.29817685547823 L 698.5 94.29817685547823 L 699.5 93.29817685547823 L 699.5 93.29817685547823 L 700.5 92.29817685547823 L 700.5 92.29817685547823 L 701.5 91.29817685547823 L 701.5 91.29817685547823 L 702.5 90.29817685547823 L 702.5 90.29817685547823 L 703.5 89.29817685547823 L 703.5 89.29817685547823 L 704.5 88.29817685547829 L 704.5 88.29817685547829 L 705.5 87.29817685547818 L 705.5 87.29817685547818 L 706.5 86.29817685547829 L 706.5 86.29817685547829 L 707.5 85.29817685547818 L 707.5 85.29817685547818 L 708.5 84.29817685547829 L 708.5 84.29817685547829 L 709.5 83.29817685547818 L 709.5 83.29817685547818 L 710.5 82.29817685547823 L 710.5 82.29817685547823 L 711.5 81.29817685547818 L 711.5 81.29817685547818 L 712.5 80.29817685547823 L 712.5 80.29817685547823 L 713.5 79.29817685547818 L 713.5 79.29817685547818 L 714.5 78.29817685547823 L 714.5 78.29817685547823 L 715.5 77.29817685547823 L 715.5 77.29817685547823 L 716.5 76.29817685547823 L 716.5 76.29817685547823 L 717.5 75.29817685547823 L 717.5 75.29817685547823 L 718.5 74.29817685547823 L 718.5 74.29817685547823 L 719.5 73.29817685547823 L 719.5 73.29817685547823 L 720.5 72.29817685547823 L 720.5 72.29817685547823 L 721.5 71.29817685547823 L 721.5 71.29817685547823 L 722.5 70.29817685547823 L 722.5 70.29817685547823 L 723.5 69.29817685547823 L 723.5 69.29817685547823 L 724.5 68.29817685547823 L 724.5 68.29817685547823 L 725.5 67.29817685547829 L 725.5 67.29817685547829 L 726.5 66.29817685547818 L 726.5 66.29817685547818 L 727.5 65.29817685547829 L 727.5 65.29817685547829 L 728.5 64.29817685547818 L 728.5 64.29817685547818 L 729.5 63.29817685547829 L 729.5 63.29817685547829 L 730.5 62.298176855478175 L 730.5 62.298176855478175 L 731.5 61.29817685547823 L 731.5 61.29817685547823 L 732.5 60.298176855478175 L 732.5 60.298176855478175 L 733.5 59.29817685547823 L 733.5 59.29817685547823 L 734.5 58.298176855478175 L 734.5 58.298176855478175 L 735.5 57.29817685547823 L 735.5 57.29817685547823 L 736.5 56.29817685547823 L 736.5 56.29817685547823 L 737.5 55.29817685547823 L 737.5 55.29817685547823 L 738.5 54.29817685547823 L 738.5 54.29817685547823 L 739.5 53.29817685547823 L 739.5 53.29817685547823 L 740.5 52.29817685547823 L 740.5 52.29817685547823 L 741.5 51.29817685547823 L 741.5 51.29817685547823 L 742.5 50.29817685547823 L 742.5 50.29817685547823 L 743.5 49.29817685547823 L 743.5 49.29817685547823 L 744.5 48.29817685547823 L 744.5 48.29817685547823 L 745.5 47.29817685547823 L 745.5 47.29817685547823 L 746.5 46.29817685547823 L 746.5 46.29817685547823 L 747.5 45.29817685547823 L 747.5 45.29817685547823 L 748.5 44.29817685547829 L 748.5 44.29817685547829 L 749.5 43.298176855478175 L 749.5 43.298176855478175 L 750.5 42.29817685547829 L 750.5 42.29817685547829 L 751.5 41.298176855478175 L 751.5 41.298176855478175 L 752.5 40.29817685547829 L 752.5 40.29817685547829 L 753.5 39.298176855478175 L 753.5 39.298176855478175 L 754.5 38.29817685547823 L 754.5 38.29817685547823 L 755.5 37.298176855478175 L 755.5 37.298176855478175 L 756.5 36.29817685547823 L 756.5 36.29817685547823 L 757.5 35.298176855478175 L 757.5 35.298176855478175 L 758.5 34.29817685547823 L 758.5 34.29817685547823 L 759.5 33.29817685547823 L 759.5 33.29817685547823 L 760.5 32.29817685547823 L 760.5 32.29817685547823 L 761.5 31.298176855478232 L 761.5 31.298176855478232 L 762.5 30.298176855478232 L 762.5 30.298176855478232 L 763.5 29.298176855478232 L 763.5 29.298176855478232 L 764.5 28.298176855478232 L 764.5 28.298176855478232 L 765.5 27.298176855478232 L 765.5 27.298176855478232 L 766.5 26.298176855478232 L 766.5 26.298176855478232 L 767.5 25.298176855478232 L 767.5 25.298176855478232 L 768.5 24.298176855478232 L 768.5 24.298176855478232 L 769.5 23.29817685547829 L 769.5 23.29817685547829 L 770.5 22.298176855478175 L 770.5 22.298176855478175 L 771.5 21.29817685547829 L 771.5 21.29817685547829 L 772.5 20.298176855478175 L 772.5 20.298176855478175 L 773.5 19.29817685547829 L 773.5 19.29817685547829 L 774.5 18.298176855478175 L 774.5 18.298176855478175 L 775.5 17.298176855478232 L 775.5 17.298176855478232 L 776.5 16.298176855478175 L 776.5 16.298176855478175 L 777.5 15.298176855478232 L 777.5 15.298176855478232 L 778.5 14.298176855478175 L 778.5 14.298176855478175 L 779.5 13.298176855478232 L 779.5 13.298176855478232 L 780.5 12.298176855478175 L 780.5 12.298176855478175 L 781.5 11.298176855478232 L 781.5 11.298176855478232 L 782.5 10.298176855478232 L 782.5 10.298176855478232 L 783.5 9.298176855478232 L 783.5 9.298176855478232 L 784.5 8.298176855478232 L 784.5 8.298176855478232 L 785.5 7.298176855478232 L 785.5 7.298176855478232 L 786.5 6.298176855478232 L 786.5 6.298176855478232 L 787.5 5.298176855478232 L 787.5 5.298176855478232 L 788.5 4.298176855478232 L 788.5 4.298176855478232 L 789.5 3.298176855478232 L 789.5 3.298176855478232 L 790.5 2.298176855478232 L 790.5 2.298176855478232 L 791.5 1.298176855478232 L 791.5 1.298176855478232 L 792.5 0.29817685547828887 L 792.5 0.29817685547828887 L 793.5 -0.7018231445218248 L 793.5 -0.7018231445218248 L 794.5 -1.7018231445217111 L 794.5 -1.7018231445217111 L 795.5 -2.701823144521825 L 795.5 -2.701823144521825 L 796.5 -3.701823144521711 L 796.5 -3.701823144521711 L 797.5 -4.701823144521825 L 797.5 -4.701823144521825 L 798.5 -5.701823144521768 L 798.5 -5.701823144521768 L 799.5 -6.701823144521825 L 799.5 -6.701823144521825 L 800.5 -7.701823144521768 L 800.5 -7.701823144521768 L 801.5 -8.701823144521825 L 801.5 -8.701823144521825 L 802.5 -9.701823144521768 L 802.5 -9.701823144521768 L 803.5 -10.701823144521768 L 803.5 -10.701823144521768 L 804.5 -11.701823144521768 L 804.5 -11.701823144521768 L 805.5 -12.701823144521768 L 805.5 -12.701823144521768 L 806.5 -13.701823144521768 L 806.5 -13.701823144521768 L 807.5 -14.701823144521768 L 807.5 -14.701823144521768 L 808.5 -15.701823144521768 L 808.5 -15.701823144521768 L 809.5 -16.701823144521768 L 809.5 -16.701823144521768 L 810.5 -17.701823144521768 L 810.5 -17.701823144521768 L 811.5 -18.701823144521768 L 811.5 -18.701823144521768 L 812.5 -19.701823144521768 L 812.5 -19.701823144521768 L 813.5 -20.701823144521768 L 813.5 -20.701823144521768 L 814.5 -21.701823144521825 L 814.5 -21.701823144521825 L 815.5 -22.701823144521825 L 815.5 -22.701823144521825 L 816.5 -23.701823144521825 L 816.5 -23.701823144521825 L 817.5 -24.701823144521825 L 817.5 -24.701823144521825 L 818.5 -25.701823144521825 L 818.5 -25.701823144521825 L 819.5 -26.701823144521825 L 819.5 -26.701823144521825 L 820.5 -27.701823144521768 L 820.5 -27.701823144521768 L 821.5 -28.701823144521768 L 821.5 -28.701823144521768 L 822.5 -29.701823144521768 L 822.5 -29.701823144521768 L 823.5 -30.701823144521768 L 823.5 -30.701823144521768 L 824.5 -31.701823144521768 L 824.5 -31.701823144521768 L 825.5 -32.70182314452177 L 825.5 -32.70182314452177 L 826.5 -33.70182314452177 L 826.5 -33.70182314452177 L 827.5 -34.70182314452177 L 827.5 -34.70182314452177 L 828.5 -35.70182314452177 L 828.5 -35.70182314452177 L 829.5 -36.70182314452177 L 829.5 -36.70182314452177 L 830.5 -37.70182314452177 L 830.5 -37.70182314452177 L 831.5 -38.70182314452177 L 831.5 -38.70182314452177 L 832.5 -39.70182314452177 L 832.5 -39.70182314452177 L 833.5 -40.70182314452177 L 833.5 -40.70182314452177 L 834.5 -41.70182314452177 L 834.5 -41.70182314452177 L 835.5 -42.70182314452177 L 835.5 -42.70182314452177 L 836.5 -43.701823144521825 L 836.5 -43.701823144521825 L 837.5 -44.701823144521825 L 837.5 -44.701823144521825 L 838.5 -45.701823144521825 L 838.5 -45.701823144521825 L 839.5 -46.701823144521825 L 839.5 -46.701823144521825 L 840.5 -47.701823144521825 L 840.5 -47.701823144521825 L 841.5 -48.701823144521825 L 841.5 -48.701823144521825 L 842.5 -49.70182314452177 L 842.5 -49.70182314452177 L 843.5 -50.70182314452177 L 843.5 -50.70182314452177 L 844.5 -51.70182314452177 L 844.5 -51.70182314452177 L 845.5 -52.70182314452177 L 845.5 -52.70182314452177 L 846.5 -53.70182314452177 L 846.5 -53.70182314452177 L 847.5 -54.70182314452177 L 847.5 -54.70182314452177 L 848.5 -55.70182314452177 L 848.5 -55.70182314452177 L 849.5 -56.70182314452177 L 849.5 -56.70182314452177 L 850.5 -57.70182314452177 L 850.5 -57.70182314452177 L 851.5 -58.70182314452177 L 851.5 -58.70182314452177 L 852.5 -59.70182314452177 L 852.5 -59.70182314452177 L 853.5 -60.70182314452177 L 853.5 -60.70182314452177 L 854.5 -61.70182314452177 L 854.5 -61.70182314452177 L 855.5 -62.70182314452177 L 855.5 -62.70182314452177 L 856.5 -63.70182314452177 L 856.5 -63.70182314452177 L 857.5 -64.70182314452177 L 857.5 -64.70182314452177 L 858.5 -65.70182314452182 L 858.5 -65.70182314452182 L 859.5 -66.70182314452182 L 859.5 -66.70182314452182 L 860.5 -67.70182314452182 L 860.5 -67.70182314452182 L 861.5 -68.70182314452182 L 861.5 -68.70182314452182 L 862.5 -69.70182314452182 L 862.5 -69.70182314452182 L 863.5 -70.70182314452182 L 863.5 -70.70182314452182 L 864.5 -71.70182314452177 L 864.5 -71.70182314452177 L 865.5 -72.70182314452177 L 865.5 -72.70182314452177 L 866.5 -73.70182314452177 L 866.5 -73.70182314452177 L 867.5 -74.70182314452177 L 867.5 -74.70182314452177 L 868.5 -75.70182314452177 L 868.5 -75.70182314452177 L 869.5 -76.70182314452177 L 869.5 -76.70182314452177 L 870.5 -77.70182314452177 L 870.5 -77.70182314452177 L 871.5 -78.70182314452177 L 871.5 -78.70182314452177 L 872.5 -79.70182314452177 L 872.5 -79.70182314452177 L 873.5 -80.70182314452177 L 873.5 -80.70182314452177 L 874.5 -81.70182314452177 L 874.5 -81.70182314452177 L 875.5 -82.70182314452177 L 875.5 -82.70182314452177 L 876.5 -83.70182314452177 L 876.5 -83.70182314452177 L 877.5 -84.70182314452182 L 877.5 -84.70182314452182 L 878.5 -85.70182314452182 L 878.5 -85.70182314452182 L 879.5 -86.70182314452182 L 879.5 -86.70182314452182 L 880.5 -87.70182314452182 L 880.5 -87.70182314452182 L 881.5 -88.70182314452182 L 881.5 -88.70182314452182 L 882.5 -89.70182314452182 L 882.5 -89.70182314452182 L 883.5 -90.70182314452182 L 883.5 -90.70182314452182 L 884.5 -91.70182314452182 L 884.5 -91.70182314452182 L 885.5 -92.70182314452182 L 885.5 -92.70182314452182 L 886.5 -93.70182314452171 L 886.5 -93.70182314452171 L 887.5 -94.70182314452171 L 887.5 -94.70182314452171 L 888.5 -95.70182314452171 L 888.5 -95.70182314452171 L 889.5 -96.70182314452171 L 889.5 -96.70182314452171 L 890.5 -97.70182314452171 L 890.5 -97.70182314452171 L 891.5 -98.70182314452171 L 891.5 -98.70182314452171 L 892.5 -99.70182314452171 L 892.5 -99.70182314452171 L 893.5 -100.70182314452182 L 893.5 -100.70182314452182 L 894.5 -101.70182314452182 L 894.5 -101.70182314452182 L 895.5 -102.70182314452182 L 895.5 -102.70182314452182 L 896.5 -103.70182314452182 L 896.5 -103.70182314452182 L 897.5 -104.70182314452182 L 897.5 -104.70182314452182 L 898.5 -105.70182314452182 L 898.5 -105.70182314452182 L 899.5 -106.70182314452182 L 899.5 -106.70182314452182 L 900.5 -107.70182314452182 L 900.5 -107.70182314452182 L 901.5 -108.70182314452182 L 901.5 -108.70182314452182 L 902.5 -109.70182314452182 L 902.5 -109.70182314452182 L 903.5 -110.70182314452182 L 903.5 -110.70182314452182 L 904.5 -111.70182314452182 L 904.5 -111.70182314452182 L 905.5 -112.70182314452182 L 905.5 -112.70182314452182 L 906.5 -113.70182314452182 L 906.5 -113.70182314452182 L 907.5 -114.70182314452182 L 907.5 -114.70182314452182 L 908.5 -115.70182314452182 L 908.5 -115.70182314452182 L 909.5 -116.70182314452171 L 909.5 -116.70182314452171 L 910.5 -117.70182314452171 L 910.5 -117.70182314452171 L 911.5 -118.70182314452171 L 911.5 -118.70182314452171 L 912.5 -119.70182314452171 L 912.5 -119.70182314452171 L 913.5 -120.70182314452171 L 913.5 -120.70182314452171 L 914.5 -121.70182314452171 L 914.5 -121.70182314452171 L 915.5 -122.70182314452182 L 915.5 -122.70182314452182 L 916.5 -123.70182314452182 L 916.5 -123.70182314452182 L 917.5 -124.70182314452182 L 917.5 -124.70182314452182 L 918.5 -125.70182314452182 L 918.5 -125.70182314452182 L 919.5 -126.70182314452182 L 919.5 -126.70182314452182 L 920.5 -127.70182314452182 L 920.5 -127.70182314452182 L 921.5 -128.70182314452182 L 921.5 -128.70182314452182 L 922.5 -129.70182314452182 L 922.5 -129.70182314452182 L 923.5 -130.70182314452182 L 923.5 -130.70182314452182 L 924.5 -131.70182314452182 L 924.5 -131.70182314452182 L 925.5 -132.70182314452182 L 925.5 -132.70182314452182 L 926.5 -133.70182314452182 L 926.5 -133.70182314452182 L 927.5 -134.70182314452182 L 927.5 -134.70182314452182 L 928.5 -135.70182314452182 L 928.5 -135.70182314452182 L 929.5 -136.70182314452182 L 929.5 -136.70182314452182 L 930.5 -137.70182314452182 L 930.5 -137.70182314452182 L 931.5 -138.7018231445217 L 931.5 -138.7018231445217 L 932.5 -139.7018231445217 L 932.5 -139.7018231445217 L 933.5 -140.7018231445217 L 933.5 -140.7018231445217 L 934.5 -141.7018231445217 L 934.5 -141.7018231445217 L 935.5 -142.7018231445217 L 935.5 -142.7018231445217 L 936.5 -143.7018231445217 L 936.5 -143.7018231445217 L 937.5 -144.70182314452182 L 937.5 -144.70182314452182 L 938.5 -145.70182314452182 L 938.5 -145.70182314452182 L 939.5 -146.70182314452182 L 939.5 -146.70182314452182 L 940.5 -147.70182314452182 L 940.5 -147.70182314452182 L 941.5 -148.70182314452182 L 941.5 -148.70182314452182 L 942.5 -149.70182314452182 L 942.5 -149.70182314452182 L 943.5 -150.70182314452182 L 943.5 -150.70182314452182 L 944.5 -151.70182314452182 L 944.5 -151.70182314452182 L 945.5 -152.70182314452182 L 945.5 -152.70182314452182 L 946.5 -153.70182314452182 L 946.5 -153.70182314452182 L 947.5 -154.70182314452182 L 947.5 -154.70182314452182 L 948.5 -155.70182314452182 L 948.5 -155.70182314452182 L 949.5 -156.7018231445217" stroke-opacity="0.5019607843137255" stroke-linejoin="round" stroke-miterlimit="10" stroke-width="3" stroke-dasharray="7,4"/><path fill="none" stroke="rgb(255,102,0)" paint-order="fill stroke markers" d=" M 282.3183147653044 510.4798620901738 L 285.44140625 507.35677060547823 M 285.44140625 507.35677060547823 L 289.1484375 503.64973935547823 M 289.1484375 503.64973935547823 L 292.85546875 499.94270810547823 L 296.5625 496.23567685547823 M 296.5625 496.23567685547823 L 300.26953125 492.52864560547823 L 303.9765625 488.82161435547823 L 307.68359375 485.11458310547823 L 311.390625 481.40755185547823 L 315.09765625 477.70052060547823 L 318.8046875 473.99348935547823 L 322.51171875 470.28645810547823 L 326.21875 466.57942685547823 L 329.92578125 462.87239560547823 L 333.6328125 459.16536435547823 L 337.33984375 455.45833310547823 L 341.046875 451.75130185547823 L 344.75390625 448.04427060547823 L 348.4609375 444.33723935547823 L 352.16796875 440.63020810547823 L 355.875 436.92317685547823 M 355.875 436.92317685547823 L 359.58203125 433.21614560547823 L 363.2890625 429.50911435547823 L 366.99609375 425.80208310547823 L 370.703125 422.09505185547823 L 374.41015625 418.38802060547823 L 378.1171875 414.68098935547823 L 381.82421875 410.97395810547823 L 385.53125 407.26692685547823 L 389.23828125 403.55989560547823 L 392.9453125 399.8528643554782 L 396.65234375 396.1458331054782 L 400.359375 392.43880185547823 L 404.06640625 388.73177060547823 L 407.7734375 385.02473935547823 L 411.48046875 381.31770810547823 L 415.1875 377.61067685547823 L 418.89453125 373.90364560547823 L 422.6015625 370.19661435547823 L 426.30859375 366.48958310547823 L 430.015625 362.7825518554782 L 433.72265625 359.07552060547823 L 437.4296875 355.36848935547823 L 441.13671875 351.66145810547823 L 444.84375 347.95442685547823 L 448.55078125 344.24739560547823 L 452.2578125 340.54036435547823 L 455.96484375 336.83333310547823 L 459.671875 333.12630185547823 L 463.37890625 329.41927060547823 L 467.0859375 325.7122393554782 L 470.79296875 322.0052081054782 L 474.5 318.29817685547823 M 474.5 318.29817685547823 L 478.20703125 314.59114560547823 L 481.9140625 310.88411435547823 L 485.62109375 307.17708310547823 L 489.328125 303.47005185547823 L 493.03515625 299.76302060547823 L 496.7421875 296.05598935547823 L 500.44921875 292.34895810547823 L 504.15625 288.6419268554782 L 507.86328125 284.93489560547823 L 511.5703125 281.22786435547823 L 515.27734375 277.52083310547823 L 518.984375 273.81380185547823 L 522.69140625 270.10677060547823 L 526.3984375 266.39973935547823 L 530.10546875 262.69270810547823 L 533.8125 258.98567685547823 M 533.8125 258.98567685547823 L 537.51953125 255.27864560547823 L 541.2265625 251.57161435547823 M 541.2265625 251.57161435547823 L 544.93359375 247.86458310547823 M 544.93359375 247.86458310547823 L 548.2152303697535 244.58294648572465" stroke-opacity="1" stroke-linecap="round" stroke-linejoin="round" stroke-miterlimit="10" stroke-width="5"/><path fill="none" stroke="rgb(192,192,192)" paint-order="fill stroke markers" d=" M 548.2152295388257 244.58294731665248 L 282.31831559623225 244.58294731665248" stroke-opacity="0.5019607843137255" stroke-linejoin="round" stroke-miterlimit="10" stroke-width="3" stroke-dasharray="7,4"/><path fill="none" stroke="rgb(192,192,192)" paint-order="fill stroke markers" d=" M 548.2152295388257 244.58294731665248 L 548.2152295388257 427.3870756521855" stroke-opacity="0.5019607843137255" stroke-linejoin="round" stroke-miterlimit="10" stroke-width="3" stroke-dasharray="7,4"/><path fill="rgb(255,102,0)" stroke="none" paint-order="stroke fill markers" d=" M 556.2152295388257 244.58294731665248 C 556.2152295388257 249.00122531529883 552.633507537472 252.58294731665248 548.2152295388257 252.58294731665248 C 543.7969515401794 252.58294731665248 540.2152295388257 249.00122531529883 540.2152295388257 244.58294731665248 C 540.2152295388257 240.16466931800613 543.7969515401794 236.58294731665248 548.2152295388257 236.58294731665248 C 552.633507537472 236.58294731665248 556.2152295388257 240.16466931800613 556.2152295388257 244.58294731665248 Z" fill-opacity="1"/><path fill="none" stroke="rgb(0,0,0)" paint-order="fill stroke markers" d=" M 556.2152295388257 244.58294731665248 C 556.2152295388257 249.00122531529883 552.633507537472 252.58294731665248 548.2152295388257 252.58294731665248 C 543.7969515401794 252.58294731665248 540.2152295388257 249.00122531529883 540.2152295388257 244.58294731665248 C 540.2152295388257 240.16466931800613 543.7969515401794 236.58294731665248 548.2152295388257 236.58294731665248 C 552.633507537472 236.58294731665248 556.2152295388257 240.16466931800613 556.2152295388257 244.58294731665248 Z" stroke-opacity="1" stroke-linecap="round" stroke-linejoin="round" stroke-miterlimit="10"/><path fill="rgb(255,102,0)" stroke="none" paint-order="stroke fill markers" d=" M 290.31831559623225 510.479861259246 C 290.31831559623225 514.8981392578924 286.7365935948786 518.479861259246 282.31831559623225 518.479861259246 C 277.9000375975859 518.479861259246 274.31831559623225 514.8981392578924 274.31831559623225 510.479861259246 C 274.31831559623225 506.0615832605996 277.9000375975859 502.479861259246 282.31831559623225 502.479861259246 C 286.7365935948786 502.479861259246 290.31831559623225 506.0615832605996 290.31831559623225 510.479861259246 Z" fill-opacity="1"/><path fill="none" stroke="rgb(0,0,0)" paint-order="fill stroke markers" d=" M 290.31831559623225 510.479861259246 C 290.31831559623225 514.8981392578924 286.7365935948786 518.479861259246 282.31831559623225 518.479861259246 C 277.9000375975859 518.479861259246 274.31831559623225 514.8981392578924 274.31831559623225 510.479861259246 C 274.31831559623225 506.0615832605996 277.9000375975859 502.479861259246 282.31831559623225 502.479861259246 C 286.7365935948786 502.479861259246 290.31831559623225 506.0615832605996 290.31831559623225 510.479861259246 Z" stroke-opacity="1" stroke-linecap="round" stroke-linejoin="round" stroke-miterlimit="10"/><path fill="rgb(255,255,255)" stroke="none" paint-order="stroke fill markers" d=" M 290.31831559623225 244.58294731665248 C 290.31831559623225 249.00122531529883 286.7365935948786 252.58294731665248 282.31831559623225 252.58294731665248 C 277.9000375975859 252.58294731665248 274.31831559623225 249.00122531529883 274.31831559623225 244.58294731665248 C 274.31831559623225 240.16466931800613 277.9000375975859 236.58294731665248 282.31831559623225 236.58294731665248 C 286.7365935948786 236.58294731665248 290.31831559623225 240.16466931800613 290.31831559623225 244.58294731665248 Z" fill-opacity="1"/><path fill="none" stroke="rgb(0,0,0)" paint-order="fill stroke markers" d=" M 290.31831559623225 244.58294731665248 C 290.31831559623225 249.00122531529883 286.7365935948786 252.58294731665248 282.31831559623225 252.58294731665248 C 277.9000375975859 252.58294731665248 274.31831559623225 249.00122531529883 274.31831559623225 244.58294731665248 C 274.31831559623225 240.16466931800613 277.9000375975859 236.58294731665248 282.31831559623225 236.58294731665248 C 286.7365935948786 236.58294731665248 290.31831559623225 240.16466931800613 290.31831559623225 244.58294731665248 Z" stroke-opacity="1" stroke-linecap="round" stroke-linejoin="round" stroke-miterlimit="10"/><path fill="rgb(255,255,255)" stroke="none" paint-order="stroke fill markers" d=" M 556.2152295388257 427.3870756521855 C 556.2152295388257 431.8053536508319 552.633507537472 435.3870756521855 548.2152295388257 435.3870756521855 C 543.7969515401794 435.3870756521855 540.2152295388257 431.8053536508319 540.2152295388257 427.3870756521855 C 540.2152295388257 422.9687976535391 543.7969515401794 419.3870756521855 548.2152295388257 419.3870756521855 C 552.633507537472 419.3870756521855 556.2152295388257 422.9687976535391 556.2152295388257 427.3870756521855 Z" fill-opacity="1"/><path fill="none" stroke="rgb(0,0,0)" paint-order="fill stroke markers" d=" M 556.2152295388257 427.3870756521855 C 556.2152295388257 431.8053536508319 552.633507537472 435.3870756521855 548.2152295388257 435.3870756521855 C 543.7969515401794 435.3870756521855 540.2152295388257 431.8053536508319 540.2152295388257 427.3870756521855 C 540.2152295388257 422.9687976535391 543.7969515401794 419.3870756521855 548.2152295388257 419.3870756521855 C 552.633507537472 419.3870756521855 556.2152295388257 422.9687976535391 556.2152295388257 427.3870756521855 Z" stroke-opacity="1" stroke-linecap="round" stroke-linejoin="round" stroke-miterlimit="10"/><g transform="scale(44,44)"><g transform="translate(6.204545454545454,1.7264545454545455)"><path fill="rgb(192,192,192)" stroke="none" paint-order="stroke fill markers" d=" M 0.468 -0.372 Q 0.468 -0.317 0.438 -0.218 Q 0.38 -0.024 0.277 0.006 Q 0.261 0.011 0.243 0.011 Q 0.152 0.011 0.122 -0.052000000000000005 Q 0.109 -0.078 0.109 -0.113 Q 0.109 -0.165 0.155 -0.289 L 0.166 -0.318 Q 0.183 -0.362 0.183 -0.388 Q 0.183 -0.42 0.158 -0.42 Q 0.10400000000000001 -0.42 0.069 -0.331 Q 0.062 -0.315 0.057 -0.296 Q 0.046 -0.279 0.041 -0.278 Q 0.029 -0.278 0.029 -0.28800000000000003 Q 0.029 -0.306 0.051000000000000004 -0.35100000000000003 Q 0.094 -0.442 0.161 -0.442 Q 0.214 -0.442 0.23500000000000001 -0.397 Q 0.243 -0.38 0.243 -0.36 Q 0.243 -0.339 0.231 -0.31 Q 0.177 -0.166 0.17300000000000001 -0.111 L 0.17300000000000001 -0.098 Q 0.17300000000000001 -0.018000000000000002 0.23700000000000002 -0.011 L 0.247 -0.011 Q 0.328 -0.011 0.387 -0.147 Q 0.422 -0.227 0.425 -0.28200000000000003 Q 0.425 -0.332 0.391 -0.364 Q 0.375 -0.38 0.375 -0.394 Q 0.375 -0.419 0.401 -0.435 Q 0.41200000000000003 -0.442 0.424 -0.442 Q 0.453 -0.442 0.464 -0.405 Q 0.468 -0.391 0.468 -0.372 Z"/></g></g><g transform="scale(44,44)"><g transform="translate(12.25,10.705909090909092)"><path fill="rgb(255,255,255)" stroke="none" paint-order="stroke fill markers" d=" M 0.20600000000000002 -0.4 L 0.132 -0.105 Q 0.126 -0.08 0.126 -0.057 Q 0.126 -0.011 0.157 -0.011 Q 0.223 -0.011 0.273 -0.108 L 0.28700000000000003 -0.139 Q 0.293 -0.152 0.302 -0.153 Q 0.314 -0.153 0.314 -0.14300000000000002 Q 0.314 -0.13 0.28800000000000003 -0.08600000000000001 Q 0.23 0.011 0.155 0.011 Q 0.097 0.011 0.073 -0.037 Q 0.063 -0.057 0.063 -0.081 Q 0.063 -0.1 0.124 -0.34 L 0.139 -0.4 L 0.051000000000000004 -0.4 Q 0.026000000000000002 -0.4 0.024 -0.40800000000000003 L 0.023 -0.40800000000000003 L 0.023 -0.41200000000000003 Q 0.023 -0.429 0.039 -0.431 L 0.053 -0.431 L 0.147 -0.431 L 0.186 -0.59 Q 0.195 -0.625 0.226 -0.626 Q 0.252 -0.626 0.255 -0.599 Q 0.255 -0.593 0.214 -0.431 L 0.302 -0.431 Q 0.328 -0.431 0.33 -0.42 Q 0.33 -0.402 0.314 -0.4 L 0.313 -0.4 L 0.3 -0.4 L 0.20600000000000002 -0.4 Z"/></g><g transform="translate(12.611,10.855909090909092) scale(0.7,0.7)"><path fill="rgb(255,255,255)" stroke="none" paint-order="stroke fill markers" d=" M 0.294 -0.64 L 0.294 -0.079 Q 0.294 -0.049 0.306 -0.041 Q 0.323 -0.031 0.387 -0.031 L 0.419 -0.031 L 0.419 0 Q 0.384 -0.003 0.257 -0.003 Q 0.13 -0.003 0.095 0 L 0.095 -0.031 L 0.127 -0.031 Q 0.20400000000000001 -0.031 0.215 -0.049 L 0.216 -0.05 Q 0.22 -0.058 0.22 -0.079 L 0.22 -0.597 Q 0.168 -0.5710000000000001 0.089 -0.5710000000000001 L 0.089 -0.602 Q 0.209 -0.602 0.271 -0.666 Q 0.29 -0.666 0.293 -0.659 L 0.293 -0.659 L 0.293 -0.658 Q 0.294 -0.655 0.294 -0.64 Z"/></g></g><g transform="scale(44,44)"><g transform="translate(6.681818181818182,15.189454545454545)"><path fill="rgb(255,255,255)" stroke="none" paint-order="stroke fill markers" d=" M 0.20600000000000002 -0.4 L 0.132 -0.105 Q 0.126 -0.08 0.126 -0.057 Q 0.126 -0.011 0.157 -0.011 Q 0.223 -0.011 0.273 -0.108 L 0.28700000000000003 -0.139 Q 0.293 -0.152 0.302 -0.153 Q 0.314 -0.153 0.314 -0.14300000000000002 Q 0.314 -0.13 0.28800000000000003 -0.08600000000000001 Q 0.23 0.011 0.155 0.011 Q 0.097 0.011 0.073 -0.037 Q 0.063 -0.057 0.063 -0.081 Q 0.063 -0.1 0.124 -0.34 L 0.139 -0.4 L 0.051000000000000004 -0.4 Q 0.026000000000000002 -0.4 0.024 -0.40800000000000003 L 0.023 -0.40800000000000003 L 0.023 -0.41200000000000003 Q 0.023 -0.429 0.039 -0.431 L 0.053 -0.431 L 0.147 -0.431 L 0.186 -0.59 Q 0.195 -0.625 0.226 -0.626 Q 0.252 -0.626 0.255 -0.599 Q 0.255 -0.593 0.214 -0.431 L 0.302 -0.431 Q 0.328 -0.431 0.33 -0.42 Q 0.33 -0.402 0.314 -0.4 L 0.313 -0.4 L 0.3 -0.4 L 0.20600000000000002 -0.4 Z"/></g><g transform="translate(7.042818181818181,15.339454545454545) scale(0.7,0.7)"><path fill="rgb(255,255,255)" stroke="none" paint-order="stroke fill markers" d=" M 0.46 -0.32 Q 0.46 -0.17400000000000002 0.423 -0.094 Q 0.364 0.018000000000000002 0.249 0.022 Q 0.158 0.022 0.10300000000000001 -0.05 Q 0.092 -0.063 0.084 -0.079 Q 0.039 -0.162 0.039 -0.32 Q 0.039 -0.467 0.076 -0.547 Q 0.126 -0.659 0.23800000000000002 -0.666 L 0.25 -0.666 Q 0.339 -0.666 0.395 -0.595 L 0.395 -0.594 Q 0.40900000000000003 -0.5760000000000001 0.42 -0.554 Q 0.46 -0.46900000000000003 0.46 -0.32 M 0.249 0 L 0.249 0 Q 0.312 0 0.34600000000000003 -0.061 Q 0.36 -0.088 0.366 -0.125 Q 0.377 -0.189 0.377 -0.332 Q 0.377 -0.47100000000000003 0.367 -0.527 Q 0.34900000000000003 -0.622 0.275 -0.641 Q 0.262 -0.644 0.249 -0.644 Q 0.179 -0.644 0.147 -0.5740000000000001 Q 0.136 -0.55 0.13 -0.516 Q 0.122 -0.462 0.122 -0.332 Q 0.122 -0.181 0.133 -0.121 Q 0.151 -0.025 0.221 -0.004 Q 0.23500000000000001 0 0.249 0 Z"/></g><g transform="translate(7.67059595959596,15.189454545454545)"><path fill="rgb(255,255,255)" stroke="none" paint-order="stroke fill markers" d=" M 0.687 -0.327 L 0.09 -0.327 Q 0.058 -0.327 0.056 -0.34700000000000003 Q 0.056 -0.367 0.089 -0.367 L 0.6880000000000001 -0.367 Q 0.72 -0.367 0.721 -0.34700000000000003 Q 0.721 -0.327 0.687 -0.327 M 0.6880000000000001 -0.133 L 0.089 -0.133 Q 0.057 -0.133 0.056 -0.153 Q 0.056 -0.17300000000000001 0.09 -0.17300000000000001 L 0.687 -0.17300000000000001 Q 0.719 -0.17300000000000001 0.721 -0.153 Q 0.721 -0.133 0.6880000000000001 -0.133 Z"/></g><g transform="translate(8.726373737373738,15.189454545454545)"><path fill="rgb(255,255,255)" stroke="none" paint-order="stroke fill markers" d=" M 0.46 -0.32 Q 0.46 -0.17400000000000002 0.423 -0.094 Q 0.364 0.018000000000000002 0.249 0.022 Q 0.158 0.022 0.10300000000000001 -0.05 Q 0.092 -0.063 0.084 -0.079 Q 0.039 -0.162 0.039 -0.32 Q 0.039 -0.467 0.076 -0.547 Q 0.126 -0.659 0.23800000000000002 -0.666 L 0.25 -0.666 Q 0.339 -0.666 0.395 -0.595 L 0.395 -0.594 Q 0.40900000000000003 -0.5760000000000001 0.42 -0.554 Q 0.46 -0.46900000000000003 0.46 -0.32 M 0.249 0 L 0.249 0 Q 0.312 0 0.34600000000000003 -0.061 Q 0.36 -0.088 0.366 -0.125 Q 0.377 -0.189 0.377 -0.332 Q 0.377 -0.47100000000000003 0.367 -0.527 Q 0.34900000000000003 -0.622 0.275 -0.641 Q 0.262 -0.644 0.249 -0.644 Q 0.179 -0.644 0.147 -0.5740000000000001 Q 0.136 -0.55 0.13 -0.516 Q 0.122 -0.462 0.122 -0.332 Q 0.122 -0.181 0.133 -0.121 Q 0.151 -0.025 0.221 -0.004 Q 0.23500000000000001 0 0.249 0 Z"/></g></g><g transform="scale(44,44)"><g transform="translate(5.2272727272727275,11.61281818181818)"><path fill="rgb(255,255,255)" stroke="none" paint-order="stroke fill markers" d=" M 0.468 -0.372 Q 0.468 -0.317 0.438 -0.218 Q 0.38 -0.024 0.277 0.006 Q 0.261 0.011 0.243 0.011 Q 0.152 0.011 0.122 -0.052000000000000005 Q 0.109 -0.078 0.109 -0.113 Q 0.109 -0.165 0.155 -0.289 L 0.166 -0.318 Q 0.183 -0.362 0.183 -0.388 Q 0.183 -0.42 0.158 -0.42 Q 0.10400000000000001 -0.42 0.069 -0.331 Q 0.062 -0.315 0.057 -0.296 Q 0.046 -0.279 0.041 -0.278 Q 0.029 -0.278 0.029 -0.28800000000000003 Q 0.029 -0.306 0.051000000000000004 -0.35100000000000003 Q 0.094 -0.442 0.161 -0.442 Q 0.214 -0.442 0.23500000000000001 -0.397 Q 0.243 -0.38 0.243 -0.36 Q 0.243 -0.339 0.231 -0.31 Q 0.177 -0.166 0.17300000000000001 -0.111 L 0.17300000000000001 -0.098 Q 0.17300000000000001 -0.018000000000000002 0.23700000000000002 -0.011 L 0.247 -0.011 Q 0.328 -0.011 0.387 -0.147 Q 0.422 -0.227 0.425 -0.28200000000000003 Q 0.425 -0.332 0.391 -0.364 Q 0.375 -0.38 0.375 -0.394 Q 0.375 -0.419 0.401 -0.435 Q 0.41200000000000003 -0.442 0.424 -0.442 Q 0.453 -0.442 0.464 -0.405 Q 0.468 -0.391 0.468 -0.372 Z"/></g><g transform="translate(5.712272727272728,11.762818181818181) scale(0.7,0.7)"><path fill="rgb(255,255,255)" stroke="none" paint-order="stroke fill markers" d=" M 0.46 -0.32 Q 0.46 -0.17400000000000002 0.423 -0.094 Q 0.364 0.018000000000000002 0.249 0.022 Q 0.158 0.022 0.10300000000000001 -0.05 Q 0.092 -0.063 0.084 -0.079 Q 0.039 -0.162 0.039 -0.32 Q 0.039 -0.467 0.076 -0.547 Q 0.126 -0.659 0.23800000000000002 -0.666 L 0.25 -0.666 Q 0.339 -0.666 0.395 -0.595 L 0.395 -0.594 Q 0.40900000000000003 -0.5760000000000001 0.42 -0.554 Q 0.46 -0.46900000000000003 0.46 -0.32 M 0.249 0 L 0.249 0 Q 0.312 0 0.34600000000000003 -0.061 Q 0.36 -0.088 0.366 -0.125 Q 0.377 -0.189 0.377 -0.332 Q 0.377 -0.47100000000000003 0.367 -0.527 Q 0.34900000000000003 -0.622 0.275 -0.641 Q 0.262 -0.644 0.249 -0.644 Q 0.179 -0.644 0.147 -0.5740000000000001 Q 0.136 -0.55 0.13 -0.516 Q 0.122 -0.462 0.122 -0.332 Q 0.122 -0.181 0.133 -0.121 Q 0.151 -0.025 0.221 -0.004 Q 0.23500000000000001 0 0.249 0 Z"/></g></g><g transform="scale(44,44)"><g transform="translate(5.2727272727272725,5.681)"><path fill="rgb(255,255,255)" stroke="none" paint-order="stroke fill markers" d=" M 0.468 -0.372 Q 0.468 -0.317 0.438 -0.218 Q 0.38 -0.024 0.277 0.006 Q 0.261 0.011 0.243 0.011 Q 0.152 0.011 0.122 -0.052000000000000005 Q 0.109 -0.078 0.109 -0.113 Q 0.109 -0.165 0.155 -0.289 L 0.166 -0.318 Q 0.183 -0.362 0.183 -0.388 Q 0.183 -0.42 0.158 -0.42 Q 0.10400000000000001 -0.42 0.069 -0.331 Q 0.062 -0.315 0.057 -0.296 Q 0.046 -0.279 0.041 -0.278 Q 0.029 -0.278 0.029 -0.28800000000000003 Q 0.029 -0.306 0.051000000000000004 -0.35100000000000003 Q 0.094 -0.442 0.161 -0.442 Q 0.214 -0.442 0.23500000000000001 -0.397 Q 0.243 -0.38 0.243 -0.36 Q 0.243 -0.339 0.231 -0.31 Q 0.177 -0.166 0.17300000000000001 -0.111 L 0.17300000000000001 -0.098 Q 0.17300000000000001 -0.018000000000000002 0.23700000000000002 -0.011 L 0.247 -0.011 Q 0.328 -0.011 0.387 -0.147 Q 0.422 -0.227 0.425 -0.28200000000000003 Q 0.425 -0.332 0.391 -0.364 Q 0.375 -0.38 0.375 -0.394 Q 0.375 -0.419 0.401 -0.435 Q 0.41200000000000003 -0.442 0.424 -0.442 Q 0.453 -0.442 0.464 -0.405 Q 0.468 -0.391 0.468 -0.372 Z"/></g><g transform="translate(5.757727272727273,5.831) scale(0.7,0.7)"><path fill="rgb(255,255,255)" stroke="none" paint-order="stroke fill markers" d=" M 0.294 -0.64 L 0.294 -0.079 Q 0.294 -0.049 0.306 -0.041 Q 0.323 -0.031 0.387 -0.031 L 0.419 -0.031 L 0.419 0 Q 0.384 -0.003 0.257 -0.003 Q 0.13 -0.003 0.095 0 L 0.095 -0.031 L 0.127 -0.031 Q 0.20400000000000001 -0.031 0.215 -0.049 L 0.216 -0.05 Q 0.22 -0.058 0.22 -0.079 L 0.22 -0.597 Q 0.168 -0.5710000000000001 0.089 -0.5710000000000001 L 0.089 -0.602 Q 0.209 -0.602 0.271 -0.666 Q 0.29 -0.666 0.293 -0.659 L 0.293 -0.659 L 0.293 -0.658 Q 0.294 -0.655 0.294 -0.64 Z"/></g></g><g transform="scale(25,25)"><g transform="translate(11.6478206724752,4.871)"><path fill="rgb(192,192,192)" stroke="none" paint-order="stroke fill markers" d=" M 0.088 -0.059000000000000004 L 0.088 -0.059000000000000004 L 0.146 -0.29 Q 0.162 -0.354 0.162 -0.374 Q 0.162 -0.42 0.131 -0.42 Q 0.09 -0.42 0.064 -0.325 Q 0.061 -0.314 0.058 -0.301 Q 0.047 -0.279 0.041 -0.278 Q 0.029 -0.278 0.029 -0.28800000000000003 Q 0.029 -0.304 0.048 -0.356 Q 0.054 -0.373 0.06 -0.385 Q 0.084 -0.434 0.12 -0.441 Q 0.127 -0.442 0.134 -0.442 Q 0.188 -0.442 0.214 -0.397 Q 0.224 -0.378 0.226 -0.355 Q 0.29 -0.442 0.382 -0.442 Q 0.433 -0.442 0.464 -0.41600000000000004 Q 0.492 -0.392 0.496 -0.34500000000000003 Q 0.5640000000000001 -0.442 0.659 -0.442 Q 0.748 -0.442 0.769 -0.373 L 0.769 -0.372 Q 0.774 -0.355 0.774 -0.335 Q 0.774 -0.28200000000000003 0.713 -0.115 Q 0.6950000000000001 -0.07100000000000001 0.6950000000000001 -0.044 Q 0.6950000000000001 -0.011 0.719 -0.011 Q 0.781 -0.011 0.8170000000000001 -0.121 L 0.8210000000000001 -0.135 Q 0.8260000000000001 -0.151 0.8310000000000001 -0.152 L 0.8310000000000001 -0.153 L 0.836 -0.153 Q 0.848 -0.153 0.848 -0.14300000000000002 Q 0.848 -0.126 0.8270000000000001 -0.08 Q 0.784 0.011 0.717 0.011 Q 0.666 0.011 0.644 -0.032 Q 0.635 -0.05 0.635 -0.07100000000000001 Q 0.635 -0.091 0.648 -0.126 Q 0.71 -0.29 0.71 -0.35000000000000003 Q 0.71 -0.42 0.656 -0.42 Q 0.5680000000000001 -0.42 0.51 -0.325 Q 0.494 -0.3 0.491 -0.28700000000000003 Q 0.488 -0.274 0.431 -0.046 Q 0.42 -0.003 0.406 0.006 L 0.405 0.007 L 0.404 0.007 Q 0.397 0.011 0.386 0.011 Q 0.361 0.006 0.357 -0.016 L 0.37 -0.075 L 0.39 -0.151 L 0.418 -0.267 Q 0.433 -0.323 0.433 -0.35000000000000003 Q 0.433 -0.42 0.379 -0.42 Q 0.289 -0.42 0.228 -0.32 Q 0.221 -0.309 0.216 -0.298 L 0.203 -0.248 Q 0.198 -0.225 0.186 -0.181 L 0.164 -0.091 Q 0.147 -0.022 0.145 -0.017 Q 0.136 0.009000000000000001 0.108 0.011 Q 0.083 0.006 0.079 -0.016 Q 0.079 -0.014 0.088 -0.059000000000000004 Z"/></g><rect fill="rgb(192,192,192)" stroke="none" x="11.6478206724752" y="5.277508500000001" width="0.878" height="0.039999"/><g transform="translate(11.8523206724752,6.233459000000001)"><path fill="rgb(192,192,192)" stroke="none" paint-order="stroke fill markers" d=" M 0.391 -0.374 L 0.391 -0.374 Q 0.37 -0.418 0.301 -0.42 Q 0.22 -0.42 0.195 -0.359 Q 0.189 -0.34400000000000003 0.189 -0.33 Q 0.189 -0.291 0.23700000000000002 -0.277 L 0.23700000000000002 -0.277 L 0.23800000000000002 -0.276 Q 0.245 -0.274 0.265 -0.27 Q 0.327 -0.257 0.34800000000000003 -0.242 Q 0.357 -0.23600000000000002 0.365 -0.228 Q 0.396 -0.197 0.396 -0.155 Q 0.396 -0.10300000000000001 0.357 -0.056 Q 0.301 0.011 0.195 0.011 Q 0.10200000000000001 0.011 0.066 -0.041 Q 0.052000000000000005 -0.061 0.052000000000000005 -0.08600000000000001 Q 0.052000000000000005 -0.135 0.09 -0.149 Q 0.099 -0.152 0.108 -0.152 Q 0.14100000000000001 -0.147 0.145 -0.117 Q 0.145 -0.08600000000000001 0.11800000000000001 -0.07100000000000001 Q 0.10200000000000001 -0.061 0.082 -0.064 Q 0.105 -0.011 0.196 -0.011 Q 0.299 -0.011 0.331 -0.08600000000000001 Q 0.339 -0.105 0.339 -0.121 Q 0.339 -0.169 0.28 -0.187 L 0.28 -0.187 L 0.279 -0.187 Q 0.264 -0.191 0.23500000000000001 -0.197 Q 0.145 -0.216 0.134 -0.277 Q 0.132 -0.28600000000000003 0.132 -0.296 Q 0.132 -0.34600000000000003 0.17 -0.389 Q 0.217 -0.442 0.301 -0.442 Q 0.38 -0.442 0.41000000000000003 -0.393 Q 0.42 -0.376 0.42 -0.356 Q 0.42 -0.311 0.386 -0.302 Q 0.38 -0.3 0.374 -0.3 Q 0.34600000000000003 -0.304 0.343 -0.329 Q 0.343 -0.356 0.37 -0.369 Q 0.38 -0.374 0.391 -0.374 Z"/></g></g><path fill="rgb(255,255,255)" stroke="none" paint-order="stroke fill markers" d=" M 290.31831559623225 427.3870756521855 C 290.31831559623225 431.8053536508319 286.7365935948786 435.3870756521855 282.31831559623225 435.3870756521855 C 277.9000375975859 435.3870756521855 274.31831559623225 431.8053536508319 274.31831559623225 427.3870756521855 C 274.31831559623225 422.9687976535391 277.9000375975859 419.3870756521855 282.31831559623225 419.3870756521855 C 286.7365935948786 419.3870756521855 290.31831559623225 422.9687976535391 290.31831559623225 427.3870756521855 Z" fill-opacity="1"/><path fill="none" stroke="rgb(0,0,0)" paint-order="fill stroke markers" d=" M 290.31831559623225 427.3870756521855 C 290.31831559623225 431.8053536508319 286.7365935948786 435.3870756521855 282.31831559623225 435.3870756521855 C 277.9000375975859 435.3870756521855 274.31831559623225 431.8053536508319 274.31831559623225 427.3870756521855 C 274.31831559623225 422.9687976535391 277.9000375975859 419.3870756521855 282.31831559623225 419.3870756521855 C 286.7365935948786 419.3870756521855 290.31831559623225 422.9687976535391 290.31831559623225 427.3870756521855 Z" stroke-opacity="1" stroke-linecap="round" stroke-linejoin="round" stroke-miterlimit="10"/></g></g></svg>