<svg version="1.1" xmlns="http://www.w3.org/2000/svg" xmlns:xlink="http://www.w3.org/1999/xlink" width="949" height="704"><defs><clipPath id="epDJROTUTctp"><path fill="none" stroke="none" d=" M 0 0 L 949 0 L 949 704 L 0 704 L 0 0 Z"/></clipPath></defs><g transform="scale(1,1)" clip-path="url(#epDJROTUTctp)"><g><rect fill="rgb(0,0,0)" stroke="none" x="0" y="0" width="949" height="704" fill-opacity="1"/><path fill="none" stroke="rgb(255,0,51)" paint-order="fill stroke markers" d=" M 168.4451599535181 709 L 763.4451599535181 -5" stroke-opacity="0.7019607843137254" stroke-linecap="round" stroke-linejoin="round" stroke-miterlimit="10" stroke-width="4.5"/><path fill="rgb(255,255,255)" stroke="none" paint-order="stroke fill markers" d=" M 704.3502750646594 499.08570343867433 C 704.426132897122 499.2690745320902 704.4640618133533 499.4644387285015 704.4640618133532 499.6598029249127 L 704.4640618133533 499.6598029249127 C 704.4640618133533 499.4564471422262 704.423595132958 499.262542859171 704.3502751350945 499.08570343867433 Z M 704.4640571533735 499.66355362242217 C 704.4635747437518 499.8576928250496 704.42563739034 500.0517562368836 704.3502450931378 500.2339748558983 L 704.350245096296 500.2339748558983 C 704.4231331241959 500.058203440699 704.4635627816681 499.8655707479095 704.4640572238199 499.66355362242217 Z M 38.221776956868695 498.1598029249127 C 37.3933498321225 498.1598029249127 36.721776956868695 498.8313758001665 36.721776956868695 499.6598029249127 C 36.721776956868695 500.4882300496589 37.3933498321225 501.1598029249127 38.221776956868695 501.1598029249127 L 699.3427414697937 501.1598029249127 L 700.8427414697937 499.6598029249127 L 699.3427414697937 498.1598029249127 Z" fill-opacity="0.6980392156862745"/><path fill="rgb(255,255,255)" stroke="none" paint-order="stroke fill markers" d=" M 701.9034016415735 498.59914275313287 L 695.9034016415735 504.59914275313287 C 695.3176152039466 505.18492919075976 695.3176152039466 506.1346766590656 695.9034016415735 506.72046309669247 C 696.4891880792004 507.30624953431936 697.4389355475062 507.3062495343194 698.024721985133 506.7204630966925 L 704.024721985133 500.7204630966925 C 704.61050842276 500.13467665906563 704.61050842276 499.1849291907598 704.024721985133 498.5991427531329 C 703.4389355475062 498.01335631550603 702.4891880792004 498.013356315506 701.9034016415735 498.59914275313287 Z M 695.9034016415735 494.7204630966925 L 701.9034016415735 500.7204630966925 C 702.4891880792004 501.3062495343194 703.4389355475062 501.30624953431936 704.024721985133 500.72046309669247 C 704.61050842276 500.1346766590656 704.61050842276 499.18492919075976 704.024721985133 498.59914275313287 L 698.024721985133 492.59914275313287 C 697.4389355475062 492.013356315506 696.4891880792004 492.01335631550603 695.9034016415735 492.5991427531329 C 695.3176152039466 493.1849291907598 695.3176152039466 494.13467665906563 695.9034016415735 494.7204630966925 Z" fill-opacity="0.6980392156862745"/><path fill="rgb(255,255,255)" stroke="none" paint-order="stroke fill markers" d=" M 287.50013002685665 82.69587488961444 C 287.29675111304266 82.69587538731578 287.10282590677394 82.7363517713154 286.92597038232606 82.80968806733793 L 286.9259704091178 82.80968806733793 C 287.1093588463529 82.73381309737422 287.3047444128698 82.6958753714664 287.50013005557577 82.69587488961444 Z M 287.5001375406452 82.69587488961454 L 287.50013754064514 82.69587488961454 C 287.6955231699777 82.69587537665979 287.8909087223001 82.73381310256757 288.074297146983 82.80968806733793 L 288.0742971737747 82.80968806733793 C 287.8974416610801 82.73635177618911 287.7035164688335 82.69587539269567 287.50013756979206 82.69587488961454 Z M 287.5001337780504 86.31719523316951 L 286.0001337780504 87.8171952331695 L 286.0001337780504 709 C 286.0001337780504 709.8284271247462 286.67170665330417 710.5 287.5001337780504 710.5 C 288.3285609027966 710.5 289.0001337780504 709.8284271247462 289.0001337780504 709 L 289.0001337780504 87.8171952331695 L 287.5001337780504 86.31719523316951 Z" fill-opacity="0.6980392156862745"/><path fill="rgb(255,255,255)" stroke="none" paint-order="stroke fill markers" d=" M 286.43947360627055 83.13521471783002 L 280.43947360627055 89.13521471783002 C 279.85368716864366 89.72100115545692 279.85368716864366 90.67074862376279 280.43947360627055 91.25653506138968 C 281.02526004389745 91.84232149901658 281.9750075122033 91.84232149901658 282.5607939498302 91.25653506138968 L 288.5607939498302 85.25653506138968 C 289.1465803874571 84.67074862376279 289.1465803874571 83.72100115545692 288.5607939498302 83.13521471783002 C 287.9750075122033 82.54942828020313 287.02526004389745 82.54942828020313 286.43947360627055 83.13521471783002 Z M 294.5607939498302 89.13521471783002 L 288.5607939498302 83.13521471783002 C 287.9750075122033 82.54942828020313 287.02526004389745 82.54942828020313 286.43947360627055 83.13521471783002 C 285.85368716864366 83.72100115545692 285.85368716864366 84.67074862376279 286.43947360627055 85.25653506138968 L 292.43947360627055 91.25653506138968 C 293.02526004389745 91.84232149901658 293.9750075122033 91.84232149901658 294.5607939498302 91.25653506138968 C 295.1465803874571 90.67074862376279 295.1465803874571 89.72100115545692 294.5607939498302 89.13521471783002 Z" fill-opacity="0.6980392156862745"/><path fill="rgb(0,0,0)" stroke="none" paint-order="stroke fill markers" d=" M 919.4796280991716 131.73367768595176 C 919.4796280991716 132.28596243578255 919.0319128490024 132.73367768595176 918.4796280991716 132.73367768595176 C 917.9273433493407 132.73367768595176 917.4796280991716 132.28596243578255 917.4796280991716 131.73367768595176 C 917.4796280991716 131.18139293612097 917.9273433493407 130.73367768595176 918.4796280991716 130.73367768595176 C 919.0319128490024 130.73367768595176 919.4796280991716 131.18139293612097 919.4796280991716 131.73367768595176 Z" fill-opacity="1"/><g transform="scale(44,44)"><g transform="translate(16.181818181818183,11.592272727272727)"><path fill="rgb(192,192,192)" stroke="none" paint-order="stroke fill markers" d=" M 0.20600000000000002 -0.4 L 0.132 -0.105 Q 0.126 -0.08 0.126 -0.057 Q 0.126 -0.011 0.157 -0.011 Q 0.223 -0.011 0.273 -0.108 L 0.28700000000000003 -0.139 Q 0.293 -0.152 0.302 -0.153 Q 0.314 -0.153 0.314 -0.14300000000000002 Q 0.314 -0.13 0.28800000000000003 -0.08600000000000001 Q 0.23 0.011 0.155 0.011 Q 0.097 0.011 0.073 -0.037 Q 0.063 -0.057 0.063 -0.081 Q 0.063 -0.1 0.124 -0.34 L 0.139 -0.4 L 0.051000000000000004 -0.4 Q 0.026000000000000002 -0.4 0.024 -0.40800000000000003 L 0.023 -0.40800000000000003 L 0.023 -0.41200000000000003 Q 0.023 -0.429 0.039 -0.431 L 0.053 -0.431 L 0.147 -0.431 L 0.186 -0.59 Q 0.195 -0.625 0.226 -0.626 Q 0.252 -0.626 0.255 -0.599 Q 0.255 -0.593 0.214 -0.431 L 0.302 -0.431 Q 0.328 -0.431 0.33 -0.42 Q 0.33 -0.402 0.314 -0.4 L 0.313 -0.4 L 0.3 -0.4 L 0.20600000000000002 -0.4 Z"/></g></g><g transform="scale(25,25)"><g transform="translate(27.16,19.751)"><path fill="rgb(192,192,192)" stroke="none" paint-order="stroke fill markers" d=" M 0.391 -0.374 L 0.391 -0.374 Q 0.37 -0.418 0.301 -0.42 Q 0.22 -0.42 0.195 -0.359 Q 0.189 -0.34400000000000003 0.189 -0.33 Q 0.189 -0.291 0.23700000000000002 -0.277 L 0.23700000000000002 -0.277 L 0.23800000000000002 -0.276 Q 0.245 -0.274 0.265 -0.27 Q 0.327 -0.257 0.34800000000000003 -0.242 Q 0.357 -0.23600000000000002 0.365 -0.228 Q 0.396 -0.197 0.396 -0.155 Q 0.396 -0.10300000000000001 0.357 -0.056 Q 0.301 0.011 0.195 0.011 Q 0.10200000000000001 0.011 0.066 -0.041 Q 0.052000000000000005 -0.061 0.052000000000000005 -0.08600000000000001 Q 0.052000000000000005 -0.135 0.09 -0.149 Q 0.099 -0.152 0.108 -0.152 Q 0.14100000000000001 -0.147 0.145 -0.117 Q 0.145 -0.08600000000000001 0.11800000000000001 -0.07100000000000001 Q 0.10200000000000001 -0.061 0.082 -0.064 Q 0.105 -0.011 0.196 -0.011 Q 0.299 -0.011 0.331 -0.08600000000000001 Q 0.339 -0.105 0.339 -0.121 Q 0.339 -0.169 0.28 -0.187 L 0.28 -0.187 L 0.279 -0.187 Q 0.264 -0.191 0.23500000000000001 -0.197 Q 0.145 -0.216 0.134 -0.277 Q 0.132 -0.28600000000000003 0.132 -0.296 Q 0.132 -0.34600000000000003 0.17 -0.389 Q 0.217 -0.442 0.301 -0.442 Q 0.38 -0.442 0.41000000000000003 -0.393 Q 0.42 -0.376 0.42 -0.356 Q 0.42 -0.311 0.386 -0.302 Q 0.38 -0.3 0.374 -0.3 Q 0.34600000000000003 -0.304 0.343 -0.329 Q 0.343 -0.356 0.37 -0.369 Q 0.38 -0.374 0.391 -0.374 Z"/></g></g><path fill="none" stroke="rgb(0,204,0)" paint-order="fill stroke markers" d=" M 0 413.7605251539882 L 3.70703125 422.0556842516235 L 7.4140625 430.18546099279934 L 11.12109375 438.14985537751573 L 14.828125 445.94886740577266 L 18.53515625 453.58249707757005 L 22.2421875 461.050744392908 L 25.94921875 468.35360935178653 L 29.65625 475.4910919542056 L 33.36328124999997 482.4631922001652 L 37.0703125 489.2699100896653 L 40.77734375 495.91124562270596 L 44.48437499999994 502.38719879928715 L 48.19140625 508.697769619409 L 51.89843749999994 514.8429580830712 L 55.60546875 520.822764190274 L 59.31249999999994 526.6371879410174 L 63.01953125 532.2862293353013 L 66.72656249999997 537.7698883731256 L 70.43359375 543.0881650544907 L 74.14062499999997 548.2410593793961 L 77.84765624999997 553.2285713478421 L 81.55468749999997 558.0507009598288 L 85.26171875 562.7074482153558 L 88.96874999999997 567.1988131144235 L 92.67578124999997 571.5247956570316 L 96.38281249999997 575.6853958431805 L 100.08984374999997 579.6806136728696 L 103.79687499999997 583.5104491460995 L 107.50390624999997 587.1749022628699 L 111.21093749999997 590.6739730231807 L 114.91796874999997 594.0076614270322 L 118.62499999999997 597.175967474424 L 122.33203124999997 600.1788911653566 L 126.03906249999997 603.0164324998296 L 129.74609374999997 605.6885914778431 L 133.45312499999997 608.1953680993973 L 137.16015624999997 610.536762364492 L 140.86718749999997 612.7127742731271 L 144.57421874999997 614.7234038253029 L 148.28124999999997 616.5686510210191 L 151.98828124999997 618.2485158602759 L 155.69531249999997 619.7629983430733 L 159.40234374999997 621.1120984694111 L 163.10937499999997 622.2958162392895 L 166.81640625 623.3141516527085 L 170.5234375 624.1671047096679 L 174.23046875 624.8546754101679 L 177.93749999999994 625.3768637542086 L 181.64453124999994 625.7336697417896 L 185.35156249999994 625.9250933729113 L 189.05859374999994 625.9511346475734 L 192.76562499999994 625.8117935657762 L 196.47265624999994 625.5070701275195 L 200.17968749999994 625.0369643328032 L 203.88671874999994 624.4014761816275 L 207.59374999999994 623.6006056739924 L 211.30078124999994 622.6343528098978 L 215.00781249999994 621.5027175893438 L 218.71484374999994 620.2057000123302 L 222.42187499999994 618.7433000788573 L 226.12890624999997 617.1155177889248 L 229.83593749999997 615.3223531425328 L 233.54296874999997 613.3638061396815 L 237.24999999999997 611.2398767803707 L 240.95703124999997 608.9505650646004 L 244.66406249999997 606.4958709923706 L 248.37109374999997 603.8757945636813 L 252.07812499999997 601.0903357785327 L 255.78515624999997 598.1394946369245 L 259.4921875 595.0232711388569 L 263.19921875 591.7416652843299 L 266.90625 588.2946770733433 L 270.61328125 584.6823065058973 L 274.3203125 580.9045535819919 L 278.02734375 576.961418301627 L 281.734375 572.8529006648025 L 285.44140625 568.5790006715187 L 289.1484375 564.1397183217754 L 292.85546875 559.5350536155727 L 296.5625 554.7650065529103 L 300.26953124999994 549.8295771337887 L 303.97656249999994 544.7287653582076 L 307.68359374999994 539.4625712261669 L 311.39062499999994 534.0309947376669 L 315.09765624999994 528.4340358927074 L 318.80468749999994 522.6716946912884 L 322.51171874999994 516.7439711334099 L 326.21874999999994 510.65086521907193 L 329.92578124999994 504.39237694827455 L 333.6328125 497.9685063210176 L 337.33984374999994 491.3792533373014 L 341.046875 484.62461799712554 L 344.75390624999994 477.70460030049037 L 348.4609375 470.61920024739555 L 352.16796874999994 463.3684178378415 L 355.87499999999994 455.95225307182795 L 359.58203125 448.3707059493548 L 363.28906249999994 440.6237764704223 L 366.99609375 432.7114646350302 L 370.70312499999994 424.63377044317883 L 374.41015625 416.3906938948678 L 378.11718749999994 407.9822349900975 L 381.82421875 399.4083937288675 L 385.53124999999994 390.66917011117823 L 389.23828125 381.7645641370294 L 392.94531249999994 372.6945758064212 L 396.65234375 363.45920511935344 L 400.35937499999994 354.0584520758264 L 404.06640625 344.4923166758396 L 407.77343749999994 334.76079891939366 L 411.48046875 324.863898806488 L 413.333984375 319.8534303663629 L 415.18749999999994 314.80161633712305 L 417.041015625 309.70845671876816 L 418.89453125 304.57395151129845 L 420.7480468749999 299.398100714714 L 422.60156249999994 294.18090432901465 L 424.455078125 288.92236235420023 L 426.30859375 283.6224747902711 L 428.1621093749999 278.28124163722725 L 430.01562499999994 272.89866289506836 L 431.869140625 267.4747385637945 L 433.72265625 262.0094686434059 L 435.57617187499994 256.5028531339026 L 437.42968749999994 250.9548920352842 L 439.283203125 245.36558534755088 L 441.13671875 239.73493307070282 L 442.99023437499994 234.06293520473997 L 444.84374999999994 228.34959174966218 L 446.697265625 222.59490270546945 L 448.55078125 216.79886807216184 L 450.40429687499994 210.96148784973963 L 452.25781249999994 205.08276203820236 L 454.111328125 199.1626906375501 L 455.96484375 193.20127364778313 L 457.81835937499994 187.19851106890138 L 459.67187499999994 181.15440290090464 L 461.525390625 175.06894914379302 L 463.37890625 168.94214979756646 L 465.23242187499994 162.77400486222547 L 467.0859375 156.56451433776914 L 468.939453125 150.3136782241981 L 470.79296875 144.021496521512 L 472.64648437499994 137.68796922971148 L 474.5 131.3130963487958 L 476.353515625 124.89687787876517 L 478.2070312499999 118.43931381962 L 480.06054687499994 111.94040417135972 L 481.9140625 105.4001489339845 L 483.767578125 98.81854810749445 L 485.6210937499999 92.19560169188986 L 487.47460937499994 85.53130968717011 L 489.328125 78.82567209333541 L 491.181640625 72.07868891038595 L 493.0351562499999 65.29036013832183 L 494.88867187499994 58.4606857771426 L 496.7421875 51.58966582684849 L 498.595703125 44.67730028743955 L 500.44921874999994 37.72358915891607 L 502.30273437499994 30.72853244127731 L 504.15625 23.69213013452378 L 506.009765625 16.614382238655367 L 507.86328124999994 9.495288753672298 L 509.71679687499994 2.33484967957412 L 511.5703125 -4.866934983638885 L 513.423828125 -12.110065235966772" stroke-opacity="0.4" stroke-linejoin="round" stroke-miterlimit="10" stroke-width="3" stroke-dasharray="7,4"/><path fill="none" stroke="rgb(0,204,0)" paint-order="fill stroke markers" d=" M 287.50013294712255 566.1340324076746 L 289.14843749999994 564.1397183217755 M 289.14843749999994 564.1397183217755 L 292.85546874999994 559.5350536155727 L 296.56249999999994 554.7650065529104 M 296.56249999999994 554.7650065529104 L 300.26953124999994 549.8295771337888 L 303.97656249999994 544.7287653582076 L 307.68359374999994 539.462571226167 L 311.39062499999994 534.0309947376669 L 315.09765624999994 528.4340358927074 L 318.80468749999994 522.6716946912884 L 322.51171874999994 516.7439711334099 L 326.21874999999994 510.65086521907193 L 329.92578124999994 504.3923769482746 L 333.63281249999994 497.96850632101774 L 337.33984374999994 491.3792533373014 L 341.04687499999994 484.62461799712565 L 344.75390624999994 477.7046003004904 L 348.46093749999994 470.61920024739567 L 352.16796874999994 463.36841783784155 L 355.87499999999994 455.9522530718279 M 355.87499999999994 455.9522530718279 L 359.58203124999994 448.37070594935483 L 363.28906249999994 440.6237764704223 L 366.99609374999994 432.71146463503027 L 370.70312499999994 424.63377044317883 L 374.41015624999994 416.39069389486787 L 378.11718749999994 407.9822349900975 L 381.82421874999994 399.4083937288676 L 385.53124999999994 390.66917011117823 L 389.23828124999994 381.76456413702954 L 392.94531249999994 372.6945758064212 L 396.65234374999994 363.45920511935356 L 400.35937499999994 354.0584520758264 L 404.06640624999994 344.4923166758397 L 407.77343749999994 334.76079891939366 L 411.48046874999994 324.86389880648807 L 413.33398437499994 319.853430366363 L 415.18749999999994 314.8016163371231 M 415.18749999999994 314.8016163371231 L 417.0410156249999 309.7084567187683 L 418.8945312499999 304.57395151129856 L 420.7480468749999 299.398100714714 L 422.6015624999999 294.18090432901465 L 424.4550781249999 288.92236235420035 L 426.3085937499999 283.6224747902712 L 428.1621093749999 278.28124163722725 L 430.0156249999999 272.89866289506847 L 431.86914062499994 267.47473856379463 L 433.7226562499999 262.0094686434061 L 435.5761718749999 256.50285313390265 L 437.4296874999999 250.95489203528427 L 439.2832031249999 245.3655853475511 L 441.1367187499999 239.73493307070305 L 442.9902343749999 234.06293520474009 L 444.8437499999999 228.34959174966235 M 444.8437499999999 228.34959174966235 L 446.6972656249999 222.59490270546962 L 448.5507812499999 216.79886807216212 L 450.4042968749999 210.96148784973974 L 452.2578124999999 205.08276203820247 L 454.11132812499994 199.16269063755027 L 455.9648437499999 193.20127364778335 L 457.8183593749999 187.19851106890155 L 459.6718749999999 181.1544029009048 M 459.6718749999999 181.1544029009048 L 461.52539062499994 175.0689491437932 L 463.3789062499999 168.94214979756674 L 465.2324218749999 162.77400486222552 L 467.0859374999999 156.5645143377692 M 467.0859374999999 156.5645143377692 L 468.69510022225563 151.14010528058304 L 470.3042629445115 145.68453341368007" stroke-opacity="1" stroke-linecap="round" stroke-linejoin="round" stroke-miterlimit="10" stroke-width="5"/><path fill="none" stroke="rgb(192,192,192)" paint-order="fill stroke markers" d=" M 470.3042621135836 145.68453623883465 L 287.5001337780504 145.68453623883465" stroke-opacity="0.5019607843137255" stroke-linejoin="round" stroke-miterlimit="10" stroke-width="3" stroke-dasharray="7,4"/><path fill="none" stroke="rgb(192,192,192)" paint-order="fill stroke markers" d=" M 470.3042621135836 145.68453623883465 L 470.3042621135836 499.6598029249127" stroke-opacity="0.5019607843137255" stroke-linejoin="round" stroke-miterlimit="10" stroke-width="3" stroke-dasharray="7,4"/><path fill="rgb(0,204,0)" stroke="none" paint-order="stroke fill markers" d=" M 295.5001337780504 566.1340314105612 C 295.5001337780504 570.5523094092075 291.91841177669676 574.1340314105612 287.5001337780504 574.1340314105612 C 283.081855779404 574.1340314105612 279.5001337780504 570.5523094092075 279.5001337780504 566.1340314105612 C 279.5001337780504 561.7157534119149 283.081855779404 558.1340314105612 287.5001337780504 558.1340314105612 C 291.91841177669676 558.1340314105612 295.5001337780504 561.7157534119149 295.5001337780504 566.1340314105612 Z" fill-opacity="1"/><path fill="none" stroke="rgb(0,0,0)" paint-order="fill stroke markers" d=" M 295.5001337780504 566.1340314105612 C 295.5001337780504 570.5523094092075 291.91841177669676 574.1340314105612 287.5001337780504 574.1340314105612 C 283.081855779404 574.1340314105612 279.5001337780504 570.5523094092075 279.5001337780504 566.1340314105612 C 279.5001337780504 561.7157534119149 283.081855779404 558.1340314105612 287.5001337780504 558.1340314105612 C 291.91841177669676 558.1340314105612 295.5001337780504 561.7157534119149 295.5001337780504 566.1340314105612 Z" stroke-opacity="1" stroke-linecap="round" stroke-linejoin="round" stroke-miterlimit="10"/><path fill="rgb(255,255,255)" stroke="none" paint-order="stroke fill markers" d=" M 295.5001337780504 145.68453623883465 C 295.5001337780504 150.102814237481 291.91841177669676 153.68453623883465 287.5001337780504 153.68453623883465 C 283.081855779404 153.68453623883465 279.5001337780504 150.102814237481 279.5001337780504 145.68453623883465 C 279.5001337780504 141.2662582401883 283.081855779404 137.68453623883465 287.5001337780504 137.68453623883465 C 291.91841177669676 137.68453623883465 295.5001337780504 141.2662582401883 295.5001337780504 145.68453623883465 Z" fill-opacity="1"/><path fill="none" stroke="rgb(0,0,0)" paint-order="fill stroke markers" d=" M 295.5001337780504 145.68453623883465 C 295.5001337780504 150.102814237481 291.91841177669676 153.68453623883465 287.5001337780504 153.68453623883465 C 283.081855779404 153.68453623883465 279.5001337780504 150.102814237481 279.5001337780504 145.68453623883465 C 279.5001337780504 141.2662582401883 283.081855779404 137.68453623883465 287.5001337780504 137.68453623883465 C 291.91841177669676 137.68453623883465 295.5001337780504 141.2662582401883 295.5001337780504 145.68453623883465 Z" stroke-opacity="1" stroke-linecap="round" stroke-linejoin="round" stroke-miterlimit="10"/><path fill="rgb(0,204,0)" stroke="none" paint-order="stroke fill markers" d=" M 478.3042621135836 145.68453623883465 C 478.3042621135836 150.102814237481 474.7225401122299 153.68453623883465 470.3042621135836 153.68453623883465 C 465.88598411493723 153.68453623883465 462.3042621135836 150.102814237481 462.3042621135836 145.68453623883465 C 462.3042621135836 141.2662582401883 465.88598411493723 137.68453623883465 470.3042621135836 137.68453623883465 C 474.7225401122299 137.68453623883465 478.3042621135836 141.2662582401883 478.3042621135836 145.68453623883465 Z" fill-opacity="1"/><path fill="none" stroke="rgb(0,0,0)" paint-order="fill stroke markers" d=" M 478.3042621135836 145.68453623883465 C 478.3042621135836 150.102814237481 474.7225401122299 153.68453623883465 470.3042621135836 153.68453623883465 C 465.88598411493723 153.68453623883465 462.3042621135836 150.102814237481 462.3042621135836 145.68453623883465 C 462.3042621135836 141.2662582401883 465.88598411493723 137.68453623883465 470.3042621135836 137.68453623883465 C 474.7225401122299 137.68453623883465 478.3042621135836 141.2662582401883 478.3042621135836 145.68453623883465 Z" stroke-opacity="1" stroke-linecap="round" stroke-linejoin="round" stroke-miterlimit="10"/><path fill="rgb(255,255,255)" stroke="none" paint-order="stroke fill markers" d=" M 478.3042621135836 499.6598029249127 C 478.3042621135836 504.078080923559 474.7225401122299 507.6598029249127 470.3042621135836 507.6598029249127 C 465.88598411493723 507.6598029249127 462.3042621135836 504.078080923559 462.3042621135836 499.6598029249127 C 462.3042621135836 495.2415249262663 465.88598411493723 491.6598029249127 470.3042621135836 491.6598029249127 C 474.7225401122299 491.6598029249127 478.3042621135836 495.2415249262663 478.3042621135836 499.6598029249127 Z" fill-opacity="1"/><path fill="none" stroke="rgb(0,0,0)" paint-order="fill stroke markers" d=" M 478.3042621135836 499.6598029249127 C 478.3042621135836 504.078080923559 474.7225401122299 507.6598029249127 470.3042621135836 507.6598029249127 C 465.88598411493723 507.6598029249127 462.3042621135836 504.078080923559 462.3042621135836 499.6598029249127 C 462.3042621135836 495.2415249262663 465.88598411493723 491.6598029249127 470.3042621135836 491.6598029249127 C 474.7225401122299 491.6598029249127 478.3042621135836 495.2415249262663 478.3042621135836 499.6598029249127 Z" stroke-opacity="1" stroke-linecap="round" stroke-linejoin="round" stroke-miterlimit="10"/><g transform="scale(44,44)"><g transform="translate(10.5,12.296818181818182)"><path fill="rgb(255,255,255)" stroke="none" paint-order="stroke fill markers" d=" M 0.20600000000000002 -0.4 L 0.132 -0.105 Q 0.126 -0.08 0.126 -0.057 Q 0.126 -0.011 0.157 -0.011 Q 0.223 -0.011 0.273 -0.108 L 0.28700000000000003 -0.139 Q 0.293 -0.152 0.302 -0.153 Q 0.314 -0.153 0.314 -0.14300000000000002 Q 0.314 -0.13 0.28800000000000003 -0.08600000000000001 Q 0.23 0.011 0.155 0.011 Q 0.097 0.011 0.073 -0.037 Q 0.063 -0.057 0.063 -0.081 Q 0.063 -0.1 0.124 -0.34 L 0.139 -0.4 L 0.051000000000000004 -0.4 Q 0.026000000000000002 -0.4 0.024 -0.40800000000000003 L 0.023 -0.40800000000000003 L 0.023 -0.41200000000000003 Q 0.023 -0.429 0.039 -0.431 L 0.053 -0.431 L 0.147 -0.431 L 0.186 -0.59 Q 0.195 -0.625 0.226 -0.626 Q 0.252 -0.626 0.255 -0.599 Q 0.255 -0.593 0.214 -0.431 L 0.302 -0.431 Q 0.328 -0.431 0.33 -0.42 Q 0.33 -0.402 0.314 -0.4 L 0.313 -0.4 L 0.3 -0.4 L 0.20600000000000002 -0.4 Z"/></g><g transform="translate(10.861,12.446818181818182) scale(0.7,0.7)"><path fill="rgb(255,255,255)" stroke="none" paint-order="stroke fill markers" d=" M 0.294 -0.64 L 0.294 -0.079 Q 0.294 -0.049 0.306 -0.041 Q 0.323 -0.031 0.387 -0.031 L 0.419 -0.031 L 0.419 0 Q 0.384 -0.003 0.257 -0.003 Q 0.13 -0.003 0.095 0 L 0.095 -0.031 L 0.127 -0.031 Q 0.20400000000000001 -0.031 0.215 -0.049 L 0.216 -0.05 Q 0.22 -0.058 0.22 -0.079 L 0.22 -0.597 Q 0.168 -0.5710000000000001 0.089 -0.5710000000000001 L 0.089 -0.602 Q 0.209 -0.602 0.271 -0.666 Q 0.29 -0.666 0.293 -0.659 L 0.293 -0.659 L 0.293 -0.658 Q 0.294 -0.655 0.294 -0.64 Z"/></g></g><g transform="scale(44,44)"><g transform="translate(5.2272727272727275,12.976454545454544)"><path fill="rgb(255,255,255)" stroke="none" paint-order="stroke fill markers" d=" M 0.334 -0.302 L 0.3 -0.165 Q 0.28300000000000003 -0.097 0.28300000000000003 -0.077 Q 0.28300000000000003 -0.025 0.32 -0.014 Q 0.328 -0.011 0.338 -0.011 Q 0.388 -0.011 0.429 -0.061 Q 0.456 -0.093 0.47100000000000003 -0.14200000000000002 Q 0.47400000000000003 -0.153 0.484 -0.153 Q 0.496 -0.153 0.496 -0.14300000000000002 Q 0.496 -0.11800000000000001 0.465 -0.07100000000000001 Q 0.41100000000000003 0.011 0.336 0.011 Q 0.268 0.011 0.23700000000000002 -0.046 Q 0.231 -0.055 0.228 -0.065 Q 0.20400000000000001 -0.017 0.162 0.002 Q 0.14300000000000002 0.011 0.123 0.011 Q 0.063 0.011 0.039 -0.024 Q 0.029 -0.037 0.029 -0.055 Q 0.029 -0.092 0.061 -0.107 Q 0.07200000000000001 -0.113 0.084 -0.113 Q 0.114 -0.113 0.12 -0.088 Q 0.121 -0.083 0.121 -0.078 Q 0.121 -0.044 0.08700000000000001 -0.028 Q 0.081 -0.025 0.074 -0.024 Q 0.095 -0.011 0.124 -0.011 Q 0.177 -0.011 0.20800000000000002 -0.082 Q 0.214 -0.097 0.219 -0.115 Q 0.273 -0.319 0.273 -0.353 Q 0.267 -0.41500000000000004 0.219 -0.42 Q 0.167 -0.42 0.124 -0.367 L 0.124 -0.366 Q 0.124 -0.365 0.123 -0.365 Q 0.108 -0.34500000000000003 0.096 -0.319 Q 0.091 -0.307 0.08700000000000001 -0.295 L 0.085 -0.289 Q 0.083 -0.278 0.07200000000000001 -0.278 Q 0.06 -0.278 0.06 -0.28800000000000003 Q 0.06 -0.313 0.092 -0.36 Q 0.146 -0.442 0.221 -0.442 Q 0.298 -0.442 0.329 -0.366 Q 0.361 -0.428 0.41400000000000003 -0.44 Q 0.424 -0.442 0.434 -0.442 Q 0.493 -0.442 0.517 -0.40900000000000003 Q 0.527 -0.395 0.527 -0.376 Q 0.527 -0.335 0.49 -0.321 Q 0.481 -0.318 0.47300000000000003 -0.318 Q 0.442 -0.318 0.436 -0.34500000000000003 Q 0.435 -0.34900000000000003 0.435 -0.353 Q 0.435 -0.383 0.464 -0.4 Q 0.47300000000000003 -0.405 0.483 -0.40700000000000003 Q 0.462 -0.42 0.433 -0.42 Q 0.365 -0.42 0.337 -0.314 Q 0.335 -0.308 0.334 -0.302 Z"/></g><g transform="translate(5.799272727272728,13.126454545454544) scale(0.7,0.7)"><path fill="rgb(255,255,255)" stroke="none" paint-order="stroke fill markers" d=" M 0.46 -0.32 Q 0.46 -0.17400000000000002 0.423 -0.094 Q 0.364 0.018000000000000002 0.249 0.022 Q 0.158 0.022 0.10300000000000001 -0.05 Q 0.092 -0.063 0.084 -0.079 Q 0.039 -0.162 0.039 -0.32 Q 0.039 -0.467 0.076 -0.547 Q 0.126 -0.659 0.23800000000000002 -0.666 L 0.25 -0.666 Q 0.339 -0.666 0.395 -0.595 L 0.395 -0.594 Q 0.40900000000000003 -0.5760000000000001 0.42 -0.554 Q 0.46 -0.46900000000000003 0.46 -0.32 M 0.249 0 L 0.249 0 Q 0.312 0 0.34600000000000003 -0.061 Q 0.36 -0.088 0.366 -0.125 Q 0.377 -0.189 0.377 -0.332 Q 0.377 -0.47100000000000003 0.367 -0.527 Q 0.34900000000000003 -0.622 0.275 -0.641 Q 0.262 -0.644 0.249 -0.644 Q 0.179 -0.644 0.147 -0.5740000000000001 Q 0.136 -0.55 0.13 -0.516 Q 0.122 -0.462 0.122 -0.332 Q 0.122 -0.181 0.133 -0.121 Q 0.151 -0.025 0.221 -0.004 Q 0.23500000000000001 0 0.249 0 Z"/></g></g><g transform="scale(44,44)"><g transform="translate(6.295454545454546,1.6355454545454546)"><path fill="rgb(192,192,192)" stroke="none" paint-order="stroke fill markers" d=" M 0.334 -0.302 L 0.3 -0.165 Q 0.28300000000000003 -0.097 0.28300000000000003 -0.077 Q 0.28300000000000003 -0.025 0.32 -0.014 Q 0.328 -0.011 0.338 -0.011 Q 0.388 -0.011 0.429 -0.061 Q 0.456 -0.093 0.47100000000000003 -0.14200000000000002 Q 0.47400000000000003 -0.153 0.484 -0.153 Q 0.496 -0.153 0.496 -0.14300000000000002 Q 0.496 -0.11800000000000001 0.465 -0.07100000000000001 Q 0.41100000000000003 0.011 0.336 0.011 Q 0.268 0.011 0.23700000000000002 -0.046 Q 0.231 -0.055 0.228 -0.065 Q 0.20400000000000001 -0.017 0.162 0.002 Q 0.14300000000000002 0.011 0.123 0.011 Q 0.063 0.011 0.039 -0.024 Q 0.029 -0.037 0.029 -0.055 Q 0.029 -0.092 0.061 -0.107 Q 0.07200000000000001 -0.113 0.084 -0.113 Q 0.114 -0.113 0.12 -0.088 Q 0.121 -0.083 0.121 -0.078 Q 0.121 -0.044 0.08700000000000001 -0.028 Q 0.081 -0.025 0.074 -0.024 Q 0.095 -0.011 0.124 -0.011 Q 0.177 -0.011 0.20800000000000002 -0.082 Q 0.214 -0.097 0.219 -0.115 Q 0.273 -0.319 0.273 -0.353 Q 0.267 -0.41500000000000004 0.219 -0.42 Q 0.167 -0.42 0.124 -0.367 L 0.124 -0.366 Q 0.124 -0.365 0.123 -0.365 Q 0.108 -0.34500000000000003 0.096 -0.319 Q 0.091 -0.307 0.08700000000000001 -0.295 L 0.085 -0.289 Q 0.083 -0.278 0.07200000000000001 -0.278 Q 0.06 -0.278 0.06 -0.28800000000000003 Q 0.06 -0.313 0.092 -0.36 Q 0.146 -0.442 0.221 -0.442 Q 0.298 -0.442 0.329 -0.366 Q 0.361 -0.428 0.41400000000000003 -0.44 Q 0.424 -0.442 0.434 -0.442 Q 0.493 -0.442 0.517 -0.40900000000000003 Q 0.527 -0.395 0.527 -0.376 Q 0.527 -0.335 0.49 -0.321 Q 0.481 -0.318 0.47300000000000003 -0.318 Q 0.442 -0.318 0.436 -0.34500000000000003 Q 0.435 -0.34900000000000003 0.435 -0.353 Q 0.435 -0.383 0.464 -0.4 Q 0.47300000000000003 -0.405 0.483 -0.40700000000000003 Q 0.462 -0.42 0.433 -0.42 Q 0.365 -0.42 0.337 -0.314 Q 0.335 -0.308 0.334 -0.302 Z"/></g></g><g transform="scale(44,44)"><g transform="translate(6.7272727272727275,14.871272727272727)"><path fill="rgb(255,255,255)" stroke="none" paint-order="stroke fill markers" d=" M 0.20600000000000002 -0.4 L 0.132 -0.105 Q 0.126 -0.08 0.126 -0.057 Q 0.126 -0.011 0.157 -0.011 Q 0.223 -0.011 0.273 -0.108 L 0.28700000000000003 -0.139 Q 0.293 -0.152 0.302 -0.153 Q 0.314 -0.153 0.314 -0.14300000000000002 Q 0.314 -0.13 0.28800000000000003 -0.08600000000000001 Q 0.23 0.011 0.155 0.011 Q 0.097 0.011 0.073 -0.037 Q 0.063 -0.057 0.063 -0.081 Q 0.063 -0.1 0.124 -0.34 L 0.139 -0.4 L 0.051000000000000004 -0.4 Q 0.026000000000000002 -0.4 0.024 -0.40800000000000003 L 0.023 -0.40800000000000003 L 0.023 -0.41200000000000003 Q 0.023 -0.429 0.039 -0.431 L 0.053 -0.431 L 0.147 -0.431 L 0.186 -0.59 Q 0.195 -0.625 0.226 -0.626 Q 0.252 -0.626 0.255 -0.599 Q 0.255 -0.593 0.214 -0.431 L 0.302 -0.431 Q 0.328 -0.431 0.33 -0.42 Q 0.33 -0.402 0.314 -0.4 L 0.313 -0.4 L 0.3 -0.4 L 0.20600000000000002 -0.4 Z"/></g><g transform="translate(7.088272727272727,15.021272727272727) scale(0.7,0.7)"><path fill="rgb(255,255,255)" stroke="none" paint-order="stroke fill markers" d=" M 0.46 -0.32 Q 0.46 -0.17400000000000002 0.423 -0.094 Q 0.364 0.018000000000000002 0.249 0.022 Q 0.158 0.022 0.10300000000000001 -0.05 Q 0.092 -0.063 0.084 -0.079 Q 0.039 -0.162 0.039 -0.32 Q 0.039 -0.467 0.076 -0.547 Q 0.126 -0.659 0.23800000000000002 -0.666 L 0.25 -0.666 Q 0.339 -0.666 0.395 -0.595 L 0.395 -0.594 Q 0.40900000000000003 -0.5760000000000001 0.42 -0.554 Q 0.46 -0.46900000000000003 0.46 -0.32 M 0.249 0 L 0.249 0 Q 0.312 0 0.34600000000000003 -0.061 Q 0.36 -0.088 0.366 -0.125 Q 0.377 -0.189 0.377 -0.332 Q 0.377 -0.47100000000000003 0.367 -0.527 Q 0.34900000000000003 -0.622 0.275 -0.641 Q 0.262 -0.644 0.249 -0.644 Q 0.179 -0.644 0.147 -0.5740000000000001 Q 0.136 -0.55 0.13 -0.516 Q 0.122 -0.462 0.122 -0.332 Q 0.122 -0.181 0.133 -0.121 Q 0.151 -0.025 0.221 -0.004 Q 0.23500000000000001 0 0.249 0 Z"/></g><g transform="translate(7.7160505050505055,14.871272727272727)"><path fill="rgb(255,255,255)" stroke="none" paint-order="stroke fill markers" d=" M 0.687 -0.327 L 0.09 -0.327 Q 0.058 -0.327 0.056 -0.34700000000000003 Q 0.056 -0.367 0.089 -0.367 L 0.6880000000000001 -0.367 Q 0.72 -0.367 0.721 -0.34700000000000003 Q 0.721 -0.327 0.687 -0.327 M 0.6880000000000001 -0.133 L 0.089 -0.133 Q 0.057 -0.133 0.056 -0.153 Q 0.056 -0.17300000000000001 0.09 -0.17300000000000001 L 0.687 -0.17300000000000001 Q 0.719 -0.17300000000000001 0.721 -0.153 Q 0.721 -0.133 0.6880000000000001 -0.133 Z"/></g><g transform="translate(8.771828282828285,14.871272727272727)"><path fill="rgb(255,255,255)" stroke="none" paint-order="stroke fill markers" d=" M 0.46 -0.32 Q 0.46 -0.17400000000000002 0.423 -0.094 Q 0.364 0.018000000000000002 0.249 0.022 Q 0.158 0.022 0.10300000000000001 -0.05 Q 0.092 -0.063 0.084 -0.079 Q 0.039 -0.162 0.039 -0.32 Q 0.039 -0.467 0.076 -0.547 Q 0.126 -0.659 0.23800000000000002 -0.666 L 0.25 -0.666 Q 0.339 -0.666 0.395 -0.595 L 0.395 -0.594 Q 0.40900000000000003 -0.5760000000000001 0.42 -0.554 Q 0.46 -0.46900000000000003 0.46 -0.32 M 0.249 0 L 0.249 0 Q 0.312 0 0.34600000000000003 -0.061 Q 0.36 -0.088 0.366 -0.125 Q 0.377 -0.189 0.377 -0.332 Q 0.377 -0.47100000000000003 0.367 -0.527 Q 0.34900000000000003 -0.622 0.275 -0.641 Q 0.262 -0.644 0.249 -0.644 Q 0.179 -0.644 0.147 -0.5740000000000001 Q 0.136 -0.55 0.13 -0.516 Q 0.122 -0.462 0.122 -0.332 Q 0.122 -0.181 0.133 -0.121 Q 0.151 -0.025 0.221 -0.004 Q 0.23500000000000001 0 0.249 0 Z"/></g></g><g transform="scale(44,44)"><g transform="translate(5.340909090909091,3.4764545454545455)"><path fill="rgb(255,255,255)" stroke="none" paint-order="stroke fill markers" d=" M 0.334 -0.302 L 0.3 -0.165 Q 0.28300000000000003 -0.097 0.28300000000000003 -0.077 Q 0.28300000000000003 -0.025 0.32 -0.014 Q 0.328 -0.011 0.338 -0.011 Q 0.388 -0.011 0.429 -0.061 Q 0.456 -0.093 0.47100000000000003 -0.14200000000000002 Q 0.47400000000000003 -0.153 0.484 -0.153 Q 0.496 -0.153 0.496 -0.14300000000000002 Q 0.496 -0.11800000000000001 0.465 -0.07100000000000001 Q 0.41100000000000003 0.011 0.336 0.011 Q 0.268 0.011 0.23700000000000002 -0.046 Q 0.231 -0.055 0.228 -0.065 Q 0.20400000000000001 -0.017 0.162 0.002 Q 0.14300000000000002 0.011 0.123 0.011 Q 0.063 0.011 0.039 -0.024 Q 0.029 -0.037 0.029 -0.055 Q 0.029 -0.092 0.061 -0.107 Q 0.07200000000000001 -0.113 0.084 -0.113 Q 0.114 -0.113 0.12 -0.088 Q 0.121 -0.083 0.121 -0.078 Q 0.121 -0.044 0.08700000000000001 -0.028 Q 0.081 -0.025 0.074 -0.024 Q 0.095 -0.011 0.124 -0.011 Q 0.177 -0.011 0.20800000000000002 -0.082 Q 0.214 -0.097 0.219 -0.115 Q 0.273 -0.319 0.273 -0.353 Q 0.267 -0.41500000000000004 0.219 -0.42 Q 0.167 -0.42 0.124 -0.367 L 0.124 -0.366 Q 0.124 -0.365 0.123 -0.365 Q 0.108 -0.34500000000000003 0.096 -0.319 Q 0.091 -0.307 0.08700000000000001 -0.295 L 0.085 -0.289 Q 0.083 -0.278 0.07200000000000001 -0.278 Q 0.06 -0.278 0.06 -0.28800000000000003 Q 0.06 -0.313 0.092 -0.36 Q 0.146 -0.442 0.221 -0.442 Q 0.298 -0.442 0.329 -0.366 Q 0.361 -0.428 0.41400000000000003 -0.44 Q 0.424 -0.442 0.434 -0.442 Q 0.493 -0.442 0.517 -0.40900000000000003 Q 0.527 -0.395 0.527 -0.376 Q 0.527 -0.335 0.49 -0.321 Q 0.481 -0.318 0.47300000000000003 -0.318 Q 0.442 -0.318 0.436 -0.34500000000000003 Q 0.435 -0.34900000000000003 0.435 -0.353 Q 0.435 -0.383 0.464 -0.4 Q 0.47300000000000003 -0.405 0.483 -0.40700000000000003 Q 0.462 -0.42 0.433 -0.42 Q 0.365 -0.42 0.337 -0.314 Q 0.335 -0.308 0.334 -0.302 Z"/></g><g transform="translate(5.912909090909091,3.6264545454545454) scale(0.7,0.7)"><path fill="rgb(255,255,255)" stroke="none" paint-order="stroke fill markers" d=" M 0.294 -0.64 L 0.294 -0.079 Q 0.294 -0.049 0.306 -0.041 Q 0.323 -0.031 0.387 -0.031 L 0.419 -0.031 L 0.419 0 Q 0.384 -0.003 0.257 -0.003 Q 0.13 -0.003 0.095 0 L 0.095 -0.031 L 0.127 -0.031 Q 0.20400000000000001 -0.031 0.215 -0.049 L 0.216 -0.05 Q 0.22 -0.058 0.22 -0.079 L 0.22 -0.597 Q 0.168 -0.5710000000000001 0.089 -0.5710000000000001 L 0.089 -0.602 Q 0.209 -0.602 0.271 -0.666 Q 0.29 -0.666 0.293 -0.659 L 0.293 -0.659 L 0.293 -0.658 Q 0.294 -0.655 0.294 -0.64 Z"/></g></g><g transform="scale(25,25)"><g transform="translate(11.84,4.471)"><path fill="rgb(192,192,192)" stroke="none" paint-order="stroke fill markers" d=" M 0.088 -0.059000000000000004 L 0.088 -0.059000000000000004 L 0.146 -0.29 Q 0.162 -0.354 0.162 -0.374 Q 0.162 -0.42 0.131 -0.42 Q 0.09 -0.42 0.064 -0.325 Q 0.061 -0.314 0.058 -0.301 Q 0.047 -0.279 0.041 -0.278 Q 0.029 -0.278 0.029 -0.28800000000000003 Q 0.029 -0.304 0.048 -0.356 Q 0.054 -0.373 0.06 -0.385 Q 0.084 -0.434 0.12 -0.441 Q 0.127 -0.442 0.134 -0.442 Q 0.188 -0.442 0.214 -0.397 Q 0.224 -0.378 0.226 -0.355 Q 0.29 -0.442 0.382 -0.442 Q 0.433 -0.442 0.464 -0.41600000000000004 Q 0.492 -0.392 0.496 -0.34500000000000003 Q 0.5640000000000001 -0.442 0.659 -0.442 Q 0.748 -0.442 0.769 -0.373 L 0.769 -0.372 Q 0.774 -0.355 0.774 -0.335 Q 0.774 -0.28200000000000003 0.713 -0.115 Q 0.6950000000000001 -0.07100000000000001 0.6950000000000001 -0.044 Q 0.6950000000000001 -0.011 0.719 -0.011 Q 0.781 -0.011 0.8170000000000001 -0.121 L 0.8210000000000001 -0.135 Q 0.8260000000000001 -0.151 0.8310000000000001 -0.152 L 0.8310000000000001 -0.153 L 0.836 -0.153 Q 0.848 -0.153 0.848 -0.14300000000000002 Q 0.848 -0.126 0.8270000000000001 -0.08 Q 0.784 0.011 0.717 0.011 Q 0.666 0.011 0.644 -0.032 Q 0.635 -0.05 0.635 -0.07100000000000001 Q 0.635 -0.091 0.648 -0.126 Q 0.71 -0.29 0.71 -0.35000000000000003 Q 0.71 -0.42 0.656 -0.42 Q 0.5680000000000001 -0.42 0.51 -0.325 Q 0.494 -0.3 0.491 -0.28700000000000003 Q 0.488 -0.274 0.431 -0.046 Q 0.42 -0.003 0.406 0.006 L 0.405 0.007 L 0.404 0.007 Q 0.397 0.011 0.386 0.011 Q 0.361 0.006 0.357 -0.016 L 0.37 -0.075 L 0.39 -0.151 L 0.418 -0.267 Q 0.433 -0.323 0.433 -0.35000000000000003 Q 0.433 -0.42 0.379 -0.42 Q 0.289 -0.42 0.228 -0.32 Q 0.221 -0.309 0.216 -0.298 L 0.203 -0.248 Q 0.198 -0.225 0.186 -0.181 L 0.164 -0.091 Q 0.147 -0.022 0.145 -0.017 Q 0.136 0.009000000000000001 0.108 0.011 Q 0.083 0.006 0.079 -0.016 Q 0.079 -0.014 0.088 -0.059000000000000004 Z"/></g></g><path fill="rgb(255,255,255)" stroke="none" paint-order="stroke fill markers" d=" M 295.5001337780504 499.6598029249127 C 295.5001337780504 504.078080923559 291.91841177669676 507.6598029249127 287.5001337780504 507.6598029249127 C 283.081855779404 507.6598029249127 279.5001337780504 504.078080923559 279.5001337780504 499.6598029249127 C 279.5001337780504 495.2415249262663 283.081855779404 491.6598029249127 287.5001337780504 491.6598029249127 C 291.91841177669676 491.6598029249127 295.5001337780504 495.2415249262663 295.5001337780504 499.6598029249127 Z" fill-opacity="1"/><path fill="none" stroke="rgb(0,0,0)" paint-order="fill stroke markers" d=" M 295.5001337780504 499.6598029249127 C 295.5001337780504 504.078080923559 291.91841177669676 507.6598029249127 287.5001337780504 507.6598029249127 C 283.081855779404 507.6598029249127 279.5001337780504 504.078080923559 279.5001337780504 499.6598029249127 C 279.5001337780504 495.2415249262663 283.081855779404 491.6598029249127 287.5001337780504 491.6598029249127 C 291.91841177669676 491.6598029249127 295.5001337780504 495.2415249262663 295.5001337780504 499.6598029249127 Z" stroke-opacity="1" stroke-linecap="round" stroke-linejoin="round" stroke-miterlimit="10"/></g></g></svg>